<?xml version="1.0" encoding="utf-8"?>
<!-- Generator: Adobe Illustrator 16.0.4, SVG Export Plug-In . SVG Version: 6.00 Build 0)  -->
<!DOCTYPE svg PUBLIC "-//W3C//DTD SVG 1.1//EN" "http://www.w3.org/Graphics/SVG/1.1/DTD/svg11.dtd">
<svg version="1.1" id="Layer_1" xmlns="http://www.w3.org/2000/svg" xmlns:xlink="http://www.w3.org/1999/xlink" x="0px" y="0px"
	 width="685.516px" height="268px" viewBox="0 0 685.516 268" enable-background="new 0 0 685.516 268" xml:space="preserve">
<linearGradient id="SVGID_1_" gradientUnits="userSpaceOnUse" x1="200.3501" y1="209.5703" x2="332.2347" y2="219.1969" gradientTransform="matrix(0.711 -0.7032 0.7032 0.711 -72.4725 237.5606)">
	<stop  offset="0" style="stop-color:#000000;stop-opacity:0"/>
	<stop  offset="1" style="stop-color:#010201"/>
</linearGradient>
<path fill="url(#SVGID_1_)" d="M199.116,193.824c-4.661-4.712-4.62-6.31,0.092-10.971l53.405,2.989
	c4.712-4.66,12.698,1.855,17.359,6.567l31.894,23.462c4.661,4.712,21.862,16.554,17.15,21.214l-30.532,18.496
	c-4.712,4.66-22.814,5.416-27.474,0.704L199.116,193.824z"/>
<linearGradient id="SVGID_2_" gradientUnits="userSpaceOnUse" x1="399.2622" y1="189.7217" x2="411.5362" y2="179.0521">
	<stop  offset="0" style="stop-color:#C33A28"/>
	<stop  offset="0.8825" style="stop-color:#8A241C"/>
</linearGradient>
<path fill="url(#SVGID_2_)" d="M387.043,175.665l28.322,28.099c6.78-1.098,7.903-4.515,7.103-12.136l-28.235-28.013l0,0
	C392.976,173.259,393.356,175.363,387.043,175.665L387.043,175.665z"/>
<linearGradient id="SVGID_3_" gradientUnits="userSpaceOnUse" x1="244.4556" y1="58.2749" x2="259.5077" y2="32.2039">
	<stop  offset="0" style="stop-color:#8A241C"/>
	<stop  offset="1" style="stop-color:#C33A28"/>
</linearGradient>
<path fill="url(#SVGID_3_)" d="M259.966,67.23l-28.337-28.066c0-6.326,4.536-13.614,14.178-14.87L273.82,52.53l0,0
	C264.177,53.786,260.268,60.918,259.966,67.23L259.966,67.23z"/>
<g>
	<g>
		<g>
			
				<linearGradient id="SVGID_4_" gradientUnits="userSpaceOnUse" x1="-24.5122" y1="222.9521" x2="147.3672" y2="222.9521" gradientTransform="matrix(0.9244 0.0533 0.0533 0.7558 10.0241 30.2057)">
				<stop  offset="0" style="stop-color:#000000;stop-opacity:0"/>
				<stop  offset="1" style="stop-color:#010201;stop-opacity:0.52"/>
			</linearGradient>
			<path fill="url(#SVGID_4_)" d="M160.061,233.957c-7.86-0.199-15.719-0.398-23.579-0.599c7.064,7.35,14.128,14.698,21.192,22.048
				c-12.969-0.327-35.339,4.307-44.66-5.39c-18.534-19.278-22.152-17.803-48.966-18.479c-10.363-0.261-45.753,4.795-53.173-2.925
				c-18.574-19.324-9.34-27.876-1.703-53.486c7.56-25.35,3.788-27.168,30.325-26.503c20.891,0.524,24.645,9.479,39.391,24.819
				c13.474,14.018,26.949,28.036,40.423,42.054c2.812,2.927,18.015,0.839,22.217,0.942
				C147.497,216.586,155.937,229.665,160.061,233.957z M79.241,214.877c-12.878-13.395-25.58-28.989-38.851-41.097
				c1.707,12.653-5.133,27.941-8.307,39.917C47.803,214.09,63.521,214.483,79.241,214.877z"/>
		</g>
	</g>
	<g>
		<g>
			<path fill="#294E67" d="M193.859,207.23c-9.488,0-18.976,0-28.463,0c-3.659,0-1.668,19.256-1.668,22.709
				c0,9.639,0,19.28,0,28.917c0,0.553-23.92,0.264-25.858,0.264c-3.842,0-23.121,2.731-25.858,0c-3.079-3.072,0-24.814,0-29.181
				c0-1.536,0.143-22.709-0.131-22.709c-7.017,0-14.036,0-21.052,0c-24.712,0-49.423,0-74.135,0c-2.439,0-11.534,1.583-11.534-1.41
				c0-11.33,0-22.661,0-33.993c0-8.027,13.912-21.896,18.204-28.215c14.38-21.177,28.761-42.353,43.142-63.53
				c11.428-16.828,22.855-33.656,34.283-50.485c1.633-2.404,11.369-20.819,14.407-20.819c16.087,0,32.177,0,48.265,0
				c0.569,0,0.269,27.739,0.269,29.681c0,39.804,0,79.61,0,119.415c0,1.192-0.883,7.343,0,8.263c2.675,2.796,22.392,0,26.575,0
				c6.75,0,3.557,10.051,3.557,15.723C193.859,190.315,193.859,198.772,193.859,207.23z M112.011,166.136
				c0-31.61-2.736-65.524,2.225-96.741c-6.764,4.805-12.21,20.742-17.426,28.624c-4.999,7.552-9.995,15.104-14.993,22.657
				c-10.027,15.154-20.055,30.307-30.082,45.46C71.827,166.136,91.919,166.136,112.011,166.136z"/>
		</g>
	</g>
</g>
<g>
	<g>
		<g>
			
				<linearGradient id="SVGID_5_" gradientUnits="userSpaceOnUse" x1="501.1099" y1="185.8916" x2="672.9897" y2="185.8916" gradientTransform="matrix(0.9244 0.0533 0.0533 0.7558 10.0241 30.2057)">
				<stop  offset="0" style="stop-color:#000000;stop-opacity:0"/>
				<stop  offset="1" style="stop-color:#010201;stop-opacity:0.52"/>
			</linearGradient>
			<path fill="url(#SVGID_5_)" d="M643.963,233.957c-7.861-0.199-15.719-0.398-23.58-0.599c7.064,7.35,14.129,14.698,21.192,22.048
				c-12.969-0.327-35.339,4.307-44.66-5.39c-18.534-19.278-22.151-17.803-48.966-18.479c-10.363-0.261-45.754,4.795-53.174-2.925
				c-18.574-19.324-9.34-27.876-1.702-53.486c7.56-25.35,3.788-27.168,30.325-26.503c20.891,0.524,24.645,9.479,39.391,24.819
				c13.474,14.018,26.948,28.036,40.422,42.054c2.812,2.927,18.016,0.839,22.217,0.942
				C631.399,216.586,639.839,229.665,643.963,233.957z M563.143,214.877c-12.877-13.395-25.58-28.989-38.851-41.097
				c1.707,12.653-5.133,27.941-8.307,39.917C531.706,214.09,547.424,214.483,563.143,214.877z"/>
		</g>
	</g>
	<g>
		<g>
			<path fill="#294E67" d="M677.761,207.23c-9.487,0-18.976,0-28.464,0c-3.658,0-1.668,19.256-1.668,22.709
				c0,9.639,0,19.28,0,28.917c0,0.553-23.92,0.264-25.858,0.264c-3.843,0-23.121,2.731-25.858,0c-3.078-3.072,0-24.814,0-29.181
				c0-1.536,0.144-22.709-0.131-22.709c-7.018,0-14.035,0-21.053,0c-24.711,0-49.423,0-74.135,0c-2.439,0-11.534,1.583-11.534-1.41
				c0-11.33,0-22.661,0-33.993c0-8.027,13.912-21.896,18.204-28.215c14.379-21.177,28.761-42.353,43.141-63.53
				c11.428-16.828,22.855-33.656,34.283-50.485c1.633-2.404,11.369-20.819,14.407-20.819c16.087,0,32.177,0,48.265,0
				c0.57,0,0.27,27.739,0.27,29.681c0,39.804,0,79.61,0,119.415c0,1.192-0.883,7.343,0,8.263c2.675,2.796,22.393,0,26.574,0
				c6.751,0,3.558,10.051,3.558,15.723C677.761,190.315,677.761,198.772,677.761,207.23z M595.913,166.136
				c0-31.61-2.736-65.524,2.226-96.741c-6.765,4.805-12.21,20.742-17.426,28.624c-4.999,7.552-9.995,15.104-14.993,22.657
				c-10.027,15.154-20.055,30.307-30.082,45.46C555.729,166.136,575.821,166.136,595.913,166.136z"/>
		</g>
	</g>
</g>
<g>
	<g>
		<g>
			<g>
				<g>
					<g>
						<g enable-background="new    ">
							<g enable-background="new    ">
								<defs>
									<path id="SVGID_6_" enable-background="new    " d="M415.366,203.764l-28.322-28.099c3.908-0.336,7.137-3.792,7.137-7.743
										l28.341,28.097C422.484,199.963,419.287,203.4,415.366,203.764z"/>
								</defs>
								<clipPath id="SVGID_7_">
									<use xlink:href="#SVGID_6_"  overflow="visible"/>
								</clipPath>
							</g>
							<g>
								<g>
									<polygon fill="#8A241C" points="422.535,186.136 394.18,158.045 437.028,154.279 465.364,182.378 									"/>
								</g>
								<g>
									<polygon fill="#8A241C" points="422.535,186.136 394.18,158.045 437.028,154.279 465.364,182.378 									"/>
								</g>
							</g>
							<g>
								<polygon fill="#8A241C" points="422.521,196.019 394.18,167.922 394.18,158.045 422.535,186.136 								"/>
							</g>
							<g>
								<polygon fill="#C33A28" points="309.806,213.038 281.484,184.938 387.043,175.665 415.366,203.764 								"/>
							</g>
							<g enable-background="new    ">
								<defs>
									<path id="SVGID_8_" enable-background="new    " d="M304.619,211.219c-0.437-0.423-1.003-0.979-1.439-1.406
										c-8.959-8.901-17.937-17.78-26.917-26.695c1.298,1.291,3.141,1.994,5.222,1.82l28.322,28.101
										C307.741,213.222,305.917,212.481,304.619,211.219z"/>
								</defs>
								<clipPath id="SVGID_9_">
									<use xlink:href="#SVGID_8_"  overflow="visible"/>
								</clipPath>
								<g clip-path="url(#SVGID_9_)" enable-background="new    ">
									<path fill="#942820" d="M304.619,211.219l-28.356-28.102c0.091,0.111,0.201,0.176,0.293,0.257l28.339,28.119
										C304.786,211.382,304.714,211.312,304.619,211.219"/>
									<path fill="#972920" d="M304.895,211.493l-28.339-28.119c0.146,0.155,0.31,0.268,0.457,0.384l28.337,28.091
										C305.188,211.729,305.042,211.592,304.895,211.493"/>
									<path fill="#9A2C21" d="M305.349,211.849l-28.337-28.091c0.127,0.104,0.274,0.183,0.419,0.272l28.341,28.083
										C305.642,212.03,305.495,211.933,305.349,211.849"/>
									<path fill="#9E2D21" d="M305.772,212.113l-28.341-28.083c0.145,0.097,0.291,0.167,0.438,0.231l28.341,28.09
										C306.063,212.295,305.917,212.216,305.772,212.113"/>
									<path fill="#A22C23" d="M306.209,212.352l-28.341-28.09c0.13,0.074,0.277,0.138,0.403,0.221l28.336,28.062
										C306.482,212.481,306.354,212.426,306.209,212.352"/>
									<path fill="#A72D24" d="M306.608,212.544l-28.336-28.062c0.146,0.027,0.311,0.09,0.438,0.146l28.321,28.078
										C306.9,212.65,306.755,212.615,306.608,212.544"/>
									<path fill="#AB3125" d="M307.031,212.706l-28.321-28.078c0.145,0.035,0.293,0.101,0.438,0.136l28.337,28.075
										C307.322,212.809,307.176,212.746,307.031,212.706"/>
									<path fill="#AE3125" d="M307.485,212.839l-28.337-28.075c0.125,0.039,0.292,0.056,0.454,0.095l28.319,28.07
										C307.76,212.9,307.615,212.866,307.485,212.839"/>
									<path fill="#B13126" d="M307.921,212.929l-28.319-28.07c0.146,0.017,0.291,0.042,0.457,0.063l28.341,28.076
										C308.254,212.998,308.068,212.984,307.921,212.929"/>
									<path fill="#B63327" d="M308.399,212.998l-28.341-28.076c0.167,0.026,0.347,0.026,0.509,0.034l28.341,28.099
										C308.727,213.055,308.583,213.038,308.399,212.998"/>
									<path fill="#B63627" d="M308.909,213.055l-28.341-28.099c0.187,0.009,0.388,0.009,0.569,0.009l28.355,28.09
										C309.292,213.055,309.11,213.055,308.909,213.055"/>
									<path fill="#BB3727" d="M309.493,213.055l-28.355-28.09c0.109-0.017,0.236-0.017,0.347-0.027l28.322,28.101
										C309.694,213.055,309.583,213.055,309.493,213.055"/>
								</g>
							</g>
							<g enable-background="new    ">
								<defs>
									<path id="SVGID_10_" enable-background="new    " d="M263.4,255.582l-28.341-28.088c-2.261-2.215-3.63-5.359-3.63-8.905
										l28.355,28.062C259.785,250.225,261.135,253.322,263.4,255.582z"/>
								</defs>
								<clipPath id="SVGID_11_">
									<use xlink:href="#SVGID_10_"  overflow="visible"/>
								</clipPath>
								<g clip-path="url(#SVGID_11_)" enable-background="new    ">
									<path fill="#82211A" d="M263.4,255.582l-28.341-28.088c-2.022-2.006-3.337-4.739-3.574-7.854l28.336,28.096
										C260.062,250.846,261.372,253.571,263.4,255.582"/>
									<path fill="#87241B" d="M259.821,247.736l-28.336-28.096c-0.036-0.332-0.036-0.705-0.056-1.052l28.355,28.062
										C259.785,247.022,259.807,247.364,259.821,247.736"/>
								</g>
							</g>
							<g>
								<path fill="#D83E27" d="M465.364,182.378l-0.069,46.231c-0.018,7.498-6.112,14.136-13.653,14.795l-178.28,15.663
									c-7.518,0.664-13.612-4.919-13.577-12.416l0.091-46.242l42.851-3.778l-0.021,9.905c0,3.932,3.173,6.838,7.102,6.502
									l104.56-9.274c3.921-0.363,8.118-3.801,8.155-7.745l0.014-9.883L465.364,182.378z"/>
							</g>
							<g>
								<g>
									<polygon fill="#8A241C" points="259.875,200.409 231.539,172.328 274.403,168.555 302.726,196.631 									"/>
								</g>
								<g>
									<polygon fill="#8A241C" points="259.875,200.409 231.539,172.328 274.403,168.555 302.726,196.631 									"/>
								</g>
							</g>
							<g>
								<polygon fill="#8A241C" points="259.785,246.651 231.429,218.589 231.539,172.328 259.875,200.409 								"/>
							</g>
						</g>
						<g enable-background="new    ">
							<g>
								<g>
									<polygon fill="#E6584F" points="465.128,104.346 465.387,172.402 422.535,176.16 422.286,108.103 									"/>
								</g>
								<g>
									<polygon fill="#E2493C" points="465.128,104.346 465.387,172.402 422.535,176.16 422.286,108.103 									"/>
								</g>
							</g>
							<g>
								<polygon fill="#8A241C" points="422.535,176.16 394.235,148.07 393.945,79.997 422.286,108.103 								"/>
							</g>
							<g>
								<g>
									<polygon fill="#8A241C" points="422.286,108.103 393.945,79.997 436.792,76.256 465.128,104.346 									"/>
								</g>
								<g>
									<polygon fill="#8A241C" points="422.286,108.103 393.945,79.997 436.792,76.256 465.128,104.346 									"/>
								</g>
							</g>
						</g>
						<g enable-background="new    ">
							<g>
								<g>
									<polygon fill="#E6584F" points="302.483,118.6 302.76,186.677 259.895,190.435 259.603,122.377 									"/>
								</g>
								<g>
									<polygon fill="#E2493C" points="302.483,118.6 302.76,186.677 259.895,190.435 259.603,122.377 									"/>
								</g>
							</g>
							<g>
								<polygon fill="#8A241C" points="259.895,190.435 231.556,162.344 231.283,94.308 259.603,122.377 								"/>
							</g>
							<g>
								<polygon fill="#8A241C" points="259.603,122.377 231.283,94.308 274.146,90.538 302.483,118.6 								"/>
							</g>
						</g>
					</g>
					<g>
						<g enable-background="new    ">
							<g>
								<polygon fill="#8A241C" points="422.502,97.945 394.143,69.885 394.18,61.326 422.521,89.415 								"/>
							</g>
							<g enable-background="new    ">
								<defs>
									<path id="SVGID_12_" enable-background="new    " d="M392.28,56.642c9.456,9.363,18.887,18.73,28.322,28.089
										c1.189,1.171,1.919,2.808,1.919,4.684L394.18,61.326C394.18,59.449,393.452,57.82,392.28,56.642z"/>
								</defs>
								<clipPath id="SVGID_13_">
									<use xlink:href="#SVGID_12_"  overflow="visible"/>
								</clipPath>
								<g clip-path="url(#SVGID_13_)" enable-background="new    ">
									<path fill="#87241B" d="M422.521,89.415L394.18,61.326c0-0.195-0.037-0.356-0.055-0.551l28.358,28.084
										C422.502,89.03,422.521,89.241,422.521,89.415"/>
									<path fill="#82211A" d="M422.484,88.858l-28.358-28.084c-0.107-1.644-0.783-3.088-1.846-4.133l28.322,28.089
										C421.663,85.785,422.355,87.221,422.484,88.858"/>
								</g>
							</g>
							<g enable-background="new    ">
								<g>
									<defs>
										<path id="SVGID_14_" d="M433.522,12.333c1.9,1.846,3.794,3.729,5.655,5.588c7.574,7.494,15.13,14.985,22.686,22.466
											c-2.481-2.445-6.02-3.8-9.964-3.486l-28.34-28.07C427.502,8.483,431.059,9.844,433.522,12.333z"/>
									</defs>
									<clipPath id="SVGID_15_">
										<use xlink:href="#SVGID_14_"  overflow="visible"/>
									</clipPath>
								</g>
								<g>
									<defs>
										<path id="SVGID_16_" d="M433.522,12.333c1.9,1.846,3.794,3.729,5.655,5.588c7.574,7.494,15.13,14.985,22.686,22.466
											c-2.481-2.445-6.02-3.8-9.964-3.486l-28.34-28.07C427.502,8.483,431.059,9.844,433.522,12.333z"/>
									</defs>
									<use xlink:href="#SVGID_16_"  overflow="visible" fill="#C33A28"/>
									<clipPath id="SVGID_17_">
										<use xlink:href="#SVGID_16_"  overflow="visible"/>
									</clipPath>
									<g clip-path="url(#SVGID_17_)">
										<path fill="#C33A28" d="M423.559,8.832l28.34,28.07c0.18,0,0.381-0.027,0.584-0.027L424.142,8.804
											C423.959,8.804,423.761,8.812,423.559,8.832z"/>
										<path fill="#C33A28" d="M424.142,8.804l28.341,28.071c0.362-0.028,0.729-0.028,1.077-0.008L425.238,8.804
											C424.889,8.776,424.508,8.776,424.142,8.804z"/>
										<path fill="#C33A28" d="M425.238,8.804l28.322,28.062c0.346,0.008,0.689,0.035,1.005,0.089L426.224,8.868
											C425.89,8.82,425.585,8.804,425.238,8.804z"/>
										<path fill="#C33A28" d="M426.224,8.868l28.341,28.088c0.31,0.037,0.616,0.073,0.909,0.136L427.138,8.994
											C426.845,8.95,426.534,8.896,426.224,8.868z"/>
										<path fill="#C33A28" d="M427.138,8.994l28.336,28.098c0.291,0.027,0.604,0.103,0.876,0.174L428.014,9.205
											C427.724,9.133,427.447,9.07,427.138,8.994z"/>
										<path fill="#C33A28" d="M428.014,9.205l28.336,28.061c0.271,0.092,0.547,0.158,0.819,0.258L428.835,9.451
											C428.556,9.361,428.302,9.259,428.014,9.205z"/>
										<path fill="#C33A28" d="M428.835,9.451l28.334,28.072c0.279,0.083,0.551,0.194,0.823,0.301L429.657,9.745
											C429.38,9.643,429.108,9.535,428.835,9.451z"/>
										<path fill="#C33A28" d="M429.657,9.745l28.336,28.079c0.291,0.119,0.53,0.227,0.807,0.386l-28.341-28.102
											C430.201,9.991,429.928,9.844,429.657,9.745z"/>
										<path fill="#C33A28" d="M430.458,10.108l28.341,28.102c0.271,0.128,0.543,0.281,0.819,0.436l-28.359-28.099
											C431.001,10.422,430.729,10.267,430.458,10.108z"/>
										<path fill="#C33A28" d="M431.259,10.548l28.359,28.099c0.274,0.166,0.547,0.36,0.823,0.549l-28.345-28.07
											C431.847,10.924,431.552,10.743,431.259,10.548z"/>
										<path fill="#C33A28" d="M432.097,11.125l28.345,28.07c0.305,0.23,0.579,0.446,0.852,0.67l-28.32-28.055
											C432.68,11.552,432.411,11.316,432.097,11.125z"/>
										<path fill="#C33A28" d="M433.522,12.333c-0.18-0.211-0.366-0.377-0.549-0.522l28.32,28.055
											c0.221,0.2,0.385,0.355,0.569,0.522L433.522,12.333z"/>
									</g>
								</g>
								<g>
									<defs>
										<path id="SVGID_18_" d="M433.522,12.333c1.9,1.846,3.794,3.729,5.655,5.588c7.574,7.494,15.13,14.985,22.686,22.466
											c-2.481-2.445-6.02-3.8-9.964-3.486l-28.34-28.07C427.502,8.483,431.059,9.844,433.522,12.333z"/>
									</defs>
									<clipPath id="SVGID_19_">
										<use xlink:href="#SVGID_18_"  overflow="visible"/>
									</clipPath>
								</g>
							</g>
							<g>
								<polygon fill="#8A241C" points="259.841,112.118 231.5,84.037 231.629,39.167 259.966,67.23 								"/>
							</g>
							<g>
								<polygon fill="#C33A28" points="273.599,52.463 245.263,24.375 423.559,8.832 451.899,36.902 								"/>
							</g>
							<g>
								<g>
									<path fill="#E6584F" d="M273.599,52.463l178.3-15.562c7.519-0.621,13.596,4.901,13.573,12.443l-0.141,44.869l-42.829,3.731
										l0.019-8.53c0-3.924-3.16-6.83-7.099-6.482L309.839,92.12c-3.907,0.348-7.113,3.813-7.113,7.737l-0.021,8.52l-42.863,3.741
										l0.125-44.888C259.986,59.735,266.099,53.131,273.599,52.463z"/>
								</g>
								<g>
									<path fill="#E6584F" d="M273.599,52.463l178.3-15.562c7.519-0.621,13.596,4.901,13.573,12.443l-0.141,44.869l-42.829,3.731
										l0.019-8.53c0-3.924-3.16-6.83-7.099-6.482L309.839,92.12c-3.907,0.348-7.113,3.813-7.113,7.737l-0.021,8.52l-42.863,3.741
										l0.125-44.888C259.986,59.735,266.099,53.131,273.599,52.463z"/>
								</g>
							</g>
							<g enable-background="new    ">
								<defs>
									<path id="SVGID_20_" enable-background="new    " d="M259.966,67.23l-28.337-28.062
										c0.017-7.514,6.113-14.143,13.633-14.792l28.336,28.088C266.099,53.131,259.986,59.735,259.966,67.23z"/>
								</defs>
								<clipPath id="SVGID_21_">
									<use xlink:href="#SVGID_20_"  overflow="visible"/>
								</clipPath>
							</g>
						</g>
					</g>
				</g>
			</g>
		</g>
	</g>
</g>
</svg>
