<?xml version="1.0" encoding="utf-8"?>
<!-- Generator: Adobe Illustrator 19.0.0, SVG Export Plug-In . SVG Version: 6.00 Build 0)  -->
<svg version="1.1" id="Layer_1" xmlns="http://www.w3.org/2000/svg" xmlns:xlink="http://www.w3.org/1999/xlink" x="0px" y="0px"
	 viewBox="0 0 432.143 59.333" enable-background="new 0 0 432.143 59.333" xml:space="preserve">
<g id="XMLID_16_">
	<rect id="XMLID_5_" x="35.049" y="2.407" fill="#4195D1" width="30.786" height="30"/>
	<rect id="XMLID_11_" x="118.827" y="2.407" fill="#CE2D27" width="30.786" height="30"/>
	<rect id="XMLID_12_" x="202.605" y="2.407" fill="#203C55" width="30.786" height="30"/>
	<rect id="XMLID_13_" x="286.383" y="2.407" fill="#4CAA96" width="30.786" height="30"/>
	<rect id="XMLID_14_" x="370.161" y="2.407" fill="#F8A12E" width="30.786" height="30"/>
	<g id="XMLID_145_">
		<path id="XMLID_146_" d="M8.562,53.927v-8.084h1.139l2.591,4.09c0.6,0.948,1.067,1.8,1.451,2.627l0.024-0.012
			c-0.096-1.08-0.12-2.063-0.12-3.322v-3.383h0.983v8.084h-1.055l-2.567-4.102c-0.563-0.899-1.103-1.823-1.511-2.698l-0.036,0.012
			c0.06,1.02,0.084,1.991,0.084,3.334v3.454H8.562z"/>
		<path id="XMLID_148_" d="M23.366,49.801c0,2.782-1.691,4.258-3.754,4.258c-2.135,0-3.634-1.655-3.634-4.102
			c0-2.566,1.595-4.246,3.754-4.246C21.939,45.711,23.366,47.402,23.366,49.801z M17.094,49.933c0,1.728,0.935,3.274,2.579,3.274
			c1.655,0,2.59-1.523,2.59-3.358c0-1.606-0.839-3.286-2.579-3.286C17.957,46.562,17.094,48.158,17.094,49.933z"/>
		<path id="XMLID_151_" d="M24.725,45.951c0.528-0.108,1.283-0.168,2.003-0.168c1.115,0,1.835,0.204,2.338,0.659
			c0.408,0.36,0.636,0.912,0.636,1.535c0,1.068-0.671,1.775-1.523,2.063v0.036c0.624,0.216,0.995,0.791,1.187,1.631
			c0.264,1.127,0.456,1.907,0.624,2.219h-1.08c-0.132-0.228-0.312-0.924-0.54-1.931c-0.24-1.115-0.672-1.535-1.619-1.571h-0.983
			v3.502h-1.043V45.951z M25.769,49.633h1.067c1.115,0,1.823-0.611,1.823-1.535c0-1.043-0.755-1.499-1.859-1.511
			c-0.504,0-0.863,0.048-1.031,0.096V49.633z"/>
		<path id="XMLID_154_" d="M32.825,46.73h-2.459v-0.888h5.985v0.888H33.88v7.196h-1.055V46.73z"/>
		<path id="XMLID_156_" d="M38.297,45.843v3.383h3.91v-3.383h1.056v8.084h-1.056v-3.79h-3.91v3.79h-1.043v-8.084H38.297z"/>
		<path id="XMLID_158_" d="M48.928,51.384l-0.839,2.543h-1.08l2.747-8.084h1.259l2.758,8.084h-1.115l-0.864-2.543H48.928z
			 M51.578,50.568l-0.792-2.326c-0.18-0.528-0.3-1.008-0.419-1.476h-0.024c-0.12,0.479-0.251,0.972-0.408,1.463l-0.792,2.339H51.578
			z"/>
		<path id="XMLID_161_" d="M61.729,50.377c-0.06-1.128-0.132-2.482-0.12-3.49h-0.036c-0.276,0.947-0.612,1.955-1.02,3.07
			l-1.427,3.922h-0.792l-1.307-3.85c-0.384-1.14-0.708-2.184-0.936-3.143h-0.024c-0.024,1.008-0.084,2.362-0.156,3.574l-0.216,3.466
			h-0.995l0.563-8.084h1.331l1.379,3.91c0.336,0.995,0.612,1.883,0.815,2.723h0.036c0.204-0.815,0.492-1.703,0.852-2.723l1.439-3.91
			h1.331l0.504,8.084h-1.02L61.729,50.377z"/>
		<path id="XMLID_163_" d="M68.751,50.137h-3.142v2.914h3.502v0.876h-4.545v-8.084h4.366v0.876h-3.322v2.555h3.142V50.137z"/>
		<path id="XMLID_165_" d="M70.469,45.951c0.527-0.108,1.283-0.168,2.003-0.168c1.115,0,1.835,0.204,2.338,0.659
			c0.408,0.36,0.636,0.912,0.636,1.535c0,1.068-0.671,1.775-1.523,2.063v0.036c0.624,0.216,0.995,0.791,1.187,1.631
			c0.264,1.127,0.456,1.907,0.624,2.219h-1.08c-0.132-0.228-0.312-0.924-0.54-1.931c-0.24-1.115-0.672-1.535-1.619-1.571h-0.983
			v3.502h-1.043V45.951z M71.513,49.633h1.067c1.115,0,1.823-0.611,1.823-1.535c0-1.043-0.755-1.499-1.859-1.511
			c-0.504,0-0.863,0.048-1.031,0.096V49.633z"/>
		<path id="XMLID_168_" d="M77.968,45.843v8.084h-1.043v-8.084H77.968z"/>
		<path id="XMLID_170_" d="M85.442,53.663c-0.384,0.191-1.151,0.384-2.135,0.384c-2.279,0-3.994-1.439-3.994-4.09
			c0-2.53,1.715-4.246,4.222-4.246c1.008,0,1.643,0.216,1.919,0.36l-0.252,0.852c-0.396-0.192-0.959-0.336-1.631-0.336
			c-1.895,0-3.154,1.211-3.154,3.334c0,1.979,1.139,3.25,3.106,3.25c0.636,0,1.283-0.132,1.703-0.336L85.442,53.663z"/>
		<path id="XMLID_172_" d="M88.108,51.384l-0.839,2.543h-1.08l2.747-8.084h1.259l2.758,8.084h-1.115l-0.864-2.543H88.108z
			 M90.758,50.568l-0.792-2.326c-0.18-0.528-0.3-1.008-0.419-1.476h-0.024c-0.12,0.479-0.251,0.972-0.408,1.463l-0.792,2.339H90.758
			z"/>
	</g>
	<g id="XMLID_129_">
		<path id="XMLID_130_" d="M118.977,50.137h-3.142v2.914h3.502v0.876h-4.545v-8.084h4.366v0.876h-3.322v2.555h3.142V50.137z"/>
		<path id="XMLID_132_" d="M121.739,45.843v4.786c0,1.811,0.803,2.578,1.883,2.578c1.199,0,1.967-0.791,1.967-2.578v-4.786h1.056
			v4.714c0,2.482-1.308,3.502-3.059,3.502c-1.655,0-2.902-0.947-2.902-3.454v-4.762H121.739z"/>
		<path id="XMLID_134_" d="M128.459,45.951c0.528-0.108,1.283-0.168,2.003-0.168c1.115,0,1.835,0.204,2.338,0.659
			c0.408,0.36,0.636,0.912,0.636,1.535c0,1.068-0.671,1.775-1.523,2.063v0.036c0.624,0.216,0.995,0.791,1.187,1.631
			c0.264,1.127,0.456,1.907,0.624,2.219h-1.08c-0.132-0.228-0.312-0.924-0.54-1.931c-0.24-1.115-0.672-1.535-1.619-1.571h-0.983
			v3.502h-1.043V45.951z M129.503,49.633h1.067c1.115,0,1.823-0.611,1.823-1.535c0-1.043-0.755-1.499-1.859-1.511
			c-0.504,0-0.863,0.048-1.031,0.096V49.633z"/>
		<path id="XMLID_137_" d="M134.915,45.939c0.503-0.084,1.163-0.156,2.003-0.156c1.031,0,1.787,0.24,2.267,0.672
			c0.444,0.384,0.708,0.972,0.708,1.69c0,0.732-0.216,1.308-0.624,1.728c-0.552,0.588-1.451,0.888-2.471,0.888
			c-0.312,0-0.6-0.013-0.839-0.072v3.238h-1.043V45.939z M135.958,49.837c0.228,0.061,0.516,0.084,0.863,0.084
			c1.259,0,2.027-0.611,2.027-1.727c0-1.067-0.755-1.584-1.907-1.584c-0.456,0-0.804,0.036-0.983,0.084V49.837z"/>
		<path id="XMLID_140_" d="M148.207,49.801c0,2.782-1.691,4.258-3.754,4.258c-2.135,0-3.634-1.655-3.634-4.102
			c0-2.566,1.595-4.246,3.754-4.246C146.78,45.711,148.207,47.402,148.207,49.801z M141.935,49.933c0,1.728,0.935,3.274,2.579,3.274
			c1.655,0,2.59-1.523,2.59-3.358c0-1.606-0.839-3.286-2.579-3.286C142.798,46.562,141.935,48.158,141.935,49.933z"/>
		<path id="XMLID_143_" d="M153.752,50.137h-3.142v2.914h3.502v0.876h-4.545v-8.084h4.366v0.876h-3.322v2.555h3.142V50.137z"/>
	</g>
	<g id="XMLID_117_">
		<path id="XMLID_118_" d="M206.795,51.384l-0.839,2.543h-1.08l2.747-8.084h1.259l2.758,8.084h-1.115l-0.864-2.543H206.795z
			 M209.445,50.568l-0.792-2.326c-0.18-0.528-0.3-1.008-0.419-1.476h-0.024c-0.12,0.479-0.251,0.972-0.408,1.463l-0.792,2.339
			H209.445z"/>
		<path id="XMLID_121_" d="M212.831,45.939c0.503-0.084,1.163-0.156,2.003-0.156c1.031,0,1.787,0.24,2.267,0.672
			c0.444,0.384,0.708,0.972,0.708,1.69c0,0.732-0.216,1.308-0.624,1.728c-0.552,0.588-1.451,0.888-2.471,0.888
			c-0.312,0-0.6-0.013-0.839-0.072v3.238h-1.043V45.939z M213.875,49.837c0.228,0.061,0.516,0.084,0.863,0.084
			c1.259,0,2.027-0.611,2.027-1.727c0-1.067-0.755-1.584-1.907-1.584c-0.456,0-0.804,0.036-0.983,0.084V49.837z"/>
		<path id="XMLID_124_" d="M219.515,51.384l-0.839,2.543h-1.08l2.747-8.084h1.259l2.758,8.084h-1.115l-0.864-2.543H219.515z
			 M222.165,50.568l-0.792-2.326c-0.18-0.528-0.3-1.008-0.419-1.476h-0.024c-0.12,0.479-0.251,0.972-0.408,1.463l-0.792,2.339
			H222.165z"/>
		<path id="XMLID_127_" d="M231.02,53.663c-0.384,0.191-1.151,0.384-2.135,0.384c-2.279,0-3.994-1.439-3.994-4.09
			c0-2.53,1.715-4.246,4.222-4.246c1.008,0,1.643,0.216,1.919,0.36l-0.252,0.852c-0.396-0.192-0.96-0.336-1.631-0.336
			c-1.896,0-3.154,1.211-3.154,3.334c0,1.979,1.139,3.25,3.106,3.25c0.636,0,1.283-0.132,1.703-0.336L231.02,53.663z"/>
	</g>
	<g id="XMLID_93_">
		<path id="XMLID_94_" d="M275.624,50.377c-0.06-1.128-0.132-2.482-0.119-3.49h-0.036c-0.276,0.947-0.612,1.955-1.02,3.07
			l-1.428,3.922h-0.791l-1.308-3.85c-0.384-1.14-0.707-2.184-0.936-3.143h-0.023c-0.024,1.008-0.084,2.362-0.156,3.574l-0.216,3.466
			h-0.995l0.563-8.084h1.331l1.379,3.91c0.336,0.995,0.612,1.883,0.815,2.723h0.036c0.204-0.815,0.492-1.703,0.852-2.723l1.439-3.91
			h1.331l0.504,8.084h-1.02L275.624,50.377z"/>
		<path id="XMLID_96_" d="M279.504,45.843v8.084h-1.044v-8.084H279.504z"/>
		<path id="XMLID_98_" d="M281.328,45.951c0.636-0.096,1.391-0.168,2.219-0.168c1.499,0,2.566,0.348,3.273,1.008
			c0.72,0.659,1.14,1.595,1.14,2.902c0,1.319-0.407,2.398-1.163,3.142c-0.756,0.756-2.003,1.164-3.574,1.164
			c-0.743,0-1.367-0.036-1.895-0.097V45.951z M282.371,53.1c0.264,0.048,0.647,0.06,1.056,0.06c2.23,0,3.442-1.247,3.442-3.43
			c0.012-1.907-1.067-3.119-3.274-3.119c-0.54,0-0.947,0.049-1.224,0.108V53.1z"/>
		<path id="XMLID_101_" d="M289.32,45.951c0.636-0.096,1.391-0.168,2.219-0.168c1.499,0,2.566,0.348,3.273,1.008
			c0.72,0.659,1.14,1.595,1.14,2.902c0,1.319-0.407,2.398-1.163,3.142c-0.756,0.756-2.003,1.164-3.574,1.164
			c-0.743,0-1.367-0.036-1.895-0.097V45.951z M290.363,53.1c0.264,0.048,0.647,0.06,1.056,0.06c2.23,0,3.442-1.247,3.442-3.43
			c0.012-1.907-1.067-3.119-3.274-3.119c-0.54,0-0.947,0.049-1.224,0.108V53.1z"/>
		<path id="XMLID_104_" d="M297.311,45.843h1.044v7.208h3.454v0.876h-4.498V45.843z"/>
		<path id="XMLID_106_" d="M307.161,50.137h-3.143v2.914h3.502v0.876h-4.545v-8.084h4.365v0.876h-3.322v2.555h3.143V50.137z"/>
		<path id="XMLID_108_" d="M315.608,50.137h-3.142v2.914h3.502v0.876h-4.546v-8.084h4.365v0.876h-3.321v2.555h3.142V50.137z"/>
		<path id="XMLID_110_" d="M318.634,51.384l-0.839,2.543h-1.08l2.747-8.084h1.259l2.759,8.084h-1.115l-0.864-2.543H318.634z
			 M321.284,50.568l-0.791-2.326c-0.18-0.528-0.3-1.008-0.42-1.476h-0.024c-0.119,0.479-0.251,0.972-0.407,1.463l-0.792,2.339
			H321.284z"/>
		<path id="XMLID_113_" d="M324.527,52.655c0.468,0.288,1.151,0.528,1.871,0.528c1.067,0,1.69-0.564,1.69-1.38
			c0-0.756-0.432-1.188-1.522-1.606c-1.319-0.468-2.136-1.151-2.136-2.291c0-1.26,1.044-2.195,2.615-2.195
			c0.827,0,1.427,0.192,1.787,0.396l-0.288,0.852c-0.264-0.145-0.804-0.384-1.535-0.384c-1.104,0-1.523,0.659-1.523,1.211
			c0,0.756,0.492,1.127,1.607,1.56c1.367,0.527,2.062,1.187,2.062,2.374c0,1.248-0.923,2.327-2.83,2.327
			c-0.779,0-1.631-0.229-2.062-0.516L324.527,52.655z"/>
		<path id="XMLID_115_" d="M332.122,46.73h-2.459v-0.888h5.985v0.888h-2.471v7.196h-1.056V46.73z"/>
	</g>
	<g id="XMLID_64_">
		<path id="XMLID_65_" d="M347.526,45.843h1.043v7.208h3.454v0.876h-4.497V45.843z"/>
		<path id="XMLID_67_" d="M354.497,51.384l-0.839,2.543h-1.08l2.747-8.084h1.259l2.759,8.084h-1.115l-0.864-2.543H354.497z
			 M357.147,50.568l-0.791-2.326c-0.18-0.528-0.3-1.008-0.42-1.476h-0.024c-0.119,0.479-0.251,0.972-0.407,1.463l-0.792,2.339
			H357.147z"/>
		<path id="XMLID_70_" d="M361.145,46.73h-2.459v-0.888h5.984v0.888H362.2v7.196h-1.055V46.73z"/>
		<path id="XMLID_72_" d="M366.617,45.843v8.084h-1.043v-8.084H366.617z"/>
		<path id="XMLID_74_" d="M368.442,53.927v-8.084h1.139l2.591,4.09c0.6,0.948,1.067,1.8,1.451,2.627l0.024-0.012
			c-0.097-1.08-0.12-2.063-0.12-3.322v-3.383h0.983v8.084h-1.056l-2.566-4.102c-0.563-0.899-1.104-1.823-1.511-2.698l-0.036,0.012
			c0.06,1.02,0.084,1.991,0.084,3.334v3.454H368.442z"/>
		<path id="XMLID_76_" d="M380.188,51.384l-0.839,2.543h-1.08l2.747-8.084h1.259l2.759,8.084h-1.115l-0.864-2.543H380.188z
			 M382.839,50.568l-0.791-2.326c-0.18-0.528-0.3-1.008-0.42-1.476h-0.024c-0.119,0.479-0.251,0.972-0.407,1.463l-0.792,2.339
			H382.839z"/>
		<path id="XMLID_79_" d="M392.989,50.377c-0.06-1.128-0.132-2.482-0.119-3.49h-0.036c-0.276,0.947-0.612,1.955-1.02,3.07
			l-1.428,3.922h-0.791l-1.308-3.85c-0.384-1.14-0.707-2.184-0.936-3.143h-0.023c-0.024,1.008-0.084,2.362-0.156,3.574l-0.216,3.466
			h-0.995l0.563-8.084h1.331l1.379,3.91c0.336,0.995,0.612,1.883,0.815,2.723h0.036c0.204-0.815,0.492-1.703,0.852-2.723l1.439-3.91
			h1.331l0.504,8.084h-1.02L392.989,50.377z"/>
		<path id="XMLID_81_" d="M400.011,50.137h-3.142v2.914h3.502v0.876h-4.546v-8.084h4.365v0.876h-3.321v2.555h3.142V50.137z"/>
		<path id="XMLID_83_" d="M401.729,45.951c0.527-0.108,1.283-0.168,2.003-0.168c1.115,0,1.835,0.204,2.338,0.659
			c0.408,0.36,0.636,0.912,0.636,1.535c0,1.068-0.671,1.775-1.522,2.063v0.036c0.623,0.216,0.995,0.791,1.187,1.631
			c0.265,1.127,0.456,1.907,0.624,2.219h-1.079c-0.132-0.228-0.312-0.924-0.54-1.931c-0.24-1.115-0.672-1.535-1.619-1.571h-0.983
			v3.502h-1.043V45.951z M402.772,49.633h1.067c1.115,0,1.823-0.611,1.823-1.535c0-1.043-0.756-1.499-1.859-1.511
			c-0.504,0-0.863,0.048-1.031,0.096V49.633z"/>
		<path id="XMLID_86_" d="M409.228,45.843v8.084h-1.043v-8.084H409.228z"/>
		<path id="XMLID_88_" d="M416.702,53.663c-0.384,0.191-1.151,0.384-2.135,0.384c-2.278,0-3.994-1.439-3.994-4.09
			c0-2.53,1.716-4.246,4.222-4.246c1.008,0,1.644,0.216,1.919,0.36l-0.252,0.852c-0.396-0.192-0.959-0.336-1.631-0.336
			c-1.895,0-3.154,1.211-3.154,3.334c0,1.979,1.14,3.25,3.106,3.25c0.636,0,1.283-0.132,1.703-0.336L416.702,53.663z"/>
		<path id="XMLID_90_" d="M419.368,51.384l-0.839,2.543h-1.08l2.747-8.084h1.259l2.759,8.084h-1.115l-0.864-2.543H419.368z
			 M422.018,50.568l-0.791-2.326c-0.18-0.528-0.3-1.008-0.42-1.476h-0.024c-0.119,0.479-0.251,0.972-0.407,1.463l-0.792,2.339
			H422.018z"/>
	</g>
</g>
</svg>
