<?xml version="1.0" encoding="utf-8"?>
<!-- Generator: Adobe Illustrator 15.0.0, SVG Export Plug-In . SVG Version: 6.00 Build 0)  -->
<!DOCTYPE svg PUBLIC "-//W3C//DTD SVG 1.1//EN" "http://www.w3.org/Graphics/SVG/1.1/DTD/svg11.dtd">
<svg version="1.1" id="Layer_1" xmlns="http://www.w3.org/2000/svg" xmlns:xlink="http://www.w3.org/1999/xlink" x="0px" y="0px"
	 width="612px" height="792px" viewBox="0 0 612 792" enable-background="new 0 0 612 792" xml:space="preserve">
<g id="XMLID_16_">
	<rect id="XMLID_5_" x="49.636" y="357.395" fill="#4195D1" width="43.599" height="42.486"/>
	<rect id="XMLID_11_" x="168.283" y="357.395" fill="#CE2D27" width="43.599" height="42.486"/>
	<rect id="XMLID_12_" x="286.929" y="357.395" fill="#203C55" width="43.599" height="42.486"/>
	<rect id="XMLID_13_" x="405.575" y="357.395" fill="#4CAA96" width="43.599" height="42.486"/>
	<rect id="XMLID_14_" x="524.222" y="357.395" fill="#F8A12E" width="43.599" height="42.486"/>
	<g id="XMLID_145_">
		<path id="XMLID_146_" d="M12.125,430.357v-11.448h1.613l3.669,5.792c0.85,1.343,1.511,2.55,2.055,3.721l0.034-0.018
			c-0.136-1.529-0.17-2.921-0.17-4.704v-4.791h1.392v11.448h-1.494l-3.636-5.809c-0.797-1.273-1.562-2.582-2.14-3.821l-0.051,0.017
			c0.085,1.445,0.119,2.82,0.119,4.722v4.892H12.125z"/>
		<path id="XMLID_148_" d="M33.091,424.515c0,3.939-2.395,6.03-5.316,6.03c-3.023,0-5.146-2.344-5.146-5.81
			c0-3.634,2.259-6.013,5.316-6.013C31.07,418.723,33.091,421.117,33.091,424.515z M24.208,424.701c0,2.447,1.324,4.637,3.652,4.637
			c2.344,0,3.668-2.157,3.668-4.756c0-2.274-1.188-4.653-3.652-4.653C25.431,419.928,24.208,422.188,24.208,424.701z"/>
		<path id="XMLID_151_" d="M35.016,419.062c0.748-0.153,1.817-0.238,2.836-0.238c1.579,0,2.599,0.289,3.311,0.934
			c0.578,0.51,0.901,1.291,0.901,2.174c0,1.512-0.95,2.514-2.157,2.921v0.052c0.883,0.306,1.409,1.12,1.681,2.31
			c0.374,1.596,0.646,2.7,0.884,3.143h-1.529c-0.187-0.323-0.442-1.309-0.765-2.735c-0.34-1.578-0.952-2.174-2.293-2.225h-1.392
			v4.96h-1.477V419.062z M36.494,424.276h1.511c1.579,0,2.582-0.865,2.582-2.174c0-1.477-1.069-2.123-2.633-2.14
			c-0.714,0-1.222,0.068-1.46,0.136V424.276z"/>
		<path id="XMLID_154_" d="M46.487,420.165h-3.482v-1.257h8.476v1.257h-3.499v10.191h-1.494V420.165z"/>
		<path id="XMLID_156_" d="M54.236,418.909v4.791h5.537v-4.791h1.496v11.448h-1.496v-5.367h-5.537v5.367h-1.477v-11.448H54.236z"/>
		<path id="XMLID_158_" d="M69.292,426.756l-1.188,3.602h-1.529l3.89-11.448h1.783l3.906,11.448h-1.579l-1.224-3.602H69.292z
			 M73.044,425.601l-1.122-3.294c-0.255-0.748-0.425-1.428-0.593-2.091h-0.034c-0.17,0.679-0.355,1.377-0.578,2.072l-1.122,3.312
			H73.044z"/>
		<path id="XMLID_161_" d="M87.42,425.33c-0.085-1.598-0.187-3.515-0.17-4.942H87.2c-0.391,1.341-0.867,2.769-1.445,4.348
			l-2.021,5.555h-1.122l-1.851-5.453c-0.544-1.614-1.003-3.093-1.326-4.451h-0.034c-0.034,1.428-0.119,3.346-0.221,5.062
			l-0.306,4.909h-1.409l0.797-11.448h1.885l1.953,5.537c0.476,1.409,0.867,2.666,1.154,3.856h0.051
			c0.289-1.154,0.697-2.412,1.207-3.856l2.038-5.537h1.885l0.714,11.448h-1.445L87.42,425.33z"/>
		<path id="XMLID_163_" d="M97.365,424.99h-4.45v4.127h4.959v1.24h-6.437v-11.448h6.183v1.24h-4.705v3.619h4.449L97.365,424.99
			L97.365,424.99z"/>
		<path id="XMLID_165_" d="M99.798,419.062c0.747-0.153,1.817-0.238,2.837-0.238c1.579,0,2.599,0.289,3.311,0.934
			c0.578,0.51,0.901,1.291,0.901,2.174c0,1.512-0.951,2.514-2.157,2.921v0.052c0.884,0.306,1.409,1.12,1.681,2.31
			c0.374,1.596,0.646,2.7,0.884,3.143h-1.53c-0.187-0.323-0.441-1.309-0.765-2.735c-0.34-1.578-0.952-2.174-2.292-2.225h-1.393v4.96
			h-1.477V419.062L99.798,419.062z M101.276,424.276h1.511c1.579,0,2.582-0.865,2.582-2.174c0-1.477-1.069-2.123-2.632-2.14
			c-0.714,0-1.222,0.068-1.46,0.136V424.276z"/>
		<path id="XMLID_168_" d="M110.418,418.909v11.448h-1.477v-11.448H110.418z"/>
		<path id="XMLID_170_" d="M121.003,429.983c-0.544,0.271-1.63,0.544-3.024,0.544c-3.228,0-5.656-2.038-5.656-5.792
			c0-3.583,2.429-6.013,5.979-6.013c1.427,0,2.327,0.306,2.717,0.51l-0.356,1.206c-0.561-0.271-1.358-0.476-2.31-0.476
			c-2.684,0-4.467,1.715-4.467,4.722c0,2.803,1.613,4.603,4.399,4.603c0.901,0,1.817-0.188,2.412-0.476L121.003,429.983z"/>
		<path id="XMLID_172_" d="M124.778,426.756l-1.188,3.602h-1.53l3.891-11.448h1.783l3.906,11.448h-1.579l-1.224-3.602H124.778z
			 M128.531,425.601l-1.122-3.294c-0.255-0.748-0.425-1.428-0.593-2.091h-0.034c-0.17,0.679-0.355,1.377-0.578,2.072l-1.122,3.312
			H128.531z"/>
	</g>
	<g id="XMLID_129_">
		<path id="XMLID_130_" d="M168.495,424.99h-4.45v4.127h4.959v1.24h-6.437v-11.448h6.183v1.24h-4.705v3.619h4.45v1.222H168.495z"/>
		<path id="XMLID_132_" d="M172.407,418.909v6.778c0,2.564,1.137,3.65,2.667,3.65c1.698,0,2.786-1.12,2.786-3.65v-6.778h1.496v6.676
			c0,3.515-1.853,4.96-4.332,4.96c-2.344,0-4.11-1.342-4.11-4.892v-6.744H172.407z"/>
		<path id="XMLID_134_" d="M181.923,419.062c0.748-0.153,1.817-0.238,2.837-0.238c1.579,0,2.599,0.289,3.311,0.934
			c0.578,0.51,0.9,1.291,0.9,2.174c0,1.512-0.95,2.514-2.157,2.921v0.052c0.884,0.306,1.409,1.12,1.681,2.31
			c0.374,1.596,0.646,2.7,0.884,3.143h-1.53c-0.187-0.323-0.442-1.309-0.765-2.735c-0.34-1.578-0.952-2.174-2.293-2.225H183.4v4.96
			h-1.477V419.062z M183.402,424.276h1.511c1.579,0,2.582-0.865,2.582-2.174c0-1.477-1.069-2.123-2.633-2.14
			c-0.713,0-1.222,0.068-1.46,0.136V424.276z"/>
		<path id="XMLID_140_" d="M200.891,424.515c0,3.939-2.395,6.03-5.316,6.03c-3.024,0-5.146-2.344-5.146-5.81
			c0-3.634,2.259-6.013,5.316-6.013C198.87,418.723,200.891,421.117,200.891,424.515z M192.008,424.701
			c0,2.447,1.324,4.637,3.653,4.637c2.344,0,3.667-2.157,3.667-4.756c0-2.274-1.188-4.653-3.652-4.653
			C193.23,419.928,192.008,422.188,192.008,424.701z"/>
		<path id="XMLID_143_" d="M217.743,424.99h-4.45v4.127h4.959v1.24h-6.437v-11.448H218v1.24h-4.705v3.619h4.45v1.222H217.743z"/>
	</g>
	<g id="XMLID_117_">
		<path id="XMLID_118_" d="M292.863,426.756l-1.188,3.602h-1.529l3.89-11.448h1.783l3.906,11.448h-1.579l-1.224-3.602H292.863z
			 M296.616,425.601l-1.122-3.294c-0.255-0.748-0.425-1.428-0.594-2.091h-0.034c-0.17,0.679-0.355,1.377-0.578,2.072l-1.122,3.312
			H296.616z"/>
		<path id="XMLID_121_" d="M301.411,419.045c0.712-0.119,1.647-0.221,2.837-0.221c1.46,0,2.531,0.34,3.21,0.951
			c0.629,0.544,1.003,1.377,1.003,2.394c0,1.037-0.307,1.853-0.884,2.447c-0.782,0.833-2.055,1.258-3.5,1.258
			c-0.442,0-0.85-0.019-1.188-0.102v4.585h-1.477v-11.312H301.411z M302.889,424.565c0.323,0.086,0.731,0.119,1.222,0.119
			c1.783,0,2.871-0.865,2.871-2.446c0-1.511-1.069-2.243-2.701-2.243c-0.646,0-1.139,0.051-1.392,0.119V424.565z"/>
		<path id="XMLID_124_" d="M310.877,426.756l-1.188,3.602h-1.529l3.89-11.448h1.783l3.906,11.448h-1.579l-1.224-3.602H310.877z
			 M314.63,425.601l-1.122-3.294c-0.255-0.748-0.425-1.428-0.594-2.091h-0.033c-0.17,0.679-0.355,1.377-0.578,2.072l-1.122,3.312
			H314.63z"/>
		<path id="XMLID_127_" d="M327.17,429.983c-0.544,0.271-1.63,0.544-3.023,0.544c-3.228,0-5.656-2.038-5.656-5.792
			c0-3.583,2.429-6.013,5.979-6.013c1.427,0,2.326,0.306,2.718,0.51l-0.357,1.206c-0.561-0.271-1.359-0.476-2.31-0.476
			c-2.686,0-4.467,1.715-4.467,4.722c0,2.803,1.613,4.603,4.398,4.603c0.901,0,1.817-0.188,2.412-0.476L327.17,429.983z"/>
	</g>
	<g id="XMLID_93_">
		<path id="XMLID_94_" d="M390.338,425.33c-0.085-1.598-0.187-3.515-0.168-4.942h-0.052c-0.391,1.341-0.866,2.769-1.444,4.348
			l-2.022,5.555h-1.12l-1.853-5.453c-0.543-1.614-1.001-3.093-1.325-4.451h-0.032c-0.034,1.428-0.119,3.346-0.222,5.062
			l-0.306,4.909h-1.409l0.798-11.448h1.885l1.953,5.537c0.476,1.409,0.866,2.666,1.154,3.856h0.051
			c0.289-1.154,0.696-2.412,1.206-3.856l2.038-5.537h1.885l0.714,11.448h-1.444L390.338,425.33z"/>
		<path id="XMLID_96_" d="M395.833,418.909v11.448h-1.479v-11.448H395.833z"/>
		<path id="XMLID_98_" d="M398.416,419.062c0.9-0.137,1.97-0.238,3.143-0.238c2.123,0,3.634,0.493,4.636,1.428
			c1.02,0.933,1.614,2.259,1.614,4.109c0,1.868-0.576,3.396-1.647,4.45c-1.07,1.07-2.837,1.648-5.062,1.648
			c-1.052,0-1.936-0.052-2.684-0.138V419.062L398.416,419.062z M399.894,429.187c0.374,0.068,0.916,0.085,1.495,0.085
			c3.158,0,4.875-1.766,4.875-4.857c0.017-2.701-1.512-4.417-4.637-4.417c-0.765,0-1.342,0.069-1.733,0.152V429.187z"/>
		<path id="XMLID_101_" d="M409.734,419.062c0.9-0.137,1.97-0.238,3.143-0.238c2.123,0,3.634,0.493,4.635,1.428
			c1.021,0.933,1.615,2.259,1.615,4.109c0,1.868-0.577,3.396-1.647,4.45c-1.07,1.07-2.837,1.648-5.062,1.648
			c-1.052,0-1.936-0.052-2.684-0.138V419.062L409.734,419.062z M411.212,429.187c0.373,0.068,0.916,0.085,1.495,0.085
			c3.158,0,4.874-1.766,4.874-4.857c0.018-2.701-1.511-4.417-4.636-4.417c-0.766,0-1.342,0.069-1.733,0.152V429.187z"/>
		<path id="XMLID_104_" d="M421.051,418.909h1.479v10.208h4.892v1.24h-6.37V418.909L421.051,418.909z"/>
		<path id="XMLID_106_" d="M435.001,424.99h-4.451v4.127h4.959v1.24h-6.437v-11.448h6.182v1.24h-4.704v3.619h4.451V424.99z"/>
		<path id="XMLID_108_" d="M446.963,424.99h-4.449v4.127h4.96v1.24h-6.438v-11.448h6.182v1.24h-4.703v3.619h4.449V424.99z"/>
		<path id="XMLID_110_" d="M451.249,426.756l-1.188,3.602h-1.529l3.891-11.448h1.782l3.907,11.448h-1.578l-1.225-3.602H451.249z
			 M455.002,425.601l-1.12-3.294c-0.255-0.748-0.425-1.428-0.595-2.091h-0.034c-0.169,0.679-0.355,1.377-0.576,2.072l-1.122,3.312
			H455.002z"/>
		<path id="XMLID_113_" d="M459.595,428.557c0.662,0.407,1.63,0.747,2.649,0.747c1.511,0,2.394-0.799,2.394-1.954
			c0-1.07-0.612-1.683-2.155-2.274c-1.868-0.663-3.025-1.63-3.025-3.244c0-1.785,1.479-3.108,3.703-3.108
			c1.172,0,2.021,0.271,2.531,0.561l-0.408,1.206c-0.374-0.205-1.139-0.544-2.174-0.544c-1.563,0-2.157,0.934-2.157,1.716
			c0,1.07,0.697,1.596,2.276,2.209c1.936,0.746,2.92,1.681,2.92,3.362c0,1.768-1.307,3.295-4.008,3.295
			c-1.104,0-2.31-0.324-2.92-0.73L459.595,428.557z"/>
		<path id="XMLID_115_" d="M470.351,420.165h-3.482v-1.257h8.476v1.257h-3.499v10.191h-1.496v-10.191H470.351z"/>
	</g>
	<g id="XMLID_64_">
		<path id="XMLID_65_" d="M492.166,418.909h1.477v10.208h4.892v1.24h-6.368V418.909z"/>
		<path id="XMLID_67_" d="M502.038,426.756l-1.188,3.602h-1.529l3.891-11.448h1.782l3.907,11.448h-1.578l-1.224-3.602H502.038z
			 M505.791,425.601l-1.12-3.294c-0.255-0.748-0.425-1.428-0.595-2.091h-0.034c-0.169,0.679-0.355,1.377-0.576,2.072l-1.122,3.312
			H505.791z"/>
		<path id="XMLID_70_" d="M511.453,420.165h-3.482v-1.257h8.475v1.257h-3.498v10.191h-1.494V420.165L511.453,420.165z"/>
		<path id="XMLID_72_" d="M519.202,418.909v11.448h-1.477v-11.448H519.202z"/>
		<path id="XMLID_74_" d="M521.787,430.357v-11.448h1.612l3.67,5.792c0.85,1.343,1.511,2.55,2.055,3.721l0.034-0.018
			c-0.138-1.529-0.17-2.921-0.17-4.704v-4.791h1.392v11.448h-1.495l-3.634-5.809c-0.798-1.273-1.563-2.582-2.14-3.821l-0.052,0.017
			c0.085,1.445,0.119,2.82,0.119,4.722v4.892H521.787z"/>
		<path id="XMLID_76_" d="M538.422,426.756l-1.188,3.602h-1.529l3.89-11.448h1.783l3.907,11.448h-1.579l-1.224-3.602H538.422z
			 M542.176,425.601l-1.12-3.294c-0.255-0.748-0.425-1.428-0.595-2.091h-0.034c-0.169,0.679-0.355,1.377-0.576,2.072l-1.122,3.312
			H542.176z"/>
		<path id="XMLID_79_" d="M556.55,425.33c-0.085-1.598-0.187-3.515-0.168-4.942h-0.051c-0.392,1.341-0.867,2.769-1.445,4.348
			l-2.021,5.555h-1.12l-1.853-5.453c-0.544-1.614-1.002-3.093-1.326-4.451h-0.032c-0.034,1.428-0.119,3.346-0.221,5.062
			l-0.307,4.909h-1.408l0.797-11.448h1.885l1.953,5.537c0.476,1.409,0.866,2.666,1.154,3.856h0.051
			c0.289-1.154,0.697-2.412,1.207-3.856l2.037-5.537h1.886l0.714,11.448h-1.445L556.55,425.33z"/>
		<path id="XMLID_81_" d="M566.495,424.99h-4.45v4.127h4.96v1.24h-6.438v-11.448h6.182v1.24h-4.703v3.619h4.45V424.99z"/>
		<path id="XMLID_83_" d="M568.928,419.062c0.746-0.153,1.817-0.238,2.837-0.238c1.579,0,2.599,0.289,3.311,0.934
			c0.578,0.51,0.901,1.291,0.901,2.174c0,1.512-0.95,2.514-2.156,2.921v0.052c0.883,0.306,1.409,1.12,1.682,2.31
			c0.375,1.596,0.646,2.7,0.884,3.143h-1.528c-0.187-0.323-0.442-1.309-0.765-2.735c-0.34-1.578-0.952-2.174-2.293-2.225h-1.393
			v4.96h-1.477v-11.294H568.928z M570.405,424.276h1.511c1.579,0,2.582-0.865,2.582-2.174c0-1.477-1.071-2.123-2.633-2.14
			c-0.714,0-1.223,0.068-1.46,0.136V424.276z"/>
		<path id="XMLID_86_" d="M579.548,418.909v11.448h-1.478v-11.448H579.548z"/>
		<path id="XMLID_88_" d="M590.133,429.983c-0.544,0.271-1.631,0.544-3.023,0.544c-3.227,0-5.656-2.038-5.656-5.792
			c0-3.583,2.43-6.013,5.979-6.013c1.428,0,2.328,0.306,2.718,0.51l-0.356,1.206c-0.562-0.271-1.358-0.476-2.311-0.476
			c-2.684,0-4.467,1.715-4.467,4.722c0,2.803,1.615,4.603,4.399,4.603c0.9,0,1.816-0.188,2.411-0.476L590.133,429.983z"/>
		<path id="XMLID_90_" d="M593.908,426.756l-1.188,3.602h-1.529l3.891-11.448h1.782l3.908,11.448h-1.579l-1.224-3.602H593.908z
			 M597.661,425.601l-1.12-3.294c-0.255-0.748-0.425-1.428-0.595-2.091h-0.034c-0.169,0.679-0.355,1.377-0.576,2.072l-1.122,3.312
			H597.661z"/>
	</g>
</g>
<path id="XMLID_137_" d="M202.767,419.044c0.712-0.119,1.647-0.221,2.836-0.221c1.46,0,2.531,0.34,3.21,0.951
	c0.629,0.544,1.003,1.377,1.003,2.394c0,1.037-0.306,1.853-0.884,2.447c-0.782,0.833-2.055,1.258-3.5,1.258
	c-0.442,0-0.85-0.019-1.188-0.102v4.585h-1.477v-11.312H202.767z M204.244,424.564c0.323,0.086,0.731,0.119,1.222,0.119
	c1.783,0,2.871-0.865,2.871-2.446c0-1.511-1.069-2.243-2.701-2.243c-0.646,0-1.139,0.051-1.392,0.119V424.564z"/>
</svg>
