<?xml version="1.0" encoding="utf-8"?>
<!-- Generator: Adobe Illustrator 15.0.0, SVG Export Plug-In . SVG Version: 6.00 Build 0)  -->
<!DOCTYPE svg PUBLIC "-//W3C//DTD SVG 1.1//EN" "http://www.w3.org/Graphics/SVG/1.1/DTD/svg11.dtd">
<svg version="1.1" id="Layer_1" xmlns="http://www.w3.org/2000/svg" xmlns:xlink="http://www.w3.org/1999/xlink" x="0px" y="0px"
	 width="612px" height="137px" viewBox="0 0 612 137" enable-background="new 0 0 612 137" xml:space="preserve">
<g id="XMLID_16_">
	<rect id="XMLID_5_" x="49.136" y="31.895" fill="#4395D1" width="43.599" height="42.486"/>
	<rect id="XMLID_11_" x="167.783" y="31.895" fill="#CE2F28" width="43.599" height="42.486"/>
	<rect id="XMLID_12_" x="286.429" y="31.895" fill="#213C55" width="43.599" height="42.486"/>
	<rect id="XMLID_13_" x="405.075" y="31.895" fill="#4BAA97" width="43.599" height="42.486"/>
	<rect id="XMLID_14_" x="523.722" y="31.895" fill="#F8A22F" width="43.6" height="42.486"/>
	<g id="XMLID_145_">
		<path id="XMLID_146_" fill="#010101" d="M11.625,104.857V93.409h1.613l3.669,5.792c0.85,1.343,1.511,2.55,2.055,3.721l0.034-0.018
			c-0.136-1.529-0.17-2.921-0.17-4.704v-4.791h1.392v11.448h-1.494l-3.636-5.81c-0.797-1.272-1.562-2.582-2.14-3.821l-0.051,0.018
			c0.085,1.445,0.119,2.82,0.119,4.722v4.893L11.625,104.857L11.625,104.857z"/>
		<path id="XMLID_148_" fill="#010101" d="M32.591,99.015c0,3.939-2.395,6.03-5.316,6.03c-3.023,0-5.146-2.344-5.146-5.81
			c0-3.635,2.259-6.014,5.316-6.014C30.57,93.223,32.591,95.617,32.591,99.015z M23.708,99.201c0,2.447,1.324,4.637,3.652,4.637
			c2.344,0,3.668-2.157,3.668-4.756c0-2.274-1.188-4.653-3.652-4.653C24.931,94.428,23.708,96.688,23.708,99.201z"/>
		<path id="XMLID_151_" fill="#010101" d="M34.516,93.562c0.748-0.153,1.817-0.238,2.836-0.238c1.579,0,2.599,0.289,3.311,0.934
			c0.578,0.51,0.901,1.291,0.901,2.174c0,1.513-0.95,2.515-2.157,2.921v0.053c0.883,0.306,1.409,1.12,1.681,2.31
			c0.374,1.596,0.646,2.7,0.884,3.144h-1.529c-0.187-0.323-0.442-1.31-0.765-2.735c-0.34-1.578-0.952-2.174-2.293-2.225h-1.392v4.96
			h-1.477V93.562z M35.994,98.776h1.511c1.579,0,2.582-0.865,2.582-2.175c0-1.477-1.069-2.123-2.633-2.14
			c-0.714,0-1.222,0.068-1.46,0.136V98.776z"/>
		<path id="XMLID_154_" fill="#010101" d="M45.987,94.665h-3.482v-1.257h8.476v1.257h-3.499v10.191h-1.494L45.987,94.665
			L45.987,94.665z"/>
		<path id="XMLID_156_" fill="#010101" d="M53.736,93.409V98.2h5.537v-4.791h1.496v11.448h-1.496V99.49h-5.537v5.367h-1.477V93.409
			H53.736z"/>
		<path id="XMLID_158_" fill="#010101" d="M68.792,101.256l-1.188,3.603h-1.529l3.89-11.448h1.783l3.906,11.448h-1.579l-1.224-3.603
			H68.792z M72.544,100.101l-1.122-3.294c-0.255-0.748-0.425-1.428-0.593-2.091h-0.034c-0.17,0.679-0.355,1.377-0.578,2.072
			l-1.122,3.312L72.544,100.101L72.544,100.101z"/>
		<path id="XMLID_161_" fill="#010101" d="M86.92,99.83c-0.085-1.598-0.187-3.515-0.17-4.942H86.7
			c-0.391,1.341-0.867,2.77-1.445,4.349l-2.021,5.555h-1.122l-1.851-5.453c-0.544-1.614-1.003-3.093-1.326-4.451h-0.034
			c-0.034,1.429-0.119,3.347-0.221,5.062l-0.306,4.909h-1.409l0.797-11.448h1.885l1.953,5.537c0.476,1.409,0.867,2.666,1.154,3.855
			h0.051c0.289-1.153,0.697-2.412,1.207-3.855l2.038-5.537h1.885l0.714,11.448h-1.445L86.92,99.83z"/>
		<path id="XMLID_163_" fill="#010101" d="M96.865,99.49h-4.45v4.127h4.959v1.24h-6.437V93.409h6.183v1.24h-4.705v3.618h4.449
			L96.865,99.49L96.865,99.49z"/>
		<path id="XMLID_165_" fill="#010101" d="M99.298,93.562c0.747-0.153,1.817-0.238,2.837-0.238c1.579,0,2.599,0.289,3.311,0.934
			c0.578,0.51,0.901,1.291,0.901,2.174c0,1.513-0.951,2.515-2.157,2.921v0.053c0.884,0.306,1.409,1.12,1.681,2.31
			c0.374,1.596,0.646,2.7,0.884,3.144h-1.53c-0.187-0.323-0.441-1.31-0.765-2.735c-0.34-1.578-0.952-2.174-2.292-2.225h-1.393v4.96
			h-1.477V93.562L99.298,93.562z M100.776,98.776h1.511c1.579,0,2.582-0.865,2.582-2.175c0-1.477-1.069-2.123-2.632-2.14
			c-0.714,0-1.222,0.068-1.46,0.136L100.776,98.776L100.776,98.776z"/>
		<path id="XMLID_168_" fill="#010101" d="M109.918,93.409v11.448h-1.477V93.409H109.918z"/>
		<path id="XMLID_170_" fill="#010101" d="M120.503,104.483c-0.544,0.271-1.63,0.544-3.024,0.544c-3.228,0-5.656-2.038-5.656-5.792
			c0-3.583,2.429-6.014,5.979-6.014c1.427,0,2.327,0.307,2.717,0.511l-0.356,1.206c-0.561-0.271-1.358-0.477-2.31-0.477
			c-2.684,0-4.467,1.715-4.467,4.722c0,2.804,1.613,4.604,4.399,4.604c0.901,0,1.817-0.188,2.412-0.477L120.503,104.483z"/>
		<path id="XMLID_172_" fill="#010101" d="M124.278,101.256l-1.188,3.603h-1.53l3.891-11.448h1.783l3.906,11.448h-1.579
			l-1.224-3.603H124.278z M128.031,100.101l-1.122-3.294c-0.255-0.748-0.425-1.428-0.593-2.091h-0.034
			c-0.17,0.679-0.355,1.377-0.578,2.072l-1.122,3.312L128.031,100.101L128.031,100.101z"/>
	</g>
	<g id="XMLID_129_">
		<path id="XMLID_130_" fill="#010101" d="M167.995,99.49h-4.45v4.127h4.959v1.24h-6.437V93.409h6.183v1.24h-4.705v3.618h4.45V99.49
			L167.995,99.49L167.995,99.49z"/>
		<path id="XMLID_132_" fill="#010101" d="M171.907,93.409v6.778c0,2.563,1.137,3.649,2.667,3.649c1.698,0,2.786-1.12,2.786-3.649
			v-6.778h1.496v6.676c0,3.515-1.853,4.96-4.332,4.96c-2.344,0-4.11-1.342-4.11-4.892v-6.744H171.907z"/>
		<path id="XMLID_134_" fill="#010101" d="M181.423,93.562c0.748-0.153,1.817-0.238,2.837-0.238c1.579,0,2.599,0.289,3.311,0.934
			c0.578,0.51,0.9,1.291,0.9,2.174c0,1.513-0.95,2.515-2.157,2.921v0.053c0.884,0.306,1.409,1.12,1.681,2.31
			c0.374,1.596,0.646,2.7,0.884,3.144h-1.53c-0.187-0.323-0.442-1.31-0.765-2.735c-0.34-1.578-0.952-2.174-2.293-2.225H182.9v4.96
			h-1.477V93.562L181.423,93.562z M182.902,98.776h1.511c1.579,0,2.582-0.865,2.582-2.175c0-1.477-1.069-2.123-2.633-2.14
			c-0.713,0-1.222,0.068-1.46,0.136V98.776z"/>
		<path id="XMLID_140_" fill="#010101" d="M200.391,99.015c0,3.939-2.395,6.03-5.316,6.03c-3.024,0-5.146-2.344-5.146-5.81
			c0-3.635,2.259-6.014,5.316-6.014C198.37,93.223,200.391,95.617,200.391,99.015z M191.508,99.201c0,2.447,1.324,4.637,3.653,4.637
			c2.344,0,3.667-2.157,3.667-4.756c0-2.274-1.188-4.653-3.652-4.653C192.73,94.428,191.508,96.688,191.508,99.201z"/>
		<path id="XMLID_143_" fill="#010101" d="M217.243,99.49h-4.45v4.127h4.959v1.24h-6.437V93.409h6.185v1.24h-4.705v3.618h4.45v1.223
			H217.243L217.243,99.49z"/>
	</g>
	<g id="XMLID_117_">
		<path id="XMLID_118_" fill="#010101" d="M292.363,101.256l-1.188,3.603h-1.529l3.89-11.448h1.783l3.906,11.448h-1.579
			l-1.224-3.603H292.363z M296.116,100.101l-1.122-3.294c-0.255-0.748-0.425-1.428-0.594-2.091h-0.034
			c-0.17,0.679-0.355,1.377-0.578,2.072l-1.122,3.312L296.116,100.101L296.116,100.101z"/>
		<path id="XMLID_121_" fill="#010101" d="M300.911,93.545c0.712-0.119,1.647-0.221,2.837-0.221c1.46,0,2.531,0.34,3.21,0.951
			c0.629,0.544,1.003,1.377,1.003,2.394c0,1.037-0.307,1.854-0.884,2.447c-0.782,0.833-2.055,1.258-3.5,1.258
			c-0.442,0-0.85-0.019-1.188-0.102v4.585h-1.477L300.911,93.545L300.911,93.545L300.911,93.545z M302.389,99.065
			c0.323,0.086,0.731,0.118,1.222,0.118c1.783,0,2.872-0.864,2.872-2.445c0-1.512-1.069-2.243-2.701-2.243
			c-0.646,0-1.139,0.051-1.392,0.119V99.065z"/>
		<path id="XMLID_124_" fill="#010101" d="M310.377,101.256l-1.188,3.603h-1.529l3.89-11.448h1.783l3.906,11.448h-1.579
			l-1.225-3.603H310.377z M314.13,100.101l-1.122-3.294c-0.255-0.748-0.425-1.428-0.594-2.091h-0.033
			c-0.17,0.679-0.354,1.377-0.578,2.072l-1.122,3.312L314.13,100.101L314.13,100.101z"/>
		<path id="XMLID_127_" fill="#010101" d="M326.67,104.483c-0.544,0.271-1.63,0.544-3.022,0.544c-3.229,0-5.656-2.038-5.656-5.792
			c0-3.583,2.429-6.014,5.979-6.014c1.428,0,2.326,0.307,2.718,0.511l-0.356,1.206c-0.562-0.271-1.359-0.477-2.31-0.477
			c-2.687,0-4.468,1.715-4.468,4.722c0,2.804,1.613,4.604,4.398,4.604c0.9,0,1.816-0.188,2.412-0.477L326.67,104.483z"/>
	</g>
	<g id="XMLID_93_">
		<path id="XMLID_94_" fill="#010101" d="M389.838,99.83c-0.085-1.598-0.187-3.515-0.168-4.942h-0.052
			c-0.392,1.341-0.866,2.77-1.444,4.349l-2.021,5.555h-1.12l-1.854-5.453c-0.543-1.614-1.001-3.093-1.325-4.451h-0.031
			c-0.034,1.429-0.119,3.347-0.223,5.062l-0.306,4.909h-1.409l0.798-11.448h1.886l1.953,5.537c0.476,1.409,0.865,2.666,1.153,3.855
			h0.051c0.289-1.153,0.696-2.412,1.206-3.855l2.038-5.537h1.886l0.714,11.448h-1.444L389.838,99.83z"/>
		<path id="XMLID_96_" fill="#010101" d="M395.333,93.409v11.448h-1.479V93.409H395.333z"/>
		<path id="XMLID_98_" fill="#010101" d="M397.916,93.562c0.9-0.138,1.97-0.238,3.143-0.238c2.123,0,3.635,0.493,4.637,1.428
			c1.02,0.933,1.613,2.259,1.613,4.109c0,1.868-0.575,3.396-1.646,4.449c-1.07,1.07-2.837,1.648-5.062,1.648
			c-1.052,0-1.936-0.052-2.684-0.138V93.562L397.916,93.562z M399.394,103.688c0.374,0.067,0.916,0.085,1.495,0.085
			c3.158,0,4.875-1.767,4.875-4.857c0.018-2.701-1.512-4.417-4.637-4.417c-0.765,0-1.342,0.069-1.733,0.152V103.688z"/>
		<path id="XMLID_101_" fill="#010101" d="M409.234,93.562c0.899-0.138,1.97-0.238,3.143-0.238c2.123,0,3.634,0.493,4.635,1.428
			c1.021,0.933,1.615,2.259,1.615,4.109c0,1.868-0.577,3.396-1.646,4.449c-1.07,1.07-2.838,1.648-5.062,1.648
			c-1.052,0-1.936-0.052-2.684-0.138V93.562L409.234,93.562z M410.712,103.688c0.373,0.067,0.916,0.085,1.495,0.085
			c3.158,0,4.874-1.767,4.874-4.857c0.018-2.701-1.511-4.417-4.636-4.417c-0.767,0-1.343,0.069-1.733,0.152V103.688z"/>
		<path id="XMLID_104_" fill="#010101" d="M420.551,93.409h1.479v10.208h4.892v1.24h-6.37L420.551,93.409L420.551,93.409z"/>
		<path id="XMLID_106_" fill="#010101" d="M434.501,99.49h-4.451v4.127h4.959v1.24h-6.437V93.409h6.182v1.24h-4.704v3.618h4.451
			V99.49z"/>
		<path id="XMLID_108_" fill="#010101" d="M446.463,99.49h-4.449v4.127h4.96v1.24h-6.438V93.409h6.182v1.24h-4.703v3.618h4.449
			L446.463,99.49L446.463,99.49z"/>
		<path id="XMLID_110_" fill="#010101" d="M450.749,101.256l-1.188,3.603h-1.528l3.891-11.448h1.782l3.907,11.448h-1.578
			l-1.226-3.603H450.749z M454.502,100.101l-1.12-3.294c-0.255-0.748-0.425-1.428-0.595-2.091h-0.034
			c-0.169,0.679-0.354,1.377-0.576,2.072l-1.122,3.312L454.502,100.101L454.502,100.101z"/>
		<path id="XMLID_113_" fill="#010101" d="M459.095,103.057c0.662,0.407,1.63,0.747,2.649,0.747c1.511,0,2.394-0.799,2.394-1.954
			c0-1.069-0.611-1.683-2.154-2.273c-1.868-0.663-3.025-1.63-3.025-3.244c0-1.785,1.479-3.108,3.703-3.108
			c1.172,0,2.021,0.271,2.531,0.562l-0.408,1.206c-0.374-0.205-1.14-0.544-2.174-0.544c-1.563,0-2.157,0.934-2.157,1.716
			c0,1.07,0.697,1.596,2.275,2.209c1.937,0.746,2.921,1.681,2.921,3.362c0,1.768-1.308,3.295-4.009,3.295
			c-1.104,0-2.31-0.324-2.92-0.73L459.095,103.057z"/>
		<path id="XMLID_115_" fill="#010101" d="M469.851,94.665h-3.481v-1.257h8.476v1.257h-3.499v10.191h-1.496L469.851,94.665
			L469.851,94.665z"/>
	</g>
	<g id="XMLID_64_">
		<path id="XMLID_65_" fill="#010101" d="M491.666,93.409h1.477v10.208h4.893v1.24h-6.368L491.666,93.409L491.666,93.409z"/>
		<path id="XMLID_67_" fill="#010101" d="M501.538,101.256l-1.188,3.603h-1.528l3.891-11.448h1.782l3.907,11.448h-1.578
			l-1.225-3.603H501.538z M505.291,100.101l-1.12-3.294c-0.255-0.748-0.425-1.428-0.595-2.091h-0.034
			c-0.169,0.679-0.355,1.377-0.576,2.072l-1.122,3.312L505.291,100.101L505.291,100.101z"/>
		<path id="XMLID_70_" fill="#010101" d="M510.953,94.665h-3.482v-1.257h8.476v1.257h-3.498v10.191h-1.494L510.953,94.665
			L510.953,94.665z"/>
		<path id="XMLID_72_" fill="#010101" d="M518.702,93.409v11.448h-1.478V93.409H518.702z"/>
		<path id="XMLID_74_" fill="#010101" d="M521.287,104.857V93.409h1.612l3.67,5.792c0.85,1.343,1.511,2.55,2.055,3.721l0.034-0.018
			c-0.139-1.529-0.17-2.921-0.17-4.704v-4.791h1.392v11.448h-1.495l-3.634-5.81c-0.798-1.272-1.562-2.582-2.14-3.821l-0.053,0.018
			c0.086,1.445,0.119,2.82,0.119,4.722v4.893L521.287,104.857L521.287,104.857z"/>
		<path id="XMLID_76_" fill="#010101" d="M537.922,101.256l-1.188,3.603h-1.529l3.89-11.448h1.783l3.907,11.448h-1.579l-1.224-3.603
			H537.922z M541.676,100.101l-1.12-3.294c-0.255-0.748-0.425-1.428-0.595-2.091h-0.034c-0.169,0.679-0.354,1.377-0.575,2.072
			l-1.122,3.312L541.676,100.101L541.676,100.101z"/>
		<path id="XMLID_79_" fill="#010101" d="M556.05,99.83c-0.085-1.598-0.187-3.515-0.168-4.942h-0.051
			c-0.393,1.341-0.867,2.77-1.445,4.349l-2.021,5.555h-1.12l-1.854-5.453c-0.544-1.614-1.002-3.093-1.325-4.451h-0.032
			c-0.034,1.429-0.119,3.347-0.222,5.062l-0.307,4.909h-1.408l0.797-11.448h1.886l1.952,5.537c0.477,1.409,0.866,2.666,1.154,3.855
			h0.051c0.289-1.153,0.697-2.412,1.207-3.855l2.037-5.537h1.887l0.714,11.448h-1.445L556.05,99.83z"/>
		<path id="XMLID_81_" fill="#010101" d="M565.995,99.49h-4.45v4.127h4.96v1.24h-6.438V93.409h6.182v1.24h-4.703v3.618h4.45
			L565.995,99.49L565.995,99.49z"/>
		<path id="XMLID_83_" fill="#010101" d="M568.428,93.562c0.746-0.153,1.817-0.238,2.837-0.238c1.579,0,2.6,0.289,3.312,0.934
			c0.578,0.51,0.9,1.291,0.9,2.174c0,1.513-0.949,2.515-2.155,2.921v0.053c0.883,0.306,1.408,1.12,1.682,2.31
			c0.375,1.596,0.646,2.7,0.884,3.144h-1.527c-0.188-0.323-0.442-1.31-0.766-2.735c-0.34-1.578-0.952-2.174-2.293-2.225h-1.393v4.96
			h-1.478V93.564h-0.003V93.562z M569.905,98.776h1.511c1.579,0,2.582-0.865,2.582-2.175c0-1.477-1.071-2.123-2.633-2.14
			c-0.714,0-1.224,0.068-1.46,0.136V98.776L569.905,98.776z"/>
		<path id="XMLID_86_" fill="#010101" d="M579.048,93.409v11.448h-1.478V93.409H579.048z"/>
		<path id="XMLID_88_" fill="#010101" d="M589.633,104.483c-0.544,0.271-1.631,0.544-3.022,0.544c-3.228,0-5.656-2.038-5.656-5.792
			c0-3.583,2.43-6.014,5.979-6.014c1.429,0,2.328,0.307,2.719,0.511l-0.356,1.206c-0.562-0.271-1.357-0.477-2.311-0.477
			c-2.685,0-4.468,1.715-4.468,4.722c0,2.804,1.615,4.604,4.399,4.604c0.9,0,1.816-0.188,2.411-0.477L589.633,104.483z"/>
		<path id="XMLID_90_" fill="#010101" d="M593.408,101.256l-1.188,3.603h-1.528l3.891-11.448h1.782l3.908,11.448h-1.579
			l-1.225-3.603H593.408z M597.161,100.101l-1.12-3.294c-0.255-0.748-0.425-1.428-0.595-2.091h-0.034
			c-0.169,0.679-0.355,1.377-0.576,2.072l-1.122,3.312L597.161,100.101L597.161,100.101z"/>
	</g>
</g>
<path id="XMLID_137_" fill="#010101" d="M202.267,93.544c0.712-0.119,1.647-0.221,2.836-0.221c1.46,0,2.531,0.34,3.21,0.951
	c0.629,0.544,1.003,1.377,1.003,2.394c0,1.037-0.306,1.854-0.884,2.447c-0.782,0.833-2.055,1.258-3.5,1.258
	c-0.442,0-0.85-0.02-1.188-0.102v4.585h-1.477V93.544L202.267,93.544L202.267,93.544z M203.744,99.064
	c0.323,0.086,0.731,0.118,1.222,0.118c1.783,0,2.871-0.864,2.871-2.445c0-1.512-1.069-2.243-2.701-2.243
	c-0.646,0-1.139,0.051-1.392,0.119V99.064z"/>
</svg>
