<?xml version="1.0" encoding="utf-8"?>
<!-- Generator: Adobe Illustrator 19.0.0, SVG Export Plug-In . SVG Version: 6.00 Build 0)  -->
<svg version="1.1" id="Layer_1" xmlns="http://www.w3.org/2000/svg" xmlns:xlink="http://www.w3.org/1999/xlink" x="0px" y="0px"
	 viewBox="-404 434.442 189.023 132.558" enable-background="new -404 434.442 189.023 132.558" xml:space="preserve">
<g>
	<g>
		<path fill="#999999" d="M-403,452.128v-7.139h1.514v5.889h2.896v1.25H-403z"/>
		<path fill="#999999" d="M-393.239,452.128h-4.112v-7.139h4.111v1.24h-2.597v1.567h2.417v1.24h-2.417v1.841h2.598V452.128z"/>
		<path fill="#999999" d="M-389.04,448.119h2.832v3.701c-0.459,0.15-0.892,0.255-1.296,0.315c-0.406,0.06-0.82,0.09-1.243,0.09
			c-1.077,0-1.9-0.316-2.468-0.95c-0.568-0.633-0.853-1.542-0.853-2.727c0-1.152,0.329-2.051,0.989-2.695
			c0.658-0.645,1.572-0.967,2.741-0.967c0.732,0,1.438,0.146,2.119,0.439l-0.503,1.211c-0.521-0.26-1.062-0.391-1.626-0.391
			c-0.654,0-1.179,0.22-1.572,0.659c-0.393,0.439-0.591,1.03-0.591,1.772c0,0.775,0.158,1.366,0.477,1.775
			c0.316,0.409,0.778,0.613,1.384,0.613c0.315,0,0.637-0.033,0.962-0.098v-1.489h-1.352V448.119z"/>
		<path fill="#999999" d="M-380.397,452.128h-4.111v-7.139h4.111v1.24h-2.598v1.567h2.417v1.24h-2.417v1.841h2.598V452.128z"/>
		<path fill="#999999" d="M-372.575,452.128h-1.924l-3.105-5.4h-0.044c0.062,0.954,0.093,1.634,0.093,2.041v3.359h-1.353v-7.139
			h1.909l3.101,5.347h0.034c-0.049-0.928-0.073-1.583-0.073-1.968v-3.379h1.362V452.128z"/>
		<path fill="#999999" d="M-364.855,448.49c0,1.175-0.335,2.075-1.003,2.7c-0.67,0.625-1.636,0.938-2.898,0.938h-2.021v-7.139h2.241
			c1.165,0,2.07,0.308,2.715,0.923C-365.176,446.527-364.855,447.387-364.855,448.49z M-366.428,448.529
			c0-1.533-0.677-2.3-2.031-2.3h-0.806v4.648h0.649C-367.157,450.878-366.428,450.095-366.428,448.529z"/>
	</g>
</g>
<path fill="#999999" d="M-217.5,558H-403v-99.5h185.5V558z M-401,556h181.5v-95.5H-401V556z"/>
<g id="XMLID_147_">
	<path id="XMLID_153_" fill="#454545" d="M-331.175,497.787c-3.187,0-8.655,2.608-12.073,5.795l-9.09,8.477
		c-2.514,2.345-3.24,4.371-2.182,5.281c-0.871,1.736-1.608,3.311-2.022,4.102c1.284-0.791,3.923-2.366,6.776-4.102
		c3.009-0.91,6.631-2.937,9.145-5.281l9.09-8.477C-328.112,500.394-327.988,497.787-331.175,497.787z"/>
</g>
<g>
	<path fill="#999999" d="M-386.195,528.455c0.503-0.084,1.163-0.156,2.003-0.156c1.031,0,1.787,0.24,2.267,0.672
		c0.444,0.384,0.708,0.972,0.708,1.69c0,0.732-0.216,1.308-0.624,1.728c-0.552,0.588-1.451,0.888-2.471,0.888
		c-0.312,0-0.6-0.013-0.839-0.072v3.238h-1.043V528.455z M-385.151,532.352c0.228,0.061,0.516,0.084,0.863,0.084
		c1.259,0,2.027-0.611,2.027-1.727c0-1.067-0.755-1.584-1.907-1.584c-0.456,0-0.804,0.036-0.983,0.084V532.352z"/>
	<path fill="#999999" d="M-376.944,536.442l-0.084-0.731h-0.036c-0.324,0.456-0.947,0.863-1.775,0.863
		c-1.175,0-1.775-0.827-1.775-1.667c0-1.403,1.247-2.171,3.49-2.159v-0.119c0-0.48-0.132-1.344-1.319-1.344
		c-0.54,0-1.104,0.168-1.511,0.432l-0.24-0.695c0.48-0.312,1.175-0.516,1.907-0.516c1.775,0,2.207,1.211,2.207,2.374v2.171
		c0,0.504,0.024,0.996,0.096,1.392H-376.944z M-377.101,533.48c-1.151-0.024-2.458,0.18-2.458,1.307
		c0,0.684,0.456,1.008,0.996,1.008c0.755,0,1.235-0.479,1.403-0.972c0.036-0.107,0.06-0.228,0.06-0.336V533.48z"/>
	<path fill="#999999" d="M-374.519,535.363c0.312,0.203,0.864,0.42,1.392,0.42c0.768,0,1.127-0.384,1.127-0.864
		c0-0.504-0.3-0.779-1.079-1.067c-1.043-0.371-1.535-0.947-1.535-1.643c0-0.936,0.755-1.703,2.003-1.703
		c0.587,0,1.103,0.168,1.427,0.359l-0.264,0.768c-0.228-0.144-0.647-0.336-1.187-0.336c-0.624,0-0.972,0.36-0.972,0.792
		c0,0.479,0.348,0.695,1.104,0.983c1.007,0.384,1.523,0.888,1.523,1.751c0,1.02-0.792,1.739-2.171,1.739
		c-0.635,0-1.223-0.156-1.631-0.396L-374.519,535.363z"/>
	<path fill="#999999" d="M-368.352,528.97v1.667h1.511v0.804h-1.511v3.13c0,0.72,0.204,1.128,0.792,1.128
		c0.276,0,0.479-0.036,0.612-0.072l0.048,0.791c-0.204,0.084-0.528,0.145-0.936,0.145c-0.492,0-0.888-0.156-1.14-0.444
		c-0.3-0.312-0.408-0.827-0.408-1.511v-3.166h-0.899v-0.804h0.899v-1.392L-368.352,528.97z"/>
	<path fill="#999999" d="M-363.215,535.171c0.468,0.288,1.151,0.528,1.871,0.528c1.067,0,1.691-0.564,1.691-1.38
		c0-0.756-0.432-1.188-1.523-1.606c-1.319-0.468-2.135-1.151-2.135-2.291c0-1.26,1.043-2.195,2.614-2.195
		c0.828,0,1.427,0.192,1.787,0.396l-0.288,0.852c-0.264-0.145-0.803-0.384-1.535-0.384c-1.103,0-1.523,0.659-1.523,1.211
		c0,0.756,0.492,1.127,1.607,1.56c1.367,0.527,2.063,1.187,2.063,2.374c0,1.248-0.923,2.327-2.831,2.327
		c-0.779,0-1.631-0.229-2.062-0.516L-363.215,535.171z"/>
	<path fill="#999999" d="M-352.333,534.859c0,0.6,0.012,1.127,0.048,1.583h-0.936l-0.06-0.947h-0.024
		c-0.276,0.468-0.887,1.079-1.919,1.079c-0.911,0-2.003-0.504-2.003-2.543v-3.394h1.056v3.214c0,1.104,0.336,1.848,1.295,1.848
		c0.708,0,1.199-0.492,1.391-0.96c0.06-0.156,0.096-0.348,0.096-0.54v-3.562h1.056V534.859z"/>
	<path fill="#999999" d="M-350.579,532.209c0-0.6-0.012-1.092-0.048-1.571h0.923l0.048,0.936h0.036
		c0.324-0.552,0.864-1.067,1.823-1.067c0.792,0,1.391,0.479,1.643,1.163h0.024c0.18-0.324,0.408-0.575,0.647-0.756
		c0.348-0.264,0.731-0.407,1.283-0.407c0.768,0,1.907,0.504,1.907,2.519v3.418h-1.032v-3.286c0-1.115-0.408-1.787-1.259-1.787
		c-0.6,0-1.067,0.443-1.247,0.96c-0.048,0.144-0.084,0.335-0.084,0.527v3.586h-1.032v-3.479c0-0.923-0.408-1.595-1.211-1.595
		c-0.66,0-1.14,0.527-1.308,1.056c-0.06,0.155-0.084,0.336-0.084,0.516v3.502h-1.031V532.209z"/>
	<path fill="#999999" d="M-340.571,532.209c0-0.6-0.012-1.092-0.048-1.571h0.923l0.048,0.936h0.036
		c0.324-0.552,0.864-1.067,1.823-1.067c0.792,0,1.391,0.479,1.643,1.163h0.024c0.18-0.324,0.408-0.575,0.647-0.756
		c0.348-0.264,0.731-0.407,1.283-0.407c0.768,0,1.907,0.504,1.907,2.519v3.418h-1.032v-3.286c0-1.115-0.408-1.787-1.259-1.787
		c-0.6,0-1.067,0.443-1.247,0.96c-0.048,0.144-0.084,0.335-0.084,0.527v3.586h-1.032v-3.479c0-0.923-0.408-1.595-1.211-1.595
		c-0.66,0-1.14,0.527-1.308,1.056c-0.06,0.155-0.084,0.336-0.084,0.516v3.502h-1.031V532.209z"/>
	<path fill="#999999" d="M-329.388,529.006c0.012,0.359-0.252,0.647-0.671,0.647c-0.372,0-0.636-0.288-0.636-0.647
		c0-0.372,0.276-0.66,0.66-0.66C-329.64,528.346-329.388,528.634-329.388,529.006z M-330.563,536.442v-5.805h1.056v5.805H-330.563z"
		/>
	<path fill="#999999" d="M-326.484,528.97v1.667h1.511v0.804h-1.511v3.13c0,0.72,0.204,1.128,0.792,1.128
		c0.276,0,0.479-0.036,0.611-0.072l0.048,0.791c-0.204,0.084-0.528,0.145-0.936,0.145c-0.492,0-0.888-0.156-1.14-0.444
		c-0.3-0.312-0.408-0.827-0.408-1.511v-3.166h-0.899v-0.804h0.899v-1.392L-326.484,528.97z"/>
</g>
<g>
	<path fill="#999999" d="M-306.659,528.358h4.354v0.876h-3.31v2.687h3.058v0.863h-3.058v3.658h-1.044V528.358z"/>
	<path fill="#999999" d="M-296.413,534.859c0,0.6,0.012,1.127,0.048,1.583h-0.936l-0.061-0.947h-0.023
		c-0.276,0.468-0.888,1.079-1.919,1.079c-0.911,0-2.003-0.504-2.003-2.543v-3.394h1.056v3.214c0,1.104,0.336,1.848,1.295,1.848
		c0.708,0,1.199-0.492,1.392-0.96c0.06-0.156,0.096-0.348,0.096-0.54v-3.562h1.056V534.859z"/>
	<path fill="#999999" d="M-293.388,528.97v1.667h1.512v0.804h-1.512v3.13c0,0.72,0.204,1.128,0.792,1.128
		c0.275,0,0.479-0.036,0.611-0.072l0.048,0.791c-0.204,0.084-0.527,0.145-0.936,0.145c-0.491,0-0.888-0.156-1.14-0.444
		c-0.3-0.312-0.407-0.827-0.407-1.511v-3.166h-0.899v-0.804h0.899v-1.392L-293.388,528.97z"/>
	<path fill="#999999" d="M-285.83,534.859c0,0.6,0.012,1.127,0.048,1.583h-0.936l-0.06-0.947h-0.024
		c-0.275,0.468-0.887,1.079-1.919,1.079c-0.911,0-2.003-0.504-2.003-2.543v-3.394h1.056v3.214c0,1.104,0.336,1.848,1.296,1.848
		c0.707,0,1.199-0.492,1.391-0.96c0.061-0.156,0.096-0.348,0.096-0.54v-3.562h1.056V534.859z"/>
	<path fill="#999999" d="M-284.075,532.448c0-0.684-0.012-1.271-0.048-1.811h0.924l0.036,1.14h0.048
		c0.264-0.78,0.899-1.271,1.606-1.271c0.12,0,0.204,0.012,0.301,0.036v0.995c-0.108-0.024-0.217-0.036-0.36-0.036
		c-0.743,0-1.271,0.563-1.415,1.355c-0.024,0.144-0.048,0.312-0.048,0.491v3.095h-1.044V532.448z"/>
	<path fill="#999999" d="M-279.684,533.731c0.024,1.428,0.936,2.016,1.991,2.016c0.755,0,1.211-0.132,1.606-0.3l0.181,0.755
		c-0.372,0.168-1.008,0.36-1.932,0.36c-1.787,0-2.854-1.176-2.854-2.927s1.032-3.13,2.723-3.13c1.896,0,2.399,1.667,2.399,2.734
		c0,0.216-0.024,0.384-0.036,0.491H-279.684z M-276.589,532.976c0.012-0.672-0.276-1.716-1.464-1.716
		c-1.067,0-1.535,0.984-1.619,1.716H-276.589z"/>
	<path fill="#999999" d="M-271.823,535.171c0.468,0.288,1.151,0.528,1.871,0.528c1.067,0,1.69-0.564,1.69-1.38
		c0-0.756-0.432-1.188-1.522-1.606c-1.319-0.468-2.135-1.151-2.135-2.291c0-1.26,1.043-2.195,2.614-2.195
		c0.827,0,1.427,0.192,1.787,0.396l-0.288,0.852c-0.264-0.145-0.804-0.384-1.535-0.384c-1.104,0-1.523,0.659-1.523,1.211
		c0,0.756,0.492,1.127,1.607,1.56c1.367,0.527,2.062,1.187,2.062,2.374c0,1.248-0.923,2.327-2.83,2.327
		c-0.779,0-1.631-0.229-2.062-0.516L-271.823,535.171z"/>
	<path fill="#999999" d="M-260.942,534.859c0,0.6,0.012,1.127,0.048,1.583h-0.936l-0.06-0.947h-0.024
		c-0.275,0.468-0.887,1.079-1.919,1.079c-0.911,0-2.003-0.504-2.003-2.543v-3.394h1.056v3.214c0,1.104,0.336,1.848,1.296,1.848
		c0.707,0,1.199-0.492,1.391-0.96c0.061-0.156,0.096-0.348,0.096-0.54v-3.562h1.056V534.859z"/>
	<path fill="#999999" d="M-259.188,532.209c0-0.6-0.012-1.092-0.048-1.571h0.924l0.048,0.936h0.036
		c0.323-0.552,0.863-1.067,1.823-1.067c0.791,0,1.391,0.479,1.643,1.163h0.024c0.18-0.324,0.407-0.575,0.647-0.756
		c0.348-0.264,0.731-0.407,1.283-0.407c0.768,0,1.907,0.504,1.907,2.519v3.418h-1.032v-3.286c0-1.115-0.407-1.787-1.259-1.787
		c-0.6,0-1.067,0.443-1.247,0.96c-0.048,0.144-0.084,0.335-0.084,0.527v3.586h-1.031v-3.479c0-0.923-0.408-1.595-1.212-1.595
		c-0.659,0-1.14,0.527-1.308,1.056c-0.06,0.155-0.084,0.336-0.084,0.516v3.502h-1.031V532.209z"/>
	<path fill="#999999" d="M-249.18,532.209c0-0.6-0.012-1.092-0.048-1.571h0.924l0.048,0.936h0.036
		c0.323-0.552,0.863-1.067,1.823-1.067c0.791,0,1.391,0.479,1.643,1.163h0.024c0.18-0.324,0.407-0.575,0.647-0.756
		c0.348-0.264,0.731-0.407,1.283-0.407c0.768,0,1.907,0.504,1.907,2.519v3.418h-1.032v-3.286c0-1.115-0.407-1.787-1.259-1.787
		c-0.6,0-1.067,0.443-1.247,0.96c-0.048,0.144-0.084,0.335-0.084,0.527v3.586h-1.031v-3.479c0-0.923-0.408-1.595-1.212-1.595
		c-0.659,0-1.14,0.527-1.308,1.056c-0.06,0.155-0.084,0.336-0.084,0.516v3.502h-1.031V532.209z"/>
	<path fill="#999999" d="M-237.996,529.006c0.012,0.359-0.252,0.647-0.672,0.647c-0.372,0-0.636-0.288-0.636-0.647
		c0-0.372,0.276-0.66,0.66-0.66C-238.248,528.346-237.996,528.634-237.996,529.006z M-239.172,536.442v-5.805h1.056v5.805H-239.172z
		"/>
	<path fill="#999999" d="M-235.092,528.97v1.667h1.511v0.804h-1.511v3.13c0,0.72,0.203,1.128,0.791,1.128
		c0.276,0,0.479-0.036,0.612-0.072l0.048,0.791c-0.204,0.084-0.528,0.145-0.936,0.145c-0.492,0-0.888-0.156-1.14-0.444
		c-0.3-0.312-0.408-0.827-0.408-1.511v-3.166h-0.899v-0.804h0.899v-1.392L-235.092,528.97z"/>
</g>
<g id="XMLID_148_">
	<polygon id="XMLID_152_" fill="none" points="-361.453,495.442 -361.421,495.491 -359.587,498.3 	"/>
	<path id="XMLID_151_" fill="#CF2D27" d="M-356,481.067c-5.44,0-10,4.451-10,9.891v14.469c0,4.002,2.584,7.461,6.054,9.014
		c1.692,2.964,3.371,5.651,4.114,7.001c0.743-1.35,2.282-4.038,3.974-7.001c3.47-1.553,5.858-5.012,5.858-9.014v-14.469
		C-346,485.518-350.56,481.067-356,481.067z"/>
	<path id="XMLID_150_" fill="#FFFFFF" d="M-353.861,500h0.127H-353v5.234c0,1.73-1.378,3.139-2.999,3.139
		c-1.622,0-3.001-1.408-3.001-3.139V499h-2v6.234c0,2.586,2.411,4.689,5,4.689c2.587,0,5-2.103,5-4.689V500h0.87l-1.866-2.859
		L-353.861,500z"/>
	<path id="XMLID_149_" fill="#FFFFFF" d="M-357.722,495H-359v-0.571v-3.281c0-1.73,1.378-3.137,3-3.137c1.622,0,3,1.408,3,3.137
		v3.281V496h2v-0.853v-3.999c0-2.585-2.412-4.687-5-4.687c-2.588,0-5,2.102-5,4.687v3.999V495h-0.341h-0.112l1.866,2.858
		L-357.722,495z"/>
</g>
<path id="XMLID_174_" fill="#454545" d="M-245.281,497.787c-3.187,0-8.655,2.608-12.073,5.795l-9.09,8.477
	c-2.514,2.345-3.24,4.371-2.182,5.281c-0.871,1.736-1.608,3.311-2.022,4.102c1.284-0.791,3.923-2.366,6.776-4.102
	c3.009-0.91,6.631-2.937,9.145-5.281l9.09-8.477C-242.219,500.394-242.094,497.787-245.281,497.787z"/>
<g id="XMLID_169_">
	<polygon id="XMLID_173_" fill="none" points="-275.677,495.442 -275.645,495.491 -273.811,498.3 	"/>
	<path id="XMLID_172_" fill="#5ECC1D" d="M-270,481.067c-5.44,0-10,4.451-10,9.891v14.469c0,4.002,2.472,7.461,5.942,9.014
		c1.692,2.964,3.315,5.651,4.058,7.001c0.743-1.35,2.366-4.038,4.058-7.001c3.47-1.553,5.942-5.012,5.942-9.014v-14.469
		C-260,485.518-264.56,481.067-270,481.067z"/>
	<path id="XMLID_171_" fill="#FFFFFF" d="M-268.086,500h0.127H-267v5.234c0,1.73-1.378,3.139-2.999,3.139
		c-1.622,0-3.001-1.408-3.001-3.139V499h-2v6.234c0,2.586,2.411,4.689,5,4.689c2.587,0,5-2.103,5-4.689V500h0.646l-1.866-2.859
		L-268.086,500z"/>
	<path id="XMLID_170_" fill="#FFFFFF" d="M-271.946,495H-273v-0.571v-3.281c0-1.73,1.378-3.137,3-3.137c1.622,0,3,1.408,3,3.137
		v3.281V496h2v-0.853v-3.999c0-2.585-2.412-4.687-5-4.687c-2.588,0-5,2.102-5,4.687v3.999V495h-0.565h-0.112l1.866,2.858
		L-271.946,495z"/>
</g>
</svg>
