<?xml version="1.0" encoding="utf-8"?>
<!-- Generator: Adobe Illustrator 19.0.0, SVG Export Plug-In . SVG Version: 6.00 Build 0)  -->
<svg version="1.1" xmlns="http://www.w3.org/2000/svg" xmlns:xlink="http://www.w3.org/1999/xlink" x="0px" y="0px"
	 viewBox="0 0 718 237.598" enable-background="new 0 0 718 237.598" xml:space="preserve">
<g id="Layer_2" display="none">
	<g id="_x35_gOdxk.tif" display="inline">
		
			<image overflow="visible" width="2504" height="1342" id="Layer_0_1_" xlink:href="A33E344C8AB05CC5.png"  transform="matrix(0.5 0 0 0.5 -267 -653.5)">
		</image>
	</g>
	<rect x="-267" y="-63.423" display="inline" fill="#EDF2F7" width="1252" height="353.982"/>
</g>
<g id="Layer_3">
	<rect x="-0.654" y="-0.28" fill="#FFFFFF" width="718" height="237.598"/>
	<rect x="136.415" y="53.799" fill="#4296D2" width="276.5" height="37"/>
	<g>
		<path fill="#FFFFFF" d="M248.812,76.4h-1.367l-3.644-4.847l-1.046,0.93V76.4h-1.162v-9.994h1.162v4.956l4.532-4.956h1.374
			l-4.02,4.341L248.812,76.4z"/>
		<path fill="#FFFFFF" d="M255.757,76.4h-5.571v-9.994h5.571v1.032h-4.409v3.22h4.143v1.025h-4.143v3.678h4.409V76.4z"/>
		<path fill="#FFFFFF" d="M260.515,71.403l2.666-4.997h1.258l-3.336,6.118V76.4h-1.176v-3.821l-3.329-6.173h1.271L260.515,71.403z"
			/>
		<path fill="#FFFFFF" d="M273.619,76.4h-1.326l-5.462-8.388h-0.055c0.073,0.984,0.109,1.887,0.109,2.707V76.4h-1.073v-9.994h1.312
			l5.448,8.354h0.055c-0.009-0.123-0.03-0.519-0.062-1.186c-0.032-0.668-0.043-1.146-0.034-1.433v-5.735h1.087V76.4z"/>
		<path fill="#FFFFFF" d="M285.042,71.39c0,1.6-0.404,2.857-1.213,3.773s-1.934,1.374-3.374,1.374c-1.472,0-2.608-0.45-3.408-1.35
			c-0.8-0.9-1.2-2.171-1.2-3.812c0-1.627,0.401-2.889,1.203-3.784s1.941-1.343,3.418-1.343c1.436,0,2.557,0.455,3.363,1.367
			C284.639,68.527,285.042,69.785,285.042,71.39z M277.078,71.39c0,1.354,0.288,2.38,0.865,3.079c0.577,0.7,1.414,1.05,2.512,1.05
			c1.107,0,1.944-0.349,2.509-1.046s0.848-1.725,0.848-3.083c0-1.345-0.281-2.364-0.844-3.06c-0.563-0.694-1.396-1.042-2.499-1.042
			c-1.107,0-1.949,0.35-2.526,1.049C277.366,69.037,277.078,70.054,277.078,71.39z"/>
		<path fill="#FFFFFF" d="M290.347,76.4h-1.162v-8.962h-3.165v-1.032h7.492v1.032h-3.165V76.4z"/>
		<path fill="#FFFFFF" d="M300.587,76.4h-5.571v-9.994h5.571v1.032h-4.409v3.22h4.143v1.025h-4.143v3.678h4.409V76.4z"/>
		<path fill="#FFFFFF" d="M308.441,73.741c0,0.88-0.319,1.565-0.957,2.058s-1.504,0.738-2.598,0.738
			c-1.185,0-2.096-0.152-2.734-0.458v-1.121c0.41,0.173,0.857,0.31,1.34,0.41s0.961,0.15,1.436,0.15c0.775,0,1.358-0.147,1.75-0.44
			c0.392-0.295,0.588-0.703,0.588-1.228c0-0.347-0.069-0.63-0.208-0.851c-0.139-0.222-0.372-0.426-0.697-0.612
			c-0.326-0.188-0.821-0.399-1.487-0.636c-0.93-0.333-1.594-0.728-1.993-1.183c-0.399-0.456-0.598-1.051-0.598-1.784
			c0-0.771,0.29-1.384,0.868-1.839c0.579-0.456,1.344-0.684,2.297-0.684c0.994,0,1.907,0.182,2.741,0.547l-0.362,1.012
			c-0.825-0.347-1.627-0.52-2.406-0.52c-0.615,0-1.096,0.132-1.442,0.396c-0.346,0.264-0.52,0.631-0.52,1.101
			c0,0.346,0.064,0.63,0.191,0.851c0.127,0.222,0.343,0.424,0.646,0.608s0.767,0.389,1.391,0.612
			c1.048,0.373,1.77,0.774,2.164,1.203S308.441,73.058,308.441,73.741z"/>
	</g>
	<rect x="136.415" y="96.799" fill="#4296D2" width="414.583" height="37"/>
	<g>
		<path fill="#FFFFFF" d="M263.682,119.4l-3.391-8.859h-0.055c0.064,0.701,0.096,1.535,0.096,2.502v6.357h-1.073v-9.994h1.75
			l3.165,8.244h0.055l3.192-8.244h1.736v9.994h-1.162v-6.439c0-0.738,0.032-1.541,0.096-2.406h-0.055l-3.418,8.846H263.682z"/>
		<path fill="#FFFFFF" d="M278.181,119.4l-1.244-3.179h-4.006l-1.23,3.179h-1.176l3.951-10.035h0.978l3.931,10.035H278.181z
			 M276.574,115.176l-1.162-3.097c-0.15-0.393-0.305-0.873-0.465-1.442c-0.1,0.438-0.244,0.918-0.431,1.442l-1.176,3.097H276.574z"
			/>
		<path fill="#FFFFFF" d="M281.92,115.244v4.156h-1.162v-9.994h2.741c1.226,0,2.132,0.234,2.717,0.704
			c0.585,0.469,0.878,1.176,0.878,2.119c0,1.321-0.67,2.215-2.01,2.68l2.714,4.491h-1.374l-2.42-4.156H281.92z M281.92,114.246
			h1.593c0.82,0,1.422-0.163,1.805-0.489c0.383-0.325,0.574-0.814,0.574-1.466c0-0.661-0.195-1.138-0.584-1.429
			c-0.39-0.292-1.015-0.438-1.876-0.438h-1.511V114.246z"/>
		<path fill="#FFFFFF" d="M296.631,119.4h-1.367l-3.644-4.847l-1.046,0.93v3.917h-1.162v-9.994h1.162v4.956l4.532-4.956h1.374
			l-4.02,4.341L296.631,119.4z"/>
		<path fill="#FFFFFF" d="M303.576,119.4h-5.571v-9.994h5.571v1.032h-4.409v3.22h4.143v1.025h-4.143v3.678h4.409V119.4z"/>
		<path fill="#FFFFFF" d="M308.867,119.4h-1.162v-8.962h-3.165v-1.032h7.492v1.032h-3.165V119.4z"/>
		<path fill="#FFFFFF" d="M319.873,112.318c0,1.012-0.345,1.79-1.036,2.334c-0.69,0.545-1.678,0.817-2.963,0.817h-1.176v3.931
			h-1.162v-9.994h2.591C318.625,109.406,319.873,110.377,319.873,112.318z M314.698,114.472h1.046c1.03,0,1.775-0.167,2.235-0.499
			c0.46-0.333,0.69-0.866,0.69-1.6c0-0.661-0.216-1.153-0.649-1.477c-0.433-0.324-1.107-0.485-2.023-0.485h-1.299V114.472z"/>
		<path fill="#FFFFFF" d="M321.965,119.4v-9.994h1.162v8.941h4.409v1.053H321.965z"/>
		<path fill="#FFFFFF" d="M335.514,119.4l-1.244-3.179h-4.006l-1.23,3.179h-1.176l3.951-10.035h0.978l3.931,10.035H335.514z
			 M333.907,115.176l-1.162-3.097c-0.15-0.393-0.305-0.873-0.465-1.442c-0.1,0.438-0.244,0.918-0.431,1.442l-1.176,3.097H333.907z"
			/>
		<path fill="#FFFFFF" d="M342.37,110.302c-1.098,0-1.965,0.365-2.601,1.097s-0.954,1.733-0.954,3.005
			c0,1.308,0.307,2.318,0.919,3.032c0.613,0.713,1.487,1.069,2.622,1.069c0.697,0,1.493-0.125,2.386-0.376v1.019
			c-0.693,0.26-1.547,0.39-2.563,0.39c-1.472,0-2.608-0.446-3.408-1.34s-1.2-2.162-1.2-3.808c0-1.03,0.192-1.933,0.578-2.707
			c0.385-0.775,0.941-1.372,1.668-1.791c0.727-0.42,1.583-0.629,2.567-0.629c1.048,0,1.964,0.191,2.748,0.574l-0.492,0.998
			C343.883,110.479,343.126,110.302,342.37,110.302z"/>
		<path fill="#FFFFFF" d="M352.494,119.4h-5.571v-9.994h5.571v1.032h-4.409v3.22h4.143v1.025h-4.143v3.678h4.409V119.4z"/>
		<path fill="#FFFFFF" d="M363.917,119.4h-5.571v-9.994h5.571v1.032h-4.409v3.22h4.143v1.025h-4.143v3.678h4.409V119.4z"/>
		<path fill="#FFFFFF" d="M372.783,119.4h-1.319l-2.687-4.396l-2.734,4.396h-1.23l3.322-5.223l-3.097-4.771h1.285l2.481,3.958
			l2.502-3.958h1.237l-3.097,4.73L372.783,119.4z"/>
		<path fill="#FFFFFF" d="M380.549,112.318c0,1.012-0.345,1.79-1.036,2.334c-0.69,0.545-1.678,0.817-2.963,0.817h-1.176v3.931
			h-1.162v-9.994h2.591C379.3,109.406,380.549,110.377,380.549,112.318z M375.374,114.472h1.046c1.03,0,1.775-0.167,2.235-0.499
			c0.46-0.333,0.69-0.866,0.69-1.6c0-0.661-0.216-1.153-0.649-1.477c-0.433-0.324-1.107-0.485-2.023-0.485h-1.299V114.472z"/>
		<path fill="#FFFFFF" d="M391.315,114.39c0,1.6-0.404,2.857-1.213,3.773s-1.934,1.374-3.374,1.374c-1.472,0-2.608-0.45-3.408-1.35
			c-0.8-0.9-1.2-2.171-1.2-3.812c0-1.627,0.401-2.889,1.203-3.784s1.941-1.343,3.418-1.343c1.436,0,2.557,0.455,3.363,1.367
			C390.912,111.527,391.315,112.785,391.315,114.39z M383.352,114.39c0,1.354,0.288,2.38,0.865,3.079
			c0.577,0.7,1.414,1.05,2.512,1.05c1.107,0,1.944-0.349,2.509-1.046s0.848-1.725,0.848-3.083c0-1.345-0.281-2.364-0.844-3.06
			c-0.563-0.694-1.396-1.042-2.499-1.042c-1.107,0-1.949,0.35-2.526,1.049C383.64,112.037,383.352,113.054,383.352,114.39z"/>
		<path fill="#FFFFFF" d="M404.769,119.4h-1.162v-4.703h-5.264v4.703h-1.162v-9.994h1.162v4.252h5.264v-4.252h1.162V119.4z"/>
		<path fill="#FFFFFF" d="M413.792,119.4l-1.244-3.179h-4.006l-1.23,3.179h-1.176l3.951-10.035h0.978l3.931,10.035H413.792z
			 M412.186,115.176l-1.162-3.097c-0.15-0.393-0.305-0.873-0.465-1.442c-0.1,0.438-0.244,0.918-0.431,1.442l-1.176,3.097H412.186z"
			/>
		<path fill="#FFFFFF" d="M416.369,119.4v-9.994h1.162v8.941h4.409v1.053H416.369z"/>
		<path fill="#FFFFFF" d="M423.636,119.4v-9.994h1.162v8.941h4.409v1.053H423.636z"/>
	</g>
	<rect x="136.415" y="139.799" fill="#4296D2" width="414.583" height="37"/>
	<g>
		<path fill="#FFFFFF" d="M229.766,152.406h2.823c1.326,0,2.286,0.198,2.878,0.595s0.889,1.022,0.889,1.88
			c0,0.592-0.165,1.081-0.496,1.466c-0.331,0.386-0.812,0.635-1.446,0.749v0.068c1.518,0.26,2.276,1.057,2.276,2.393
			c0,0.894-0.302,1.591-0.906,2.092s-1.448,0.752-2.533,0.752h-3.486V152.406z M230.928,156.686h1.914
			c0.82,0,1.411-0.129,1.771-0.387c0.36-0.257,0.54-0.691,0.54-1.302c0-0.561-0.201-0.965-0.602-1.214
			c-0.401-0.248-1.039-0.372-1.914-0.372h-1.709V156.686z M230.928,157.67v3.739h2.085c0.807,0,1.414-0.156,1.822-0.468
			c0.408-0.312,0.612-0.802,0.612-1.467c0-0.62-0.208-1.076-0.625-1.367c-0.417-0.292-1.052-0.438-1.904-0.438H230.928z"/>
		<path fill="#FFFFFF" d="M246.384,152.406v6.467c0,1.14-0.344,2.035-1.032,2.687s-1.634,0.978-2.837,0.978
			s-2.134-0.328-2.792-0.984s-0.988-1.559-0.988-2.707v-6.439h1.162v6.521c0,0.834,0.228,1.475,0.684,1.921s1.125,0.67,2.01,0.67
			c0.843,0,1.493-0.225,1.948-0.673c0.456-0.449,0.684-1.093,0.684-1.932v-6.508H246.384z"/>
		<path fill="#FFFFFF" d="M254.669,159.741c0,0.88-0.319,1.565-0.957,2.058s-1.504,0.738-2.598,0.738
			c-1.185,0-2.096-0.152-2.734-0.458v-1.121c0.41,0.173,0.857,0.31,1.34,0.41s0.961,0.15,1.436,0.15c0.775,0,1.358-0.147,1.75-0.44
			c0.392-0.295,0.588-0.703,0.588-1.228c0-0.347-0.069-0.63-0.208-0.851c-0.139-0.222-0.372-0.426-0.697-0.612
			c-0.326-0.188-0.821-0.399-1.487-0.636c-0.93-0.333-1.594-0.728-1.993-1.183c-0.399-0.456-0.598-1.051-0.598-1.784
			c0-0.771,0.29-1.384,0.868-1.839c0.579-0.456,1.344-0.684,2.297-0.684c0.994,0,1.907,0.182,2.741,0.547l-0.362,1.012
			c-0.825-0.347-1.627-0.52-2.406-0.52c-0.615,0-1.096,0.132-1.442,0.396c-0.346,0.264-0.52,0.631-0.52,1.101
			c0,0.346,0.064,0.63,0.191,0.851c0.127,0.222,0.343,0.424,0.646,0.608s0.767,0.389,1.391,0.612
			c1.048,0.373,1.77,0.774,2.164,1.203S254.669,159.058,254.669,159.741z"/>
		<path fill="#FFFFFF" d="M256.713,162.4v-9.994h1.162v9.994H256.713z"/>
		<path fill="#FFFFFF" d="M268.423,162.4h-1.326l-5.462-8.388h-0.055c0.073,0.984,0.109,1.887,0.109,2.707v5.681h-1.073v-9.994
			h1.312l5.448,8.354h0.055c-0.009-0.123-0.03-0.519-0.062-1.186c-0.032-0.668-0.043-1.146-0.034-1.433v-5.735h1.087V162.4z"/>
		<path fill="#FFFFFF" d="M276.742,162.4h-5.571v-9.994h5.571v1.032h-4.409v3.22h4.143v1.025h-4.143v3.678h4.409V162.4z"/>
		<path fill="#FFFFFF" d="M284.597,159.741c0,0.88-0.319,1.565-0.957,2.058s-1.504,0.738-2.598,0.738
			c-1.185,0-2.096-0.152-2.734-0.458v-1.121c0.41,0.173,0.857,0.31,1.34,0.41s0.961,0.15,1.436,0.15c0.775,0,1.358-0.147,1.75-0.44
			c0.392-0.295,0.588-0.703,0.588-1.228c0-0.347-0.069-0.63-0.208-0.851c-0.139-0.222-0.372-0.426-0.697-0.612
			c-0.326-0.188-0.821-0.399-1.487-0.636c-0.93-0.333-1.594-0.728-1.993-1.183c-0.399-0.456-0.598-1.051-0.598-1.784
			c0-0.771,0.29-1.384,0.868-1.839c0.579-0.456,1.344-0.684,2.297-0.684c0.994,0,1.907,0.182,2.741,0.547l-0.362,1.012
			c-0.825-0.347-1.627-0.52-2.406-0.52c-0.615,0-1.096,0.132-1.442,0.396c-0.346,0.264-0.52,0.631-0.52,1.101
			c0,0.346,0.064,0.63,0.191,0.851c0.127,0.222,0.343,0.424,0.646,0.608s0.767,0.389,1.391,0.612
			c1.048,0.373,1.77,0.774,2.164,1.203S284.597,159.058,284.597,159.741z"/>
		<path fill="#FFFFFF" d="M292.28,159.741c0,0.88-0.319,1.565-0.957,2.058s-1.504,0.738-2.598,0.738
			c-1.185,0-2.096-0.152-2.734-0.458v-1.121c0.41,0.173,0.857,0.31,1.34,0.41s0.961,0.15,1.436,0.15c0.775,0,1.358-0.147,1.75-0.44
			c0.392-0.295,0.588-0.703,0.588-1.228c0-0.347-0.069-0.63-0.208-0.851c-0.139-0.222-0.372-0.426-0.697-0.612
			c-0.326-0.188-0.821-0.399-1.487-0.636c-0.93-0.333-1.594-0.728-1.993-1.183c-0.399-0.456-0.598-1.051-0.598-1.784
			c0-0.771,0.29-1.384,0.868-1.839c0.579-0.456,1.344-0.684,2.297-0.684c0.994,0,1.907,0.182,2.741,0.547l-0.362,1.012
			c-0.825-0.347-1.627-0.52-2.406-0.52c-0.615,0-1.096,0.132-1.442,0.396c-0.346,0.264-0.52,0.631-0.52,1.101
			c0,0.346,0.064,0.63,0.191,0.851c0.127,0.222,0.343,0.424,0.646,0.608s0.767,0.389,1.391,0.612
			c1.048,0.373,1.77,0.774,2.164,1.203S292.28,159.058,292.28,159.741z"/>
		<path fill="#FFFFFF" d="M303.601,159.741c0,0.88-0.319,1.565-0.957,2.058s-1.504,0.738-2.598,0.738
			c-1.185,0-2.096-0.152-2.734-0.458v-1.121c0.41,0.173,0.857,0.31,1.34,0.41s0.961,0.15,1.436,0.15c0.775,0,1.358-0.147,1.75-0.44
			c0.392-0.295,0.588-0.703,0.588-1.228c0-0.347-0.069-0.63-0.208-0.851c-0.139-0.222-0.372-0.426-0.697-0.612
			c-0.326-0.188-0.821-0.399-1.487-0.636c-0.93-0.333-1.594-0.728-1.993-1.183c-0.399-0.456-0.598-1.051-0.598-1.784
			c0-0.771,0.29-1.384,0.868-1.839c0.579-0.456,1.344-0.684,2.297-0.684c0.994,0,1.907,0.182,2.741,0.547l-0.362,1.012
			c-0.825-0.347-1.627-0.52-2.406-0.52c-0.615,0-1.096,0.132-1.442,0.396c-0.346,0.264-0.52,0.631-0.52,1.101
			c0,0.346,0.064,0.63,0.191,0.851c0.127,0.222,0.343,0.424,0.646,0.608s0.767,0.389,1.391,0.612
			c1.048,0.373,1.77,0.774,2.164,1.203S303.601,159.058,303.601,159.741z"/>
		<path fill="#FFFFFF" d="M311.216,162.4h-5.571v-9.994h5.571v1.032h-4.409v3.22h4.143v1.025h-4.143v3.678h4.409V162.4z"/>
		<path fill="#FFFFFF" d="M319.07,159.741c0,0.88-0.319,1.565-0.957,2.058s-1.504,0.738-2.598,0.738
			c-1.185,0-2.096-0.152-2.734-0.458v-1.121c0.41,0.173,0.857,0.31,1.34,0.41s0.961,0.15,1.436,0.15c0.775,0,1.358-0.147,1.75-0.44
			c0.392-0.295,0.588-0.703,0.588-1.228c0-0.347-0.069-0.63-0.208-0.851c-0.139-0.222-0.372-0.426-0.697-0.612
			c-0.326-0.188-0.821-0.399-1.487-0.636c-0.93-0.333-1.594-0.728-1.993-1.183c-0.399-0.456-0.598-1.051-0.598-1.784
			c0-0.771,0.29-1.384,0.868-1.839c0.579-0.456,1.344-0.684,2.297-0.684c0.994,0,1.907,0.182,2.741,0.547l-0.362,1.012
			c-0.825-0.347-1.627-0.52-2.406-0.52c-0.615,0-1.096,0.132-1.442,0.396c-0.346,0.264-0.52,0.631-0.52,1.101
			c0,0.346,0.064,0.63,0.191,0.851c0.127,0.222,0.343,0.424,0.646,0.608s0.767,0.389,1.391,0.612
			c1.048,0.373,1.77,0.774,2.164,1.203S319.07,159.058,319.07,159.741z"/>
		<path fill="#FFFFFF" d="M326.754,159.741c0,0.88-0.319,1.565-0.957,2.058s-1.504,0.738-2.598,0.738
			c-1.185,0-2.096-0.152-2.734-0.458v-1.121c0.41,0.173,0.857,0.31,1.34,0.41s0.961,0.15,1.436,0.15c0.775,0,1.358-0.147,1.75-0.44
			c0.392-0.295,0.588-0.703,0.588-1.228c0-0.347-0.069-0.63-0.208-0.851c-0.139-0.222-0.372-0.426-0.697-0.612
			c-0.326-0.188-0.821-0.399-1.487-0.636c-0.93-0.333-1.594-0.728-1.993-1.183c-0.399-0.456-0.598-1.051-0.598-1.784
			c0-0.771,0.29-1.384,0.868-1.839c0.579-0.456,1.344-0.684,2.297-0.684c0.994,0,1.907,0.182,2.741,0.547l-0.362,1.012
			c-0.825-0.347-1.627-0.52-2.406-0.52c-0.615,0-1.096,0.132-1.442,0.396c-0.346,0.264-0.52,0.631-0.52,1.101
			c0,0.346,0.064,0.63,0.191,0.851c0.127,0.222,0.343,0.424,0.646,0.608s0.767,0.389,1.391,0.612
			c1.048,0.373,1.77,0.774,2.164,1.203S326.754,159.058,326.754,159.741z"/>
		<path fill="#FFFFFF" d="M328.798,162.4v-9.994h1.162v9.994H328.798z"/>
		<path fill="#FFFFFF" d="M341.376,157.39c0,1.6-0.404,2.857-1.213,3.773s-1.934,1.374-3.374,1.374c-1.472,0-2.608-0.45-3.408-1.35
			c-0.8-0.9-1.2-2.171-1.2-3.812c0-1.627,0.401-2.889,1.203-3.784s1.941-1.343,3.418-1.343c1.436,0,2.557,0.455,3.363,1.367
			C340.973,154.527,341.376,155.785,341.376,157.39z M333.412,157.39c0,1.354,0.288,2.38,0.865,3.079
			c0.577,0.7,1.414,1.05,2.512,1.05c1.107,0,1.944-0.349,2.509-1.046s0.848-1.725,0.848-3.083c0-1.345-0.281-2.364-0.844-3.06
			c-0.563-0.694-1.396-1.042-2.499-1.042c-1.107,0-1.949,0.35-2.526,1.049C333.7,155.037,333.412,156.054,333.412,157.39z"/>
		<path fill="#FFFFFF" d="M351.411,162.4h-1.326l-5.462-8.388h-0.055c0.073,0.984,0.109,1.887,0.109,2.707v5.681h-1.073v-9.994
			h1.312l5.448,8.354h0.055c-0.009-0.123-0.03-0.519-0.062-1.186c-0.032-0.668-0.043-1.146-0.034-1.433v-5.735h1.087V162.4z"/>
		<path fill="#FFFFFF" d="M359.799,159.741c0,0.88-0.319,1.565-0.957,2.058s-1.504,0.738-2.598,0.738
			c-1.185,0-2.096-0.152-2.734-0.458v-1.121c0.41,0.173,0.857,0.31,1.34,0.41s0.961,0.15,1.436,0.15c0.775,0,1.358-0.147,1.75-0.44
			c0.392-0.295,0.588-0.703,0.588-1.228c0-0.347-0.069-0.63-0.208-0.851c-0.139-0.222-0.372-0.426-0.697-0.612
			c-0.326-0.188-0.821-0.399-1.487-0.636c-0.93-0.333-1.594-0.728-1.993-1.183c-0.399-0.456-0.598-1.051-0.598-1.784
			c0-0.771,0.29-1.384,0.868-1.839c0.579-0.456,1.344-0.684,2.297-0.684c0.994,0,1.907,0.182,2.741,0.547l-0.362,1.012
			c-0.825-0.347-1.627-0.52-2.406-0.52c-0.615,0-1.096,0.132-1.442,0.396c-0.346,0.264-0.52,0.631-0.52,1.101
			c0,0.346,0.064,0.63,0.191,0.851c0.127,0.222,0.343,0.424,0.646,0.608s0.767,0.389,1.391,0.612
			c1.048,0.373,1.77,0.774,2.164,1.203S359.799,159.058,359.799,159.741z"/>
		<path fill="#FFFFFF" d="M369.103,152.406l-3.726,9.994h-1.135l3.726-9.994H369.103z"/>
		<path fill="#FFFFFF" d="M382.979,162.4h-1.148l-2.017-6.692c-0.096-0.297-0.203-0.67-0.321-1.121s-0.18-0.723-0.185-0.813
			c-0.1,0.602-0.26,1.26-0.479,1.976l-1.955,6.651h-1.148l-2.659-9.994h1.23l1.579,6.173c0.219,0.866,0.378,1.649,0.479,2.352
			c0.123-0.834,0.305-1.649,0.547-2.447l1.791-6.077h1.23l1.88,6.132c0.219,0.706,0.403,1.504,0.554,2.393
			c0.086-0.647,0.25-1.436,0.492-2.365l1.572-6.159h1.23L382.979,162.4z"/>
		<path fill="#FFFFFF" d="M395.893,157.39c0,1.6-0.404,2.857-1.213,3.773s-1.934,1.374-3.374,1.374c-1.472,0-2.608-0.45-3.408-1.35
			c-0.8-0.9-1.2-2.171-1.2-3.812c0-1.627,0.401-2.889,1.203-3.784s1.941-1.343,3.418-1.343c1.436,0,2.557,0.455,3.363,1.367
			C395.489,154.527,395.893,155.785,395.893,157.39z M387.929,157.39c0,1.354,0.288,2.38,0.865,3.079
			c0.577,0.7,1.414,1.05,2.512,1.05c1.107,0,1.944-0.349,2.509-1.046s0.848-1.725,0.848-3.083c0-1.345-0.281-2.364-0.844-3.06
			c-0.563-0.694-1.396-1.042-2.499-1.042c-1.107,0-1.949,0.35-2.526,1.049C388.217,155.037,387.929,156.054,387.929,157.39z"/>
		<path fill="#FFFFFF" d="M399.283,158.244v4.156h-1.162v-9.994h2.741c1.226,0,2.132,0.234,2.717,0.704
			c0.585,0.469,0.878,1.176,0.878,2.119c0,1.321-0.67,2.215-2.01,2.68l2.714,4.491h-1.374l-2.42-4.156H399.283z M399.283,157.246
			h1.593c0.82,0,1.422-0.163,1.805-0.489c0.383-0.325,0.574-0.814,0.574-1.466c0-0.661-0.195-1.138-0.584-1.429
			c-0.39-0.292-1.015-0.438-1.876-0.438h-1.511V157.246z"/>
		<path fill="#FFFFFF" d="M413.994,162.4h-1.367l-3.644-4.847l-1.046,0.93v3.917h-1.162v-9.994h1.162v4.956l4.532-4.956h1.374
			l-4.02,4.341L413.994,162.4z"/>
		<path fill="#FFFFFF" d="M421.008,159.741c0,0.88-0.319,1.565-0.957,2.058c-0.639,0.492-1.504,0.738-2.598,0.738
			c-1.186,0-2.097-0.152-2.734-0.458v-1.121c0.41,0.173,0.856,0.31,1.34,0.41c0.482,0.101,0.961,0.15,1.436,0.15
			c0.774,0,1.357-0.147,1.75-0.44c0.392-0.295,0.588-0.703,0.588-1.228c0-0.347-0.069-0.63-0.209-0.851
			c-0.139-0.222-0.371-0.426-0.697-0.612c-0.325-0.188-0.821-0.399-1.486-0.636c-0.93-0.333-1.594-0.728-1.993-1.183
			c-0.398-0.456-0.598-1.051-0.598-1.784c0-0.771,0.289-1.384,0.868-1.839c0.578-0.456,1.344-0.684,2.297-0.684
			c0.993,0,1.907,0.182,2.741,0.547l-0.362,1.012c-0.825-0.347-1.627-0.52-2.406-0.52c-0.615,0-1.097,0.132-1.442,0.396
			c-0.347,0.264-0.52,0.631-0.52,1.101c0,0.346,0.063,0.63,0.191,0.851c0.127,0.222,0.343,0.424,0.646,0.608
			c0.304,0.185,0.767,0.389,1.392,0.612c1.048,0.373,1.77,0.774,2.163,1.203C420.811,158.502,421.008,159.058,421.008,159.741z"/>
		<path fill="#FFFFFF" d="M430.64,162.4h-1.162v-4.703h-5.264v4.703h-1.162v-9.994h1.162v4.252h5.264v-4.252h1.162V162.4z"/>
		<path fill="#FFFFFF" d="M442.056,157.39c0,1.6-0.404,2.857-1.214,3.773c-0.809,0.916-1.934,1.374-3.373,1.374
			c-1.473,0-2.608-0.45-3.408-1.35c-0.8-0.9-1.199-2.171-1.199-3.812c0-1.627,0.4-2.889,1.203-3.784
			c0.802-0.896,1.941-1.343,3.418-1.343c1.436,0,2.557,0.455,3.363,1.367C441.652,154.527,442.056,155.785,442.056,157.39z
			 M434.092,157.39c0,1.354,0.288,2.38,0.864,3.079c0.577,0.7,1.414,1.05,2.513,1.05c1.107,0,1.943-0.349,2.509-1.046
			c0.564-0.697,0.848-1.725,0.848-3.083c0-1.345-0.281-2.364-0.845-3.06c-0.562-0.694-1.396-1.042-2.498-1.042
			c-1.107,0-1.949,0.35-2.526,1.049C434.38,155.037,434.092,156.054,434.092,157.39z"/>
		<path fill="#FFFFFF" d="M450.621,155.318c0,1.012-0.346,1.79-1.036,2.334c-0.69,0.545-1.678,0.817-2.963,0.817h-1.176v3.931
			h-1.162v-9.994h2.591C449.372,152.406,450.621,153.377,450.621,155.318z M445.446,157.472h1.046c1.029,0,1.774-0.167,2.235-0.499
			c0.46-0.333,0.69-0.866,0.69-1.6c0-0.661-0.217-1.153-0.649-1.477c-0.434-0.324-1.107-0.485-2.023-0.485h-1.299V157.472z"/>
		<path fill="#FFFFFF" d="M458.353,159.741c0,0.88-0.319,1.565-0.957,2.058c-0.639,0.492-1.504,0.738-2.598,0.738
			c-1.186,0-2.097-0.152-2.734-0.458v-1.121c0.41,0.173,0.856,0.31,1.34,0.41c0.482,0.101,0.961,0.15,1.436,0.15
			c0.774,0,1.357-0.147,1.75-0.44c0.392-0.295,0.588-0.703,0.588-1.228c0-0.347-0.069-0.63-0.209-0.851
			c-0.139-0.222-0.371-0.426-0.697-0.612c-0.325-0.188-0.821-0.399-1.486-0.636c-0.93-0.333-1.594-0.728-1.993-1.183
			c-0.398-0.456-0.598-1.051-0.598-1.784c0-0.771,0.289-1.384,0.868-1.839c0.578-0.456,1.344-0.684,2.297-0.684
			c0.993,0,1.907,0.182,2.741,0.547l-0.362,1.012c-0.825-0.347-1.627-0.52-2.406-0.52c-0.615,0-1.097,0.132-1.442,0.396
			c-0.347,0.264-0.52,0.631-0.52,1.101c0,0.346,0.063,0.63,0.191,0.851c0.127,0.222,0.343,0.424,0.646,0.608
			c0.304,0.185,0.767,0.389,1.392,0.612c1.048,0.373,1.77,0.774,2.163,1.203C458.155,158.502,458.353,159.058,458.353,159.741z"/>
	</g>
	<rect x="134.748" y="182.799" fill="#4296D2" width="554.333" height="37"/>
	<g>
		<path fill="#FFFFFF" d="M259.819,200.308c0,1.649-0.448,2.911-1.343,3.784c-0.896,0.872-2.184,1.309-3.866,1.309h-2.769v-9.994
			h3.062c1.554,0,2.762,0.431,3.623,1.292S259.819,198.763,259.819,200.308z M258.588,200.349c0-1.304-0.327-2.286-0.981-2.946
			s-1.626-0.991-2.916-0.991h-1.688v7.984h1.415c1.385,0,2.427-0.341,3.124-1.022C258.24,202.692,258.588,201.684,258.588,200.349z"
			/>
		<path fill="#FFFFFF" d="M267.619,205.4h-5.571v-9.994h5.571v1.032h-4.409v3.22h4.143v1.025h-4.143v3.678h4.409V205.4z"/>
		<path fill="#FFFFFF" d="M275.542,195.406h1.251l-3.603,9.994h-1.148l-3.582-9.994h1.23l2.297,6.467
			c0.264,0.743,0.474,1.465,0.629,2.167c0.164-0.738,0.378-1.475,0.643-2.208L275.542,195.406z"/>
		<path fill="#FFFFFF" d="M283.738,205.4h-5.571v-9.994h5.571v1.032h-4.409v3.22h4.143v1.025h-4.143v3.678h4.409V205.4z"/>
		<path fill="#FFFFFF" d="M285.953,205.4v-9.994h1.162v8.941h4.409v1.053H285.953z"/>
		<path fill="#FFFFFF" d="M301.894,200.39c0,1.6-0.404,2.857-1.213,3.773s-1.934,1.374-3.374,1.374c-1.472,0-2.608-0.45-3.408-1.35
			c-0.8-0.9-1.2-2.171-1.2-3.812c0-1.627,0.401-2.888,1.203-3.784c0.802-0.895,1.941-1.343,3.418-1.343
			c1.436,0,2.557,0.456,3.363,1.367S301.894,198.785,301.894,200.39z M293.93,200.39c0,1.354,0.288,2.38,0.865,3.079
			c0.577,0.7,1.414,1.05,2.512,1.05c1.107,0,1.944-0.349,2.509-1.046s0.848-1.725,0.848-3.083c0-1.345-0.281-2.364-0.844-3.06
			c-0.563-0.694-1.396-1.042-2.499-1.042c-1.107,0-1.949,0.35-2.526,1.05C294.218,198.037,293.93,199.055,293.93,200.39z"/>
		<path fill="#FFFFFF" d="M310.459,198.318c0,1.012-0.345,1.79-1.036,2.334c-0.69,0.545-1.678,0.817-2.963,0.817h-1.176v3.931
			h-1.162v-9.994h2.591C309.211,195.406,310.459,196.377,310.459,198.318z M305.285,200.472h1.046c1.03,0,1.775-0.167,2.235-0.499
			s0.69-0.865,0.69-1.6c0-0.66-0.216-1.152-0.649-1.477s-1.107-0.485-2.023-0.485h-1.299V200.472z"/>
		<path fill="#FFFFFF" d="M318.123,205.4h-5.571v-9.994h5.571v1.032h-4.409v3.22h4.143v1.025h-4.143v3.678h4.409V205.4z"/>
		<path fill="#FFFFFF" d="M321.5,201.244v4.156h-1.162v-9.994h2.741c1.226,0,2.132,0.234,2.717,0.704s0.878,1.176,0.878,2.119
			c0,1.321-0.67,2.215-2.01,2.68l2.714,4.491h-1.374l-2.42-4.156H321.5z M321.5,200.246h1.593c0.82,0,1.422-0.163,1.805-0.488
			c0.383-0.326,0.574-0.814,0.574-1.467c0-0.66-0.195-1.137-0.584-1.429s-1.015-0.438-1.876-0.438H321.5V200.246z"/>
		<path fill="#FFFFFF" d="M338.911,205.4l-1.244-3.179h-4.006l-1.23,3.179h-1.176l3.951-10.035h0.978l3.931,10.035H338.911z
			 M337.304,201.176l-1.162-3.097c-0.15-0.392-0.305-0.872-0.465-1.442c-0.1,0.438-0.244,0.918-0.431,1.442l-1.176,3.097H337.304z"
			/>
		<path fill="#FFFFFF" d="M349.294,205.4h-1.326l-5.462-8.388h-0.055c0.073,0.984,0.109,1.887,0.109,2.707v5.681h-1.073v-9.994
			h1.312l5.448,8.354h0.055c-0.009-0.123-0.03-0.519-0.062-1.186c-0.032-0.668-0.043-1.146-0.034-1.433v-5.735h1.087V205.4z"/>
		<path fill="#FFFFFF" d="M360.02,200.308c0,1.649-0.448,2.911-1.343,3.784c-0.896,0.872-2.184,1.309-3.866,1.309h-2.769v-9.994
			h3.062c1.554,0,2.762,0.431,3.623,1.292S360.02,198.763,360.02,200.308z M358.79,200.349c0-1.304-0.327-2.286-0.981-2.946
			s-1.626-0.991-2.916-0.991h-1.688v7.984h1.415c1.385,0,2.427-0.341,3.124-1.022C358.441,202.692,358.79,201.684,358.79,200.349z"
			/>
		<path fill="#FFFFFF" d="M374.56,200.39c0,1.6-0.404,2.857-1.213,3.773s-1.934,1.374-3.374,1.374c-1.472,0-2.608-0.45-3.408-1.35
			c-0.8-0.9-1.2-2.171-1.2-3.812c0-1.627,0.401-2.888,1.203-3.784c0.802-0.895,1.941-1.343,3.418-1.343
			c1.436,0,2.557,0.456,3.363,1.367S374.56,198.785,374.56,200.39z M366.596,200.39c0,1.354,0.288,2.38,0.865,3.079
			c0.577,0.7,1.414,1.05,2.512,1.05c1.107,0,1.944-0.349,2.509-1.046s0.848-1.725,0.848-3.083c0-1.345-0.281-2.364-0.844-3.06
			c-0.563-0.694-1.396-1.042-2.499-1.042c-1.107,0-1.949,0.35-2.526,1.05C366.884,198.037,366.596,199.055,366.596,200.39z"/>
		<path fill="#FFFFFF" d="M383.125,198.318c0,1.012-0.345,1.79-1.036,2.334c-0.69,0.545-1.678,0.817-2.963,0.817h-1.176v3.931
			h-1.162v-9.994h2.591C381.877,195.406,383.125,196.377,383.125,198.318z M377.951,200.472h1.046c1.03,0,1.775-0.167,2.235-0.499
			s0.69-0.865,0.69-1.6c0-0.66-0.216-1.152-0.649-1.477s-1.107-0.485-2.023-0.485h-1.299V200.472z"/>
		<path fill="#FFFFFF" d="M390.789,205.4h-5.571v-9.994h5.571v1.032h-4.409v3.22h4.143v1.025h-4.143v3.678h4.409V205.4z"/>
		<path fill="#FFFFFF" d="M394.166,201.244v4.156h-1.162v-9.994h2.741c1.226,0,2.132,0.234,2.717,0.704s0.878,1.176,0.878,2.119
			c0,1.321-0.67,2.215-2.01,2.68l2.714,4.491h-1.374l-2.42-4.156H394.166z M394.166,200.246h1.593c0.82,0,1.422-0.163,1.805-0.488
			c0.383-0.326,0.574-0.814,0.574-1.467c0-0.66-0.195-1.137-0.584-1.429s-1.015-0.438-1.876-0.438h-1.511V200.246z"/>
		<path fill="#FFFFFF" d="M407.94,205.4l-1.244-3.179h-4.006l-1.23,3.179h-1.176l3.951-10.035h0.978l3.931,10.035H407.94z
			 M406.333,201.176l-1.162-3.097c-0.15-0.392-0.305-0.872-0.465-1.442c-0.1,0.438-0.244,0.918-0.431,1.442l-1.176,3.097H406.333z"
			/>
		<path fill="#FFFFFF" d="M413.593,205.4h-1.162v-8.962h-3.165v-1.032h7.493v1.032h-3.166V205.4z"/>
		<path fill="#FFFFFF" d="M426.938,200.39c0,1.6-0.404,2.857-1.214,3.773c-0.809,0.916-1.934,1.374-3.373,1.374
			c-1.473,0-2.608-0.45-3.408-1.35c-0.8-0.9-1.199-2.171-1.199-3.812c0-1.627,0.4-2.888,1.203-3.784
			c0.802-0.895,1.941-1.343,3.418-1.343c1.436,0,2.557,0.456,3.363,1.367S426.938,198.785,426.938,200.39z M418.974,200.39
			c0,1.354,0.288,2.38,0.864,3.079c0.577,0.7,1.414,1.05,2.513,1.05c1.107,0,1.943-0.349,2.509-1.046
			c0.564-0.697,0.848-1.725,0.848-3.083c0-1.345-0.281-2.364-0.845-3.06c-0.562-0.694-1.396-1.042-2.498-1.042
			c-1.107,0-1.949,0.35-2.526,1.05C419.262,198.037,418.974,199.055,418.974,200.39z"/>
		<path fill="#FFFFFF" d="M430.328,201.244v4.156h-1.162v-9.994h2.741c1.226,0,2.132,0.234,2.717,0.704
			c0.586,0.47,0.879,1.176,0.879,2.119c0,1.321-0.67,2.215-2.01,2.68l2.714,4.491h-1.374l-2.42-4.156H430.328z M430.328,200.246
			h1.593c0.82,0,1.422-0.163,1.805-0.488c0.383-0.326,0.574-0.814,0.574-1.467c0-0.66-0.195-1.137-0.585-1.429
			s-1.015-0.438-1.876-0.438h-1.511V200.246z"/>
		<path fill="#FFFFFF" d="M450.18,205.4h-1.148l-2.017-6.692c-0.096-0.296-0.203-0.67-0.321-1.121
			c-0.119-0.451-0.181-0.722-0.185-0.813c-0.101,0.602-0.26,1.26-0.479,1.976l-1.955,6.651h-1.148l-2.659-9.994h1.23l1.579,6.173
			c0.219,0.866,0.378,1.649,0.479,2.352c0.123-0.834,0.305-1.649,0.547-2.447l1.791-6.077h1.23l1.88,6.132
			c0.219,0.706,0.403,1.504,0.554,2.393c0.086-0.647,0.25-1.436,0.492-2.365l1.572-6.159h1.23L450.18,205.4z"/>
		<path fill="#FFFFFF" d="M463.093,200.39c0,1.6-0.404,2.857-1.214,3.773c-0.809,0.916-1.934,1.374-3.373,1.374
			c-1.473,0-2.608-0.45-3.408-1.35c-0.8-0.9-1.199-2.171-1.199-3.812c0-1.627,0.4-2.888,1.203-3.784
			c0.802-0.895,1.941-1.343,3.418-1.343c1.436,0,2.557,0.456,3.363,1.367S463.093,198.785,463.093,200.39z M455.129,200.39
			c0,1.354,0.288,2.38,0.864,3.079c0.577,0.7,1.414,1.05,2.513,1.05c1.107,0,1.943-0.349,2.509-1.046
			c0.564-0.697,0.848-1.725,0.848-3.083c0-1.345-0.281-2.364-0.845-3.06c-0.562-0.694-1.396-1.042-2.498-1.042
			c-1.107,0-1.949,0.35-2.526,1.05C455.417,198.037,455.129,199.055,455.129,200.39z"/>
		<path fill="#FFFFFF" d="M466.483,201.244v4.156h-1.162v-9.994h2.741c1.226,0,2.132,0.234,2.717,0.704
			c0.586,0.47,0.879,1.176,0.879,2.119c0,1.321-0.67,2.215-2.01,2.68l2.714,4.491h-1.374l-2.42-4.156H466.483z M466.483,200.246
			h1.593c0.82,0,1.422-0.163,1.805-0.488c0.383-0.326,0.574-0.814,0.574-1.467c0-0.66-0.195-1.137-0.585-1.429
			s-1.015-0.438-1.876-0.438h-1.511V200.246z"/>
		<path fill="#FFFFFF" d="M481.194,205.4h-1.367l-3.644-4.847l-1.046,0.93v3.917h-1.162v-9.994h1.162v4.956l4.532-4.956h1.374
			l-4.02,4.341L481.194,205.4z"/>
		<path fill="#FFFFFF" d="M482.568,205.4v-9.994h1.162v9.994H482.568z"/>
		<path fill="#FFFFFF" d="M494.278,205.4h-1.326l-5.462-8.388h-0.055c0.072,0.984,0.109,1.887,0.109,2.707v5.681h-1.073v-9.994
			h1.312l5.448,8.354h0.055c-0.01-0.123-0.03-0.519-0.062-1.186c-0.032-0.668-0.044-1.146-0.034-1.433v-5.735h1.087V205.4z"/>
		<path fill="#FFFFFF" d="M501.422,200.164h3.397v4.86c-0.529,0.169-1.066,0.296-1.613,0.383s-1.181,0.13-1.9,0.13
			c-1.514,0-2.691-0.45-3.534-1.35c-0.844-0.9-1.265-2.162-1.265-3.784c0-1.039,0.208-1.949,0.625-2.731
			c0.417-0.781,1.018-1.378,1.802-1.791c0.783-0.412,1.702-0.618,2.755-0.618c1.066,0,2.06,0.196,2.98,0.588l-0.451,1.025
			c-0.902-0.383-1.771-0.574-2.604-0.574c-1.217,0-2.167,0.362-2.851,1.087s-1.025,1.729-1.025,3.015
			c0,1.349,0.329,2.372,0.987,3.069c0.659,0.697,1.626,1.046,2.902,1.046c0.692,0,1.369-0.08,2.03-0.239v-3.076h-2.235V200.164z"/>
		<path fill="#FFFFFF" d="M516.495,202.741c0,0.88-0.319,1.565-0.957,2.058c-0.639,0.492-1.504,0.738-2.598,0.738
			c-1.186,0-2.097-0.152-2.734-0.458v-1.121c0.41,0.173,0.856,0.31,1.34,0.41c0.482,0.101,0.961,0.15,1.436,0.15
			c0.774,0,1.357-0.147,1.75-0.44c0.392-0.295,0.588-0.703,0.588-1.228c0-0.347-0.069-0.63-0.209-0.851
			c-0.139-0.222-0.371-0.426-0.697-0.612c-0.325-0.187-0.821-0.399-1.486-0.636c-0.93-0.332-1.594-0.727-1.993-1.183
			c-0.398-0.456-0.598-1.05-0.598-1.784c0-0.77,0.289-1.383,0.868-1.839c0.578-0.456,1.344-0.684,2.297-0.684
			c0.993,0,1.907,0.183,2.741,0.547l-0.362,1.012c-0.825-0.347-1.627-0.52-2.406-0.52c-0.615,0-1.097,0.132-1.442,0.396
			c-0.347,0.265-0.52,0.632-0.52,1.101c0,0.346,0.063,0.63,0.191,0.852c0.127,0.221,0.343,0.424,0.646,0.607
			c0.304,0.186,0.767,0.389,1.392,0.612c1.048,0.374,1.77,0.774,2.163,1.203C516.298,201.502,516.495,202.058,516.495,202.741z"/>
		<path fill="#FFFFFF" d="M524.11,205.4h-5.571v-9.994h5.571v1.032h-4.409v3.22h4.143v1.025h-4.143v3.678h4.409V205.4z"/>
		<path fill="#FFFFFF" d="M531.965,202.741c0,0.88-0.319,1.565-0.957,2.058c-0.639,0.492-1.504,0.738-2.598,0.738
			c-1.186,0-2.097-0.152-2.734-0.458v-1.121c0.41,0.173,0.856,0.31,1.34,0.41c0.482,0.101,0.961,0.15,1.436,0.15
			c0.774,0,1.357-0.147,1.75-0.44c0.392-0.295,0.588-0.703,0.588-1.228c0-0.347-0.069-0.63-0.209-0.851
			c-0.139-0.222-0.371-0.426-0.697-0.612c-0.325-0.187-0.821-0.399-1.486-0.636c-0.93-0.332-1.594-0.727-1.993-1.183
			c-0.398-0.456-0.598-1.05-0.598-1.784c0-0.77,0.289-1.383,0.868-1.839c0.578-0.456,1.344-0.684,2.297-0.684
			c0.993,0,1.907,0.183,2.741,0.547l-0.362,1.012c-0.825-0.347-1.627-0.52-2.406-0.52c-0.615,0-1.097,0.132-1.442,0.396
			c-0.347,0.265-0.52,0.632-0.52,1.101c0,0.346,0.063,0.63,0.191,0.852c0.127,0.221,0.343,0.424,0.646,0.607
			c0.304,0.186,0.767,0.389,1.392,0.612c1.048,0.374,1.77,0.774,2.163,1.203C531.768,201.502,531.965,202.058,531.965,202.741z"/>
		<path fill="#FFFFFF" d="M539.648,202.741c0,0.88-0.319,1.565-0.957,2.058c-0.639,0.492-1.504,0.738-2.598,0.738
			c-1.186,0-2.097-0.152-2.734-0.458v-1.121c0.41,0.173,0.856,0.31,1.34,0.41c0.482,0.101,0.961,0.15,1.436,0.15
			c0.774,0,1.357-0.147,1.75-0.44c0.392-0.295,0.588-0.703,0.588-1.228c0-0.347-0.069-0.63-0.209-0.851
			c-0.139-0.222-0.371-0.426-0.697-0.612c-0.325-0.187-0.821-0.399-1.486-0.636c-0.93-0.332-1.594-0.727-1.993-1.183
			c-0.398-0.456-0.598-1.05-0.598-1.784c0-0.77,0.289-1.383,0.868-1.839c0.578-0.456,1.344-0.684,2.297-0.684
			c0.993,0,1.907,0.183,2.741,0.547l-0.362,1.012c-0.825-0.347-1.627-0.52-2.406-0.52c-0.615,0-1.097,0.132-1.442,0.396
			c-0.347,0.265-0.52,0.632-0.52,1.101c0,0.346,0.063,0.63,0.191,0.852c0.127,0.221,0.343,0.424,0.646,0.607
			c0.304,0.186,0.767,0.389,1.392,0.612c1.048,0.374,1.77,0.774,2.163,1.203C539.451,201.502,539.648,202.058,539.648,202.741z"/>
		<path fill="#FFFFFF" d="M541.692,205.4v-9.994h1.162v9.994H541.692z"/>
		<path fill="#FFFFFF" d="M554.271,200.39c0,1.6-0.404,2.857-1.214,3.773c-0.809,0.916-1.934,1.374-3.373,1.374
			c-1.473,0-2.608-0.45-3.408-1.35c-0.8-0.9-1.199-2.171-1.199-3.812c0-1.627,0.4-2.888,1.203-3.784
			c0.802-0.895,1.941-1.343,3.418-1.343c1.436,0,2.557,0.456,3.363,1.367S554.271,198.785,554.271,200.39z M546.307,200.39
			c0,1.354,0.288,2.38,0.864,3.079c0.577,0.7,1.414,1.05,2.513,1.05c1.107,0,1.943-0.349,2.509-1.046
			c0.564-0.697,0.848-1.725,0.848-3.083c0-1.345-0.281-2.364-0.845-3.06c-0.562-0.694-1.396-1.042-2.498-1.042
			c-1.107,0-1.949,0.35-2.526,1.05C546.595,198.037,546.307,199.055,546.307,200.39z"/>
		<path fill="#FFFFFF" d="M564.306,205.4h-1.326l-5.462-8.388h-0.055c0.072,0.984,0.109,1.887,0.109,2.707v5.681h-1.073v-9.994
			h1.312l5.448,8.354h0.055c-0.01-0.123-0.03-0.519-0.062-1.186c-0.032-0.668-0.044-1.146-0.034-1.433v-5.735h1.087V205.4z"/>
		<path fill="#FFFFFF" d="M572.693,202.741c0,0.88-0.319,1.565-0.957,2.058c-0.639,0.492-1.504,0.738-2.598,0.738
			c-1.186,0-2.097-0.152-2.734-0.458v-1.121c0.41,0.173,0.856,0.31,1.34,0.41c0.482,0.101,0.961,0.15,1.436,0.15
			c0.774,0,1.357-0.147,1.75-0.44c0.392-0.295,0.588-0.703,0.588-1.228c0-0.347-0.069-0.63-0.209-0.851
			c-0.139-0.222-0.371-0.426-0.697-0.612c-0.325-0.187-0.821-0.399-1.486-0.636c-0.93-0.332-1.594-0.727-1.993-1.183
			c-0.398-0.456-0.598-1.05-0.598-1.784c0-0.77,0.289-1.383,0.868-1.839c0.578-0.456,1.344-0.684,2.297-0.684
			c0.993,0,1.907,0.183,2.741,0.547l-0.362,1.012c-0.825-0.347-1.627-0.52-2.406-0.52c-0.615,0-1.097,0.132-1.442,0.396
			c-0.347,0.265-0.52,0.632-0.52,1.101c0,0.346,0.063,0.63,0.191,0.852c0.127,0.221,0.343,0.424,0.646,0.607
			c0.304,0.186,0.767,0.389,1.392,0.612c1.048,0.374,1.77,0.774,2.163,1.203C572.496,201.502,572.693,202.058,572.693,202.741z"/>
	</g>
	<rect x="28.918" y="53.799" fill="#CF2D27" width="100.997" height="166"/>
	<g>
		<path fill="#FFFFFF" d="M74.965,177.698v2.085h-9.994v-5.729h1.736v3.644h2.577v-3.391h1.729v3.391H74.965z"/>
		<path fill="#FFFFFF" d="M64.971,163.965h6.467c0.738,0,1.386,0.165,1.941,0.496c0.556,0.33,0.982,0.807,1.278,1.432
			s0.444,1.363,0.444,2.215c0,1.285-0.329,2.283-0.988,2.994c-0.658,0.711-1.56,1.066-2.703,1.066h-6.439v-2.112h6.118
			c0.771,0,1.335-0.155,1.695-0.465s0.54-0.823,0.54-1.538c0-0.693-0.182-1.195-0.543-1.508c-0.363-0.312-0.932-0.468-1.706-0.468
			h-6.104V163.965z"/>
		<path fill="#FFFFFF" d="M74.965,161.518h-9.994v-2.119h8.244v-4.054h1.75V161.518z"/>
		<path fill="#FFFFFF" d="M74.965,153.608h-9.994v-2.119h8.244v-4.054h1.75V153.608z"/>
		<path fill="#FFFFFF" d="M74.965,135.944l-2.379,0.725v3.644l2.379,0.725v2.283l-10.035-3.527v-2.591l10.035-3.541V135.944z
			 M70.809,137.175c-2.156,0.67-3.375,1.047-3.657,1.132c-0.283,0.084-0.506,0.145-0.67,0.181c0.583,0.15,2.026,0.581,4.327,1.292
			V137.175z"/>
		<path fill="#FFFFFF" d="M66.591,128.158c0,0.797,0.3,1.415,0.899,1.853s1.435,0.656,2.505,0.656c2.229,0,3.343-0.837,3.343-2.509
			c0-0.701-0.176-1.552-0.526-2.55h1.777c0.342,0.82,0.513,1.736,0.513,2.748c0,1.454-0.441,2.565-1.322,3.336
			c-0.883,0.771-2.148,1.155-3.798,1.155c-1.039,0-1.949-0.189-2.731-0.567s-1.381-0.922-1.798-1.63
			c-0.417-0.709-0.625-1.539-0.625-2.492c0-0.971,0.235-1.945,0.704-2.926l1.723,0.684c-0.178,0.373-0.333,0.75-0.465,1.128
			S66.591,127.793,66.591,128.158z"/>
		<path fill="#FFFFFF" d="M66.591,119.237c0,0.798,0.3,1.415,0.899,1.853s1.435,0.656,2.505,0.656c2.229,0,3.343-0.836,3.343-2.509
			c0-0.702-0.176-1.552-0.526-2.55h1.777c0.342,0.82,0.513,1.736,0.513,2.748c0,1.453-0.441,2.566-1.322,3.336
			c-0.883,0.77-2.148,1.155-3.798,1.155c-1.039,0-1.949-0.188-2.731-0.567s-1.381-0.922-1.798-1.631
			c-0.417-0.708-0.625-1.539-0.625-2.491c0-0.971,0.235-1.946,0.704-2.926l1.723,0.684c-0.178,0.374-0.333,0.749-0.465,1.128
			S66.591,118.873,66.591,119.237z"/>
		<path fill="#FFFFFF" d="M74.965,108.806v5.756h-9.994v-5.756h1.736v3.637h2.194v-3.384h1.736v3.384h2.577v-3.637H74.965z"/>
		<path fill="#FFFFFF" d="M72.189,100.821c0.902,0,1.613,0.325,2.133,0.974c0.52,0.65,0.779,1.553,0.779,2.711
			c0,1.066-0.2,2.01-0.602,2.83h-1.969c0.301-0.674,0.513-1.245,0.636-1.713c0.123-0.467,0.185-0.895,0.185-1.281
			c0-0.465-0.089-0.821-0.267-1.07c-0.178-0.248-0.442-0.372-0.793-0.372c-0.196,0-0.37,0.055-0.522,0.164
			c-0.153,0.109-0.3,0.271-0.441,0.481c-0.142,0.213-0.367,0.645-0.677,1.296c-0.287,0.61-0.563,1.069-0.827,1.374
			s-0.572,0.549-0.923,0.731s-0.761,0.273-1.23,0.273c-0.884,0-1.579-0.3-2.085-0.899c-0.506-0.599-0.759-1.428-0.759-2.484
			c0-0.52,0.062-1.016,0.185-1.486c0.123-0.473,0.296-0.965,0.52-1.48l1.647,0.684c-0.219,0.533-0.372,0.975-0.458,1.322
			c-0.086,0.35-0.13,0.691-0.13,1.029c0,0.4,0.093,0.709,0.28,0.923s0.431,0.321,0.731,0.321c0.187,0,0.35-0.043,0.489-0.13
			s0.273-0.225,0.403-0.413c0.13-0.189,0.363-0.637,0.701-1.344c0.447-0.934,0.895-1.574,1.343-1.921S71.538,100.821,72.189,100.821
			z"/>
		<path fill="#FFFFFF" d="M72.189,93.11c0.902,0,1.613,0.325,2.133,0.974c0.52,0.65,0.779,1.553,0.779,2.711
			c0,1.066-0.2,2.01-0.602,2.83h-1.969c0.301-0.674,0.513-1.245,0.636-1.713c0.123-0.467,0.185-0.895,0.185-1.281
			c0-0.465-0.089-0.821-0.267-1.07c-0.178-0.248-0.442-0.372-0.793-0.372c-0.196,0-0.37,0.055-0.522,0.164
			c-0.153,0.109-0.3,0.271-0.441,0.481c-0.142,0.213-0.367,0.645-0.677,1.296c-0.287,0.61-0.563,1.069-0.827,1.374
			s-0.572,0.549-0.923,0.731s-0.761,0.273-1.23,0.273c-0.884,0-1.579-0.3-2.085-0.899c-0.506-0.599-0.759-1.428-0.759-2.484
			c0-0.52,0.062-1.016,0.185-1.486c0.123-0.473,0.296-0.965,0.52-1.48l1.647,0.684c-0.219,0.533-0.372,0.975-0.458,1.322
			c-0.086,0.35-0.13,0.691-0.13,1.029c0,0.4,0.093,0.709,0.28,0.923s0.431,0.321,0.731,0.321c0.187,0,0.35-0.043,0.489-0.13
			s0.273-0.225,0.403-0.413c0.13-0.189,0.363-0.637,0.701-1.344c0.447-0.934,0.895-1.574,1.343-1.921S71.538,93.11,72.189,93.11z"/>
		<path fill="#FFFFFF" d="M84.888,145.572c1.075,0,1.898,0.336,2.468,1.009s0.854,1.628,0.854,2.868v0.908h3.555v2.119h-9.994
			v-3.191c0-1.213,0.261-2.135,0.783-2.766C83.075,145.889,83.854,145.572,84.888,145.572z M86.474,150.357v-0.697
			c0-0.651-0.129-1.139-0.387-1.463c-0.257-0.323-0.632-0.484-1.124-0.484c-0.497,0-0.863,0.135-1.101,0.406
			s-0.355,0.696-0.355,1.275v0.963H86.474z"/>
		<path fill="#FFFFFF" d="M91.765,137.568l-2.379,0.725v3.643l2.379,0.725v2.283l-10.035-3.527v-2.59l10.035-3.541V137.568z
			 M87.608,138.799c-2.155,0.67-3.375,1.047-3.657,1.131s-0.506,0.145-0.67,0.182c0.583,0.15,2.025,0.58,4.327,1.291V138.799z"/>
		<path fill="#FFFFFF" d="M88.989,128.127c0.902,0,1.613,0.325,2.133,0.975s0.779,1.553,0.779,2.711c0,1.066-0.2,2.01-0.602,2.83
			h-1.969c0.301-0.675,0.513-1.246,0.636-1.713s0.185-0.895,0.185-1.281c0-0.465-0.089-0.822-0.267-1.07s-0.442-0.373-0.793-0.373
			c-0.196,0-0.37,0.055-0.522,0.164c-0.153,0.109-0.3,0.271-0.441,0.482s-0.367,0.644-0.677,1.295
			c-0.287,0.611-0.562,1.069-0.827,1.375c-0.265,0.305-0.572,0.549-0.923,0.73c-0.351,0.183-0.761,0.273-1.23,0.273
			c-0.884,0-1.579-0.299-2.085-0.898s-0.759-1.428-0.759-2.484c0-0.52,0.062-1.016,0.185-1.487s0.296-0.965,0.52-1.479l1.647,0.684
			c-0.219,0.533-0.371,0.974-0.458,1.322s-0.13,0.691-0.13,1.029c0,0.4,0.094,0.708,0.28,0.922c0.187,0.215,0.431,0.322,0.731,0.322
			c0.187,0,0.35-0.044,0.489-0.131c0.139-0.086,0.273-0.225,0.402-0.413c0.131-0.188,0.364-0.637,0.701-1.343
			c0.446-0.935,0.895-1.575,1.344-1.922C87.787,128.301,88.338,128.127,88.989,128.127z"/>
		<path fill="#FFFFFF" d="M88.989,120.416c0.902,0,1.613,0.325,2.133,0.975s0.779,1.553,0.779,2.711c0,1.066-0.2,2.01-0.602,2.83
			h-1.969c0.301-0.675,0.513-1.246,0.636-1.713s0.185-0.895,0.185-1.281c0-0.465-0.089-0.822-0.267-1.07s-0.442-0.373-0.793-0.373
			c-0.196,0-0.37,0.055-0.522,0.164c-0.153,0.109-0.3,0.271-0.441,0.482s-0.367,0.644-0.677,1.295
			c-0.287,0.611-0.562,1.069-0.827,1.375c-0.265,0.305-0.572,0.549-0.923,0.73c-0.351,0.183-0.761,0.273-1.23,0.273
			c-0.884,0-1.579-0.299-2.085-0.898s-0.759-1.428-0.759-2.484c0-0.52,0.062-1.016,0.185-1.487s0.296-0.965,0.52-1.479l1.647,0.684
			c-0.219,0.533-0.371,0.974-0.458,1.322s-0.13,0.691-0.13,1.029c0,0.4,0.094,0.708,0.28,0.922c0.187,0.215,0.431,0.322,0.731,0.322
			c0.187,0,0.35-0.044,0.489-0.131c0.139-0.086,0.273-0.225,0.402-0.413c0.131-0.188,0.364-0.637,0.701-1.343
			c0.446-0.935,0.895-1.575,1.344-1.922C87.787,120.59,88.338,120.416,88.989,120.416z"/>
	</g>
	<g>
		<path fill="#2A4F68" d="M198.144,32.799h-1.162v-8.962h-3.165v-1.032h7.492v1.032h-3.165V32.799z"/>
		<path fill="#2A4F68" d="M203.708,25.307v4.86c0,0.61,0.139,1.066,0.417,1.367s0.713,0.451,1.306,0.451
			c0.784,0,1.357-0.214,1.719-0.643s0.543-1.128,0.543-2.099v-3.938h1.135v7.492h-0.937l-0.164-1.005h-0.062
			c-0.232,0.369-0.555,0.651-0.967,0.848s-0.883,0.294-1.412,0.294c-0.912,0-1.594-0.217-2.047-0.649s-0.68-1.126-0.68-2.078v-4.901
			H203.708z"/>
		<path fill="#2A4F68" d="M214.4,32.936c-1.107,0-1.981-0.337-2.622-1.012s-0.96-1.611-0.96-2.81c0-1.208,0.297-2.167,0.892-2.878
			s1.394-1.066,2.396-1.066c0.939,0,1.682,0.309,2.229,0.926c0.547,0.618,0.82,1.433,0.82,2.444v0.718h-5.161
			c0.023,0.88,0.245,1.547,0.667,2.003s1.015,0.684,1.781,0.684c0.807,0,1.604-0.169,2.393-0.506v1.012
			c-0.401,0.173-0.78,0.298-1.138,0.372C215.337,32.898,214.906,32.936,214.4,32.936z M214.092,26.12
			c-0.602,0-1.081,0.196-1.439,0.588s-0.568,0.935-0.632,1.627h3.917c0-0.716-0.16-1.264-0.479-1.644
			C215.141,26.311,214.685,26.12,214.092,26.12z"/>
	</g>
	<g>
		<path fill="#2A4F68" d="M339.273,32.799h-1.148l-2.017-6.692c-0.096-0.296-0.203-0.67-0.321-1.121s-0.18-0.723-0.185-0.813
			c-0.1,0.602-0.26,1.26-0.479,1.976l-1.955,6.651h-1.148l-2.659-9.994h1.23l1.579,6.173c0.219,0.866,0.378,1.649,0.479,2.352
			c0.123-0.834,0.305-1.649,0.547-2.447l1.791-6.077h1.23l1.88,6.132c0.219,0.706,0.403,1.504,0.554,2.393
			c0.086-0.647,0.25-1.436,0.492-2.365l1.572-6.159h1.23L339.273,32.799z"/>
		<path fill="#2A4F68" d="M346.505,32.936c-1.107,0-1.981-0.337-2.622-1.012s-0.96-1.611-0.96-2.81c0-1.208,0.297-2.167,0.892-2.878
			s1.394-1.066,2.396-1.066c0.939,0,1.682,0.309,2.229,0.926c0.547,0.618,0.82,1.433,0.82,2.444v0.718h-5.161
			c0.023,0.88,0.245,1.547,0.667,2.003s1.015,0.684,1.781,0.684c0.807,0,1.604-0.169,2.393-0.506v1.012
			c-0.401,0.173-0.78,0.298-1.138,0.372C347.443,32.898,347.011,32.936,346.505,32.936z M346.198,26.12
			c-0.602,0-1.081,0.196-1.439,0.588s-0.568,0.935-0.632,1.627h3.917c0-0.716-0.16-1.264-0.479-1.644
			C347.246,26.311,346.79,26.12,346.198,26.12z"/>
		<path fill="#2A4F68" d="M356.294,31.794h-0.062c-0.524,0.761-1.308,1.142-2.352,1.142c-0.98,0-1.742-0.335-2.287-1.005
			s-0.817-1.622-0.817-2.857s0.273-2.194,0.82-2.878s1.308-1.025,2.283-1.025c1.016,0,1.795,0.369,2.338,1.107h0.089l-0.048-0.54
			l-0.027-0.526v-3.049h1.135v10.637h-0.923L356.294,31.794z M354.025,31.985c0.775,0,1.336-0.211,1.685-0.632
			c0.349-0.422,0.523-1.103,0.523-2.041v-0.239c0-1.062-0.177-1.819-0.53-2.272c-0.353-0.454-0.917-0.681-1.692-0.681
			c-0.666,0-1.175,0.259-1.528,0.776c-0.353,0.517-0.53,1.247-0.53,2.19c0,0.957,0.175,1.68,0.526,2.167
			S353.346,31.985,354.025,31.985z"/>
	</g>
	<g>
		<path fill="#2A4F68" d="M473.941,32.799h-1.162v-8.962h-3.165v-1.032h7.492v1.032h-3.165V32.799z"/>
		<path fill="#2A4F68" d="M483.566,32.799v-4.847c0-0.61-0.14-1.066-0.417-1.367c-0.278-0.301-0.714-0.451-1.306-0.451
			c-0.789,0-1.364,0.214-1.727,0.643s-0.543,1.13-0.543,2.105v3.917h-1.135V22.162h1.135v3.22c0,0.388-0.019,0.709-0.055,0.964
			h0.068c0.223-0.36,0.541-0.644,0.953-0.852c0.413-0.207,0.883-0.311,1.412-0.311c0.916,0,1.603,0.218,2.061,0.652
			c0.458,0.436,0.688,1.127,0.688,2.075v4.888H483.566z"/>
		<path fill="#2A4F68" d="M488.099,25.307v4.86c0,0.61,0.139,1.066,0.417,1.367c0.277,0.301,0.713,0.451,1.306,0.451
			c0.783,0,1.356-0.214,1.719-0.643s0.544-1.128,0.544-2.099v-3.938h1.135v7.492h-0.937l-0.164-1.005h-0.062
			c-0.232,0.369-0.555,0.651-0.968,0.848c-0.412,0.196-0.883,0.294-1.411,0.294c-0.912,0-1.594-0.217-2.048-0.649
			c-0.453-0.433-0.68-1.126-0.68-2.078v-4.901H488.099z"/>
	</g>
	<g>
		<path fill="#2A4F68" d="M614.336,32.799h-1.162v-9.994h5.571v1.032h-4.409v3.657h4.143v1.032h-4.143V32.799z"/>
		<path fill="#2A4F68" d="M623.646,25.17c0.332,0,0.631,0.027,0.896,0.082l-0.157,1.053c-0.311-0.068-0.584-0.103-0.82-0.103
			c-0.606,0-1.125,0.246-1.556,0.738s-0.646,1.105-0.646,1.839v4.02h-1.135v-7.492h0.937l0.13,1.388h0.055
			c0.277-0.487,0.612-0.863,1.005-1.128C622.746,25.302,623.177,25.17,623.646,25.17z"/>
		<path fill="#2A4F68" d="M625.848,23.276c0-0.26,0.063-0.45,0.191-0.571c0.127-0.12,0.287-0.181,0.479-0.181
			c0.182,0,0.339,0.062,0.472,0.185c0.132,0.123,0.198,0.312,0.198,0.567s-0.066,0.445-0.198,0.571
			c-0.133,0.125-0.29,0.188-0.472,0.188c-0.191,0-0.352-0.062-0.479-0.188C625.911,23.722,625.848,23.531,625.848,23.276z
			 M627.078,32.799h-1.135v-7.492h1.135V32.799z"/>
	</g>
	<rect x="136.249" y="17.799" fill="#294F69" width="1" height="21"/>
	<rect x="274.249" y="17.799" fill="#294F69" width="1" height="21"/>
	<rect x="412.249" y="17.799" fill="#294F69" width="1" height="21"/>
	<rect x="550.248" y="17.799" fill="#294F69" width="1" height="21"/>
	<rect x="688.248" y="17.799" fill="#294F69" width="1" height="21"/>
</g>
</svg>
