<?xml version="1.0" encoding="UTF-8"?>
<svg width="55px" height="45px" viewBox="0 0 55 45" version="1.1" xmlns="http://www.w3.org/2000/svg" xmlns:xlink="http://www.w3.org/1999/xlink">
    <!-- Generator: Sketch 51.3 (57544) - http://www.bohemiancoding.com/sketch -->
    <title>ai</title>
    <desc>Created with Sketch.</desc>
    <defs>
        <polygon id="path-1" points="9.90339488e-05 0.0003 55 0.0003 55 44.7753 9.90339488e-05 44.7753"></polygon>
    </defs>
    <g id="Page-1" stroke="none" stroke-width="1" fill="none" fill-rule="evenodd">
        <g id="ai">
            <mask id="mask-2" fill="white">
                <use xlink:href="#path-1"></use>
            </mask>
            <g id="Clip-2"></g>
            <path d="M52.7493,42.4893 L35.9073,42.4893 L35.9073,27.6383 C35.9073,22.9963 39.6863,19.2183 44.3283,19.2183 C48.9723,19.2183 52.7483,22.9963 52.7483,27.6383 L52.7483,42.4893 L52.7493,42.4893 Z M26.3113,9.6213 C28.9653,6.9643 33.2873,6.9643 35.9453,9.6213 L43.1633,16.8393 C38.1023,17.3833 34.0703,21.4143 33.5283,26.4753 L26.3113,19.2573 C23.6533,16.5993 23.6533,12.2773 26.3113,9.6213 Z M19.4593,8.2933 C19.9853,7.0843 20.0773,5.7723 19.7793,4.5123 L25.5863,7.0343 C25.2383,7.2963 24.8993,7.5743 24.5813,7.8913 C23.0653,9.4093 22.1943,11.3243 21.9513,13.3053 L18.0243,11.5983 L19.4593,8.2933 Z M11.5753,20.2963 C11.4833,20.3403 11.2513,20.4043 10.8423,20.4043 C10.0213,20.4043 8.9523,20.1473 7.9123,19.6953 C5.9893,18.8573 5.0803,17.7993 4.9723,17.4303 L10.6163,4.4503 C11.1873,3.1353 12.4843,2.2853 13.9183,2.2853 C14.4123,2.2853 14.8933,2.3863 15.3513,2.5853 C16.2343,2.9693 16.9123,3.6733 17.2653,4.5663 C17.6173,5.4623 17.5993,6.4383 17.2163,7.3203 L11.5753,20.2963 Z M46.7323,17.1243 L37.6033,7.9933 C35.1173,5.5073 31.5503,4.7503 28.3993,5.7133 L16.4073,0.4993 C16.4063,0.4993 16.4063,0.4973 16.4063,0.4973 C15.6453,0.1683 14.8393,0.0003 14.0153,0.0003 C11.6253,0.0003 9.4633,1.4163 8.5093,3.6073 L2.8693,16.5803 C2.6543,17.0773 2.4753,18.0433 3.3953,19.2703 C1.0983,19.7763 1.1093,21.3333 0.1013,23.6533 C-0.1667,24.2663 0.1163,24.9833 0.7293,25.2473 C1.3423,25.5153 2.0593,25.2363 2.3263,24.6203 C3.4633,22.0063 4.4663,20.8003 7.0803,21.9393 C9.6963,23.0773 9.5323,24.7643 8.3953,27.3793 C8.1273,27.9913 8.4093,28.7053 9.0243,28.9733 C9.1803,29.0443 9.3453,29.0763 9.5063,29.0763 C9.9773,29.0763 10.4223,28.8033 10.6203,28.3463 C11.6293,26.0253 12.7433,24.8393 11.5453,22.8113 C13.0723,22.6463 13.6603,21.8593 13.8763,21.3643 L17.1203,13.8983 L22.0513,16.0403 C22.3583,17.8563 23.2033,19.5963 24.6003,20.9933 L33.4213,29.8153 L33.4213,43.5613 C33.4213,44.2313 33.9653,44.7753 34.6353,44.7753 L53.7863,44.7753 C54.4563,44.7753 55.0003,44.2313 55.0003,43.5613 L55.0003,27.6013 C55.0013,22.5243 51.4683,18.2623 46.7323,17.1243 Z" id="Fill-1" fill="#FFFFFF" mask="url(#mask-2)"></path>
        </g>
    </g>
</svg>