
<svg width="43px" height="69px" viewBox="0 0 43 69" version="1.1" xmlns="http://www.w3.org/2000/svg" xmlns:xlink="http://www.w3.org/1999/xlink">
    <g id="Page-1" stroke="none" stroke-width="1" fill="none" fill-rule="evenodd">
        <g id="Summit_Homepage" transform="translate(-292.000000, -3352.000000)" fill="#FFFFFF" fill-rule="nonzero">
            <g id="Who-Attends" transform="translate(0.000000, 2891.000000)">
                <g id="Copy">
                    <g id="Icons" transform="translate(145.000000, 461.000000)">
                        <g id="Platform-Developers" transform="translate(111.649123, 0.000000)">
                            <g id="PlatformDevs" transform="translate(35.368421, 0.000000)">
                                <g id="Group">
                                    <path d="M35.5291866,68.3157895 L6.44210526,68.3157895 C2.92822967,68.3157895 0,65.4210526 0,61.754386 L0,6.56140351 C0,2.89473684 2.92822967,0 6.44210526,0 L35.5291866,0 C36.8956938,0 39.2382775,0.192982456 40.8,1.92982456 C41.9712919,3.0877193 42.3617225,4.63157895 42.3617225,6.36842105 L42.3617225,9.26315789 C42.3617225,9.26315789 42.3617225,9.26315789 42.3617225,9.26315789 L41.9712919,61.754386 C41.9712919,65.4210526 39.0430622,68.3157895 35.5291866,68.3157895 Z M6.44210526,2.70175439 C4.48995215,2.70175439 2.73301435,4.43859649 2.73301435,6.56140351 L2.73301435,61.754386 C2.73301435,63.877193 4.48995215,65.6140351 6.44210526,65.6140351 L35.5291866,65.6140351 C37.4813397,65.6140351 39.2382775,63.877193 39.2382775,61.754386 L39.6287081,6.36842105 C39.6287081,5.21052632 39.4334928,4.43859649 38.8478469,3.85964912 C37.8717703,2.89473684 36.3100478,2.70175439 35.5291866,2.70175439 L6.44210526,2.70175439 Z" id="Shape"></path>
                                    <path d="M24.2066986,61.5614035 L17.7645933,61.5614035 C16.9837321,61.5614035 16.3980861,60.9824561 16.3980861,60.2105263 C16.3980861,59.4385965 16.9837321,58.8596491 17.7645933,58.8596491 L24.2066986,58.8596491 C24.9875598,58.8596491 25.5732057,59.4385965 25.5732057,60.2105263 C25.5732057,60.9824561 24.9875598,61.5614035 24.2066986,61.5614035 Z" id="Shape"></path>
                                    <path d="M39.6287081,54.6140351 L2.14736842,54.6140351 C1.36650718,54.6140351 0.780861244,54.0350877 0.780861244,53.2631579 C0.780861244,52.4912281 1.36650718,51.9122807 2.14736842,51.9122807 L39.6287081,51.9122807 C40.4095694,51.9122807 40.9952153,52.4912281 40.9952153,53.2631579 C40.9952153,54.0350877 40.4095694,54.6140351 39.6287081,54.6140351 Z" id="Shape"></path>
                                    <path d="M40.2143541,11.1929825 L2.92822967,11.1929825 C2.14736842,11.1929825 1.56172249,10.6140351 1.56172249,9.84210526 C1.56172249,9.07017544 2.14736842,8.49122807 2.92822967,8.49122807 L40.2143541,8.49122807 C40.9952153,8.49122807 41.5808612,9.07017544 41.5808612,9.84210526 C41.5808612,10.6140351 40.9952153,11.1929825 40.2143541,11.1929825 Z" id="Shape"></path>
                                </g>
                                <path d="M30.0914321,44.2105263 C29.8955742,44.2105263 29.6997162,44.2105263 29.5038583,44.0214823 L21.4736842,40.4296455 L13.639368,44.0214823 C13.2476522,44.2105263 12.6600785,44.2105263 12.2683626,43.8324382 C11.8766468,43.4543502 11.6807889,43.0762621 11.6807889,42.50913 L12.8559364,34.1911923 L6.78434129,28.3308271 C6.39262548,27.952739 6.19676757,27.3856069 6.39262548,27.0075188 C6.58848338,26.4403867 6.9801992,26.2513426 7.56777291,26.0622986 L16.3813787,24.5499463 L20.2985368,17.1772288 C20.4943947,16.7991407 21.0819684,16.4210526 21.4736842,16.4210526 C21.4736842,16.4210526 21.4736842,16.4210526 21.4736842,16.4210526 C22.0612579,16.4210526 22.4529737,16.6100967 22.6488316,17.1772288 L26.7618477,24.5499463 L35.3795955,26.0622986 C35.9671692,26.0622986 36.358885,26.4403867 36.5547429,27.0075188 C36.7506008,27.5746509 36.5547429,27.952739 36.1630271,28.3308271 L30.0914321,34.1911923 L31.2665795,42.50913 C31.2665795,43.0762621 31.0707216,43.4543502 30.6790058,43.8324382 C30.6790058,44.2105263 30.4831479,44.2105263 30.0914321,44.2105263 Z M21.4736842,37.593985 C21.6695421,37.593985 21.8654,37.593985 22.0612579,37.783029 L28.3287109,40.6186896 L27.3494214,34.0021482 C27.3494214,33.6240602 27.3494214,33.2459721 27.7411372,32.867884 L32.4417269,28.3308271 L25.7825581,27.1965628 C25.3908423,27.1965628 24.9991265,26.8184748 24.8032686,26.4403867 L21.4736842,20.7690655 L18.3399577,26.4403867 C18.1440998,26.8184748 17.752384,27.0075188 17.3606682,27.1965628 L10.5056415,28.3308271 L15.4020891,32.867884 C15.7938049,33.2459721 15.7938049,33.6240602 15.7938049,34.0021482 L14.8145154,40.6186896 L20.8861105,37.783029 C21.0819684,37.593985 21.2778263,37.593985 21.4736842,37.593985 Z" id="Shape"></path>
                            </g>
                        </g>
                    </g>
                </g>
            </g>
        </g>
    </g>
</svg>