<?xml version="1.0" encoding="UTF-8"?>
<svg width="47px" height="47px" viewBox="0 0 47 47" version="1.1" xmlns="http://www.w3.org/2000/svg" xmlns:xlink="http://www.w3.org/1999/xlink">
    <!-- Generator: Sketch 51.3 (57544) - http://www.bohemiancoding.com/sketch -->
    <title>cicd</title>
    <desc>Created with Sketch.</desc>
    <defs>
        <polygon id="path-1" points="0 0 47 0 47 47 0 47"></polygon>
    </defs>
    <g id="Page-1" stroke="none" stroke-width="1" fill="none" fill-rule="evenodd">
        <g id="cicd">
            <mask id="mask-2" fill="white">
                <use xlink:href="#path-1"></use>
            </mask>
            <g id="Clip-2"></g>
            <path d="M47,12.3688265 C47,15.1514059 46.0805091,17.7242861 44.5303636,19.7896088 C43.8253636,20.7302593 42.9990182,21.558785 42.0607273,22.2640589 C39.9987091,23.8158326 37.4299455,24.7367971 34.6518182,24.7367971 L12.3490364,24.7367971 C6.89703636,24.7367971 2.48929091,29.1772837 2.48929091,34.6320294 C2.48929091,40.0859193 6.92181818,44.5264059 12.3678364,44.5264059 C17.8138545,44.5264059 22.2651818,40.0859193 22.2651818,34.6320294 L22.2651818,31.4343313 L19.4494545,34.2665538 C18.9683455,34.7561371 18.1992545,34.7561371 17.7172909,34.2665538 C17.2293455,33.7846737 17.2344727,33.0049352 17.7224182,32.5230551 L22.6634,27.5758668 C23.1445091,27.0871394 23.9247091,27.0871394 24.4066727,27.5758668 L29.3468,32.5230551 C29.8338909,33.0049352 29.8338909,33.7846737 29.3476545,34.2665538 C29.1066727,34.5079218 28.7913455,34.6320294 28.4768727,34.6320294 C28.1624,34.6320294 27.8282727,34.5079218 27.5881455,34.2665538 L24.7348182,31.4343313 L24.7348182,34.6320294 C24.7348182,37.4146088 23.7965273,39.9874891 22.2463818,42.0528118 C21.5422364,42.9934623 20.6817091,43.8219879 19.7494,44.5264059 C17.6865273,46.0781796 15.1237455,47 12.3447636,47 C9.56663636,47 6.9936,46.0781796 4.93756364,44.5264059 C3.99927273,43.8219879 3.16694545,42.9934623 2.46878182,42.0528118 C0.919490909,39.9874891 0,37.4146088 0,34.6320294 C0,31.8485941 0.920345455,29.2765698 2.46963636,27.2103912 C3.1678,26.2705966 4.00098182,25.4420709 4.93927273,24.7367971 C6.99530909,23.1850233 9.57005455,22.2640589 12.3490364,22.2640589 L34.6509636,22.2640589 C40.0969818,22.2640589 44.5295091,17.8235723 44.5295091,12.3688265 C44.5295091,6.91408071 40.0773273,2.47359411 34.6321636,2.47359411 C29.1861455,2.47359411 24.7348182,6.91408071 24.7348182,12.3688265 L24.7348182,15.5656687 L27.5872909,12.7334462 C28.0684,12.2447188 28.8562909,12.2447188 29.3374,12.7334462 C29.8244909,13.2161823 29.8296182,13.9950648 29.3425273,14.4778008 L24.7698545,19.0603693 L24.4075273,19.4249891 C24.1656909,19.6663571 23.8512182,19.7896088 23.5358909,19.7896088 C23.2214182,19.7896088 22.9069455,19.6663571 22.6659636,19.4249891 L22.3019273,19.0603693 L17.7275455,14.4778008 C17.2396,13.9950648 17.2396,13.2161823 17.7275455,12.7334462 C18.2086545,12.2447188 18.9683455,12.2447188 19.4494545,12.7334462 L22.2651818,15.5656687 L22.2651818,12.3688265 C22.2651818,9.58624709 23.2043273,7.01336684 24.7536182,4.94804414 C25.4569091,4.00739365 26.2952182,3.17886801 27.2326545,2.47359411 C29.2946727,0.921820367 31.8677091,0 34.6466909,0 C37.4248182,0 39.9961455,0.921820367 42.0581636,2.47359411 C42.9964545,3.17886801 43.8245091,4.00739365 44.5286545,4.94804414 C46.0779455,7.01336684 47,9.58624709 47,12.3688265" id="Fill-1" fill="#FFFFFF" mask="url(#mask-2)"></path>
        </g>
    </g>
</svg>