<?xml version="1.0" encoding="UTF-8"?>
<svg width="52px" height="38px" viewBox="0 0 52 38" version="1.1" xmlns="http://www.w3.org/2000/svg" xmlns:xlink="http://www.w3.org/1999/xlink">
    <!-- Generator: Sketch 51.3 (57544) - http://www.bohemiancoding.com/sketch -->
    <title>cloud</title>
    <desc>Created with Sketch.</desc>
    <defs>
        <polygon id="path-1" points="0.0002 0.0002 51.818 0.0002 51.818 38 0.0002 38"></polygon>
    </defs>
    <g id="Page-1" stroke="none" stroke-width="1" fill="none" fill-rule="evenodd">
        <g id="cloud">
            <mask id="mask-2" fill="white">
                <use xlink:href="#path-1"></use>
            </mask>
            <g id="Clip-2"></g>
            <path d="M25.9092,2.3032 C22.5172,2.3032 19.1442,3.5802 16.5532,6.1712 C13.5582,9.1662 12.3072,13.2332 12.7742,17.1292 C12.8542,17.7602 12.4072,18.3362 11.7762,18.4152 C11.7252,18.4222 11.6742,18.4252 11.6232,18.4242 L10.9392,18.4242 C6.1352,18.4242 2.3032,22.2562 2.3032,27.0602 C2.3032,31.8652 6.1352,35.6972 10.9392,35.6972 L39.1512,35.6972 C44.8882,35.6972 49.5152,31.0712 49.5152,25.3332 C49.5152,19.9162 45.3882,15.4852 40.1052,15.0062 C39.5632,14.9582 39.1272,14.5382 39.0612,13.9982 C38.7292,11.1362 37.4822,8.3702 35.2832,6.1712 C32.6942,3.5822 29.3012,2.3032 25.9092,2.3032 M25.9092,0.0002 C29.8852,0.0002 33.8702,1.5022 36.9022,4.5342 C39.2552,6.8862 40.6572,9.8302 41.1842,12.8832 C47.2052,13.8602 51.8182,19.0472 51.8182,25.3332 C51.8182,32.3152 46.1342,38.0002 39.1512,38.0002 L10.9392,38.0002 C4.8992,38.0002 0.0002,33.1012 0.0002,27.0602 C0.0002,21.1802 4.6522,16.4252 10.4712,16.1752 C10.3032,11.9852 11.7422,7.7262 14.9332,4.5342 C17.9632,1.5042 21.9332,0.0002 25.9092,0.0002" id="Fill-1" fill="#FFFFFF" mask="url(#mask-2)"></path>
        </g>
    </g>
</svg>