
<svg width="69px" height="61px" viewBox="0 0 69 61" version="1.1" xmlns="http://www.w3.org/2000/svg" xmlns:xlink="http://www.w3.org/1999/xlink">
    <g id="Page-1" stroke="none" stroke-width="1" fill="none" fill-rule="evenodd">
        <g id="Summit_Homepage" transform="translate(-501.000000, -3357.000000)" fill="#FFFFFF" fill-rule="nonzero">
            <g id="Who-Attends" transform="translate(0.000000, 2891.000000)">
                <g id="Copy">
                    <g id="Icons" transform="translate(145.000000, 461.000000)">
                        <g id="Upstream-Dev" transform="translate(334.000000, 5.000000)">
                            <g id="UpstreamDevs" transform="translate(22.736842, 0.000000)">
                                <path d="M23.8497758,48 C23.4878985,48 23.3069598,47.8053149 23.1260211,47.6106299 L13.1743949,39.2391723 C12.8125176,39.0444873 12.6315789,38.6551171 12.6315789,38.071062 C12.6315789,37.6816918 12.8125176,37.2923217 13.1743949,36.9029516 L23.1260211,28.1421239 C23.6688371,27.5580687 24.5735304,27.7527538 24.9354077,28.336809 C25.4782237,28.9208642 25.297285,29.8942895 24.7544691,30.2836596 L16.0694135,37.8763769 L24.7544691,45.2744092 C25.297285,45.6637793 25.4782237,46.6372046 24.9354077,47.2212598 C24.5735304,47.8053149 24.2116531,48 23.8497758,48 Z" id="Shape"></path>
                                <path d="M43.0975926,48 C42.7357153,48 42.373838,47.8034213 42.0119607,47.410264 C41.6500834,46.820528 41.6500834,45.8376346 42.1928994,45.4444772 L50.877955,37.9744877 L42.1928994,30.3079194 C41.6500834,29.7181834 41.4691447,28.9318687 42.0119607,28.3421327 C42.5547767,27.7523966 43.2785313,27.555818 43.8213473,28.145554 L53.7729735,36.9915943 C54.1348508,37.188173 54.3157895,37.5813303 54.3157895,38.1710663 C54.3157895,38.5642237 54.1348508,38.957381 53.7729735,39.3505384 L43.8213473,48 C43.6404086,48 43.45947,48 43.0975926,48 Z" id="Shape"></path>
                                <path d="M31.717519,51.7894737 C31.5423028,51.7894737 31.5423028,51.7894737 31.3670866,51.7894737 C30.6662219,51.5931721 30.3157895,50.8079659 30.3157895,50.0227596 L35.3970591,23.9146515 C35.5722753,23.1294452 36.2731401,22.7368421 36.9740048,22.7368421 C37.6748696,22.9331437 38.025302,23.7183499 37.8500858,24.5035562 L32.7688162,50.6116643 C32.7688162,51.3968706 32.2431676,51.7894737 31.717519,51.7894737 Z" id="Shape"></path>
                                <path d="M66.8617306,60.6315789 L1.34879572,60.6315789 C0.578055308,60.6315789 0,60.0522963 0,59.2799195 L0,1.3516594 C-5.56200937e-15,0.579282601 0.578055308,0 1.34879572,0 L66.8617306,0 C67.632471,0 68.2105263,0.579282601 68.2105263,1.3516594 L68.2105263,59.2799195 C68.2105263,60.0522963 67.632471,60.6315789 66.8617306,60.6315789 Z M2.69759144,57.9282601 L65.5129349,57.9282601 L65.5129349,2.70331881 L2.69759144,2.70331881 L2.69759144,57.9282601 Z" id="Shape"></path>
                                <path d="M66.8617306,15.1578947 L1.34879572,15.1578947 C0.578055308,15.1578947 0,14.6165414 0,13.8947368 C0,13.1729323 0.578055308,12.6315789 1.34879572,12.6315789 L66.8617306,12.6315789 C67.632471,12.6315789 68.2105263,13.1729323 68.2105263,13.8947368 C68.2105263,14.6165414 67.632471,15.1578947 66.8617306,15.1578947 Z" id="Shape"></path>
                                <path d="M59.3335142,10.1052632 C57.909852,10.1052632 56.8421053,9.02255639 56.8421053,7.57894737 C56.8421053,6.13533835 57.909852,5.05263158 59.3335142,5.05263158 C60.2233031,5.05263158 60.9351342,5.41353383 61.4690076,5.95488722 C61.8249231,6.4962406 62.0028809,7.03759398 61.8249231,7.7593985 C61.8249231,9.02255639 60.7571765,10.1052632 59.3335142,10.1052632 Z" id="Shape"></path>
                                <path d="M49.2631579,10.1052632 C47.8195489,10.1052632 46.7368421,9.02255639 46.7368421,7.57894737 C46.7368421,6.13533835 47.8195489,5.05263158 49.2631579,5.05263158 C50.7067669,5.05263158 51.7894737,6.13533835 51.7894737,7.57894737 C51.7894737,9.02255639 50.7067669,10.1052632 49.2631579,10.1052632 Z" id="Shape"></path>
                            </g>
                        </g>
                    </g>
                </g>
            </g>
        </g>
    </g>
</svg>