<?xml version="1.0" encoding="UTF-8"?>
<svg width="51px" height="55px" viewBox="0 0 51 55" version="1.1" xmlns="http://www.w3.org/2000/svg" xmlns:xlink="http://www.w3.org/1999/xlink">
    <!-- Generator: Sketch 51.3 (57544) - http://www.bohemiancoding.com/sketch -->
    <title>container</title>
    <desc>Created with Sketch.</desc>
    <defs></defs>
    <g id="Page-1" stroke="none" stroke-width="1" fill="none" fill-rule="evenodd">
        <path d="M44.855,52.228 L49.156,52.228 L49.156,31.029 L44.855,31.029 L44.855,52.228 Z M1.843,52.229 L6.144,52.229 L6.144,31.03 L1.843,31.03 L1.843,52.229 Z M25.5,18.958 L39.564,29.186 L11.436,29.186 L25.5,18.958 Z M38.711,52.229 L43.012,52.229 L43.012,31.03 L38.711,31.03 L38.711,52.229 Z M32.566,52.229 L36.867,52.229 L36.867,31.03 L32.566,31.03 L32.566,52.229 Z M26.422,52.229 L30.723,52.229 L30.723,31.03 L26.422,31.03 L26.422,52.229 Z M20.277,52.229 L24.578,52.229 L24.578,31.03 L20.277,31.03 L20.277,52.229 Z M14.133,52.229 L18.434,52.229 L18.434,31.03 L14.133,31.03 L14.133,52.229 Z M7.988,52.228 L12.289,52.228 L12.289,31.029 L7.988,31.029 L7.988,52.228 Z M42.697,29.186 L26.422,17.35 L26.422,14.049 C29.033,13.608 31.03,11.336 31.03,8.602 L31.03,0.921 C31.03,0.412 30.617,0 30.108,0 C29.6,0 29.187,0.412 29.187,0.921 L29.187,8.602 C29.187,10.316 28.01,11.757 26.422,12.168 L26.422,11.674 C26.422,11.165 26.009,10.753 25.5,10.753 C24.991,10.753 24.579,11.165 24.579,11.674 L24.579,12.168 C22.991,11.757 21.813,10.316 21.813,8.602 C21.813,8.093 21.401,7.681 20.891,7.681 C20.382,7.681 19.97,8.093 19.97,8.602 C19.97,11.336 21.967,13.608 24.579,14.049 L24.579,17.35 L8.303,29.186 L0,29.186 L0,54.072 L51,54.072 L51,29.186 L42.697,29.186 Z" id="container" fill="#FFFFFF"></path>
    </g>
</svg>