<?xml version="1.0" encoding="utf-8"?>
<!-- Generator: Adobe Illustrator 16.0.4, SVG Export Plug-In . SVG Version: 6.00 Build 0)  -->
<!DOCTYPE svg PUBLIC "-//W3C//DTD SVG 1.1//EN" "http://www.w3.org/Graphics/SVG/1.1/DTD/svg11.dtd">
<svg version="1.1" id="Layer_1" xmlns="http://www.w3.org/2000/svg" xmlns:xlink="http://www.w3.org/1999/xlink" x="0px" y="0px"
	 width="75.439px" height="96.491px" viewBox="0 0 75.439 96.491" enable-background="new 0 0 75.439 96.491" xml:space="preserve">
<path fill="#A7B2BC" d="M68.68,71.451c-0.796-0.8-10.022-10.078-10.022-10.078l-1.956-1.974c0,0,0.747-3.191,0.012-3.928
	c-0.733-0.742-1.228-1.233-1.228-1.233s-0.73-0.741-1.597,0.114c-0.86,0.86-3.078,3.066-3.078,3.066l-8.272-8.323l4.472-4.445
	c2.027,1.054,4.295,1.707,6.736,1.715c8.176,0.025,14.819-6.581,14.843-14.757c0.008-1.305-0.212-2.551-0.527-3.763l-7.792,7.749
	l-8.617-1.866l-1.819-8.628l7.812-7.765c-1.219-0.335-2.484-0.57-3.81-0.575c-8.176-0.022-14.818,6.577-14.845,14.753
	c-0.008,2.718,0.769,5.234,2.04,7.427l-4.319,4.294L23.25,29.682l-2.93-4.922l-3.924-3.94l-7.601-4.2l-1.234,1.222l-1.233,1.226
	l4.154,7.629l3.92,3.944l4.905,2.962l13.465,13.549l-4.321,4.295c-2.186-1.285-4.697-2.078-7.415-2.086
	C12.859,49.335,6.216,55.941,6.19,64.118c-0.008,1.305,0.211,2.551,0.527,3.763l7.792-7.749l8.617,1.866l1.819,8.629l-7.812,7.765
	c1.222,0.335,2.485,0.57,3.81,0.575c8.176,0.02,14.818-6.579,14.845-14.755c0.008-2.441-0.632-4.712-1.673-6.745l4.481-4.453
	l8.27,8.321c0,0-2.214,2.202-3.078,3.062c-0.862,0.854-0.13,1.597-0.13,1.597s0.491,0.486,1.226,1.227
	c0.737,0.743,3.928,0.014,3.928,0.014l1.962,1.974c0,0,9.222,9.281,10.019,10.078c0.8,0.805,3.191,0.749,3.932,0.012
	c0.74-0.733,1.974-1.958,1.974-1.958s1.233-1.221,1.97-1.958C69.404,74.646,69.476,72.251,68.68,71.451z"/>
</svg>
