<?xml version="1.0" encoding="UTF-8"?>
<svg width="46px" height="46px" viewBox="0 0 46 46" version="1.1" xmlns="http://www.w3.org/2000/svg" xmlns:xlink="http://www.w3.org/1999/xlink">
    <!-- Generator: Sketch 51.3 (57544) - http://www.bohemiancoding.com/sketch -->
    <title>edge</title>
    <desc>Created with Sketch.</desc>
    <defs></defs>
    <g id="Page-1" stroke="none" stroke-width="1" fill="none" fill-rule="evenodd">
        <g id="edge" fill="#FFFFFF">
            <path d="M28.8938,3.829 C29.9668,3.829 30.8088,2.988 30.8088,1.914 C30.8088,0.841 29.9668,-7.10542736e-15 28.8938,-7.10542736e-15 C27.8198,-7.10542736e-15 26.9788,0.841 26.9788,1.914 C26.9788,2.988 27.8198,3.829 28.8938,3.829" id="Fill-1"></path>
            <path d="M24.6633,9.3715 C24.6633,10.4445 25.5043,11.2855 26.5783,11.2855 C27.6513,11.2855 28.4923,10.4445 28.4923,9.3715 C28.4923,8.2975 27.6513,7.4565 26.5783,7.4565 C25.5043,7.4565 24.6633,8.2975 24.6633,9.3715" id="Fill-3"></path>
            <path d="M10.8259,13.6835 C10.8259,14.7565 11.6669,15.5975 12.7409,15.5975 C13.8139,15.5975 14.6549,14.7565 14.6549,13.6835 C14.6549,12.6095 13.8139,11.7685 12.7409,11.7685 C11.6669,11.7685 10.8259,12.6095 10.8259,13.6835" id="Fill-5"></path>
            <path d="M7.2483,5.3398 C8.3213,5.3398 9.1623,4.4988 9.1623,3.4258 C9.1623,2.3518 8.3213,1.5108 7.2483,1.5108 C6.1743,1.5108 5.3333,2.3518 5.3333,3.4258 C5.3333,4.4988 6.1743,5.3398 7.2483,5.3398" id="Fill-7"></path>
            <path d="M15.5095,6.829 C16.5825,6.829 17.4235,5.988 17.4235,4.914 C17.4235,3.841 16.5825,3 15.5095,3 C14.4355,3 13.5945,3.841 13.5945,4.914 C13.5945,5.988 14.4355,6.829 15.5095,6.829" id="Fill-9"></path>
            <path d="M13.595,23.3754 C13.595,24.4494 14.436,25.2904 15.51,25.2904 C16.583,25.2904 17.424,24.4494 17.424,23.3754 C17.424,22.3014 16.583,21.4604 15.51,21.4604 C14.436,21.4604 13.595,22.3014 13.595,23.3754" id="Fill-11"></path>
            <path d="M25.2019,30.8285 C26.2749,30.8285 27.1159,29.9875 27.1159,28.9135 C27.1159,27.8405 26.2749,26.9985 25.2019,26.9985 C24.1279,26.9985 23.2869,27.8405 23.2869,28.9135 C23.2869,29.9875 24.1279,30.8285 25.2019,30.8285" id="Fill-13"></path>
            <path d="M20.614,20.0688 C21.688,20.0688 22.529,19.2278 22.529,18.1538 C22.529,17.0808 21.688,16.2398 20.614,16.2398 C19.54,16.2398 18.699,17.0808 18.699,18.1538 C18.699,19.2278 19.54,20.0688 20.614,20.0688" id="Fill-15"></path>
            <path d="M41.0476,15.5976 C42.1206,15.5976 42.9616,14.7566 42.9616,13.6836 C42.9616,12.6096 42.1206,11.7686 41.0476,11.7686 C39.9746,11.7686 39.1336,12.6096 39.1336,13.6836 C39.1336,14.7566 39.9746,15.5976 41.0476,15.5976" id="Fill-17"></path>
            <path d="M34.4324,24.6913 C33.3594,24.6913 32.5184,25.5323 32.5184,26.6063 C32.5184,27.6793 33.3594,28.5203 34.4324,28.5203 C35.5054,28.5203 36.3464,27.6793 36.3464,26.6063 C36.3464,25.5323 35.5054,24.6913 34.4324,24.6913" id="Fill-19"></path>
            <path d="M27.116,35.8368 C27.116,34.7628 26.275,33.9218 25.202,33.9218 C24.128,33.9218 23.287,34.7628 23.287,35.8368 C23.287,36.9098 24.128,37.7508 25.202,37.7508 C26.275,37.7508 27.116,36.9098 27.116,35.8368" id="Fill-21"></path>
            <path d="M24.134,41.5331 C23.06,41.5331 22.219,42.3741 22.219,43.4481 C22.219,44.5211 23.06,45.3621 24.134,45.3621 C25.208,45.3621 26.049,44.5211 26.049,43.4481 C26.049,42.3741 25.208,41.5331 24.134,41.5331" id="Fill-23"></path>
            <path d="M35.4324,38.2294 C34.3594,38.2294 33.5184,39.0704 33.5184,40.1444 C33.5184,41.2174 34.3594,42.0584 35.4324,42.0584 C36.5054,42.0584 37.3464,41.2174 37.3464,40.1444 C37.3464,39.0704 36.5054,38.2294 35.4324,38.2294" id="Fill-25"></path>
            <path d="M33.4324,16.7685 C32.3594,16.7685 31.5184,17.6095 31.5184,18.6835 C31.5184,19.7565 32.3594,20.5975 33.4324,20.5975 C34.5054,20.5975 35.3464,19.7565 35.3464,18.6835 C35.3464,17.6095 34.5054,16.7685 33.4324,16.7685" id="Fill-27"></path>
            <path d="M43.5173,25.3798 C42.4443,25.3798 41.6033,26.2208 41.6033,27.2948 C41.6033,28.3678 42.4443,29.2088 43.5173,29.2088 C44.5913,29.2088 45.4323,28.3678 45.4323,27.2948 C45.4323,26.2208 44.5913,25.3798 43.5173,25.3798" id="Fill-29"></path>
            <path d="M39.0476,31.1532 C37.9746,31.1532 37.1336,31.9942 37.1336,33.0672 C37.1336,34.1412 37.9746,34.9822 39.0476,34.9822 C40.1206,34.9822 40.9616,34.1412 40.9616,33.0672 C40.9616,31.9942 40.1206,31.1532 39.0476,31.1532" id="Fill-31"></path>
            <path d="M34.4324,6.2304 C33.3594,6.2304 32.5184,7.0714 32.5184,8.1454 C32.5184,9.2184 33.3594,10.0594 34.4324,10.0594 C35.5054,10.0594 36.3464,9.2184 36.3464,8.1454 C36.3464,7.0714 35.5054,6.2304 34.4324,6.2304" id="Fill-33"></path>
            <path d="M9.5095,27.5204 C10.5835,27.5204 11.4245,26.6794 11.4245,25.6064 C11.4245,24.5324 10.5835,23.6914 9.5095,23.6914 C8.4355,23.6914 7.5945,24.5324 7.5945,25.6064 C7.5945,26.6794 8.4355,27.5204 9.5095,27.5204" id="Fill-35"></path>
            <path d="M2.4197,19.5732 C3.4927,19.5732 4.3347,18.7322 4.3347,17.6592 C4.3347,16.5852 3.4927,15.7442 2.4197,15.7442 C1.3457,15.7442 0.5047,16.5852 0.5047,17.6592 C0.5047,18.7322 1.3457,19.5732 2.4197,19.5732" id="Fill-37"></path>
            <path d="M1.9143,31.3495 C0.8413,31.3495 0.0003,32.1905 0.0003,33.2645 C0.0003,34.3375 0.8413,35.1785 1.9143,35.1785 C2.9883,35.1785 3.8293,34.3375 3.8293,33.2645 C3.8293,32.1905 2.9883,31.3495 1.9143,31.3495" id="Fill-39"></path>
            <path d="M12.363,35.0063 C11.289,35.0063 10.448,35.8463 10.448,36.9203 C10.448,37.9943 11.289,38.8353 12.363,38.8353 C13.436,38.8353 14.278,37.9943 14.278,36.9203 C14.278,35.8463 13.436,35.0063 12.363,35.0063" id="Fill-41"></path>
        </g>
    </g>
</svg>