<?xml version="1.0" encoding="utf-8"?>
<!-- Generator: Adobe Illustrator 18.1.0, SVG Export Plug-In . SVG Version: 6.00 Build 0)  -->
<svg version="1.1" id="Layer_1" xmlns="http://www.w3.org/2000/svg" xmlns:xlink="http://www.w3.org/1999/xlink" x="0px" y="0px"
	 viewBox="0 0 153 119" enable-background="new 0 0 153 119" xml:space="preserve">
<g>
	<g>
		<g>
			<g>
				<path fill="#AAB5BD" d="M70.9,95.1c-19.6,0-35.6-16-35.6-35.6s16-35.6,35.6-35.6c8.4,0,16.5,3,22.9,8.3l-5,6
					c-5-4.2-11.3-6.5-17.9-6.5c-15.3,0-27.8,12.5-27.8,27.8s12.5,27.8,27.8,27.8c6.5,0,12.9-2.3,17.9-6.5l5,6
					C87.4,92.2,79.3,95.1,70.9,95.1z"/>
			</g>
			<g>
				<path fill="#AAB5BD" stroke="#FFD394" stroke-width="3.916" stroke-miterlimit="10" d="M82.4,37.5"/>
			</g>
		</g>
	</g>
	<g>
		<g>
			<g>
				<g>
					<polygon fill="#AAB5BD" points="98.4,73.6 102,79.9 95.7,76.3 					"/>
				</g>
			</g>
		</g>
	</g>
	<g>
		<g>
			<g>
				<g>
					<polygon fill="#AAB5BD" points="104.9,80.1 108.6,86.5 102.2,82.8 					"/>
				</g>
			</g>
		</g>
	</g>
	<g>
		<g>
			<g>
				<g>
					<polygon fill="#AAB5BD" points="98.4,44.7 102,38.4 95.7,42 					"/>
				</g>
			</g>
		</g>
	</g>
	<g>
		<g>
			<g>
				<g>
					<polygon fill="#AAB5BD" points="105.5,38.2 109.2,31.8 102.9,35.5 					"/>
				</g>
			</g>
		</g>
	</g>
	<g>
		<g>
			<g>
				<g>
					<polygon fill="#AAB5BD" points="102,56.6 109.1,58.5 102,60.4 					"/>
				</g>
			</g>
		</g>
	</g>
	<g>
		<g>
			<g>
				<g>
					<polygon fill="#AAB5BD" points="111,56.6 118.1,58.5 111,60.4 					"/>
				</g>
			</g>
		</g>
	</g>
	<g>
		<g>
			<g>
				<g>
					<polygon fill="#AAB5BD" points="100.2,48.5 107.5,48.5 101.2,52.1 					"/>
				</g>
			</g>
		</g>
	</g>
	<g>
		<g>
			<g>
				<g>
					<polygon fill="#AAB5BD" points="109.3,46.5 116.6,46.5 110.3,50.2 					"/>
				</g>
			</g>
		</g>
	</g>
	<g>
		<g>
			<g>
				<g>
					<polygon fill="#AAB5BD" points="100.2,69.7 107.5,69.8 101.2,66.1 					"/>
				</g>
			</g>
		</g>
	</g>
	<g>
		<g>
			<g>
				<g>
					<polygon fill="#AAB5BD" points="108.7,71.7 116,71.7 109.7,68 					"/>
				</g>
			</g>
		</g>
	</g>
</g>
</svg>
