<?xml version="1.0" encoding="UTF-8"?>
<svg width="50px" height="45px" viewBox="0 0 50 45" version="1.1" xmlns="http://www.w3.org/2000/svg" xmlns:xlink="http://www.w3.org/1999/xlink">
    <!-- Generator: Sketch 51.3 (57544) - http://www.bohemiancoding.com/sketch -->
    <title>hpc</title>
    <desc>Created with Sketch.</desc>
    <defs>
        <polygon id="path-1" points="0 0.412 49.9998021 0.412 49.9998021 13.8851 0 13.8851"></polygon>
        <polygon id="path-3" points="0 0.9692 49.9998021 0.9692 49.9998021 14.4402 0 14.4402"></polygon>
        <polygon id="path-5" points="0 0.5259 49.9998021 0.5259 49.9998021 13.9999 0 13.9999"></polygon>
    </defs>
    <g id="Page-1" stroke="none" stroke-width="1" fill="none" fill-rule="evenodd">
        <g id="hpc" transform="translate(0.000000, -1.000000)">
            <g id="Group-3" transform="translate(0.000000, 0.588300)">
                <mask id="mask-2" fill="white">
                    <use xlink:href="#path-1"></use>
                </mask>
                <g id="Clip-2"></g>
                <path d="M47.8788,10.6581 C47.8788,11.2721 47.3818,11.7701 46.7678,11.7701 L3.1768,11.7701 C2.5918,11.7701 2.1178,11.2961 2.1178,10.7111 L2.1178,3.5921 C2.1178,3.0071 2.5918,2.5331 3.1768,2.5331 L46.8198,2.5331 C47.4048,2.5331 47.8788,3.0071 47.8788,3.5921 L47.8788,10.6581 Z M46.8198,0.4111 L3.1768,0.4111 C1.4218,0.4111 -0.0002,1.8341 -0.0002,3.5891 L-0.0002,10.7081 C-0.0002,12.4631 1.4218,13.8851 3.1768,13.8851 L46.7708,13.8851 C48.5538,13.8841 49.9988,12.4381 49.9998,10.6551 L49.9998,3.5921 C50.0018,1.8371 48.5798,0.4131 46.8248,0.4111 L46.8198,0.4111 Z" id="Fill-1" fill="#FFFFFF" mask="url(#mask-2)"></path>
            </g>
            <g id="Group-6" transform="translate(0.000000, 15.588300)">
                <mask id="mask-4" fill="white">
                    <use xlink:href="#path-3"></use>
                </mask>
                <g id="Clip-5"></g>
                <path d="M47.8788,11.2152 C47.8778,11.8292 47.3808,12.3252 46.7678,12.3272 L3.1768,12.3272 C2.5918,12.3272 2.1178,11.8532 2.1178,11.2682 L2.1178,4.1492 C2.1178,3.5642 2.5918,3.0902 3.1768,3.0902 L46.8198,3.0902 C47.4048,3.0902 47.8788,3.5642 47.8788,4.1492 L47.8788,11.2152 Z M46.8198,0.9692 L3.1768,0.9692 C1.4218,0.9692 -0.0002,2.3912 -0.0002,4.1462 L-0.0002,11.2632 C-0.0002,13.0172 1.4218,14.4402 3.1768,14.4402 L46.7708,14.4402 C48.5528,14.4372 49.9968,12.9922 49.9998,11.2102 L49.9998,4.1492 C50.0018,2.3942 48.5798,0.9702 46.8248,0.9692 L46.8198,0.9692 Z" id="Fill-4" fill="#FFFFFF" mask="url(#mask-4)"></path>
            </g>
            <g id="Group-9" transform="translate(0.000000, 31.588300)">
                <mask id="mask-6" fill="white">
                    <use xlink:href="#path-5"></use>
                </mask>
                <g id="Clip-8"></g>
                <path d="M47.8788,10.7699 C47.8788,11.3849 47.3818,11.8829 46.7678,11.8849 L3.1768,11.8849 C2.5918,11.8849 2.1178,11.4109 2.1178,10.8259 L2.1178,3.7059 C2.1178,3.1209 2.5918,2.6469 3.1768,2.6469 L46.8198,2.6469 C47.4048,2.6469 47.8788,3.1209 47.8788,3.7059 L47.8788,10.7699 Z M46.8198,0.5259 L3.1768,0.5259 C1.4218,0.5259 -0.0002,1.9489 -0.0002,3.7039 L-0.0002,10.8229 C-0.0002,12.5779 1.4218,13.9999 3.1768,13.9999 L46.7708,13.9999 C48.5528,13.9969 49.9968,12.5529 49.9998,10.7699 L49.9998,3.7059 C50.0018,1.9519 48.5798,0.5279 46.8248,0.5259 L46.8198,0.5259 Z" id="Fill-7" fill="#FFFFFF" mask="url(#mask-6)"></path>
            </g>
            <path d="M41.7157,6.1312 C42.5517,6.1312 43.2307,6.8092 43.2307,7.6452 C43.2307,8.4822 42.5517,9.1602 41.7157,9.1602 C40.8787,9.1602 40.2007,8.4822 40.2007,7.6452 C40.2007,6.8092 40.8787,6.1312 41.7157,6.1312" id="Fill-10" fill="#FFFFFF"></path>
            <path d="M34.1483,22.7166 C34.4683,21.9446 35.3543,21.5766 36.1273,21.8976 C36.8993,22.2166 37.2663,23.1026 36.9463,23.8756 C36.6273,24.6486 35.7403,25.0156 34.9673,24.6956 C34.1953,24.3756 33.8283,23.4896 34.1483,22.7166" id="Fill-12" fill="#FFFFFF"></path>
            <path d="M41.7157,21.7811 C42.5517,21.7811 43.2307,22.4591 43.2307,23.2951 C43.2307,24.1321 42.5517,24.8101 41.7157,24.8101 C40.8787,24.8101 40.2007,24.1321 40.2007,23.2951 C40.2007,22.4591 40.8787,21.7811 41.7157,21.7811" id="Fill-14" fill="#FFFFFF"></path>
            <path d="M41.7157,37.431 C42.5517,37.431 43.2307,38.109 43.2307,38.946 C43.2307,39.782 42.5517,40.46 41.7157,40.46 C40.8787,40.46 40.2007,39.782 40.2007,38.946 C40.2007,38.109 40.8787,37.431 41.7157,37.431" id="Fill-16" fill="#FFFFFF"></path>
        </g>
    </g>
</svg>