<?xml version="1.0" encoding="UTF-8"?>
<svg width="52px" height="38px" viewBox="0 0 52 38" version="1.1" xmlns="http://www.w3.org/2000/svg" xmlns:xlink="http://www.w3.org/1999/xlink">
    <!-- Generator: Sketch 51.3 (57544) - http://www.bohemiancoding.com/sketch -->
    <title>hybrid</title>
    <desc>Created with Sketch.</desc>
    <defs>
        <polygon id="path-1" points="0 0.1841 23.1219 0.1841 23.1219 38 0 38"></polygon>
        <polygon id="path-3" points="0.6116 0.0479 25.818 0.0479 25.818 37.9999 0.6116 37.9999"></polygon>
    </defs>
    <g id="Page-1" stroke="none" stroke-width="1" fill="none" fill-rule="evenodd">
        <g id="hybrid" transform="translate(0.000000, -1.000000)">
            <g id="Group-3" transform="translate(0.000000, 0.952600)">
                <mask id="mask-2" fill="white">
                    <use xlink:href="#path-1"></use>
                </mask>
                <g id="Clip-2"></g>
                <path d="M2.3029,25.3301 C2.3029,19.9131 6.4299,15.4821 11.7129,15.0021 C12.2559,14.9551 12.6909,14.5351 12.7569,13.9951 C13.0889,11.1331 14.3369,8.3671 16.5349,6.1681 C17.7369,4.9671 19.1159,4.0631 20.5839,3.4251 L20.6089,35.6941 L12.6669,35.6941 C6.9289,35.6941 2.3029,31.0671 2.3029,25.3301 M-0.0001,25.3301 C-0.0001,32.3121 5.6849,37.9971 12.6669,37.9971 L20.6109,37.9971 L20.6109,38.0001 L23.1109,38.0001 L23.1219,0.1841 L22.8859,0.2681 C20.1919,0.9211 16.9989,2.4471 14.9159,4.5311 C12.5629,6.8841 11.1609,9.8281 10.6339,12.8791 C4.6139,13.8571 -0.0001,19.0441 -0.0001,25.3301" id="Fill-1" fill="#FFFFFF" mask="url(#mask-2)"></path>
            </g>
            <g id="Group-6" transform="translate(26.000000, 0.952600)">
                <mask id="mask-4" fill="white">
                    <use xlink:href="#path-3"></use>
                </mask>
                <g id="Clip-5"></g>
                <path d="M3.1056,35.6939 L3.0236,2.6889 C5.3096,3.2339 7.4756,4.3789 9.2656,6.1689 C12.2596,9.1629 13.5106,13.2299 13.0436,17.1259 C12.9636,17.7569 13.4116,18.3329 14.0426,18.4119 C14.0926,18.4189 14.1446,18.4219 14.1946,18.4219 L14.8786,18.4219 C19.6826,18.4219 23.5146,22.2529 23.5146,27.0579 C23.5146,31.8619 19.6826,35.6939 14.8786,35.6939 L3.1056,35.6939 Z M0.6606,0.0859 L0.6116,37.9999 L3.1116,37.9999 L3.1116,37.9969 L14.8786,37.9969 C20.9186,37.9969 25.8186,33.0979 25.8186,27.0579 C25.8186,21.1769 21.1666,16.4219 15.3466,16.1719 C15.5146,11.9829 14.0766,7.7229 10.8846,4.5309 C8.2666,1.9129 4.1246,0.4009 0.7056,0.0479 L0.7256,0.1029 L0.6606,0.0859 Z" id="Fill-4" fill="#FFFFFF" mask="url(#mask-4)"></path>
            </g>
        </g>
    </g>
</svg>