<?xml version="1.0" encoding="utf-8"?>
<!-- Generator: Adobe Illustrator 16.0.4, SVG Export Plug-In . SVG Version: 6.00 Build 0)  -->
<!DOCTYPE svg PUBLIC "-//W3C//DTD SVG 1.1//EN" "http://www.w3.org/Graphics/SVG/1.1/DTD/svg11.dtd">
<svg version="1.1" id="Layer_1" xmlns="http://www.w3.org/2000/svg" xmlns:xlink="http://www.w3.org/1999/xlink" x="0px" y="0px"
	 width="763.461px" height="614.969px" viewBox="0 0 763.461 614.969" enable-background="new 0 0 763.461 614.969"
	 xml:space="preserve">
<g>
	
		<rect x="672.275" y="59.962" transform="matrix(0.5172 0.8559 -0.8559 0.5172 413.9867 -527.7641)" fill="#4CA7DD" width="5" height="86.182"/>
	<g>
		<g>
			<path fill="#676767" d="M731.865,92.574c0,0.939-0.32,1.662-0.963,2.168c-0.641,0.505-1.557,0.758-2.75,0.758h-1.092v3.65h-1.08
				v-9.28h2.406C730.705,89.87,731.865,90.771,731.865,92.574z M727.06,94.574h0.971c0.955,0,1.648-0.154,2.076-0.463
				c0.426-0.309,0.641-0.804,0.641-1.485c0-0.614-0.201-1.071-0.604-1.371s-1.027-0.451-1.879-0.451h-1.205V94.574z"/>
			<path fill="#676767" d="M737.925,99.15l-0.209-0.99h-0.051c-0.348,0.436-0.693,0.731-1.037,0.886
				c-0.346,0.154-0.775,0.231-1.293,0.231c-0.689,0-1.23-0.178-1.621-0.533c-0.393-0.355-0.588-0.861-0.588-1.517
				c0-1.405,1.125-2.141,3.371-2.209l1.182-0.038v-0.432c0-0.546-0.119-0.949-0.354-1.209c-0.234-0.26-0.609-0.39-1.127-0.39
				c-0.58,0-1.234,0.178-1.967,0.533l-0.324-0.806c0.344-0.186,0.719-0.332,1.127-0.438s0.818-0.159,1.229-0.159
				c0.828,0,1.443,0.184,1.844,0.552s0.6,0.958,0.6,1.771v4.748H737.925z M735.546,98.408c0.654,0,1.17-0.18,1.545-0.54
				s0.562-0.863,0.562-1.511v-0.628l-1.055,0.044c-0.838,0.03-1.441,0.16-1.812,0.391c-0.369,0.23-0.555,0.589-0.555,1.076
				c0,0.381,0.115,0.671,0.346,0.87S735.13,98.408,735.546,98.408z"/>
			<path fill="#676767" d="M744.052,92.066c0.309,0,0.586,0.025,0.832,0.076l-0.146,0.978c-0.289-0.063-0.543-0.095-0.762-0.095
				c-0.562,0-1.045,0.229-1.445,0.686c-0.398,0.457-0.6,1.026-0.6,1.708v3.732h-1.053v-6.957h0.869l0.121,1.289h0.051
				c0.258-0.453,0.568-0.802,0.934-1.047C743.216,92.189,743.617,92.066,744.052,92.066z"/>
			<path fill="#676767" d="M746.095,90.308c0-0.241,0.061-0.418,0.178-0.53c0.119-0.112,0.268-0.168,0.445-0.168
				c0.168,0,0.314,0.057,0.438,0.171s0.184,0.29,0.184,0.527s-0.061,0.414-0.184,0.53c-0.123,0.117-0.27,0.175-0.438,0.175
				c-0.178,0-0.326-0.058-0.445-0.175C746.156,90.722,746.095,90.545,746.095,90.308z M747.238,99.15h-1.053v-6.957h1.053V99.15z"/>
			<path fill="#676767" d="M753.96,97.252c0,0.647-0.242,1.147-0.725,1.498s-1.158,0.527-2.031,0.527
				c-0.922,0-1.641-0.146-2.158-0.438v-0.978c0.336,0.169,0.693,0.303,1.076,0.4s0.752,0.146,1.107,0.146
				c0.551,0,0.975-0.088,1.27-0.263c0.297-0.176,0.445-0.443,0.445-0.803c0-0.271-0.117-0.502-0.352-0.695
				c-0.236-0.193-0.693-0.42-1.375-0.683c-0.648-0.241-1.107-0.452-1.381-0.632c-0.273-0.18-0.477-0.384-0.609-0.612
				s-0.199-0.501-0.199-0.819c0-0.567,0.23-1.015,0.691-1.342c0.461-0.328,1.094-0.492,1.898-0.492c0.748,0,1.48,0.152,2.195,0.457
				l-0.375,0.857c-0.697-0.288-1.33-0.432-1.896-0.432c-0.5,0-0.877,0.078-1.131,0.235s-0.381,0.373-0.381,0.647
				c0,0.186,0.049,0.345,0.143,0.476c0.096,0.131,0.25,0.256,0.461,0.375s0.617,0.29,1.219,0.514c0.824,0.3,1.383,0.603,1.672,0.908
				C753.816,96.408,753.96,96.791,753.96,97.252z"/>
		</g>
	</g>
	<g>
		<circle fill="#070707" cx="711.656" cy="80.767" r="8.354"/>
		<path fill="#4CA7DD" d="M711.656,90.62c-5.434,0-9.854-4.42-9.854-9.853c0-5.433,4.42-9.853,9.854-9.853s9.854,4.42,9.854,9.853
			C721.509,86.2,717.089,90.62,711.656,90.62z M711.656,73.915c-3.779,0-6.854,3.074-6.854,6.853c0,3.779,3.074,6.853,6.854,6.853
			s6.854-3.074,6.854-6.853C718.509,76.989,715.435,73.915,711.656,73.915z"/>
	</g>
	<g>
		<path fill="#4CA7DD" d="M663.24,75.415V73.09h-4.321v-1.485l3.675-5.939h2.807v5.715h1.154v1.71H665.4v2.325H663.24z
			 M663.24,71.38v-2.16c0-0.585,0.029-1.185,0.059-1.815h-0.045c-0.314,0.63-0.584,1.2-0.914,1.815l-1.291,2.13l-0.014,0.03H663.24z
			"/>
		<path fill="#4CA7DD" d="M666.914,77.2c0.48-1.335,0.887-2.895,1.096-4.26l2.324-0.15c-0.494,1.53-1.17,3.105-1.889,4.275
			L666.914,77.2z"/>
		<path fill="#4CA7DD" d="M678.419,65.665v1.425l-4.021,8.325h-2.414l4.02-7.845v-0.03h-4.469v-1.875H678.419z"/>
		<path fill="#4CA7DD" d="M683.263,75.58c-2.52,0-3.629-2.265-3.645-5.025c0-2.835,1.186-5.055,3.705-5.055
			c2.596,0,3.631,2.325,3.631,4.995c0,3-1.217,5.085-3.676,5.085H683.263z M683.294,73.854c0.885,0,1.365-1.11,1.365-3.33
			c0-2.16-0.467-3.3-1.381-3.3c-0.855,0-1.395,1.095-1.395,3.3c-0.016,2.25,0.525,3.33,1.395,3.33H683.294z"/>
		<path fill="#4CA7DD" d="M691.589,75.58c-2.52,0-3.631-2.265-3.645-5.025c0-2.835,1.184-5.055,3.705-5.055
			c2.594,0,3.629,2.325,3.629,4.995c0,3-1.215,5.085-3.674,5.085H691.589z M691.619,73.854c0.885,0,1.365-1.11,1.365-3.33
			c0-2.16-0.465-3.3-1.379-3.3c-0.855,0-1.396,1.095-1.396,3.3c-0.014,2.25,0.525,3.33,1.396,3.33H691.619z"/>
	</g>
</g>
<image display="none" overflow="visible" enable-background="new    " width="1228" height="668" xlink:href="668AF1DE326572F4.png"  transform="matrix(0.9994 0 0 0.9994 -183.5923 -24.2783)">
</image>
<rect x="69.847" y="528.699" transform="matrix(-0.251 -0.968 0.968 -0.251 -458.4799 780.8408)" fill="#4CA8DE" width="6.001" height="78.19"/>
<rect x="145.26" y="505.818" transform="matrix(-0.3163 -0.9487 0.9487 -0.3163 -322.2905 858.5996)" fill="#4CA8DE" width="5.999" height="79.245"/>
<rect x="220.451" y="482.888" transform="matrix(-0.2775 -0.9607 0.9607 -0.2775 -216.0665 881.5279)" fill="#4CA8DE" width="5.999" height="78.248"/>
<rect x="295.607" y="455.065" transform="matrix(-0.3801 -0.9249 0.9249 -0.3801 -46.3913 960.3188)" fill="#4CA8DE" width="5.999" height="81.279"/>
<rect x="370.799" y="431.841" transform="matrix(-0.2477 -0.9688 0.9688 -0.2477 10.439 949.378)" fill="#4CA8DE" width="6" height="77.59"/>
<rect x="445.999" y="322.261" transform="matrix(-0.8634 -0.5046 0.5046 -0.8634 636.4388 965.8663)" fill="#4CA8DE" width="5.999" height="148.996"/>
<rect x="521.148" y="258.259" transform="matrix(-0.5914 -0.8064 0.8064 -0.5914 588.2595 907.837)" fill="#4CA8DE" width="6.001" height="93.224"/>
<rect x="596.331" y="115.686" transform="matrix(-0.8974 -0.4411 0.4411 -0.8974 1048.5837 645.509)" fill="#4CA8DE" width="6" height="170.343"/>
<g>
	<g>
		<path fill="#4CA8DE" d="M590.985,121.037h-1.203v2.071h-2.064v-2.071h-4.266v-1.47l4.381-6.453h1.949v6.282h1.203V121.037z
			 M587.717,119.396v-1.695c0-0.283,0.012-0.693,0.033-1.23c0.023-0.537,0.041-0.85,0.055-0.937h-0.055
			c-0.168,0.374-0.371,0.738-0.607,1.094l-1.832,2.769L587.717,119.396L587.717,119.396z"/>
		<path fill="#4CA8DE" d="M594.34,121.638c-0.236,0.92-0.637,2.012-1.203,3.274h-1.504c0.297-1.212,0.527-2.356,0.691-3.432h1.914
			L594.34,121.638z"/>
		<path fill="#4CA8DE" d="M599.461,116.723c0.965,0,1.734,0.271,2.307,0.813s0.857,1.285,0.857,2.229
			c0,1.117-0.344,1.976-1.031,2.577c-0.688,0.601-1.674,0.902-2.953,0.902c-1.111,0-2.01-0.18-2.693-0.54v-1.825
			c0.359,0.191,0.779,0.348,1.258,0.468c0.479,0.12,0.932,0.181,1.361,0.181c1.289,0,1.934-0.529,1.934-1.586
			c0-1.007-0.668-1.511-2.002-1.511c-0.242,0-0.508,0.024-0.801,0.072c-0.291,0.048-0.527,0.099-0.711,0.154l-0.84-0.451
			l0.375-5.093h5.422v1.791h-3.568l-0.186,1.962l0.238-0.048C598.708,116.755,599.051,116.723,599.461,116.723z"/>
		<path fill="#4CA8DE" d="M610.747,118.111c0,1.746-0.285,3.038-0.857,3.876c-0.57,0.838-1.451,1.258-2.643,1.258
			c-1.152,0-2.021-0.433-2.607-1.299c-0.586-0.866-0.879-2.144-0.879-3.835c0-1.764,0.285-3.063,0.855-3.9
			c0.568-0.837,1.447-1.254,2.631-1.254c1.154,0,2.025,0.438,2.615,1.312C610.452,115.144,610.747,116.425,610.747,118.111z
			 M605.86,118.111c0,1.226,0.105,2.104,0.316,2.635c0.213,0.531,0.568,0.796,1.07,0.796c0.492,0,0.848-0.269,1.066-0.807
			c0.217-0.538,0.326-1.413,0.326-2.625c0-1.226-0.109-2.106-0.332-2.642c-0.221-0.536-0.574-0.803-1.061-0.803
			c-0.498,0-0.854,0.268-1.066,0.803C605.967,116.003,605.86,116.885,605.86,118.111z"/>
		<path fill="#4CA8DE" d="M618.739,118.111c0,1.746-0.287,3.038-0.857,3.876c-0.572,0.838-1.453,1.258-2.643,1.258
			c-1.154,0-2.023-0.433-2.607-1.299c-0.586-0.866-0.879-2.144-0.879-3.835c0-1.764,0.285-3.063,0.854-3.9s1.447-1.254,2.633-1.254
			c1.152,0,2.023,0.438,2.613,1.312C618.444,115.144,618.739,116.425,618.739,118.111z M613.85,118.111
			c0,1.226,0.107,2.104,0.318,2.635c0.213,0.531,0.568,0.796,1.07,0.796c0.492,0,0.848-0.269,1.064-0.807
			c0.219-0.538,0.328-1.413,0.328-2.625c0-1.226-0.109-2.106-0.332-2.642c-0.221-0.536-0.574-0.803-1.061-0.803
			c-0.498,0-0.854,0.268-1.066,0.803C613.959,116.003,613.85,116.885,613.85,118.111z"/>
	</g>
</g>
<g>
	<g>
		<path fill="#4CA8DE" d="M515.194,269.877c0,0.625-0.189,1.155-0.568,1.593c-0.377,0.438-0.908,0.738-1.592,0.902v0.041
			c0.807,0.1,1.416,0.345,1.832,0.735c0.414,0.39,0.621,0.915,0.621,1.576c0,0.961-0.35,1.71-1.045,2.246
			c-0.697,0.536-1.693,0.803-2.988,0.803c-1.084,0-2.045-0.18-2.885-0.54v-1.798c0.389,0.196,0.812,0.355,1.277,0.479
			s0.926,0.185,1.381,0.185c0.697,0,1.213-0.119,1.547-0.355c0.332-0.236,0.498-0.618,0.498-1.142c0-0.469-0.191-0.802-0.574-0.998
			s-0.992-0.294-1.832-0.294h-0.758v-1.62h0.771c0.773,0,1.34-0.102,1.699-0.304c0.355-0.203,0.535-0.55,0.535-1.042
			c0-0.756-0.475-1.135-1.422-1.135c-0.328,0-0.662,0.055-1,0.164c-0.342,0.109-0.719,0.298-1.133,0.567l-0.979-1.456
			c0.912-0.656,1.998-0.984,3.262-0.984c1.033,0,1.852,0.209,2.449,0.629C514.893,268.547,515.194,269.13,515.194,269.877z"/>
		<path fill="#4CA8DE" d="M519.165,276.167c-0.236,0.92-0.637,2.012-1.203,3.274h-1.504c0.297-1.212,0.527-2.356,0.691-3.432h1.912
			L519.165,276.167z"/>
		<path fill="#4CA8DE" d="M527.581,272.639c0,1.746-0.287,3.038-0.857,3.876c-0.572,0.838-1.453,1.258-2.643,1.258
			c-1.154,0-2.023-0.433-2.607-1.299c-0.586-0.866-0.879-2.144-0.879-3.835c0-1.764,0.285-3.063,0.854-3.9
			c0.568-0.837,1.447-1.254,2.633-1.254c1.152,0,2.023,0.438,2.615,1.312C527.286,269.672,527.581,270.953,527.581,272.639z
			 M522.692,272.639c0,1.226,0.105,2.104,0.316,2.635c0.213,0.531,0.57,0.796,1.07,0.796c0.492,0,0.848-0.269,1.066-0.807
			c0.219-0.538,0.328-1.413,0.328-2.625c0-1.226-0.109-2.106-0.332-2.642c-0.221-0.536-0.574-0.803-1.062-0.803
			c-0.496,0-0.854,0.268-1.066,0.803S522.692,271.413,522.692,272.639z"/>
		<path fill="#4CA8DE" d="M535.571,272.639c0,1.746-0.285,3.038-0.857,3.876c-0.572,0.838-1.453,1.258-2.643,1.258
			c-1.152,0-2.021-0.433-2.607-1.299c-0.586-0.866-0.879-2.144-0.879-3.835c0-1.764,0.285-3.063,0.855-3.9
			c0.568-0.837,1.445-1.254,2.631-1.254c1.152,0,2.023,0.438,2.615,1.312C535.276,269.672,535.571,270.953,535.571,272.639z
			 M530.684,272.639c0,1.226,0.105,2.104,0.316,2.635c0.213,0.531,0.57,0.796,1.07,0.796c0.492,0,0.848-0.269,1.066-0.807
			c0.219-0.538,0.328-1.413,0.328-2.625c0-1.226-0.109-2.106-0.332-2.642c-0.221-0.536-0.576-0.803-1.062-0.803
			c-0.496,0-0.854,0.268-1.066,0.803S530.684,271.413,530.684,272.639z"/>
		<path fill="#4CA8DE" d="M543.563,272.639c0,1.746-0.287,3.038-0.857,3.876c-0.572,0.838-1.453,1.258-2.643,1.258
			c-1.154,0-2.023-0.433-2.607-1.299c-0.586-0.866-0.879-2.144-0.879-3.835c0-1.764,0.285-3.063,0.854-3.9
			c0.568-0.837,1.447-1.254,2.633-1.254c1.152,0,2.023,0.438,2.613,1.312C543.268,269.672,543.563,270.953,543.563,272.639z
			 M538.674,272.639c0,1.226,0.107,2.104,0.318,2.635c0.213,0.531,0.568,0.796,1.07,0.796c0.49,0,0.848-0.269,1.064-0.807
			c0.219-0.538,0.328-1.413,0.328-2.625c0-1.226-0.109-2.106-0.332-2.642c-0.221-0.536-0.574-0.803-1.061-0.803
			c-0.498,0-0.854,0.268-1.066,0.803S538.674,271.413,538.674,272.639z"/>
	</g>
</g>
<g>
	<g>
		<path fill="#4CA8DE" d="M440.407,331.095h-6.986v-1.47l2.51-2.536c0.742-0.761,1.229-1.289,1.455-1.583
			c0.229-0.294,0.393-0.566,0.492-0.816c0.102-0.252,0.15-0.511,0.15-0.779c0-0.401-0.109-0.7-0.332-0.896
			c-0.221-0.195-0.516-0.294-0.885-0.294c-0.389,0-0.764,0.089-1.129,0.267c-0.363,0.179-0.744,0.432-1.141,0.76l-1.148-1.36
			c0.492-0.419,0.9-0.715,1.225-0.889s0.676-0.308,1.059-0.399c0.383-0.094,0.812-0.141,1.285-0.141
			c0.625,0,1.176,0.114,1.654,0.342c0.479,0.229,0.85,0.547,1.115,0.957c0.264,0.41,0.395,0.879,0.395,1.408
			c0,0.46-0.08,0.893-0.242,1.295c-0.162,0.403-0.412,0.816-0.752,1.241c-0.34,0.424-0.938,1.028-1.795,1.812l-1.285,1.211v0.096
			h4.355V331.095L440.407,331.095z"/>
		<path fill="#4CA8DE" d="M443.989,329.625c-0.236,0.92-0.639,2.012-1.203,3.273h-1.504c0.297-1.211,0.525-2.355,0.689-3.432h1.914
			L443.989,329.625z"/>
		<path fill="#4CA8DE" d="M445.405,326.85c0-1.978,0.418-3.449,1.254-4.416c0.836-0.966,2.088-1.449,3.756-1.449
			c0.57,0,1.018,0.035,1.34,0.104v1.688c-0.404-0.09-0.807-0.137-1.203-0.137c-0.725,0-1.314,0.109-1.773,0.328
			c-0.457,0.219-0.801,0.542-1.027,0.971c-0.227,0.43-0.363,1.037-0.404,1.826h0.09c0.451-0.775,1.174-1.162,2.166-1.162
			c0.895,0,1.594,0.279,2.1,0.84c0.506,0.562,0.76,1.336,0.76,2.324c0,1.066-0.301,1.912-0.902,2.533
			c-0.602,0.622-1.436,0.934-2.502,0.934c-0.738,0-1.383-0.172-1.932-0.514s-0.973-0.841-1.271-1.496
			C445.553,328.564,445.405,327.775,445.405,326.85z M449.014,329.543c0.451,0,0.799-0.15,1.039-0.455
			c0.24-0.304,0.361-0.734,0.361-1.295c0-0.488-0.111-0.872-0.338-1.152c-0.227-0.279-0.566-0.42-1.021-0.42
			c-0.43,0-0.795,0.139-1.098,0.417s-0.455,0.603-0.455,0.972c0,0.541,0.145,1,0.428,1.373
			C448.215,329.355,448.577,329.543,449.014,329.543z"/>
		<path fill="#4CA8DE" d="M460.397,326.098c0,1.746-0.287,3.038-0.857,3.877c-0.572,0.838-1.453,1.258-2.643,1.258
			c-1.154,0-2.023-0.434-2.607-1.299c-0.586-0.867-0.879-2.145-0.879-3.836c0-1.764,0.285-3.062,0.854-3.899
			s1.447-1.255,2.633-1.255c1.152,0,2.023,0.438,2.613,1.312C460.1,323.131,460.397,324.412,460.397,326.098z M455.508,326.098
			c0,1.227,0.105,2.104,0.316,2.635c0.213,0.531,0.568,0.797,1.07,0.797c0.492,0,0.848-0.27,1.066-0.807
			c0.217-0.539,0.328-1.414,0.328-2.625c0-1.227-0.111-2.106-0.332-2.643s-0.576-0.803-1.062-0.803
			c-0.496,0-0.854,0.268-1.066,0.803S455.508,324.872,455.508,326.098z"/>
		<path fill="#4CA8DE" d="M468.387,326.098c0,1.746-0.287,3.038-0.857,3.877c-0.572,0.838-1.453,1.258-2.643,1.258
			c-1.152,0-2.021-0.434-2.607-1.299c-0.586-0.867-0.879-2.145-0.879-3.836c0-1.764,0.285-3.062,0.854-3.899
			c0.57-0.837,1.447-1.255,2.633-1.255c1.152,0,2.023,0.438,2.615,1.312C468.092,323.131,468.387,324.412,468.387,326.098z
			 M463.499,326.098c0,1.227,0.107,2.104,0.318,2.635c0.213,0.531,0.568,0.797,1.068,0.797c0.492,0,0.85-0.27,1.066-0.807
			c0.219-0.539,0.328-1.414,0.328-2.625c0-1.227-0.109-2.106-0.332-2.643c-0.221-0.536-0.574-0.803-1.062-0.803
			c-0.496,0-0.852,0.268-1.064,0.803S463.499,324.872,463.499,326.098z"/>
	</g>
</g>
<g>
	<g>
		<path fill="#4CA8DE" d="M293.303,469.752h-2.112v-5.783l0.021-0.949l0.034-1.039c-0.351,0.351-0.595,0.58-0.731,0.689
			l-1.148,0.923l-1.019-1.271l3.22-2.563h1.736L293.303,469.752L293.303,469.752z"/>
		<path fill="#4CA8DE" d="M298.648,468.282c-0.236,0.921-0.639,2.012-1.203,3.273h-1.504c0.297-1.212,0.526-2.355,0.69-3.432h1.914
			L298.648,468.282z"/>
		<path fill="#4CA8DE" d="M307.062,464.755c0,1.745-0.285,3.037-0.857,3.876c-0.571,0.839-1.452,1.258-2.642,1.258
			c-1.153,0-2.022-0.433-2.608-1.299c-0.585-0.866-0.878-2.145-0.878-3.835c0-1.764,0.284-3.062,0.854-3.898
			c0.57-0.837,1.447-1.256,2.632-1.256c1.153,0,2.024,0.438,2.614,1.312C306.769,461.788,307.062,463.068,307.062,464.755z
			 M302.176,464.755c0,1.227,0.105,2.104,0.318,2.636c0.211,0.53,0.568,0.797,1.069,0.797c0.492,0,0.848-0.27,1.066-0.808
			c0.218-0.538,0.328-1.413,0.328-2.625c0-1.226-0.11-2.105-0.331-2.642c-0.222-0.536-0.576-0.805-1.063-0.805
			c-0.497,0-0.853,0.269-1.066,0.805C302.283,462.648,302.176,463.529,302.176,464.755z"/>
		<path fill="#4CA8DE" d="M315.055,464.755c0,1.745-0.286,3.037-0.856,3.876c-0.572,0.839-1.453,1.258-2.644,1.258
			c-1.151,0-2.021-0.433-2.606-1.299c-0.586-0.866-0.879-2.145-0.879-3.835c0-1.764,0.284-3.062,0.854-3.898
			c0.569-0.837,1.446-1.256,2.632-1.256c1.153,0,2.024,0.438,2.615,1.312C314.76,461.788,315.055,463.068,315.055,464.755z
			 M310.167,464.755c0,1.227,0.106,2.104,0.317,2.636c0.213,0.53,0.568,0.797,1.069,0.797c0.492,0,0.849-0.27,1.066-0.808
			s0.328-1.413,0.328-2.625c0-1.226-0.11-2.105-0.332-2.642s-0.575-0.805-1.062-0.805c-0.497,0-0.853,0.269-1.065,0.805
			C310.273,462.648,310.167,463.529,310.167,464.755z"/>
		<path fill="#4CA8DE" d="M323.046,464.755c0,1.745-0.286,3.037-0.856,3.876c-0.572,0.839-1.453,1.258-2.644,1.258
			c-1.153,0-2.021-0.433-2.606-1.299c-0.587-0.866-0.88-2.145-0.88-3.835c0-1.764,0.285-3.062,0.854-3.898
			c0.569-0.837,1.447-1.256,2.632-1.256c1.153,0,2.024,0.438,2.615,1.312C322.751,461.788,323.046,463.068,323.046,464.755z
			 M318.158,464.755c0,1.227,0.105,2.104,0.316,2.636c0.213,0.53,0.569,0.797,1.07,0.797c0.492,0,0.848-0.27,1.066-0.808
			c0.218-0.538,0.328-1.413,0.328-2.625c0-1.226-0.11-2.105-0.332-2.642s-0.575-0.805-1.062-0.805c-0.497,0-0.853,0.269-1.066,0.805
			C318.266,462.648,318.158,463.529,318.158,464.755z"/>
	</g>
</g>
<g>
	<g>
		<path fill="#4CA8DE" d="M224.43,494.907c0-1.979,0.418-3.45,1.254-4.416s2.088-1.449,3.756-1.449c0.57,0,1.016,0.034,1.34,0.103
			v1.688c-0.406-0.091-0.807-0.137-1.203-0.137c-0.725,0-1.316,0.108-1.774,0.328c-0.458,0.219-0.801,0.542-1.029,0.971
			s-0.362,1.037-0.403,1.825h0.089c0.451-0.774,1.173-1.162,2.167-1.162c0.893,0,1.593,0.28,2.099,0.841
			c0.506,0.562,0.759,1.335,0.759,2.324c0,1.065-0.301,1.911-0.902,2.532c-0.602,0.623-1.436,0.934-2.502,0.934
			c-0.738,0-1.382-0.171-1.931-0.513c-0.549-0.343-0.973-0.841-1.271-1.497S224.43,495.832,224.43,494.907z M228.04,497.601
			c0.451,0,0.797-0.15,1.039-0.453c0.242-0.305,0.362-0.735,0.362-1.297c0-0.486-0.113-0.872-0.338-1.15
			c-0.226-0.281-0.566-0.421-1.022-0.421c-0.428,0-0.794,0.139-1.097,0.417c-0.303,0.277-0.455,0.602-0.455,0.971
			c0,0.542,0.143,1,0.427,1.374S227.602,497.601,228.04,497.601z"/>
		<path fill="#4CA8DE" d="M236.126,492.768c0.966,0,1.735,0.271,2.307,0.813c0.572,0.542,0.858,1.285,0.858,2.229
			c0,1.116-0.344,1.977-1.032,2.577c-0.688,0.602-1.672,0.902-2.953,0.902c-1.112,0-2.01-0.18-2.693-0.54v-1.825
			c0.36,0.191,0.779,0.348,1.258,0.469c0.479,0.12,0.932,0.182,1.36,0.182c1.29,0,1.935-0.528,1.935-1.586
			c0-1.007-0.667-1.512-2.003-1.512c-0.242,0-0.508,0.023-0.8,0.072c-0.292,0.047-0.529,0.1-0.711,0.153l-0.841-0.451l0.376-5.093
			h5.421v1.791h-3.568l-0.185,1.962l0.239-0.048C235.372,492.8,235.716,492.768,236.126,492.768z"/>
		<path fill="#4CA8DE" d="M247.413,494.155c0,1.745-0.286,3.037-0.858,3.876c-0.572,0.839-1.453,1.258-2.642,1.258
			c-1.153,0-2.022-0.433-2.608-1.299c-0.586-0.866-0.878-2.146-0.878-3.835c0-1.765,0.285-3.063,0.854-3.899
			c0.57-0.837,1.447-1.255,2.632-1.255c1.153,0,2.024,0.438,2.615,1.312C247.119,491.188,247.413,492.469,247.413,494.155z
			 M242.525,494.155c0,1.226,0.106,2.104,0.318,2.636c0.212,0.53,0.568,0.796,1.07,0.796c0.492,0,0.848-0.269,1.066-0.807
			s0.328-1.413,0.328-2.625c0-1.227-0.11-2.106-0.332-2.643c-0.221-0.536-0.575-0.804-1.063-0.804c-0.497,0-0.852,0.268-1.066,0.804
			C242.632,492.049,242.525,492.93,242.525,494.155z"/>
	</g>
</g>
<g>
	<g>
		<path fill="#4CA8DE" d="M154.63,512.65c0.966,0,1.735,0.271,2.307,0.812s0.858,1.285,0.858,2.229c0,1.115-0.344,1.976-1.032,2.577
			c-0.688,0.601-1.672,0.901-2.953,0.901c-1.112,0-2.01-0.18-2.693-0.54v-1.825c0.36,0.191,0.779,0.349,1.258,0.47
			c0.479,0.119,0.932,0.181,1.36,0.181c1.29,0,1.935-0.528,1.935-1.586c0-1.007-0.667-1.511-2.003-1.511
			c-0.242,0-0.508,0.022-0.8,0.071c-0.292,0.048-0.529,0.1-0.711,0.153l-0.841-0.451l0.376-5.093h5.421v1.791h-3.568l-0.185,1.962
			l0.239-0.048C153.875,512.683,154.22,512.65,154.63,512.65z"/>
		<path fill="#4CA8DE" d="M165.916,514.038c0,1.745-0.286,3.037-0.858,3.876c-0.572,0.839-1.453,1.258-2.642,1.258
			c-1.153,0-2.022-0.433-2.608-1.299s-0.878-2.146-0.878-3.835c0-1.764,0.285-3.063,0.854-3.899c0.57-0.837,1.447-1.255,2.632-1.255
			c1.153,0,2.024,0.438,2.615,1.312C165.622,511.07,165.916,512.352,165.916,514.038z M161.028,514.038
			c0,1.226,0.106,2.104,0.318,2.636c0.212,0.53,0.568,0.796,1.07,0.796c0.492,0,0.848-0.269,1.066-0.807
			c0.218-0.538,0.328-1.413,0.328-2.625c0-1.226-0.11-2.106-0.332-2.642c-0.221-0.536-0.575-0.805-1.063-0.805
			c-0.497,0-0.852,0.269-1.066,0.805C161.135,511.932,161.028,512.812,161.028,514.038z"/>
		<path fill="#4CA8DE" d="M173.907,514.038c0,1.745-0.286,3.037-0.858,3.876c-0.572,0.839-1.453,1.258-2.642,1.258
			c-1.153,0-2.022-0.433-2.608-1.299s-0.878-2.146-0.878-3.835c0-1.764,0.285-3.063,0.854-3.899c0.57-0.837,1.447-1.255,2.632-1.255
			c1.153,0,2.024,0.438,2.615,1.312S173.907,512.352,173.907,514.038z M169.02,514.038c0,1.226,0.106,2.104,0.318,2.636
			c0.212,0.53,0.568,0.796,1.07,0.796c0.492,0,0.848-0.269,1.066-0.807c0.218-0.538,0.328-1.413,0.328-2.625
			c0-1.226-0.11-2.106-0.332-2.642c-0.221-0.536-0.575-0.805-1.063-0.805c-0.497,0-0.852,0.269-1.066,0.805
			C169.126,511.932,169.02,512.812,169.02,514.038z"/>
	</g>
</g>
<g>
	<g>
		<path fill="#4CA8DE" d="M81.689,542.422h-6.986v-1.47l2.509-2.536c0.743-0.761,1.228-1.289,1.456-1.582
			c0.228-0.295,0.392-0.566,0.492-0.817c0.1-0.251,0.15-0.511,0.15-0.778c0-0.401-0.11-0.699-0.332-0.896s-0.516-0.294-0.885-0.294
			c-0.387,0-0.763,0.089-1.128,0.268c-0.365,0.178-0.745,0.431-1.142,0.759l-1.148-1.36c0.492-0.419,0.9-0.716,1.224-0.889
			c0.324-0.173,0.677-0.308,1.06-0.4s0.811-0.14,1.285-0.14c0.625,0,1.176,0.114,1.654,0.342c0.478,0.229,0.85,0.547,1.114,0.957
			c0.264,0.41,0.396,0.88,0.396,1.408c0,0.46-0.081,0.892-0.243,1.296c-0.162,0.402-0.413,0.815-0.752,1.24
			c-0.339,0.424-0.938,1.026-1.794,1.812l-1.285,1.21v0.097h4.354L81.689,542.422L81.689,542.422z"/>
		<path fill="#4CA8DE" d="M86.331,536.037c0.966,0,1.735,0.271,2.307,0.812c0.572,0.542,0.858,1.285,0.858,2.229
			c0,1.116-0.344,1.976-1.032,2.577c-0.688,0.601-1.672,0.901-2.953,0.901c-1.112,0-2.01-0.18-2.693-0.54v-1.824
			c0.36,0.19,0.779,0.348,1.258,0.469c0.479,0.12,0.932,0.181,1.36,0.181c1.29,0,1.935-0.527,1.935-1.586
			c0-1.007-0.667-1.511-2.003-1.511c-0.242,0-0.508,0.023-0.8,0.072c-0.292,0.047-0.529,0.099-0.711,0.152l-0.841-0.45l0.376-5.094
			h5.421v1.791h-3.568l-0.185,1.962l0.239-0.048C85.577,536.069,85.921,536.037,86.331,536.037z"/>
		<path fill="#4CA8DE" d="M97.617,537.425c0,1.745-0.286,3.037-0.858,3.876c-0.572,0.839-1.453,1.258-2.642,1.258
			c-1.153,0-2.022-0.433-2.608-1.299c-0.586-0.866-0.878-2.145-0.878-3.835c0-1.764,0.285-3.062,0.854-3.898
			c0.57-0.837,1.447-1.256,2.632-1.256c1.153,0,2.024,0.438,2.615,1.312S97.617,535.738,97.617,537.425z M92.729,537.425
			c0,1.227,0.106,2.104,0.318,2.636c0.212,0.53,0.568,0.797,1.07,0.797c0.492,0,0.848-0.27,1.066-0.808
			c0.218-0.538,0.328-1.413,0.328-2.625c0-1.226-0.11-2.105-0.332-2.642c-0.221-0.536-0.575-0.805-1.063-0.805
			c-0.497,0-0.852,0.269-1.066,0.805C92.836,535.318,92.729,536.199,92.729,537.425z"/>
	</g>
</g>
<g>
	<g>
		<path fill="#4CA8DE" d="M10.918,560.521l3.753-8.203H9.743v-1.777h7.171v1.326l-3.78,8.654H10.918z"/>
		<path fill="#4CA8DE" d="M21.555,554.137c0.966,0,1.735,0.271,2.307,0.813c0.572,0.542,0.858,1.285,0.858,2.229
			c0,1.116-0.344,1.977-1.032,2.577c-0.688,0.602-1.672,0.902-2.953,0.902c-1.112,0-2.01-0.18-2.693-0.54v-1.825
			c0.36,0.191,0.779,0.348,1.258,0.469c0.479,0.12,0.932,0.182,1.36,0.182c1.29,0,1.935-0.528,1.935-1.586
			c0-1.008-0.667-1.512-2.003-1.512c-0.242,0-0.508,0.023-0.8,0.072c-0.292,0.047-0.529,0.1-0.711,0.153l-0.841-0.451l0.376-5.093
			h5.421v1.791h-3.568l-0.185,1.962l0.239-0.048C20.801,554.169,21.145,554.137,21.555,554.137z"/>
	</g>
</g>
<g>
	<g>
		<path fill="#666766" d="M34.412,606.753l-1.155-2.951h-3.72l-1.143,2.951h-1.092l3.669-9.318h0.908l3.65,9.318H34.412z
			 M32.92,602.83l-1.079-2.876c-0.14-0.363-0.284-0.81-0.432-1.339c-0.093,0.406-0.227,0.853-0.4,1.339l-1.092,2.876H32.92z"/>
		<path fill="#666766" d="M37.636,599.796v4.514c0,0.566,0.129,0.99,0.387,1.271s0.662,0.418,1.212,0.418
			c0.728,0,1.26-0.198,1.597-0.596c0.336-0.398,0.504-1.048,0.504-1.949v-3.656h1.054v6.957h-0.87l-0.152-0.934h-0.057
			c-0.216,0.344-0.515,0.604-0.898,0.787c-0.383,0.183-0.82,0.272-1.311,0.272c-0.846,0-1.48-0.201-1.901-0.604
			c-0.421-0.401-0.632-1.045-0.632-1.931v-4.551L37.636,599.796L37.636,599.796z"/>
		<path fill="#666766" d="M49.113,604.854c0,0.648-0.241,1.147-0.724,1.498c-0.482,0.353-1.16,0.527-2.031,0.527
			c-0.922,0-1.642-0.146-2.158-0.438v-0.979c0.334,0.17,0.693,0.303,1.076,0.4c0.383,0.098,0.752,0.146,1.108,0.146
			c0.55,0,0.973-0.088,1.27-0.264c0.297-0.176,0.444-0.443,0.444-0.803c0-0.271-0.118-0.503-0.352-0.695
			c-0.235-0.192-0.693-0.42-1.375-0.683c-0.647-0.241-1.108-0.452-1.38-0.633c-0.273-0.18-0.477-0.384-0.609-0.611
			c-0.134-0.229-0.2-0.501-0.2-0.819c0-0.566,0.23-1.014,0.692-1.342s1.094-0.492,1.898-0.492c0.749,0,1.481,0.152,2.196,0.457
			l-0.375,0.857c-0.698-0.288-1.331-0.433-1.898-0.433c-0.5,0-0.876,0.078-1.13,0.234s-0.381,0.372-0.381,0.646
			c0,0.188,0.048,0.346,0.143,0.477c0.096,0.132,0.249,0.257,0.46,0.375s0.618,0.29,1.219,0.514
			c0.825,0.301,1.383,0.604,1.672,0.908C48.968,604.011,49.113,604.394,49.113,604.854z"/>
		<path fill="#666766" d="M53.074,606.011c0.186,0,0.366-0.015,0.54-0.042c0.174-0.026,0.311-0.056,0.413-0.085v0.807
			c-0.114,0.055-0.282,0.101-0.505,0.137c-0.222,0.036-0.422,0.054-0.6,0.054c-1.346,0-2.019-0.709-2.019-2.127v-4.139h-0.997
			v-0.508l0.997-0.438l0.444-1.485h0.609v1.612h2.019v0.818h-2.019v4.095c0,0.419,0.1,0.74,0.298,0.965
			C52.452,605.899,52.727,606.011,53.074,606.011z"/>
		<path fill="#666766" d="M55.327,597.911c0-0.242,0.059-0.418,0.178-0.53c0.119-0.112,0.267-0.169,0.444-0.169
			c0.169,0,0.315,0.058,0.438,0.172c0.123,0.114,0.184,0.29,0.184,0.527c0,0.235-0.062,0.413-0.184,0.528
			c-0.122,0.116-0.269,0.176-0.438,0.176c-0.178,0-0.326-0.06-0.444-0.176C55.387,598.324,55.327,598.146,55.327,597.911z
			 M56.47,606.753h-1.054v-6.957h1.054V606.753z"/>
		<path fill="#666766" d="M63.465,606.753v-4.5c0-0.567-0.129-0.99-0.387-1.27c-0.258-0.28-0.662-0.421-1.212-0.421
			c-0.728,0-1.261,0.197-1.6,0.592c-0.339,0.394-0.508,1.043-0.508,1.947v3.65h-1.054v-6.957h0.857l0.171,0.952h0.051
			c0.216-0.343,0.519-0.608,0.908-0.797c0.389-0.189,0.823-0.282,1.301-0.282c0.838,0,1.468,0.202,1.892,0.606
			c0.424,0.403,0.635,1.05,0.635,1.938v4.539h-1.054V606.753z"/>
	</g>
</g>
<g>
	<g>
		<path fill="#666766" d="M110.153,584.217c0,0.816-0.296,1.453-0.889,1.91c-0.593,0.457-1.396,0.686-2.412,0.686
			c-1.1,0-1.947-0.142-2.539-0.426v-1.041c0.381,0.161,0.795,0.288,1.244,0.381c0.449,0.095,0.893,0.142,1.333,0.142
			c0.719,0,1.261-0.138,1.625-0.41c0.364-0.272,0.546-0.652,0.546-1.139c0-0.322-0.064-0.587-0.193-0.791
			c-0.129-0.205-0.345-0.396-0.647-0.568c-0.303-0.173-0.763-0.37-1.381-0.59c-0.863-0.31-1.48-0.675-1.851-1.099
			c-0.37-0.424-0.555-0.976-0.555-1.656c0-0.716,0.269-1.284,0.806-1.708c0.538-0.423,1.249-0.636,2.133-0.636
			c0.922,0,1.771,0.17,2.545,0.509l-0.336,0.938c-0.766-0.321-1.511-0.481-2.234-0.481c-0.571,0-1.018,0.122-1.339,0.368
			c-0.322,0.245-0.482,0.586-0.482,1.021c0,0.321,0.059,0.585,0.178,0.79s0.318,0.394,0.6,0.564c0.281,0.172,0.712,0.36,1.292,0.568
			c0.973,0.347,1.643,0.719,2.009,1.117C109.97,583.065,110.153,583.582,110.153,584.217z"/>
		<path fill="#666766" d="M116.171,586.686l-0.209-0.989h-0.051c-0.347,0.436-0.693,0.73-1.038,0.886
			c-0.345,0.154-0.776,0.23-1.292,0.23c-0.69,0-1.23-0.178-1.622-0.532c-0.391-0.355-0.587-0.861-0.587-1.519
			c0-1.403,1.124-2.141,3.371-2.209l1.181-0.037v-0.432c0-0.547-0.118-0.949-0.352-1.21c-0.235-0.26-0.611-0.39-1.127-0.39
			c-0.58,0-1.236,0.178-1.968,0.532l-0.324-0.807c0.343-0.187,0.718-0.332,1.126-0.438c0.409-0.105,0.818-0.158,1.229-0.158
			c0.83,0,1.444,0.185,1.844,0.552c0.4,0.369,0.6,0.959,0.6,1.771v4.748h-0.781V586.686z M113.791,585.943
			c0.656,0,1.171-0.182,1.545-0.54c0.375-0.359,0.562-0.863,0.562-1.512v-0.629l-1.054,0.045c-0.838,0.029-1.442,0.16-1.812,0.392
			c-0.371,0.229-0.556,0.589-0.556,1.076c0,0.381,0.115,0.67,0.346,0.868C113.053,585.844,113.376,585.943,113.791,585.943z"/>
		<path fill="#666766" d="M123.883,586.686v-4.5c0-0.566-0.129-0.989-0.387-1.27c-0.258-0.28-0.662-0.42-1.212-0.42
			c-0.728,0-1.261,0.197-1.6,0.591s-0.508,1.043-0.508,1.948v3.649h-1.054v-6.956h0.857l0.171,0.951h0.051
			c0.216-0.343,0.519-0.607,0.908-0.797c0.389-0.188,0.823-0.281,1.301-0.281c0.838,0,1.468,0.201,1.892,0.605
			c0.424,0.404,0.635,1.05,0.635,1.938v4.538h-1.054V586.686z"/>
		<path fill="#666766" d="M136.471,586.686l-1.155-2.95h-3.72l-1.143,2.95h-1.092l3.669-9.317h0.908l3.65,9.317H136.471z
			 M134.979,582.763l-1.079-2.876c-0.14-0.362-0.284-0.81-0.432-1.339c-0.093,0.406-0.227,0.854-0.4,1.339l-1.092,2.876H134.979z"/>
		<path fill="#666766" d="M143.466,586.686v-4.5c0-0.566-0.129-0.989-0.387-1.27c-0.258-0.28-0.662-0.42-1.212-0.42
			c-0.728,0-1.261,0.197-1.6,0.591s-0.508,1.043-0.508,1.948v3.649h-1.054v-6.956h0.857l0.171,0.951h0.051
			c0.216-0.343,0.519-0.607,0.908-0.797c0.389-0.188,0.823-0.281,1.301-0.281c0.838,0,1.468,0.201,1.892,0.605
			c0.424,0.404,0.635,1.05,0.635,1.938v4.538h-1.054V586.686z"/>
		<path fill="#666766" d="M148.931,585.943c0.186,0,0.366-0.016,0.54-0.042c0.174-0.027,0.311-0.057,0.413-0.085v0.806
			c-0.114,0.055-0.282,0.101-0.505,0.137c-0.222,0.036-0.422,0.055-0.6,0.055c-1.346,0-2.019-0.709-2.019-2.128v-4.139h-0.997
			v-0.508l0.997-0.438l0.444-1.485h0.609v1.612h2.019v0.817h-2.019v4.095c0,0.42,0.1,0.74,0.298,0.966
			C148.309,585.831,148.584,585.943,148.931,585.943z"/>
		<path fill="#666766" d="M157.278,583.201c0,1.134-0.286,2.02-0.857,2.656c-0.571,0.636-1.36,0.955-2.368,0.955
			c-0.622,0-1.174-0.146-1.657-0.438c-0.482-0.293-0.855-0.711-1.117-1.258c-0.262-0.545-0.394-1.186-0.394-1.916
			c0-1.135,0.284-2.019,0.851-2.65c0.567-0.632,1.354-0.949,2.361-0.949c0.973,0,1.747,0.324,2.32,0.972
			C156.992,581.221,157.278,582.096,157.278,583.201z M151.978,583.201c0,0.889,0.178,1.564,0.533,2.031
			c0.355,0.465,0.878,0.696,1.568,0.696s1.213-0.23,1.571-0.693c0.357-0.464,0.536-1.143,0.536-2.034
			c0-0.885-0.179-1.557-0.536-2.016c-0.358-0.459-0.886-0.689-1.584-0.689c-0.69,0-1.21,0.227-1.562,0.68
			S151.978,582.304,151.978,583.201z"/>
		<path fill="#666766" d="M163.886,586.686v-4.5c0-0.566-0.129-0.989-0.387-1.27s-0.662-0.42-1.212-0.42
			c-0.728,0-1.261,0.197-1.6,0.591s-0.508,1.043-0.508,1.948v3.649h-1.054v-6.956h0.857l0.171,0.951h0.051
			c0.216-0.343,0.519-0.607,0.908-0.797c0.389-0.188,0.823-0.281,1.301-0.281c0.838,0,1.468,0.201,1.892,0.605
			c0.424,0.404,0.635,1.05,0.635,1.938v4.538h-1.054V586.686z"/>
		<path fill="#666766" d="M167.016,577.844c0-0.242,0.059-0.418,0.178-0.529c0.119-0.112,0.267-0.17,0.444-0.17
			c0.169,0,0.315,0.059,0.438,0.173c0.123,0.113,0.184,0.29,0.184,0.526s-0.062,0.413-0.184,0.529s-0.269,0.175-0.438,0.175
			c-0.178,0-0.326-0.059-0.444-0.175C167.076,578.257,167.016,578.08,167.016,577.844z M168.158,586.686h-1.054v-6.957h1.054
			V586.686z"/>
		<path fill="#666766" d="M176.397,583.201c0,1.134-0.286,2.02-0.857,2.656c-0.571,0.636-1.36,0.955-2.368,0.955
			c-0.622,0-1.174-0.146-1.657-0.438c-0.482-0.293-0.855-0.711-1.117-1.258c-0.262-0.545-0.394-1.186-0.394-1.916
			c0-1.135,0.284-2.019,0.851-2.65s1.354-0.949,2.361-0.949c0.973,0,1.747,0.324,2.32,0.972
			C176.111,581.221,176.397,582.096,176.397,583.201z M171.097,583.201c0,0.889,0.178,1.564,0.533,2.031
			c0.355,0.465,0.878,0.696,1.568,0.696c0.69,0,1.213-0.23,1.571-0.693c0.357-0.464,0.536-1.143,0.536-2.034
			c0-0.885-0.179-1.557-0.536-2.016c-0.358-0.459-0.886-0.689-1.584-0.689c-0.69,0-1.21,0.227-1.562,0.68
			S171.097,582.304,171.097,583.201z"/>
	</g>
</g>
<g>
	<g>
		<path fill="#666766" d="M176.212,560.482c0,0.815-0.296,1.452-0.889,1.909c-0.593,0.457-1.396,0.687-2.412,0.687
			c-1.1,0-1.947-0.143-2.539-0.426v-1.041c0.381,0.16,0.795,0.287,1.244,0.381c0.449,0.094,0.893,0.141,1.333,0.141
			c0.719,0,1.261-0.137,1.625-0.41c0.364-0.271,0.546-0.651,0.546-1.139c0-0.322-0.064-0.586-0.193-0.791
			c-0.129-0.205-0.345-0.396-0.647-0.568c-0.303-0.173-0.763-0.37-1.381-0.59c-0.863-0.309-1.48-0.675-1.851-1.098
			c-0.37-0.424-0.555-0.977-0.555-1.657c0-0.715,0.269-1.284,0.806-1.708c0.538-0.423,1.249-0.635,2.133-0.635
			c0.922,0,1.771,0.17,2.545,0.508l-0.336,0.939c-0.766-0.321-1.511-0.482-2.234-0.482c-0.571,0-1.018,0.123-1.339,0.369
			c-0.322,0.245-0.482,0.586-0.482,1.021c0,0.321,0.059,0.585,0.178,0.79c0.119,0.205,0.318,0.395,0.6,0.565
			c0.281,0.171,0.712,0.359,1.292,0.567c0.973,0.348,1.643,0.72,2.009,1.117C176.029,559.331,176.212,559.848,176.212,560.482z"/>
		<path fill="#666766" d="M182.23,562.951l-0.209-0.99h-0.051c-0.347,0.436-0.693,0.731-1.038,0.886
			c-0.345,0.154-0.776,0.231-1.292,0.231c-0.69,0-1.23-0.178-1.622-0.533c-0.391-0.354-0.587-0.861-0.587-1.518
			c0-1.404,1.124-2.142,3.371-2.209l1.181-0.037v-0.433c0-0.547-0.118-0.948-0.352-1.21c-0.235-0.26-0.611-0.39-1.127-0.39
			c-0.58,0-1.236,0.178-1.968,0.533l-0.324-0.808c0.343-0.187,0.718-0.332,1.126-0.438c0.409-0.106,0.818-0.159,1.229-0.159
			c0.83,0,1.444,0.185,1.844,0.552c0.4,0.369,0.6,0.959,0.6,1.771v4.748h-0.781V562.951z M179.85,562.209
			c0.656,0,1.171-0.181,1.545-0.54c0.375-0.359,0.562-0.863,0.562-1.511v-0.629l-1.054,0.045c-0.838,0.028-1.442,0.16-1.812,0.391
			c-0.371,0.23-0.556,0.589-0.556,1.076c0,0.381,0.115,0.67,0.346,0.869S179.435,562.209,179.85,562.209z"/>
		<path fill="#666766" d="M189.942,562.951v-4.5c0-0.567-0.129-0.99-0.387-1.271c-0.258-0.279-0.662-0.42-1.212-0.42
			c-0.728,0-1.261,0.197-1.6,0.591c-0.339,0.395-0.508,1.043-0.508,1.948v3.65h-1.054v-6.957h0.857l0.171,0.952h0.051
			c0.216-0.344,0.519-0.608,0.908-0.797c0.389-0.189,0.823-0.282,1.301-0.282c0.838,0,1.468,0.202,1.892,0.605
			c0.424,0.404,0.635,1.051,0.635,1.938v4.539h-1.054V562.951z"/>
		<path fill="#666766" d="M195.408,562.209c0.186,0,0.366-0.015,0.54-0.042c0.174-0.027,0.311-0.056,0.413-0.085v0.806
			c-0.114,0.056-0.282,0.102-0.505,0.138c-0.222,0.035-0.422,0.054-0.6,0.054c-1.346,0-2.019-0.709-2.019-2.127v-4.139h-0.997
			v-0.509l0.997-0.438l0.444-1.485h0.609v1.612h2.019v0.818h-2.019v4.095c0,0.419,0.1,0.74,0.298,0.965
			C194.786,562.097,195.061,562.209,195.408,562.209z"/>
		<path fill="#666766" d="M202.028,562.951l-0.209-0.99h-0.051c-0.347,0.436-0.693,0.731-1.038,0.886s-0.776,0.231-1.292,0.231
			c-0.69,0-1.23-0.178-1.622-0.533c-0.391-0.354-0.587-0.861-0.587-1.518c0-1.404,1.124-2.142,3.371-2.209l1.181-0.037v-0.433
			c0-0.547-0.118-0.948-0.352-1.21c-0.235-0.26-0.611-0.39-1.127-0.39c-0.58,0-1.236,0.178-1.968,0.533l-0.324-0.808
			c0.343-0.187,0.718-0.332,1.126-0.438c0.409-0.106,0.818-0.159,1.229-0.159c0.83,0,1.444,0.185,1.844,0.552
			c0.4,0.369,0.6,0.959,0.6,1.771v4.748h-0.781V562.951z M199.648,562.209c0.656,0,1.171-0.181,1.545-0.54
			c0.375-0.359,0.562-0.863,0.562-1.511v-0.629l-1.054,0.045c-0.838,0.028-1.442,0.16-1.812,0.391
			c-0.371,0.23-0.556,0.589-0.556,1.076c0,0.381,0.115,0.67,0.346,0.869C198.911,562.109,199.233,562.209,199.648,562.209z"/>
		<path fill="#666766" d="M212.489,554.502c-1.02,0-1.825,0.34-2.416,1.021c-0.59,0.679-0.885,1.608-0.885,2.788
			c0,1.216,0.285,2.153,0.854,2.815s1.38,0.993,2.434,0.993c0.647,0,1.386-0.116,2.215-0.35v0.946
			c-0.643,0.24-1.437,0.361-2.38,0.361c-1.367,0-2.421-0.415-3.165-1.244c-0.742-0.829-1.114-2.008-1.114-3.535
			c0-0.957,0.179-1.795,0.537-2.514c0.357-0.72,0.874-1.274,1.549-1.664c0.675-0.389,1.469-0.584,2.383-0.584
			c0.973,0,1.824,0.178,2.552,0.533l-0.457,0.928C213.894,554.668,213.192,554.502,212.489,554.502z"/>
		<path fill="#666766" d="M217.612,562.951h-1.054v-9.877h1.054V562.951z"/>
		<path fill="#666766" d="M224.125,562.951l-0.209-0.99h-0.051c-0.347,0.436-0.693,0.731-1.038,0.886
			c-0.345,0.154-0.776,0.231-1.292,0.231c-0.69,0-1.23-0.178-1.622-0.533c-0.391-0.354-0.587-0.861-0.587-1.518
			c0-1.404,1.124-2.142,3.371-2.209l1.181-0.037v-0.433c0-0.547-0.118-0.948-0.352-1.21c-0.235-0.26-0.611-0.39-1.127-0.39
			c-0.58,0-1.236,0.178-1.968,0.533l-0.324-0.808c0.343-0.187,0.718-0.332,1.126-0.438c0.409-0.106,0.818-0.159,1.229-0.159
			c0.83,0,1.444,0.185,1.844,0.552c0.4,0.369,0.6,0.959,0.6,1.771v4.748h-0.781V562.951z M221.744,562.209
			c0.656,0,1.171-0.181,1.545-0.54c0.375-0.359,0.562-0.863,0.562-1.511v-0.629l-1.054,0.045c-0.838,0.028-1.442,0.16-1.812,0.391
			c-0.371,0.23-0.556,0.589-0.556,1.076c0,0.381,0.115,0.67,0.346,0.869C221.007,562.109,221.33,562.209,221.744,562.209z"/>
		<path fill="#666766" d="M230.25,555.867c0.309,0,0.586,0.024,0.832,0.076l-0.146,0.978c-0.288-0.062-0.542-0.095-0.762-0.095
			c-0.563,0-1.044,0.229-1.444,0.686c-0.399,0.457-0.6,1.025-0.6,1.707v3.732h-1.054v-6.957h0.87l0.121,1.289h0.051
			c0.258-0.453,0.569-0.803,0.933-1.048C229.415,555.99,229.814,555.867,230.25,555.867z"/>
		<path fill="#666766" d="M236.661,562.951l-0.209-0.99h-0.051c-0.347,0.436-0.693,0.731-1.038,0.886
			c-0.345,0.154-0.776,0.231-1.292,0.231c-0.69,0-1.23-0.178-1.622-0.533c-0.391-0.354-0.587-0.861-0.587-1.518
			c0-1.404,1.124-2.142,3.371-2.209l1.181-0.037v-0.433c0-0.547-0.118-0.948-0.352-1.21c-0.235-0.26-0.611-0.39-1.127-0.39
			c-0.58,0-1.236,0.178-1.968,0.533l-0.324-0.808c0.343-0.187,0.718-0.332,1.126-0.438c0.409-0.106,0.818-0.159,1.229-0.159
			c0.83,0,1.444,0.185,1.844,0.552c0.4,0.369,0.6,0.959,0.6,1.771v4.748h-0.781V562.951z M234.281,562.209
			c0.656,0,1.171-0.181,1.545-0.54c0.375-0.359,0.562-0.863,0.562-1.511v-0.629l-1.054,0.045c-0.838,0.028-1.442,0.16-1.812,0.391
			c-0.371,0.23-0.556,0.589-0.556,1.076c0,0.381,0.115,0.67,0.346,0.869S233.866,562.209,234.281,562.209z"/>
	</g>
</g>
<g>
	<g>
		<path fill="#666766" d="M259.101,529.448h2.622c1.231,0,2.122,0.185,2.672,0.552c0.55,0.369,0.825,0.95,0.825,1.746
			c0,0.55-0.153,1.004-0.46,1.361c-0.307,0.356-0.754,0.59-1.342,0.694v0.063c1.409,0.241,2.114,0.98,2.114,2.222
			c0,0.829-0.28,1.478-0.841,1.942c-0.561,0.466-1.345,0.697-2.352,0.697h-3.237L259.101,529.448L259.101,529.448z M260.18,533.422
			h1.777c0.762,0,1.31-0.119,1.644-0.357c0.334-0.239,0.501-0.644,0.501-1.211c0-0.52-0.186-0.896-0.559-1.125
			c-0.373-0.23-0.965-0.348-1.777-0.348h-1.587L260.18,533.422L260.18,533.422z M260.18,534.336v3.473h1.936
			c0.749,0,1.313-0.146,1.691-0.436c0.379-0.29,0.568-0.743,0.568-1.361c0-0.574-0.193-0.999-0.581-1.27
			c-0.387-0.271-0.976-0.406-1.768-0.406H260.18z"/>
		<path fill="#666766" d="M273.37,535.244c0,1.134-0.286,2.02-0.857,2.656c-0.571,0.636-1.36,0.955-2.368,0.955
			c-0.622,0-1.174-0.146-1.657-0.438c-0.482-0.293-0.855-0.711-1.117-1.258c-0.262-0.545-0.394-1.186-0.394-1.916
			c0-1.135,0.284-2.019,0.851-2.65c0.567-0.632,1.354-0.948,2.361-0.948c0.973,0,1.747,0.323,2.32,0.971
			C273.083,533.264,273.37,534.139,273.37,535.244z M268.07,535.244c0,0.889,0.178,1.564,0.533,2.031
			c0.355,0.465,0.878,0.696,1.568,0.696s1.213-0.23,1.571-0.693c0.357-0.464,0.536-1.143,0.536-2.034
			c0-0.885-0.179-1.557-0.536-2.016c-0.358-0.459-0.886-0.689-1.584-0.689c-0.69,0-1.21,0.227-1.562,0.68
			S268.07,534.347,268.07,535.244z"/>
		<path fill="#666766" d="M279.705,536.83c0,0.648-0.241,1.146-0.724,1.498c-0.482,0.352-1.159,0.527-2.031,0.527
			c-0.923,0-1.642-0.146-2.158-0.438v-0.979c0.335,0.171,0.692,0.304,1.075,0.4c0.384,0.098,0.753,0.146,1.108,0.146
			c0.55,0,0.974-0.088,1.27-0.265c0.296-0.176,0.444-0.442,0.444-0.803c0-0.271-0.117-0.503-0.352-0.695
			c-0.236-0.191-0.693-0.42-1.375-0.683c-0.647-0.241-1.107-0.452-1.381-0.632c-0.274-0.181-0.477-0.384-0.609-0.612
			c-0.132-0.228-0.199-0.501-0.199-0.818c0-0.566,0.23-1.015,0.691-1.343s1.094-0.491,1.898-0.491c0.748,0,1.48,0.151,2.195,0.456
			l-0.374,0.857c-0.698-0.288-1.331-0.432-1.897-0.432c-0.5,0-0.877,0.077-1.131,0.233c-0.254,0.156-0.381,0.372-0.381,0.647
			c0,0.187,0.049,0.345,0.143,0.476c0.096,0.132,0.25,0.257,0.461,0.375s0.617,0.29,1.219,0.514
			c0.825,0.302,1.383,0.604,1.672,0.908C279.561,535.986,279.705,536.369,279.705,536.83z"/>
		<path fill="#666766" d="M283.666,537.986c0.186,0,0.366-0.016,0.539-0.042c0.174-0.027,0.312-0.057,0.413-0.085v0.806
			c-0.114,0.055-0.282,0.101-0.505,0.137c-0.222,0.036-0.422,0.055-0.6,0.055c-1.346,0-2.019-0.709-2.019-2.127v-4.14h-0.997v-0.508
			l0.997-0.438l0.444-1.485h0.609v1.612h2.019v0.817h-2.019v4.095c0,0.42,0.1,0.74,0.299,0.966
			C283.046,537.874,283.318,537.986,283.666,537.986z"/>
		<path fill="#666766" d="M292.014,535.244c0,1.134-0.286,2.02-0.857,2.656c-0.571,0.636-1.36,0.955-2.367,0.955
			c-0.623,0-1.175-0.146-1.657-0.438c-0.482-0.293-0.854-0.711-1.117-1.258c-0.263-0.545-0.394-1.186-0.394-1.916
			c0-1.135,0.283-2.019,0.851-2.65c0.568-0.632,1.354-0.948,2.361-0.948c0.974,0,1.747,0.323,2.319,0.971
			C291.727,533.264,292.014,534.139,292.014,535.244z M286.713,535.244c0,0.889,0.178,1.564,0.533,2.031
			c0.355,0.465,0.878,0.696,1.568,0.696c0.689,0,1.213-0.23,1.57-0.693c0.357-0.464,0.537-1.143,0.537-2.034
			c0-0.885-0.18-1.557-0.537-2.016c-0.357-0.459-0.885-0.689-1.584-0.689c-0.689,0-1.21,0.227-1.561,0.68
			C286.889,533.672,286.713,534.347,286.713,535.244z"/>
		<path fill="#666766" d="M298.621,538.729v-4.5c0-0.566-0.129-0.989-0.387-1.27c-0.259-0.279-0.662-0.42-1.213-0.42
			c-0.729,0-1.262,0.197-1.6,0.591c-0.338,0.395-0.508,1.043-0.508,1.948v3.65h-1.054v-6.957h0.856l0.172,0.951h0.051
			c0.216-0.343,0.519-0.607,0.908-0.797c0.389-0.188,0.822-0.281,1.301-0.281c0.838,0,1.469,0.201,1.892,0.605
			s0.635,1.05,0.635,1.938v4.539L298.621,538.729L298.621,538.729z"/>
	</g>
</g>
<g>
	<g>
		<path fill="#666766" d="M322.135,506.189c0,0.815-0.296,1.452-0.889,1.909c-0.592,0.457-1.396,0.687-2.412,0.687
			c-1.1,0-1.946-0.143-2.539-0.426v-1.041c0.381,0.161,0.796,0.288,1.244,0.381c0.449,0.094,0.894,0.141,1.334,0.141
			c0.719,0,1.261-0.137,1.625-0.41c0.363-0.271,0.545-0.651,0.545-1.139c0-0.322-0.063-0.586-0.193-0.791
			c-0.129-0.205-0.345-0.395-0.646-0.568c-0.303-0.173-0.764-0.369-1.381-0.59c-0.863-0.309-1.48-0.675-1.853-1.098
			c-0.369-0.424-0.555-0.977-0.555-1.657c0-0.715,0.27-1.284,0.807-1.708c0.537-0.423,1.248-0.635,2.134-0.635
			c0.922,0,1.771,0.17,2.545,0.508l-0.336,0.939c-0.768-0.321-1.513-0.482-2.234-0.482c-0.572,0-1.018,0.123-1.34,0.369
			c-0.322,0.245-0.482,0.586-0.482,1.021c0,0.321,0.06,0.585,0.179,0.79c0.118,0.205,0.317,0.395,0.6,0.565
			c0.281,0.171,0.713,0.36,1.292,0.568c0.974,0.347,1.644,0.719,2.009,1.116C321.952,505.038,322.135,505.555,322.135,506.189z"/>
		<path fill="#666766" d="M328.152,508.658l-0.209-0.99h-0.052c-0.348,0.436-0.692,0.731-1.036,0.886
			c-0.347,0.154-0.775,0.231-1.293,0.231c-0.689,0-1.23-0.178-1.621-0.533c-0.393-0.355-0.589-0.861-0.589-1.518
			c0-1.404,1.125-2.142,3.371-2.209l1.183-0.037v-0.433c0-0.547-0.119-0.948-0.354-1.21c-0.233-0.26-0.608-0.39-1.127-0.39
			c-0.58,0-1.233,0.178-1.967,0.533l-0.324-0.808c0.344-0.187,0.719-0.332,1.127-0.438c0.408-0.106,0.818-0.159,1.229-0.159
			c0.828,0,1.442,0.185,1.844,0.552c0.4,0.369,0.6,0.959,0.6,1.771v4.748h-0.781V508.658z M325.773,507.916
			c0.653,0,1.17-0.181,1.545-0.54s0.562-0.863,0.562-1.511v-0.629l-1.055,0.045c-0.838,0.028-1.441,0.16-1.812,0.391
			c-0.368,0.23-0.555,0.589-0.555,1.076c0,0.381,0.115,0.67,0.346,0.869C325.035,507.816,325.357,507.916,325.773,507.916z"/>
		<path fill="#666766" d="M335.865,508.658v-4.5c0-0.567-0.129-0.99-0.389-1.271c-0.258-0.278-0.661-0.42-1.212-0.42
			c-0.728,0-1.261,0.197-1.6,0.591c-0.339,0.395-0.508,1.043-0.508,1.948v3.65h-1.055V501.7h0.857l0.171,0.952h0.051
			c0.217-0.344,0.52-0.608,0.907-0.797c0.39-0.188,0.823-0.282,1.302-0.282c0.838,0,1.47,0.202,1.893,0.605
			c0.423,0.404,0.635,1.05,0.635,1.938v4.539h-1.053V508.658z"/>
		<path fill="#666766" d="M343.699,508.658h-1.08v-9.28h5.174v0.958h-4.094v3.396h3.846v0.959h-3.846V508.658L343.699,508.658z"/>
		<path fill="#666766" d="M352.344,501.574c0.31,0,0.586,0.024,0.832,0.076l-0.146,0.978c-0.288-0.062-0.542-0.095-0.763-0.095
			c-0.562,0-1.044,0.229-1.443,0.686s-0.601,1.025-0.601,1.707v3.732h-1.054v-6.957h0.869l0.121,1.289h0.051
			c0.258-0.453,0.569-0.804,0.934-1.048C351.508,501.697,351.908,501.574,352.344,501.574z"/>
		<path fill="#666766" d="M358.755,508.658l-0.21-0.99h-0.051c-0.347,0.436-0.692,0.731-1.037,0.886
			c-0.345,0.155-0.775,0.231-1.292,0.231c-0.689,0-1.23-0.178-1.622-0.533c-0.392-0.354-0.587-0.861-0.587-1.518
			c0-1.404,1.124-2.142,3.37-2.209l1.182-0.037v-0.433c0-0.547-0.118-0.948-0.353-1.21c-0.235-0.26-0.61-0.39-1.127-0.39
			c-0.58,0-1.235,0.178-1.969,0.533l-0.323-0.808c0.344-0.187,0.719-0.332,1.127-0.438c0.408-0.106,0.817-0.159,1.229-0.159
			c0.829,0,1.444,0.185,1.844,0.552c0.4,0.369,0.601,0.959,0.601,1.771v4.748h-0.781V508.658z M356.375,507.916
			c0.655,0,1.171-0.181,1.545-0.54c0.375-0.359,0.562-0.863,0.562-1.511v-0.629l-1.056,0.045c-0.838,0.028-1.44,0.16-1.812,0.391
			c-0.371,0.231-0.557,0.589-0.557,1.076c0,0.381,0.115,0.67,0.347,0.869C355.636,507.816,355.96,507.916,356.375,507.916z"/>
		<path fill="#666766" d="M366.468,508.658v-4.5c0-0.567-0.129-0.99-0.388-1.271c-0.258-0.278-0.662-0.42-1.212-0.42
			c-0.729,0-1.261,0.197-1.601,0.591c-0.339,0.395-0.508,1.043-0.508,1.948v3.65h-1.054V501.7h0.856l0.172,0.952h0.051
			c0.216-0.344,0.519-0.608,0.907-0.797c0.39-0.188,0.822-0.282,1.302-0.282c0.838,0,1.469,0.202,1.892,0.605
			c0.423,0.404,0.636,1.05,0.636,1.938v4.539h-1.054V508.658z"/>
		<path fill="#666766" d="M372.466,508.785c-1.007,0-1.787-0.311-2.339-0.93c-0.553-0.62-0.828-1.497-0.828-2.632
			c0-1.164,0.28-2.062,0.841-2.697c0.562-0.636,1.359-0.952,2.396-0.952c0.335,0,0.669,0.036,1.004,0.106
			c0.334,0.072,0.596,0.157,0.787,0.254l-0.324,0.896c-0.231-0.093-0.486-0.17-0.762-0.231c-0.276-0.061-0.52-0.092-0.73-0.092
			c-1.413,0-2.119,0.9-2.119,2.703c0,0.855,0.173,1.512,0.518,1.969s0.855,0.687,1.533,0.687c0.579,0,1.175-0.125,1.783-0.375v0.934
			C373.759,508.664,373.173,508.785,372.466,508.785z"/>
		<path fill="#666766" d="M375.786,499.816c0-0.242,0.06-0.418,0.178-0.53s0.268-0.169,0.444-0.169c0.169,0,0.314,0.058,0.438,0.172
			s0.186,0.29,0.186,0.527c0,0.235-0.062,0.412-0.186,0.528c-0.122,0.116-0.269,0.175-0.438,0.175c-0.178,0-0.326-0.059-0.444-0.175
			S375.786,500.053,375.786,499.816z M376.929,508.658h-1.054v-6.957h1.054V508.658z"/>
		<path fill="#666766" d="M383.651,506.76c0,0.648-0.242,1.147-0.725,1.498c-0.482,0.353-1.16,0.527-2.032,0.527
			c-0.922,0-1.642-0.146-2.157-0.438v-0.979c0.335,0.17,0.692,0.303,1.075,0.399c0.384,0.098,0.753,0.146,1.107,0.146
			c0.551,0,0.974-0.088,1.271-0.264c0.296-0.177,0.445-0.443,0.445-0.804c0-0.271-0.119-0.503-0.354-0.694
			c-0.235-0.192-0.693-0.42-1.374-0.684c-0.648-0.241-1.108-0.452-1.381-0.632c-0.273-0.18-0.478-0.384-0.609-0.612
			c-0.134-0.229-0.2-0.501-0.2-0.818c0-0.566,0.23-1.015,0.692-1.342c0.461-0.328,1.094-0.492,1.896-0.492
			c0.749,0,1.481,0.151,2.196,0.457l-0.375,0.856c-0.697-0.288-1.33-0.432-1.897-0.432c-0.498,0-0.876,0.078-1.13,0.233
			c-0.254,0.156-0.381,0.372-0.381,0.647c0,0.187,0.048,0.345,0.144,0.476c0.096,0.133,0.249,0.258,0.461,0.375
			c0.211,0.118,0.617,0.29,1.219,0.515c0.825,0.301,1.381,0.604,1.672,0.908C383.504,505.912,383.651,506.299,383.651,506.76z"/>
		<path fill="#666766" d="M388.147,508.785c-1.008,0-1.787-0.311-2.34-0.93c-0.553-0.62-0.828-1.497-0.828-2.632
			c0-1.164,0.279-2.062,0.842-2.697c0.561-0.636,1.357-0.952,2.395-0.952c0.336,0,0.67,0.036,1.004,0.106
			c0.334,0.072,0.598,0.157,0.787,0.254l-0.324,0.896c-0.23-0.093-0.484-0.17-0.762-0.231c-0.275-0.061-0.518-0.092-0.729-0.092
			c-1.414,0-2.119,0.9-2.119,2.703c0,0.855,0.172,1.512,0.516,1.969c0.346,0.457,0.857,0.687,1.533,0.687
			c0.58,0,1.176-0.125,1.785-0.375v0.934C389.438,508.664,388.852,508.785,388.147,508.785z"/>
		<path fill="#666766" d="M397.559,505.174c0,1.134-0.285,2.021-0.855,2.656c-0.572,0.637-1.361,0.955-2.367,0.955
			c-0.623,0-1.176-0.146-1.658-0.438c-0.48-0.293-0.854-0.711-1.117-1.258c-0.262-0.545-0.393-1.185-0.393-1.916
			c0-1.135,0.283-2.018,0.85-2.649c0.568-0.634,1.355-0.949,2.361-0.949c0.975,0,1.748,0.324,2.32,0.971
			C397.272,503.193,397.559,504.068,397.559,505.174z M392.26,505.174c0,0.89,0.178,1.565,0.533,2.031
			c0.355,0.465,0.877,0.697,1.566,0.697s1.215-0.231,1.57-0.694c0.357-0.464,0.537-1.142,0.537-2.034
			c0-0.885-0.18-1.557-0.537-2.016c-0.355-0.459-0.885-0.689-1.584-0.689c-0.688,0-1.209,0.228-1.561,0.681
			C392.432,503.602,392.26,504.276,392.26,505.174z"/>
	</g>
</g>
<g>
	<g>
		<path fill="#666766" d="M422.467,485.307c0,0.816-0.295,1.453-0.889,1.91c-0.592,0.457-1.396,0.687-2.412,0.687
			c-1.1,0-1.945-0.143-2.539-0.427v-1.041c0.381,0.161,0.797,0.288,1.244,0.382c0.449,0.094,0.893,0.141,1.334,0.141
			c0.719,0,1.26-0.137,1.625-0.41c0.363-0.271,0.545-0.651,0.545-1.139c0-0.322-0.064-0.586-0.193-0.791s-0.344-0.396-0.646-0.568
			s-0.762-0.37-1.381-0.59c-0.863-0.309-1.48-0.675-1.852-1.098c-0.369-0.424-0.555-0.977-0.555-1.657
			c0-0.715,0.27-1.284,0.807-1.708c0.537-0.423,1.248-0.635,2.133-0.635c0.924,0,1.771,0.17,2.545,0.508l-0.336,0.938
			c-0.766-0.32-1.512-0.481-2.234-0.481c-0.57,0-1.018,0.123-1.34,0.369c-0.32,0.245-0.482,0.586-0.482,1.021
			c0,0.321,0.061,0.585,0.178,0.79c0.119,0.205,0.32,0.395,0.602,0.565s0.713,0.359,1.293,0.567c0.973,0.348,1.643,0.72,2.008,1.117
			C422.286,484.155,422.467,484.672,422.467,485.307z"/>
		<path fill="#666766" d="M428.485,487.775l-0.209-0.99h-0.053c-0.346,0.436-0.691,0.73-1.035,0.886
			c-0.346,0.155-0.775,0.231-1.293,0.231c-0.689,0-1.23-0.179-1.621-0.533c-0.393-0.355-0.588-0.861-0.588-1.519
			c0-1.403,1.123-2.141,3.369-2.209l1.184-0.036v-0.433c0-0.547-0.119-0.949-0.354-1.21c-0.234-0.26-0.609-0.39-1.127-0.39
			c-0.58,0-1.234,0.178-1.969,0.532l-0.324-0.807c0.344-0.187,0.719-0.332,1.127-0.438c0.408-0.106,0.818-0.159,1.23-0.159
			c0.828,0,1.443,0.185,1.844,0.552c0.4,0.369,0.6,0.959,0.6,1.771v4.748h-0.781V487.775z M426.106,487.033
			c0.654,0,1.17-0.182,1.545-0.54c0.375-0.359,0.561-0.863,0.561-1.511v-0.63l-1.055,0.046c-0.838,0.028-1.441,0.159-1.812,0.391
			c-0.371,0.23-0.555,0.589-0.555,1.076c0,0.381,0.115,0.67,0.346,0.869C425.366,486.933,425.69,487.033,426.106,487.033z"/>
		<path fill="#666766" d="M436.198,487.775v-4.5c0-0.567-0.129-0.99-0.389-1.271c-0.258-0.279-0.66-0.42-1.211-0.42
			c-0.729,0-1.262,0.197-1.6,0.591c-0.34,0.395-0.508,1.043-0.508,1.948v3.65h-1.055v-6.957h0.857l0.17,0.951h0.051
			c0.217-0.343,0.52-0.607,0.908-0.797c0.391-0.188,0.822-0.282,1.301-0.282c0.84,0,1.471,0.202,1.893,0.606
			c0.424,0.404,0.635,1.05,0.635,1.938v4.539h-1.053V487.775z"/>
		<path fill="#666766" d="M450.36,483.047c0,1.531-0.416,2.702-1.248,3.513c-0.832,0.812-2.027,1.217-3.59,1.217h-2.57v-9.28h2.844
			c1.443,0,2.564,0.398,3.365,1.2C449.959,480.494,450.36,481.611,450.36,483.047z M449.217,483.084c0-1.21-0.305-2.122-0.912-2.735
			c-0.605-0.612-1.51-0.921-2.707-0.921h-1.566v7.414h1.312c1.287,0,2.254-0.314,2.902-0.947
			C448.893,485.261,449.217,484.324,449.217,483.084z"/>
		<path fill="#666766" d="M452.18,478.934c0-0.241,0.061-0.418,0.18-0.529c0.117-0.112,0.266-0.169,0.443-0.169
			c0.168,0,0.314,0.058,0.438,0.172s0.186,0.29,0.186,0.526s-0.062,0.413-0.186,0.529c-0.121,0.116-0.27,0.175-0.438,0.175
			c-0.178,0-0.326-0.059-0.443-0.175C452.241,479.347,452.18,479.17,452.18,478.934z M453.323,487.775h-1.055v-6.957h1.055V487.775z
			"/>
		<path fill="#666766" d="M458.497,487.902c-1.029,0-1.84-0.313-2.434-0.939c-0.596-0.626-0.893-1.496-0.893-2.609
			c0-1.12,0.275-2.012,0.828-2.672c0.551-0.66,1.293-0.989,2.225-0.989c0.871,0,1.562,0.286,2.068,0.859
			c0.508,0.573,0.762,1.329,0.762,2.27v0.667h-4.791c0.021,0.815,0.227,1.437,0.617,1.859c0.393,0.424,0.943,0.636,1.654,0.636
			c0.75,0,1.49-0.157,2.223-0.472v0.939c-0.373,0.161-0.727,0.275-1.059,0.347C459.368,487.867,458.965,487.902,458.497,487.902z
			 M458.211,481.574c-0.559,0-1.004,0.182-1.336,0.545c-0.332,0.364-0.529,0.868-0.588,1.512h3.637c0-0.665-0.146-1.174-0.443-1.527
			C459.184,481.751,458.76,481.574,458.211,481.574z"/>
		<path fill="#666766" d="M468.545,480.818v0.666l-1.289,0.151c0.119,0.148,0.227,0.343,0.318,0.581
			c0.092,0.239,0.139,0.509,0.139,0.811c0,0.682-0.23,1.225-0.697,1.631s-1.104,0.608-1.918,0.608c-0.207,0-0.4-0.017-0.584-0.051
			c-0.447,0.237-0.672,0.536-0.672,0.896c0,0.189,0.078,0.331,0.234,0.422s0.426,0.137,0.807,0.137h1.23
			c0.754,0,1.332,0.159,1.736,0.477s0.605,0.778,0.605,1.385c0,0.77-0.309,1.355-0.928,1.761c-0.617,0.404-1.52,0.606-2.703,0.606
			c-0.91,0-1.611-0.169-2.104-0.509c-0.494-0.339-0.738-0.815-0.738-1.435c0-0.423,0.135-0.789,0.404-1.099
			c0.271-0.31,0.652-0.519,1.145-0.629c-0.18-0.079-0.328-0.204-0.449-0.373c-0.119-0.171-0.18-0.366-0.18-0.592
			c0-0.254,0.066-0.476,0.203-0.667c0.135-0.188,0.35-0.374,0.641-0.552c-0.359-0.147-0.652-0.398-0.879-0.755
			c-0.229-0.356-0.34-0.762-0.34-1.219c0-0.763,0.229-1.351,0.686-1.763s1.105-0.618,1.943-0.618c0.361,0,0.689,0.042,0.982,0.127
			L468.545,480.818L468.545,480.818z M462.999,488.943c0,0.377,0.158,0.662,0.475,0.856c0.318,0.194,0.773,0.291,1.365,0.291
			c0.885,0,1.539-0.132,1.965-0.396c0.426-0.266,0.639-0.623,0.639-1.076c0-0.376-0.117-0.638-0.35-0.783s-0.672-0.219-1.314-0.219
			h-1.264c-0.479,0-0.85,0.113-1.115,0.342C463.131,488.188,462.999,488.516,462.999,488.943z M463.569,483.047
			c0,0.486,0.137,0.854,0.412,1.104s0.658,0.375,1.148,0.375c1.027,0,1.543-0.499,1.543-1.498c0-1.045-0.521-1.568-1.562-1.568
			c-0.494,0-0.875,0.134-1.143,0.4C463.7,482.126,463.569,482.521,463.569,483.047z"/>
		<path fill="#666766" d="M475.979,484.291c0,1.134-0.285,2.02-0.855,2.656c-0.572,0.637-1.361,0.955-2.369,0.955
			c-0.621,0-1.174-0.146-1.656-0.438c-0.482-0.293-0.854-0.711-1.117-1.258c-0.262-0.545-0.393-1.185-0.393-1.916
			c0-1.135,0.283-2.019,0.85-2.65c0.566-0.633,1.354-0.948,2.361-0.948c0.975,0,1.746,0.323,2.32,0.971
			C475.692,482.311,475.979,483.186,475.979,484.291z M470.678,484.291c0,0.889,0.18,1.565,0.533,2.031
			c0.355,0.465,0.879,0.696,1.568,0.696c0.688,0,1.213-0.23,1.57-0.693c0.357-0.464,0.535-1.143,0.535-2.034
			c0-0.885-0.178-1.557-0.535-2.016s-0.887-0.689-1.584-0.689c-0.689,0-1.211,0.227-1.562,0.68S470.678,483.395,470.678,484.291z"/>
	</g>
</g>
<g>
	<g>
		<path fill="#666766" d="M499.309,352.564c0,0.939-0.32,1.662-0.963,2.168c-0.641,0.506-1.557,0.759-2.75,0.759h-1.092v3.649h-1.08
			v-9.279h2.406C498.149,349.861,499.309,350.764,499.309,352.564z M494.504,354.564h0.971c0.955,0,1.648-0.153,2.076-0.463
			c0.426-0.309,0.641-0.804,0.641-1.484c0-0.614-0.201-1.071-0.604-1.371s-1.027-0.451-1.879-0.451h-1.205V354.564z"/>
		<path fill="#666766" d="M507.096,355.657c0,1.134-0.285,2.02-0.855,2.657c-0.572,0.637-1.361,0.955-2.367,0.955
			c-0.623,0-1.176-0.146-1.658-0.438c-0.48-0.292-0.854-0.711-1.117-1.257c-0.262-0.546-0.393-1.186-0.393-1.917
			c0-1.134,0.283-2.019,0.85-2.65c0.568-0.633,1.355-0.948,2.361-0.948c0.975,0,1.748,0.323,2.32,0.971
			C506.809,353.676,507.096,354.552,507.096,355.657z M501.797,355.657c0,0.889,0.178,1.565,0.533,2.03
			c0.354,0.465,0.877,0.698,1.566,0.698s1.215-0.231,1.57-0.694c0.357-0.465,0.537-1.143,0.537-2.035
			c0-0.885-0.18-1.557-0.537-2.016c-0.355-0.459-0.885-0.688-1.584-0.688c-0.688,0-1.209,0.227-1.561,0.679
			C501.969,354.083,501.797,354.76,501.797,355.657z"/>
		<path fill="#666766" d="M512.118,352.059c0.309,0,0.586,0.024,0.832,0.075l-0.146,0.978c-0.289-0.062-0.543-0.094-0.762-0.094
			c-0.562,0-1.045,0.229-1.445,0.686c-0.398,0.457-0.6,1.025-0.6,1.708v3.731h-1.053v-6.957h0.867l0.121,1.289h0.053
			c0.258-0.453,0.568-0.802,0.934-1.047C511.282,352.18,511.682,352.059,512.118,352.059z"/>
		<path fill="#666766" d="M516.497,358.398c0.188,0,0.367-0.014,0.541-0.041c0.172-0.027,0.311-0.057,0.412-0.086v0.807
			c-0.115,0.055-0.283,0.102-0.506,0.137c-0.223,0.036-0.422,0.055-0.6,0.055c-1.346,0-2.02-0.709-2.02-2.127v-4.139h-0.996v-0.508
			l0.996-0.438l0.443-1.485h0.609v1.612h2.02v0.818h-2.02v4.094c0,0.42,0.1,0.741,0.299,0.965
			C515.877,358.287,516.151,358.398,516.497,358.398z"/>
		<path fill="#666766" d="M519.893,359.143h-1.053v-9.877h1.053V359.143z"/>
		<path fill="#666766" d="M526.407,359.143l-0.211-0.99h-0.051c-0.348,0.436-0.691,0.73-1.037,0.886
			c-0.346,0.153-0.775,0.231-1.291,0.231c-0.689,0-1.23-0.179-1.623-0.533c-0.393-0.355-0.586-0.861-0.586-1.518
			c0-1.404,1.123-2.141,3.369-2.209l1.182-0.037v-0.433c0-0.546-0.117-0.949-0.354-1.209c-0.234-0.261-0.609-0.39-1.127-0.39
			c-0.58,0-1.234,0.178-1.967,0.533l-0.324-0.807c0.344-0.186,0.719-0.332,1.127-0.438c0.408-0.106,0.818-0.16,1.229-0.16
			c0.83,0,1.443,0.185,1.844,0.553s0.6,0.958,0.6,1.771v4.748H526.407z M524.026,358.398c0.654,0,1.172-0.18,1.545-0.539
			c0.375-0.36,0.562-0.863,0.562-1.512v-0.628l-1.055,0.044c-0.838,0.03-1.441,0.16-1.812,0.392
			c-0.369,0.229-0.557,0.589-0.557,1.075c0,0.381,0.115,0.672,0.346,0.871C523.288,358.3,523.612,358.398,524.026,358.398z"/>
		<path fill="#666766" d="M534.118,359.143v-4.5c0-0.567-0.129-0.99-0.387-1.271c-0.26-0.279-0.662-0.419-1.213-0.419
			c-0.729,0-1.262,0.197-1.6,0.59c-0.34,0.393-0.508,1.043-0.508,1.949v3.65h-1.055v-6.957h0.857l0.17,0.951h0.053
			c0.215-0.343,0.518-0.607,0.906-0.797c0.391-0.188,0.822-0.281,1.303-0.281c0.838,0,1.469,0.201,1.891,0.605
			c0.424,0.404,0.635,1.05,0.635,1.939v4.539H534.118z"/>
		<path fill="#666766" d="M542.071,358.208h-0.059c-0.484,0.707-1.213,1.06-2.184,1.06c-0.908,0-1.617-0.311-2.123-0.933
			s-0.758-1.506-0.758-2.653c0-1.146,0.254-2.037,0.762-2.672c0.508-0.634,1.215-0.951,2.119-0.951c0.945,0,1.668,0.342,2.172,1.027
			h0.082l-0.045-0.501l-0.025-0.489v-2.83h1.057v9.877h-0.857L542.071,358.208z M539.963,358.386c0.721,0,1.242-0.196,1.564-0.587
			c0.324-0.391,0.484-1.023,0.484-1.895v-0.223c0-0.985-0.162-1.688-0.49-2.11c-0.328-0.421-0.852-0.632-1.57-0.632
			c-0.619,0-1.092,0.24-1.42,0.721s-0.49,1.158-0.49,2.035c0,0.889,0.162,1.56,0.488,2.012
			C538.854,358.159,539.333,358.386,539.963,358.386z"/>
	</g>
</g>
<g>
	<g>
		<path fill="#4CA8DE" d="M368.922,450.768h-2.112v-5.782l0.021-0.95l0.034-1.039c-0.352,0.351-0.596,0.581-0.731,0.689
			l-1.147,0.924l-1.02-1.271l3.22-2.562h1.736L368.922,450.768L368.922,450.768z"/>
		<path fill="#4CA8DE" d="M374.268,449.298c-0.236,0.921-0.638,2.012-1.202,3.274h-1.505c0.297-1.212,0.526-2.356,0.69-3.433h1.914
			L374.268,449.298z"/>
		<path fill="#4CA8DE" d="M382.348,443.009c0,0.624-0.189,1.155-0.567,1.593c-0.378,0.438-0.909,0.738-1.593,0.902v0.041
			c0.807,0.102,1.417,0.346,1.831,0.734c0.415,0.391,0.622,0.915,0.622,1.576c0,0.962-0.348,1.709-1.045,2.245
			c-0.696,0.535-1.692,0.804-2.986,0.804c-1.085,0-2.046-0.181-2.886-0.54v-1.798c0.389,0.195,0.813,0.354,1.278,0.479
			s0.925,0.186,1.381,0.186c0.697,0,1.212-0.118,1.545-0.355s0.499-0.617,0.499-1.142c0-0.471-0.19-0.803-0.573-0.998
			c-0.384-0.196-0.993-0.294-1.832-0.294h-0.76v-1.62h0.772c0.773,0,1.341-0.103,1.699-0.306c0.356-0.201,0.536-0.55,0.536-1.042
			c0-0.757-0.475-1.135-1.423-1.135c-0.327,0-0.661,0.055-1.001,0.164s-0.717,0.299-1.132,0.567l-0.978-1.456
			c0.911-0.656,1.998-0.984,3.261-0.984c1.034,0,1.852,0.21,2.45,0.629C382.048,441.678,382.348,442.262,382.348,443.009z"/>
		<path fill="#4CA8DE" d="M390.674,445.771c0,1.744-0.287,3.036-0.857,3.875c-0.572,0.84-1.453,1.259-2.643,1.259
			c-1.152,0-2.021-0.434-2.607-1.3c-0.586-0.865-0.879-2.145-0.879-3.834c0-1.765,0.285-3.063,0.854-3.899
			c0.57-0.837,1.447-1.255,2.633-1.255c1.152,0,2.023,0.438,2.615,1.312C390.379,442.804,390.674,444.084,390.674,445.771z
			 M385.786,445.771c0,1.226,0.105,2.104,0.316,2.636c0.215,0.53,0.57,0.796,1.07,0.796c0.492,0,0.85-0.27,1.066-0.807
			c0.219-0.538,0.328-1.413,0.328-2.625c0-1.227-0.109-2.106-0.332-2.643c-0.221-0.536-0.574-0.804-1.062-0.804
			c-0.496,0-0.852,0.268-1.064,0.804C385.893,443.664,385.786,444.545,385.786,445.771z"/>
		<path fill="#4CA8DE" d="M398.665,445.771c0,1.744-0.285,3.036-0.857,3.875c-0.57,0.84-1.451,1.259-2.643,1.259
			c-1.152,0-2.021-0.434-2.607-1.3c-0.586-0.865-0.879-2.145-0.879-3.834c0-1.765,0.285-3.063,0.855-3.899
			c0.568-0.837,1.447-1.255,2.631-1.255c1.154,0,2.025,0.438,2.615,1.312C398.37,442.804,398.665,444.084,398.665,445.771z
			 M393.778,445.771c0,1.226,0.105,2.104,0.316,2.636c0.213,0.53,0.568,0.796,1.07,0.796c0.492,0,0.848-0.27,1.066-0.807
			c0.217-0.538,0.326-1.413,0.326-2.625c0-1.227-0.109-2.106-0.332-2.643c-0.221-0.536-0.574-0.804-1.061-0.804
			c-0.498,0-0.854,0.268-1.066,0.804C393.885,443.664,393.778,444.545,393.778,445.771z"/>
	</g>
</g>
<g>
	<g>
		<path fill="#666766" d="M572.415,304.848h-1.08v-4.367h-4.887v4.367h-1.08v-9.28h1.08v3.948h4.887v-3.948h1.08V304.848z"/>
		<path fill="#666766" d="M580.805,301.363c0,1.134-0.285,2.02-0.855,2.657c-0.572,0.637-1.361,0.955-2.367,0.955
			c-0.623,0-1.176-0.146-1.658-0.438c-0.48-0.292-0.854-0.711-1.117-1.257c-0.262-0.546-0.393-1.185-0.393-1.917
			c0-1.134,0.283-2.018,0.85-2.65c0.568-0.633,1.355-0.949,2.361-0.949c0.975,0,1.748,0.324,2.32,0.971
			C580.52,299.382,580.805,300.258,580.805,301.363z M575.506,301.363c0,0.889,0.178,1.566,0.533,2.031s0.877,0.698,1.566,0.698
			s1.215-0.232,1.57-0.695c0.357-0.464,0.537-1.142,0.537-2.035c0-0.884-0.18-1.556-0.537-2.015
			c-0.355-0.459-0.885-0.689-1.584-0.689c-0.688,0-1.209,0.227-1.561,0.679C575.678,299.789,575.506,300.466,575.506,301.363z"/>
		<path fill="#666766" d="M587.413,304.848v-4.5c0-0.567-0.129-0.99-0.387-1.27c-0.26-0.279-0.662-0.419-1.213-0.419
			c-0.729,0-1.262,0.197-1.6,0.59c-0.34,0.393-0.508,1.043-0.508,1.949v3.65h-1.055v-6.957h0.857l0.17,0.952h0.053
			c0.215-0.343,0.518-0.608,0.906-0.797c0.391-0.188,0.822-0.282,1.303-0.282c0.838,0,1.469,0.202,1.891,0.606
			c0.424,0.404,0.635,1.05,0.635,1.939v4.539H587.413L587.413,304.848z"/>
		<path fill="#666766" d="M596.325,297.891v0.667l-1.289,0.152c0.119,0.148,0.225,0.342,0.316,0.581
			c0.094,0.239,0.141,0.509,0.141,0.81c0,0.681-0.232,1.225-0.697,1.631c-0.467,0.406-1.104,0.609-1.918,0.609
			c-0.207,0-0.402-0.017-0.584-0.051c-0.447,0.237-0.672,0.535-0.672,0.895c0,0.19,0.078,0.331,0.234,0.422
			c0.156,0.091,0.426,0.137,0.807,0.137h1.23c0.754,0,1.332,0.159,1.736,0.476c0.404,0.317,0.605,0.779,0.605,1.384
			c0,0.77-0.311,1.357-0.928,1.761c-0.617,0.404-1.52,0.605-2.703,0.605c-0.91,0-1.611-0.169-2.104-0.508
			c-0.494-0.339-0.74-0.817-0.74-1.435c0-0.423,0.137-0.789,0.406-1.098c0.271-0.309,0.652-0.519,1.145-0.628
			c-0.18-0.081-0.328-0.205-0.449-0.375c-0.119-0.169-0.182-0.366-0.182-0.59c0-0.254,0.068-0.476,0.203-0.667
			c0.137-0.191,0.352-0.375,0.643-0.552c-0.359-0.148-0.652-0.4-0.879-0.755c-0.229-0.355-0.342-0.762-0.342-1.219
			c0-0.762,0.23-1.349,0.688-1.761c0.457-0.413,1.104-0.619,1.941-0.619c0.363,0,0.691,0.042,0.984,0.127H596.325L596.325,297.891z
			 M590.778,306.016c0,0.376,0.156,0.662,0.475,0.857c0.318,0.195,0.773,0.292,1.365,0.292c0.885,0,1.539-0.132,1.965-0.397
			c0.426-0.264,0.639-0.623,0.639-1.076c0-0.376-0.117-0.638-0.35-0.784c-0.232-0.146-0.672-0.219-1.314-0.219h-1.264
			c-0.479,0-0.85,0.114-1.117,0.343C590.911,305.261,590.778,305.588,590.778,306.016z M591.348,300.119
			c0,0.487,0.139,0.855,0.412,1.104c0.275,0.249,0.658,0.375,1.15,0.375c1.027,0,1.541-0.5,1.541-1.498
			c0-1.045-0.521-1.568-1.562-1.568c-0.494,0-0.875,0.133-1.143,0.4C591.481,299.199,591.348,299.594,591.348,300.119z"/>
		<path fill="#666766" d="M607.991,304.848h-1.27l-3.383-4.5l-0.971,0.863v3.637h-1.08v-9.28h1.08v4.602l4.207-4.602h1.275
			l-3.73,4.031L607.991,304.848z"/>
		<path fill="#666766" d="M615.114,301.363c0,1.134-0.285,2.02-0.855,2.657c-0.572,0.637-1.361,0.955-2.369,0.955
			c-0.621,0-1.174-0.146-1.656-0.438s-0.854-0.711-1.117-1.257c-0.262-0.546-0.393-1.185-0.393-1.917c0-1.134,0.283-2.018,0.85-2.65
			c0.566-0.633,1.354-0.949,2.361-0.949c0.975,0,1.746,0.324,2.32,0.971C614.827,299.382,615.114,300.258,615.114,301.363z
			 M609.815,301.363c0,0.889,0.178,1.566,0.531,2.031c0.355,0.465,0.879,0.698,1.568,0.698s1.213-0.232,1.57-0.695
			c0.357-0.464,0.537-1.142,0.537-2.035c0-0.884-0.18-1.556-0.537-2.015c-0.357-0.459-0.887-0.689-1.584-0.689
			c-0.689,0-1.209,0.227-1.562,0.679C609.987,299.789,609.815,300.466,609.815,301.363z"/>
		<path fill="#666766" d="M621.721,304.848v-4.5c0-0.567-0.129-0.99-0.387-1.27c-0.258-0.279-0.662-0.419-1.213-0.419
			c-0.729,0-1.26,0.197-1.6,0.59s-0.508,1.043-0.508,1.949v3.65h-1.055v-6.957h0.857l0.172,0.952h0.051
			c0.215-0.343,0.518-0.608,0.906-0.797c0.391-0.188,0.824-0.282,1.303-0.282c0.838,0,1.469,0.202,1.891,0.606
			c0.424,0.404,0.637,1.05,0.637,1.939v4.539H621.721L621.721,304.848z"/>
		<path fill="#666766" d="M630.633,297.891v0.667l-1.289,0.152c0.119,0.148,0.227,0.342,0.318,0.581s0.139,0.509,0.139,0.81
			c0,0.681-0.23,1.225-0.697,1.631c-0.467,0.406-1.104,0.609-1.916,0.609c-0.207,0-0.402-0.017-0.584-0.051
			c-0.449,0.237-0.674,0.535-0.674,0.895c0,0.19,0.078,0.331,0.234,0.422c0.156,0.091,0.426,0.137,0.807,0.137h1.23
			c0.754,0,1.332,0.159,1.736,0.476c0.404,0.317,0.605,0.779,0.605,1.384c0,0.77-0.309,1.357-0.928,1.761
			c-0.617,0.404-1.518,0.605-2.703,0.605c-0.91,0-1.611-0.169-2.104-0.508s-0.738-0.817-0.738-1.435
			c0-0.423,0.135-0.789,0.406-1.098c0.27-0.309,0.65-0.519,1.143-0.628c-0.178-0.081-0.328-0.205-0.449-0.375
			c-0.119-0.169-0.18-0.366-0.18-0.59c0-0.254,0.066-0.476,0.203-0.667c0.135-0.191,0.35-0.375,0.641-0.552
			c-0.359-0.148-0.652-0.4-0.879-0.755c-0.227-0.355-0.34-0.762-0.34-1.219c0-0.762,0.229-1.349,0.686-1.761
			c0.457-0.413,1.105-0.619,1.943-0.619c0.363,0,0.689,0.042,0.982,0.127H630.633L630.633,297.891z M625.086,306.016
			c0,0.376,0.158,0.662,0.477,0.857c0.316,0.195,0.771,0.292,1.363,0.292c0.885,0,1.539-0.132,1.965-0.397
			c0.426-0.264,0.639-0.623,0.639-1.076c0-0.376-0.117-0.638-0.35-0.784c-0.232-0.146-0.672-0.219-1.314-0.219h-1.262
			c-0.48,0-0.852,0.114-1.117,0.343C625.219,305.261,625.086,305.588,625.086,306.016z M625.657,300.119
			c0,0.487,0.137,0.855,0.412,1.104s0.658,0.375,1.148,0.375c1.027,0,1.543-0.5,1.543-1.498c0-1.045-0.521-1.568-1.562-1.568
			c-0.494,0-0.875,0.133-1.143,0.4S625.657,299.594,625.657,300.119z"/>
	</g>
</g>
<g>
	<g>
		<path fill="#666766" d="M650.719,151.155l-1.154-2.952h-3.721l-1.143,2.952h-1.092l3.67-9.318h0.906l3.65,9.318H650.719z
			 M649.229,147.232l-1.078-2.875c-0.143-0.364-0.285-0.811-0.434-1.339c-0.094,0.406-0.227,0.853-0.398,1.339l-1.094,2.875H649.229
			z"/>
		<path fill="#666766" d="M655.202,150.412c0.186,0,0.365-0.014,0.539-0.042c0.174-0.027,0.311-0.056,0.412-0.085v0.806
			c-0.113,0.055-0.281,0.101-0.504,0.137s-0.424,0.054-0.602,0.054c-1.346,0-2.018-0.709-2.018-2.126v-4.139h-0.996v-0.508
			l0.996-0.438l0.443-1.485h0.609v1.612h2.018v0.819h-2.018v4.094c0,0.419,0.1,0.741,0.297,0.965
			C654.581,150.3,654.854,150.412,655.202,150.412z"/>
		<path fill="#666766" d="M658.596,151.155h-1.053v-9.877h1.053V151.155z"/>
		<path fill="#666766" d="M665.11,151.155l-0.211-0.99h-0.051c-0.348,0.436-0.691,0.731-1.037,0.886
			c-0.346,0.154-0.775,0.231-1.293,0.231c-0.688,0-1.229-0.178-1.621-0.533s-0.588-0.861-0.588-1.517
			c0-1.405,1.125-2.141,3.371-2.209l1.182-0.038v-0.432c0-0.546-0.117-0.949-0.354-1.209c-0.234-0.26-0.609-0.39-1.127-0.39
			c-0.58,0-1.234,0.178-1.967,0.533l-0.324-0.806c0.344-0.186,0.719-0.332,1.127-0.438c0.408-0.106,0.818-0.159,1.229-0.159
			c0.83,0,1.443,0.184,1.844,0.552c0.4,0.368,0.6,0.958,0.6,1.771v4.748H665.11z M662.729,150.412c0.654,0,1.172-0.18,1.545-0.54
			c0.375-0.36,0.562-0.863,0.562-1.511v-0.628l-1.055,0.044c-0.838,0.03-1.441,0.16-1.812,0.391
			c-0.371,0.23-0.557,0.589-0.557,1.076c0,0.381,0.115,0.671,0.346,0.87C661.991,150.313,662.315,150.412,662.729,150.412z"/>
		<path fill="#666766" d="M672.821,151.155v-4.5c0-0.567-0.129-0.99-0.389-1.271c-0.258-0.279-0.66-0.419-1.211-0.419
			c-0.729,0-1.262,0.197-1.6,0.59c-0.34,0.393-0.508,1.043-0.508,1.949v3.65h-1.055v-6.957h0.857l0.17,0.952h0.051
			c0.217-0.343,0.52-0.608,0.908-0.797c0.391-0.188,0.822-0.282,1.301-0.282c0.84,0,1.471,0.202,1.893,0.606
			c0.424,0.404,0.635,1.05,0.635,1.939v4.539L672.821,151.155L672.821,151.155z"/>
		<path fill="#666766" d="M678.286,150.412c0.188,0,0.367-0.014,0.541-0.042c0.172-0.027,0.311-0.056,0.412-0.085v0.806
			c-0.115,0.055-0.283,0.101-0.506,0.137s-0.422,0.054-0.6,0.054c-1.346,0-2.02-0.709-2.02-2.126v-4.139h-0.996v-0.508l0.996-0.438
			l0.443-1.485h0.609v1.612h2.02v0.819h-2.02v4.094c0,0.419,0.1,0.741,0.299,0.965C677.667,150.3,677.94,150.412,678.286,150.412z"
			/>
		<path fill="#666766" d="M684.907,151.155l-0.209-0.99h-0.053c-0.346,0.436-0.691,0.731-1.035,0.886
			c-0.346,0.154-0.775,0.231-1.293,0.231c-0.689,0-1.23-0.178-1.621-0.533c-0.393-0.355-0.588-0.861-0.588-1.517
			c0-1.405,1.125-2.141,3.369-2.209l1.184-0.038v-0.432c0-0.546-0.119-0.949-0.354-1.209c-0.234-0.26-0.609-0.39-1.127-0.39
			c-0.58,0-1.234,0.178-1.969,0.533l-0.324-0.806c0.346-0.186,0.721-0.332,1.127-0.438c0.408-0.106,0.818-0.159,1.23-0.159
			c0.828,0,1.443,0.184,1.844,0.552c0.4,0.368,0.6,0.958,0.6,1.771v4.748H684.907z M682.528,150.412c0.654,0,1.17-0.18,1.545-0.54
			s0.561-0.863,0.561-1.511v-0.628l-1.055,0.044c-0.838,0.03-1.441,0.16-1.812,0.391c-0.369,0.23-0.555,0.589-0.555,1.076
			c0,0.381,0.115,0.671,0.346,0.87C681.788,150.313,682.112,150.412,682.528,150.412z"/>
	</g>
</g>
<g>
	<circle fill="#070808" cx="37.383" cy="576.213" r="9.122"/>
	<path fill="#4CA8DE" d="M37.383,586.835c-5.857,0-10.622-4.765-10.622-10.622c0-5.855,4.765-10.621,10.622-10.621
		c5.857,0,10.622,4.766,10.622,10.621C48.004,582.07,43.24,586.835,37.383,586.835z M37.383,568.592
		c-4.203,0-7.622,3.419-7.622,7.621c0,4.203,3.419,7.622,7.622,7.622c4.203,0,7.622-3.419,7.622-7.622
		C45.004,572.011,41.585,568.592,37.383,568.592z"/>
</g>
<g>
	<circle fill="#070808" cx="110.686" cy="557.952" r="8.353"/>
	<path fill="#4CA8DE" d="M110.687,567.806c-5.433,0-9.853-4.42-9.853-9.854c0-5.435,4.42-9.854,9.853-9.854s9.853,4.42,9.853,9.854
		C120.54,563.386,116.119,567.806,110.687,567.806z M110.687,551.099c-3.779,0-6.853,3.074-6.853,6.854s3.074,6.854,6.853,6.854
		c3.778,0,6.853-3.073,6.853-6.854S114.465,551.099,110.687,551.099z"/>
</g>
<g>
	<circle fill="#070808" cx="185.863" cy="532.894" r="8.353"/>
	<path fill="#4CA8DE" d="M185.862,542.746c-5.433,0-9.853-4.42-9.853-9.854s4.42-9.854,9.853-9.854c5.433,0,9.853,4.42,9.853,9.854
		S191.295,542.746,185.862,542.746z M185.862,526.04c-3.778,0-6.853,3.074-6.853,6.854c0,3.778,3.074,6.854,6.853,6.854
		c3.779,0,6.853-3.074,6.853-6.854S189.641,526.04,185.862,526.04z"/>
</g>
<g>
	<circle fill="#070808" cx="261.038" cy="511.176" r="8.353"/>
	<path fill="#4CA8DE" d="M261.039,521.028c-5.433,0-9.853-4.42-9.853-9.854c0-5.433,4.42-9.853,9.853-9.853s9.853,4.42,9.853,9.853
		C270.892,516.608,266.471,521.028,261.039,521.028z M261.039,504.323c-3.779,0-6.853,3.074-6.853,6.853
		c0,3.779,3.074,6.854,6.853,6.854c3.778,0,6.853-3.074,6.853-6.854S264.817,504.323,261.039,504.323z"/>
</g>
<g>
	<circle fill="#070808" cx="336.214" cy="480.271" r="8.353"/>
	<path fill="#4CA8DE" d="M336.214,490.123c-5.433,0-9.853-4.42-9.853-9.854c0-5.433,4.42-9.853,9.853-9.853s9.854,4.42,9.854,9.853
		C346.067,485.703,341.646,490.123,336.214,490.123z M336.214,473.418c-3.778,0-6.853,3.074-6.853,6.854
		c0,3.778,3.073,6.853,6.853,6.853s6.854-3.074,6.854-6.853C343.067,476.492,339.992,473.418,336.214,473.418z"/>
</g>
<g>
	<circle fill="#070808" cx="411.389" cy="461.059" r="8.353"/>
	<path fill="#4CA8DE" d="M411.389,470.912c-5.432,0-9.852-4.42-9.852-9.854c0-5.433,4.42-9.853,9.852-9.853
		c5.436,0,9.855,4.42,9.855,9.853C421.243,466.492,416.823,470.912,411.389,470.912z M411.389,454.206
		c-3.777,0-6.852,3.074-6.852,6.853c0,3.779,3.074,6.854,6.852,6.854c3.779,0,6.855-3.074,6.855-6.854
		C418.243,457.28,415.168,454.206,411.389,454.206z"/>
</g>
<g>
	<circle fill="#070808" cx="486.567" cy="332.424" r="8.353"/>
	<path fill="#4CA8DE" d="M486.567,342.277c-5.436,0-9.855-4.42-9.855-9.854c0-5.433,4.42-9.853,9.855-9.853
		c5.432,0,9.852,4.42,9.852,9.853C496.418,337.857,491.999,342.277,486.567,342.277z M486.567,325.571
		c-3.779,0-6.855,3.073-6.855,6.853s3.074,6.854,6.855,6.854c3.777,0,6.852-3.074,6.852-6.854
		C493.418,328.646,490.344,325.571,486.567,325.571z"/>
</g>
<g>
	<circle fill="#070808" cx="561.743" cy="277.295" r="8.353"/>
	<path fill="#4CA8DE" d="M561.743,287.148c-5.434,0-9.854-4.42-9.854-9.853s4.42-9.853,9.854-9.853c5.432,0,9.852,4.42,9.852,9.853
		C571.594,282.728,567.174,287.148,561.743,287.148z M561.743,270.442c-3.779,0-6.854,3.074-6.854,6.853
		c0,3.778,3.074,6.853,6.854,6.853s6.852-3.074,6.852-6.853C568.594,273.517,565.522,270.442,561.743,270.442z"/>
</g>
<g>
	<circle fill="#070808" cx="636.918" cy="124.438" r="8.353"/>
	<path fill="#4CA8DE" d="M636.918,134.291c-5.434,0-9.854-4.42-9.854-9.853s4.42-9.853,9.854-9.853s9.854,4.42,9.854,9.853
		S642.35,134.291,636.918,134.291z M636.918,117.584c-3.779,0-6.854,3.074-6.854,6.853s3.074,6.853,6.854,6.853
		s6.854-3.074,6.854-6.853S640.696,117.584,636.918,117.584z"/>
</g>
</svg>
