<?xml version="1.0" encoding="UTF-8"?>
<svg width="54px" height="51px" viewBox="0 0 54 51" version="1.1" xmlns="http://www.w3.org/2000/svg" xmlns:xlink="http://www.w3.org/1999/xlink">
    <!-- Generator: Sketch 51.3 (57544) - http://www.bohemiancoding.com/sketch -->
    <title>nfv</title>
    <desc>Created with Sketch.</desc>
    <defs>
        <polygon id="path-1" points="0 0.0004 53.9995 0.0004 53.9995 50.353 0 50.353"></polygon>
    </defs>
    <g id="Page-1" stroke="none" stroke-width="1" fill="none" fill-rule="evenodd">
        <g id="nfv">
            <mask id="mask-2" fill="white">
                <use xlink:href="#path-1"></use>
            </mask>
            <g id="Clip-2"></g>
            <path d="M28.8525,41.9704 C28.7505,41.9594 28.6315,41.9704 28.5275,41.9704 C26.8655,41.9704 25.5485,43.2824 25.5485,44.9304 C25.5485,46.5774 26.8655,47.9084 28.5275,47.9084 C30.1895,47.9084 31.5255,46.5774 31.5255,44.9304 C31.5255,43.3854 30.3675,42.1214 28.8525,41.9704 M34.8475,21.6154 C31.6625,21.6154 29.1005,24.1584 29.1005,27.3244 C29.1005,30.4904 31.6575,33.0144 34.8475,33.0144 C38.0395,33.0144 40.5575,30.4954 40.5575,27.3244 C40.5575,24.1534 38.0345,21.6154 34.8475,21.6154 M5.2505,16.9374 C3.6885,16.9374 2.4445,18.1954 2.4445,19.7434 C2.4445,21.3244 3.6885,22.5704 5.2505,22.5704 C6.8835,22.5944 7.9605,21.7394 8.0775,19.7434 C8.0775,18.1954 6.8135,16.9374 5.2505,16.9374 M48.2715,13.0794 C46.4355,13.0794 44.9675,14.5204 44.9675,16.3644 C44.9675,18.1784 46.4435,19.6484 48.2715,19.6484 C50.0995,19.6484 51.5555,18.1784 51.5555,16.3644 C51.5555,14.5204 50.1075,13.0794 48.2715,13.0794 M29.0245,2.4444 C26.7325,2.4444 24.8995,4.2554 24.8995,6.5304 C24.8995,8.8054 26.7325,10.6364 29.0245,10.6364 C31.3155,10.6364 33.1485,8.8054 33.1485,6.5304 C33.1485,4.2554 31.3155,2.4444 29.0245,2.4444 M27.0195,29.6734 C26.7935,28.9304 26.6565,28.1394 26.6565,27.3244 C26.6565,27.0504 26.6675,26.7714 26.6945,26.5034 L9.8915,22.1884 C9.0115,23.8604 7.2635,25.0134 5.2505,25.0134 C2.3655,25.0144 -0.0005,22.6434 -0.0005,19.7434 C-0.0005,16.8614 2.3655,14.4924 5.2505,14.4924 C8.1375,14.4924 10.5205,16.8614 10.5205,19.7434 L10.5205,19.8394 L27.3055,24.1364 C28.1105,22.2584 29.6085,20.7414 31.4675,19.8964 L29.5785,13.0414 C29.3945,13.0574 29.2105,13.0794 29.0245,13.0794 C25.4155,13.0794 22.4555,10.1324 22.4555,6.5304 C22.4555,2.9284 25.4155,0.0004 29.0245,0.0004 C32.6315,0.0004 35.5925,2.9284 35.5925,6.5304 C35.5925,9.0894 34.0835,11.3174 31.9265,12.3924 L33.8355,19.2284 C34.1665,19.1874 34.5065,19.1714 34.8475,19.1714 C36.9465,19.1714 38.8625,19.9664 40.3085,21.2714 L43.1545,18.9614 C42.7525,18.1814 42.5245,17.2954 42.5245,16.3644 C42.5245,13.1994 45.1265,10.6364 48.2715,10.6364 C51.4155,10.6364 53.9995,13.1994 53.9995,16.3644 C53.9995,19.5124 51.4235,22.0924 48.2715,22.0924 C46.9255,22.0924 45.6835,21.6154 44.7015,20.8324 L41.8555,23.1614 C42.5865,24.3844 43.0005,25.8034 43.0005,27.3244 C43.0005,31.8124 39.3455,35.4594 34.8475,35.4594 C34.2725,35.4594 33.7095,35.4004 33.1675,35.2874 L31.3155,40.2894 C32.8995,41.2394 33.9695,42.9644 33.9695,44.9304 C33.9695,47.9074 31.5075,50.3534 28.5275,50.3534 C25.5465,50.3534 23.1045,47.9074 23.1045,44.9304 C23.1045,41.9534 25.5465,39.5264 28.5275,39.5264 C28.6815,39.5264 28.8345,39.5324 28.9855,39.5454 L30.8755,34.4474 C29.7485,33.8234 28.7905,32.9284 28.0695,31.8694" id="Fill-1" fill="#FFFFFF" mask="url(#mask-2)"></path>
        </g>
    </g>
</svg>