<?xml version="1.0" encoding="utf-8"?>
<!-- Generator: Adobe Illustrator 16.0.4, SVG Export Plug-In . SVG Version: 6.00 Build 0)  -->
<!DOCTYPE svg PUBLIC "-//W3C//DTD SVG 1.1//EN" "http://www.w3.org/Graphics/SVG/1.1/DTD/svg11.dtd">
<svg version="1.1" xmlns="http://www.w3.org/2000/svg" xmlns:xlink="http://www.w3.org/1999/xlink" x="0px" y="0px"
	 width="373.333px" height="300.667px" viewBox="0 0 373.333 300.667" enable-background="new 0 0 373.333 300.667"
	 xml:space="preserve">
<g id="Layer_2" display="none">
</g>
<g id="Layer_4">
</g>
<g id="Layer_1">
</g>
<g id="Layer_3">
	<g>
	</g>
	<g>
		<rect x="75.236" y="175.511" fill="#30739C" width="105.082" height="27.045"/>
		<text transform="matrix(1 0 0 1 102.5986 192.0317)" fill="#FFFFFF" font-family="'OpenSans'" font-size="10.2335">KEYNOTES</text>
	</g>
	<g>
		<rect x="75.236" y="206.943" fill="#30739C" width="231.486" height="27.045"/>
		<text transform="matrix(1 0 0 1 164.4614 223.4634)" fill="#FFFFFF" font-family="'OpenSans'" font-size="10.2335">EXPO HALL</text>
	</g>
	<g>
		<rect x="75.236" y="238.374" fill="#30739C" width="231.486" height="27.046"/>
		<text transform="matrix(1 0 0 1 125.085 254.894)" fill="#FFFFFF" font-family="'OpenSans'" font-size="8">BUSINESS SESSIONS / WORKSHOPS</text>
	</g>
	<g>
		<rect x="117.117" y="269.805" fill="#30739C" width="247.582" height="27.046"/>
		<text transform="matrix(1 0 0 1 201.1553 286.3257)" fill="#FFFFFF" font-family="'OpenSans'" font-size="10.2335">DESIGN SUMMIT</text>
	</g>
	<g>
		<rect x="4.333" y="175.511" fill="#30739C" width="66.152" height="121.34"/>
		<text transform="matrix(0 -1 1 0 34.1553 274.1021)"><tspan x="0" y="0" fill="#FFFFFF" font-family="'OpenSans-Bold'" font-size="12">FULL ACCESS</tspan><tspan x="23.405" y="14.4" fill="#FFFFFF" font-family="'OpenSans-Bold'" font-size="12">PASS</tspan></text>
	</g>
	<line fill="#294F68" x1="117.117" y1="10.313" x2="117.117" y2="25.663"/>
	<line fill="#294F68" x1="180.318" y1="10.313" x2="180.318" y2="25.663"/>
	<line fill="#294F68" x1="243.521" y1="10.313" x2="243.521" y2="25.663"/>
	<line fill="#294F68" x1="306.723" y1="10.313" x2="306.723" y2="25.663"/>
	<g>
	</g>
	<g>
		<rect x="75.236" y="40.283" fill="#F15D22" width="105.082" height="27.045"/>
		<text transform="matrix(1 0 0 1 102.5986 56.8032)" fill="#FFFFFF" font-family="'OpenSans'" font-size="10.2335">KEYNOTES</text>
	</g>
	<g>
		<rect x="75.236" y="71.714" fill="#F15D22" width="231.486" height="27.046"/>
		<text transform="matrix(1 0 0 1 164.4614 88.2349)" fill="#FFFFFF" font-family="'OpenSans'" font-size="10.2335">EXPO HALL</text>
	</g>
	<g>
		<g>
			<g>
				<polyline fill="none" stroke="#888888" stroke-width="2" stroke-miterlimit="10" points="306.723,128.191 306.723,130.191 
					304.723,130.191 				"/>
				
					<line fill="none" stroke="#888888" stroke-width="2" stroke-miterlimit="10" stroke-dasharray="3.991,3.991" x1="300.731" y1="130.191" x2="79.232" y2="130.191"/>
				<polyline fill="none" stroke="#888888" stroke-width="2" stroke-miterlimit="10" points="77.236,130.191 75.236,130.191 
					75.236,128.191 				"/>
				
					<line fill="none" stroke="#888888" stroke-width="2" stroke-miterlimit="10" stroke-dasharray="4.6091,4.6091" x1="75.236" y1="123.582" x2="75.236" y2="107.45"/>
				<polyline fill="none" stroke="#888888" stroke-width="2" stroke-miterlimit="10" points="75.236,105.146 75.236,103.146 
					77.236,103.146 				"/>
				
					<line fill="none" stroke="#888888" stroke-width="2" stroke-miterlimit="10" stroke-dasharray="3.991,3.991" x1="81.228" y1="103.146" x2="302.728" y2="103.146"/>
				<polyline fill="none" stroke="#888888" stroke-width="2" stroke-miterlimit="10" points="304.723,103.146 306.723,103.146 
					306.723,105.146 				"/>
				
					<line fill="none" stroke="#888888" stroke-width="2" stroke-miterlimit="10" stroke-dasharray="4.6091,4.6091" x1="306.723" y1="109.754" x2="306.723" y2="125.886"/>
			</g>
		</g>
		<g>
			<text transform="matrix(1 0 0 1 153.7783 119.6665)" fill="#888888" font-family="'OpenSans'" font-size="10.2335">NOT INCLUDED</text>
		</g>
	</g>
	<g>
		<g>
			<g>
				<polyline fill="none" stroke="#888888" stroke-width="2" stroke-miterlimit="10" points="364.698,159.623 364.698,161.623 
					362.698,161.623 				"/>
				
					<line fill="none" stroke="#888888" stroke-width="2" stroke-miterlimit="10" stroke-dasharray="3.9931,3.9931" x1="358.705" y1="161.623" x2="121.113" y2="161.623"/>
				<polyline fill="none" stroke="#888888" stroke-width="2" stroke-miterlimit="10" points="119.117,161.623 117.117,161.623 
					117.117,159.623 				"/>
				
					<line fill="none" stroke="#888888" stroke-width="2" stroke-miterlimit="10" stroke-dasharray="4.6092,4.6092" x1="117.117" y1="155.013" x2="117.117" y2="138.881"/>
				<polyline fill="none" stroke="#888888" stroke-width="2" stroke-miterlimit="10" points="117.117,136.577 117.117,134.577 
					119.117,134.577 				"/>
				
					<line fill="none" stroke="#888888" stroke-width="2" stroke-miterlimit="10" stroke-dasharray="3.9931,3.9931" x1="123.11" y1="134.577" x2="360.702" y2="134.577"/>
				<polyline fill="none" stroke="#888888" stroke-width="2" stroke-miterlimit="10" points="362.698,134.577 364.698,134.577 
					364.698,136.577 				"/>
				
					<line fill="none" stroke="#888888" stroke-width="2" stroke-miterlimit="10" stroke-dasharray="4.6092,4.6092" x1="364.698" y1="141.186" x2="364.698" y2="157.318"/>
			</g>
		</g>
		<text transform="matrix(1 0 0 1 203.7061 151.0972)" fill="#888888" font-family="'OpenSans'" font-size="10.2335">NOT INCLUDED</text>
	</g>
	<text transform="matrix(1 0 0 1 71.7314 21.2769)" fill="#2A4F68" font-family="'OpenSans'" font-size="13">Mon</text>
	<text transform="matrix(1 0 0 1 137.4854 21.2769)" fill="#2A4F68" font-family="'OpenSans'" font-size="13">Tue</text>
	<text transform="matrix(1 0 0 1 198.272 21.2769)" fill="#2A4F68" font-family="'OpenSans'" font-size="13">Wed</text>
	<text transform="matrix(1 0 0 1 263.5459 21.2769)" fill="#2A4F68" font-family="'OpenSans'" font-size="13">Thu</text>
	<text transform="matrix(1 0 0 1 330.6709 21.2769)" fill="#2A4F68" font-family="'OpenSans'" font-size="13">Fri</text>
	<g>
		<rect x="4.333" y="40.283" fill="#F15D22" width="66.152" height="121.34"/>
		<text transform="matrix(0 -1 1 0 28.0151 133.5122)"><tspan x="0" y="0" fill="#FFFFFF" font-family="'OpenSans-Bold'" font-size="12">KEYNOTE +</tspan><tspan x="-10.497" y="14.4" fill="#FFFFFF" font-family="'OpenSans-Bold'" font-size="12">MARKETPLACE</tspan><tspan x="18.044" y="28.8" fill="#FFFFFF" font-family="'OpenSans-Bold'" font-size="12">PASS</tspan></text>
	</g>
</g>
</svg>
