<?xml version="1.0" encoding="utf-8"?>
<!-- Generator: Adobe Illustrator 16.0.4, SVG Export Plug-In . SVG Version: 6.00 Build 0)  -->
<!DOCTYPE svg PUBLIC "-//W3C//DTD SVG 1.1//EN" "http://www.w3.org/Graphics/SVG/1.1/DTD/svg11.dtd">
<svg version="1.1" xmlns="http://www.w3.org/2000/svg" xmlns:xlink="http://www.w3.org/1999/xlink" x="0px" y="0px" width="609px"
	 height="412px" viewBox="0 0 609 412" enable-background="new 0 0 609 412" xml:space="preserve">
<g id="Layer_2" display="none">
</g>
<g id="Layer_1">
</g>
<g id="Layer_3">
	<g>
		<g>
		</g>
		<g>
			<rect x="106" y="236" fill="#30739C" width="198" height="37"/>
			<text transform="matrix(1 0 0 1 170.5537 258.6016)" fill="#FFFFFF" font-family="'OpenSans'" font-size="14">KEYNOTES</text>
		</g>
		<g>
			<rect x="106" y="279" fill="#30739C" width="396" height="37"/>
			<text transform="matrix(1 0 0 1 267.7217 301.6016)" fill="#FFFFFF" font-family="'OpenSans'" font-size="14">EXPO HALL</text>
		</g>
		<g>
			<rect x="106" y="322" fill="#30739C" width="396" height="37"/>
			<text transform="matrix(1 0 0 1 188.6846 344.6016)" fill="#FFFFFF" font-family="'OpenSans'" font-size="14">BUSINESS SESSIONS / WORKSHOPS</text>
		</g>
		<g>
			<rect x="203" y="365" fill="#30739C" width="397" height="37"/>
			<text transform="matrix(1 0 0 1 347.1167 387.6016)" fill="#FFFFFF" font-family="'OpenSans'" font-size="14">DESIGN SUMMIT</text>
		</g>
		<g>
			<rect x="9" y="236" fill="#30739C" width="90.5" height="166"/>
			<text transform="matrix(0 -1 1 0 49.7988 363.2422)"><tspan x="0" y="0" fill="#FFFFFF" font-family="'OpenSans-Bold'" font-size="14">FULL ACCESS</tspan><tspan x="27.307" y="16.8" fill="#FFFFFF" font-family="'OpenSans-Bold'" font-size="14">PASS</tspan></text>
		</g>
		<line fill="#294F68" x1="203" y1="10" x2="203" y2="31"/>
		<line fill="#294F68" x1="302" y1="10" x2="302" y2="31"/>
		<line fill="#294F68" x1="402" y1="10" x2="402" y2="31"/>
		<line fill="#294F68" x1="502" y1="10" x2="502" y2="31"/>
		<g>
		</g>
		<g>
			<rect x="106" y="51" fill="#F15D22" width="198" height="37"/>
			<text transform="matrix(1 0 0 1 170.5537 73.6016)" fill="#FFFFFF" font-family="'OpenSans'" font-size="14">KEYNOTES</text>
		</g>
		<g>
			<rect x="106" y="94" fill="#F15D22" width="396" height="37"/>
			<text transform="matrix(1 0 0 1 267.7217 116.6016)" fill="#FFFFFF" font-family="'OpenSans'" font-size="14">EXPO HALL</text>
		</g>
		<g>
			<g>
				<g>
					<polyline fill="none" stroke="#DEDDDD" stroke-width="2" stroke-miterlimit="10" points="502,172 502,174 500,174 					"/>
					
						<line fill="none" stroke="#DEDDDD" stroke-width="2" stroke-miterlimit="10" stroke-dasharray="3.9596,3.9596" x1="496.04" y1="174" x2="109.98" y2="174"/>
					<polyline fill="none" stroke="#DEDDDD" stroke-width="2" stroke-miterlimit="10" points="108,174 106,174 106,172 					"/>
					
						<line fill="none" stroke="#DEDDDD" stroke-width="2" stroke-miterlimit="10" stroke-dasharray="3.6667,3.6667" x1="106" y1="168.333" x2="106" y2="140.833"/>
					<polyline fill="none" stroke="#DEDDDD" stroke-width="2" stroke-miterlimit="10" points="106,139 106,137 108,137 					"/>
					
						<line fill="none" stroke="#DEDDDD" stroke-width="2" stroke-miterlimit="10" stroke-dasharray="3.9596,3.9596" x1="111.959" y1="137" x2="498.021" y2="137"/>
					<polyline fill="none" stroke="#DEDDDD" stroke-width="2" stroke-miterlimit="10" points="500,137 502,137 502,139 					"/>
					
						<line fill="none" stroke="#DEDDDD" stroke-width="2" stroke-miterlimit="10" stroke-dasharray="3.6667,3.6667" x1="502" y1="142.667" x2="502" y2="170.167"/>
				</g>
			</g>
			<g>
				<text transform="matrix(1 0 0 1 253.1064 159.6016)" fill="#DEDDDD" font-family="'OpenSans'" font-size="14">NOT INCLUDED</text>
			</g>
		</g>
		<g>
			<g>
				<g>
					<polyline fill="none" stroke="#DEDDDD" stroke-width="2" stroke-miterlimit="10" points="600,215 600,217 598,217 					"/>
					
						<line fill="none" stroke="#DEDDDD" stroke-width="2" stroke-miterlimit="10" stroke-dasharray="3.9697,3.9697" x1="594.03" y1="217" x2="206.985" y2="217"/>
					<polyline fill="none" stroke="#DEDDDD" stroke-width="2" stroke-miterlimit="10" points="205,217 203,217 203,215 					"/>
					
						<line fill="none" stroke="#DEDDDD" stroke-width="2" stroke-miterlimit="10" stroke-dasharray="3.6667,3.6667" x1="203" y1="211.333" x2="203" y2="183.833"/>
					<polyline fill="none" stroke="#DEDDDD" stroke-width="2" stroke-miterlimit="10" points="203,182 203,180 205,180 					"/>
					
						<line fill="none" stroke="#DEDDDD" stroke-width="2" stroke-miterlimit="10" stroke-dasharray="3.9697,3.9697" x1="208.97" y1="180" x2="596.016" y2="180"/>
					<polyline fill="none" stroke="#DEDDDD" stroke-width="2" stroke-miterlimit="10" points="598,180 600,180 600,182 					"/>
					
						<line fill="none" stroke="#DEDDDD" stroke-width="2" stroke-miterlimit="10" stroke-dasharray="3.6667,3.6667" x1="600" y1="185.667" x2="600" y2="213.167"/>
				</g>
			</g>
			<text transform="matrix(1 0 0 1 350.6064 202.6016)" fill="#DEDDDD" font-family="'OpenSans'" font-size="14">NOT INCLUDED</text>
		</g>
		<text transform="matrix(1 0 0 1 142.1558 25)" fill="#2A4F68" font-family="'OpenSans'" font-size="14">Mon</text>
		<text transform="matrix(1 0 0 1 241.9038 25)" fill="#2A4F68" font-family="'OpenSans'" font-size="14">Tue</text>
		<text transform="matrix(1 0 0 1 339.3027 25)" fill="#2A4F68" font-family="'OpenSans'" font-size="14">Wed</text>
		<text transform="matrix(1 0 0 1 441.5352 25)" fill="#2A4F68" font-family="'OpenSans'" font-size="14">Thu</text>
		<text transform="matrix(1 0 0 1 539.7598 25)" fill="#2A4F68" font-family="'OpenSans'" font-size="14">Fri</text>
		<g>
			<rect x="9" y="51" fill="#F15D22" width="90.5" height="166"/>
			<text transform="matrix(0 -1 1 0 41.3984 171.9873)"><tspan x="0" y="0" fill="#FFFFFF" font-family="'OpenSans-Bold'" font-size="14">KEYNOTE +</tspan><tspan x="-12.247" y="16.8" fill="#FFFFFF" font-family="'OpenSans-Bold'" font-size="14">MARKETPLACE</tspan><tspan x="21.051" y="33.6" fill="#FFFFFF" font-family="'OpenSans-Bold'" font-size="14">PASS</tspan></text>
		</g>
	</g>
</g>
</svg>
