<?xml version="1.0" encoding="utf-8"?>
<!-- Generator: Adobe Illustrator 23.0.1, SVG Export Plug-In . SVG Version: 6.00 Build 0)  -->
<svg version="1.1" id="Layer_1" xmlns="http://www.w3.org/2000/svg" xmlns:xlink="http://www.w3.org/1999/xlink" x="0px" y="0px"
	 viewBox="0 0 52 38" style="enable-background:new 0 0 52 38;" xml:space="preserve">
<style type="text/css">
	.st0{fill:#FFFFFF;}
</style>
<title>hybrid</title>
<desc>Created with Sketch.</desc>
<g transform="translate(0,-952.36218)">
	<path class="st0" d="M26,952.5c-5.6,0-10.1,4.5-10.1,10.1v4.2h-1.7c-1.6,0-2.9,1.3-2.9,2.9v17.6c0,1.6,1.3,2.9,2.9,2.9h23.5
		c1.6,0,2.9-1.3,2.9-2.9v-17.6c0-1.6-1.3-2.9-2.9-2.9h-1.7v-4.2C36.1,957,31.6,952.5,26,952.5z M26,955c4.2,0,7.6,3.3,7.6,7.6v4.2
		H18.4v-4.2C18.4,958.3,21.8,955,26,955z M14.3,969.3h23.5c0.3,0,0.4,0.2,0.4,0.4v17.6c0,0.3-0.2,0.4-0.4,0.4H14.3
		c-0.3,0-0.4-0.2-0.4-0.4v-17.6C13.8,969.4,14,969.3,14.3,969.3z M26,975.1c-0.7,0-1.3,0.6-1.2,1.3c0,0,0,0,0,0v4.2
		c0,0.7,0.5,1.3,1.2,1.3s1.3-0.5,1.3-1.2c0,0,0,0,0,0v-4.2C27.3,975.7,26.7,975.1,26,975.1C26,975.1,26,975.1,26,975.1z"/>
</g>
</svg>
