
<svg width="70px" height="60px" viewBox="0 0 70 60" version="1.1" xmlns="http://www.w3.org/2000/svg" xmlns:xlink="http://www.w3.org/1999/xlink">
    <g id="Page-1" stroke="none" stroke-width="1" fill="none" fill-rule="evenodd">
        <g id="Summit_Homepage" transform="translate(-391.000000, -3356.000000)" fill="#FFFFFF" fill-rule="nonzero">
            <g id="Who-Attends" transform="translate(0.000000, 2891.000000)">
                <g id="Copy">
                    <g id="Icons" transform="translate(145.000000, 461.000000)">
                        <g id="Business-Strategy" transform="translate(222.824561, 4.631579)">
                            <g id="BizStrategy" transform="translate(24.000000, 0.000000)">
                                <path d="M61.0317097,59.3684211 L7.17881661,59.3684211 C5.29584832,59.3684211 3.78947368,57.8591934 3.78947368,55.9726589 L3.78947368,32.0136705 C3.78947368,31.2590567 4.35436417,30.6930964 5.10755149,30.6930964 C5.8607388,30.6930964 6.42562929,31.2590567 6.42562929,32.0136705 L6.42562929,55.9726589 C6.42562929,56.3499658 6.80222295,56.7272727 7.17881661,56.7272727 L61.0317097,56.7272727 C61.4083034,56.7272727 61.784897,56.3499658 61.784897,55.9726589 L61.784897,31.6363636 C61.784897,30.8817498 62.3497875,30.3157895 63.1029748,30.3157895 C63.8561621,30.3157895 64.4210526,30.8817498 64.4210526,31.6363636 L64.4210526,55.9726589 C64.4210526,57.8591934 62.914678,59.3684211 61.0317097,59.3684211 Z" id="Shape"></path>
                                <path d="M44.1248885,12.6315789 C43.3541481,12.6315789 42.7760928,12.0574163 42.7760928,11.291866 L42.7760928,4.97607656 C42.7760928,3.8277512 41.6199822,2.67942584 40.4638715,2.67942584 L27.7466548,2.67942584 C26.3978591,2.67942584 25.4344335,3.8277512 25.4344335,4.97607656 L25.4344335,11.291866 C25.4344335,12.0574163 24.8563782,12.6315789 24.0856378,12.6315789 C23.3148974,12.6315789 22.7368421,12.0574163 22.7368421,11.291866 L22.7368421,4.97607656 C22.7368421,2.29665072 25.0490633,0 27.7466548,0 L40.4638715,0 C43.161463,0 45.4736842,2.29665072 45.4736842,4.97607656 L45.4736842,11.291866 C45.4736842,12.0574163 44.8956289,12.6315789 44.1248885,12.6315789 Z" id="Shape"></path>
                                <path d="M39.7417072,37.8947368 C38.9774436,37.8947368 38.4042459,37.3389474 38.4042459,36.5978947 C38.4042459,35.8568421 38.9774436,35.3010526 39.7417072,35.1157895 C49.8681999,34.56 58.6572313,32.5221053 65.5356037,29.0021053 L65.5356037,13.44 C65.5356037,13.0694737 65.1534719,12.6989474 64.7713401,12.6989474 L3.6302521,12.6989474 C3.2481203,12.6989474 2.6749226,13.0694737 2.6749226,13.6252632 L2.6749226,29.5578947 C9.9354268,32.8926316 18.7244582,34.7452632 28.0866873,35.1157895 C28.8509509,35.1157895 29.4241486,35.8568421 29.4241486,36.5978947 C29.4241486,37.3389474 28.659885,37.8947368 28.0866873,37.8947368 C17.9601946,37.5242105 8.5979655,35.3010526 0.7642636,31.5957895 C0.1910659,31.4105263 0,31.04 0,30.4842105 L0,13.6252632 C0,11.7726316 1.7195931,10.1052632 3.6302521,10.1052632 L64.7713401,10.1052632 C66.6819991,10.1052632 68.2105263,11.5873684 68.2105263,13.44 L68.2105263,29.9284211 C68.2105263,30.4842105 68.0194604,30.8547368 67.4462627,31.04 C59.9946926,34.9305263 50.6324635,37.3389474 39.7417072,37.8947368 C39.7417072,37.8947368 39.7417072,37.8947368 39.7417072,37.8947368 Z" id="Shape"></path>
                                <path d="M37.9701493,42.9473684 L30.2403771,42.9473684 C28.7321288,42.9473684 27.7894737,41.8245614 27.7894737,40.5146199 L27.7894737,35.2748538 C27.7894737,33.9649123 28.9206599,32.8421053 30.2403771,32.8421053 L37.9701493,32.8421053 C39.4783975,32.8421053 40.4210526,33.9649123 40.4210526,35.2748538 L40.4210526,40.5146199 C40.4210526,42.0116959 39.4783975,42.9473684 37.9701493,42.9473684 Z M30.4289081,40.3274854 L37.7816182,40.3274854 L37.7816182,35.4619883 L30.4289081,35.4619883 L30.4289081,40.3274854 Z" id="Shape"></path>
                            </g>
                        </g>
                    </g>
                </g>
            </g>
        </g>
    </g>
</svg>