<?xml version="1.0" encoding="utf-8"?>
<!-- Generator: Adobe Illustrator 16.0.4, SVG Export Plug-In . SVG Version: 6.00 Build 0)  -->
<!DOCTYPE svg PUBLIC "-//W3C//DTD SVG 1.1//EN" "http://www.w3.org/Graphics/SVG/1.1/DTD/svg11.dtd">
<svg version="1.1" id="Layer_1" xmlns="http://www.w3.org/2000/svg" xmlns:xlink="http://www.w3.org/1999/xlink" x="0px" y="0px"
	 width="375px" height="151.023px" viewBox="-41 -16.512 375 151.023" enable-background="new -41 -16.512 375 151.023"
	 xml:space="preserve">
<g>
	<path fill="#333333" d="M107.946,128.858c0,1.154,0.023,2.172,0.093,3.049h-1.802l-0.116-1.824h-0.047
		c-0.531,0.9-1.71,2.081-3.699,2.081c-1.758,0-3.861-0.972-3.861-4.9v-6.544h2.034v6.195c0,2.128,0.648,3.56,2.497,3.56
		c1.364,0,2.312-0.946,2.683-1.851c0.115-0.3,0.185-0.669,0.185-1.039v-6.866h2.035V128.858z"/>
	<path fill="#333333" d="M111.043,129.828c0.602,0.394,1.664,0.81,2.682,0.81c1.479,0,2.173-0.739,2.173-1.662
		c0-0.973-0.579-1.504-2.082-2.059c-2.011-0.717-2.958-1.827-2.958-3.168c0-1.804,1.457-3.282,3.861-3.282
		c1.132,0,2.127,0.324,2.75,0.692l-0.51,1.48c-0.438-0.276-1.246-0.647-2.288-0.647c-1.203,0-1.873,0.692-1.873,1.524
		c0,0.926,0.671,1.342,2.129,1.896c1.941,0.74,2.936,1.713,2.936,3.377c0,1.965-1.526,3.351-4.184,3.351
		c-1.226,0-2.358-0.3-3.144-0.763L111.043,129.828z"/>
	<path fill="#333333" d="M121.607,126.686c0.046,2.75,1.804,3.883,3.837,3.883c1.457,0,2.336-0.253,3.098-0.578l0.347,1.456
		c-0.716,0.325-1.942,0.693-3.722,0.693c-3.444,0-5.502-2.264-5.502-5.641c0-3.375,1.987-6.034,5.248-6.034
		c3.651,0,4.624,3.213,4.624,5.271c0,0.415-0.047,0.739-0.07,0.947h-7.858V126.686z M127.572,125.228
		c0.022-1.294-0.533-3.304-2.82-3.304c-2.058,0-2.959,1.895-3.123,3.304H127.572z"/>
	<path fill="#333333" d="M132.057,124.212c0-1.318-0.024-2.452-0.093-3.492h1.781l0.069,2.197h0.093
		c0.508-1.504,1.733-2.452,3.099-2.452c0.23,0,0.394,0.023,0.577,0.069v1.92c-0.209-0.046-0.416-0.069-0.692-0.069
		c-1.433,0-2.451,1.088-2.729,2.612c-0.045,0.277-0.092,0.601-0.092,0.947v5.963h-2.011v-7.695H132.057z"/>
	<path fill="#333333" d="M139.338,129.828c0.601,0.394,1.664,0.81,2.682,0.81c1.48,0,2.174-0.739,2.174-1.662
		c0-0.973-0.579-1.504-2.082-2.059c-2.012-0.717-2.958-1.827-2.958-3.168c0-1.804,1.457-3.282,3.86-3.282
		c1.134,0,2.127,0.324,2.753,0.692l-0.51,1.48c-0.439-0.276-1.249-0.647-2.289-0.647c-1.203,0-1.873,0.692-1.873,1.524
		c0,0.926,0.669,1.342,2.125,1.896c1.943,0.74,2.936,1.713,2.936,3.377c0,1.965-1.525,3.351-4.184,3.351
		c-1.225,0-2.358-0.3-3.145-0.763L139.338,129.828z"/>
	<path fill="#333333" d="M108.248-14.164v13.525c0,0.995,0.022,2.127,0.091,2.891h-1.826l-0.093-1.943h-0.047
		c-0.623,1.248-1.988,2.197-3.815,2.197c-2.705,0-4.786-2.289-4.786-5.687c-0.023-3.723,2.289-6.011,5.016-6.011
		c1.712,0,2.868,0.808,3.376,1.711h0.045v-6.683H108.248z M106.211-4.385c0-0.254-0.023-0.601-0.092-0.855
		c-0.301-1.294-1.41-2.358-2.937-2.358c-2.104,0-3.352,1.849-3.352,4.324c0,2.267,1.11,4.139,3.307,4.139
		c1.364,0,2.612-0.901,2.981-2.427c0.069-0.278,0.092-0.555,0.092-0.878V-4.385z"/>
	<path fill="#333333" d="M112.753-2.974c0.047,2.751,1.803,3.884,3.837,3.884c1.456,0,2.336-0.254,3.098-0.579l0.347,1.457
		c-0.717,0.323-1.942,0.693-3.722,0.693c-3.444,0-5.502-2.267-5.502-5.641c0-3.375,1.988-6.033,5.248-6.033
		c3.651,0,4.624,3.212,4.624,5.27c0,0.417-0.047,0.741-0.07,0.949H112.753z M118.719-4.432c0.023-1.294-0.531-3.307-2.82-3.307
		c-2.058,0-2.96,1.896-3.121,3.307H118.719z"/>
	<path fill="#333333" d="M123.988-8.939l2.195,6.288c0.37,1.017,0.67,1.942,0.901,2.868h0.07c0.255-0.926,0.578-1.851,0.948-2.868
		l2.173-6.288h2.127L128.008,2.25h-1.941l-4.254-11.189H123.988z"/>
	<path fill="#333333" d="M133.905,0.169c0.601,0.394,1.664,0.808,2.681,0.808c1.48,0,2.174-0.739,2.174-1.664
		c0-0.97-0.578-1.501-2.081-2.056c-2.012-0.718-2.959-1.826-2.959-3.167c0-1.805,1.456-3.284,3.86-3.284
		c1.132,0,2.127,0.324,2.75,0.693l-0.509,1.479c-0.438-0.277-1.247-0.647-2.288-0.647c-1.202,0-1.872,0.693-1.872,1.525
		c0,0.925,0.67,1.341,2.127,1.897c1.942,0.739,2.935,1.71,2.935,3.375c0,1.965-1.526,3.352-4.183,3.352
		c-1.225,0-2.357-0.3-3.145-0.763L133.905,0.169z"/>
	<path fill="#999999" d="M67.145,97.727c2.288,1.356,6.183,2.882,9.91,2.882c5.335,0,7.875-2.627,7.875-6.098
		c0-3.559-2.117-5.417-7.536-7.451c-7.453-2.712-10.925-6.691-10.925-11.604c0-6.604,5.418-12.023,14.143-12.023
		c4.148,0,7.789,1.1,9.992,2.54l-1.777,5.417c-1.61-1.013-4.574-2.453-8.385-2.453c-4.403,0-6.774,2.542-6.774,5.59
		c0,3.386,2.371,4.91,7.706,7.026c7.028,2.625,10.755,6.185,10.755,12.281c0,7.281-5.672,12.363-15.242,12.363
		c-4.488,0-8.637-1.188-11.518-2.878L67.145,97.727z"/>
	<path fill="#999999" d="M152.896,75.371c0-4.317-0.169-7.704-0.341-11.093h6.521l0.339,6.689h0.255
		c2.285-3.894,6.095-7.535,12.955-7.535c5.504,0,9.735,3.387,11.519,8.215h0.169c1.271-2.373,2.964-4.065,4.658-5.337
		c2.455-1.863,5.079-2.878,8.975-2.878c5.507,0,13.55,3.556,13.55,17.784v24.048h-7.281V82.146c0-7.961-2.967-12.618-8.894-12.618
		c-4.316,0-7.538,3.136-8.89,6.69c-0.341,1.101-0.596,2.371-0.596,3.726v25.32h-7.28V80.707c0-6.519-2.88-11.178-8.555-11.178
		c-4.572,0-8.042,3.726-9.228,7.452c-0.425,1.019-0.597,2.372-0.597,3.644v24.641h-7.28V75.371L152.896,75.371z"/>
	<path fill="#999999" d="M222.8,75.371c0-4.317-0.169-7.704-0.34-11.093h6.52l0.341,6.689h0.253c2.286-3.894,6.1-7.535,12.955-7.535
		c5.507,0,9.74,3.387,11.52,8.215h0.165c1.273-2.373,2.969-4.065,4.665-5.337c2.45-1.863,5.077-2.878,8.975-2.878
		c5.503,0,13.55,3.556,13.55,17.784v24.048h-7.284V82.146c0-7.961-2.963-12.618-8.893-12.618c-4.318,0-7.538,3.136-8.889,6.69
		c-0.339,1.101-0.593,2.371-0.593,3.726v25.32h-7.285V80.707c0-6.519-2.878-11.178-8.551-11.178c-4.572,0-8.047,3.726-9.231,7.452
		c-0.425,1.019-0.593,2.372-0.593,3.644v24.641H222.8V75.371L222.8,75.371z"/>
	<rect x="292.947" y="64.278" fill="#999999" width="7.451" height="40.986"/>
	<path fill="#999999" d="M318.57,64.278h10.669v5.673H318.57v22.104c0,5.081,1.44,7.959,5.59,7.959c2.031,0,3.216-0.169,4.317-0.507
		l0.339,5.671c-1.44,0.51-3.727,1.019-6.605,1.019c-3.472,0-6.268-1.188-8.044-3.134c-2.033-2.287-2.879-5.928-2.879-10.754V69.951
		h-6.352V64.28h6.352"/>
	<path fill="#999999" d="M3.815,32.228c0,15.158-10.584,21.763-20.407,21.763c-11.008,0-19.647-8.128-19.647-21.086
		c0-13.631,9.062-21.678,20.324-21.678C-4.145,11.227,3.815,19.78,3.815,32.228 M-28.619,32.651c0,8.977,5.082,15.751,12.364,15.751
		c7.114,0,12.449-6.689,12.449-15.921c0-6.943-3.471-15.666-12.278-15.666C-24.807,16.814-28.619,24.945-28.619,32.651"/>
	<path fill="#999999" d="M12.002,25.454c0-5.249-0.171-9.485-0.339-13.379h6.605l0.423,7.028h0.169
		c2.964-4.996,7.877-7.876,14.567-7.876c9.992,0,17.444,8.383,17.444,20.747c0,14.736-9.062,22.018-18.717,22.018
		c-5.418,0-10.16-2.372-12.616-6.436h-0.17v22.273h-7.367L12.002,25.454L12.002,25.454z M19.37,36.378
		c0,1.101,0.083,2.115,0.339,3.047c1.354,5.167,5.844,8.724,11.178,8.724c7.875,0,12.447-6.436,12.447-15.835
		c0-8.13-4.319-15.159-12.194-15.159c-5.08,0-9.906,3.557-11.261,9.145c-0.254,0.931-0.509,2.034-0.509,2.964V36.378z"/>
	<path fill="#999999" d="M65.56,33.922c0.17,10.075,6.521,14.227,14.059,14.227c5.332,0,8.637-0.933,11.346-2.118l1.355,5.335
		c-2.626,1.185-7.198,2.624-13.72,2.624c-12.617,0-20.154-8.383-20.154-20.748c0-12.364,7.284-22.019,19.225-22.019
		c13.462,0,16.935,11.688,16.935,19.223c0,1.524-0.083,2.625-0.253,3.472H65.56V33.922z M87.408,28.587
		c0.085-4.657-1.948-12.024-10.332-12.024c-7.62,0-10.838,6.859-11.431,12.024H87.408z"/>
	<path fill="#999999" d="M152.061,45.522c2.289,1.355,6.183,2.88,9.908,2.88c5.336,0,7.874-2.625,7.874-6.097
		c0-3.559-2.113-5.42-7.535-7.454c-7.452-2.709-10.924-6.689-10.924-11.602c0-6.605,5.419-12.023,14.143-12.023
		c4.15,0,7.791,1.101,9.991,2.541l-1.776,5.42c-1.607-1.016-4.571-2.455-8.384-2.455c-4.401,0-6.774,2.541-6.774,5.589
		c0,3.388,2.373,4.911,7.706,7.029c7.029,2.624,10.756,6.182,10.756,12.279c0,7.283-5.673,12.363-15.244,12.363
		c-4.488,0-8.639-1.186-11.517-2.878L152.061,45.522z"/>
	<path fill="#999999" d="M195.837,2.25v9.824h10.672v5.671h-10.672v22.103c0,5.082,1.439,7.962,5.588,7.962
		c2.033,0,3.22-0.168,4.319-0.507l0.341,5.672c-1.44,0.509-3.727,1.016-6.604,1.016c-3.474,0-6.269-1.185-8.046-3.133
		c-2.033-2.286-2.88-5.928-2.88-10.755V17.746h-6.352v-5.671h6.352V4.452L195.837,2.25z"/>
	<path fill="#999999" d="M244.905,43.236c0,3.558,0.168,7.028,0.594,9.824h-6.69l-0.596-5.166h-0.251
		c-2.287,3.218-6.689,6.096-12.533,6.096c-8.299,0-12.531-5.84-12.531-11.77c0-9.909,8.806-15.327,24.644-15.241v-0.85
		c0-3.301-0.935-9.483-9.315-9.398c-3.898,0-7.875,1.101-10.756,3.047l-1.694-4.995c3.39-2.117,8.385-3.558,13.55-3.558
		c12.534,0,15.582,8.553,15.582,16.684v15.326H244.905z M237.709,32.145c-8.13-0.171-17.36,1.269-17.36,9.229
		c0,4.911,3.217,7.113,6.943,7.113c5.419,0,8.892-3.387,10.078-6.859c0.252-0.848,0.339-1.694,0.339-2.373V32.145L237.709,32.145z"
		/>
	<path fill="#999999" d="M284.931,51.619c-1.947,0.931-6.267,2.372-11.771,2.372c-12.363,0-20.408-8.383-20.408-20.917
		c0-12.618,8.637-21.848,22.017-21.848c4.402,0,8.3,1.101,10.33,2.204l-1.694,5.672c-1.776-0.931-4.571-1.947-8.636-1.947
		c-9.401,0-14.479,7.028-14.479,15.496c0,9.485,6.095,15.327,14.225,15.327c4.236,0,7.027-1.016,9.148-1.947L284.931,51.619z"/>
	<path fill="#999999" d="M300.539,30.872h0.169c1.017-1.438,2.372-3.218,3.556-4.656l12.109-14.142h8.894l-15.751,16.851
		l18.037,24.135h-9.146L304.35,33.414l-3.811,4.235V53.06h-7.368V-7.065h7.368V30.872L300.539,30.872z"/>
	<polygon fill="#29AAE2" points="130.31,70.316 138.184,58.251 146.06,70.316 	"/>
	<polygon fill="#29AAE2" points="114.015,45.962 106.141,58.027 98.266,45.962 	"/>
	<path fill="#29AAE2" d="M134.69,68.966v20.099c0,7.303-5.568,13.247-12.411,13.247c-6.848,0-12.415-5.944-12.415-13.247V62.73
		h-7.396v26.335c0,10.914,8.883,19.791,19.811,19.791c10.92,0,19.808-8.877,19.808-19.791v-20.1H134.69z"/>
	<path fill="#29AAE2" d="M109.864,47.111V29.605c0-7.302,5.567-13.243,12.414-13.243c6.844,0,12.413,5.941,12.413,13.243v23.742
		h7.396V29.605c0-10.912-8.886-19.786-19.809-19.786c-10.926,0-19.809,8.874-19.809,19.786v17.506H109.864z"/>
	<g opacity="0.5">
		<g>
			<g>
				<path fill="#999999" d="M322.546,29.382c0,1.506-1.182,2.689-2.721,2.689c-1.52,0-2.736-1.183-2.736-2.689
					c0-1.474,1.217-2.657,2.736-2.657C321.364,26.725,322.546,27.908,322.546,29.382 M317.769,29.382
					c0,1.183,0.872,2.122,2.073,2.122c1.165,0,2.025-0.938,2.025-2.106c0-1.181-0.86-2.138-2.042-2.138
					C318.645,27.259,317.769,28.216,317.769,29.382 M319.405,30.775h-0.617v-2.656c0.243-0.048,0.583-0.082,1.021-0.082
					c0.503,0,0.729,0.082,0.925,0.195c0.145,0.112,0.259,0.324,0.259,0.582c0,0.291-0.229,0.519-0.552,0.615v0.033
					c0.259,0.098,0.404,0.291,0.484,0.647c0.081,0.405,0.131,0.567,0.195,0.663h-0.662c-0.081-0.097-0.132-0.34-0.213-0.648
					c-0.05-0.291-0.211-0.421-0.552-0.421h-0.288V30.775L319.405,30.775z M319.421,29.269h0.29c0.341,0,0.615-0.114,0.615-0.39
					c0-0.243-0.18-0.405-0.565-0.405c-0.163,0-0.276,0.017-0.342,0.032v0.763H319.421z"/>
				<path fill="#999999" d="M322.546,29.382c0,1.506-1.182,2.689-2.721,2.689c-1.52,0-2.736-1.183-2.736-2.689
					c0-1.474,1.217-2.657,2.736-2.657C321.364,26.725,322.546,27.908,322.546,29.382 M317.769,29.382
					c0,1.183,0.872,2.122,2.073,2.122c1.165,0,2.025-0.938,2.025-2.106c0-1.181-0.86-2.138-2.042-2.138
					C318.645,27.259,317.769,28.216,317.769,29.382 M319.405,30.775h-0.617v-2.656c0.243-0.048,0.583-0.082,1.021-0.082
					c0.503,0,0.729,0.082,0.925,0.195c0.145,0.112,0.259,0.324,0.259,0.582c0,0.291-0.229,0.519-0.552,0.615v0.033
					c0.259,0.098,0.404,0.291,0.484,0.647c0.081,0.405,0.131,0.567,0.195,0.663h-0.662c-0.081-0.097-0.132-0.34-0.213-0.648
					c-0.05-0.291-0.211-0.421-0.552-0.421h-0.288V30.775L319.405,30.775z M319.421,29.269h0.29c0.341,0,0.615-0.114,0.615-0.39
					c0-0.243-0.18-0.405-0.565-0.405c-0.163,0-0.276,0.017-0.342,0.032v0.763H319.421z"/>
			</g>
		</g>
	</g>
</g>
</svg>
