<?xml version="1.0" encoding="utf-8"?>
<!-- Generator: Adobe Illustrator 16.0.4, SVG Export Plug-In . SVG Version: 6.00 Build 0)  -->
<!DOCTYPE svg PUBLIC "-//W3C//DTD SVG 1.1//EN" "http://www.w3.org/Graphics/SVG/1.1/DTD/svg11.dtd">
<svg version="1.1" id="Layer_1" xmlns="http://www.w3.org/2000/svg" xmlns:xlink="http://www.w3.org/1999/xlink" x="0px" y="0px"
	 width="75.439px" height="96.491px" viewBox="0 0 75.439 96.491" enable-background="new 0 0 75.439 96.491" xml:space="preserve">
<g>
	<polygon fill="#A7B2BC" points="44.158,56.921 50.38,47.386 56.604,56.921 	"/>
	<polygon fill="#A7B2BC" points="31.281,37.675 25.058,47.21 18.835,37.675 	"/>
	<path fill="#A7B2BC" d="M47.619,55.854v15.883c0,5.771-4.4,10.469-9.808,10.469C32.4,82.205,28,77.508,28,71.736V50.926h-5.844
		v20.812c0,8.625,7.02,15.641,15.655,15.641c8.63,0,15.653-7.016,15.653-15.641V55.854H47.619z"/>
	<path fill="#A7B2BC" d="M28,38.583V24.749c0-5.77,4.4-10.465,9.81-10.465c5.409,0,9.809,4.695,9.809,10.465v18.762h5.845V24.749
		c0-8.623-7.022-15.636-15.654-15.636c-8.634,0-15.654,7.013-15.654,15.636v13.834H28z"/>
</g>
</svg>
