<?xml version="1.0" encoding="utf-8"?>
<!-- Generator: Adobe Illustrator 16.0.4, SVG Export Plug-In . SVG Version: 6.00 Build 0)  -->
<!DOCTYPE svg PUBLIC "-//W3C//DTD SVG 1.1//EN" "http://www.w3.org/Graphics/SVG/1.1/DTD/svg11.dtd">
<svg version="1.1" id="Layer_1" xmlns="http://www.w3.org/2000/svg" xmlns:xlink="http://www.w3.org/1999/xlink" x="0px" y="0px"
	 width="293px" height="118px" viewBox="0 0 293 118" enable-background="new 0 0 293 118" xml:space="preserve">
<g>
	<g>
		<path fill="#797066" d="M116.377,114.023c0,0.913,0.018,1.717,0.073,2.411h-1.424l-0.092-1.443h-0.037
			c-0.42,0.712-1.352,1.645-2.923,1.645c-1.389,0-3.051-0.768-3.051-3.873v-5.171h1.607v4.896c0,1.682,0.512,2.813,1.973,2.813
			c1.078,0,1.827-0.748,2.12-1.462c0.091-0.237,0.146-0.529,0.146-0.821v-5.427h1.608V114.023z"/>
		<path fill="#797066" d="M118.824,114.79c0.476,0.312,1.315,0.64,2.12,0.64c1.169,0,1.717-0.585,1.717-1.314
			c0-0.769-0.457-1.188-1.645-1.627c-1.589-0.566-2.338-1.443-2.338-2.503c0-1.425,1.151-2.594,3.051-2.594
			c0.895,0,1.681,0.256,2.174,0.548l-0.403,1.169c-0.346-0.219-0.985-0.511-1.808-0.511c-0.951,0-1.48,0.547-1.48,1.205
			c0,0.731,0.53,1.06,1.682,1.498c1.534,0.585,2.32,1.353,2.32,2.668c0,1.553-1.206,2.648-3.307,2.648
			c-0.968,0-1.863-0.237-2.484-0.603L118.824,114.79z"/>
		<path fill="#797066" d="M127.173,112.306c0.036,2.174,1.425,3.069,3.032,3.069c1.151,0,1.846-0.2,2.448-0.456l0.274,1.15
			c-0.566,0.257-1.535,0.548-2.941,0.548c-2.722,0-4.349-1.79-4.349-4.458c0-2.667,1.571-4.768,4.147-4.768
			c2.886,0,3.654,2.539,3.654,4.165c0,0.329-0.037,0.585-0.055,0.749H127.173z M131.886,111.155
			c0.018-1.023-0.421-2.612-2.229-2.612c-1.626,0-2.338,1.498-2.467,2.612H131.886z"/>
		<path fill="#797066" d="M135.43,110.352c0-1.042-0.019-1.938-0.073-2.76h1.407l0.055,1.736h0.073
			c0.402-1.188,1.37-1.937,2.449-1.937c0.182,0,0.311,0.018,0.456,0.055v1.517c-0.165-0.036-0.329-0.055-0.547-0.055
			c-1.133,0-1.937,0.859-2.156,2.064c-0.036,0.219-0.073,0.475-0.073,0.749v4.713h-1.589V110.352z"/>
		<path fill="#797066" d="M141.184,114.79c0.475,0.312,1.315,0.64,2.119,0.64c1.17,0,1.718-0.585,1.718-1.314
			c0-0.769-0.457-1.188-1.645-1.627c-1.59-0.566-2.338-1.443-2.338-2.503c0-1.425,1.151-2.594,3.051-2.594
			c0.896,0,1.681,0.256,2.175,0.548l-0.402,1.169c-0.348-0.219-0.987-0.511-1.809-0.511c-0.951,0-1.48,0.547-1.48,1.205
			c0,0.731,0.529,1.06,1.68,1.498c1.535,0.585,2.32,1.353,2.32,2.668c0,1.553-1.205,2.648-3.306,2.648
			c-0.968,0-1.863-0.237-2.485-0.603L141.184,114.79z"/>
		<path fill="#797066" d="M116.615,1v10.688c0,0.786,0.018,1.681,0.072,2.284h-1.443l-0.073-1.535h-0.037
			c-0.493,0.986-1.571,1.736-3.015,1.736c-2.137,0-3.782-1.809-3.782-4.494c-0.018-2.942,1.809-4.75,3.964-4.75
			c1.353,0,2.266,0.639,2.668,1.352h0.036V1H116.615z M115.006,8.728c0-0.201-0.018-0.475-0.073-0.676
			c-0.238-1.023-1.114-1.864-2.32-1.864c-1.663,0-2.649,1.461-2.649,3.417c0,1.791,0.877,3.27,2.613,3.27
			c1.078,0,2.064-0.712,2.356-1.918c0.055-0.219,0.073-0.438,0.073-0.694V8.728z"/>
		<path fill="#797066" d="M120.176,9.843c0.037,2.174,1.425,3.069,3.032,3.069c1.151,0,1.846-0.201,2.448-0.457l0.274,1.151
			c-0.566,0.256-1.535,0.548-2.941,0.548c-2.722,0-4.349-1.791-4.349-4.458c0-2.667,1.572-4.768,4.147-4.768
			c2.886,0,3.654,2.539,3.654,4.165c0,0.329-0.037,0.585-0.055,0.75H120.176z M124.89,8.691c0.018-1.023-0.42-2.613-2.229-2.613
			c-1.626,0-2.339,1.498-2.466,2.613H124.89z"/>
		<path fill="#797066" d="M129.054,5.129l1.735,4.969c0.292,0.804,0.53,1.535,0.712,2.266h0.055
			c0.202-0.731,0.457-1.462,0.749-2.266l1.717-4.969h1.681l-3.472,8.842h-1.534l-3.362-8.842H129.054z"/>
		<path fill="#797066" d="M136.891,12.327c0.475,0.311,1.315,0.639,2.119,0.639c1.169,0,1.718-0.584,1.718-1.315
			c0-0.767-0.457-1.187-1.645-1.625c-1.59-0.567-2.339-1.443-2.339-2.503c0-1.426,1.151-2.595,3.051-2.595
			c0.895,0,1.681,0.256,2.174,0.548l-0.402,1.169c-0.347-0.219-0.986-0.511-1.808-0.511c-0.95,0-1.48,0.548-1.48,1.205
			c0,0.731,0.53,1.06,1.681,1.499c1.535,0.584,2.32,1.352,2.32,2.667c0,1.553-1.206,2.649-3.306,2.649
			c-0.968,0-1.863-0.237-2.485-0.603L136.891,12.327z"/>
		<path fill="#FFFFFF" d="M84.134,89.422c1.808,1.072,4.886,2.277,7.831,2.277c4.216,0,6.223-2.076,6.223-4.818
			c0-2.812-1.673-4.282-5.955-5.889c-5.889-2.143-8.634-5.288-8.634-9.17c0-5.219,4.282-9.502,11.177-9.502
			c3.278,0,6.155,0.87,7.896,2.008l-1.405,4.282c-1.272-0.802-3.614-1.939-6.626-1.939c-3.479,0-5.353,2.008-5.353,4.417
			c0,2.676,1.874,3.88,6.09,5.553c5.554,2.074,8.499,4.886,8.499,9.704c0,5.755-4.483,9.771-12.045,9.771
			c-3.547,0-6.826-0.938-9.102-2.274L84.134,89.422z"/>
		<path fill="#FFFFFF" d="M151.899,71.756c0-3.413-0.134-6.089-0.269-8.767h5.153l0.268,5.287h0.201
			c1.807-3.078,4.817-5.956,10.238-5.956c4.35,0,7.694,2.677,9.103,6.492h0.134c1.004-1.875,2.342-3.213,3.68-4.216
			c1.941-1.473,4.014-2.276,7.093-2.276c4.351,0,10.707,2.811,10.707,14.055v19.004h-5.754V77.11c0-6.291-2.343-9.973-7.027-9.973
			c-3.412,0-5.958,2.478-7.026,5.288c-0.269,0.869-0.47,1.873-0.47,2.943v20.01h-5.754V75.973c0-5.153-2.275-8.835-6.76-8.835
			c-3.613,0-6.356,2.945-7.292,5.889c-0.336,0.806-0.471,1.876-0.471,2.88v19.473h-5.754V71.756z"/>
		<path fill="#FFFFFF" d="M207.141,71.756c0-3.413-0.134-6.089-0.269-8.767h5.151l0.27,5.287h0.2
			c1.807-3.078,4.819-5.956,10.238-5.956c4.351,0,7.697,2.677,9.103,6.492h0.131c1.006-1.875,2.345-3.213,3.685-4.216
			c1.938-1.473,4.013-2.276,7.093-2.276c4.349,0,10.707,2.811,10.707,14.055v19.004h-5.755V77.11c0-6.291-2.341-9.973-7.028-9.973
			c-3.412,0-5.956,2.478-7.025,5.288c-0.267,0.869-0.468,1.873-0.468,2.943v20.01h-5.756V75.973c0-5.153-2.275-8.835-6.758-8.835
			c-3.613,0-6.359,2.945-7.295,5.889c-0.335,0.806-0.469,1.876-0.469,2.88v19.473h-5.755V71.756z"/>
		<rect x="262.574" y="62.989" fill="#FFFFFF" width="5.889" height="32.39"/>
		<path fill="#FFFFFF" d="M282.823,62.989h8.431v4.483h-8.431V84.94c0,4.015,1.138,6.289,4.417,6.289
			c1.605,0,2.541-0.134,3.412-0.401l0.268,4.483c-1.139,0.402-2.945,0.804-5.22,0.804c-2.743,0-4.953-0.938-6.357-2.476
			c-1.606-1.808-2.275-4.685-2.275-8.499V67.473h-5.019v-4.483h5.019"/>
		<path fill="#FFFFFF" d="M34.087,37.661c0,11.979-8.364,17.199-16.127,17.199c-8.699,0-15.526-6.424-15.526-16.664
			c0-10.772,7.161-17.131,16.061-17.131C27.797,21.065,34.087,27.824,34.087,37.661 M8.456,37.996
			c0,7.094,4.016,12.448,9.771,12.448c5.622,0,9.838-5.287,9.838-12.582c0-5.487-2.743-12.38-9.703-12.38
			C11.469,25.481,8.456,31.906,8.456,37.996"/>
		<path fill="#FFFFFF" d="M40.557,32.308c0-4.148-0.135-7.496-0.268-10.573h5.22l0.334,5.554h0.133
			c2.343-3.948,6.225-6.224,11.512-6.224c7.896,0,13.785,6.625,13.785,16.395c0,11.645-7.161,17.4-14.791,17.4
			c-4.282,0-8.029-1.875-9.97-5.086h-0.134v17.601h-5.822V32.308z M46.379,40.941c0,0.87,0.066,1.672,0.268,2.408
			c1.07,4.083,4.618,6.894,8.833,6.894c6.223,0,9.837-5.086,9.837-12.514c0-6.425-3.413-11.979-9.637-11.979
			c-4.014,0-7.828,2.811-8.899,7.227c-0.201,0.736-0.402,1.607-0.402,2.343V40.941z"/>
		<path fill="#FFFFFF" d="M82.881,39c0.134,7.962,5.153,11.243,11.109,11.243c4.214,0,6.826-0.737,8.967-1.674l1.071,4.216
			c-2.076,0.936-5.688,2.074-10.842,2.074c-9.971,0-15.927-6.625-15.927-16.396c0-9.771,5.756-17.4,15.192-17.4
			c10.639,0,13.383,9.236,13.383,15.191c0,1.204-0.066,2.074-0.2,2.744H82.881z M100.147,34.784c0.067-3.68-1.54-9.502-8.165-9.502
			c-6.022,0-8.565,5.42-9.034,9.502H100.147z"/>
		<path fill="#FFFFFF" d="M151.238,48.167c1.81,1.071,4.886,2.276,7.83,2.276c4.217,0,6.223-2.075,6.223-4.818
			c0-2.812-1.671-4.283-5.955-5.89c-5.889-2.141-8.633-5.287-8.633-9.168c0-5.22,4.283-9.502,11.177-9.502
			c3.279,0,6.156,0.87,7.896,2.008l-1.404,4.283c-1.271-0.803-3.613-1.94-6.626-1.94c-3.479,0-5.353,2.008-5.353,4.417
			c0,2.677,1.874,3.881,6.09,5.554c5.554,2.074,8.5,4.886,8.5,9.704c0,5.755-4.484,9.77-12.047,9.77
			c-3.547,0-6.827-0.937-9.101-2.275L151.238,48.167z"/>
		<path fill="#FFFFFF" d="M185.833,13.971v7.764h8.433v4.482h-8.433v17.466c0,4.016,1.137,6.292,4.416,6.292
			c1.606,0,2.544-0.133,3.413-0.401l0.269,4.482c-1.138,0.402-2.944,0.804-5.219,0.804c-2.745,0-4.954-0.937-6.359-2.476
			c-1.606-1.807-2.275-4.685-2.275-8.499V26.217h-5.019v-4.482h5.019v-6.024L185.833,13.971z"/>
		<path fill="#FFFFFF" d="M224.61,46.361c0,2.811,0.132,5.554,0.468,7.763h-5.287l-0.47-4.082h-0.199
			c-1.807,2.543-5.287,4.818-9.904,4.818c-6.559,0-9.903-4.616-9.903-9.302c0-7.83,6.958-12.112,19.474-12.044v-0.671
			c0-2.609-0.738-7.495-7.361-7.427c-3.08,0-6.224,0.87-8.5,2.408l-1.339-3.947c2.678-1.673,6.626-2.812,10.708-2.812
			c9.905,0,12.314,6.759,12.314,13.184V46.361z M218.922,37.595c-6.425-0.135-13.719,1.003-13.719,7.294
			c0,3.881,2.542,5.621,5.487,5.621c4.283,0,7.027-2.677,7.964-5.42c0.2-0.67,0.268-1.339,0.268-1.875V37.595z"/>
		<path fill="#FFFFFF" d="M256.239,52.985c-1.539,0.736-4.952,1.875-9.301,1.875c-9.771,0-16.127-6.625-16.127-16.53
			c0-9.971,6.824-17.265,17.398-17.265c3.479,0,6.559,0.87,8.163,1.741l-1.339,4.483c-1.404-0.736-3.613-1.539-6.824-1.539
			c-7.43,0-11.444,5.554-11.444,12.246c0,7.495,4.817,12.112,11.242,12.112c3.348,0,5.554-0.803,7.229-1.539L256.239,52.985z"/>
		<path fill="#FFFFFF" d="M268.573,36.59h0.134c0.804-1.137,1.874-2.543,2.811-3.68l9.569-11.175h7.027l-12.447,13.317
			l14.254,19.072h-7.228l-11.108-15.526l-3.012,3.347v12.179h-5.822V6.61h5.822V36.59z"/>
		<polygon fill="#29AAE2" points="134.05,67.761 140.272,58.226 146.496,67.761 		"/>
		<polygon fill="#29AAE2" points="121.173,48.515 114.95,58.05 108.727,48.515 		"/>
		<path fill="#29AAE2" d="M137.511,66.693v15.883c0,5.771-4.4,10.469-9.808,10.469c-5.411,0-9.811-4.697-9.811-10.469V61.765h-5.844
			v20.812c0,8.625,7.02,15.641,15.655,15.641c8.63,0,15.653-7.016,15.653-15.641V66.693H137.511z"/>
		<path fill="#29AAE2" d="M117.892,49.423V35.589c0-5.77,4.4-10.465,9.81-10.465c5.409,0,9.809,4.695,9.809,10.465v18.762h5.845
			V35.589c0-8.623-7.022-15.636-15.654-15.636c-8.634,0-15.654,7.013-15.654,15.636v13.834H117.892z"/>
		<g opacity="0.5">
			<g>
				<path fill="#FFFFFF" d="M285.965,35.412c0,1.19-0.934,2.125-2.15,2.125c-1.202,0-2.163-0.935-2.163-2.125
					c0-1.164,0.961-2.099,2.163-2.099C285.031,33.313,285.965,34.248,285.965,35.412 M282.189,35.412
					c0,0.935,0.69,1.677,1.638,1.677c0.922,0,1.601-0.742,1.601-1.664c0-0.934-0.679-1.69-1.613-1.69S282.189,34.491,282.189,35.412
					 M283.482,36.513h-0.487v-2.099c0.192-0.038,0.461-0.064,0.807-0.064c0.397,0,0.576,0.064,0.73,0.154
					c0.114,0.089,0.204,0.256,0.204,0.46c0,0.23-0.18,0.41-0.435,0.486v0.026c0.204,0.077,0.319,0.23,0.383,0.512
					c0.064,0.32,0.103,0.448,0.154,0.524h-0.524c-0.064-0.077-0.103-0.269-0.167-0.512c-0.039-0.23-0.166-0.333-0.436-0.333h-0.229
					V36.513z M283.495,35.323h0.229c0.27,0,0.487-0.09,0.487-0.308c0-0.192-0.142-0.32-0.448-0.32c-0.128,0-0.218,0.013-0.269,0.025
					V35.323z"/>
				<path fill="#FFFFFF" d="M285.965,35.412c0,1.19-0.934,2.125-2.15,2.125c-1.202,0-2.163-0.935-2.163-2.125
					c0-1.164,0.961-2.099,2.163-2.099C285.031,33.313,285.965,34.248,285.965,35.412 M282.189,35.412
					c0,0.935,0.69,1.677,1.638,1.677c0.922,0,1.601-0.742,1.601-1.664c0-0.934-0.679-1.69-1.613-1.69S282.189,34.491,282.189,35.412
					 M283.482,36.513h-0.487v-2.099c0.192-0.038,0.461-0.064,0.807-0.064c0.397,0,0.576,0.064,0.73,0.154
					c0.114,0.089,0.204,0.256,0.204,0.46c0,0.23-0.18,0.41-0.435,0.486v0.026c0.204,0.077,0.319,0.23,0.383,0.512
					c0.064,0.32,0.103,0.448,0.154,0.524h-0.524c-0.064-0.077-0.103-0.269-0.167-0.512c-0.039-0.23-0.166-0.333-0.436-0.333h-0.229
					V36.513z M283.495,35.323h0.229c0.27,0,0.487-0.09,0.487-0.308c0-0.192-0.142-0.32-0.448-0.32c-0.128,0-0.218,0.013-0.269,0.025
					V35.323z"/>
			</g>
		</g>
	</g>
</g>
</svg>
