<?xml version="1.0" encoding="utf-8"?>
<!-- Generator: Adobe Illustrator 19.2.1, SVG Export Plug-In . SVG Version: 6.00 Build 0)  -->
<svg version="1.1" id="Layer_1" xmlns="http://www.w3.org/2000/svg" xmlns:xlink="http://www.w3.org/1999/xlink" x="0px" y="0px"
	 viewBox="0 0 882.3 372.5" enable-background="new 0 0 882.3 372.5" xml:space="preserve">
<g>
	<rect x="12" y="88.5" fill="#F7F7F7" stroke="#AAAAAA" stroke-miterlimit="10" width="678.8" height="253.8"/>
	<polygon fill="#B0F4FF" stroke="#28658E" stroke-width="2" stroke-miterlimit="10" points="662.9,357.5 38.2,357.5 35.8,316.1 
		109.9,212.4 591.3,212.4 665.4,316.1 	"/>
	<g>
		<rect x="72.5" y="245.6" fill="#2CC5F4" stroke="#08497C" stroke-width="2" stroke-miterlimit="10" width="84.6" height="25.7"/>
		<circle fill="#08497C" cx="84.1" cy="254.7" r="2.4"/>
		<g>
			<defs>
				<rect id="SVGID_16_" x="89.9" y="250" width="57.3" height="16"/>
			</defs>
			<clipPath id="SVGID_1_">
				<use xlink:href="#SVGID_16_"  overflow="visible"/>
			</clipPath>
			<g clip-path="url(#SVGID_1_)">
				<line fill="none" stroke="#08497C" stroke-miterlimit="10" x1="47.3" y1="265.9" x2="62.1" y2="251.1"/>
				<line fill="none" stroke="#08497C" stroke-miterlimit="10" x1="53.6" y1="265.9" x2="68.4" y2="251.1"/>
				<line fill="none" stroke="#08497C" stroke-miterlimit="10" x1="60" y1="265.9" x2="74.8" y2="251.1"/>
				<line fill="none" stroke="#08497C" stroke-miterlimit="10" x1="66.3" y1="265.9" x2="81.1" y2="251.1"/>
				<line fill="none" stroke="#08497C" stroke-miterlimit="10" x1="72.6" y1="265.9" x2="87.4" y2="251.1"/>
				<line fill="none" stroke="#08497C" stroke-miterlimit="10" x1="79" y1="265.9" x2="93.8" y2="251.1"/>
				<line fill="none" stroke="#08497C" stroke-miterlimit="10" x1="85.3" y1="265.9" x2="100.1" y2="251.1"/>
				<line fill="none" stroke="#08497C" stroke-miterlimit="10" x1="91.7" y1="265.9" x2="106.5" y2="251.1"/>
				<line fill="none" stroke="#08497C" stroke-miterlimit="10" x1="98" y1="265.9" x2="112.8" y2="251.1"/>
				<line fill="none" stroke="#08497C" stroke-miterlimit="10" x1="104.3" y1="265.9" x2="119.1" y2="251.1"/>
				<line fill="none" stroke="#08497C" stroke-miterlimit="10" x1="110.7" y1="265.9" x2="125.5" y2="251.1"/>
				<line fill="none" stroke="#08497C" stroke-miterlimit="10" x1="117" y1="265.9" x2="131.8" y2="251.1"/>
				<line fill="none" stroke="#08497C" stroke-miterlimit="10" x1="123.4" y1="265.9" x2="138.2" y2="251.1"/>
				<line fill="none" stroke="#08497C" stroke-miterlimit="10" x1="129.7" y1="265.9" x2="144.5" y2="251.1"/>
				<line fill="none" stroke="#08497C" stroke-miterlimit="10" x1="136" y1="265.9" x2="150.8" y2="251.1"/>
				<line fill="none" stroke="#08497C" stroke-miterlimit="10" x1="142.4" y1="265.9" x2="157.2" y2="251.1"/>
				<line fill="none" stroke="#08497C" stroke-miterlimit="10" x1="148.7" y1="265.9" x2="163.5" y2="251.1"/>
				<line fill="none" stroke="#08497C" stroke-miterlimit="10" x1="155.1" y1="265.9" x2="169.9" y2="251.1"/>
			</g>
		</g>
		<line fill="none" stroke="#08497C" stroke-miterlimit="10" x1="89.9" y1="251.4" x2="89.9" y2="266.9"/>
	</g>
	<g>
		<rect x="72.5" y="186.9" fill="#2CC5F4" stroke="#08497C" stroke-width="2" stroke-miterlimit="10" width="84.6" height="25.7"/>
		<circle fill="#08497C" cx="84.1" cy="195.9" r="2.4"/>
		<g>
			<defs>
				<rect id="SVGID_14_" x="89.9" y="191.2" width="57.3" height="16"/>
			</defs>
			<clipPath id="SVGID_2_">
				<use xlink:href="#SVGID_14_"  overflow="visible"/>
			</clipPath>
			<g clip-path="url(#SVGID_2_)">
				<line fill="none" stroke="#08497C" stroke-miterlimit="10" x1="47.3" y1="207.1" x2="62.1" y2="192.4"/>
				<line fill="none" stroke="#08497C" stroke-miterlimit="10" x1="53.6" y1="207.1" x2="68.4" y2="192.4"/>
				<line fill="none" stroke="#08497C" stroke-miterlimit="10" x1="60" y1="207.1" x2="74.8" y2="192.4"/>
				<line fill="none" stroke="#08497C" stroke-miterlimit="10" x1="66.3" y1="207.1" x2="81.1" y2="192.4"/>
				<line fill="none" stroke="#08497C" stroke-miterlimit="10" x1="72.6" y1="207.1" x2="87.4" y2="192.4"/>
				<line fill="none" stroke="#08497C" stroke-miterlimit="10" x1="79" y1="207.1" x2="93.8" y2="192.4"/>
				<line fill="none" stroke="#08497C" stroke-miterlimit="10" x1="85.3" y1="207.1" x2="100.1" y2="192.4"/>
				<line fill="none" stroke="#08497C" stroke-miterlimit="10" x1="91.7" y1="207.1" x2="106.5" y2="192.4"/>
				<line fill="none" stroke="#08497C" stroke-miterlimit="10" x1="98" y1="207.1" x2="112.8" y2="192.4"/>
				<line fill="none" stroke="#08497C" stroke-miterlimit="10" x1="104.3" y1="207.1" x2="119.1" y2="192.4"/>
				<line fill="none" stroke="#08497C" stroke-miterlimit="10" x1="110.7" y1="207.1" x2="125.5" y2="192.4"/>
				<line fill="none" stroke="#08497C" stroke-miterlimit="10" x1="117" y1="207.1" x2="131.8" y2="192.4"/>
				<line fill="none" stroke="#08497C" stroke-miterlimit="10" x1="123.4" y1="207.1" x2="138.2" y2="192.4"/>
				<line fill="none" stroke="#08497C" stroke-miterlimit="10" x1="129.7" y1="207.1" x2="144.5" y2="192.4"/>
				<line fill="none" stroke="#08497C" stroke-miterlimit="10" x1="136" y1="207.1" x2="150.8" y2="192.4"/>
				<line fill="none" stroke="#08497C" stroke-miterlimit="10" x1="142.4" y1="207.1" x2="157.2" y2="192.4"/>
				<line fill="none" stroke="#08497C" stroke-miterlimit="10" x1="148.7" y1="207.1" x2="163.5" y2="192.4"/>
				<line fill="none" stroke="#08497C" stroke-miterlimit="10" x1="155.1" y1="207.1" x2="169.9" y2="192.4"/>
			</g>
		</g>
		<line fill="none" stroke="#08497C" stroke-miterlimit="10" x1="89.9" y1="192.7" x2="89.9" y2="208.1"/>
	</g>
	<g>
		<rect x="72.5" y="216" fill="#2CC5F4" stroke="#08497C" stroke-width="2" stroke-miterlimit="10" width="84.6" height="25.7"/>
		<circle fill="#08497C" cx="84.1" cy="225" r="2.4"/>
		<g>
			<defs>
				<rect id="SVGID_13_" x="89.9" y="220.3" width="57.3" height="16"/>
			</defs>
			<clipPath id="SVGID_3_">
				<use xlink:href="#SVGID_13_"  overflow="visible"/>
			</clipPath>
			<g clip-path="url(#SVGID_3_)">
				<line fill="none" stroke="#08497C" stroke-miterlimit="10" x1="47.3" y1="236.2" x2="62.1" y2="221.5"/>
				<line fill="none" stroke="#08497C" stroke-miterlimit="10" x1="53.6" y1="236.2" x2="68.4" y2="221.5"/>
				<line fill="none" stroke="#08497C" stroke-miterlimit="10" x1="60" y1="236.2" x2="74.8" y2="221.5"/>
				<line fill="none" stroke="#08497C" stroke-miterlimit="10" x1="66.3" y1="236.2" x2="81.1" y2="221.5"/>
				<line fill="none" stroke="#08497C" stroke-miterlimit="10" x1="72.6" y1="236.2" x2="87.4" y2="221.5"/>
				<line fill="none" stroke="#08497C" stroke-miterlimit="10" x1="79" y1="236.2" x2="93.8" y2="221.5"/>
				<line fill="none" stroke="#08497C" stroke-miterlimit="10" x1="85.3" y1="236.2" x2="100.1" y2="221.5"/>
				<line fill="none" stroke="#08497C" stroke-miterlimit="10" x1="91.7" y1="236.2" x2="106.5" y2="221.5"/>
				<line fill="none" stroke="#08497C" stroke-miterlimit="10" x1="98" y1="236.2" x2="112.8" y2="221.5"/>
				<line fill="none" stroke="#08497C" stroke-miterlimit="10" x1="104.3" y1="236.2" x2="119.1" y2="221.5"/>
				<line fill="none" stroke="#08497C" stroke-miterlimit="10" x1="110.7" y1="236.2" x2="125.5" y2="221.5"/>
				<line fill="none" stroke="#08497C" stroke-miterlimit="10" x1="117" y1="236.2" x2="131.8" y2="221.5"/>
				<line fill="none" stroke="#08497C" stroke-miterlimit="10" x1="123.4" y1="236.2" x2="138.2" y2="221.5"/>
				<line fill="none" stroke="#08497C" stroke-miterlimit="10" x1="129.7" y1="236.2" x2="144.5" y2="221.5"/>
				<line fill="none" stroke="#08497C" stroke-miterlimit="10" x1="136" y1="236.2" x2="150.8" y2="221.5"/>
				<line fill="none" stroke="#08497C" stroke-miterlimit="10" x1="142.4" y1="236.2" x2="157.2" y2="221.5"/>
				<line fill="none" stroke="#08497C" stroke-miterlimit="10" x1="148.7" y1="236.2" x2="163.5" y2="221.5"/>
				<line fill="none" stroke="#08497C" stroke-miterlimit="10" x1="155.1" y1="236.2" x2="169.9" y2="221.5"/>
			</g>
		</g>
		<line fill="none" stroke="#08497C" stroke-miterlimit="10" x1="89.9" y1="221.8" x2="89.9" y2="237.2"/>
	</g>
	<g>
		<rect x="195.1" y="245.6" fill="#2CC5F4" stroke="#08497C" stroke-width="2" stroke-miterlimit="10" width="84.6" height="25.7"/>
		<circle fill="#08497C" cx="206.7" cy="254.7" r="2.4"/>
		<g>
			<defs>
				<rect id="SVGID_11_" x="212.6" y="250" width="57.3" height="16"/>
			</defs>
			<clipPath id="SVGID_4_">
				<use xlink:href="#SVGID_11_"  overflow="visible"/>
			</clipPath>
			<g clip-path="url(#SVGID_4_)">
				<line fill="none" stroke="#08497C" stroke-miterlimit="10" x1="169.9" y1="265.9" x2="184.7" y2="251.1"/>
				<line fill="none" stroke="#08497C" stroke-miterlimit="10" x1="176.3" y1="265.9" x2="191.1" y2="251.1"/>
				<line fill="none" stroke="#08497C" stroke-miterlimit="10" x1="182.6" y1="265.9" x2="197.4" y2="251.1"/>
				<line fill="none" stroke="#08497C" stroke-miterlimit="10" x1="188.9" y1="265.9" x2="203.7" y2="251.1"/>
				<line fill="none" stroke="#08497C" stroke-miterlimit="10" x1="195.3" y1="265.9" x2="210.1" y2="251.1"/>
				<line fill="none" stroke="#08497C" stroke-miterlimit="10" x1="201.6" y1="265.9" x2="216.4" y2="251.1"/>
				<line fill="none" stroke="#08497C" stroke-miterlimit="10" x1="208" y1="265.9" x2="222.8" y2="251.1"/>
				<line fill="none" stroke="#08497C" stroke-miterlimit="10" x1="214.3" y1="265.9" x2="229.1" y2="251.1"/>
				<line fill="none" stroke="#08497C" stroke-miterlimit="10" x1="220.6" y1="265.9" x2="235.4" y2="251.1"/>
				<line fill="none" stroke="#08497C" stroke-miterlimit="10" x1="227" y1="265.9" x2="241.8" y2="251.1"/>
				<line fill="none" stroke="#08497C" stroke-miterlimit="10" x1="233.3" y1="265.9" x2="248.1" y2="251.1"/>
				<line fill="none" stroke="#08497C" stroke-miterlimit="10" x1="239.7" y1="265.9" x2="254.5" y2="251.1"/>
				<line fill="none" stroke="#08497C" stroke-miterlimit="10" x1="246" y1="265.9" x2="260.8" y2="251.1"/>
				<line fill="none" stroke="#08497C" stroke-miterlimit="10" x1="252.3" y1="265.9" x2="267.1" y2="251.1"/>
				<line fill="none" stroke="#08497C" stroke-miterlimit="10" x1="258.7" y1="265.9" x2="273.5" y2="251.1"/>
				<line fill="none" stroke="#08497C" stroke-miterlimit="10" x1="265" y1="265.9" x2="279.8" y2="251.1"/>
				<line fill="none" stroke="#08497C" stroke-miterlimit="10" x1="271.4" y1="265.9" x2="286.2" y2="251.1"/>
				<line fill="none" stroke="#08497C" stroke-miterlimit="10" x1="277.7" y1="265.9" x2="292.5" y2="251.1"/>
			</g>
		</g>
		<line fill="none" stroke="#08497C" stroke-miterlimit="10" x1="212.6" y1="251.4" x2="212.6" y2="266.9"/>
	</g>
	<g>
		<rect x="312.4" y="245.6" fill="#2CC5F4" stroke="#08497C" stroke-width="2" stroke-miterlimit="10" width="84.6" height="25.7"/>
		<circle fill="#08497C" cx="323.9" cy="254.7" r="2.4"/>
		<g>
			<defs>
				<rect id="SVGID_10_" x="329.8" y="250" width="57.3" height="16"/>
			</defs>
			<clipPath id="SVGID_5_">
				<use xlink:href="#SVGID_10_"  overflow="visible"/>
			</clipPath>
			<g clip-path="url(#SVGID_5_)">
				<line fill="none" stroke="#08497C" stroke-miterlimit="10" x1="287.2" y1="265.9" x2="302" y2="251.1"/>
				<line fill="none" stroke="#08497C" stroke-miterlimit="10" x1="293.5" y1="265.9" x2="308.3" y2="251.1"/>
				<line fill="none" stroke="#08497C" stroke-miterlimit="10" x1="299.8" y1="265.9" x2="314.6" y2="251.1"/>
				<line fill="none" stroke="#08497C" stroke-miterlimit="10" x1="306.2" y1="265.9" x2="321" y2="251.1"/>
				<line fill="none" stroke="#08497C" stroke-miterlimit="10" x1="312.5" y1="265.9" x2="327.3" y2="251.1"/>
				<line fill="none" stroke="#08497C" stroke-miterlimit="10" x1="318.9" y1="265.9" x2="333.7" y2="251.1"/>
				<line fill="none" stroke="#08497C" stroke-miterlimit="10" x1="325.2" y1="265.9" x2="340" y2="251.1"/>
				<line fill="none" stroke="#08497C" stroke-miterlimit="10" x1="331.5" y1="265.9" x2="346.3" y2="251.1"/>
				<line fill="none" stroke="#08497C" stroke-miterlimit="10" x1="337.9" y1="265.9" x2="352.7" y2="251.1"/>
				<line fill="none" stroke="#08497C" stroke-miterlimit="10" x1="344.2" y1="265.9" x2="359" y2="251.1"/>
				<line fill="none" stroke="#08497C" stroke-miterlimit="10" x1="350.6" y1="265.9" x2="365.4" y2="251.1"/>
				<line fill="none" stroke="#08497C" stroke-miterlimit="10" x1="356.9" y1="265.9" x2="371.7" y2="251.1"/>
				<line fill="none" stroke="#08497C" stroke-miterlimit="10" x1="363.2" y1="265.9" x2="378" y2="251.1"/>
				<line fill="none" stroke="#08497C" stroke-miterlimit="10" x1="369.6" y1="265.9" x2="384.4" y2="251.1"/>
				<line fill="none" stroke="#08497C" stroke-miterlimit="10" x1="375.9" y1="265.9" x2="390.7" y2="251.1"/>
				<line fill="none" stroke="#08497C" stroke-miterlimit="10" x1="382.3" y1="265.9" x2="397.1" y2="251.1"/>
				<line fill="none" stroke="#08497C" stroke-miterlimit="10" x1="388.6" y1="265.9" x2="403.4" y2="251.1"/>
				<line fill="none" stroke="#08497C" stroke-miterlimit="10" x1="394.9" y1="265.9" x2="409.7" y2="251.1"/>
			</g>
		</g>
		<line fill="none" stroke="#08497C" stroke-miterlimit="10" x1="329.8" y1="251.4" x2="329.8" y2="266.9"/>
	</g>
	<g>
		<rect x="435.2" y="245.6" fill="#2CC5F4" stroke="#08497C" stroke-width="2" stroke-miterlimit="10" width="84.6" height="25.7"/>
		<circle fill="#08497C" cx="446.7" cy="254.7" r="2.4"/>
		<g>
			<defs>
				<rect id="SVGID_9_" x="452.6" y="250" width="57.3" height="16"/>
			</defs>
			<clipPath id="SVGID_7_">
				<use xlink:href="#SVGID_9_"  overflow="visible"/>
			</clipPath>
			<g clip-path="url(#SVGID_7_)">
				<line fill="none" stroke="#08497C" stroke-miterlimit="10" x1="409.9" y1="265.9" x2="424.7" y2="251.1"/>
				<line fill="none" stroke="#08497C" stroke-miterlimit="10" x1="416.3" y1="265.9" x2="431.1" y2="251.1"/>
				<line fill="none" stroke="#08497C" stroke-miterlimit="10" x1="422.6" y1="265.9" x2="437.4" y2="251.1"/>
				<line fill="none" stroke="#08497C" stroke-miterlimit="10" x1="428.9" y1="265.9" x2="443.7" y2="251.1"/>
				<line fill="none" stroke="#08497C" stroke-miterlimit="10" x1="435.3" y1="265.9" x2="450.1" y2="251.1"/>
				<line fill="none" stroke="#08497C" stroke-miterlimit="10" x1="441.6" y1="265.9" x2="456.4" y2="251.1"/>
				<line fill="none" stroke="#08497C" stroke-miterlimit="10" x1="448" y1="265.9" x2="462.8" y2="251.1"/>
				<line fill="none" stroke="#08497C" stroke-miterlimit="10" x1="454.3" y1="265.9" x2="469.1" y2="251.1"/>
				<line fill="none" stroke="#08497C" stroke-miterlimit="10" x1="460.6" y1="265.9" x2="475.4" y2="251.1"/>
				<line fill="none" stroke="#08497C" stroke-miterlimit="10" x1="467" y1="265.9" x2="481.8" y2="251.1"/>
				<line fill="none" stroke="#08497C" stroke-miterlimit="10" x1="473.3" y1="265.9" x2="488.1" y2="251.1"/>
				<line fill="none" stroke="#08497C" stroke-miterlimit="10" x1="479.7" y1="265.9" x2="494.5" y2="251.1"/>
				<line fill="none" stroke="#08497C" stroke-miterlimit="10" x1="486" y1="265.9" x2="500.8" y2="251.1"/>
				<line fill="none" stroke="#08497C" stroke-miterlimit="10" x1="492.3" y1="265.9" x2="507.1" y2="251.1"/>
				<line fill="none" stroke="#08497C" stroke-miterlimit="10" x1="498.7" y1="265.9" x2="513.5" y2="251.1"/>
				<line fill="none" stroke="#08497C" stroke-miterlimit="10" x1="505" y1="265.9" x2="519.8" y2="251.1"/>
				<line fill="none" stroke="#08497C" stroke-miterlimit="10" x1="511.4" y1="265.9" x2="526.2" y2="251.1"/>
				<line fill="none" stroke="#08497C" stroke-miterlimit="10" x1="517.7" y1="265.9" x2="532.5" y2="251.1"/>
			</g>
		</g>
		<line fill="none" stroke="#08497C" stroke-miterlimit="10" x1="452.6" y1="251.4" x2="452.6" y2="266.9"/>
	</g>
	<g>
		<rect x="558" y="245.6" fill="#2CC5F4" stroke="#08497C" stroke-width="2" stroke-miterlimit="10" width="84.6" height="25.7"/>
		<circle fill="#08497C" cx="569.6" cy="254.7" r="2.4"/>
		<g>
			<defs>
				<rect id="SVGID_6_" x="575.4" y="250" width="57.3" height="16"/>
			</defs>
			<clipPath id="SVGID_8_">
				<use xlink:href="#SVGID_6_"  overflow="visible"/>
			</clipPath>
			<g clip-path="url(#SVGID_8_)">
				<line fill="none" stroke="#08497C" stroke-miterlimit="10" x1="532.8" y1="265.9" x2="547.6" y2="251.1"/>
				<line fill="none" stroke="#08497C" stroke-miterlimit="10" x1="539.1" y1="265.9" x2="553.9" y2="251.1"/>
				<line fill="none" stroke="#08497C" stroke-miterlimit="10" x1="545.4" y1="265.9" x2="560.2" y2="251.1"/>
				<line fill="none" stroke="#08497C" stroke-miterlimit="10" x1="551.8" y1="265.9" x2="566.6" y2="251.1"/>
				<line fill="none" stroke="#08497C" stroke-miterlimit="10" x1="558.1" y1="265.9" x2="572.9" y2="251.1"/>
				<line fill="none" stroke="#08497C" stroke-miterlimit="10" x1="564.5" y1="265.9" x2="579.3" y2="251.1"/>
				<line fill="none" stroke="#08497C" stroke-miterlimit="10" x1="570.8" y1="265.9" x2="585.6" y2="251.1"/>
				<line fill="none" stroke="#08497C" stroke-miterlimit="10" x1="577.1" y1="265.9" x2="591.9" y2="251.1"/>
				<line fill="none" stroke="#08497C" stroke-miterlimit="10" x1="583.5" y1="265.9" x2="598.3" y2="251.1"/>
				<line fill="none" stroke="#08497C" stroke-miterlimit="10" x1="589.8" y1="265.9" x2="604.6" y2="251.1"/>
				<line fill="none" stroke="#08497C" stroke-miterlimit="10" x1="596.2" y1="265.9" x2="611" y2="251.1"/>
				<line fill="none" stroke="#08497C" stroke-miterlimit="10" x1="602.5" y1="265.9" x2="617.3" y2="251.1"/>
				<line fill="none" stroke="#08497C" stroke-miterlimit="10" x1="608.8" y1="265.9" x2="623.6" y2="251.1"/>
				<line fill="none" stroke="#08497C" stroke-miterlimit="10" x1="615.2" y1="265.9" x2="630" y2="251.1"/>
				<line fill="none" stroke="#08497C" stroke-miterlimit="10" x1="621.5" y1="265.9" x2="636.3" y2="251.1"/>
				<line fill="none" stroke="#08497C" stroke-miterlimit="10" x1="627.9" y1="265.9" x2="642.7" y2="251.1"/>
				<line fill="none" stroke="#08497C" stroke-miterlimit="10" x1="634.2" y1="265.9" x2="649" y2="251.1"/>
				<line fill="none" stroke="#08497C" stroke-miterlimit="10" x1="640.5" y1="265.9" x2="655.3" y2="251.1"/>
			</g>
		</g>
		<line fill="none" stroke="#08497C" stroke-miterlimit="10" x1="575.4" y1="251.4" x2="575.4" y2="266.9"/>
	</g>
	<text transform="matrix(1 0 0 1 291.3818 341.0132)" fill="#08497C" font-family="'MyriadPro-Semibold'" font-size="13.1656px">COMMON NETWORK</text>
	<g>
		<text transform="matrix(1 0 0 1 766.5088 319.1812)" fill="#5E5E5E" font-family="'GothamNarrow-Book'" font-size="13.1656px">Monitoring &amp; Tools</text>
	</g>
	<g>
		<text transform="matrix(1 0 0 1 768.1543 209.1606)" fill="#5E5E5E" font-family="'GothamNarrow-Book'" font-size="13.1656px">Dashboard (GUI)</text>
	</g>
	<path fill="#FFFFFF" stroke="#08497C" stroke-width="2" stroke-miterlimit="10" d="M255.8,232.7h-36.6c-1.1,0-2-0.9-2-2v-36.6
		c0-1.1,0.9-2,2-2h36.6c1.1,0,2,0.9,2,2v36.6C257.8,231.8,256.9,232.7,255.8,232.7z"/>
	<path fill="#FFFFFF" stroke="#08497C" stroke-width="2" stroke-miterlimit="10" d="M497.8,205V231c0,0.9-0.7,1.6-1.6,1.6h-37.3
		c-0.9,0-1.6-0.7-1.6-1.6v-37.3c0-0.9,0.7-1.6,1.6-1.6h25.3L497.8,205z"/>
	<path fill="#FFFFFF" stroke="#08497C" stroke-width="2" stroke-miterlimit="10" d="M618.6,232.7H582c-1.1,0-2-0.9-2-2V227
		c0-1.1,0.9-2,2-2h36.6c1.1,0,2,0.9,2,2v3.7C620.6,231.8,619.7,232.7,618.6,232.7z"/>
	<path fill="#FFFFFF" stroke="#08497C" stroke-width="2" stroke-miterlimit="10" d="M618.6,221.7H582c-1.1,0-2-0.9-2-2V216
		c0-1.1,0.9-2,2-2h36.6c1.1,0,2,0.9,2,2v3.7C620.6,220.8,619.7,221.7,618.6,221.7z"/>
	<path fill="#FFFFFF" stroke="#08497C" stroke-width="2" stroke-miterlimit="10" d="M618.6,210.4H582c-1.1,0-2-0.9-2-2v-3.7
		c0-1.1,0.9-2,2-2h36.6c1.1,0,2,0.9,2,2v3.7C620.6,209.5,619.7,210.4,618.6,210.4z"/>
	<path fill="#FFFFFF" stroke="#08497C" stroke-width="2" stroke-miterlimit="10" d="M618.6,199.8H582c-1.1,0-2-0.9-2-2v-3.7
		c0-1.1,0.9-2,2-2h36.6c1.1,0,2,0.9,2,2v3.7C620.6,198.9,619.7,199.8,618.6,199.8z"/>
	<path fill="#FFFFFF" stroke="#08497C" stroke-width="2" stroke-miterlimit="10" d="M347.6,212.9H333c-1.1,0-2-0.9-2-2v-14.6
		c0-1.1,0.9-2,2-2h14.6c1.1,0,2,0.9,2,2v14.6C349.6,212,348.7,212.9,347.6,212.9z"/>
	<path fill="#FFFFFF" stroke="#08497C" stroke-width="2" stroke-miterlimit="10" d="M371.9,212.9h-14.6c-1.1,0-2-0.9-2-2v-14.6
		c0-1.1,0.9-2,2-2h14.6c1.1,0,2,0.9,2,2v14.6C373.9,212,373,212.9,371.9,212.9z"/>
	<path fill="#FFFFFF" stroke="#08497C" stroke-width="2" stroke-miterlimit="10" d="M347.6,235.5H333c-1.1,0-2-0.9-2-2v-14.6
		c0-1.1,0.9-2,2-2h14.6c1.1,0,2,0.9,2,2v14.6C349.6,234.6,348.7,235.5,347.6,235.5z"/>
	<path fill="#FFFFFF" stroke="#08497C" stroke-width="2" stroke-miterlimit="10" d="M371.9,235.5h-14.6c-1.1,0-2-0.9-2-2v-14.6
		c0-1.1,0.9-2,2-2h14.6c1.1,0,2,0.9,2,2v14.6C373.9,234.6,373,235.5,371.9,235.5z"/>
	<g>
		<g>
			<path fill="#0B6BA0" stroke="#08497C" stroke-width="2" stroke-miterlimit="10" d="M766,292v3.7c0,1.8,1.6,4.3,3.3,4.3h92.3
				c1.8,0,2.4-2.6,2.4-4.3V292H766z"/>
			<path fill="#0B6BA0" stroke="#08497C" stroke-width="2" stroke-miterlimit="10" d="M860,292v-55.2c0-1.8-1.2-3.8-2.9-3.8h-83.3
				c-1.8,0-1.8,2.1-1.8,3.8V292H860z"/>
			<rect x="773.5" y="236.7" fill="#13B1E2" stroke="#08497C" stroke-miterlimit="10" width="82" height="51.6"/>
			<path fill="#0B6BA0" stroke="#08497C" stroke-miterlimit="10" d="M825.2,292.5L825.2,292.5c0,1.1-0.9,2.1-2.1,2.1h-16
				c-1.1,0-2.1-0.9-2.1-2.1l0,0"/>
		</g>
	</g>
	<g>
		<g>
			<path fill="#0B6BA0" stroke="#08497C" stroke-width="2" stroke-miterlimit="10" d="M766,184v3.9c0,1.8,1.6,4.1,3.3,4.1h92.3
				c1.8,0,2.4-2.4,2.4-4.1V184H766z"/>
			<path fill="#0B6BA0" stroke="#08497C" stroke-width="2" stroke-miterlimit="10" d="M860,184v-54.9c0-1.8-1.2-4.1-2.9-4.1h-83.3
				c-1.8,0-1.8,2.3-1.8,4.1V184H860z"/>
			<rect x="773.5" y="128.9" fill="#13B1E2" stroke="#08497C" stroke-miterlimit="10" width="82" height="51.6"/>
			<path fill="#0B6BA0" stroke="#08497C" stroke-miterlimit="10" d="M825.2,184.7L825.2,184.7c0,1.1-0.9,2.1-2.1,2.1h-16
				c-1.1,0-2.1-0.9-2.1-2.1l0,0"/>
		</g>
	</g>
	<polygon fill="#FFFFFF" stroke="#08497C" stroke-width="2" stroke-linejoin="bevel" stroke-miterlimit="10" points="484.5,192.2 
		497.5,205 484.3,205 	"/>
	<path fill="#FFFFFF" stroke="#08497C" stroke-width="2" stroke-miterlimit="10" d="M302.8,61.8h-42c-1.1,0-2-0.9-2-2v-42
		c0-1.1,0.9-2,2-2h42c1.1,0,2,0.9,2,2v42C304.8,60.9,303.9,61.8,302.8,61.8z"/>
	<circle fill="#FFFFFF" stroke="#08497C" stroke-miterlimit="10" cx="263.9" cy="20.3" r="2"/>
	<circle fill="#FFFFFF" stroke="#08497C" stroke-miterlimit="10" cx="269.7" cy="20.3" r="2"/>
	<line fill="none" stroke="#08497C" stroke-miterlimit="10" x1="258.8" y1="24.7" x2="304.8" y2="24.7"/>
	<path fill="#FFFFFF" stroke="#08497C" stroke-width="2" stroke-miterlimit="10" d="M370.9,61.8h-42c-1.1,0-2-0.9-2-2v-42
		c0-1.1,0.9-2,2-2h42c1.1,0,2,0.9,2,2v42C372.9,60.9,372,61.8,370.9,61.8z"/>
	<circle fill="#FFFFFF" stroke="#08497C" stroke-miterlimit="10" cx="332.1" cy="20.3" r="2"/>
	<circle fill="#FFFFFF" stroke="#08497C" stroke-miterlimit="10" cx="337.8" cy="20.3" r="2"/>
	<line fill="none" stroke="#08497C" stroke-miterlimit="10" x1="326.9" y1="24.7" x2="372.9" y2="24.7"/>
	<path fill="#FFFFFF" stroke="#08497C" stroke-width="2" stroke-miterlimit="10" d="M438.3,61.8h-42c-1.1,0-2-0.9-2-2v-42
		c0-1.1,0.9-2,2-2h42c1.1,0,2,0.9,2,2v42C440.3,60.9,439.4,61.8,438.3,61.8z"/>
	<circle fill="#FFFFFF" stroke="#08497C" stroke-miterlimit="10" cx="399.4" cy="20.3" r="2"/>
	<circle fill="#FFFFFF" stroke="#08497C" stroke-miterlimit="10" cx="405.1" cy="20.3" r="2"/>
	<line fill="none" stroke="#08497C" stroke-miterlimit="10" x1="394.3" y1="24.7" x2="440.3" y2="24.7"/>
	
		<line fill="none" stroke="#AFAFAF" stroke-width="2" stroke-miterlimit="10" stroke-dasharray="3" x1="691.3" y1="158.4" x2="771.4" y2="158.4"/>
	
		<line fill="none" stroke="#AFAFAF" stroke-width="2" stroke-miterlimit="10" stroke-dasharray="3" x1="691.3" y1="268.4" x2="771.4" y2="268.4"/>
	<g opacity="0.5">
		<g>
			<polyline fill="none" stroke="#08497C" stroke-miterlimit="10" points="114.5,176 114.5,144.5 237.4,144.5 599.5,144.5 
				599.5,176 			"/>
			<g>
				<rect x="111" y="176" fill="#08497C" width="7" height="1"/>
			</g>
			<g>
				<rect x="597" y="176" fill="#08497C" width="6" height="1"/>
			</g>
		</g>
	</g>
	<g opacity="0.5">
		<g>
			<line fill="none" stroke="#08497C" stroke-miterlimit="10" x1="236.5" y1="176" x2="236.5" y2="144"/>
			<g>
				<rect x="233" y="176" fill="#08497C" width="6" height="1"/>
			</g>
		</g>
	</g>
	<g opacity="0.5">
		<g>
			<line fill="none" stroke="#08497C" stroke-miterlimit="10" x1="348.5" y1="177" x2="348.5" y2="70"/>
			<g>
				<rect x="346" y="176" fill="#08497C" width="6" height="1"/>
			</g>
		</g>
	</g>
	<g opacity="0.5">
		<g>
			<line fill="none" stroke="#08497C" stroke-miterlimit="10" x1="477.5" y1="176" x2="477.5" y2="144"/>
			<g>
				<rect x="474" y="176" fill="#08497C" width="7" height="1"/>
			</g>
		</g>
	</g>
	<text transform="matrix(1 0 0 1 723.3887 151.4761)" fill="#5E5E5E" font-family="'GothamNarrow-Book'" font-size="13.1656px">API</text>
	<text transform="matrix(1 0 0 1 312.3906 134.2632)" fill="#5E5E5E" font-family="'GothamNarrow-Book'" font-size="13.1656px">APIs</text>
	<text transform="matrix(1 0 0 1 723.3887 262.479)" fill="#5E5E5E" font-family="'GothamNarrow-Book'" font-size="13.1656px">API</text>
	<text transform="matrix(1 0 0 1 267.7217 45.8892)" fill="#2CC5F4" font-family="'GothamNarrow-Book'" font-size="13.1656px">APP</text>
	<text transform="matrix(1 0 0 1 337.8213 45.8892)" fill="#2CC5F4" font-family="'GothamNarrow-Book'" font-size="13.1656px">APP</text>
	<text transform="matrix(1 0 0 1 403.1631 45.8892)" fill="#2CC5F4" font-family="'GothamNarrow-Book'" font-size="13.1656px">APP</text>
	<g opacity="0.5">
		<text transform="matrix(1 0 0 1 84.0674 289.5786)" fill="#08497C" font-family="'GothamNarrow-Medium'" font-size="11.5199px">Bare Metal</text>
	</g>
	<g opacity="0.5">
		<text transform="matrix(1 0 0 1 196 289.5786)" fill="#08497C" font-family="'GothamNarrow-Medium'" font-size="11.5199px">Virtual Machines</text>
	</g>
	<g opacity="0.5">
		<text transform="matrix(1 0 0 1 323.9492 289.5786)" fill="#08497C" font-family="'GothamNarrow-Medium'" font-size="11.5199px">Containers</text>
	</g>
	<g opacity="0.5">
		<text transform="matrix(1 0 0 1 440.2158 289.5786)" fill="#08497C" font-family="'GothamNarrow-Medium'" font-size="11.5199px">Object Storage</text>
	</g>
	<g opacity="0.5">
		<text transform="matrix(1 0 0 1 561.3145 289.5786)" fill="#08497C" font-family="'GothamNarrow-Medium'" font-size="11.5199px">Block Storage</text>
	</g>
	<path fill="#FFFFFF" stroke="#08497C" stroke-width="2" stroke-miterlimit="10" d="M844.7,173.7h-59.2c-0.9,0-1.6-0.7-1.6-1.6
		v-36.1c0-0.9,0.7-1.6,1.6-1.6h59.2c0.9,0,1.6,0.7,1.6,1.6V172C846.4,172.9,845.7,173.7,844.7,173.7z"/>
	<path fill="#FFFFFF" stroke="#08497C" stroke-width="2" stroke-miterlimit="10" d="M844.7,283.5h-59.2c-0.9,0-1.6-0.7-1.6-1.6
		v-36.1c0-0.9,0.7-1.6,1.6-1.6h59.2c0.9,0,1.6,0.7,1.6,1.6v36.1C846.4,282.7,845.7,283.5,844.7,283.5z"/>
	<circle fill="#FFFFFF" stroke="#08497C" stroke-miterlimit="10" cx="789.1" cy="138.8" r="2"/>
	<circle fill="#FFFFFF" stroke="#08497C" stroke-miterlimit="10" cx="794.8" cy="138.8" r="2"/>
	<line fill="none" stroke="#08497C" stroke-miterlimit="10" x1="783.9" y1="143.2" x2="846.4" y2="143.2"/>
	<line fill="none" stroke="#08497C" stroke-miterlimit="10" x1="799.6" y1="143.2" x2="799.6" y2="173.7"/>
	<polyline fill="#FFFFFF" stroke="#08497C" stroke-width="2" stroke-miterlimit="10" points="796.5,271.7 808.4,265.8 815.4,271.7 
		820.6,261.3 828.1,268.2 834.2,252.3 	"/>
	<line fill="none" stroke="#08497C" stroke-width="0.25" stroke-miterlimit="10" x1="35.8" y1="316.1" x2="665.4" y2="316.1"/>
	<line fill="none" stroke="#08497C" stroke-width="0.25" stroke-miterlimit="10" x1="44.8" y1="305.4" x2="658" y2="305.4"/>
	<line fill="none" stroke="#08497C" stroke-width="0.25" stroke-miterlimit="10" x1="417.3" y1="305.4" x2="401.6" y2="212.9"/>
	<text transform="matrix(1 0 0 1 506.4902 116.4878)" fill="#08497C" font-family="'MyriadPro-Semibold'" font-size="13.1656px">OPENSTACK CONTROL PLANE</text>
	<text transform="matrix(1 0 0 1 454.6699 43.1323)" fill="#08497C" font-family="'MyriadPro-Semibold'" font-size="13.1656px">YOUR APPLICATIONS</text>
</g>
</svg>
