<svg id="Layer_1" data-name="Layer 1" xmlns="http://www.w3.org/2000/svg" xmlns:xlink="http://www.w3.org/1999/xlink" width="1175.33" height="207.15" viewBox="0 0 1175.33 207.15"><defs><style>.cls-1,.cls-2,.cls-3,.cls-6,.cls-7{fill:none;}.cls-2{clip-path:url(#clip-path);}.cls-3{clip-path:url(#clip-path-2);}.cls-4{fill:#494949;}.cls-5{clip-path:url(#clip-path-15);}.cls-6{stroke:#494949;stroke-width:2px;}.cls-6,.cls-7{stroke-linecap:square;stroke-miterlimit:10;}.cls-7{stroke:#004489;stroke-width:4px;}.cls-8{clip-path:url(#clip-path-16);}.cls-9{fill:#004489;}.cls-10{clip-path:url(#clip-path-17);}.cls-11{clip-path:url(#clip-path-18);}.cls-12{clip-path:url(#clip-path-19);}.cls-13{clip-path:url(#clip-path-20);}.cls-14{clip-path:url(#clip-path-21);}.cls-15{clip-path:url(#clip-path-22);}.cls-16{clip-path:url(#clip-path-23);}.cls-17{clip-path:url(#clip-path-24);}.cls-18{clip-path:url(#clip-path-25);}.cls-19{clip-path:url(#clip-path-26);}.cls-20{clip-path:url(#clip-path-27);}.cls-21{clip-path:url(#clip-path-28);}.cls-22{clip-path:url(#clip-path-29);}</style><clipPath id="clip-path"><rect class="cls-1" x="491.02" y="438" width="1176" height="203"/></clipPath><clipPath id="clip-path-2"><rect class="cls-1" x="491.02" y="438" width="1176" height="203"/></clipPath><clipPath id="clip-path-15" transform="translate(-491.7 -433)"><rect class="cls-1" x="1552.02" y="629" width="115" height="12"/></clipPath><clipPath id="clip-path-16" transform="translate(-491.7 -433)"><path class="cls-3" d="M556,586a10,10,0,1,0-10-10,10,10,0,0,0,10,10Z"/></clipPath><clipPath id="clip-path-17" transform="translate(-491.7 -433)"><path class="cls-3" d="M735,586a10,10,0,1,0-10-10,10,10,0,0,0,10,10Z"/></clipPath><clipPath id="clip-path-18" transform="translate(-491.7 -433)"><path class="cls-3" d="M913,586a10,10,0,1,0-10-10,10,10,0,0,0,10,10Z"/></clipPath><clipPath id="clip-path-19" transform="translate(-491.7 -433)"><path class="cls-3" d="M1092,586a10,10,0,1,0-10-10,10,10,0,0,0,10,10Z"/></clipPath><clipPath id="clip-path-20" transform="translate(-491.7 -433)"><path class="cls-2" d="M1271,586a10,10,0,1,0-10-10,10,10,0,0,0,10,10Z"/></clipPath><clipPath id="clip-path-21" transform="translate(-491.7 -433)"><path class="cls-3" d="M1449,586a10,10,0,1,0-10-10,10,10,0,0,0,10,10Z"/></clipPath><clipPath id="clip-path-22" transform="translate(-491.7 -433)"><path class="cls-3" d="M1628,586a10,10,0,1,0-10-10,10,10,0,0,0,10,10Z"/></clipPath><clipPath id="clip-path-23" transform="translate(-491.7 -433)"><path class="cls-3" d="M1650,453.2a8.34,8.34,0,1,0-10.68,8.11,6.55,6.55,0,0,1-1.15,3.9c-1.6,2-5.13,2.36-8.87,2.71-2.94.27-6,.57-8.47,1.78V454.5a8.33,8.33,0,1,0-5,0v21a8.35,8.35,0,1,0,5.5.19,3.64,3.64,0,0,1,1.55-1.41c1.69-.87,4.21-1.1,6.89-1.35,4.39-.42,9.37-.89,12.31-4.59a11.42,11.42,0,0,0,2.25-7.16,8.48,8.48,0,0,0,5.67-8Zm-31.67-8.44a1.69,1.69,0,1,1-1.67,1.69,1.68,1.68,0,0,1,1.67-1.69Zm0,40.54a1.69,1.69,0,1,1,1.67-1.69,1.68,1.68,0,0,1-1.67,1.69Zm23.33-33.79a1.69,1.69,0,1,1-1.66,1.69,1.68,1.68,0,0,1,1.66-1.69Z"/></clipPath><clipPath id="clip-path-24" transform="translate(-491.7 -433)"><path class="cls-3" d="M1461,446h-8.89a3.29,3.29,0,0,0-2.23.87l-10.18,9.38,0,0a4.16,4.16,0,0,0-.22,5.83,4.3,4.3,0,0,0,5.81.28l0,0,8.27-7.62a1.65,1.65,0,0,1,2.34.1,1.67,1.67,0,0,1-.1,2.35l-2.7,2.49L1468.19,472a7.77,7.77,0,0,1,.82.8V452.66l-5.66-5.68a3.26,3.26,0,0,0-2.34-1Zm11.32,6.69V476a3.32,3.32,0,0,0,3.31,3.33h6.63V452.69Zm5,23.31a1.67,1.67,0,1,1,1.65-1.67,1.67,1.67,0,0,1-1.65,1.67ZM1416,479.32h6.62A3.32,3.32,0,0,0,1426,476v-23.3H1416v26.63Zm5-6.65a1.67,1.67,0,1,1-1.65,1.66,1.66,1.66,0,0,1,1.65-1.66Zm45.13,1.93L1450.65,462l-3.1,2.87a7.44,7.44,0,0,1-10.53-.46,7.53,7.53,0,0,1,.45-10.59l8.47-7.8h-8.67a3.28,3.28,0,0,0-2.34,1l-5.66,5.68V476h1.89l9.37,8.53a6.59,6.59,0,0,0,9.31-1l0,0,1.85,1.61a3.83,3.83,0,0,0,5.41-.56l3.25-4,.56.46a3.3,3.3,0,0,0,4.66-.49l1-1.22a3.35,3.35,0,0,0-.47-4.7Z"/></clipPath><clipPath id="clip-path-25" transform="translate(-491.7 -433)"><path class="cls-3" d="M1253.59,463.14a5.72,5.72,0,1,0-5.72-5.71,5.71,5.71,0,0,0,5.72,5.71Zm40,0a5.72,5.72,0,1,0-5.72-5.71,5.71,5.71,0,0,0,5.72,5.71Zm2.85,2.86h-5.71a5.7,5.7,0,0,0-4,1.66,13.08,13.08,0,0,1,6.71,9.77h5.89a2.86,2.86,0,0,0,2.86-2.86v-2.86a5.72,5.72,0,0,0-5.72-5.71Zm-22.85,0a10,10,0,1,0-10-10,10,10,0,0,0,10,10Zm6.85,2.86h-.74a13.79,13.79,0,0,1-12.23,0h-.74a10.29,10.29,0,0,0-10.29,10.28v2.57a4.29,4.29,0,0,0,4.29,4.29h25.71a4.29,4.29,0,0,0,4.29-4.29v-2.57a10.29,10.29,0,0,0-10.29-10.28Zm-20-1.2a5.67,5.67,0,0,0-4-1.66h-5.71a5.71,5.71,0,0,0-5.71,5.71v2.86a2.85,2.85,0,0,0,2.85,2.86h5.89a13.08,13.08,0,0,1,6.71-9.77Z"/></clipPath><clipPath id="clip-path-26" transform="translate(-491.7 -433)"><path class="cls-3" d="M1107.27,465.5H1101v-5a5,5,0,0,1,5-5h.62a1.88,1.88,0,0,0,1.88-1.88v-3.74a1.88,1.88,0,0,0-1.88-1.88H1106a12.49,12.49,0,0,0-12.5,12.5v18.75a3.75,3.75,0,0,0,3.75,3.75h10a3.75,3.75,0,0,0,3.75-3.75v-10a3.75,3.75,0,0,0-3.75-3.75Zm-22.5,0h-6.25v-5a5,5,0,0,1,5-5h.62a1.88,1.88,0,0,0,1.88-1.88v-3.74a1.88,1.88,0,0,0-1.88-1.88h-.62a12.49,12.49,0,0,0-12.5,12.5v18.75a3.75,3.75,0,0,0,3.75,3.75h10a3.75,3.75,0,0,0,3.75-3.75v-10a3.75,3.75,0,0,0-3.75-3.75Z"/></clipPath><clipPath id="clip-path-27" transform="translate(-491.7 -433)"><path class="cls-3" d="M916.36,460.29c0-7.9-8.36-14.29-18.67-14.29S879,452.39,879,460.29a12.05,12.05,0,0,0,3.41,8.21,20.21,20.21,0,0,1-3.22,4.87.72.72,0,0,0,.52,1.2,15.93,15.93,0,0,0,8-2.23,23,23,0,0,0,10,2.23c10.31,0,18.67-6.39,18.67-14.28Zm10.95,19.64a12,12,0,0,0,3.41-8.22c0-6-4.8-11.09-11.6-13.22a13.39,13.39,0,0,1,.11,1.8c0,9.45-9.67,17.14-21.54,17.14a26.76,26.76,0,0,1-2.85-.17c2.83,5.13,9.47,8.74,17.21,8.74a22.82,22.82,0,0,0,10-2.23,15.93,15.93,0,0,0,8,2.23.71.71,0,0,0,.66-.43.73.73,0,0,0-.13-.78,19.48,19.48,0,0,1-3.22-4.86Z"/></clipPath><clipPath id="clip-path-28" transform="translate(-491.7 -433)"><path class="cls-3" d="M738.6,446H708.93a5,5,0,0,0-4.91,5v30a5,5,0,0,0,4.91,5H738.6a5,5,0,0,0,4.92-5V451a5,5,0,0,0-4.92-5Zm19.49,3.93-11.28,7.87v16.4l11.28,7.86a3.29,3.29,0,0,0,5.18-2.68V452.61a3.29,3.29,0,0,0-5.18-2.68Z"/></clipPath><clipPath id="clip-path-29" transform="translate(-491.7 -433)"><path class="cls-3" d="M595.84,455.29l-29.05-8.93a8.45,8.45,0,0,0-4.88,0l-29.06,8.93a2.45,2.45,0,0,0,0,4.75l5.07,1.56a8.22,8.22,0,0,0-1.86,4.88,3.22,3.22,0,0,0-.27,5.53l-2.66,12a1.67,1.67,0,0,0,1.63,2h5.84a1.67,1.67,0,0,0,1.63-2l-2.66-12a3.21,3.21,0,0,0-.19-5.48,4.91,4.91,0,0,1,2.16-3.82L561.91,469a8.33,8.33,0,0,0,4.87,0L595.84,460a2.45,2.45,0,0,0,0-4.75Zm-28.08,16.87a11.75,11.75,0,0,1-6.83,0l-15.1-4.65-1.48,11.82c0,3.69,8.95,6.67,20,6.67s20-3,20-6.67l-1.48-11.82-15.11,4.65Z"/></clipPath></defs><title>Timeline</title><path class="cls-4" d="M521.89,630.19h3c2.09,0,3.45,1.18,3.45,3.11v0c0,2.08-1.57,3.2-3.57,3.21h-1.78V640h-1.05Zm2.86,5.4a2.2,2.2,0,0,0,2.47-2.23h0c0-1.43-1-2.19-2.43-2.19h-1.85v4.43Z" transform="translate(-491.7 -433)"/><path class="cls-4" d="M529.83,632.7h1v1.61a2.6,2.6,0,0,1,2.51-1.71v1.1h-.05c-1.36,0-2.46.95-2.46,2.83V640h-1Z" transform="translate(-491.7 -433)"/><path class="cls-4" d="M534.05,636.41v-.07c0-2.22,1.3-3.78,3-3.78s2.93,1.57,2.93,3.77c0,.1,0,.29,0,.42h-4.91a2.39,2.39,0,0,0,2.26,2.51,2.57,2.57,0,0,0,1.89-.84l.57.64a3.28,3.28,0,0,1-2.5,1.09C535.51,640.15,534.05,638.73,534.05,636.41ZM539,636c-.07-1.39-.73-2.53-1.92-2.53s-1.89,1-2,2.53Z" transform="translate(-491.7 -433)"/><path class="cls-4" d="M541.37,635.27H545v1.05h-3.6Z" transform="translate(-491.7 -433)"/><path class="cls-4" d="M546.29,638.75l.65-.79a3.94,3.94,0,0,0,2.76,1.21,1.76,1.76,0,0,0,2-1.65h0c0-.82-.4-1.33-2.18-2-2-.76-2.83-1.49-2.83-2.88v0a2.72,2.72,0,0,1,3-2.6,4.3,4.3,0,0,1,2.94,1.11l-.63.81a3.52,3.52,0,0,0-2.35-1,1.66,1.66,0,0,0-1.85,1.53v0c0,.85.43,1.34,2.28,2s2.72,1.54,2.72,2.85v0a2.78,2.78,0,0,1-3,2.68A4.77,4.77,0,0,1,546.29,638.75Z" transform="translate(-491.7 -433)"/><path class="cls-4" d="M554.36,637.49V632.7h1v4.5c0,1.3.62,2,1.68,2a1.88,1.88,0,0,0,1.85-2.07V632.7h1V640h-1v-1.19a2.4,2.4,0,0,1-4.54-1.32Z" transform="translate(-491.7 -433)"/><path class="cls-4" d="M562,632.7h1v1.16a2.29,2.29,0,0,1,2-1.3,2.11,2.11,0,0,1,2,1.33,2.55,2.55,0,0,1,2.24-1.33c1.42,0,2.33,1,2.33,2.68V640h-1v-4.5c0-1.33-.59-2-1.58-2s-1.73.76-1.73,2.08V640h-1v-4.51c0-1.3-.58-2-1.58-2a1.87,1.87,0,0,0-1.72,2.09V640h-1Z" transform="translate(-491.7 -433)"/><path class="cls-4" d="M573.61,632.7h1v1.16a2.31,2.31,0,0,1,2-1.3,2.12,2.12,0,0,1,2,1.33,2.53,2.53,0,0,1,2.24-1.33c1.41,0,2.32,1,2.32,2.68V640h-1v-4.5c0-1.33-.59-2-1.58-2s-1.72.76-1.72,2.08V640h-1v-4.51c0-1.3-.59-2-1.58-2a1.87,1.87,0,0,0-1.73,2.09V640h-1Z" transform="translate(-491.7 -433)"/><path class="cls-4" d="M585.28,630h1.12v1.19h-1.12Zm.05,2.69h1V640h-1Z" transform="translate(-491.7 -433)"/><path class="cls-4" d="M588.82,638.3v-4.7h-.88v-.9h.88v-2.13h1v2.13h1.9v.9h-1.9v4.54a.93.93,0,0,0,1,1.05,2.07,2.07,0,0,0,.85-.2v.87a2.5,2.5,0,0,1-1.09.25A1.63,1.63,0,0,1,588.82,638.3Z" transform="translate(-491.7 -433)"/><path class="cls-4" d="M1590.59,630.19h3c2.08,0,3.44,1.18,3.44,3.11v0c0,2.08-1.57,3.2-3.57,3.21h-1.78V640h-1.05Zm2.86,5.4a2.21,2.21,0,0,0,2.48-2.23h0c0-1.43-1-2.19-2.44-2.19h-1.85v4.43Z" transform="translate(-491.7 -433)"/><path class="cls-4" d="M1598.11,636.41v-.09c0-2.13,1.37-3.76,3.25-3.76s3.23,1.61,3.23,3.74v.09c0,2.13-1.37,3.76-3.25,3.76S1598.11,638.54,1598.11,636.41Zm5.46,0v-.07c0-1.64-1-2.86-2.23-2.86s-2.2,1.22-2.2,2.85v.07c0,1.64,1,2.85,2.22,2.85S1603.57,638,1603.57,636.4Z" transform="translate(-491.7 -433)"/><path class="cls-4" d="M1605.58,639.1l.54-.74a3.28,3.28,0,0,0,2.13.88,1.19,1.19,0,0,0,1.35-1.13v0c0-.64-.6-1-1.58-1.38-1.16-.51-2.09-1-2.09-2.1v0a2.06,2.06,0,0,1,2.27-2,4,4,0,0,1,2.3.78l-.49.77a3.23,3.23,0,0,0-1.83-.68c-.77,0-1.26.45-1.26,1v0c0,.61.62.92,1.62,1.34,1.2.54,2,1,2,2.15v0a2.15,2.15,0,0,1-2.36,2.1A4.06,4.06,0,0,1,1605.58,639.1Z" transform="translate(-491.7 -433)"/><path class="cls-4" d="M1612.53,638.3v-4.7h-.88v-.9h.88v-2.13h1v2.13h1.9v.9h-1.9v4.54a.93.93,0,0,0,1,1.05,2.07,2.07,0,0,0,.85-.2v.87a2.5,2.5,0,0,1-1.09.25A1.63,1.63,0,0,1,1612.53,638.3Z" transform="translate(-491.7 -433)"/><path class="cls-4" d="M1616.8,635.27h3.6v1.05h-3.6Z" transform="translate(-491.7 -433)"/><path class="cls-4" d="M1621.68,638.75l.66-.79a3.9,3.9,0,0,0,2.76,1.21,1.75,1.75,0,0,0,2-1.65h0c0-.82-.39-1.33-2.17-2-2-.76-2.83-1.49-2.83-2.88v0a2.71,2.71,0,0,1,3-2.6,4.3,4.3,0,0,1,2.94,1.11l-.63.81a3.52,3.52,0,0,0-2.36-1,1.65,1.65,0,0,0-1.84,1.53v0c0,.85.43,1.34,2.28,2s2.72,1.54,2.72,2.85v0a2.78,2.78,0,0,1-3,2.68A4.81,4.81,0,0,1,1621.68,638.75Z" transform="translate(-491.7 -433)"/><path class="cls-4" d="M1629.73,637.49V632.7h1v4.5c0,1.3.62,2,1.68,2a1.88,1.88,0,0,0,1.85-2.07V632.7h1V640h-1v-1.19a2.4,2.4,0,0,1-4.54-1.32Z" transform="translate(-491.7 -433)"/><path class="cls-4" d="M1637.32,632.7h1v1.16a2.31,2.31,0,0,1,2.05-1.3,2.1,2.1,0,0,1,2,1.33,2.55,2.55,0,0,1,2.24-1.33c1.42,0,2.33,1,2.33,2.68V640h-1v-4.5c0-1.33-.59-2-1.58-2s-1.73.76-1.73,2.08V640h-1v-4.51c0-1.3-.59-2-1.59-2a1.87,1.87,0,0,0-1.72,2.09V640h-1Z" transform="translate(-491.7 -433)"/><path class="cls-4" d="M1648.93,632.7h1v1.16a2.28,2.28,0,0,1,2-1.3,2.11,2.11,0,0,1,2,1.33,2.55,2.55,0,0,1,2.24-1.33c1.41,0,2.32,1,2.32,2.68V640h-1v-4.5c0-1.33-.59-2-1.59-2s-1.72.76-1.72,2.08V640h-1v-4.51c0-1.3-.59-2-1.58-2a1.87,1.87,0,0,0-1.72,2.09V640h-1Z" transform="translate(-491.7 -433)"/><path class="cls-4" d="M1660.56,630h1.12v1.19h-1.12Zm.06,2.69h1V640h-1Z" transform="translate(-491.7 -433)"/><g class="cls-5"><path class="cls-4" d="M1664.12,638.3v-4.7h-.89v-.9h.89v-2.13h1v2.13H1667v.9h-1.91v4.54a.93.93,0,0,0,1.06,1.05,2.07,2.07,0,0,0,.85-.2v.87a2.5,2.5,0,0,1-1.09.25A1.63,1.63,0,0,1,1664.12,638.3Z" transform="translate(-491.7 -433)"/></g><path class="cls-6" d="M1620,609.5h19m-19.75-10v10m20-10v10m-10,1v10M548,609.5h19m-19.75-10v10m20-10v10m-10,1v10" transform="translate(-491.7 -433)"/><path class="cls-4" d="M1069.76,638.75l.66-.79a3.9,3.9,0,0,0,2.76,1.21,1.75,1.75,0,0,0,2-1.65h0c0-.82-.39-1.33-2.17-2-2-.76-2.83-1.49-2.83-2.88v0a2.71,2.71,0,0,1,2.95-2.6,4.3,4.3,0,0,1,3,1.11l-.63.81a3.52,3.52,0,0,0-2.36-1,1.66,1.66,0,0,0-1.85,1.53v0c0,.85.44,1.34,2.29,2s2.71,1.54,2.71,2.85v0a2.77,2.77,0,0,1-3,2.68A4.77,4.77,0,0,1,1069.76,638.75Z" transform="translate(-491.7 -433)"/><path class="cls-4" d="M1077.84,637.49V632.7h1v4.5c0,1.3.61,2,1.68,2a1.89,1.89,0,0,0,1.85-2.07V632.7h1V640h-1v-1.19a2.37,2.37,0,0,1-2.16,1.33A2.34,2.34,0,0,1,1077.84,637.49Z" transform="translate(-491.7 -433)"/><path class="cls-4" d="M1085.45,632.7h1v1.16a2.31,2.31,0,0,1,2-1.3,2.12,2.12,0,0,1,2,1.33,2.53,2.53,0,0,1,2.24-1.33c1.41,0,2.32,1,2.32,2.68V640h-1v-4.5c0-1.33-.58-2-1.58-2s-1.72.76-1.72,2.08V640h-1v-4.51c0-1.3-.59-2-1.58-2a1.87,1.87,0,0,0-1.73,2.09V640h-1Z" transform="translate(-491.7 -433)"/><path class="cls-4" d="M1097.09,632.7h1v1.16a2.28,2.28,0,0,1,2-1.3,2.11,2.11,0,0,1,2,1.33,2.55,2.55,0,0,1,2.24-1.33c1.42,0,2.33,1,2.33,2.68V640h-1v-4.5c0-1.33-.59-2-1.59-2s-1.72.76-1.72,2.08V640h-1v-4.51c0-1.3-.59-2-1.58-2a1.87,1.87,0,0,0-1.72,2.09V640h-1Z" transform="translate(-491.7 -433)"/><path class="cls-4" d="M1108.75,630h1.12v1.19h-1.12Zm.06,2.69h1V640h-1Z" transform="translate(-491.7 -433)"/><path class="cls-4" d="M1112.29,638.3v-4.7h-.88v-.9h.88v-2.13h1v2.13h1.91v.9h-1.91v4.54a.93.93,0,0,0,1,1.05,2.15,2.15,0,0,0,.86-.2v.87a2.58,2.58,0,0,1-1.1.25A1.63,1.63,0,0,1,1112.29,638.3Z" transform="translate(-491.7 -433)"/><path class="cls-6" d="M736,609.5h713m-713.75-10v10m714-10v10m-357,1v10" transform="translate(-491.7 -433)"/><line class="cls-7" x1="65.32" y1="143.25" x2="1136.32" y2="143.25"/><g class="cls-8"><rect class="cls-9" x="49.32" y="128" width="30" height="30"/></g><g class="cls-10"><rect class="cls-9" x="228.32" y="128" width="30" height="30"/></g><g class="cls-11"><rect class="cls-9" x="406.32" y="128" width="30" height="30"/></g><g class="cls-12"><rect class="cls-9" x="585.32" y="128" width="30" height="30"/></g><g class="cls-13"><rect class="cls-9" x="764.32" y="128" width="30" height="30"/></g><g class="cls-14"><rect class="cls-9" x="942.32" y="128" width="30" height="30"/></g><g class="cls-15"><rect class="cls-9" x="1121.32" y="128" width="30" height="30"/></g><path d="M1616.73,509.19h3.14c2.14,0,3.53,1.24,3.53,3.27v0c0,2.17-1.6,3.3-3.63,3.33h-1.42V519h-1.62Zm3,5.16a1.78,1.78,0,0,0,2-1.84h0a1.72,1.72,0,0,0-2-1.82h-1.42v3.67Z" transform="translate(-491.7 -433)"/><path d="M1626.78,510.71h-2.58v-1.52H1631v1.52h-2.57V519h-1.63Z" transform="translate(-491.7 -433)"/><path d="M1631.68,514.17v-.11c0-2.89,1.87-5,4.5-5a4.47,4.47,0,0,1,3.11,1.11l-1,1.29a3,3,0,0,0-2.17-.88c-1.59,0-2.78,1.44-2.78,3.47v.09c0,2.21,1.2,3.53,2.87,3.53a3,3,0,0,0,1.73-.52V515h-2v-1.43h3.59V518a5.31,5.31,0,0,1-3.34,1.19C1633.51,519.14,1631.68,517.18,1631.68,514.17Z" transform="translate(-491.7 -433)"/><g class="cls-16"><rect class="cls-9" x="1113.32" width="50" height="64.05"/></g><g class="cls-17"><rect class="cls-9" x="919.32" y="8" width="76.25" height="50"/></g><path d="M1390.8,514.18V514c0-2.91,1.79-5,4.36-5s4.33,2.07,4.33,5v.14c0,2.92-1.8,5-4.36,5S1390.8,517.08,1390.8,514.18Zm7,0v-.09c0-2.11-1.12-3.52-2.68-3.52s-2.65,1.39-2.65,3.5v.1c0,2.1,1.14,3.52,2.68,3.52S1397.81,516.27,1397.81,514.15Z" transform="translate(-491.7 -433)"/><path d="M1401.08,511.58h1.58v1.19a2.5,2.5,0,0,1,2.17-1.33c1.49,0,2.89,1.24,2.89,3.75v.2c0,2.49-1.39,3.75-2.89,3.75a2.52,2.52,0,0,1-2.17-1.26v3.24h-1.58Zm5,3.78v-.13c0-1.48-.77-2.39-1.72-2.39s-1.77.92-1.77,2.38v.14c0,1.45.82,2.38,1.77,2.38S1406.12,516.84,1406.12,515.36Z" transform="translate(-491.7 -433)"/><path d="M1408.86,515.37v-.11c0-2.23,1.35-3.82,3.17-3.82,2,0,3.08,1.68,3.08,3.9,0,.1,0,.33,0,.55h-4.65a1.91,1.91,0,0,0,1.88,1.92A2.36,2.36,0,0,0,1414,517l.83,1a3.44,3.44,0,0,1-2.61,1.14C1410.35,519.15,1408.86,517.7,1408.86,515.37Zm4.71-.57c-.09-1.18-.62-2-1.54-2s-1.49.77-1.6,2Z" transform="translate(-491.7 -433)"/><path d="M1416.53,511.58h1.59v1.09a2.32,2.32,0,0,1,2-1.23c1.43,0,2.28,1,2.28,2.59v5h-1.58v-4.52c0-1-.49-1.62-1.33-1.62s-1.4.62-1.4,1.64V519h-1.59Z" transform="translate(-491.7 -433)"/><path d="M1428,509.19h1.63V519H1428Z" transform="translate(-491.7 -433)"/><path d="M1431.67,511.58h1.58v1.09a2.32,2.32,0,0,1,2-1.23c1.43,0,2.28,1,2.28,2.59v5H1436v-4.52c0-1-.49-1.62-1.33-1.62s-1.4.62-1.4,1.64V519h-1.58Z" transform="translate(-491.7 -433)"/><path d="M1439.62,512.93h-.83v-1.31h.83V511a2.29,2.29,0,0,1,.55-1.69,2.14,2.14,0,0,1,1.55-.53,3.48,3.48,0,0,1,1.12.15v1.33a2.76,2.76,0,0,0-.77-.12c-.57,0-.88.32-.88,1v.42h1.64v1.31h-1.63V519h-1.58Z" transform="translate(-491.7 -433)"/><path d="M1443.89,511.58h1.58V513a2.22,2.22,0,0,1,2.23-1.57v1.73h-.07c-1.29,0-2.16.84-2.16,2.53V519h-1.58Z" transform="translate(-491.7 -433)"/><path d="M1448.19,516.87v-.07c0-1.6,1.06-2.38,2.63-2.38a5.25,5.25,0,0,1,1.71.29v-.3a1.41,1.41,0,0,0-1.6-1.52,4.29,4.29,0,0,0-1.79.45l-.45-1.26a5.31,5.31,0,0,1,2.45-.59,3,3,0,0,1,2.19.76,2.93,2.93,0,0,1,.74,2.14V519h-1.55v-.91a2.38,2.38,0,0,1-2.06,1A2.17,2.17,0,0,1,1448.19,516.87Zm4.35-.36v-.75a3.63,3.63,0,0,0-1.37-.26c-.91,0-1.44.46-1.44,1.24v0a1.13,1.13,0,0,0,1.2,1.18A1.49,1.49,0,0,0,1452.54,516.51Z" transform="translate(-491.7 -433)"/><path d="M1455.16,518.1l.74-1.13a3.37,3.37,0,0,0,2,.87c.65,0,1-.35,1-.82h0c0-.53-.57-.77-1.45-1.15-1.11-.47-2-1-2-2.2v0a2.22,2.22,0,0,1,2.45-2.18,4.29,4.29,0,0,1,2.41.8l-.68,1.16a3.34,3.34,0,0,0-1.76-.65c-.59,0-.94.32-.94.73v0c0,.49.59.75,1.46,1.14,1.15.52,2,1.05,2,2.21h0a2.26,2.26,0,0,1-2.53,2.26A4.35,4.35,0,0,1,1455.16,518.1Z" transform="translate(-491.7 -433)"/><path d="M1462.16,517.21v-4.28h-.81v-1.35h.81v-2h1.58v2h1.67v1.35h-1.67v4a.72.72,0,0,0,.8.82,1.82,1.82,0,0,0,.86-.21v1.3a2.68,2.68,0,0,1-1.32.32A1.69,1.69,0,0,1,1462.16,517.21Z" transform="translate(-491.7 -433)"/><path d="M1466.83,511.58h1.59V513a2.21,2.21,0,0,1,2.22-1.57v1.73h-.06c-1.29,0-2.16.84-2.16,2.53V519h-1.59Z" transform="translate(-491.7 -433)"/><path d="M1471.8,516.55v-5h1.59v4.52c0,1,.49,1.61,1.31,1.61a1.44,1.44,0,0,0,1.41-1.64v-4.49h1.59V519h-1.59v-1.08a2.29,2.29,0,0,1-2,1.22C1472.65,519.14,1471.8,518.15,1471.8,516.55Z" transform="translate(-491.7 -433)"/><path d="M1479.15,515.39v-.14a3.51,3.51,0,0,1,3.39-3.81,3.13,3.13,0,0,1,2.38,1l-.88,1.17a2,2,0,0,0-1.5-.75c-1,0-1.79,1-1.79,2.4v.07c0,1.44.76,2.41,1.84,2.41a2.06,2.06,0,0,0,1.51-.76l.85,1a3.08,3.08,0,0,1-2.46,1.12C1480.55,519.15,1479.15,517.6,1479.15,515.39Z" transform="translate(-491.7 -433)"/><path d="M1486.53,517.21v-4.28h-.81v-1.35h.81v-2h1.59v2h1.66v1.35h-1.66v4c0,.58.29.82.79.82a1.82,1.82,0,0,0,.86-.21v1.3a2.68,2.68,0,0,1-1.32.32A1.69,1.69,0,0,1,1486.53,517.21Z" transform="translate(-491.7 -433)"/><path d="M1491.14,516.55v-5h1.58v4.52c0,1,.49,1.61,1.32,1.61s1.4-.62,1.4-1.64v-4.49h1.6V519h-1.6v-1.08a2.29,2.29,0,0,1-2,1.22C1492,519.14,1491.14,518.15,1491.14,516.55Z" transform="translate(-491.7 -433)"/><path d="M1498.82,511.58h1.59V513a2.21,2.21,0,0,1,2.22-1.57v1.73h-.07c-1.28,0-2.15.84-2.15,2.53V519h-1.59Z" transform="translate(-491.7 -433)"/><path d="M1503.15,515.37v-.11c0-2.23,1.35-3.82,3.17-3.82,2,0,3.08,1.68,3.08,3.9,0,.1,0,.33,0,.55h-4.65a1.9,1.9,0,0,0,1.87,1.92,2.36,2.36,0,0,0,1.71-.79l.83,1a3.42,3.42,0,0,1-2.61,1.14C1504.64,519.15,1503.15,517.7,1503.15,515.37Zm4.71-.57c-.08-1.18-.62-2-1.54-2s-1.49.77-1.6,2Z" transform="translate(-491.7 -433)"/><path d="M1413.78,526h1.69l2.52,4.51,2.51-4.51h1.71v9.81h-1.61v-6.94L1418,533.4h0l-2.59-4.51v6.91h-1.58Z" transform="translate(-491.7 -433)"/><path d="M1423.73,533.67v-.07c0-1.6,1.06-2.38,2.63-2.38a5,5,0,0,1,1.71.29v-.31a1.41,1.41,0,0,0-1.6-1.51,4.14,4.14,0,0,0-1.79.45l-.45-1.26a5.31,5.31,0,0,1,2.45-.59,3,3,0,0,1,2.19.76,2.91,2.91,0,0,1,.74,2.14v4.61h-1.55v-.91a2.38,2.38,0,0,1-2.06,1.05A2.17,2.17,0,0,1,1423.73,533.67Zm4.36-.37v-.74a3.68,3.68,0,0,0-1.38-.27c-.91,0-1.44.47-1.44,1.25v0a1.14,1.14,0,0,0,1.2,1.18A1.5,1.5,0,0,0,1428.09,533.3Z" transform="translate(-491.7 -433)"/><path d="M1431.32,528.37h1.58v1.46a2.2,2.2,0,0,1,2.23-1.57V530h-.07c-1.29,0-2.16.84-2.16,2.54v3.28h-1.58Z" transform="translate(-491.7 -433)"/><path d="M1436.36,525.68h1.58v6l2.54-3.27h1.87l-2.46,3,2.53,4.4h-1.83l-1.8-3.18-.85,1v2.15h-1.58Z" transform="translate(-491.7 -433)"/><path d="M1442.87,532.17v-.11c0-2.23,1.34-3.83,3.16-3.83,2,0,3.08,1.68,3.08,3.91,0,.1,0,.32,0,.55h-4.65a1.91,1.91,0,0,0,1.88,1.92,2.33,2.33,0,0,0,1.7-.79l.83,1a3.4,3.4,0,0,1-2.61,1.15C1444.35,536,1442.87,534.49,1442.87,532.17Zm4.7-.58c-.08-1.17-.61-2-1.54-2s-1.48.77-1.6,2Z" transform="translate(-491.7 -433)"/><path d="M1450.85,534v-4.27H1450v-1.36h.82v-2h1.58v2h1.66v1.36h-1.66v3.95a.7.7,0,0,0,.8.81,1.78,1.78,0,0,0,.85-.21v1.31a2.74,2.74,0,0,1-1.32.32A1.69,1.69,0,0,1,1450.85,534Z" transform="translate(-491.7 -433)"/><path d="M1455.52,528.37h1.58v1.19a2.53,2.53,0,0,1,2.17-1.33c1.49,0,2.89,1.25,2.89,3.76v.19c0,2.5-1.39,3.76-2.89,3.76a2.56,2.56,0,0,1-2.17-1.26v3.23h-1.58Zm5,3.78V532c0-1.49-.77-2.4-1.72-2.4s-1.76.93-1.76,2.38v.14c0,1.46.81,2.39,1.76,2.39S1460.56,533.64,1460.56,532.15Z" transform="translate(-491.7 -433)"/><path d="M1463.72,525.68h1.59V535.8h-1.59Z" transform="translate(-491.7 -433)"/><path d="M1466.76,533.67v-.07c0-1.6,1.07-2.38,2.64-2.38a4.94,4.94,0,0,1,1.7.29v-.31a1.4,1.4,0,0,0-1.59-1.51,4.19,4.19,0,0,0-1.8.45l-.44-1.26a5.24,5.24,0,0,1,2.45-.59,2.64,2.64,0,0,1,2.93,2.9v4.61h-1.56v-.91a2.35,2.35,0,0,1-2.06,1.05A2.17,2.17,0,0,1,1466.76,533.67Zm4.36-.37v-.74a3.67,3.67,0,0,0-1.37-.27c-.91,0-1.45.47-1.45,1.25v0a1.14,1.14,0,0,0,1.21,1.18A1.49,1.49,0,0,0,1471.12,533.3Z" transform="translate(-491.7 -433)"/><path d="M1474,532.18V532a3.51,3.51,0,0,1,3.39-3.81,3.14,3.14,0,0,1,2.39,1l-.89,1.16a2,2,0,0,0-1.5-.74c-1,0-1.79,1-1.79,2.4v.07c0,1.44.76,2.41,1.84,2.41a2.1,2.1,0,0,0,1.51-.76l.85,1.05a3.08,3.08,0,0,1-2.46,1.12C1475.42,536,1474,534.4,1474,532.18Z" transform="translate(-491.7 -433)"/><path d="M1480.54,532.17v-.11c0-2.23,1.35-3.83,3.17-3.83,2,0,3.08,1.68,3.08,3.91,0,.1,0,.32,0,.55h-4.65a1.91,1.91,0,0,0,1.87,1.92,2.34,2.34,0,0,0,1.71-.79l.83,1a3.4,3.4,0,0,1-2.61,1.15C1482,536,1480.54,534.49,1480.54,532.17Zm4.71-.58c-.08-1.17-.62-2-1.54-2s-1.48.77-1.6,2Z" transform="translate(-491.7 -433)"/><g class="cls-18"><rect class="cls-9" x="748.32" y="8" width="67.14" height="50"/></g><path d="M1222.82,509.19h1.72l1.92,7.12,2-7.14h1.41l2,7.14,1.92-7.12h1.68l-2.86,9.87h-1.47l-2-6.92-2,6.92h-1.47Z" transform="translate(-491.7 -433)"/><path d="M1235.7,515.37v-.12a3.44,3.44,0,1,1,6.84,0v.13a3.53,3.53,0,0,1-3.44,3.79A3.49,3.49,0,0,1,1235.7,515.37Zm5.25,0v-.08c0-1.39-.77-2.42-1.85-2.42s-1.82,1-1.82,2.41v.08c0,1.39.77,2.44,1.85,2.44S1241,516.73,1241,515.34Z" transform="translate(-491.7 -433)"/><path d="M1244,511.58h1.58V513a2.22,2.22,0,0,1,2.23-1.57v1.73h-.07c-1.29,0-2.16.84-2.16,2.53V519H1244Z" transform="translate(-491.7 -433)"/><path d="M1249,508.89h1.58v6l2.54-3.26H1255l-2.46,3,2.53,4.4h-1.83l-1.79-3.18-.86,1V519H1249Z" transform="translate(-491.7 -433)"/><path d="M1255.54,518.1l.74-1.13a3.37,3.37,0,0,0,2,.87c.65,0,1-.35,1-.82h0c0-.53-.57-.77-1.45-1.15-1.11-.47-2-1-2-2.2v0a2.23,2.23,0,0,1,2.46-2.18,4.26,4.26,0,0,1,2.4.8l-.67,1.16a3.34,3.34,0,0,0-1.76-.65c-.59,0-.94.32-.94.73v0c0,.49.59.75,1.46,1.14,1.14.52,2,1.05,2,2.21h0a2.26,2.26,0,0,1-2.53,2.26A4.35,4.35,0,0,1,1255.54,518.1Z" transform="translate(-491.7 -433)"/><path d="M1262.23,508.89h1.58v3.78a2.33,2.33,0,0,1,2-1.23c1.43,0,2.29,1,2.29,2.59v5h-1.59v-4.52c0-1-.49-1.62-1.33-1.62s-1.4.62-1.4,1.64V519h-1.58Z" transform="translate(-491.7 -433)"/><path d="M1269.51,515.37v-.12a3.44,3.44,0,1,1,6.84,0v.13a3.53,3.53,0,0,1-3.44,3.79A3.49,3.49,0,0,1,1269.51,515.37Zm5.25,0v-.08c0-1.39-.77-2.42-1.85-2.42s-1.82,1-1.82,2.41v.08c0,1.39.77,2.44,1.85,2.44S1274.76,516.73,1274.76,515.34Z" transform="translate(-491.7 -433)"/><path d="M1277.8,511.58h1.58v1.19a2.5,2.5,0,0,1,2.17-1.33c1.49,0,2.89,1.24,2.89,3.75v.2c0,2.49-1.39,3.75-2.89,3.75a2.52,2.52,0,0,1-2.17-1.26v3.24h-1.58Zm5,3.78v-.13c0-1.48-.77-2.39-1.72-2.39s-1.77.92-1.77,2.38v.14c0,1.45.82,2.38,1.77,2.38S1282.84,516.84,1282.84,515.36Z" transform="translate(-491.7 -433)"/><path d="M1285.3,518.1,1286,517a3.39,3.39,0,0,0,2,.87c.66,0,1-.35,1-.82h0c0-.53-.58-.77-1.46-1.15-1.11-.47-2-1-2-2.2v0a2.22,2.22,0,0,1,2.45-2.18,4.27,4.27,0,0,1,2.41.8l-.67,1.16a3.38,3.38,0,0,0-1.77-.65c-.59,0-.94.32-.94.73v0c0,.49.59.75,1.46,1.14,1.15.52,2,1.05,2,2.21h0a2.27,2.27,0,0,1-2.54,2.26A4.37,4.37,0,0,1,1285.3,518.1Z" transform="translate(-491.7 -433)"/><path d="M1295.19,516.87v-.07c0-1.6,1.06-2.38,2.63-2.38a5.3,5.3,0,0,1,1.71.29v-.3a1.41,1.41,0,0,0-1.6-1.52,4.29,4.29,0,0,0-1.79.45l-.45-1.26a5.28,5.28,0,0,1,2.45-.59,3,3,0,0,1,2.19.76,2.93,2.93,0,0,1,.74,2.14V519h-1.56v-.91a2.35,2.35,0,0,1-2.06,1A2.16,2.16,0,0,1,1295.19,516.87Zm4.35-.36v-.75a3.63,3.63,0,0,0-1.37-.26c-.91,0-1.44.46-1.44,1.24v0a1.12,1.12,0,0,0,1.2,1.18A1.49,1.49,0,0,0,1299.54,516.51Z" transform="translate(-491.7 -433)"/><path d="M1302.77,511.58h1.59v1.09a2.32,2.32,0,0,1,2-1.23c1.43,0,2.28,1,2.28,2.59v5h-1.58v-4.52c0-1-.49-1.62-1.33-1.62s-1.4.62-1.4,1.64V519h-1.59Z" transform="translate(-491.7 -433)"/><path d="M1310.08,515.39v-.19c0-2.5,1.39-3.76,2.89-3.76a2.55,2.55,0,0,1,2.17,1.26v-3.81h1.58V519h-1.58v-1.19a2.52,2.52,0,0,1-2.17,1.33C1311.48,519.14,1310.08,517.89,1310.08,515.39Zm5.09,0v-.14c0-1.46-.82-2.38-1.77-2.38s-1.72.89-1.72,2.39v.11c0,1.49.77,2.4,1.72,2.4S1315.17,516.81,1315.17,515.36Z" transform="translate(-491.7 -433)"/><path d="M1245.38,527.5h-2.57V526h6.78v1.51H1247v8.3h-1.63Z" transform="translate(-491.7 -433)"/><path d="M1250.14,528.37h1.59v1.46a2.19,2.19,0,0,1,2.22-1.57V530h-.07c-1.29,0-2.15.84-2.15,2.54v3.28h-1.59Z" transform="translate(-491.7 -433)"/><path d="M1254.47,533.67v-.07c0-1.6,1.06-2.38,2.63-2.38a5,5,0,0,1,1.71.29v-.31a1.41,1.41,0,0,0-1.6-1.51,4.14,4.14,0,0,0-1.79.45l-.45-1.26a5.31,5.31,0,0,1,2.45-.59,3,3,0,0,1,2.19.76,2.91,2.91,0,0,1,.74,2.14v4.61h-1.55v-.91a2.38,2.38,0,0,1-2.06,1.05A2.17,2.17,0,0,1,1254.47,533.67Zm4.36-.37v-.74a3.72,3.72,0,0,0-1.38-.27c-.91,0-1.44.47-1.44,1.25v0a1.14,1.14,0,0,0,1.2,1.18A1.5,1.5,0,0,0,1258.83,533.3Z" transform="translate(-491.7 -433)"/><path d="M1262.08,525.74h1.69v1.55h-1.69Zm.06,2.63h1.58v7.43h-1.58Z" transform="translate(-491.7 -433)"/><path d="M1265.6,528.37h1.58v1.1a2.32,2.32,0,0,1,2-1.24c1.43,0,2.29,1,2.29,2.59v5h-1.59v-4.53c0-1-.49-1.61-1.33-1.61s-1.4.62-1.4,1.64v4.5h-1.58Z" transform="translate(-491.7 -433)"/><path d="M1273.24,525.74h1.68v1.55h-1.68Zm.06,2.63h1.58v7.43h-1.58Z" transform="translate(-491.7 -433)"/><path d="M1276.76,528.37h1.58v1.1a2.32,2.32,0,0,1,2-1.24c1.43,0,2.28,1,2.28,2.59v5h-1.58v-4.53c0-1-.49-1.61-1.33-1.61s-1.4.62-1.4,1.64v4.5h-1.58Z" transform="translate(-491.7 -433)"/><path d="M1284.37,537.24l.52-1.25a4.28,4.28,0,0,0,2.23.63,1.77,1.77,0,0,0,2-2V534a2.61,2.61,0,0,1-2.24,1.3c-1.48,0-2.83-1.19-2.83-3.47v-.06c0-2.3,1.36-3.49,2.83-3.49a2.63,2.63,0,0,1,2.23,1.25v-1.11h1.58v6.22a3.34,3.34,0,0,1-.84,2.47,3.62,3.62,0,0,1-2.67.88A5.89,5.89,0,0,1,1284.37,537.24Zm4.78-5.48v0a1.91,1.91,0,0,0-1.78-2.11c-1,0-1.71.8-1.71,2.11v0c0,1.32.76,2.13,1.71,2.13A1.92,1.92,0,0,0,1289.15,531.76Z" transform="translate(-491.7 -433)"/><path d="M1291.88,534.9l.74-1.13a3.38,3.38,0,0,0,2,.86c.66,0,1-.35,1-.81h0c0-.53-.57-.77-1.46-1.15-1.1-.48-2-1-2-2.2v0a2.23,2.23,0,0,1,2.45-2.17,4.27,4.27,0,0,1,2.41.8l-.67,1.16a3.31,3.31,0,0,0-1.76-.66c-.59,0-.94.33-.94.73v0c0,.49.59.74,1.45,1.13,1.15.52,2,1,2,2.22h0a2.27,2.27,0,0,1-2.53,2.26A4.39,4.39,0,0,1,1291.88,534.9Z" transform="translate(-491.7 -433)"/><path d="M1073.17,509.19h6.15v1.5h-4.53v2.76h4v1.49h-4V519h-1.62Z" transform="translate(-491.7 -433)"/><path d="M1080.21,515.37v-.12a3.54,3.54,0,0,1,3.43-3.81,3.5,3.5,0,0,1,3.4,3.79v.13a3.43,3.43,0,1,1-6.83,0Zm5.25,0v-.08c0-1.39-.77-2.42-1.85-2.42s-1.82,1-1.82,2.41v.08c0,1.39.77,2.44,1.85,2.44S1085.46,516.73,1085.46,515.34Z" transform="translate(-491.7 -433)"/><path d="M1088.5,511.58h1.58V513a2.22,2.22,0,0,1,2.23-1.57v1.73h-.07c-1.29,0-2.16.84-2.16,2.53V519h-1.58Z" transform="translate(-491.7 -433)"/><path d="M1093.47,516.55v-5h1.58v4.52c0,1,.49,1.61,1.32,1.61s1.4-.62,1.4-1.64v-4.49h1.59V519h-1.59v-1.08a2.29,2.29,0,0,1-2,1.22C1094.31,519.14,1093.47,518.15,1093.47,516.55Z" transform="translate(-491.7 -433)"/><path d="M1101.15,511.58h1.59v1.07a2.29,2.29,0,0,1,2-1.21,2,2,0,0,1,1.92,1.19,2.62,2.62,0,0,1,2.17-1.19c1.38,0,2.27.91,2.27,2.59v5h-1.58v-4.51c0-1.07-.45-1.63-1.26-1.63s-1.33.59-1.33,1.64V519h-1.58v-4.52c0-1.06-.47-1.62-1.25-1.62s-1.34.64-1.34,1.66V519h-1.59Z" transform="translate(-491.7 -433)"/><g class="cls-19"><rect class="cls-9" x="574.32" y="10" width="50" height="45"/></g><g class="cls-20"><rect class="cls-9" x="382.32" y="8" width="61.71" height="50"/></g><path d="M857.44,509.19h3.5a3.51,3.51,0,0,1,2.51.85,2.25,2.25,0,0,1,.66,1.65v0a2.33,2.33,0,0,1-1.45,2.2,2.36,2.36,0,0,1,1.87,2.34v.05c0,1.73-1.4,2.68-3.49,2.68h-3.6Zm5,2.76c0-.82-.6-1.3-1.65-1.3H859v2.72h1.69c1.07,0,1.75-.48,1.75-1.39ZM861,514.74h-2v2.8h2c1.12,0,1.82-.49,1.82-1.38v0C862.9,515.27,862.24,514.74,861,514.74Z" transform="translate(-491.7 -433)"/><path d="M866,511.58h1.58V513a2.22,2.22,0,0,1,2.23-1.57v1.73h-.07c-1.29,0-2.16.84-2.16,2.53V519H866Z" transform="translate(-491.7 -433)"/><path d="M870.44,515.37v-.11c0-2.23,1.35-3.82,3.17-3.82,2,0,3.08,1.68,3.08,3.9,0,.1,0,.33,0,.55H872a1.9,1.9,0,0,0,1.87,1.92,2.36,2.36,0,0,0,1.71-.79l.83,1a3.42,3.42,0,0,1-2.61,1.14C871.93,519.15,870.44,517.7,870.44,515.37Zm4.71-.57c-.08-1.18-.62-2-1.54-2s-1.49.77-1.6,2Z" transform="translate(-491.7 -433)"/><path d="M877.69,516.87v-.07c0-1.6,1.07-2.38,2.64-2.38a5.3,5.3,0,0,1,1.71.29v-.3a1.41,1.41,0,0,0-1.6-1.52,4.29,4.29,0,0,0-1.79.45l-.45-1.26a5.28,5.28,0,0,1,2.45-.59,3,3,0,0,1,2.19.76,2.93,2.93,0,0,1,.74,2.14V519H882v-.91a2.35,2.35,0,0,1-2.06,1A2.17,2.17,0,0,1,877.69,516.87Zm4.36-.36v-.75a3.63,3.63,0,0,0-1.37-.26c-.91,0-1.44.46-1.44,1.24v0a1.12,1.12,0,0,0,1.2,1.18A1.49,1.49,0,0,0,882.05,516.51Z" transform="translate(-491.7 -433)"/><path d="M885.28,508.89h1.59v6l2.53-3.26h1.88l-2.47,3,2.54,4.4h-1.84l-1.79-3.18-.85,1V519h-1.59Z" transform="translate(-491.7 -433)"/><path d="M891.79,515.37v-.12a3.54,3.54,0,0,1,3.44-3.81,3.5,3.5,0,0,1,3.4,3.79v.13a3.44,3.44,0,1,1-6.84,0Zm5.26,0v-.08c0-1.39-.77-2.42-1.85-2.42s-1.82,1-1.82,2.41v.08c0,1.39.77,2.44,1.85,2.44S897.05,516.73,897.05,515.34Z" transform="translate(-491.7 -433)"/><path d="M900,516.55v-5h1.59v4.52c0,1,.49,1.61,1.31,1.61s1.4-.62,1.4-1.64v-4.49h1.6V519h-1.6v-1.08a2.29,2.29,0,0,1-2,1.22C900.85,519.14,900,518.15,900,516.55Z" transform="translate(-491.7 -433)"/><path d="M908,517.21v-4.28h-.82v-1.35H908v-2h1.58v2h1.67v1.35h-1.67v4a.71.71,0,0,0,.8.82,1.76,1.76,0,0,0,.85-.21v1.3a2.62,2.62,0,0,1-1.31.32A1.69,1.69,0,0,1,908,517.21Z" transform="translate(-491.7 -433)"/><path d="M915.76,517.71l1-1.22a3.81,3.81,0,0,0,2.58,1.17c.94,0,1.54-.52,1.54-1.25v0c0-.61-.32-1-1.88-1.59-1.86-.7-2.83-1.39-2.83-3v0a2.82,2.82,0,0,1,3.11-2.74,4.55,4.55,0,0,1,3.09,1.15l-.93,1.24a3.58,3.58,0,0,0-2.2-.92c-.88,0-1.43.49-1.43,1.13v0c0,.68.37,1.05,2,1.69,1.83.7,2.67,1.46,2.67,2.89v0a2.88,2.88,0,0,1-3.18,2.83A5.15,5.15,0,0,1,915.76,517.71Z" transform="translate(-491.7 -433)"/><path d="M923.64,515.37v-.11c0-2.23,1.35-3.82,3.17-3.82,2,0,3.08,1.68,3.08,3.9,0,.1,0,.33,0,.55h-4.65a1.9,1.9,0,0,0,1.87,1.92,2.36,2.36,0,0,0,1.71-.79l.83,1a3.42,3.42,0,0,1-2.61,1.14C925.13,519.15,923.64,517.7,923.64,515.37Zm4.71-.57c-.08-1.18-.62-2-1.54-2s-1.48.77-1.6,2Z" transform="translate(-491.7 -433)"/><path d="M930.7,518.1l.74-1.13a3.37,3.37,0,0,0,2,.87c.66,0,1-.35,1-.82h0c0-.53-.57-.77-1.45-1.15-1.11-.47-2-1-2-2.2v0a2.22,2.22,0,0,1,2.45-2.18,4.29,4.29,0,0,1,2.41.8l-.68,1.16a3.34,3.34,0,0,0-1.76-.65c-.59,0-.94.32-.94.73v0c0,.49.59.75,1.46,1.14,1.15.52,2,1.05,2,2.21h0a2.27,2.27,0,0,1-2.54,2.26A4.35,4.35,0,0,1,930.7,518.1Z" transform="translate(-491.7 -433)"/><path d="M936.78,518.1l.74-1.13a3.34,3.34,0,0,0,2,.87c.66,0,1-.35,1-.82h0c0-.53-.57-.77-1.46-1.15-1.1-.47-2-1-2-2.2v0a2.23,2.23,0,0,1,2.45-2.18,4.27,4.27,0,0,1,2.41.8l-.67,1.16a3.37,3.37,0,0,0-1.76-.65c-.59,0-.94.32-.94.73v0c0,.49.59.75,1.45,1.14,1.15.52,2,1.05,2,2.21h0a2.27,2.27,0,0,1-2.53,2.26A4.33,4.33,0,0,1,936.78,518.1Z" transform="translate(-491.7 -433)"/><path d="M943.5,508.94h1.68v1.56H943.5Zm0,2.64h1.58V519h-1.58Z" transform="translate(-491.7 -433)"/><path d="M946.67,515.37v-.12a3.54,3.54,0,0,1,3.44-3.81,3.5,3.5,0,0,1,3.4,3.79v.13a3.44,3.44,0,1,1-6.84,0Zm5.26,0v-.08c0-1.39-.77-2.42-1.85-2.42s-1.82,1-1.82,2.41v.08c0,1.39.77,2.44,1.85,2.44S951.93,516.73,951.93,515.34Z" transform="translate(-491.7 -433)"/><path d="M955,511.58h1.58v1.09a2.33,2.33,0,0,1,2-1.23c1.42,0,2.28,1,2.28,2.59v5h-1.58v-4.52c0-1-.49-1.62-1.33-1.62a1.44,1.44,0,0,0-1.41,1.64V519H955Z" transform="translate(-491.7 -433)"/><path d="M962,518.1l.74-1.13a3.39,3.39,0,0,0,2,.87c.66,0,1-.35,1-.82h0c0-.53-.58-.77-1.46-1.15-1.11-.47-2-1-2-2.2v0a2.22,2.22,0,0,1,2.45-2.18,4.27,4.27,0,0,1,2.41.8l-.67,1.16a3.38,3.38,0,0,0-1.77-.65c-.59,0-.94.32-.94.73v0c0,.49.59.75,1.46,1.14,1.15.52,2,1.05,2,2.21h0a2.27,2.27,0,0,1-2.54,2.26A4.37,4.37,0,0,1,962,518.1Z" transform="translate(-491.7 -433)"/><g class="cls-21"><rect class="cls-9" x="207.32" y="8" width="69.26" height="50"/></g><path d="M707.81,509.19h1.63V514l3.8-4.82h2l-3.42,4.22,3.57,5.59h-1.93l-2.76-4.3-1.22,1.47V519h-1.63Z" transform="translate(-491.7 -433)"/><path d="M715.72,515.37v-.11c0-2.23,1.35-3.82,3.17-3.82,2,0,3.08,1.68,3.08,3.9,0,.1,0,.33,0,.55h-4.65a1.9,1.9,0,0,0,1.87,1.92,2.36,2.36,0,0,0,1.71-.79l.83,1a3.42,3.42,0,0,1-2.61,1.14C717.21,519.15,715.72,517.7,715.72,515.37Zm4.71-.57c-.08-1.18-.62-2-1.54-2s-1.48.77-1.6,2Z" transform="translate(-491.7 -433)"/><path d="M727.53,511.58h1.64l-2.53,7.53c-.5,1.5-1.1,2-2.2,2a3.07,3.07,0,0,1-1.49-.39l.46-1.22a1.82,1.82,0,0,0,.85.25c.42,0,.67-.18.9-.79l-2.65-7.43h1.68l1.73,5.39Z" transform="translate(-491.7 -433)"/><path d="M730.39,511.58H732v1.09a2.32,2.32,0,0,1,2-1.23c1.43,0,2.28,1,2.28,2.59v5h-1.58v-4.52c0-1-.49-1.62-1.33-1.62s-1.4.62-1.4,1.64V519h-1.59Z" transform="translate(-491.7 -433)"/><path d="M737.67,515.37v-.12a3.54,3.54,0,0,1,3.43-3.81,3.5,3.5,0,0,1,3.41,3.79v.13a3.44,3.44,0,1,1-6.84,0Zm5.26,0v-.08c0-1.39-.77-2.42-1.85-2.42s-1.82,1-1.82,2.41v.08c0,1.39.77,2.44,1.84,2.44S742.93,516.73,742.93,515.34Z" transform="translate(-491.7 -433)"/><path d="M746.27,517.21v-4.28h-.81v-1.35h.81v-2h1.58v2h1.67v1.35h-1.67v4a.72.72,0,0,0,.8.82,1.82,1.82,0,0,0,.86-.21v1.3a2.68,2.68,0,0,1-1.32.32A1.69,1.69,0,0,1,746.27,517.21Z" transform="translate(-491.7 -433)"/><path d="M750.43,515.37v-.11c0-2.23,1.34-3.82,3.16-3.82,2,0,3.08,1.68,3.08,3.9,0,.1,0,.33,0,.55H752a1.91,1.91,0,0,0,1.88,1.92,2.36,2.36,0,0,0,1.71-.79l.82,1a3.42,3.42,0,0,1-2.6,1.14C751.91,519.15,750.43,517.7,750.43,515.37Zm4.7-.57c-.08-1.18-.61-2-1.54-2s-1.48.77-1.59,2Z" transform="translate(-491.7 -433)"/><path d="M757.48,518.1l.75-1.13a3.34,3.34,0,0,0,2,.87c.66,0,1-.35,1-.82h0c0-.53-.58-.77-1.46-1.15-1.11-.47-2-1-2-2.2v0a2.22,2.22,0,0,1,2.45-2.18,4.27,4.27,0,0,1,2.41.8l-.67,1.16a3.38,3.38,0,0,0-1.77-.65c-.59,0-.94.32-.94.73v0c0,.49.59.75,1.46,1.14,1.15.52,2,1.05,2,2.21h0a2.27,2.27,0,0,1-2.54,2.26A4.37,4.37,0,0,1,757.48,518.1Z" transform="translate(-491.7 -433)"/><path d="M491.7,514.18V514c0-2.91,1.79-5,4.36-5s4.33,2.07,4.33,5v.14c0,2.92-1.8,5-4.36,5S491.7,517.08,491.7,514.18Zm7,0v-.09c0-2.11-1.12-3.52-2.67-3.52s-2.65,1.39-2.65,3.5v.1c0,2.1,1.14,3.52,2.68,3.52S498.7,516.27,498.7,514.15Z" transform="translate(-491.7 -433)"/><path d="M502,511.58h1.58v1.19a2.5,2.5,0,0,1,2.17-1.33c1.48,0,2.89,1.24,2.89,3.75v.2c0,2.49-1.39,3.75-2.89,3.75a2.52,2.52,0,0,1-2.17-1.26v3.24H502Zm5,3.78v-.13c0-1.48-.77-2.39-1.72-2.39s-1.77.92-1.77,2.38v.14c0,1.45.81,2.38,1.77,2.38S507,516.84,507,515.36Z" transform="translate(-491.7 -433)"/><path d="M509.76,515.37v-.11c0-2.23,1.34-3.82,3.17-3.82,2,0,3.08,1.68,3.08,3.9,0,.1,0,.33,0,.55h-4.65a1.91,1.91,0,0,0,1.88,1.92,2.36,2.36,0,0,0,1.71-.79l.83,1a3.44,3.44,0,0,1-2.61,1.14C511.24,519.15,509.76,517.7,509.76,515.37Zm4.71-.57c-.09-1.18-.62-2-1.54-2s-1.49.77-1.6,2Z" transform="translate(-491.7 -433)"/><path d="M517.43,511.58H519v1.09a2.32,2.32,0,0,1,2-1.23c1.42,0,2.28,1,2.28,2.59v5h-1.58v-4.52c0-1-.49-1.62-1.33-1.62s-1.4.62-1.4,1.64V519h-1.59Z" transform="translate(-491.7 -433)"/><path d="M524.52,517.71l1-1.22a3.78,3.78,0,0,0,2.57,1.17c.94,0,1.54-.52,1.54-1.25v0c0-.61-.32-1-1.87-1.59-1.87-.7-2.83-1.39-2.83-3v0a2.82,2.82,0,0,1,3.11-2.74,4.54,4.54,0,0,1,3.08,1.15l-.93,1.24a3.58,3.58,0,0,0-2.19-.92c-.89,0-1.43.49-1.43,1.13v0c0,.68.36,1.05,2,1.69s2.66,1.46,2.66,2.89v0a2.88,2.88,0,0,1-3.18,2.83A5.11,5.11,0,0,1,524.52,517.71Z" transform="translate(-491.7 -433)"/><path d="M533,517.21v-4.28h-.81v-1.35H533v-2h1.58v2h1.67v1.35h-1.67v4a.72.72,0,0,0,.8.82,1.82,1.82,0,0,0,.86-.21v1.3a2.68,2.68,0,0,1-1.32.32A1.69,1.69,0,0,1,533,517.21Z" transform="translate(-491.7 -433)"/><path d="M537.3,516.87v-.07c0-1.6,1.06-2.38,2.63-2.38a5.25,5.25,0,0,1,1.71.29v-.3a1.41,1.41,0,0,0-1.6-1.52,4.29,4.29,0,0,0-1.79.45l-.45-1.26a5.31,5.31,0,0,1,2.45-.59,3,3,0,0,1,2.19.76,2.93,2.93,0,0,1,.74,2.14V519h-1.55v-.91a2.38,2.38,0,0,1-2.06,1A2.17,2.17,0,0,1,537.3,516.87Zm4.35-.36v-.75a3.63,3.63,0,0,0-1.37-.26c-.91,0-1.44.46-1.44,1.24v0A1.13,1.13,0,0,0,540,518,1.49,1.49,0,0,0,541.65,516.51Z" transform="translate(-491.7 -433)"/><path d="M544.55,515.39v-.14a3.5,3.5,0,0,1,3.39-3.81,3.16,3.16,0,0,1,2.38,1l-.88,1.17a2,2,0,0,0-1.5-.75c-1,0-1.79,1-1.79,2.4v.07c0,1.44.75,2.41,1.83,2.41a2,2,0,0,0,1.51-.76l.86,1a3.1,3.1,0,0,1-2.47,1.12C546,519.15,544.55,517.6,544.55,515.39Z" transform="translate(-491.7 -433)"/><path d="M551.62,508.89h1.58v6l2.54-3.26h1.87l-2.46,3,2.53,4.4h-1.83l-1.79-3.18-.86,1V519h-1.58Z" transform="translate(-491.7 -433)"/><path d="M562.4,515.26v-6.07H564v6.06c0,1.58.77,2.41,2,2.41s2-.8,2-2.36v-6.11h1.61v6c0,2.64-1.44,3.95-3.65,3.95S562.4,517.82,562.4,515.26Z" transform="translate(-491.7 -433)"/><path d="M571.53,511.58h1.58v1.19a2.5,2.5,0,0,1,2.17-1.33c1.49,0,2.89,1.24,2.89,3.75v.2c0,2.49-1.39,3.75-2.89,3.75a2.52,2.52,0,0,1-2.17-1.26v3.24h-1.58Zm5,3.78v-.13c0-1.48-.77-2.39-1.72-2.39s-1.77.92-1.77,2.38v.14c0,1.45.81,2.38,1.77,2.38S576.57,516.84,576.57,515.36Z" transform="translate(-491.7 -433)"/><path d="M579,518.1l.74-1.13a3.39,3.39,0,0,0,2.05.87c.66,0,1-.35,1-.82h0c0-.53-.57-.77-1.45-1.15-1.11-.47-2-1-2-2.2v0a2.22,2.22,0,0,1,2.45-2.18,4.29,4.29,0,0,1,2.41.8l-.67,1.16a3.41,3.41,0,0,0-1.77-.65c-.59,0-.94.32-.94.73v0c0,.49.59.75,1.46,1.14,1.15.52,2,1.05,2,2.21h0a2.27,2.27,0,0,1-2.54,2.26A4.37,4.37,0,0,1,579,518.1Z" transform="translate(-491.7 -433)"/><path d="M586,517.21v-4.28h-.81v-1.35H586v-2h1.58v2h1.67v1.35h-1.67v4a.72.72,0,0,0,.8.82,1.82,1.82,0,0,0,.86-.21v1.3a2.68,2.68,0,0,1-1.32.32A1.69,1.69,0,0,1,586,517.21Z" transform="translate(-491.7 -433)"/><path d="M590.71,511.58h1.58V513a2.22,2.22,0,0,1,2.23-1.57v1.73h-.07c-1.29,0-2.16.84-2.16,2.53V519h-1.58Z" transform="translate(-491.7 -433)"/><path d="M595,515.37v-.11c0-2.23,1.35-3.82,3.17-3.82,2,0,3.08,1.68,3.08,3.9,0,.1,0,.33,0,.55H596.6a1.91,1.91,0,0,0,1.88,1.92,2.36,2.36,0,0,0,1.71-.79l.83,1a3.44,3.44,0,0,1-2.61,1.14C596.51,519.15,595,517.7,595,515.37Zm4.71-.57c-.09-1.18-.62-2-1.54-2s-1.49.77-1.6,2Z" transform="translate(-491.7 -433)"/><path d="M602.27,516.87v-.07c0-1.6,1.07-2.38,2.64-2.38a5.3,5.3,0,0,1,1.71.29v-.3a1.41,1.41,0,0,0-1.6-1.52,4.25,4.25,0,0,0-1.79.45l-.45-1.26a5.24,5.24,0,0,1,2.45-.59,2.64,2.64,0,0,1,2.93,2.9V519H606.6v-.91a2.35,2.35,0,0,1-2.06,1A2.17,2.17,0,0,1,602.27,516.87Zm4.36-.36v-.75a3.63,3.63,0,0,0-1.37-.26c-.91,0-1.45.46-1.45,1.24v0A1.13,1.13,0,0,0,605,518,1.49,1.49,0,0,0,606.63,516.51Z" transform="translate(-491.7 -433)"/><path d="M609.86,511.58h1.58v1.07a2.32,2.32,0,0,1,2-1.21,2,2,0,0,1,1.92,1.19,2.62,2.62,0,0,1,2.17-1.19c1.38,0,2.27.91,2.27,2.59v5h-1.58v-4.51c0-1.07-.45-1.63-1.26-1.63s-1.33.59-1.33,1.64V519H614v-4.52c0-1.06-.47-1.62-1.25-1.62s-1.35.64-1.35,1.66V519h-1.58Z" transform="translate(-491.7 -433)"/><path d="M529.79,526h1.62v9.81h-1.62Z" transform="translate(-491.7 -433)"/><path d="M533.44,528.37H535v1.1a2.32,2.32,0,0,1,2-1.24c1.43,0,2.28,1,2.28,2.59v5h-1.58v-4.53c0-1-.49-1.61-1.33-1.61s-1.4.62-1.4,1.64v4.5h-1.59Z" transform="translate(-491.7 -433)"/><path d="M540.44,534.9l.75-1.13a3.38,3.38,0,0,0,2,.86c.66,0,1-.35,1-.81h0c0-.53-.58-.77-1.46-1.15-1.11-.48-2-1-2-2.2v0a2.22,2.22,0,0,1,2.45-2.17,4.27,4.27,0,0,1,2.41.8l-.67,1.16a3.31,3.31,0,0,0-1.77-.66c-.59,0-.94.33-.94.73v0c0,.49.59.74,1.46,1.13,1.15.52,2,1,2,2.22h0a2.27,2.27,0,0,1-2.54,2.26A4.43,4.43,0,0,1,540.44,534.9Z" transform="translate(-491.7 -433)"/><path d="M547.44,534v-4.27h-.81v-1.36h.81v-2H549v2h1.66v1.36H549v3.95c0,.58.29.81.79.81a1.82,1.82,0,0,0,.86-.21v1.31a2.8,2.8,0,0,1-1.32.32A1.69,1.69,0,0,1,547.44,534Z" transform="translate(-491.7 -433)"/><path d="M552.15,525.74h1.68v1.55h-1.68Zm.05,2.63h1.59v7.43H552.2Z" transform="translate(-491.7 -433)"/><path d="M556,534v-4.27h-.81v-1.36H556v-2h1.58v2h1.67v1.36h-1.67v3.95a.71.71,0,0,0,.8.81,1.76,1.76,0,0,0,.85-.21v1.31a2.73,2.73,0,0,1-1.31.32A1.69,1.69,0,0,1,556,534Z" transform="translate(-491.7 -433)"/><path d="M560.57,533.35v-5h1.59v4.53c0,1,.49,1.61,1.31,1.61s1.4-.62,1.4-1.64v-4.5h1.6v7.43h-1.6v-1.08a2.28,2.28,0,0,1-2,1.22C561.41,535.94,560.57,534.94,560.57,533.35Z" transform="translate(-491.7 -433)"/><path d="M568.57,534v-4.27h-.81v-1.36h.81v-2h1.58v2h1.67v1.36h-1.67v3.95a.71.71,0,0,0,.8.81,1.76,1.76,0,0,0,.85-.21v1.31a2.73,2.73,0,0,1-1.31.32A1.69,1.69,0,0,1,568.57,534Z" transform="translate(-491.7 -433)"/><path d="M572.62,532.17v-.11c0-2.23,1.34-3.83,3.16-3.83,2,0,3.08,1.68,3.08,3.91,0,.1,0,.32,0,.55H574.2a1.91,1.91,0,0,0,1.87,1.92,2.34,2.34,0,0,0,1.71-.79l.83,1A3.4,3.4,0,0,1,576,536C574.1,536,572.62,534.49,572.62,532.17Zm4.7-.58c-.08-1.17-.61-2-1.54-2s-1.48.77-1.6,2Z" transform="translate(-491.7 -433)"/><g class="cls-22"><rect class="cls-9" x="34.32" y="8" width="76.67" height="50"/></g></svg>