<?xml version="1.0" encoding="UTF-8"?>
<svg width="1177px" height="203px" viewBox="0 0 1177 203" version="1.1" xmlns="http://www.w3.org/2000/svg" xmlns:xlink="http://www.w3.org/1999/xlink">
    <!-- Generator: Sketch 51.3 (57544) - http://www.bohemiancoding.com/sketch -->
    <title>Timeline</title>
    <desc>Created with Sketch.</desc>
    <defs></defs>
    <g id="Page-1" stroke="none" stroke-width="1" fill="none" fill-rule="evenodd">
        <g id="Summit_Homepage" transform="translate(-119.000000, -2629.000000)">
            <g id="Timeline" transform="translate(119.000000, 2548.000000)">
                <g transform="translate(0.000000, 81.000000)">
                    <path d="M30.871,202 L30.871,192.2 L33.825,192.2 C35.911,192.2 37.269,193.376 37.269,195.308 L37.269,195.336 C37.269,197.408 35.701,198.528 33.699,198.542 L31.921,198.542 L31.921,202 L30.871,202 Z M31.921,197.59 L33.727,197.59 C35.253,197.59 36.205,196.708 36.205,195.364 L36.205,195.35 C36.205,193.922 35.253,193.166 33.769,193.166 L31.921,193.166 L31.921,197.59 Z M38.809,202 L38.809,194.706 L39.817,194.706 L39.817,196.316 C40.251,195.294 41.133,194.552 42.323,194.608 L42.323,195.7 L42.267,195.7 C40.909,195.7 39.817,196.652 39.817,198.528 L39.817,202 L38.809,202 Z M46.271,202.154 C44.493,202.154 43.037,200.726 43.037,198.416 L43.037,198.346 C43.037,196.12 44.339,194.566 46.047,194.566 C47.881,194.566 48.973,196.134 48.973,198.332 C48.973,198.43 48.973,198.626 48.959,198.752 L44.059,198.752 C44.171,200.362 45.165,201.258 46.313,201.258 C47.111,201.258 47.699,200.922 48.203,200.418 L48.777,201.062 C48.119,201.734 47.363,202.154 46.271,202.154 Z M44.059,197.968 L47.965,197.968 C47.895,196.582 47.237,195.448 46.047,195.448 C44.969,195.448 44.157,196.442 44.059,197.968 Z M50.359,198.318 L50.359,197.268 L53.957,197.268 L53.957,198.318 L50.359,198.318 Z M58.675,202.14 C57.415,202.14 56.295,201.706 55.273,200.754 L55.931,199.956 C56.743,200.712 57.583,201.174 58.689,201.174 C59.865,201.174 60.649,200.46 60.649,199.522 L60.649,199.508 C60.649,198.696 60.257,198.178 58.479,197.548 C56.449,196.792 55.651,196.064 55.651,194.678 L55.651,194.65 C55.651,193.18 56.883,192.06 58.605,192.06 C59.739,192.06 60.677,192.41 61.545,193.166 L60.915,193.978 C60.187,193.348 59.417,193.026 58.563,193.026 C57.443,193.026 56.715,193.712 56.715,194.552 L56.715,194.58 C56.715,195.434 57.149,195.924 58.997,196.596 C60.985,197.338 61.713,198.136 61.713,199.438 L61.713,199.466 C61.713,201.034 60.425,202.14 58.675,202.14 Z M65.731,202.14 C64.247,202.14 63.351,201.118 63.351,199.494 L63.351,194.706 L64.359,194.706 L64.359,199.2 C64.359,200.502 64.975,201.23 66.039,201.23 C67.103,201.23 67.887,200.404 67.887,199.158 L67.887,194.706 L68.895,194.706 L68.895,202 L67.887,202 L67.887,200.81 C67.481,201.538 66.823,202.14 65.731,202.14 Z M70.967,202 L70.967,194.706 L71.975,194.706 L71.975,195.868 C72.381,195.182 72.969,194.566 74.019,194.566 C74.999,194.566 75.685,195.098 76.035,195.896 C76.483,195.182 77.155,194.566 78.275,194.566 C79.689,194.566 80.599,195.546 80.599,197.24 L80.599,202 L79.591,202 L79.591,197.506 C79.591,196.176 79.003,195.476 78.009,195.476 C77.057,195.476 76.287,196.232 76.287,197.548 L76.287,202 L75.279,202 L75.279,197.492 C75.279,196.19 74.691,195.476 73.697,195.476 C72.717,195.476 71.975,196.33 71.975,197.562 L71.975,202 L70.967,202 Z M82.601,202 L82.601,194.706 L83.609,194.706 L83.609,195.868 C84.015,195.182 84.603,194.566 85.653,194.566 C86.633,194.566 87.319,195.098 87.669,195.896 C88.117,195.182 88.789,194.566 89.909,194.566 C91.323,194.566 92.233,195.546 92.233,197.24 L92.233,202 L91.225,202 L91.225,197.506 C91.225,196.176 90.637,195.476 89.643,195.476 C88.691,195.476 87.921,196.232 87.921,197.548 L87.921,202 L86.913,202 L86.913,197.492 C86.913,196.19 86.325,195.476 85.331,195.476 C84.351,195.476 83.609,196.33 83.609,197.562 L83.609,202 L82.601,202 Z M94.263,193.208 L94.263,192.018 L95.383,192.018 L95.383,193.208 L94.263,193.208 Z M94.319,202 L94.319,194.706 L95.327,194.706 L95.327,202 L94.319,202 Z M99.625,202.112 C98.589,202.112 97.805,201.608 97.805,200.306 L97.805,195.602 L96.923,195.602 L96.923,194.706 L97.805,194.706 L97.805,192.578 L98.813,192.578 L98.813,194.706 L100.717,194.706 L100.717,195.602 L98.813,195.602 L98.813,200.138 C98.813,200.908 99.233,201.188 99.863,201.188 C100.143,201.188 100.423,201.118 100.717,200.992 L100.717,201.86 C100.395,202.014 100.045,202.112 99.625,202.112 Z" id="Pre-Summit" fill="#4A4A4A"></path>
                    <path d="M1099.574,202 L1099.574,192.2 L1102.528,192.2 C1104.614,192.2 1105.972,193.376 1105.972,195.308 L1105.972,195.336 C1105.972,197.408 1104.404,198.528 1102.402,198.542 L1100.624,198.542 L1100.624,202 L1099.574,202 Z M1100.624,197.59 L1102.43,197.59 C1103.956,197.59 1104.908,196.708 1104.908,195.364 L1104.908,195.35 C1104.908,193.922 1103.956,193.166 1102.472,193.166 L1100.624,193.166 L1100.624,197.59 Z M1110.298,202.154 C1108.422,202.154 1107.064,200.544 1107.064,198.416 L1107.064,198.318 C1107.064,196.19 1108.436,194.566 1110.312,194.566 C1112.188,194.566 1113.546,196.176 1113.546,198.304 L1113.546,198.388 C1113.546,200.516 1112.174,202.154 1110.298,202.154 Z M1110.312,201.244 C1111.6,201.244 1112.524,200.012 1112.524,198.402 L1112.524,198.332 C1112.524,196.694 1111.544,195.476 1110.298,195.476 C1109.01,195.476 1108.1,196.694 1108.1,198.318 L1108.1,198.388 C1108.1,200.026 1109.066,201.244 1110.312,201.244 Z M1117.2,202.126 C1116.304,202.126 1115.338,201.776 1114.568,201.104 L1115.1,200.362 C1115.786,200.936 1116.5,201.244 1117.228,201.244 C1118.026,201.244 1118.586,200.796 1118.586,200.11 L1118.586,200.096 C1118.586,199.452 1117.984,199.116 1117.004,198.71 C1115.842,198.206 1114.918,197.744 1114.918,196.61 L1114.918,196.582 C1114.918,195.392 1115.884,194.594 1117.186,194.594 C1118.012,194.594 1118.866,194.916 1119.482,195.378 L1118.992,196.148 C1118.432,195.742 1117.802,195.462 1117.158,195.462 C1116.388,195.462 1115.898,195.91 1115.898,196.484 L1115.898,196.512 C1115.898,197.128 1116.528,197.436 1117.522,197.856 C1118.726,198.388 1119.566,198.892 1119.566,199.998 L1119.566,200.026 C1119.566,201.328 1118.516,202.126 1117.2,202.126 Z M1123.248,202.112 C1122.212,202.112 1121.428,201.608 1121.428,200.306 L1121.428,195.602 L1120.546,195.602 L1120.546,194.706 L1121.428,194.706 L1121.428,192.578 L1122.436,192.578 L1122.436,194.706 L1124.34,194.706 L1124.34,195.602 L1122.436,195.602 L1122.436,200.138 C1122.436,200.908 1122.856,201.188 1123.486,201.188 C1123.766,201.188 1124.046,201.118 1124.34,200.992 L1124.34,201.86 C1124.018,202.014 1123.668,202.112 1123.248,202.112 Z M1125.656,198.318 L1125.656,197.268 L1129.254,197.268 L1129.254,198.318 L1125.656,198.318 Z M1133.972,202.14 C1132.712,202.14 1131.592,201.706 1130.57,200.754 L1131.228,199.956 C1132.04,200.712 1132.88,201.174 1133.986,201.174 C1135.162,201.174 1135.946,200.46 1135.946,199.522 L1135.946,199.508 C1135.946,198.696 1135.554,198.178 1133.776,197.548 C1131.746,196.792 1130.948,196.064 1130.948,194.678 L1130.948,194.65 C1130.948,193.18 1132.18,192.06 1133.902,192.06 C1135.036,192.06 1135.974,192.41 1136.842,193.166 L1136.212,193.978 C1135.484,193.348 1134.714,193.026 1133.86,193.026 C1132.74,193.026 1132.012,193.712 1132.012,194.552 L1132.012,194.58 C1132.012,195.434 1132.446,195.924 1134.294,196.596 C1136.282,197.338 1137.01,198.136 1137.01,199.438 L1137.01,199.466 C1137.01,201.034 1135.722,202.14 1133.972,202.14 Z M1141.028,202.14 C1139.544,202.14 1138.648,201.118 1138.648,199.494 L1138.648,194.706 L1139.656,194.706 L1139.656,199.2 C1139.656,200.502 1140.272,201.23 1141.336,201.23 C1142.4,201.23 1143.184,200.404 1143.184,199.158 L1143.184,194.706 L1144.192,194.706 L1144.192,202 L1143.184,202 L1143.184,200.81 C1142.778,201.538 1142.12,202.14 1141.028,202.14 Z M1146.264,202 L1146.264,194.706 L1147.272,194.706 L1147.272,195.868 C1147.678,195.182 1148.266,194.566 1149.316,194.566 C1150.296,194.566 1150.982,195.098 1151.332,195.896 C1151.78,195.182 1152.452,194.566 1153.572,194.566 C1154.986,194.566 1155.896,195.546 1155.896,197.24 L1155.896,202 L1154.888,202 L1154.888,197.506 C1154.888,196.176 1154.3,195.476 1153.306,195.476 C1152.354,195.476 1151.584,196.232 1151.584,197.548 L1151.584,202 L1150.576,202 L1150.576,197.492 C1150.576,196.19 1149.988,195.476 1148.994,195.476 C1148.014,195.476 1147.272,196.33 1147.272,197.562 L1147.272,202 L1146.264,202 Z M1157.898,202 L1157.898,194.706 L1158.906,194.706 L1158.906,195.868 C1159.312,195.182 1159.9,194.566 1160.95,194.566 C1161.93,194.566 1162.616,195.098 1162.966,195.896 C1163.414,195.182 1164.086,194.566 1165.206,194.566 C1166.62,194.566 1167.53,195.546 1167.53,197.24 L1167.53,202 L1166.522,202 L1166.522,197.506 C1166.522,196.176 1165.934,195.476 1164.94,195.476 C1163.988,195.476 1163.218,196.232 1163.218,197.548 L1163.218,202 L1162.21,202 L1162.21,197.492 C1162.21,196.19 1161.622,195.476 1160.628,195.476 C1159.648,195.476 1158.906,196.33 1158.906,197.562 L1158.906,202 L1157.898,202 Z M1169.56,193.208 L1169.56,192.018 L1170.68,192.018 L1170.68,193.208 L1169.56,193.208 Z M1169.616,202 L1169.616,194.706 L1170.624,194.706 L1170.624,202 L1169.616,202 Z M1174.922,202.112 C1173.886,202.112 1173.102,201.608 1173.102,200.306 L1173.102,195.602 L1172.22,195.602 L1172.22,194.706 L1173.102,194.706 L1173.102,192.578 L1174.11,192.578 L1174.11,194.706 L1176.014,194.706 L1176.014,195.602 L1174.11,195.602 L1174.11,200.138 C1174.11,200.908 1174.53,201.188 1175.16,201.188 C1175.44,201.188 1175.72,201.118 1176.014,200.992 L1176.014,201.86 C1175.692,202.014 1175.342,202.112 1174.922,202.112 Z" id="Post-Summit" fill="#4A4A4A"></path>
                    <g id="Group-8" transform="translate(1128.000000, 161.000000)" fill-rule="nonzero" stroke="#4A4A4A" stroke-linecap="square" stroke-width="2">
                        <path d="M1,10.5 L18,10.5" id="Line-2"></path>
                        <path d="M0.25,0.5 L0.25,10.5" id="Line-3"></path>
                        <path d="M18.0142831,0.5 L18.0142831,10" id="Line-3-Copy"></path>
                        <path d="M9.25,11.5 L9.25,21.5" id="Line-3-Copy-2"></path>
                    </g>
                    <g id="Group-43-Copy-2" transform="translate(56.000000, 161.000000)"></g>
                    <path d="M582.145,202.14 C580.885,202.14 579.765,201.706 578.743,200.754 L579.401,199.956 C580.213,200.712 581.053,201.174 582.159,201.174 C583.335,201.174 584.119,200.46 584.119,199.522 L584.119,199.508 C584.119,198.696 583.727,198.178 581.949,197.548 C579.919,196.792 579.121,196.064 579.121,194.678 L579.121,194.65 C579.121,193.18 580.353,192.06 582.075,192.06 C583.209,192.06 584.147,192.41 585.015,193.166 L584.385,193.978 C583.657,193.348 582.887,193.026 582.033,193.026 C580.913,193.026 580.185,193.712 580.185,194.552 L580.185,194.58 C580.185,195.434 580.619,195.924 582.467,196.596 C584.455,197.338 585.183,198.136 585.183,199.438 L585.183,199.466 C585.183,201.034 583.895,202.14 582.145,202.14 Z M589.201,202.14 C587.717,202.14 586.821,201.118 586.821,199.494 L586.821,194.706 L587.829,194.706 L587.829,199.2 C587.829,200.502 588.445,201.23 589.509,201.23 C590.573,201.23 591.357,200.404 591.357,199.158 L591.357,194.706 L592.365,194.706 L592.365,202 L591.357,202 L591.357,200.81 C590.951,201.538 590.293,202.14 589.201,202.14 Z M594.437,202 L594.437,194.706 L595.445,194.706 L595.445,195.868 C595.851,195.182 596.439,194.566 597.489,194.566 C598.469,194.566 599.155,195.098 599.505,195.896 C599.953,195.182 600.625,194.566 601.745,194.566 C603.159,194.566 604.069,195.546 604.069,197.24 L604.069,202 L603.061,202 L603.061,197.506 C603.061,196.176 602.473,195.476 601.479,195.476 C600.527,195.476 599.757,196.232 599.757,197.548 L599.757,202 L598.749,202 L598.749,197.492 C598.749,196.19 598.161,195.476 597.167,195.476 C596.187,195.476 595.445,196.33 595.445,197.562 L595.445,202 L594.437,202 Z M606.071,202 L606.071,194.706 L607.079,194.706 L607.079,195.868 C607.485,195.182 608.073,194.566 609.123,194.566 C610.103,194.566 610.789,195.098 611.139,195.896 C611.587,195.182 612.259,194.566 613.379,194.566 C614.793,194.566 615.703,195.546 615.703,197.24 L615.703,202 L614.695,202 L614.695,197.506 C614.695,196.176 614.107,195.476 613.113,195.476 C612.161,195.476 611.391,196.232 611.391,197.548 L611.391,202 L610.383,202 L610.383,197.492 C610.383,196.19 609.795,195.476 608.801,195.476 C607.821,195.476 607.079,196.33 607.079,197.562 L607.079,202 L606.071,202 Z M617.733,193.208 L617.733,192.018 L618.853,192.018 L618.853,193.208 L617.733,193.208 Z M617.789,202 L617.789,194.706 L618.797,194.706 L618.797,202 L617.789,202 Z M623.095,202.112 C622.059,202.112 621.275,201.608 621.275,200.306 L621.275,195.602 L620.393,195.602 L620.393,194.706 L621.275,194.706 L621.275,192.578 L622.283,192.578 L622.283,194.706 L624.187,194.706 L624.187,195.602 L622.283,195.602 L622.283,200.138 C622.283,200.908 622.703,201.188 623.333,201.188 C623.613,201.188 623.893,201.118 624.187,200.992 L624.187,201.86 C623.865,202.014 623.515,202.112 623.095,202.112 Z" id="Summit" fill="#4A4A4A"></path>
                    <g id="Group-45" transform="translate(244.000000, 161.000000)" fill-rule="nonzero" stroke="#4A4A4A" stroke-linecap="square" stroke-width="2">
                        <path d="M1,10.5 L714,10.5" id="Line-2"></path>
                        <path d="M0.25,0.5 L0.25,10.5" id="Line-3"></path>
                        <path d="M714.25,0.5 L714.25,10.5" id="Line-3-Copy"></path>
                        <path d="M357.25,11.5 L357.25,21.5" id="Line-3-Copy-2"></path>
                    </g>
                    <path d="M66,138.25 L1137,138.25" id="Line" stroke="#00468B" stroke-width="4" stroke-linecap="square" fill-rule="nonzero"></path>
                    <g id="Group-4" transform="translate(55.000000, 128.000000)" fill="#00468B" fill-rule="nonzero">
                        <circle id="Oval" cx="10" cy="10" r="10"></circle>
                        <circle id="Oval-Copy" cx="189" cy="10" r="10"></circle>
                        <circle id="Oval-Copy-2" cx="367" cy="10" r="10"></circle>
                        <circle id="Oval-Copy-3" cx="546" cy="10" r="10"></circle>
                        <circle id="Oval-Copy-4" cx="725" cy="10" r="10"></circle>
                        <circle id="Oval-Copy-5" cx="903" cy="10" r="10"></circle>
                        <circle id="Oval-Copy-6" cx="1082" cy="10" r="10"></circle>
                    </g>
                    <g id="Group-8" transform="translate(56.000000, 161.000000)" fill-rule="nonzero" stroke="#4A4A4A" stroke-linecap="square" stroke-width="2">
                        <path d="M1,10.5 L18,10.5" id="Line-2"></path>
                        <path d="M0.25,0.5 L0.25,10.5" id="Line-3"></path>
                        <path d="M18.0142831,0.5 L18.0142831,10" id="Line-3-Copy"></path>
                        <path d="M9.25,11.5 L9.25,21.5" id="Line-3-Copy-2"></path>
                    </g>
                    <g id="PTG" transform="translate(1119.000000, 0.000000)">
                        <path d="M6.709,81 L6.709,71.2 L9.845,71.2 C11.987,71.2 13.373,72.432 13.373,74.462 L13.373,74.49 C13.373,76.66 11.777,77.794 9.747,77.822 L8.333,77.822 L8.333,81 L6.709,81 Z M8.333,76.352 L9.747,76.352 C10.993,76.352 11.721,75.61 11.721,74.518 L11.721,74.504 C11.721,73.328 10.993,72.684 9.747,72.684 L8.333,72.684 L8.333,76.352 Z M16.761,81 L16.761,72.712 L14.185,72.712 L14.185,71.2 L20.961,71.2 L20.961,72.712 L18.385,72.712 L18.385,81 L16.761,81 Z M26.155,81.14 C23.495,81.14 21.675,79.18 21.675,76.17 L21.675,76.058 C21.675,73.174 23.537,71.06 26.169,71.06 C27.499,71.06 28.409,71.438 29.277,72.166 L28.311,73.454 C27.751,72.95 27.135,72.572 26.141,72.572 C24.545,72.572 23.355,74.014 23.355,76.044 L23.355,76.128 C23.355,78.34 24.559,79.656 26.225,79.656 C26.911,79.656 27.527,79.446 27.961,79.138 L27.961,76.982 L25.903,76.982 L25.903,75.554 L29.501,75.554 L29.501,79.95 C28.675,80.608 27.541,81.14 26.155,81.14 Z" fill="#000000"></path>
                        <g id="code-branch" fill="#00468B" fill-rule="nonzero">
                            <path d="M40,15.2027027 C40,10.5363176 36.2708333,6.75675676 31.6666667,6.75675676 C27.0625,6.75675676 23.3333333,10.5363176 23.3333333,15.2027027 C23.3333333,19.0456081 25.8645833,22.2867399 29.3229167,23.3108108 C29.2604167,25.0105574 28.8854167,26.3196791 28.1770833,27.2065034 C26.5729167,29.2335304 23.0416667,29.5713682 19.3020833,29.9197635 C16.3645833,30.1942568 13.3229167,30.4898649 10.8333333,31.7039696 L10.8333333,16.5012669 C14.21875,15.4244088 16.6666667,12.2255068 16.6666667,8.44594595 C16.6666667,3.77956081 12.9375,0 8.33333333,0 C3.72916667,0 0,3.77956081 0,8.44594595 C0,12.2255068 2.44791667,15.4244088 5.83333333,16.5012669 L5.83333333,37.5422297 C2.44791667,38.6296453 0,41.8285473 0,45.6081081 C0,50.2744932 3.72916667,54.0540541 8.33333333,54.0540541 C12.9375,54.0540541 16.6666667,50.2744932 16.6666667,45.6081081 C16.6666667,42.0185811 14.4583333,38.9463682 11.3333333,37.7322635 C11.65625,37.183277 12.1458333,36.6976351 12.8854167,36.3175676 C14.5729167,35.4518581 17.09375,35.2195946 19.7708333,34.9662162 C24.1666667,34.5544764 29.1458333,34.0793919 32.0833333,30.3842905 C33.5416667,28.5472973 34.28125,26.1824324 34.3333333,23.2157939 C37.625,22.0755912 40,18.9189189 40,15.2027027 Z M8.33333333,6.75675676 C9.25,6.75675676 10,7.51689189 10,8.44594595 C10,9.375 9.25,10.1351351 8.33333333,10.1351351 C7.41666667,10.1351351 6.66666667,9.375 6.66666667,8.44594595 C6.66666667,7.51689189 7.41666667,6.75675676 8.33333333,6.75675676 Z M8.33333333,47.2972973 C7.41666667,47.2972973 6.66666667,46.5371622 6.66666667,45.6081081 C6.66666667,44.6790541 7.41666667,43.9189189 8.33333333,43.9189189 C9.25,43.9189189 10,44.6790541 10,45.6081081 C10,46.5371622 9.25,47.2972973 8.33333333,47.2972973 Z M31.6666667,13.5135135 C32.5833333,13.5135135 33.3333333,14.2736486 33.3333333,15.2027027 C33.3333333,16.1317568 32.5833333,16.8918919 31.6666667,16.8918919 C30.75,16.8918919 30,16.1317568 30,15.2027027 C30,14.2736486 30.75,13.5135135 31.6666667,13.5135135 Z" id="Shape"></path>
                        </g>
                    </g>
                    <g id="OI-Marketplace" transform="translate(899.000000, 8.000000)">
                        <g id="handshake" transform="translate(26.000000, 0.000000)" fill="#00468B" fill-rule="nonzero">
                            <path d="M44.9982422,0 L36.10625,0 C35.278125,0 34.4810547,0.312386687 33.8703125,0.874682724 L23.6947266,10.2462833 C23.684375,10.2566962 23.6740234,10.277522 23.6636719,10.2879349 C21.9453125,11.9123457 21.9763672,14.5051552 23.4462891,16.1191531 C24.7609375,17.5665447 27.5248047,17.9518216 29.2535156,16.4003011 C29.2638672,16.3898882 29.2845703,16.3898882 29.2949219,16.3794753 L37.5658203,8.75724013 C38.2386719,8.14287965 39.2945312,8.1845312 39.9052734,8.86136903 C40.5263672,9.53820685 40.4746094,10.5899087 39.8017578,11.2146821 L37.1,13.7033627 L52.171875,26.0113982 C52.4720703,26.2613075 52.7412109,26.5320426 52.9896484,26.8131907 L52.9896484,6.66424933 L47.3376953,0.97881162 C46.7269531,0.354038245 45.878125,0 44.9982422,0 Z M56.3125,6.68507511 L56.3125,29.9995349 C56.3125,31.8426163 57.7927734,33.3316595 59.625,33.3316595 L66.25,33.3316595 L66.25,6.68507511 L56.3125,6.68507511 Z M61.28125,29.9995349 C60.3703125,29.9995349 59.625,29.2498068 59.625,28.3334725 C59.625,27.4171382 60.3703125,26.6674102 61.28125,26.6674102 C62.1921875,26.6674102 62.9375,27.4171382 62.9375,28.3334725 C62.9375,29.2498068 62.1921875,29.9995349 61.28125,29.9995349 Z M0,33.3212466 L6.625,33.3212466 C8.45722656,33.3212466 9.9375,31.8322034 9.9375,29.989122 L9.9375,6.68507511 L0,6.68507511 L0,33.3212466 Z M4.96875,26.6674102 C5.8796875,26.6674102 6.625,27.4171382 6.625,28.3334725 C6.625,29.2498068 5.8796875,29.9995349 4.96875,29.9995349 C4.0578125,29.9995349 3.3125,29.2498068 3.3125,28.3334725 C3.3125,27.4067254 4.0578125,26.6674102 4.96875,26.6674102 Z M50.0912109,28.6042077 L34.6363281,15.9837855 L31.5308594,18.8473301 C28.4564453,21.6692232 23.7464844,21.3984881 21.0033203,18.389163 C18.21875,15.3277735 18.4361328,10.5899087 21.4587891,7.79925429 L29.9263672,0 L21.2517578,0 C20.371875,0 19.5333984,0.354038245 18.9123047,0.97881162 L13.25,6.66424933 L13.25,29.9787091 L15.1443359,29.9787091 L24.5125,38.5068656 C27.3488281,40.82894 31.5205078,40.3915987 33.8289062,37.5384669 L33.8496094,37.5176411 L35.7025391,39.131639 C37.3484375,40.4853147 39.7810547,40.2249924 41.1164062,38.569343 L44.3667969,34.5499676 L44.9257812,35.0081347 C46.3439453,36.1639655 48.4349609,35.9557077 49.5839844,34.5187289 L50.5673828,33.3004209 C51.7267578,31.8634421 51.509375,29.7704513 50.0912109,28.6042077 Z" id="Shape"></path>
                        </g>
                        <path d="M5.113,73.154 C2.565,73.154 0.787,71.082 0.787,68.184 L0.787,68.044 C0.787,65.132 2.579,63.046 5.141,63.046 C7.689,63.046 9.467,65.118 9.467,68.016 L9.467,68.156 C9.467,71.068 7.675,73.154 5.113,73.154 Z M5.141,71.656 C6.681,71.656 7.787,70.27 7.787,68.156 L7.787,68.058 C7.787,65.958 6.667,64.544 5.113,64.544 C3.573,64.544 2.467,65.93 2.467,68.044 L2.467,68.142 C2.467,70.242 3.601,71.656 5.141,71.656 Z M11.063,75.114 L11.063,65.58 L12.645,65.58 L12.645,66.77 C13.107,66.056 13.751,65.44 14.815,65.44 C16.299,65.44 17.699,66.686 17.699,69.192 L17.699,69.388 C17.699,71.88 16.313,73.14 14.815,73.14 C13.737,73.14 13.093,72.538 12.645,71.88 L12.645,75.114 L11.063,75.114 Z M14.381,71.74 C15.347,71.74 16.103,70.844 16.103,69.36 L16.103,69.234 C16.103,67.75 15.333,66.84 14.381,66.84 C13.429,66.84 12.617,67.764 12.617,69.22 L12.617,69.36 C12.617,70.816 13.429,71.74 14.381,71.74 Z M22.235,73.154 C20.331,73.154 18.847,71.698 18.847,69.374 L18.847,69.262 C18.847,67.036 20.191,65.44 22.011,65.44 C24.027,65.44 25.091,67.12 25.091,69.346 C25.091,69.444 25.091,69.668 25.077,69.892 L20.429,69.892 C20.569,71.138 21.339,71.81 22.305,71.81 C23.005,71.81 23.523,71.502 24.013,71.026 L24.839,72.006 C24.167,72.72 23.341,73.154 22.235,73.154 Z M20.415,68.8 L23.551,68.8 C23.467,67.624 22.935,66.77 22.011,66.77 C21.143,66.77 20.527,67.54 20.415,68.8 Z M26.519,73 L26.519,65.58 L28.101,65.58 L28.101,66.672 C28.521,66.014 29.123,65.44 30.131,65.44 C31.559,65.44 32.413,66.448 32.413,68.03 L32.413,73 L30.831,73 L30.831,68.478 C30.831,67.442 30.341,66.868 29.501,66.868 C28.675,66.868 28.101,67.484 28.101,68.506 L28.101,73 L26.519,73 Z M37.999,73 L37.999,63.2 L39.623,63.2 L39.623,73 L37.999,73 Z M41.653,73 L41.653,65.58 L43.235,65.58 L43.235,66.672 C43.655,66.014 44.257,65.44 45.265,65.44 C46.693,65.44 47.547,66.448 47.547,68.03 L47.547,73 L45.965,73 L45.965,68.478 C45.965,67.442 45.475,66.868 44.635,66.868 C43.809,66.868 43.235,67.484 43.235,68.506 L43.235,73 L41.653,73 Z M49.577,73 L49.577,66.938 L48.751,66.938 L48.751,65.622 L49.577,65.622 L49.577,65.048 C49.577,64.292 49.759,63.718 50.123,63.354 C50.487,63.004 51.005,62.822 51.677,62.822 C52.153,62.822 52.489,62.878 52.797,62.976 L52.797,64.306 C52.545,64.236 52.307,64.18 52.027,64.18 C51.453,64.18 51.145,64.502 51.145,65.202 L51.145,65.622 L52.783,65.622 L52.783,66.938 L51.159,66.938 L51.159,73 L49.577,73 Z M53.847,73 L53.847,65.58 L55.429,65.58 L55.429,67.036 C55.821,66.07 56.535,65.412 57.655,65.468 L57.655,67.19 L57.585,67.19 C56.297,67.19 55.429,68.03 55.429,69.724 L55.429,73 L53.847,73 Z M60.441,73.14 C59.209,73.14 58.173,72.314 58.173,70.872 L58.173,70.802 C58.173,69.206 59.237,68.422 60.805,68.422 C61.505,68.422 62.009,68.548 62.513,68.716 L62.513,68.408 C62.513,67.414 61.925,66.896 60.917,66.896 C60.203,66.896 59.615,67.12 59.125,67.344 L58.677,66.084 C59.391,65.734 60.133,65.496 61.127,65.496 C62.093,65.496 62.835,65.762 63.311,66.252 C63.801,66.742 64.053,67.47 64.053,68.394 L64.053,73 L62.499,73 L62.499,72.09 C62.065,72.72 61.407,73.14 60.441,73.14 Z M60.917,71.95 C61.827,71.964 62.527,71.348 62.527,70.508 L62.527,69.766 C62.163,69.612 61.687,69.5 61.155,69.5 C60.245,69.5 59.713,69.962 59.713,70.746 L59.713,70.774 C59.713,71.516 60.231,71.936 60.917,71.95 Z M67.903,73.14 C67.021,73.14 65.999,72.818 65.145,72.104 L65.887,70.97 C66.559,71.516 67.273,71.838 67.931,71.838 C68.589,71.838 68.967,71.488 68.967,71.026 L68.967,71.012 C68.967,70.48 68.393,70.242 67.511,69.864 C66.405,69.388 65.481,68.884 65.481,67.666 L65.481,67.638 C65.481,66.308 66.545,65.468 67.931,65.468 C68.757,65.468 69.639,65.762 70.339,66.266 L69.667,67.428 C69.107,67.05 68.491,66.77 67.903,66.77 C67.315,66.77 66.965,67.092 66.965,67.498 L66.965,67.526 C66.965,68.016 67.553,68.268 68.421,68.66 C69.569,69.178 70.437,69.71 70.437,70.872 L70.437,70.886 C70.437,72.342 69.331,73.14 67.903,73.14 Z M73.951,73.112 C72.859,73.112 72.033,72.65 72.033,71.208 L72.033,66.938 L71.221,66.938 L71.221,65.58 L72.033,65.58 L72.033,63.578 L73.615,63.578 L73.615,65.58 L75.281,65.58 L75.281,66.938 L73.615,66.938 L73.615,70.886 C73.615,71.46 73.909,71.698 74.413,71.698 C74.721,71.698 75.001,71.628 75.267,71.488 L75.267,72.79 C74.903,72.986 74.483,73.112 73.951,73.112 Z M76.709,73 L76.709,65.58 L78.291,65.58 L78.291,67.036 C78.683,66.07 79.397,65.412 80.517,65.468 L80.517,67.19 L80.447,67.19 C79.159,67.19 78.291,68.03 78.291,69.724 L78.291,73 L76.709,73 Z M83.961,73.14 C82.519,73.14 81.679,72.146 81.679,70.55 L81.679,65.58 L83.261,65.58 L83.261,70.102 C83.261,71.138 83.751,71.712 84.577,71.712 C85.403,71.712 85.977,71.096 85.977,70.074 L85.977,65.58 L87.573,65.58 L87.573,73 L85.977,73 L85.977,71.922 C85.557,72.58 84.969,73.14 83.961,73.14 Z M92.361,73.154 C90.429,73.154 89.029,71.6 89.029,69.388 L89.029,69.248 C89.029,67.036 90.471,65.44 92.417,65.44 C93.481,65.44 94.181,65.832 94.797,66.448 L93.915,67.61 C93.523,67.204 93.089,66.868 92.417,66.868 C91.381,66.868 90.625,67.862 90.625,69.262 L90.625,69.332 C90.625,70.774 91.381,71.74 92.459,71.74 C93.103,71.74 93.537,71.418 93.971,70.984 L94.825,72.034 C94.237,72.692 93.495,73.154 92.361,73.154 Z M98.297,73.112 C97.205,73.112 96.379,72.65 96.379,71.208 L96.379,66.938 L95.567,66.938 L95.567,65.58 L96.379,65.58 L96.379,63.578 L97.961,63.578 L97.961,65.58 L99.627,65.58 L99.627,66.938 L97.961,66.938 L97.961,70.886 C97.961,71.46 98.255,71.698 98.759,71.698 C99.067,71.698 99.347,71.628 99.613,71.488 L99.613,72.79 C99.249,72.986 98.829,73.112 98.297,73.112 Z M103.267,73.14 C101.825,73.14 100.985,72.146 100.985,70.55 L100.985,65.58 L102.567,65.58 L102.567,70.102 C102.567,71.138 103.057,71.712 103.883,71.712 C104.709,71.712 105.283,71.096 105.283,70.074 L105.283,65.58 L106.879,65.58 L106.879,73 L105.283,73 L105.283,71.922 C104.863,72.58 104.275,73.14 103.267,73.14 Z M108.671,73 L108.671,65.58 L110.253,65.58 L110.253,67.036 C110.645,66.07 111.359,65.412 112.479,65.468 L112.479,67.19 L112.409,67.19 C111.121,67.19 110.253,68.03 110.253,69.724 L110.253,73 L108.671,73 Z M116.525,73.154 C114.621,73.154 113.137,71.698 113.137,69.374 L113.137,69.262 C113.137,67.036 114.481,65.44 116.301,65.44 C118.317,65.44 119.381,67.12 119.381,69.346 C119.381,69.444 119.381,69.668 119.367,69.892 L114.719,69.892 C114.859,71.138 115.629,71.81 116.595,71.81 C117.295,71.81 117.813,71.502 118.303,71.026 L119.129,72.006 C118.457,72.72 117.631,73.154 116.525,73.154 Z M114.705,68.8 L117.841,68.8 C117.757,67.624 117.225,66.77 116.301,66.77 C115.433,66.77 114.817,67.54 114.705,68.8 Z M23.761,89.8000057 L23.761,80.0000057 L25.455,80.0000057 L27.975,84.5080057 L30.481,80.0000057 L32.189,80.0000057 L32.189,89.8000057 L30.579,89.8000057 L30.579,82.8700057 L27.975,87.4060057 L27.933,87.4060057 L25.343,82.8980057 L25.343,89.8000057 L23.761,89.8000057 Z M35.983,89.9400057 C34.751,89.9400057 33.715,89.1140057 33.715,87.6720057 L33.715,87.6020057 C33.715,86.0060057 34.779,85.2220057 36.347,85.2220057 C37.047,85.2220057 37.551,85.3480057 38.055,85.5160057 L38.055,85.2080057 C38.055,84.2140057 37.467,83.6960057 36.459,83.6960057 C35.745,83.6960057 35.157,83.9200057 34.667,84.1440057 L34.219,82.8840057 C34.933,82.5340057 35.675,82.2960057 36.669,82.2960057 C37.635,82.2960057 38.377,82.5620057 38.853,83.0520057 C39.343,83.5420057 39.595,84.2700057 39.595,85.1940057 L39.595,89.8000057 L38.041,89.8000057 L38.041,88.8900057 C37.607,89.5200057 36.949,89.9400057 35.983,89.9400057 Z M36.459,88.7500057 C37.369,88.7640057 38.069,88.1480057 38.069,87.3080057 L38.069,86.5660057 C37.705,86.4120057 37.229,86.3000057 36.697,86.3000057 C35.787,86.3000057 35.255,86.7620057 35.255,87.5460057 L35.255,87.5740057 C35.255,88.3160057 35.773,88.7360057 36.459,88.7500057 Z M41.303,89.8000057 L41.303,82.3800057 L42.885,82.3800057 L42.885,83.8360057 C43.277,82.8700057 43.991,82.2120057 45.111,82.2680057 L45.111,83.9900057 L45.041,83.9900057 C43.753,83.9900057 42.885,84.8300057 42.885,86.5240057 L42.885,89.8000057 L41.303,89.8000057 Z M46.343,89.8000057 L46.343,79.6920057 L47.925,79.6920057 L47.925,85.6420057 L50.459,82.3800057 L52.335,82.3800057 L49.871,85.4040057 L52.405,89.8000057 L50.571,89.8000057 L48.779,86.6220057 L47.925,87.6580057 L47.925,89.8000057 L46.343,89.8000057 Z M56.241,89.9540057 C54.337,89.9540057 52.853,88.4980057 52.853,86.1740057 L52.853,86.0620057 C52.853,83.8360057 54.197,82.2400057 56.017,82.2400057 C58.033,82.2400057 59.097,83.9200057 59.097,86.1460057 C59.097,86.2440057 59.097,86.4680057 59.083,86.6920057 L54.435,86.6920057 C54.575,87.9380057 55.345,88.6100057 56.311,88.6100057 C57.011,88.6100057 57.529,88.3020057 58.019,87.8260057 L58.845,88.8060057 C58.173,89.5200057 57.347,89.9540057 56.241,89.9540057 Z M54.421,85.6000057 L57.557,85.6000057 C57.473,84.4240057 56.941,83.5700057 56.017,83.5700057 C55.149,83.5700057 54.533,84.3400057 54.421,85.6000057 Z M62.723,89.9120057 C61.631,89.9120057 60.805,89.4500057 60.805,88.0080057 L60.805,83.7380057 L59.993,83.7380057 L59.993,82.3800057 L60.805,82.3800057 L60.805,80.3780057 L62.387,80.3780057 L62.387,82.3800057 L64.053,82.3800057 L64.053,83.7380057 L62.387,83.7380057 L62.387,87.6860057 C62.387,88.2600057 62.681,88.4980057 63.185,88.4980057 C63.493,88.4980057 63.773,88.4280057 64.039,88.2880057 L64.039,89.5900057 C63.675,89.7860057 63.255,89.9120057 62.723,89.9120057 Z M65.481,91.9140057 L65.481,82.3800057 L67.063,82.3800057 L67.063,83.5700057 C67.525,82.8560057 68.169,82.2400057 69.233,82.2400057 C70.717,82.2400057 72.117,83.4860057 72.117,85.9920057 L72.117,86.1880057 C72.117,88.6800057 70.731,89.9400057 69.233,89.9400057 C68.155,89.9400057 67.511,89.3380057 67.063,88.6800057 L67.063,91.9140057 L65.481,91.9140057 Z M68.799,88.5400057 C69.765,88.5400057 70.521,87.6440057 70.521,86.1600057 L70.521,86.0340057 C70.521,84.5500057 69.751,83.6400057 68.799,83.6400057 C67.847,83.6400057 67.035,84.5640057 67.035,86.0200057 L67.035,86.1600057 C67.035,87.6160057 67.847,88.5400057 68.799,88.5400057 Z M73.685,89.8000057 L73.685,79.6920057 L75.267,79.6920057 L75.267,89.8000057 L73.685,89.8000057 Z M78.991,89.9400057 C77.759,89.9400057 76.723,89.1140057 76.723,87.6720057 L76.723,87.6020057 C76.723,86.0060057 77.787,85.2220057 79.355,85.2220057 C80.055,85.2220057 80.559,85.3480057 81.063,85.5160057 L81.063,85.2080057 C81.063,84.2140057 80.475,83.6960057 79.467,83.6960057 C78.753,83.6960057 78.165,83.9200057 77.675,84.1440057 L77.227,82.8840057 C77.941,82.5340057 78.683,82.2960057 79.677,82.2960057 C80.643,82.2960057 81.385,82.5620057 81.861,83.0520057 C82.351,83.5420057 82.603,84.2700057 82.603,85.1940057 L82.603,89.8000057 L81.049,89.8000057 L81.049,88.8900057 C80.615,89.5200057 79.957,89.9400057 78.991,89.9400057 Z M79.467,88.7500057 C80.377,88.7640057 81.077,88.1480057 81.077,87.3080057 L81.077,86.5660057 C80.713,86.4120057 80.237,86.3000057 79.705,86.3000057 C78.795,86.3000057 78.263,86.7620057 78.263,87.5460057 L78.263,87.5740057 C78.263,88.3160057 78.781,88.7360057 79.467,88.7500057 Z M87.307,89.9540057 C85.375,89.9540057 83.975,88.4000057 83.975,86.1880057 L83.975,86.0480057 C83.975,83.8360057 85.417,82.2400057 87.363,82.2400057 C88.427,82.2400057 89.127,82.6320057 89.743,83.2480057 L88.861,84.4100057 C88.469,84.0040057 88.035,83.6680057 87.363,83.6680057 C86.327,83.6680057 85.571,84.6620057 85.571,86.0620057 L85.571,86.1320057 C85.571,87.5740057 86.327,88.5400057 87.405,88.5400057 C88.049,88.5400057 88.483,88.2180057 88.917,87.7840057 L89.771,88.8340057 C89.183,89.4920057 88.441,89.9540057 87.307,89.9540057 Z M93.915,89.9540057 C92.011,89.9540057 90.527,88.4980057 90.527,86.1740057 L90.527,86.0620057 C90.527,83.8360057 91.871,82.2400057 93.691,82.2400057 C95.707,82.2400057 96.771,83.9200057 96.771,86.1460057 C96.771,86.2440057 96.771,86.4680057 96.757,86.6920057 L92.109,86.6920057 C92.249,87.9380057 93.019,88.6100057 93.985,88.6100057 C94.685,88.6100057 95.203,88.3020057 95.693,87.8260057 L96.519,88.8060057 C95.847,89.5200057 95.021,89.9540057 93.915,89.9540057 Z M92.095,85.6000057 L95.231,85.6000057 C95.147,84.4240057 94.615,83.5700057 93.691,83.5700057 C92.823,83.5700057 92.207,84.3400057 92.095,85.6000057 Z" id="Open-Infrastructure" fill="#000000"></path>
                    </g>
                    <g id="Workshops" transform="translate(731.000000, 8.000000)">
                        <path d="M31.5714286,17.1428571 C34.7232143,17.1428571 37.2857143,14.5803571 37.2857143,11.4285714 C37.2857143,8.27678571 34.7232143,5.71428571 31.5714286,5.71428571 C28.4196429,5.71428571 25.8571429,8.27678571 25.8571429,11.4285714 C25.8571429,14.5803571 28.4196429,17.1428571 31.5714286,17.1428571 Z M71.5714286,17.1428571 C74.7232143,17.1428571 77.2857143,14.5803571 77.2857143,11.4285714 C77.2857143,8.27678571 74.7232143,5.71428571 71.5714286,5.71428571 C68.4196429,5.71428571 65.8571429,8.27678571 65.8571429,11.4285714 C65.8571429,14.5803571 68.4196429,17.1428571 71.5714286,17.1428571 Z M74.4285714,20 L68.7142857,20 C67.1428571,20 65.7232143,20.6339286 64.6875,21.6607143 C68.2857143,23.6339286 70.8392857,27.1964286 71.3928571,31.4285714 L77.2857143,31.4285714 C78.8660714,31.4285714 80.1428571,30.1517857 80.1428571,28.5714286 L80.1428571,25.7142857 C80.1428571,22.5625 77.5803571,20 74.4285714,20 Z M51.5714286,20 C57.0982143,20 61.5714286,15.5267857 61.5714286,10 C61.5714286,4.47321429 57.0982143,0 51.5714286,0 C46.0446429,0 41.5714286,4.47321429 41.5714286,10 C41.5714286,15.5267857 46.0446429,20 51.5714286,20 Z M58.4285714,22.8571429 L57.6875,22.8571429 C55.8303571,23.75 53.7678571,24.2857143 51.5714286,24.2857143 C49.375,24.2857143 47.3214286,23.75 45.4553571,22.8571429 L44.7142857,22.8571429 C39.0357143,22.8571429 34.4285714,27.4642857 34.4285714,33.1428571 L34.4285714,35.7142857 C34.4285714,38.0803571 36.3482143,40 38.7142857,40 L64.4285714,40 C66.7946429,40 68.7142857,38.0803571 68.7142857,35.7142857 L68.7142857,33.1428571 C68.7142857,27.4642857 64.1071429,22.8571429 58.4285714,22.8571429 Z M38.4553571,21.6607143 C37.4196429,20.6339286 36,20 34.4285714,20 L28.7142857,20 C25.5625,20 23,22.5625 23,25.7142857 L23,28.5714286 C23,30.1517857 24.2767857,31.4285714 25.8571429,31.4285714 L31.7410714,31.4285714 C32.3035714,27.1964286 34.8571429,23.6339286 38.4553571,21.6607143 Z" id="Shape" fill="#00468B" fill-rule="nonzero"></path>
                        <path d="M3.648,73.056 L0.806,63.2 L2.528,63.2 L4.446,70.312 L6.448,63.172 L7.848,63.172 L9.85,70.312 L11.768,63.2 L13.448,63.2 L10.592,73.056 L9.122,73.056 L7.12,66.14 L5.118,73.056 L3.648,73.056 Z M17.088,73.154 C15.128,73.154 13.686,71.572 13.686,69.374 L13.686,69.248 C13.686,67.064 15.142,65.44 17.116,65.44 C19.076,65.44 20.518,67.036 20.518,69.234 L20.518,69.36 C20.518,71.544 19.062,73.154 17.088,73.154 Z M17.116,71.768 C18.222,71.768 18.936,70.732 18.936,69.346 L18.936,69.262 C18.936,67.876 18.166,66.84 17.088,66.84 C15.982,66.84 15.268,67.862 15.268,69.248 L15.268,69.332 C15.268,70.718 16.038,71.768 17.116,71.768 Z M21.974,73 L21.974,65.58 L23.556,65.58 L23.556,67.036 C23.948,66.07 24.662,65.412 25.782,65.468 L25.782,67.19 L25.712,67.19 C24.424,67.19 23.556,68.03 23.556,69.724 L23.556,73 L21.974,73 Z M27.014,73 L27.014,62.892 L28.596,62.892 L28.596,68.842 L31.13,65.58 L33.006,65.58 L30.542,68.604 L33.076,73 L31.242,73 L29.45,69.822 L28.596,70.858 L28.596,73 L27.014,73 Z M36.282,73.14 C35.4,73.14 34.378,72.818 33.524,72.104 L34.266,70.97 C34.938,71.516 35.652,71.838 36.31,71.838 C36.968,71.838 37.346,71.488 37.346,71.026 L37.346,71.012 C37.346,70.48 36.772,70.242 35.89,69.864 C34.784,69.388 33.86,68.884 33.86,67.666 L33.86,67.638 C33.86,66.308 34.924,65.468 36.31,65.468 C37.136,65.468 38.018,65.762 38.718,66.266 L38.046,67.428 C37.486,67.05 36.87,66.77 36.282,66.77 C35.694,66.77 35.344,67.092 35.344,67.498 L35.344,67.526 C35.344,68.016 35.932,68.268 36.8,68.66 C37.948,69.178 38.816,69.71 38.816,70.872 L38.816,70.886 C38.816,72.342 37.71,73.14 36.282,73.14 Z M40.216,73 L40.216,62.892 L41.798,62.892 L41.798,66.672 C42.218,66.014 42.82,65.44 43.828,65.44 C45.256,65.44 46.11,66.448 46.11,68.03 L46.11,73 L44.528,73 L44.528,68.478 C44.528,67.442 44.038,66.868 43.198,66.868 C42.372,66.868 41.798,67.484 41.798,68.506 L41.798,73 L40.216,73 Z M50.898,73.154 C48.938,73.154 47.496,71.572 47.496,69.374 L47.496,69.248 C47.496,67.064 48.952,65.44 50.926,65.44 C52.886,65.44 54.328,67.036 54.328,69.234 L54.328,69.36 C54.328,71.544 52.872,73.154 50.898,73.154 Z M50.926,71.768 C52.032,71.768 52.746,70.732 52.746,69.346 L52.746,69.262 C52.746,67.876 51.976,66.84 50.898,66.84 C49.792,66.84 49.078,67.862 49.078,69.248 L49.078,69.332 C49.078,70.718 49.848,71.768 50.926,71.768 Z M55.784,75.114 L55.784,65.58 L57.366,65.58 L57.366,66.77 C57.828,66.056 58.472,65.44 59.536,65.44 C61.02,65.44 62.42,66.686 62.42,69.192 L62.42,69.388 C62.42,71.88 61.034,73.14 59.536,73.14 C58.458,73.14 57.814,72.538 57.366,71.88 L57.366,75.114 L55.784,75.114 Z M59.102,71.74 C60.068,71.74 60.824,70.844 60.824,69.36 L60.824,69.234 C60.824,67.75 60.054,66.84 59.102,66.84 C58.15,66.84 57.338,67.764 57.338,69.22 L57.338,69.36 C57.338,70.816 58.15,71.74 59.102,71.74 Z M66.046,73.14 C65.164,73.14 64.142,72.818 63.288,72.104 L64.03,70.97 C64.702,71.516 65.416,71.838 66.074,71.838 C66.732,71.838 67.11,71.488 67.11,71.026 L67.11,71.012 C67.11,70.48 66.536,70.242 65.654,69.864 C64.548,69.388 63.624,68.884 63.624,67.666 L63.624,67.638 C63.624,66.308 64.688,65.468 66.074,65.468 C66.9,65.468 67.782,65.762 68.482,66.266 L67.81,67.428 C67.25,67.05 66.634,66.77 66.046,66.77 C65.458,66.77 65.108,67.092 65.108,67.498 L65.108,67.526 C65.108,68.016 65.696,68.268 66.564,68.66 C67.712,69.178 68.58,69.71 68.58,70.872 L68.58,70.886 C68.58,72.342 67.474,73.14 66.046,73.14 Z M75.44,73.14 C74.208,73.14 73.172,72.314 73.172,70.872 L73.172,70.802 C73.172,69.206 74.236,68.422 75.804,68.422 C76.504,68.422 77.008,68.548 77.512,68.716 L77.512,68.408 C77.512,67.414 76.924,66.896 75.916,66.896 C75.202,66.896 74.614,67.12 74.124,67.344 L73.676,66.084 C74.39,65.734 75.132,65.496 76.126,65.496 C77.092,65.496 77.834,65.762 78.31,66.252 C78.8,66.742 79.052,67.47 79.052,68.394 L79.052,73 L77.498,73 L77.498,72.09 C77.064,72.72 76.406,73.14 75.44,73.14 Z M75.916,71.95 C76.826,71.964 77.526,71.348 77.526,70.508 L77.526,69.766 C77.162,69.612 76.686,69.5 76.154,69.5 C75.244,69.5 74.712,69.962 74.712,70.746 L74.712,70.774 C74.712,71.516 75.23,71.936 75.916,71.95 Z M80.76,73 L80.76,65.58 L82.342,65.58 L82.342,66.672 C82.762,66.014 83.364,65.44 84.372,65.44 C85.8,65.44 86.654,66.448 86.654,68.03 L86.654,73 L85.072,73 L85.072,68.478 C85.072,67.442 84.582,66.868 83.742,66.868 C82.916,66.868 82.342,67.484 82.342,68.506 L82.342,73 L80.76,73 Z M90.952,73.14 C89.468,73.14 88.068,71.894 88.068,69.388 L88.068,69.206 C88.068,66.7 89.454,65.44 90.952,65.44 C92.03,65.44 92.674,66.056 93.122,66.7 L93.122,62.892 L94.704,62.892 L94.704,73 L93.122,73 L93.122,71.81 C92.66,72.524 92.016,73.14 90.952,73.14 Z M91.386,71.74 C92.338,71.74 93.15,70.816 93.15,69.36 L93.15,69.22 C93.15,67.764 92.338,66.84 91.386,66.84 C90.42,66.84 89.664,67.736 89.664,69.234 L89.664,69.346 C89.664,70.83 90.434,71.74 91.386,71.74 Z M23.367,89.8000057 L23.367,81.5120057 L20.791,81.5120057 L20.791,80.0000057 L27.567,80.0000057 L27.567,81.5120057 L24.991,81.5120057 L24.991,89.8000057 L23.367,89.8000057 Z M28.127,89.8000057 L28.127,82.3800057 L29.709,82.3800057 L29.709,83.8360057 C30.101,82.8700057 30.815,82.2120057 31.935,82.2680057 L31.935,83.9900057 L31.865,83.9900057 C30.577,83.9900057 29.709,84.8300057 29.709,86.5240057 L29.709,89.8000057 L28.127,89.8000057 Z M34.721,89.9400057 C33.489,89.9400057 32.453,89.1140057 32.453,87.6720057 L32.453,87.6020057 C32.453,86.0060057 33.517,85.2220057 35.085,85.2220057 C35.785,85.2220057 36.289,85.3480057 36.793,85.5160057 L36.793,85.2080057 C36.793,84.2140057 36.205,83.6960057 35.197,83.6960057 C34.483,83.6960057 33.895,83.9200057 33.405,84.1440057 L32.957,82.8840057 C33.671,82.5340057 34.413,82.2960057 35.407,82.2960057 C36.373,82.2960057 37.115,82.5620057 37.591,83.0520057 C38.081,83.5420057 38.333,84.2700057 38.333,85.1940057 L38.333,89.8000057 L36.779,89.8000057 L36.779,88.8900057 C36.345,89.5200057 35.687,89.9400057 34.721,89.9400057 Z M35.197,88.7500057 C36.107,88.7640057 36.807,88.1480057 36.807,87.3080057 L36.807,86.5660057 C36.443,86.4120057 35.967,86.3000057 35.435,86.3000057 C34.525,86.3000057 33.993,86.7620057 33.993,87.5460057 L33.993,87.5740057 C33.993,88.3160057 34.511,88.7360057 35.197,88.7500057 Z M40.069,81.3020057 L40.069,79.7480057 L41.749,79.7480057 L41.749,81.3020057 L40.069,81.3020057 Z M40.125,89.8000057 L40.125,82.3800057 L41.707,82.3800057 L41.707,89.8000057 L40.125,89.8000057 Z M43.583,89.8000057 L43.583,82.3800057 L45.165,82.3800057 L45.165,83.4720057 C45.585,82.8140057 46.187,82.2400057 47.195,82.2400057 C48.623,82.2400057 49.477,83.2480057 49.477,84.8300057 L49.477,89.8000057 L47.895,89.8000057 L47.895,85.2780057 C47.895,84.2420057 47.405,83.6680057 46.565,83.6680057 C45.739,83.6680057 45.165,84.2840057 45.165,85.3060057 L45.165,89.8000057 L43.583,89.8000057 Z M51.227,81.3020057 L51.227,79.7480057 L52.907,79.7480057 L52.907,81.3020057 L51.227,81.3020057 Z M51.283,89.8000057 L51.283,82.3800057 L52.865,82.3800057 L52.865,89.8000057 L51.283,89.8000057 Z M54.741,89.8000057 L54.741,82.3800057 L56.323,82.3800057 L56.323,83.4720057 C56.743,82.8140057 57.345,82.2400057 58.353,82.2400057 C59.781,82.2400057 60.635,83.2480057 60.635,84.8300057 L60.635,89.8000057 L59.053,89.8000057 L59.053,85.2780057 C59.053,84.2420057 58.563,83.6680057 57.723,83.6680057 C56.897,83.6680057 56.323,84.2840057 56.323,85.3060057 L56.323,89.8000057 L54.741,89.8000057 Z M65.171,91.9420057 C64.149,91.9420057 63.211,91.7040057 62.357,91.2420057 L62.875,89.9960057 C63.519,90.3880057 64.303,90.6260057 65.101,90.6260057 C66.403,90.6260057 67.117,89.9820057 67.117,88.6660057 L67.117,87.9520057 C66.599,88.6800057 65.955,89.2540057 64.877,89.2540057 C63.393,89.2540057 62.049,88.0640057 62.049,85.7820057 L62.049,85.7260057 C62.049,83.4300057 63.407,82.2400057 64.877,82.2400057 C65.969,82.2400057 66.627,82.8280057 67.103,83.4860057 L67.103,82.3800057 L68.685,82.3800057 L68.685,88.5960057 C68.685,89.7020057 68.391,90.5140057 67.845,91.0600057 C67.257,91.6620057 66.347,91.9420057 65.171,91.9420057 Z M65.353,87.8820057 C66.305,87.8820057 67.131,87.0560057 67.131,85.7680057 L67.131,85.7400057 C67.131,84.4380057 66.305,83.6260057 65.353,83.6260057 C64.387,83.6260057 63.645,84.4240057 63.645,85.7400057 L63.645,85.7540057 C63.645,87.0700057 64.401,87.8820057 65.353,87.8820057 Z M72.619,89.9400057 C71.737,89.9400057 70.715,89.6180057 69.861,88.9040057 L70.603,87.7700057 C71.275,88.3160057 71.989,88.6380057 72.647,88.6380057 C73.305,88.6380057 73.683,88.2880057 73.683,87.8260057 L73.683,87.8120057 C73.683,87.2800057 73.109,87.0420057 72.227,86.6640057 C71.121,86.1880057 70.197,85.6840057 70.197,84.4660057 L70.197,84.4380057 C70.197,83.1080057 71.261,82.2680057 72.647,82.2680057 C73.473,82.2680057 74.355,82.5620057 75.055,83.0660057 L74.383,84.2280057 C73.823,83.8500057 73.207,83.5700057 72.619,83.5700057 C72.031,83.5700057 71.681,83.8920057 71.681,84.2980057 L71.681,84.3260057 C71.681,84.8160057 72.269,85.0680057 73.137,85.4600057 C74.285,85.9780057 75.153,86.5100057 75.153,87.6720057 L75.153,87.6860057 C75.153,89.1420057 74.047,89.9400057 72.619,89.9400057 Z" id="Workshops-and-Traini" fill="#000000"></path>
                    </g>
                    <g id="Forum" transform="translate(580.000000, 10.000000)">
                        <path d="M2.149,71 L2.149,61.2 L8.295,61.2 L8.295,62.698 L3.773,62.698 L3.773,65.456 L7.777,65.456 L7.777,66.94 L3.773,66.94 L3.773,71 L2.149,71 Z M12.593,71.154 C10.633,71.154 9.191,69.572 9.191,67.374 L9.191,67.248 C9.191,65.064 10.647,63.44 12.621,63.44 C14.581,63.44 16.023,65.036 16.023,67.234 L16.023,67.36 C16.023,69.544 14.567,71.154 12.593,71.154 Z M12.621,69.768 C13.727,69.768 14.441,68.732 14.441,67.346 L14.441,67.262 C14.441,65.876 13.671,64.84 12.593,64.84 C11.487,64.84 10.773,65.862 10.773,67.248 L10.773,67.332 C10.773,68.718 11.543,69.768 12.621,69.768 Z M17.479,71 L17.479,63.58 L19.061,63.58 L19.061,65.036 C19.453,64.07 20.167,63.412 21.287,63.468 L21.287,65.19 L21.217,65.19 C19.929,65.19 19.061,66.03 19.061,67.724 L19.061,71 L17.479,71 Z M24.731,71.14 C23.289,71.14 22.449,70.146 22.449,68.55 L22.449,63.58 L24.031,63.58 L24.031,68.102 C24.031,69.138 24.521,69.712 25.347,69.712 C26.173,69.712 26.747,69.096 26.747,68.074 L26.747,63.58 L28.343,63.58 L28.343,71 L26.747,71 L26.747,69.922 C26.327,70.58 25.739,71.14 24.731,71.14 Z M30.135,71 L30.135,63.58 L31.717,63.58 L31.717,64.658 C32.151,64 32.725,63.44 33.705,63.44 C34.615,63.44 35.273,63.902 35.623,64.63 C36.127,63.958 36.799,63.44 37.793,63.44 C39.165,63.44 40.061,64.35 40.061,66.03 L40.061,71 L38.479,71 L38.479,66.492 C38.479,65.428 38.031,64.868 37.219,64.868 C36.449,64.868 35.889,65.456 35.889,66.506 L35.889,71 L34.307,71 L34.307,66.478 C34.307,65.428 33.845,64.868 33.061,64.868 C32.263,64.868 31.717,65.498 31.717,66.52 L31.717,71 L30.135,71 Z" fill="#000000"></path>
                        <g id="quote-left" fill="#00468B" fill-rule="nonzero">
                            <path d="M36.25,17.5 L30,17.5 L30,12.5 C30,9.7421875 32.2421875,7.5 35,7.5 L35.625,7.5 C36.6640625,7.5 37.5,6.6640625 37.5,5.625 L37.5,1.875 C37.5,0.8359375 36.6640625,0 35.625,0 L35,0 C28.09375,0 22.5,5.59375 22.5,12.5 L22.5,31.25 C22.5,33.3203125 24.1796875,35 26.25,35 L36.25,35 C38.3203125,35 40,33.3203125 40,31.25 L40,21.25 C40,19.1796875 38.3203125,17.5 36.25,17.5 Z M13.75,17.5 L7.5,17.5 L7.5,12.5 C7.5,9.7421875 9.7421875,7.5 12.5,7.5 L13.125,7.5 C14.1640625,7.5 15,6.6640625 15,5.625 L15,1.875 C15,0.8359375 14.1640625,0 13.125,0 L12.5,0 C5.59375,0 0,5.59375 0,12.5 L0,31.25 C0,33.3203125 1.6796875,35 3.75,35 L13.75,35 C15.8203125,35 17.5,33.3203125 17.5,31.25 L17.5,21.25 C17.5,19.1796875 15.8203125,17.5 13.75,17.5 Z" id="Shape"></path>
                        </g>
                    </g>
                    <g id="Breakout-Sessions" transform="translate(366.000000, 8.000000)">
                        <g id="comments" transform="translate(22.000000, 0.000000)" fill="#00468B" fill-rule="nonzero">
                            <path d="M37.3441734,14.2857143 C37.3441734,6.39285714 28.9866192,0 18.6720867,0 C8.3575542,0 0,6.39285714 0,14.2857143 C0,17.3482143 1.26575203,20.1696429 3.41124661,22.5 C2.20833333,25.1964286 0.224424119,27.3392857 0.197493225,27.3660714 C2.39194391e-16,27.5714286 -0.0538617886,27.875 0.0628387534,28.1428571 C0.179539295,28.4107143 0.430894309,28.5714286 0.718157182,28.5714286 C4.00372629,28.5714286 6.72374661,27.4732143 8.68072493,26.3392857 C11.5713076,27.7410714 14.9915312,28.5714286 18.6720867,28.5714286 C28.9866192,28.5714286 37.3441734,22.1785714 37.3441734,14.2857143 Z M48.2960705,33.9285714 C50.441565,31.6071429 51.7073171,28.7767857 51.7073171,25.7142857 C51.7073171,19.7410714 46.9046409,14.625 40.1001016,12.4910714 C40.1808943,13.0803571 40.2168022,13.6785714 40.2168022,14.2857143 C40.2168022,23.7410714 30.5486111,31.4285714 18.6720867,31.4285714 C17.7025745,31.4285714 16.7599932,31.3571429 15.8263889,31.2589286 C18.6541328,36.3928571 25.2970867,40 33.0352304,40 C36.7157859,40 40.1360095,39.1785714 43.0265921,37.7678571 C44.9835705,38.9017857 47.7035908,40 50.9891599,40 C51.2764228,40 51.5367547,39.8303571 51.6444783,39.5714286 C51.7611789,39.3125 51.7073171,39.0089286 51.5098238,38.7946429 C51.482893,38.7678571 49.4989837,36.6339286 48.2960705,33.9285714 Z" id="Shape"></path>
                        </g>
                        <path d="M0.421,73 L0.421,63.2 L3.921,63.2 C4.985,63.2 5.881,63.494 6.427,64.04 C6.861,64.474 7.085,65.02 7.085,65.692 L7.085,65.734 C7.085,66.938 6.385,67.568 5.643,67.932 C6.721,68.31 7.505,68.954 7.505,70.27 L7.505,70.326 C7.505,72.048 6.105,73 4.019,73 L0.421,73 Z M5.461,65.986 L5.461,65.958 C5.461,65.132 4.859,64.656 3.809,64.656 L2.017,64.656 L2.017,67.372 L3.711,67.372 C4.775,67.372 5.461,66.896 5.461,65.986 Z M5.881,70.13 C5.881,69.276 5.223,68.744 3.991,68.744 L2.017,68.744 L2.017,71.544 L4.061,71.544 C5.181,71.544 5.881,71.054 5.881,70.158 L5.881,70.13 Z M8.961,73 L8.961,65.58 L10.543,65.58 L10.543,67.036 C10.935,66.07 11.649,65.412 12.769,65.468 L12.769,67.19 L12.699,67.19 C11.411,67.19 10.543,68.03 10.543,69.724 L10.543,73 L8.961,73 Z M16.815,73.154 C14.911,73.154 13.427,71.698 13.427,69.374 L13.427,69.262 C13.427,67.036 14.771,65.44 16.591,65.44 C18.607,65.44 19.671,67.12 19.671,69.346 C19.671,69.444 19.671,69.668 19.657,69.892 L15.009,69.892 C15.149,71.138 15.919,71.81 16.885,71.81 C17.585,71.81 18.103,71.502 18.593,71.026 L19.419,72.006 C18.747,72.72 17.921,73.154 16.815,73.154 Z M14.995,68.8 L18.131,68.8 C18.047,67.624 17.515,66.77 16.591,66.77 C15.723,66.77 15.107,67.54 14.995,68.8 Z M22.947,73.14 C21.715,73.14 20.679,72.314 20.679,70.872 L20.679,70.802 C20.679,69.206 21.743,68.422 23.311,68.422 C24.011,68.422 24.515,68.548 25.019,68.716 L25.019,68.408 C25.019,67.414 24.431,66.896 23.423,66.896 C22.709,66.896 22.121,67.12 21.631,67.344 L21.183,66.084 C21.897,65.734 22.639,65.496 23.633,65.496 C24.599,65.496 25.341,65.762 25.817,66.252 C26.307,66.742 26.559,67.47 26.559,68.394 L26.559,73 L25.005,73 L25.005,72.09 C24.571,72.72 23.913,73.14 22.947,73.14 Z M23.423,71.95 C24.333,71.964 25.033,71.348 25.033,70.508 L25.033,69.766 C24.669,69.612 24.193,69.5 23.661,69.5 C22.751,69.5 22.219,69.962 22.219,70.746 L22.219,70.774 C22.219,71.516 22.737,71.936 23.423,71.95 Z M28.267,73 L28.267,62.892 L29.849,62.892 L29.849,68.842 L32.383,65.58 L34.259,65.58 L31.795,68.604 L34.329,73 L32.495,73 L30.703,69.822 L29.849,70.858 L29.849,73 L28.267,73 Z M38.179,73.154 C36.219,73.154 34.777,71.572 34.777,69.374 L34.777,69.248 C34.777,67.064 36.233,65.44 38.207,65.44 C40.167,65.44 41.609,67.036 41.609,69.234 L41.609,69.36 C41.609,71.544 40.153,73.154 38.179,73.154 Z M38.207,71.768 C39.313,71.768 40.027,70.732 40.027,69.346 L40.027,69.262 C40.027,67.876 39.257,66.84 38.179,66.84 C37.073,66.84 36.359,67.862 36.359,69.248 L36.359,69.332 C36.359,70.718 37.129,71.768 38.207,71.768 Z M45.277,73.14 C43.835,73.14 42.995,72.146 42.995,70.55 L42.995,65.58 L44.577,65.58 L44.577,70.102 C44.577,71.138 45.067,71.712 45.893,71.712 C46.719,71.712 47.293,71.096 47.293,70.074 L47.293,65.58 L48.889,65.58 L48.889,73 L47.293,73 L47.293,71.922 C46.873,72.58 46.285,73.14 45.277,73.14 Z M52.907,73.112 C51.815,73.112 50.989,72.65 50.989,71.208 L50.989,66.938 L50.177,66.938 L50.177,65.58 L50.989,65.58 L50.989,63.578 L52.571,63.578 L52.571,65.58 L54.237,65.58 L54.237,66.938 L52.571,66.938 L52.571,70.886 C52.571,71.46 52.865,71.698 53.369,71.698 C53.677,71.698 53.957,71.628 54.223,71.488 L54.223,72.79 C53.859,72.986 53.439,73.112 52.907,73.112 Z M62.287,73.126 C61.027,73.126 59.809,72.692 58.745,71.712 L59.725,70.494 C60.453,71.152 61.265,71.656 62.301,71.656 C63.239,71.656 63.841,71.138 63.841,70.41 L63.841,70.396 C63.841,69.78 63.519,69.374 61.965,68.8 C60.103,68.1 59.137,67.414 59.137,65.846 L59.137,65.818 C59.137,64.208 60.425,63.074 62.245,63.074 C63.379,63.074 64.429,63.438 65.325,64.222 L64.401,65.468 C63.729,64.922 62.987,64.544 62.203,64.544 C61.321,64.544 60.775,65.034 60.775,65.678 L60.775,65.692 C60.775,66.378 61.139,66.742 62.805,67.386 C64.625,68.086 65.465,68.842 65.465,70.27 L65.465,70.298 C65.465,72.02 64.121,73.126 62.287,73.126 Z M70.015,73.154 C68.111,73.154 66.627,71.698 66.627,69.374 L66.627,69.262 C66.627,67.036 67.971,65.44 69.791,65.44 C71.807,65.44 72.871,67.12 72.871,69.346 C72.871,69.444 72.871,69.668 72.857,69.892 L68.209,69.892 C68.349,71.138 69.119,71.81 70.085,71.81 C70.785,71.81 71.303,71.502 71.793,71.026 L72.619,72.006 C71.947,72.72 71.121,73.154 70.015,73.154 Z M68.195,68.8 L71.331,68.8 C71.247,67.624 70.715,66.77 69.791,66.77 C68.923,66.77 68.307,67.54 68.195,68.8 Z M76.441,73.14 C75.559,73.14 74.537,72.818 73.683,72.104 L74.425,70.97 C75.097,71.516 75.811,71.838 76.469,71.838 C77.127,71.838 77.505,71.488 77.505,71.026 L77.505,71.012 C77.505,70.48 76.931,70.242 76.049,69.864 C74.943,69.388 74.019,68.884 74.019,67.666 L74.019,67.638 C74.019,66.308 75.083,65.468 76.469,65.468 C77.295,65.468 78.177,65.762 78.877,66.266 L78.205,67.428 C77.645,67.05 77.029,66.77 76.441,66.77 C75.853,66.77 75.503,67.092 75.503,67.498 L75.503,67.526 C75.503,68.016 76.091,68.268 76.959,68.66 C78.107,69.178 78.975,69.71 78.975,70.872 L78.975,70.886 C78.975,72.342 77.869,73.14 76.441,73.14 Z M82.419,73.14 C81.537,73.14 80.515,72.818 79.661,72.104 L80.403,70.97 C81.075,71.516 81.789,71.838 82.447,71.838 C83.105,71.838 83.483,71.488 83.483,71.026 L83.483,71.012 C83.483,70.48 82.909,70.242 82.027,69.864 C80.921,69.388 79.997,68.884 79.997,67.666 L79.997,67.638 C79.997,66.308 81.061,65.468 82.447,65.468 C83.273,65.468 84.155,65.762 84.855,66.266 L84.183,67.428 C83.623,67.05 83.007,66.77 82.419,66.77 C81.831,66.77 81.481,67.092 81.481,67.498 L81.481,67.526 C81.481,68.016 82.069,68.268 82.937,68.66 C84.085,69.178 84.953,69.71 84.953,70.872 L84.953,70.886 C84.953,72.342 83.847,73.14 82.419,73.14 Z M86.381,64.502 L86.381,62.948 L88.061,62.948 L88.061,64.502 L86.381,64.502 Z M86.437,73 L86.437,65.58 L88.019,65.58 L88.019,73 L86.437,73 Z M92.961,73.154 C91.001,73.154 89.559,71.572 89.559,69.374 L89.559,69.248 C89.559,67.064 91.015,65.44 92.989,65.44 C94.949,65.44 96.391,67.036 96.391,69.234 L96.391,69.36 C96.391,71.544 94.935,73.154 92.961,73.154 Z M92.989,71.768 C94.095,71.768 94.809,70.732 94.809,69.346 L94.809,69.262 C94.809,67.876 94.039,66.84 92.961,66.84 C91.855,66.84 91.141,67.862 91.141,69.248 L91.141,69.332 C91.141,70.718 91.911,71.768 92.989,71.768 Z M97.847,73 L97.847,65.58 L99.429,65.58 L99.429,66.672 C99.849,66.014 100.451,65.44 101.459,65.44 C102.887,65.44 103.741,66.448 103.741,68.03 L103.741,73 L102.159,73 L102.159,68.478 C102.159,67.442 101.669,66.868 100.829,66.868 C100.003,66.868 99.429,67.484 99.429,68.506 L99.429,73 L97.847,73 Z M107.605,73.14 C106.723,73.14 105.701,72.818 104.847,72.104 L105.589,70.97 C106.261,71.516 106.975,71.838 107.633,71.838 C108.291,71.838 108.669,71.488 108.669,71.026 L108.669,71.012 C108.669,70.48 108.095,70.242 107.213,69.864 C106.107,69.388 105.183,68.884 105.183,67.666 L105.183,67.638 C105.183,66.308 106.247,65.468 107.633,65.468 C108.459,65.468 109.341,65.762 110.041,66.266 L109.369,67.428 C108.809,67.05 108.193,66.77 107.605,66.77 C107.017,66.77 106.667,67.092 106.667,67.498 L106.667,67.526 C106.667,68.016 107.255,68.268 108.123,68.66 C109.271,69.178 110.139,69.71 110.139,70.872 L110.139,70.886 C110.139,72.342 109.033,73.14 107.605,73.14 Z" fill="#000000"></path>
                    </g>
                    <g id="Keynotes" transform="translate(213.000000, 8.000000)">
                        <path d="M34.5884774,0 L4.91769547,0 C2.20164609,0 0,2.22916667 0,4.97916667 L0,35.0208333 C0,37.7708333 2.20164609,40 4.91769547,40 L34.5884774,40 C37.3045267,40 39.5061728,37.7708333 39.5061728,35.0208333 L39.5061728,4.97916667 C39.5061728,2.22916667 37.3045267,0 34.5884774,0 Z M54.0740741,3.92708333 L42.7983539,11.8020833 L42.7983539,28.1979167 L54.0740741,36.0625 C56.255144,37.5833333 59.2592593,36.03125 59.2592593,33.375 L59.2592593,6.61458333 C59.2592593,3.96875 56.2654321,2.40625 54.0740741,3.92708333 Z" id="Shape" fill="#00468B" fill-rule="nonzero"></path>
                        <path d="M3.798,73 L3.798,63.2 L5.422,63.2 L5.422,68.016 L9.216,63.2 L11.176,63.2 L7.76,67.414 L11.33,73 L9.398,73 L6.64,68.702 L5.422,70.172 L5.422,73 L3.798,73 Z M15.096,73.154 C13.192,73.154 11.708,71.698 11.708,69.374 L11.708,69.262 C11.708,67.036 13.052,65.44 14.872,65.44 C16.888,65.44 17.952,67.12 17.952,69.346 C17.952,69.444 17.952,69.668 17.938,69.892 L13.29,69.892 C13.43,71.138 14.2,71.81 15.166,71.81 C15.866,71.81 16.384,71.502 16.874,71.026 L17.7,72.006 C17.028,72.72 16.202,73.154 15.096,73.154 Z M13.276,68.8 L16.412,68.8 C16.328,67.624 15.796,66.77 14.872,66.77 C14.004,66.77 13.388,67.54 13.276,68.8 Z M21.9,70.97 L23.51,65.58 L25.148,65.58 L22.628,73.112 C22.124,74.61 21.522,75.156 20.43,75.156 C19.884,75.156 19.394,75.016 18.932,74.764 L19.394,73.546 C19.646,73.686 19.954,73.798 20.248,73.798 C20.668,73.798 20.92,73.616 21.144,73.014 L18.498,65.58 L20.178,65.58 L21.9,70.97 Z M26.38,73 L26.38,65.58 L27.962,65.58 L27.962,66.672 C28.382,66.014 28.984,65.44 29.992,65.44 C31.42,65.44 32.274,66.448 32.274,68.03 L32.274,73 L30.692,73 L30.692,68.478 C30.692,67.442 30.202,66.868 29.362,66.868 C28.536,66.868 27.962,67.484 27.962,68.506 L27.962,73 L26.38,73 Z M37.062,73.154 C35.102,73.154 33.66,71.572 33.66,69.374 L33.66,69.248 C33.66,67.064 35.116,65.44 37.09,65.44 C39.05,65.44 40.492,67.036 40.492,69.234 L40.492,69.36 C40.492,71.544 39.036,73.154 37.062,73.154 Z M37.09,71.768 C38.196,71.768 38.91,70.732 38.91,69.346 L38.91,69.262 C38.91,67.876 38.14,66.84 37.062,66.84 C35.956,66.84 35.242,67.862 35.242,69.248 L35.242,69.332 C35.242,70.718 36.012,71.768 37.09,71.768 Z M44.174,73.112 C43.082,73.112 42.256,72.65 42.256,71.208 L42.256,66.938 L41.444,66.938 L41.444,65.58 L42.256,65.58 L42.256,63.578 L43.838,63.578 L43.838,65.58 L45.504,65.58 L45.504,66.938 L43.838,66.938 L43.838,70.886 C43.838,71.46 44.132,71.698 44.636,71.698 C44.944,71.698 45.224,71.628 45.49,71.488 L45.49,72.79 C45.126,72.986 44.706,73.112 44.174,73.112 Z M49.802,73.154 C47.898,73.154 46.414,71.698 46.414,69.374 L46.414,69.262 C46.414,67.036 47.758,65.44 49.578,65.44 C51.594,65.44 52.658,67.12 52.658,69.346 C52.658,69.444 52.658,69.668 52.644,69.892 L47.996,69.892 C48.136,71.138 48.906,71.81 49.872,71.81 C50.572,71.81 51.09,71.502 51.58,71.026 L52.406,72.006 C51.734,72.72 50.908,73.154 49.802,73.154 Z M47.982,68.8 L51.118,68.8 C51.034,67.624 50.502,66.77 49.578,66.77 C48.71,66.77 48.094,67.54 47.982,68.8 Z M56.228,73.14 C55.346,73.14 54.324,72.818 53.47,72.104 L54.212,70.97 C54.884,71.516 55.598,71.838 56.256,71.838 C56.914,71.838 57.292,71.488 57.292,71.026 L57.292,71.012 C57.292,70.48 56.718,70.242 55.836,69.864 C54.73,69.388 53.806,68.884 53.806,67.666 L53.806,67.638 C53.806,66.308 54.87,65.468 56.256,65.468 C57.082,65.468 57.964,65.762 58.664,66.266 L57.992,67.428 C57.432,67.05 56.816,66.77 56.228,66.77 C55.64,66.77 55.29,67.092 55.29,67.498 L55.29,67.526 C55.29,68.016 55.878,68.268 56.746,68.66 C57.894,69.178 58.762,69.71 58.762,70.872 L58.762,70.886 C58.762,72.342 57.656,73.14 56.228,73.14 Z" fill="#000000"></path>
                    </g>
                    <g id="UI" transform="translate(0.000000, 8.000000)">
                        <path d="M5.012,73.154 C2.464,73.154 0.686,71.082 0.686,68.184 L0.686,68.044 C0.686,65.132 2.478,63.046 5.04,63.046 C7.588,63.046 9.366,65.118 9.366,68.016 L9.366,68.156 C9.366,71.068 7.574,73.154 5.012,73.154 Z M5.04,71.656 C6.58,71.656 7.686,70.27 7.686,68.156 L7.686,68.058 C7.686,65.958 6.566,64.544 5.012,64.544 C3.472,64.544 2.366,65.93 2.366,68.044 L2.366,68.142 C2.366,70.242 3.5,71.656 5.04,71.656 Z M10.962,75.114 L10.962,65.58 L12.544,65.58 L12.544,66.77 C13.006,66.056 13.65,65.44 14.714,65.44 C16.198,65.44 17.598,66.686 17.598,69.192 L17.598,69.388 C17.598,71.88 16.212,73.14 14.714,73.14 C13.636,73.14 12.992,72.538 12.544,71.88 L12.544,75.114 L10.962,75.114 Z M14.28,71.74 C15.246,71.74 16.002,70.844 16.002,69.36 L16.002,69.234 C16.002,67.75 15.232,66.84 14.28,66.84 C13.328,66.84 12.516,67.764 12.516,69.22 L12.516,69.36 C12.516,70.816 13.328,71.74 14.28,71.74 Z M22.134,73.154 C20.23,73.154 18.746,71.698 18.746,69.374 L18.746,69.262 C18.746,67.036 20.09,65.44 21.91,65.44 C23.926,65.44 24.99,67.12 24.99,69.346 C24.99,69.444 24.99,69.668 24.976,69.892 L20.328,69.892 C20.468,71.138 21.238,71.81 22.204,71.81 C22.904,71.81 23.422,71.502 23.912,71.026 L24.738,72.006 C24.066,72.72 23.24,73.154 22.134,73.154 Z M20.314,68.8 L23.45,68.8 C23.366,67.624 22.834,66.77 21.91,66.77 C21.042,66.77 20.426,67.54 20.314,68.8 Z M26.418,73 L26.418,65.58 L28,65.58 L28,66.672 C28.42,66.014 29.022,65.44 30.03,65.44 C31.458,65.44 32.312,66.448 32.312,68.03 L32.312,73 L30.73,73 L30.73,68.478 C30.73,67.442 30.24,66.868 29.4,66.868 C28.574,66.868 28,67.484 28,68.506 L28,73 L26.418,73 Z M37.044,73.126 C35.784,73.126 34.566,72.692 33.502,71.712 L34.482,70.494 C35.21,71.152 36.022,71.656 37.058,71.656 C37.996,71.656 38.598,71.138 38.598,70.41 L38.598,70.396 C38.598,69.78 38.276,69.374 36.722,68.8 C34.86,68.1 33.894,67.414 33.894,65.846 L33.894,65.818 C33.894,64.208 35.182,63.074 37.002,63.074 C38.136,63.074 39.186,63.438 40.082,64.222 L39.158,65.468 C38.486,64.922 37.744,64.544 36.96,64.544 C36.078,64.544 35.532,65.034 35.532,65.678 L35.532,65.692 C35.532,66.378 35.896,66.742 37.562,67.386 C39.382,68.086 40.222,68.842 40.222,70.27 L40.222,70.298 C40.222,72.02 38.878,73.126 37.044,73.126 Z M43.904,73.112 C42.812,73.112 41.986,72.65 41.986,71.208 L41.986,66.938 L41.174,66.938 L41.174,65.58 L41.986,65.58 L41.986,63.578 L43.568,63.578 L43.568,65.58 L45.234,65.58 L45.234,66.938 L43.568,66.938 L43.568,70.886 C43.568,71.46 43.862,71.698 44.366,71.698 C44.674,71.698 44.954,71.628 45.22,71.488 L45.22,72.79 C44.856,72.986 44.436,73.112 43.904,73.112 Z M48.51,73.14 C47.278,73.14 46.242,72.314 46.242,70.872 L46.242,70.802 C46.242,69.206 47.306,68.422 48.874,68.422 C49.574,68.422 50.078,68.548 50.582,68.716 L50.582,68.408 C50.582,67.414 49.994,66.896 48.986,66.896 C48.272,66.896 47.684,67.12 47.194,67.344 L46.746,66.084 C47.46,65.734 48.202,65.496 49.196,65.496 C50.162,65.496 50.904,65.762 51.38,66.252 C51.87,66.742 52.122,67.47 52.122,68.394 L52.122,73 L50.568,73 L50.568,72.09 C50.134,72.72 49.476,73.14 48.51,73.14 Z M48.986,71.95 C49.896,71.964 50.596,71.348 50.596,70.508 L50.596,69.766 C50.232,69.612 49.756,69.5 49.224,69.5 C48.314,69.5 47.782,69.962 47.782,70.746 L47.782,70.774 C47.782,71.516 48.3,71.936 48.986,71.95 Z M56.826,73.154 C54.894,73.154 53.494,71.6 53.494,69.388 L53.494,69.248 C53.494,67.036 54.936,65.44 56.882,65.44 C57.946,65.44 58.646,65.832 59.262,66.448 L58.38,67.61 C57.988,67.204 57.554,66.868 56.882,66.868 C55.846,66.868 55.09,67.862 55.09,69.262 L55.09,69.332 C55.09,70.774 55.846,71.74 56.924,71.74 C57.568,71.74 58.002,71.418 58.436,70.984 L59.29,72.034 C58.702,72.692 57.96,73.154 56.826,73.154 Z M60.564,73 L60.564,62.892 L62.146,62.892 L62.146,68.842 L64.68,65.58 L66.556,65.58 L64.092,68.604 L66.626,73 L64.792,73 L63,69.822 L62.146,70.858 L62.146,73 L60.564,73 Z M74.97,73.154 C72.786,73.154 71.344,71.824 71.344,69.262 L71.344,63.2 L72.968,63.2 L72.968,69.248 C72.968,70.83 73.738,71.656 74.998,71.656 C76.23,71.656 77.014,70.858 77.014,69.304 L77.014,63.2 L78.624,63.2 L78.624,69.206 C78.624,71.838 77.182,73.154 74.97,73.154 Z M80.472,75.114 L80.472,65.58 L82.054,65.58 L82.054,66.77 C82.516,66.056 83.16,65.44 84.224,65.44 C85.708,65.44 87.108,66.686 87.108,69.192 L87.108,69.388 C87.108,71.88 85.722,73.14 84.224,73.14 C83.146,73.14 82.502,72.538 82.054,71.88 L82.054,75.114 L80.472,75.114 Z M83.79,71.74 C84.756,71.74 85.512,70.844 85.512,69.36 L85.512,69.234 C85.512,67.75 84.742,66.84 83.79,66.84 C82.838,66.84 82.026,67.764 82.026,69.22 L82.026,69.36 C82.026,70.816 82.838,71.74 83.79,71.74 Z M90.734,73.14 C89.852,73.14 88.83,72.818 87.976,72.104 L88.718,70.97 C89.39,71.516 90.104,71.838 90.762,71.838 C91.42,71.838 91.798,71.488 91.798,71.026 L91.798,71.012 C91.798,70.48 91.224,70.242 90.342,69.864 C89.236,69.388 88.312,68.884 88.312,67.666 L88.312,67.638 C88.312,66.308 89.376,65.468 90.762,65.468 C91.588,65.468 92.47,65.762 93.17,66.266 L92.498,67.428 C91.938,67.05 91.322,66.77 90.734,66.77 C90.146,66.77 89.796,67.092 89.796,67.498 L89.796,67.526 C89.796,68.016 90.384,68.268 91.252,68.66 C92.4,69.178 93.268,69.71 93.268,70.872 L93.268,70.886 C93.268,72.342 92.162,73.14 90.734,73.14 Z M96.782,73.112 C95.69,73.112 94.864,72.65 94.864,71.208 L94.864,66.938 L94.052,66.938 L94.052,65.58 L94.864,65.58 L94.864,63.578 L96.446,63.578 L96.446,65.58 L98.112,65.58 L98.112,66.938 L96.446,66.938 L96.446,70.886 C96.446,71.46 96.74,71.698 97.244,71.698 C97.552,71.698 97.832,71.628 98.098,71.488 L98.098,72.79 C97.734,72.986 97.314,73.112 96.782,73.112 Z M99.54,73 L99.54,65.58 L101.122,65.58 L101.122,67.036 C101.514,66.07 102.228,65.412 103.348,65.468 L103.348,67.19 L103.278,67.19 C101.99,67.19 101.122,68.03 101.122,69.724 L101.122,73 L99.54,73 Z M107.394,73.154 C105.49,73.154 104.006,71.698 104.006,69.374 L104.006,69.262 C104.006,67.036 105.35,65.44 107.17,65.44 C109.186,65.44 110.25,67.12 110.25,69.346 C110.25,69.444 110.25,69.668 110.236,69.892 L105.588,69.892 C105.728,71.138 106.498,71.81 107.464,71.81 C108.164,71.81 108.682,71.502 109.172,71.026 L109.998,72.006 C109.326,72.72 108.5,73.154 107.394,73.154 Z M105.574,68.8 L108.71,68.8 C108.626,67.624 108.094,66.77 107.17,66.77 C106.302,66.77 105.686,67.54 105.574,68.8 Z M113.526,73.14 C112.294,73.14 111.258,72.314 111.258,70.872 L111.258,70.802 C111.258,69.206 112.322,68.422 113.89,68.422 C114.59,68.422 115.094,68.548 115.598,68.716 L115.598,68.408 C115.598,67.414 115.01,66.896 114.002,66.896 C113.288,66.896 112.7,67.12 112.21,67.344 L111.762,66.084 C112.476,65.734 113.218,65.496 114.212,65.496 C115.178,65.496 115.92,65.762 116.396,66.252 C116.886,66.742 117.138,67.47 117.138,68.394 L117.138,73 L115.584,73 L115.584,72.09 C115.15,72.72 114.492,73.14 113.526,73.14 Z M114.002,71.95 C114.912,71.964 115.612,71.348 115.612,70.508 L115.612,69.766 C115.248,69.612 114.772,69.5 114.24,69.5 C113.33,69.5 112.798,69.962 112.798,70.746 L112.798,70.774 C112.798,71.516 113.316,71.936 114.002,71.95 Z M118.846,73 L118.846,65.58 L120.428,65.58 L120.428,66.658 C120.862,66 121.436,65.44 122.416,65.44 C123.326,65.44 123.984,65.902 124.334,66.63 C124.838,65.958 125.51,65.44 126.504,65.44 C127.876,65.44 128.772,66.35 128.772,68.03 L128.772,73 L127.19,73 L127.19,68.492 C127.19,67.428 126.742,66.868 125.93,66.868 C125.16,66.868 124.6,67.456 124.6,68.506 L124.6,73 L123.018,73 L123.018,68.478 C123.018,67.428 122.556,66.868 121.772,66.868 C120.974,66.868 120.428,67.498 120.428,68.52 L120.428,73 L118.846,73 Z M38.773,89.8000057 L38.773,80.0000057 L40.397,80.0000057 L40.397,89.8000057 L38.773,89.8000057 Z M42.427,89.8000057 L42.427,82.3800057 L44.009,82.3800057 L44.009,83.4720057 C44.429,82.8140057 45.031,82.2400057 46.039,82.2400057 C47.467,82.2400057 48.321,83.2480057 48.321,84.8300057 L48.321,89.8000057 L46.739,89.8000057 L46.739,85.2780057 C46.739,84.2420057 46.249,83.6680057 45.409,83.6680057 C44.583,83.6680057 44.009,84.2840057 44.009,85.3060057 L44.009,89.8000057 L42.427,89.8000057 Z M52.185,89.9400057 C51.303,89.9400057 50.281,89.6180057 49.427,88.9040057 L50.169,87.7700057 C50.841,88.3160057 51.555,88.6380057 52.213,88.6380057 C52.871,88.6380057 53.249,88.2880057 53.249,87.8260057 L53.249,87.8120057 C53.249,87.2800057 52.675,87.0420057 51.793,86.6640057 C50.687,86.1880057 49.763,85.6840057 49.763,84.4660057 L49.763,84.4380057 C49.763,83.1080057 50.827,82.2680057 52.213,82.2680057 C53.039,82.2680057 53.921,82.5620057 54.621,83.0660057 L53.949,84.2280057 C53.389,83.8500057 52.773,83.5700057 52.185,83.5700057 C51.597,83.5700057 51.247,83.8920057 51.247,84.2980057 L51.247,84.3260057 C51.247,84.8160057 51.835,85.0680057 52.703,85.4600057 C53.851,85.9780057 54.719,86.5100057 54.719,87.6720057 L54.719,87.6860057 C54.719,89.1420057 53.613,89.9400057 52.185,89.9400057 Z M58.233,89.9120057 C57.141,89.9120057 56.315,89.4500057 56.315,88.0080057 L56.315,83.7380057 L55.503,83.7380057 L55.503,82.3800057 L56.315,82.3800057 L56.315,80.3780057 L57.897,80.3780057 L57.897,82.3800057 L59.563,82.3800057 L59.563,83.7380057 L57.897,83.7380057 L57.897,87.6860057 C57.897,88.2600057 58.191,88.4980057 58.695,88.4980057 C59.003,88.4980057 59.283,88.4280057 59.549,88.2880057 L59.549,89.5900057 C59.185,89.7860057 58.765,89.9120057 58.233,89.9120057 Z M61.019,81.3020057 L61.019,79.7480057 L62.699,79.7480057 L62.699,81.3020057 L61.019,81.3020057 Z M61.075,89.8000057 L61.075,82.3800057 L62.657,82.3800057 L62.657,89.8000057 L61.075,89.8000057 Z M66.759,89.9120057 C65.667,89.9120057 64.841,89.4500057 64.841,88.0080057 L64.841,83.7380057 L64.029,83.7380057 L64.029,82.3800057 L64.841,82.3800057 L64.841,80.3780057 L66.423,80.3780057 L66.423,82.3800057 L68.089,82.3800057 L68.089,83.7380057 L66.423,83.7380057 L66.423,87.6860057 C66.423,88.2600057 66.717,88.4980057 67.221,88.4980057 C67.529,88.4980057 67.809,88.4280057 68.075,88.2880057 L68.075,89.5900057 C67.711,89.7860057 67.291,89.9120057 66.759,89.9120057 Z M71.729,89.9400057 C70.287,89.9400057 69.447,88.9460057 69.447,87.3500057 L69.447,82.3800057 L71.029,82.3800057 L71.029,86.9020057 C71.029,87.9380057 71.519,88.5120057 72.345,88.5120057 C73.171,88.5120057 73.745,87.8960057 73.745,86.8740057 L73.745,82.3800057 L75.341,82.3800057 L75.341,89.8000057 L73.745,89.8000057 L73.745,88.7220057 C73.325,89.3800057 72.737,89.9400057 71.729,89.9400057 Z M79.359,89.9120057 C78.267,89.9120057 77.441,89.4500057 77.441,88.0080057 L77.441,83.7380057 L76.629,83.7380057 L76.629,82.3800057 L77.441,82.3800057 L77.441,80.3780057 L79.023,80.3780057 L79.023,82.3800057 L80.689,82.3800057 L80.689,83.7380057 L79.023,83.7380057 L79.023,87.6860057 C79.023,88.2600057 79.317,88.4980057 79.821,88.4980057 C80.129,88.4980057 80.409,88.4280057 80.675,88.2880057 L80.675,89.5900057 C80.311,89.7860057 79.891,89.9120057 79.359,89.9120057 Z M84.987,89.9540057 C83.083,89.9540057 81.599,88.4980057 81.599,86.1740057 L81.599,86.0620057 C81.599,83.8360057 82.943,82.2400057 84.763,82.2400057 C86.779,82.2400057 87.843,83.9200057 87.843,86.1460057 C87.843,86.2440057 87.843,86.4680057 87.829,86.6920057 L83.181,86.6920057 C83.321,87.9380057 84.091,88.6100057 85.057,88.6100057 C85.757,88.6100057 86.275,88.3020057 86.765,87.8260057 L87.591,88.8060057 C86.919,89.5200057 86.093,89.9540057 84.987,89.9540057 Z M83.167,85.6000057 L86.303,85.6000057 C86.219,84.4240057 85.687,83.5700057 84.763,83.5700057 C83.895,83.5700057 83.279,84.3400057 83.167,85.6000057 Z" id="OpenStack-Upstream-I" fill="#000000"></path>
                        <g id="graduation-cap" transform="translate(40.000000, 0.000000)" fill="#00468B" fill-rule="nonzero">
                            <path d="M64.8268157,9.29186659 L35.7704522,0.364841375 C34.1871127,-0.121613792 32.4787727,-0.121613792 30.8964749,0.364841375 L1.83906968,9.29186659 C-0.613023228,10.0449867 -0.613023228,13.2876739 1.83906968,14.040794 L6.90471447,15.5970339 C5.7932518,16.9709833 5.10991579,18.647014 5.0422072,20.4824187 C4.03907828,21.057415 3.33282552,22.0949082 3.33282552,23.3334418 C3.33282552,24.4563512 3.9244945,25.4011367 4.77658116,26.0052994 L2.11719577,37.9718882 C1.88594487,39.0125064 2.67761463,40 3.74324379,40 L9.58805829,40 C10.6547291,40 11.4463989,39.0125064 11.215148,37.9718882 L8.55576259,26.0052994 C9.40784925,25.4011367 9.99951823,24.4563512 9.99951823,23.3334418 C9.99951823,22.1282414 9.32555726,21.1199146 8.36826186,20.5345017 C8.44742883,18.9699286 9.24743196,17.5866043 10.5234786,16.7095266 L30.8954332,22.9688609 C31.8391869,23.2584423 33.6496106,23.6198983 35.7694106,22.9688609 L64.8268157,14.0418357 C67.2799503,13.2876739 67.2799503,10.0460283 64.8268157,9.29186659 Z M36.748581,26.1552985 C33.7766944,27.0677925 31.2443929,26.5636291 29.9162627,26.1552985 L14.8099537,21.5147037 L13.3328646,33.3333767 C13.3328646,37.0156444 22.2870662,40 33.3329427,40 C44.3788192,40 53.3330208,37.0156444 53.3330208,33.3333767 L51.8559317,21.513662 L36.748581,26.1552985 Z" id="Shape"></path>
                        </g>
                    </g>
                </g>
            </g>
        </g>
    </g>
</svg>