<?xml version="1.0" encoding="UTF-8"?>
<svg width="1176px" height="203px" viewBox="0 0 1176 203" version="1.1" xmlns="http://www.w3.org/2000/svg" xmlns:xlink="http://www.w3.org/1999/xlink">
    <!-- Generator: Sketch 51.3 (57544) - http://www.bohemiancoding.com/sketch -->
    <title>Timeline</title>
    <desc>Created with Sketch.</desc>
    <defs></defs>
    <g id="Page-1" stroke="none" stroke-width="1" fill="none" fill-rule="evenodd">
        <g id="Summit_Homepage" transform="translate(-119.000000, -2629.000000)">
            <g id="Timeline" transform="translate(103.000000, 2548.000000)">
                <g transform="translate(0.000000, 81.000000)">
                    <text id="Pre-Summit" font-family="GothamNarrow-Book, Gotham Narrow" font-size="14" font-style="condensed" font-weight="300" fill="#4A4A4A">
                        <tspan x="45.695" y="202">Pre-Summit</tspan>
                    </text>
                    <text id="Post-Summit" font-family="GothamNarrow-Book, Gotham Narrow" font-size="14" font-style="condensed" font-weight="300" fill="#4A4A4A">
                        <tspan x="1114.398" y="202">Post-Summit</tspan>
                    </text>
                    <g id="Group-8" transform="translate(1144.000000, 161.000000)" fill-rule="nonzero" stroke="#4A4A4A" stroke-linecap="square" stroke-width="2">
                        <path d="M1,10.5 L18,10.5" id="Line-2"></path>
                        <path d="M0.25,0.5 L0.25,10.5" id="Line-3"></path>
                        <path d="M18.0142831,0.5 L18.0142831,10" id="Line-3-Copy"></path>
                        <path d="M9.25,11.5 L9.25,21.5" id="Line-3-Copy-2"></path>
                    </g>
                    <g id="Group-43-Copy-2" transform="translate(72.000000, 161.000000)"></g>
                    <text id="Summit" font-family="GothamNarrow-Book, Gotham Narrow" font-size="14" font-style="condensed" font-weight="300" fill="#4A4A4A">
                        <tspan x="594.225" y="202">Summit</tspan>
                    </text>
                    <g id="Group-45" transform="translate(260.000000, 161.000000)" fill-rule="nonzero" stroke="#4A4A4A" stroke-linecap="square" stroke-width="2">
                        <path d="M1,10.5 L714,10.5" id="Line-2"></path>
                        <path d="M0.25,0.5 L0.25,10.5" id="Line-3"></path>
                        <path d="M714.25,0.5 L714.25,10.5" id="Line-3-Copy"></path>
                        <path d="M357.25,11.5 L357.25,21.5" id="Line-3-Copy-2"></path>
                    </g>
                    <path d="M82,138.25 L1153,138.25" id="Line" stroke="#00468B" stroke-width="4" stroke-linecap="square" fill-rule="nonzero"></path>
                    <g id="Group-4" transform="translate(71.000000, 128.000000)" fill="#00468B" fill-rule="nonzero">
                        <circle id="Oval" cx="10" cy="10" r="10"></circle>
                        <circle id="Oval-Copy" cx="189" cy="10" r="10"></circle>
                        <circle id="Oval-Copy-2" cx="367" cy="10" r="10"></circle>
                        <circle id="Oval-Copy-3" cx="546" cy="10" r="10"></circle>
                        <circle id="Oval-Copy-4" cx="725" cy="10" r="10"></circle>
                        <circle id="Oval-Copy-5" cx="903" cy="10" r="10"></circle>
                        <circle id="Oval-Copy-6" cx="1082" cy="10" r="10"></circle>
                    </g>
                    <g id="Group-8" transform="translate(72.000000, 161.000000)" fill-rule="nonzero" stroke="#4A4A4A" stroke-linecap="square" stroke-width="2">
                        <path d="M1,10.5 L18,10.5" id="Line-2"></path>
                        <path d="M0.25,0.5 L0.25,10.5" id="Line-3"></path>
                        <path d="M18.0142831,0.5 L18.0142831,10" id="Line-3-Copy"></path>
                        <path d="M9.25,11.5 L9.25,21.5" id="Line-3-Copy-2"></path>
                    </g>
                    <g id="PTG" transform="translate(1082.000000, 0.000000)">
                        <text font-family="GothamNarrow-Medium, Gotham Narrow" font-size="14" font-style="condensed" font-weight="400" fill="#000000">
                            <tspan x="58.645" y="81">PTG</tspan>
                        </text>
                        <g id="code-branch" transform="translate(53.000000, 0.000000)" fill="#00468B" fill-rule="nonzero">
                            <path d="M40,15.2027027 C40,10.5363176 36.2708333,6.75675676 31.6666667,6.75675676 C27.0625,6.75675676 23.3333333,10.5363176 23.3333333,15.2027027 C23.3333333,19.0456081 25.8645833,22.2867399 29.3229167,23.3108108 C29.2604167,25.0105574 28.8854167,26.3196791 28.1770833,27.2065034 C26.5729167,29.2335304 23.0416667,29.5713682 19.3020833,29.9197635 C16.3645833,30.1942568 13.3229167,30.4898649 10.8333333,31.7039696 L10.8333333,16.5012669 C14.21875,15.4244088 16.6666667,12.2255068 16.6666667,8.44594595 C16.6666667,3.77956081 12.9375,0 8.33333333,0 C3.72916667,0 0,3.77956081 0,8.44594595 C0,12.2255068 2.44791667,15.4244088 5.83333333,16.5012669 L5.83333333,37.5422297 C2.44791667,38.6296453 0,41.8285473 0,45.6081081 C0,50.2744932 3.72916667,54.0540541 8.33333333,54.0540541 C12.9375,54.0540541 16.6666667,50.2744932 16.6666667,45.6081081 C16.6666667,42.0185811 14.4583333,38.9463682 11.3333333,37.7322635 C11.65625,37.183277 12.1458333,36.6976351 12.8854167,36.3175676 C14.5729167,35.4518581 17.09375,35.2195946 19.7708333,34.9662162 C24.1666667,34.5544764 29.1458333,34.0793919 32.0833333,30.3842905 C33.5416667,28.5472973 34.28125,26.1824324 34.3333333,23.2157939 C37.625,22.0755912 40,18.9189189 40,15.2027027 Z M8.33333333,6.75675676 C9.25,6.75675676 10,7.51689189 10,8.44594595 C10,9.375 9.25,10.1351351 8.33333333,10.1351351 C7.41666667,10.1351351 6.66666667,9.375 6.66666667,8.44594595 C6.66666667,7.51689189 7.41666667,6.75675676 8.33333333,6.75675676 Z M8.33333333,47.2972973 C7.41666667,47.2972973 6.66666667,46.5371622 6.66666667,45.6081081 C6.66666667,44.6790541 7.41666667,43.9189189 8.33333333,43.9189189 C9.25,43.9189189 10,44.6790541 10,45.6081081 C10,46.5371622 9.25,47.2972973 8.33333333,47.2972973 Z M31.6666667,13.5135135 C32.5833333,13.5135135 33.3333333,14.2736486 33.3333333,15.2027027 C33.3333333,16.1317568 32.5833333,16.8918919 31.6666667,16.8918919 C30.75,16.8918919 30,16.1317568 30,15.2027027 C30,14.2736486 30.75,13.5135135 31.6666667,13.5135135 Z" id="Shape"></path>
                        </g>
                    </g>
                    <g id="OI-Marketplace" transform="translate(904.000000, 8.000000)">
                        <g id="handshake" transform="translate(37.000000, 0.000000)" fill="#00468B" fill-rule="nonzero">
                            <path d="M44.9982422,0 L36.10625,0 C35.278125,0 34.4810547,0.312386687 33.8703125,0.874682724 L23.6947266,10.2462833 C23.684375,10.2566962 23.6740234,10.277522 23.6636719,10.2879349 C21.9453125,11.9123457 21.9763672,14.5051552 23.4462891,16.1191531 C24.7609375,17.5665447 27.5248047,17.9518216 29.2535156,16.4003011 C29.2638672,16.3898882 29.2845703,16.3898882 29.2949219,16.3794753 L37.5658203,8.75724013 C38.2386719,8.14287965 39.2945312,8.1845312 39.9052734,8.86136903 C40.5263672,9.53820685 40.4746094,10.5899087 39.8017578,11.2146821 L37.1,13.7033627 L52.171875,26.0113982 C52.4720703,26.2613075 52.7412109,26.5320426 52.9896484,26.8131907 L52.9896484,6.66424933 L47.3376953,0.97881162 C46.7269531,0.354038245 45.878125,0 44.9982422,0 Z M56.3125,6.68507511 L56.3125,29.9995349 C56.3125,31.8426163 57.7927734,33.3316595 59.625,33.3316595 L66.25,33.3316595 L66.25,6.68507511 L56.3125,6.68507511 Z M61.28125,29.9995349 C60.3703125,29.9995349 59.625,29.2498068 59.625,28.3334725 C59.625,27.4171382 60.3703125,26.6674102 61.28125,26.6674102 C62.1921875,26.6674102 62.9375,27.4171382 62.9375,28.3334725 C62.9375,29.2498068 62.1921875,29.9995349 61.28125,29.9995349 Z M0,33.3212466 L6.625,33.3212466 C8.45722656,33.3212466 9.9375,31.8322034 9.9375,29.989122 L9.9375,6.68507511 L0,6.68507511 L0,33.3212466 Z M4.96875,26.6674102 C5.8796875,26.6674102 6.625,27.4171382 6.625,28.3334725 C6.625,29.2498068 5.8796875,29.9995349 4.96875,29.9995349 C4.0578125,29.9995349 3.3125,29.2498068 3.3125,28.3334725 C3.3125,27.4067254 4.0578125,26.6674102 4.96875,26.6674102 Z M50.0912109,28.6042077 L34.6363281,15.9837855 L31.5308594,18.8473301 C28.4564453,21.6692232 23.7464844,21.3984881 21.0033203,18.389163 C18.21875,15.3277735 18.4361328,10.5899087 21.4587891,7.79925429 L29.9263672,0 L21.2517578,0 C20.371875,0 19.5333984,0.354038245 18.9123047,0.97881162 L13.25,6.66424933 L13.25,29.9787091 L15.1443359,29.9787091 L24.5125,38.5068656 C27.3488281,40.82894 31.5205078,40.3915987 33.8289062,37.5384669 L33.8496094,37.5176411 L35.7025391,39.131639 C37.3484375,40.4853147 39.7810547,40.2249924 41.1164062,38.569343 L44.3667969,34.5499676 L44.9257812,35.0081347 C46.3439453,36.1639655 48.4349609,35.9557077 49.5839844,34.5187289 L50.5673828,33.3004209 C51.7267578,31.8634421 51.509375,29.7704513 50.0912109,28.6042077 Z" id="Shape"></path>
                        </g>
                        <text id="Open-Infrastructure" font-family="GothamNarrow-Medium, Gotham Narrow" font-size="14" font-style="condensed" font-weight="400" fill="#000000">
                            <tspan x="11.087" y="73">Open Infrastructure </tspan>
                            <tspan x="33.697" y="89.8000057">Marketplace </tspan>
                        </text>
                    </g>
                    <g id="Workshops" transform="translate(746.000000, 8.000000)">
                        <path d="M32.5714286,17.1428571 C35.7232143,17.1428571 38.2857143,14.5803571 38.2857143,11.4285714 C38.2857143,8.27678571 35.7232143,5.71428571 32.5714286,5.71428571 C29.4196429,5.71428571 26.8571429,8.27678571 26.8571429,11.4285714 C26.8571429,14.5803571 29.4196429,17.1428571 32.5714286,17.1428571 Z M72.5714286,17.1428571 C75.7232143,17.1428571 78.2857143,14.5803571 78.2857143,11.4285714 C78.2857143,8.27678571 75.7232143,5.71428571 72.5714286,5.71428571 C69.4196429,5.71428571 66.8571429,8.27678571 66.8571429,11.4285714 C66.8571429,14.5803571 69.4196429,17.1428571 72.5714286,17.1428571 Z M75.4285714,20 L69.7142857,20 C68.1428571,20 66.7232143,20.6339286 65.6875,21.6607143 C69.2857143,23.6339286 71.8392857,27.1964286 72.3928571,31.4285714 L78.2857143,31.4285714 C79.8660714,31.4285714 81.1428571,30.1517857 81.1428571,28.5714286 L81.1428571,25.7142857 C81.1428571,22.5625 78.5803571,20 75.4285714,20 Z M52.5714286,20 C58.0982143,20 62.5714286,15.5267857 62.5714286,10 C62.5714286,4.47321429 58.0982143,0 52.5714286,0 C47.0446429,0 42.5714286,4.47321429 42.5714286,10 C42.5714286,15.5267857 47.0446429,20 52.5714286,20 Z M59.4285714,22.8571429 L58.6875,22.8571429 C56.8303571,23.75 54.7678571,24.2857143 52.5714286,24.2857143 C50.375,24.2857143 48.3214286,23.75 46.4553571,22.8571429 L45.7142857,22.8571429 C40.0357143,22.8571429 35.4285714,27.4642857 35.4285714,33.1428571 L35.4285714,35.7142857 C35.4285714,38.0803571 37.3482143,40 39.7142857,40 L65.4285714,40 C67.7946429,40 69.7142857,38.0803571 69.7142857,35.7142857 L69.7142857,33.1428571 C69.7142857,27.4642857 65.1071429,22.8571429 59.4285714,22.8571429 Z M39.4553571,21.6607143 C38.4196429,20.6339286 37,20 35.4285714,20 L29.7142857,20 C26.5625,20 24,22.5625 24,25.7142857 L24,28.5714286 C24,30.1517857 25.2767857,31.4285714 26.8571429,31.4285714 L32.7410714,31.4285714 C33.3035714,27.1964286 35.8571429,23.6339286 39.4553571,21.6607143 Z" id="Shape" fill="#00468B" fill-rule="nonzero"></path>
                        <text id="Workshops-and-Traini" font-family="GothamNarrow-Medium, Gotham Narrow" font-size="14" font-style="condensed" font-weight="400" fill="#000000">
                            <tspan x="1.4" y="73">Workshops and </tspan>
                            <tspan x="21.343" y="89.8000057">Trainings</tspan>
                        </text>
                    </g>
                    <g id="Forum" transform="translate(568.000000, 10.000000)">
                        <text font-family="GothamNarrow-Medium, Gotham Narrow" font-size="14" font-style="condensed" font-weight="400" fill="#000000">
                            <tspan x="29.085" y="71">Forum</tspan>
                        </text>
                        <g id="quote-left" transform="translate(28.000000, 0.000000)" fill="#00468B" fill-rule="nonzero">
                            <path d="M36.25,17.5 L30,17.5 L30,12.5 C30,9.7421875 32.2421875,7.5 35,7.5 L35.625,7.5 C36.6640625,7.5 37.5,6.6640625 37.5,5.625 L37.5,1.875 C37.5,0.8359375 36.6640625,0 35.625,0 L35,0 C28.09375,0 22.5,5.59375 22.5,12.5 L22.5,31.25 C22.5,33.3203125 24.1796875,35 26.25,35 L36.25,35 C38.3203125,35 40,33.3203125 40,31.25 L40,21.25 C40,19.1796875 38.3203125,17.5 36.25,17.5 Z M13.75,17.5 L7.5,17.5 L7.5,12.5 C7.5,9.7421875 9.7421875,7.5 12.5,7.5 L13.125,7.5 C14.1640625,7.5 15,6.6640625 15,5.625 L15,1.875 C15,0.8359375 14.1640625,0 13.125,0 L12.5,0 C5.59375,0 0,5.59375 0,12.5 L0,31.25 C0,33.3203125 1.6796875,35 3.75,35 L13.75,35 C15.8203125,35 17.5,33.3203125 17.5,31.25 L17.5,21.25 C17.5,19.1796875 15.8203125,17.5 13.75,17.5 Z" id="Shape"></path>
                        </g>
                    </g>
                    <g id="Breakout-Sessions" transform="translate(358.000000, 8.000000)">
                        <g id="comments" transform="translate(46.000000, 0.000000)" fill="#00468B" fill-rule="nonzero">
                            <path d="M37.3441734,14.2857143 C37.3441734,6.39285714 28.9866192,0 18.6720867,0 C8.3575542,0 0,6.39285714 0,14.2857143 C0,17.3482143 1.26575203,20.1696429 3.41124661,22.5 C2.20833333,25.1964286 0.224424119,27.3392857 0.197493225,27.3660714 C2.39194391e-16,27.5714286 -0.0538617886,27.875 0.0628387534,28.1428571 C0.179539295,28.4107143 0.430894309,28.5714286 0.718157182,28.5714286 C4.00372629,28.5714286 6.72374661,27.4732143 8.68072493,26.3392857 C11.5713076,27.7410714 14.9915312,28.5714286 18.6720867,28.5714286 C28.9866192,28.5714286 37.3441734,22.1785714 37.3441734,14.2857143 Z M48.2960705,33.9285714 C50.441565,31.6071429 51.7073171,28.7767857 51.7073171,25.7142857 C51.7073171,19.7410714 46.9046409,14.625 40.1001016,12.4910714 C40.1808943,13.0803571 40.2168022,13.6785714 40.2168022,14.2857143 C40.2168022,23.7410714 30.5486111,31.4285714 18.6720867,31.4285714 C17.7025745,31.4285714 16.7599932,31.3571429 15.8263889,31.2589286 C18.6541328,36.3928571 25.2970867,40 33.0352304,40 C36.7157859,40 40.1360095,39.1785714 43.0265921,37.7678571 C44.9835705,38.9017857 47.7035908,40 50.9891599,40 C51.2764228,40 51.5367547,39.8303571 51.6444783,39.5714286 C51.7611789,39.3125 51.7073171,39.0089286 51.5098238,38.7946429 C51.482893,38.7678571 49.4989837,36.6339286 48.2960705,33.9285714 Z" id="Shape"></path>
                        </g>
                        <text font-family="GothamNarrow-Medium, Gotham Narrow" font-size="14" font-style="condensed" font-weight="400" fill="#000000">
                            <tspan x="23.357" y="73">Breakout Sessions</tspan>
                        </text>
                    </g>
                    <g id="Keynotes" transform="translate(181.000000, 8.000000)">
                        <path d="M82.5884774,0 L52.9176955,0 C50.2016461,0 48,2.22916667 48,4.97916667 L48,35.0208333 C48,37.7708333 50.2016461,40 52.9176955,40 L82.5884774,40 C85.3045267,40 87.5061728,37.7708333 87.5061728,35.0208333 L87.5061728,4.97916667 C87.5061728,2.22916667 85.3045267,0 82.5884774,0 Z M102.074074,3.92708333 L90.7983539,11.8020833 L90.7983539,28.1979167 L102.074074,36.0625 C104.255144,37.5833333 107.259259,36.03125 107.259259,33.375 L107.259259,6.61458333 C107.259259,3.96875 104.265432,2.40625 102.074074,3.92708333 Z" id="Shape" fill="#00468B" fill-rule="nonzero"></path>
                        <text font-family="GothamNarrow-Medium, Gotham Narrow" font-size="14" font-style="condensed" font-weight="400" fill="#000000">
                            <tspan x="50.734" y="73">Keynotes</tspan>
                        </text>
                    </g>
                    <g id="UI" transform="translate(0.000000, 8.000000)">
                        <text id="OpenStack-Upstream-I" font-family="GothamNarrow-Medium, Gotham Narrow" font-size="14" font-style="condensed" font-weight="400" fill="#000000">
                            <tspan x="12.374" y="73"> OpenStack Upstream </tspan>
                            <tspan x="53.625" y="89.8000057">Institute</tspan>
                        </text>
                        <g id="graduation-cap" transform="translate(56.000000, 0.000000)" fill="#00468B" fill-rule="nonzero">
                            <path d="M64.8268157,9.29186659 L35.7704522,0.364841375 C34.1871127,-0.121613792 32.4787727,-0.121613792 30.8964749,0.364841375 L1.83906968,9.29186659 C-0.613023228,10.0449867 -0.613023228,13.2876739 1.83906968,14.040794 L6.90471447,15.5970339 C5.7932518,16.9709833 5.10991579,18.647014 5.0422072,20.4824187 C4.03907828,21.057415 3.33282552,22.0949082 3.33282552,23.3334418 C3.33282552,24.4563512 3.9244945,25.4011367 4.77658116,26.0052994 L2.11719577,37.9718882 C1.88594487,39.0125064 2.67761463,40 3.74324379,40 L9.58805829,40 C10.6547291,40 11.4463989,39.0125064 11.215148,37.9718882 L8.55576259,26.0052994 C9.40784925,25.4011367 9.99951823,24.4563512 9.99951823,23.3334418 C9.99951823,22.1282414 9.32555726,21.1199146 8.36826186,20.5345017 C8.44742883,18.9699286 9.24743196,17.5866043 10.5234786,16.7095266 L30.8954332,22.9688609 C31.8391869,23.2584423 33.6496106,23.6198983 35.7694106,22.9688609 L64.8268157,14.0418357 C67.2799503,13.2876739 67.2799503,10.0460283 64.8268157,9.29186659 Z M36.748581,26.1552985 C33.7766944,27.0677925 31.2443929,26.5636291 29.9162627,26.1552985 L14.8099537,21.5147037 L13.3328646,33.3333767 C13.3328646,37.0156444 22.2870662,40 33.3329427,40 C44.3788192,40 53.3330208,37.0156444 53.3330208,33.3333767 L51.8559317,21.513662 L36.748581,26.1552985 Z" id="Shape"></path>
                        </g>
                    </g>
                </g>
            </g>
        </g>
    </g>
</svg>