<?xml version="1.0" encoding="UTF-8"?><svg id="a" xmlns="http://www.w3.org/2000/svg" viewBox="0 0 393.43 70.89"><defs><style>.b{fill:#00ba4f;}.c{fill:#00b6e6;}.d{fill:#ffb01c;}.e{fill:#fff;}.f{fill:#ffb324;}.g{fill:#ff091c;}</style></defs><path class="e" d="M98.19,30.97c-3.33,0-5.81-.8-7.44-2.41-1.63-1.61-2.43-4.09-2.41-7.44V10.97c0-3.39,.81-5.87,2.42-7.46,1.61-1.59,4.09-2.37,7.43-2.34h5.27c3.37,0,5.86,.8,7.45,2.39s2.4,4.08,2.4,7.45v10.11c0,3.33-.8,5.81-2.4,7.44-1.59,1.61-4.08,2.41-7.45,2.41h-5.27Zm0-3.69h5.27c1.26,.05,2.51-.14,3.7-.56,.86-.35,1.55-1.04,1.9-1.9,.42-1.19,.61-2.44,.56-3.7V11.01c.05-1.25-.14-2.49-.56-3.67-.35-.87-1.04-1.55-1.9-1.91-1.18-.43-2.44-.62-3.7-.57h-5.27c-1.25-.07-2.49,.11-3.67,.53-.87,.34-1.56,1.02-1.91,1.89-.43,1.18-.63,2.43-.58,3.69v10.15c-.05,1.26,.14,2.51,.56,3.7,.35,.87,1.04,1.55,1.91,1.9,1.18,.42,2.44,.61,3.69,.56Z"/><path class="e" d="M121.81,39.76c-.89,.13-1.72-.49-1.85-1.38-.02-.15-.02-.31,0-.46V10.53c-.08-1.02,.69-1.91,1.71-1.98s1.91,.69,1.98,1.71c0,.09,0,.18,0,.27v.55c.83-.82,1.84-1.43,2.94-1.79,1.26-.42,2.59-.63,3.92-.61h1.67c2.93,0,5.1,.71,6.5,2.11,1.4,1.4,2.12,3.58,2.12,6.51v5.06c0,2.92-.71,5.09-2.12,6.5-1.41,1.41-3.58,2.12-6.5,2.12h-8.53v6.95c.13,.89-.49,1.71-1.38,1.83-.15,.02-.31,.02-.46,0Zm1.84-12.48h8.53c1.92,0,3.22-.35,3.9-1s1-2,1-3.9v-5.05c0-1.92-.33-3.22-1-3.9-.67-.68-1.97-1.01-3.9-1h-1.67c-1.61-.03-3.21,.19-4.75,.66-1.33,.43-2,1.13-2.11,2.08v12.11Z"/><path class="e" d="M150.08,21.36v1c0,1.89,.35,3.17,1,3.86s2,1,3.89,1h3.61c1.12,.05,2.25-.09,3.32-.42,.68-.24,1.21-.78,1.43-1.47,.12-.47,.35-.91,.67-1.28,.36-.32,.83-.48,1.31-.44,.51-.04,1.02,.14,1.4,.49,.34,.38,.46,.91,.31,1.4-.23,1.67-1.17,3.16-2.59,4.07-1.79,.98-3.81,1.45-5.85,1.34h-3.58c-2.91,0-5.08-.7-6.49-2.11-1.41-1.41-2.12-3.56-2.12-6.46v-5.1c0-3,.71-5.16,2.12-6.56s3.58-2.09,6.49-2.06h3.61c2.93,0,5.09,.7,6.5,2.1,1.41,1.4,2.11,3.57,2.12,6.52v2.2c.13,.89-.5,1.72-1.39,1.84-.15,.02-.31,.02-.46,0l-15.3,.08Zm4.92-9c-1.9,0-3.2,.3-3.89,1-.69,.7-1,2-1,3.93v.35h13.45v-.35c0-1.92-.33-3.22-1-3.9-.67-.68-1.97-1.01-3.9-1l-3.66-.03Z"/><path class="e" d="M174.72,30.97c-.89,.13-1.72-.48-1.85-1.38-.02-.16-.02-.32,0-.47V10.53c0-1.02,.83-1.85,1.85-1.85s1.85,.83,1.85,1.85v.72c1.55-1.71,3.83-2.56,6.86-2.57h1.22c2.93,0,5.1,.71,6.51,2.11s2.11,3.58,2.11,6.51v11.82c.08,1.02-.69,1.91-1.71,1.98-1.02,.08-1.91-.69-1.98-1.71,0-.09,0-.18,0-.27v-11.82c0-1.92-.35-3.22-1.05-3.9-.69-.68-2-1-3.88-1h-1.22c-1.55-.03-3.1,.17-4.6,.6-1.3,.4-2.06,1-2.26,1.9v14.24c.12,.89-.51,1.71-1.4,1.83-.15,.02-.3,.02-.45,0Z"/><path class="e" d="M202.38,30.97c-.51,.04-1.01-.12-1.4-.45-.32-.39-.48-.89-.45-1.4V3.06c-.04-.51,.12-1.02,.45-1.41,.39-.32,.89-.48,1.4-.44,.86-.16,1.69,.41,1.85,1.28,.03,.19,.03,.38,0,.57V29.12c.04,.51-.12,1.01-.44,1.4-.39,.33-.9,.5-1.41,.45Z"/><path class="e" d="M212.77,30.97c-.89,.13-1.72-.48-1.85-1.38-.02-.16-.02-.32,0-.47V10.53c-.08-1.02,.69-1.91,1.71-1.98,1.02-.08,1.91,.69,1.98,1.71,0,.09,0,.18,0,.27v.72c1.56-1.71,3.84-2.57,6.86-2.57h1.23c2.93,0,5.1,.71,6.51,2.11,1.41,1.4,2.11,3.58,2.11,6.51v11.82c0,1.02-.83,1.85-1.85,1.85s-1.85-.83-1.85-1.85h0v-11.82c0-1.92-.34-3.22-1-3.9-.66-.68-2-1-3.88-1h-1.23c-1.55-.03-3.1,.17-4.59,.6-1.31,.4-2.06,1-2.27,1.9v14.24c.12,.89-.5,1.71-1.39,1.84-.16,.02-.33,.02-.49,0Z"/><path class="e" d="M241.26,30.97c-.89,.13-1.72-.5-1.84-1.39-.02-.15-.02-.31,0-.46V12.36h-1.63c-1.02,0-1.85-.83-1.85-1.85,0-1.02,.83-1.85,1.85-1.85h1.63v-.17c0-2.89,.69-5,2.09-6.41,1.4-1.41,3.52-2.08,6.39-2.08,1.06,0,1.58,.62,1.58,1.85s-.52,1.85-1.58,1.85c-1.85,0-3.11,.32-3.78,1s-1,1.93-1,3.81v.17h4.53c1.02,0,1.85,.83,1.85,1.85,0,1.02-.83,1.85-1.85,1.85h-4.53V29.12c.13,.89-.48,1.72-1.37,1.85-.16,.02-.33,.02-.49,0Z"/><path class="e" d="M255.99,30.97c-.89,.13-1.72-.48-1.85-1.38-.02-.16-.02-.32,0-.47V10.53c-.08-1.02,.69-1.91,1.71-1.98,1.02-.08,1.91,.69,1.98,1.71,0,.09,0,.18,0,.27v1.71c.86-1.16,2-2.07,3.31-2.66,1.46-.62,3.03-.93,4.61-.9,1.02,0,1.85,.83,1.85,1.85,0,1.02-.83,1.85-1.85,1.85-2.03-.13-4.06,.35-5.81,1.4-1.27,.82-2.05,2.21-2.11,3.72v11.62c.13,.89-.49,1.72-1.38,1.85-.15,.02-.31,.02-.46,0Z"/><path class="e" d="M277.99,30.97c-2.46,0-4.3-.6-5.5-1.8s-1.8-3-1.8-5.5,.6-4.29,1.79-5.49c1.19-1.2,3-1.8,5.51-1.8h9.3c.06-1.18-.38-2.32-1.21-3.16-1.11-.66-2.41-.96-3.7-.84h-2.55c-1.1-.04-2.2,.06-3.27,.29-.63,.14-1.18,.52-1.52,1.07-.17,.48-.45,.91-.81,1.27-.36,.26-.8,.38-1.24,.35-.53,.03-1.06-.16-1.45-.52-.36-.36-.48-.9-.31-1.38,.36-1.55,1.37-2.87,2.76-3.63,1.82-.86,3.83-1.26,5.85-1.16h2.55c2.93,0,5.1,.71,6.51,2.11s2.09,3.58,2.09,6.52v11.82c.08,1.02-.69,1.91-1.71,1.98-1.02,.08-1.91-.69-1.98-1.71,0-.09,0-.18,0-.27v-1c-1.72,1.96-4.26,3.01-6.86,2.84h-2.45Zm0-3.68h2.46c1.02,0,2.05-.09,3.05-.3,.89-.17,1.73-.54,2.46-1.09,.71-.57,1.19-1.37,1.35-2.26v-3.56h-9.32c-1.99-.35-3.89,.98-4.24,2.97-.35,1.99,.98,3.89,2.97,4.24,.42,.07,.85,.07,1.26,0h0Z"/><g><polygon class="b" points="64.78 10.07 64.78 70.69 70.67 70.69 70.67 4.18 64.78 10.07"/><polygon class="f" points="0 11.8 0 17.69 40.51 17.69 0 58.2 4.16 62.36 54.73 11.8 0 11.8"/><polygon class="g" points="60.62 5.91 66.51 .02 0 .02 0 5.91 60.62 5.91"/><polygon class="c" points="58.9 70.69 58.9 15.96 8.33 66.53 12.49 70.69 53.01 30.18 53.01 70.69 58.9 70.69"/></g><path class="d" d="M353.69,52.66c.77,0,1.16,.39,1.16,1.16v.73c0,.76-.39,1.13-1.16,1.13h-.7c-.74,0-1.1-.38-1.1-1.13v-.73c0-.78,.37-1.16,1.1-1.16h.7Zm.7-3.84c.3,0,.58,.11,.85,.34,.27,.23,.31,.56,.14,1l-1.51,3.98-1.92-.78,1.51-3.95c.06-.17,.18-.31,.36-.42,.18-.11,.37-.16,.57-.16Z"/><path class="e" d="M96.15,70.42c-1.65,0-2.93-.33-3.86-1-.92-.67-1.5-1.69-1.73-3.08-.04-.42,.05-.74,.26-.95,.21-.21,.52-.32,.93-.32s.7,.1,.89,.29,.32,.49,.38,.9c.15,.67,.46,1.12,.93,1.37,.48,.25,1.21,.37,2.19,.37h4.17c1.24,0,2.09-.22,2.54-.67,.45-.45,.67-1.29,.67-2.51s-.23-2.1-.69-2.55c-.46-.46-1.3-.69-2.52-.69h-3.59c-1.82,0-3.18-.45-4.06-1.34-.88-.89-1.32-2.25-1.32-4.07s.44-3.16,1.31-4.04c.87-.88,2.22-1.32,4.04-1.32h3.44c1.53,0,2.74,.31,3.61,.94,.87,.63,1.43,1.59,1.66,2.88,.06,.41-.02,.73-.23,.95-.21,.22-.53,.33-.95,.33-.39,0-.68-.1-.87-.3s-.32-.5-.38-.88c-.15-.57-.45-.96-.88-1.16-.43-.21-1.09-.31-1.95-.31h-3.44c-1.16,0-1.93,.2-2.33,.61-.4,.41-.59,1.18-.59,2.31s.2,1.92,.61,2.34,1.19,.64,2.34,.64h3.59c1.9,0,3.31,.46,4.25,1.39s1.4,2.35,1.4,4.28-.46,3.33-1.39,4.25c-.93,.91-2.34,1.37-4.25,1.37h-4.17Z"/><path class="e" d="M118.98,70.42c-2.21,0-3.84-.53-4.9-1.58-1.06-1.06-1.58-2.69-1.58-4.9v-11.92c0-.41,.1-.71,.3-.91s.51-.3,.91-.3,.71,.1,.91,.3,.3,.51,.3,.91v11.92c0,1.03,.12,1.84,.37,2.43s.66,1.01,1.25,1.25c.59,.25,1.4,.37,2.43,.37h3.47c1.03,0,1.84-.12,2.43-.37,.59-.25,1.01-.66,1.25-1.25s.37-1.4,.37-2.43v-11.92c0-.41,.1-.71,.3-.91s.51-.3,.91-.3,.71,.1,.91,.3,.3,.51,.3,.91v11.92c0,2.21-.53,3.84-1.58,4.9-1.05,1.06-2.69,1.58-4.9,1.58h-3.47Z"/><path class="e" d="M137.39,70.42c-.81,0-1.21-.41-1.21-1.22v-17.19c0-.81,.41-1.22,1.21-1.22,.53,0,.97,.26,1.33,.78l6.83,10.27-.52,.09,6.89-10.36c.33-.52,.82-.78,1.48-.78s.98,.41,.98,1.22v17.19c0,.81-.41,1.22-1.21,1.22s-1.22-.41-1.22-1.22v-14.76l.75,.26-6.08,8.94c-.36,.52-.85,.78-1.48,.78-.43,0-.83-.26-1.19-.78l-6.08-8.94,.72,.2v14.29c0,.81-.41,1.22-1.22,1.22Z"/><path class="e" d="M162.97,70.42c-.81,0-1.21-.41-1.21-1.22v-17.19c0-.81,.4-1.22,1.21-1.22,.53,0,.97,.26,1.33,.78l6.83,10.27-.52,.09,6.89-10.36c.33-.52,.82-.78,1.48-.78s.98,.41,.98,1.22v17.19c0,.81-.41,1.22-1.22,1.22s-1.21-.41-1.21-1.22v-14.76l.75,.26-6.08,8.94c-.36,.52-.85,.78-1.48,.78-.43,0-.83-.26-1.19-.78l-6.08-8.94,.72,.2v14.29c0,.81-.4,1.22-1.21,1.22Z"/><path class="e" d="M188.55,70.42c-.41,0-.72-.1-.92-.3-.2-.2-.3-.5-.3-.92v-17.16c0-.42,.1-.73,.3-.93,.2-.19,.5-.29,.92-.29s.73,.1,.93,.29c.19,.19,.29,.5,.29,.93v17.16c0,.41-.1,.72-.29,.92-.19,.2-.5,.3-.93,.3Z"/><path class="e" d="M203.02,70.42c-.41,0-.71-.1-.91-.3s-.3-.51-.3-.91v-15.94h-5.61c-.41,0-.71-.1-.91-.3s-.3-.51-.3-.91,.1-.71,.3-.91c.2-.2,.51-.3,.91-.3h13.66c.41,0,.71,.1,.91,.3,.2,.2,.3,.51,.3,.91s-.1,.71-.3,.91c-.2,.2-.51,.3-.91,.3h-5.61v15.94c0,.39-.1,.69-.31,.9-.21,.21-.51,.32-.9,.32Z"/><path class="d" d="M220.51,67.19c-.2-.2-.3-.44-.3-.71,0-.16,.04-.31,.12-.44,.08-.13,.17-.24,.29-.34l4.39-3.63-4.39-3.63c-.12-.11-.21-.23-.29-.36-.08-.13-.12-.27-.12-.43,0-.28,.1-.52,.3-.72s.44-.3,.72-.3,.48,.08,.64,.23l5.41,4.48c.6,.48,.6,.97,0,1.45l-5.41,4.48c-.16,.16-.37,.23-.64,.23s-.52-.1-.72-.31Z"/><path class="d" d="M239.82,70.61c-.81,0-1.22-.41-1.22-1.22v-17.26c0-.81,.41-1.22,1.22-1.22h7.58c1.54,0,2.72,.41,3.55,1.22,.83,.81,1.24,1.98,1.24,3.49v.78c0,1.31-.41,2.32-1.24,3.04,1.54,.86,2.31,2.44,2.31,4.72v.99c0,1.78-.47,3.14-1.42,4.07-.94,.93-2.3,1.39-4.08,1.39h-7.96Zm1.22-11.89h6.89c.71,0,1.19-.22,1.45-.65s.39-.99,.39-1.67v-.78c0-.84-.17-1.43-.52-1.77-.35-.33-.96-.5-1.83-.5h-6.36v5.38Zm0,9.44h6.74c1.09,0,1.88-.23,2.35-.7,.47-.47,.7-1.24,.7-2.32v-.99c0-1.08-.23-1.84-.68-2.3-.46-.46-1.24-.69-2.37-.69h-6.74v7Z"/><path class="d" d="M260.88,70.61c-.81,0-1.22-.41-1.22-1.22v-17.26c0-.81,.41-1.22,1.22-1.22h10.43c.81,0,1.22,.41,1.22,1.22s-.41,1.22-1.22,1.22h-9.21v6.1h5.78c.81,0,1.22,.41,1.22,1.22s-.41,1.22-1.22,1.22h-5.78v6.28h9.21c.81,0,1.22,.41,1.22,1.22s-.41,1.22-1.22,1.22h-10.43Z"/><path class="d" d="M291.36,70.67c-.32,.2-.62,.27-.92,.19-.29-.08-.54-.28-.74-.6l-4.5-7.5h-4.07v6.63c0,.81-.41,1.22-1.22,1.22s-1.22-.41-1.22-1.22v-17.26c0-.81,.41-1.22,1.22-1.22h6.8c1.77,0,3.13,.47,4.08,1.42,.94,.94,1.42,2.3,1.42,4.08v.87c0,1.54-.36,2.77-1.08,3.68s-1.75,1.48-3.11,1.71l3.81,6.35c.37,.68,.21,1.23-.46,1.66Zm-10.23-10.35h5.58c1.1,0,1.89-.23,2.35-.7,.46-.46,.7-1.25,.7-2.35v-.87c0-1.09-.23-1.88-.7-2.35-.47-.47-1.25-.7-2.35-.7h-5.58v6.97Z"/><path class="d" d="M299.58,70.61c-.81,0-1.22-.41-1.22-1.22v-17.26c0-.81,.41-1.22,1.22-1.22s1.22,.41,1.22,1.22v16.04h8.05c.81,0,1.22,.41,1.22,1.22s-.41,1.22-1.22,1.22h-9.27Z"/><path class="d" d="M316.81,70.61c-.42,0-.72-.1-.92-.3-.2-.2-.3-.51-.3-.92v-17.23c0-.43,.1-.74,.3-.93,.2-.19,.51-.29,.92-.29s.74,.1,.93,.29c.19,.19,.29,.5,.29,.93v17.23c0,.42-.1,.72-.29,.92-.19,.2-.5,.3-.93,.3Z"/><path class="d" d="M326.8,70.61c-.81,0-1.22-.41-1.22-1.22v-17.26c0-.81,.41-1.22,1.22-1.22,.42,0,.82,.24,1.22,.73l11.68,15.05h-.61v-14.56c0-.81,.41-1.22,1.22-1.22s1.22,.41,1.22,1.22v17.26c0,.81-.41,1.22-1.22,1.22-.44,0-.84-.24-1.22-.73l-11.68-15.05h.61v14.56c0,.81-.41,1.22-1.22,1.22Z"/><path class="d" d="M373.76,70.61h-10.87c-.83,0-1.25-.41-1.25-1.22,0-1.3,.21-2.4,.62-3.32,.41-.92,.94-1.69,1.58-2.33,.64-.63,1.33-1.17,2.06-1.61,.73-.44,1.4-.84,2.02-1.2,1.08-.61,1.97-1.14,2.7-1.58,.72-.45,1.26-.9,1.62-1.37,.36-.47,.54-1.03,.54-1.7,0-1.15-.21-1.93-.62-2.33-.41-.4-1.18-.6-2.32-.6h-3.11c-.91,0-1.58,.12-2.02,.36s-.71,.69-.83,1.35c-.07,.39-.2,.68-.39,.89-.19,.2-.49,.3-.89,.3s-.72-.11-.93-.33c-.21-.22-.3-.54-.26-.95,.2-1.37,.74-2.39,1.61-3.06,.87-.67,2.11-1.01,3.71-1.01h3.11c1.82,0,3.17,.44,4.05,1.32,.88,.88,1.32,2.23,1.32,4.05,0,1.16-.29,2.13-.86,2.91-.57,.78-1.32,1.47-2.25,2.06-.93,.6-1.93,1.19-2.99,1.79-.78,.45-1.51,.89-2.2,1.34-.69,.45-1.28,.96-1.77,1.55-.49,.59-.81,1.33-.97,2.22h9.59c.81,0,1.22,.41,1.22,1.22s-.41,1.22-1.22,1.22Z"/><path class="d" d="M391.98,70.61h-10.87c-.83,0-1.25-.41-1.25-1.22,0-1.3,.21-2.4,.62-3.32,.41-.92,.94-1.69,1.58-2.33,.64-.63,1.33-1.17,2.06-1.61,.73-.44,1.4-.84,2.02-1.2,1.08-.61,1.97-1.14,2.7-1.58,.72-.45,1.26-.9,1.62-1.37,.36-.47,.54-1.03,.54-1.7,0-1.15-.21-1.93-.62-2.33-.41-.4-1.18-.6-2.32-.6h-3.11c-.91,0-1.58,.12-2.02,.36s-.71,.69-.83,1.35c-.07,.39-.2,.68-.39,.89-.19,.2-.49,.3-.89,.3s-.72-.11-.93-.33c-.21-.22-.3-.54-.26-.95,.2-1.37,.74-2.39,1.61-3.06,.87-.67,2.11-1.01,3.71-1.01h3.11c1.82,0,3.17,.44,4.05,1.32,.88,.88,1.32,2.23,1.32,4.05,0,1.16-.29,2.13-.86,2.91-.57,.78-1.32,1.47-2.25,2.06-.93,.6-1.93,1.19-2.99,1.79-.78,.45-1.51,.89-2.2,1.34-.69,.45-1.28,.96-1.77,1.55-.49,.59-.81,1.33-.97,2.22h9.59c.81,0,1.22,.41,1.22,1.22s-.41,1.22-1.22,1.22Z"/></svg>