<?xml version="1.0" encoding="utf-8"?>
<!-- Generator: Adobe Illustrator 23.0.1, SVG Export Plug-In . SVG Version: 6.00 Build 0)  -->
<svg version="1.1" id="Layer_1" xmlns="http://www.w3.org/2000/svg" xmlns:xlink="http://www.w3.org/1999/xlink" x="0px" y="0px"
	 width="70.98px" height="37px" viewBox="0 0 70.98 37" style="enable-background:new 0 0 70.98 37;" xml:space="preserve">
<style type="text/css">
	.st0{fill:#EE0000;}
	.st1{fill:#FFFFFF;}
</style>
<title>Logo-Red_Hat-Summit-A-Standard-RGB</title>
<polygon class="st0" points="70.98,0 0,0 0,31.64 30.24,31.64 35.59,37 40.94,31.64 70.98,31.64 "/>
<path class="st1" d="M8.39,21.17c0.94,0.91,2.18,1.43,3.49,1.46c1.19,0,1.89-0.38,1.89-1s-0.4-0.87-1.45-1.05l-2.31-0.41
	c-1.52-0.09-2.69-1.36-2.66-2.88c0-2,1.62-3.27,4.31-3.27c1.59,0.01,3.14,0.54,4.41,1.5l-1.37,1.91c-0.89-0.78-2.03-1.23-3.21-1.27
	c-1.05,0-1.7,0.35-1.7,0.92s0.36,0.78,1.24,0.93l2.18,0.36c2,0.33,3.09,1.37,3.09,3c0,2.14-1.75,3.45-4.6,3.45
	c-1.74,0-3.42-0.61-4.75-1.72L8.39,21.17z"/>
<path class="st1" d="M19.73,21.28c-0.05,0.74,0.51,1.39,1.25,1.44c0.06,0,0.12,0,0.19,0c0.54,0.02,1.07-0.21,1.42-0.62v-5.38h2.43
	v7.93h-2.43V24.1c-0.6,0.46-1.34,0.71-2.1,0.7c-1.68,0.07-3.1-1.24-3.17-2.92c0-0.09,0-0.18,0-0.27v-4.89h2.43L19.73,21.28z"/>
<path class="st1" d="M26.49,16.72h2.43v0.51c0.57-0.44,1.28-0.67,2-0.66c0.92-0.03,1.79,0.38,2.36,1.1c0.66-0.72,1.6-1.12,2.58-1.09
	c1.66-0.04,3.03,1.27,3.08,2.92c0,0.09,0,0.18-0.01,0.27v4.89h-2.44V20.1c0.08-0.71-0.42-1.35-1.13-1.43
	c-0.05-0.01-0.11-0.01-0.16-0.01c-0.5-0.02-0.98,0.2-1.3,0.59c0,0.17,0,0.33,0,0.51v4.89h-2.41V20.1c0.08-0.71-0.42-1.35-1.13-1.43
	c-0.05-0.01-0.11-0.01-0.16-0.01c-0.49-0.03-0.97,0.18-1.28,0.57v5.42h-2.43V16.72z"/>
<path class="st1" d="M40.38,16.72h2.43v0.51c0.57-0.44,1.28-0.67,2-0.66c0.92-0.02,1.79,0.39,2.36,1.1c0.66-0.72,1.6-1.12,2.58-1.09
	c1.66-0.04,3.03,1.27,3.08,2.92c0,0.09,0,0.18-0.01,0.27v4.89h-2.45V20.1c0.08-0.71-0.42-1.35-1.13-1.43
	c-0.05-0.01-0.11-0.01-0.16-0.01c-0.5-0.02-0.98,0.2-1.3,0.59c0,0.17,0,0.33,0,0.51v4.89h-2.4V20.1c0.08-0.71-0.42-1.35-1.13-1.43
	c-0.05-0.01-0.11-0.01-0.16-0.01c-0.49-0.03-0.97,0.18-1.28,0.57v5.42h-2.43V16.72z"/>
<path class="st1" d="M54.12,14.65c-0.01-0.74,0.59-1.34,1.33-1.35c0.74-0.01,1.34,0.59,1.35,1.33c0.01,0.73-0.58,1.33-1.31,1.35
	c-0.74,0.01-1.34-0.59-1.35-1.33c0,0,0,0,0,0L54.12,14.65z M56.68,24.65h-2.43v-7.93h2.43L56.68,24.65z"/>
<path class="st1" d="M59.3,18.74h-1.6v-2h1.6v-2l2.44-0.52v2.56h2.21v2h-2.21v3c0,0.71,0.27,1,1,1c0.37,0,0.74-0.05,1.09-0.17v2
	c-0.55,0.15-1.12,0.23-1.69,0.24c-1.91,0-2.88-0.85-2.88-2.52L59.3,18.74z"/>
<path class="st1" d="M47.65,11.34c0,0.92,0.55,1.36,1.55,1.36c0.31-0.01,0.61-0.05,0.91-0.13v-1.06c-0.19,0.06-0.38,0.09-0.58,0.09
	c-0.42,0-0.57-0.13-0.57-0.51V9.46h1.2V8.37h-1.2V6.99l-1.31,0.28v1.1h-0.86v1.09h0.86V11.34z M43.59,11.34
	c0-0.28,0.28-0.42,0.71-0.42c0.26,0,0.52,0.03,0.77,0.1v0.54c-0.25,0.14-0.53,0.21-0.81,0.21C43.84,11.77,43.59,11.6,43.59,11.34
	 M43.99,12.69c0.42,0.02,0.83-0.1,1.18-0.33v0.26h1.32V9.91c0-1-0.71-1.61-1.88-1.61c-0.69,0-1.38,0.16-2,0.46l0.47,1
	c0.41-0.19,0.84-0.3,1.29-0.33c0.54,0,0.82,0.21,0.82,0.64v0.21c-0.33-0.09-0.66-0.13-1-0.12c-1.1,0-1.76,0.46-1.76,1.28
	c0.03,0.76,0.67,1.36,1.43,1.33c0.04,0,0.08,0,0.12-0.01 M36.88,12.69h1.38v-2.26h2.34v2.21h1.39V6.99h-1.38v2.17h-2.33V6.99h-1.39
	L36.88,12.69z M31.59,10.5c0-0.6,0.48-1.08,1.08-1.08l0,0l0,0c0.33-0.01,0.65,0.11,0.9,0.33v1.49c-0.25,0.22-0.57,0.34-0.9,0.33
	c-0.6,0.02-1.11-0.45-1.13-1.05c0,0,0,0,0,0l0,0 M33.54,12.67h1.29V6.71l-1.31,0.28v1.6c-1.05-0.61-2.4-0.25-3.01,0.8
	c-0.61,1.05-0.25,2.4,0.8,3.01c0.33,0.19,0.7,0.29,1.08,0.3c0.41,0,0.82-0.13,1.15-0.38L33.54,12.67z M27.61,9.39
	c0.41,0.02,0.77,0.29,0.9,0.68h-1.69c0.1-0.41,0.47-0.69,0.89-0.68 M25.49,10.5c0.02,1.24,1.03,2.23,2.27,2.21c0.02,0,0.03,0,0.05,0
	c0.66,0.04,1.31-0.18,1.81-0.61l-0.87-0.76c-0.23,0.22-0.53,0.34-0.85,0.33c-0.46,0.01-0.88-0.26-1.05-0.68h3v-0.33
	c0.16-1.2-0.69-2.3-1.89-2.46c-1.2-0.16-2.3,0.69-2.46,1.89c-0.02,0.12-0.02,0.24-0.02,0.36V10.5 M23.25,8.18
	c0.35,0,0.64,0.29,0.64,0.64s-0.29,0.64-0.64,0.64c0,0,0,0,0,0h-1.37V8.18H23.25z M20.49,12.64h1.39v-2h1.06l1.07,2h1.55l-1.24-2.26
	c0.64-0.26,1.06-0.89,1.06-1.59c-0.01-1.01-0.84-1.82-1.85-1.81c-0.05,0-0.1,0-0.15,0.01h-2.89V12.64z"/>
</svg>
