<svg id="Layer_1" data-name="Layer 1" xmlns="http://www.w3.org/2000/svg" viewBox="0 0 114 91"><defs><style>.cls-1,.cls-2{fill:#fff;}.cls-1,.cls-2,.cls-3,.cls-4{stroke:#08497c;stroke-miterlimit:10;}.cls-1,.cls-4{stroke-width:2px;}.cls-3{fill:none;stroke-width:0.5px;}.cls-4{fill:#13b1e2;}</style></defs><title>icon-series</title><rect class="cls-1" x="12.97" y="7.13" width="88.05" height="55.55" rx="2.32" ry="2.32"/><circle class="cls-2" cx="20.21" cy="13.54" r="2.77"/><circle class="cls-2" cx="28.31" cy="13.54" r="2.77"/><line class="cls-3" x1="12.97" y1="19.75" x2="101.03" y2="19.75"/><path class="cls-4" d="M71.63,64.79a14.47,14.47,0,0,0-.23-6.41L77,53.58,72.34,47,66.1,50.3a14,14,0,0,0-4.51-2l-1-6.29h-8L52,48.37a14.54,14.54,0,0,0-5.54,3.21l-6.25-2.43-3.81,7,5.7,3.77a14.36,14.36,0,0,0,.61,7l-4.84,4.57L42.47,78l6-3.48a16.5,16.5,0,0,0,3.47,2.14L52.6,84h8l1-7.24a15.47,15.47,0,0,0,5.3-3.3L73.6,76.2l3.81-7.1ZM56.88,70.67a8.55,8.55,0,1,1,8.55-8.55A8.55,8.55,0,0,1,56.88,70.67Z"/><circle class="cls-1" cx="56.88" cy="62.12" r="8.55"/></svg>