<svg id="Layer_1" data-name="Layer 1" xmlns="http://www.w3.org/2000/svg" xmlns:xlink="http://www.w3.org/1999/xlink" viewBox="0 0 114 91"><defs><style>.cls-1,.cls-5{fill:none;}.cls-2{fill:#2cc5f4;stroke-width:2px;}.cls-2,.cls-5{stroke:#08497c;stroke-miterlimit:10;}.cls-3{fill:#08497c;}.cls-4{clip-path:url(#clip-path);}.cls-6{clip-path:url(#clip-path-2);}</style><clipPath id="clip-path"><rect id="SVGID" class="cls-1" x="32.12" y="49.55" width="57.32" height="15.97"/></clipPath><clipPath id="clip-path-2"><rect id="SVGID-2" data-name="SVGID" class="cls-1" x="32.12" y="24.42" width="57.32" height="15.97"/></clipPath></defs><title>icon-series</title><rect class="cls-2" x="14.7" y="45.23" width="84.6" height="25.67"/><circle class="cls-3" cx="26.26" cy="54.26" r="2.45"/><g class="cls-4"><line class="cls-5" x1="-10.53" y1="65.46" x2="4.27" y2="50.67"/><line class="cls-5" x1="-4.19" y1="65.46" x2="10.61" y2="50.67"/><line class="cls-5" x1="2.15" y1="65.46" x2="16.95" y2="50.67"/><line class="cls-5" x1="8.49" y1="65.46" x2="23.29" y2="50.67"/><line class="cls-5" x1="14.83" y1="65.46" x2="29.63" y2="50.67"/><line class="cls-5" x1="21.17" y1="65.46" x2="35.97" y2="50.67"/><line class="cls-5" x1="27.51" y1="65.46" x2="42.31" y2="50.67"/><line class="cls-5" x1="33.85" y1="65.46" x2="48.65" y2="50.67"/><line class="cls-5" x1="40.19" y1="65.46" x2="54.99" y2="50.67"/><line class="cls-5" x1="46.53" y1="65.46" x2="61.33" y2="50.67"/><line class="cls-5" x1="52.87" y1="65.46" x2="67.67" y2="50.67"/><line class="cls-5" x1="59.21" y1="65.46" x2="74.01" y2="50.67"/><line class="cls-5" x1="65.55" y1="65.46" x2="80.35" y2="50.67"/><line class="cls-5" x1="71.89" y1="65.46" x2="86.69" y2="50.67"/><line class="cls-5" x1="78.23" y1="65.46" x2="93.03" y2="50.67"/><line class="cls-5" x1="84.57" y1="65.46" x2="99.37" y2="50.67"/><line class="cls-5" x1="90.91" y1="65.46" x2="105.71" y2="50.67"/><line class="cls-5" x1="97.25" y1="65.46" x2="112.05" y2="50.67"/></g><line class="cls-5" x1="32.12" y1="50.99" x2="32.12" y2="66.44"/><rect class="cls-2" x="14.7" y="20.1" width="84.6" height="25.67"/><circle class="cls-3" cx="26.26" cy="29.13" r="2.45"/><g class="cls-6"><line class="cls-5" x1="-10.53" y1="40.33" x2="4.27" y2="25.54"/><line class="cls-5" x1="-4.19" y1="40.33" x2="10.61" y2="25.54"/><line class="cls-5" x1="2.15" y1="40.33" x2="16.95" y2="25.54"/><line class="cls-5" x1="8.49" y1="40.33" x2="23.29" y2="25.54"/><line class="cls-5" x1="14.83" y1="40.33" x2="29.63" y2="25.54"/><line class="cls-5" x1="21.17" y1="40.33" x2="35.97" y2="25.54"/><line class="cls-5" x1="27.51" y1="40.33" x2="42.31" y2="25.54"/><line class="cls-5" x1="33.85" y1="40.33" x2="48.65" y2="25.54"/><line class="cls-5" x1="40.19" y1="40.33" x2="54.99" y2="25.54"/><line class="cls-5" x1="46.53" y1="40.33" x2="61.33" y2="25.54"/><line class="cls-5" x1="52.87" y1="40.33" x2="67.67" y2="25.54"/><line class="cls-5" x1="59.21" y1="40.33" x2="74.01" y2="25.54"/><line class="cls-5" x1="65.55" y1="40.33" x2="80.35" y2="25.54"/><line class="cls-5" x1="71.89" y1="40.33" x2="86.69" y2="25.54"/><line class="cls-5" x1="78.23" y1="40.33" x2="93.03" y2="25.54"/><line class="cls-5" x1="84.57" y1="40.33" x2="99.37" y2="25.54"/><line class="cls-5" x1="90.91" y1="40.33" x2="105.71" y2="25.54"/><line class="cls-5" x1="97.25" y1="40.33" x2="112.05" y2="25.54"/></g><line class="cls-5" x1="32.12" y1="25.85" x2="32.12" y2="41.31"/></svg>