<svg id="Layer_1" data-name="Layer 1" xmlns="http://www.w3.org/2000/svg" viewBox="0 0 114 91"><defs><style>.cls-1,.cls-3{fill:#0b6ba0;}.cls-1,.cls-2,.cls-3,.cls-4{stroke:#08497c;stroke-miterlimit:10;}.cls-1,.cls-4{stroke-width:2px;}.cls-2{fill:#13b1e2;}.cls-4{fill:#fff;}</style></defs><title>icon-series</title><path class="cls-1" d="M8,71v3.66C8,76.41,9.58,79,11.33,79h92.28c1.75,0,2.39-2.59,2.39-4.34V71H8Z"/><path class="cls-1" d="M102,71V15.84c0-1.75-1.16-3.84-2.91-3.84H15.79C14,12,14,14.09,14,15.84V71h88Z"/><rect class="cls-2" x="15.53" y="15.66" width="82" height="51.64"/><path class="cls-3" d="M67.17,71.48h0a2.07,2.07,0,0,1-2.06,2.06h-16a2.07,2.07,0,0,1-2.06-2.06h0"/><rect class="cls-4" x="25.92" y="23.06" width="62.47" height="39.41" rx="1.65" ry="1.65"/><polyline class="cls-4" points="38.46 50.69 50.38 44.77 57.44 50.69 62.58 40.3 70.09 47.18 76.22 31.25"/></svg>