<?xml version="1.0" encoding="UTF-8"?>
<svg width="17px" height="26px" viewBox="0 0 17 26" version="1.1" xmlns="http://www.w3.org/2000/svg" xmlns:xlink="http://www.w3.org/1999/xlink">
    <!-- Generator: Sketch 52.6 (67491) - http://www.bohemiancoding.com/sketch -->
    <title>deploy icon</title>
    <desc>Created with Sketch.</desc>
    <g id="Page-1" stroke="none" stroke-width="1" fill="none" fill-rule="evenodd">
        <g id="software---overview" transform="translate(-862.000000, -1727.000000)" fill="#FFFFFF">
            <g id="section---#2" transform="translate(105.000000, 841.000000)">
                <g id="browse-projects" transform="translate(4.000000, 817.000000)">
                    <g id="openstack-components" transform="translate(732.000000, 57.000000)">
                        <g id="deploy-icon" transform="translate(21.000000, 12.000000)">
                            <path d="M14.7161,6.3438 C14.4111,6.6498 14.0411,6.8018 13.6051,6.8018 C13.1691,6.8018 12.7971,6.6498 12.4921,6.3438 C12.1881,6.0388 12.0351,5.6688 12.0351,5.2328 C12.0351,4.7968 12.1881,4.4258 12.4921,4.1208 C12.7971,3.8148 13.1691,3.6628 13.6051,3.6628 C14.0411,3.6628 14.4111,3.8148 14.7161,4.1208 C15.0221,4.4258 15.1741,4.7968 15.1741,5.2328 C15.1741,5.6688 15.0221,6.0388 14.7161,6.3438 M4.2511,4.2508 C3.9461,4.5568 3.5761,4.7088 3.1401,4.7088 C2.7031,4.7088 2.3331,4.5568 2.0281,4.2508 C1.7231,3.9468 1.5701,3.5758 1.5701,3.1398 C1.5701,2.7028 1.7231,2.3318 2.0281,2.0278 C2.3331,1.7228 2.7031,1.5708 3.1401,1.5708 C3.5761,1.5708 3.9461,1.7228 4.2511,2.0278 C4.5571,2.3318 4.7101,2.7028 4.7101,3.1398 C4.7101,3.5758 4.5571,3.9468 4.2511,4.2508 M4.2511,23.0878 C3.9461,23.3938 3.5761,23.5458 3.1401,23.5458 C2.7031,23.5458 2.3331,23.3938 2.0281,23.0878 C1.7231,22.7828 1.5701,22.4118 1.5701,21.9768 C1.5701,21.5398 1.7231,21.1698 2.0281,20.8648 C2.3331,20.5598 2.7031,20.4068 3.1401,20.4068 C3.5761,20.4068 3.9461,20.5598 4.2511,20.8648 C4.5571,21.1698 4.7101,21.5398 4.7101,21.9768 C4.7101,22.4118 4.5571,22.7828 4.2511,23.0878 M15.8281,3.0088 C15.2171,2.3988 14.4761,2.0928 13.6041,2.0928 C12.7331,2.0928 11.9901,2.3988 11.3801,3.0088 C10.7711,3.6188 10.4651,4.3598 10.4651,5.2318 C10.4651,5.7988 10.6061,6.3238 10.8901,6.8098 C11.1741,7.2948 11.5551,7.6738 12.0351,7.9468 C12.0351,8.5128 11.9881,9.0128 11.8961,9.4438 C11.8021,9.8728 11.6511,10.2518 11.4381,10.5778 C11.2251,10.9058 11.0051,11.1848 10.7761,11.4118 C10.5461,11.6418 10.2251,11.8578 9.8101,12.0588 C9.3971,12.2598 9.0121,12.4288 8.6581,12.5668 C8.3041,12.7018 7.8271,12.8628 7.2271,13.0478 C6.1371,13.3858 5.2981,13.6978 4.7091,13.9808 L4.7091,5.8538 C5.1891,5.5808 5.5701,5.2018 5.8531,4.7178 C6.1371,4.2328 6.2781,3.7058 6.2781,3.1388 C6.2781,2.2678 5.9741,1.5258 5.3631,0.9148 C4.7531,0.3058 4.0121,-0.0002 3.1401,-0.0002 C2.2671,-0.0002 1.5261,0.3048 0.9151,0.9148 C0.3061,1.5258 0.0001,2.2678 0.0001,3.1388 C0.0001,3.7058 0.1421,4.2328 0.4251,4.7178 C0.7081,5.2018 1.0901,5.5808 1.5701,5.8538 L1.5701,19.2618 C1.0901,19.5328 0.7081,19.9128 0.4251,20.3978 C0.1421,20.8828 0.0001,21.4088 0.0001,21.9758 C0.0001,22.8478 0.3051,23.5888 0.9151,24.1988 C1.5261,24.8098 2.2671,25.1148 3.1401,25.1148 C4.0121,25.1148 4.7531,24.8098 5.3631,24.1988 C5.9741,23.5888 6.2781,22.8478 6.2781,21.9758 C6.2781,21.4088 6.1371,20.8828 5.8531,20.3978 C5.5701,19.9128 5.1891,19.5328 4.7091,19.2618 L4.7091,18.8368 C4.7091,18.0838 4.9351,17.5388 5.3881,17.2008 C5.8401,16.8638 6.7631,16.4758 8.1591,16.0408 C9.6311,15.5718 10.7371,15.1298 11.4791,14.7158 C13.9201,13.3308 15.1521,11.0748 15.1741,7.9468 C15.6531,7.6738 16.0351,7.2948 16.3181,6.8098 C16.6011,6.3238 16.7431,5.7988 16.7431,5.2318 C16.7431,4.3598 16.4391,3.6188 15.8281,3.0088" id="Fill-1"></path>
                        </g>
                    </g>
                </g>
            </g>
        </g>
    </g>
</svg>