<svg id="Layer_1" data-name="Layer 1" xmlns="http://www.w3.org/2000/svg" viewBox="0 0 114 91"><defs><style>.cls-1,.cls-3{fill:#0b6ba0;}.cls-1,.cls-2,.cls-3,.cls-4,.cls-5,.cls-6{stroke:#08497c;stroke-miterlimit:10;}.cls-1,.cls-4{stroke-width:2px;}.cls-2{fill:#13b1e2;}.cls-4,.cls-5{fill:#fff;}.cls-6{fill:none;stroke-width:0.75px;}</style></defs><title>icon-series</title><path class="cls-1" d="M8,71v3.87C8,76.62,9.58,79,11.33,79h92.28c1.75,0,2.39-2.38,2.39-4.13V71H8Z"/><path class="cls-1" d="M102,71V16.05c0-1.75-1.16-4.05-2.91-4.05H15.79C14,12,14,14.3,14,16.05V71h88Z"/><rect class="cls-2" x="15.53" y="15.86" width="82" height="51.64"/><path class="cls-3" d="M67.17,71.68h0a2.07,2.07,0,0,1-2.06,2.06h-16a2.07,2.07,0,0,1-2.06-2.06h0"/><rect class="cls-4" x="25.92" y="21.26" width="62.47" height="39.41" rx="1.65" ry="1.65"/><circle class="cls-5" cx="31.05" cy="25.81" r="1.97"/><circle class="cls-5" cx="36.8" cy="25.81" r="1.97"/><line class="cls-6" x1="25.92" y1="30.22" x2="88.39" y2="30.22"/><line class="cls-6" x1="41.63" y1="30.22" x2="41.63" y2="60.68"/></svg>