<?xml version="1.0" encoding="UTF-8"?>
<svg width="25px" height="24px" viewBox="0 0 25 24" version="1.1" xmlns="http://www.w3.org/2000/svg" xmlns:xlink="http://www.w3.org/1999/xlink">
    <!-- Generator: Sketch 52.6 (67491) - http://www.bohemiancoding.com/sketch -->
    <title>openstack logo</title>
    <desc>Created with Sketch.</desc>
    <g id="Page-1" stroke="none" stroke-width="1" fill="none" fill-rule="evenodd">
        <g id="software---overview" transform="translate(-124.000000, -1728.000000)" fill="#FFFFFF">
            <g id="section---#2" transform="translate(105.000000, 841.000000)">
                <g id="browse-projects" transform="translate(4.000000, 817.000000)">
                    <g id="openstack-components" transform="translate(0.000000, 57.000000)">
                        <g id="openstack-logo" transform="translate(15.000000, 13.000000)">
                            <path d="M18.8132639,17.0838889 C18.8132639,17.7616667 18.2757639,18.2991667 17.5979861,18.2991667 L6.70701389,18.2991667 C6.02993056,18.2991667 5.49173611,17.7616667 5.49173611,17.0838889 L5.49173611,16.2193056 L6.94444444e-05,16.2193056 L6.94444444e-05,21.5477778 C6.94444444e-05,22.7859722 1.00493056,23.8144444 2.26673611,23.8144444 L22.0389583,23.8144444 C23.2771528,23.8144444 24.305625,22.8095833 24.305625,21.5477778 L24.305625,16.2193056 L18.8132639,16.2193056 L18.8132639,17.0838889 Z" id="Fill-4"></path>
                            <polygon id="Fill-7" points="0 14.6536111 5.49236111 14.6536111 5.49236111 9.16125 0 9.16125"></polygon>
                            <polygon id="Fill-9" points="18.8131944 14.6536111 24.3055556 14.6536111 24.3055556 9.16125 18.8131944 9.16125"></polygon>
                            <path d="M22.0386806,-0.000208333333 L2.26715278,-0.000208333333 C1.02826389,-0.000208333333 -0.000208333333,1.00465278 -0.000208333333,2.26715278 L-0.000208333333,7.595625 L5.49215278,7.595625 L5.49215278,6.73034722 C5.49215278,6.05326389 6.02965278,5.51506944 6.70743056,5.51506944 L17.5977083,5.51506944 C18.2761806,5.51506944 18.8129861,6.05326389 18.8129861,6.73034722 L18.8129861,7.595625 L24.3060417,7.595625 L24.3060417,2.26715278 C24.3060417,1.02826389 23.276875,-0.000208333333 22.0386806,-0.000208333333" id="Fill-1"></path>
                        </g>
                    </g>
                </g>
            </g>
        </g>
    </g>
</svg>