<svg id="Layer_1" data-name="Layer 1" xmlns="http://www.w3.org/2000/svg" viewBox="0 0 114 91"><defs><style>.cls-1{fill:#fff;}.cls-1,.cls-2,.cls-3{stroke:#08497c;stroke-miterlimit:10;}.cls-2{fill:#2cc5f4;}.cls-3{fill:none;}</style></defs><title>icon-series</title><rect class="cls-1" x="33.78" y="20.49" width="46.91" height="30.58"/><polygon class="cls-2" points="68.72 63.5 57.5 63.5 57.5 53.5 54.5 53.5 54.5 63.5 44.72 63.5 42.72 70.5 45.72 70.5 47.72 66.5 54.5 66.5 54.5 70.5 57.5 70.5 57.5 66.5 65.72 66.5 67.72 70.5 70.72 70.5 68.72 63.5"/><rect class="cls-1" x="52.35" y="25.78" width="9.76" height="3.4"/><rect class="cls-1" x="38.52" y="39.23" width="9.76" height="3.4"/><rect class="cls-1" x="52.35" y="39.23" width="9.76" height="3.4"/><rect class="cls-1" x="66.11" y="39.23" width="9.76" height="3.4"/><line class="cls-1" x1="57.5" y1="30" x2="57.5" y2="38"/><polyline class="cls-3" points="43.5 38 43.5 34.5 70.5 34.5 70.5 38"/><rect class="cls-2" x="33.78" y="50.08" width="46.91" height="3.06"/><line class="cls-3" x1="89" y1="67.49" x2="73.44" y2="67.49"/><line class="cls-3" x1="40.56" y1="67.49" x2="25" y2="67.49"/></svg>