<?xml version="1.0" encoding="UTF-8"?>
<svg width="22px" height="24px" viewBox="0 0 22 24" version="1.1" xmlns="http://www.w3.org/2000/svg" xmlns:xlink="http://www.w3.org/1999/xlink">
    <!-- Generator: Sketch 52.6 (67491) - http://www.bohemiancoding.com/sketch -->
    <title>sdk icon</title>
    <desc>Created with Sketch.</desc>
    <g id="Page-1" stroke="none" stroke-width="1" fill="none" fill-rule="evenodd">
        <g id="software---overview" transform="translate(-494.000000, -1727.000000)" fill="#FFFFFF">
            <g id="section---#2" transform="translate(105.000000, 841.000000)">
                <g id="browse-projects" transform="translate(4.000000, 817.000000)">
                    <g id="openstack-components" transform="translate(365.000000, 57.000000)">
                        <g id="sdk-icon" transform="translate(20.000000, 12.000000)">
                            <path d="M15.2439524,1.75236508 C16.4165642,2.91932468 17.0002929,4.32763567 17.0002929,5.97858182 C17.0002929,7.62952796 16.4165642,9.03783895 15.2439524,10.2047986 C14.0700521,11.3717582 12.6577637,11.9558798 11.0006443,11.9558798 C9.34610203,11.9558798 7.93381362,11.3717582 6.75991331,10.2047986 C5.58859017,9.03783895 4.99970714,7.62952796 4.99970714,5.97858182 C4.99970714,4.32763567 5.58859017,2.91932468 6.75991331,1.75236508 C7.93381362,0.585405477 9.34610203,0 11.0006443,0 C12.6577637,0 14.0700521,0.585405477 15.2439524,1.75236508 M22,19.8793943 C22,21.1259485 21.6198676,22.1054757 20.8608915,22.8308136 C20.1032039,23.5484488 19.0865109,23.9130435 17.8301412,23.9130435 L4.17372459,23.9130435 C2.91735489,23.9130435 1.90066186,23.5484488 1.14297429,22.8308136 C0.38528671,22.1054757 0,21.1259485 0,19.8793943 C0,19.3312186 0.0167515961,18.7933131 0.0554091255,18.2682455 C0.0953552393,17.7470292 0.164938792,17.1808805 0.274468459,16.5710831 C0.38528671,15.9651371 0.5257424,15.4054073 0.689392608,14.8829072 C0.853042816,14.3642585 1.07983366,13.8610152 1.36203362,13.3654746 C1.64165642,12.8763529 1.96251391,12.453988 2.32976044,12.103515 C2.69700697,11.7594609 3.14285714,11.4834474 3.66602237,11.271623 C4.18918761,11.0649338 4.77420488,10.9596635 5.40818837,10.9596635 C5.50225502,10.9596635 5.72002577,11.0713527 6.0627892,11.2934473 C6.4081298,11.5193933 6.79728226,11.7697312 7.22766942,12.0431772 C7.65805658,12.3179069 8.22116793,12.566961 8.91700346,12.7903394 C9.6115504,13.0162854 10.3048088,13.1228394 11.0006443,13.1228394 C11.6964798,13.1228394 12.3923154,13.0162854 13.0868623,12.7903394 C13.7826978,12.566961 14.3458092,12.3179069 14.7774849,12.0431772 C15.2040063,11.7697312 15.595736,11.5193933 15.9384994,11.2934473 C16.2825514,11.0713527 16.5016107,10.9596635 16.5956774,10.9596635 C17.2283723,10.9596635 17.8133896,11.0649338 18.3378434,11.271623 C18.8610086,11.4834474 19.3055702,11.7594609 19.6741053,12.103515 C20.0413518,12.453988 20.3609208,12.8763529 20.6418321,13.3654746 C20.9240321,13.8610152 21.1508229,14.3642585 21.3144731,14.8829072 C21.4781234,15.4054073 21.6198676,15.9651371 21.7281087,16.5710831 C21.838927,17.1808805 21.9085105,17.7470292 21.9484566,18.2682455 C21.9871142,18.7933131 22,19.3312186 22,19.8793943" id="Fill-1"></path>
                        </g>
                    </g>
                </g>
            </g>
        </g>
    </g>
</svg>