<svg id="Layer_1" data-name="Layer 1" xmlns="http://www.w3.org/2000/svg" viewBox="0 0 114 91"><defs><style>.cls-1,.cls-2{fill:#fff;}.cls-1,.cls-2,.cls-3,.cls-4,.cls-5{stroke:#08497c;stroke-miterlimit:10;}.cls-1,.cls-3{stroke-width:2px;}.cls-3{fill:#2cc5f4;}.cls-4,.cls-5{fill:none;}.cls-5{stroke-width:0.75px;}</style></defs><title>icon-series</title><rect class="cls-1" x="12.97" y="8.77" width="88.05" height="55.55" rx="2.32" ry="2.32"/><circle class="cls-2" cx="20.21" cy="15.18" r="2.77"/><circle class="cls-2" cx="28.31" cy="15.18" r="2.77"/><path class="cls-3" d="M82,42A13,13,0,0,0,69,29h0A13,13,0,0,0,56,42V62A13,13,0,0,0,69,75h0A13,13,0,0,0,82,62V42ZM78,57.32A8.68,8.68,0,0,1,69.32,66H68.68A8.68,8.68,0,0,1,60,57.32V42.68A8.68,8.68,0,0,1,68.68,34h0.65A8.68,8.68,0,0,1,78,42.68V57.32Z"/><rect class="cls-3" x="51.98" y="51.97" width="36.89" height="30.26"/><line class="cls-4" x1="51.98" y1="59.82" x2="88.87" y2="59.82"/><line class="cls-4" x1="51.98" y1="66.24" x2="88.87" y2="66.24"/><line class="cls-4" x1="51.98" y1="72.67" x2="88.87" y2="72.67"/><line class="cls-5" x1="38.42" y1="8.94" x2="38.42" y2="64.33"/></svg>