<svg id="Layer_1" data-name="Layer 1" xmlns="http://www.w3.org/2000/svg" viewBox="0 0 132.21 180"><defs><style>.cls-1{fill:#fff;}.cls-2{fill:#f7b749;}.cls-3{fill:#ed362f;}.cls-4{fill:#43b85c;}.cls-5{fill:#2cb4e2;}</style></defs><path d="M10.84.66H129.62a0,0,0,0,1,0,0V118.82a8.88,8.88,0,0,1-8.88,8.88H11.46a8.88,8.88,0,0,1-8.88-8.88V8.91A8.25,8.25,0,0,1,10.84.66Z"/><path class="cls-1" d="M72.33,139.36a4.29,4.29,0,0,1-4.92-4.92v-5.07a4.26,4.26,0,0,1,4.92-4.89H75a4.29,4.29,0,0,1,4.92,4.91v5.05A4.29,4.29,0,0,1,75,139.36Zm0-1.85H75a5.09,5.09,0,0,0,1.85-.27,1.77,1.77,0,0,0,1-1,5.07,5.07,0,0,0,.28-1.85v-5.05a5,5,0,0,0-.28-1.83,1.77,1.77,0,0,0-1-1,4.84,4.84,0,0,0-1.85-.29H72.33a4.77,4.77,0,0,0-1.83.27,1.68,1.68,0,0,0-1,.94,4.84,4.84,0,0,0-.28,1.84v5.07a4.86,4.86,0,0,0,.28,1.85,1.71,1.71,0,0,0,.95,1A5,5,0,0,0,72.33,137.51Z" transform="translate(-54.42 -54)"/><path class="cls-1" d="M84.62,143.75a.81.81,0,0,1-.92-.92V129.15a.92.92,0,0,1,1.84,0v.28a3.72,3.72,0,0,1,1.47-.9,6,6,0,0,1,1.95-.3h.84a3.76,3.76,0,0,1,4.3,4.3v2.53a3.76,3.76,0,0,1-4.3,4.3H85.54v3.47A.82.82,0,0,1,84.62,143.75Zm.92-6.24H89.8a2,2,0,0,0,2.46-2.45v-2.53a2.75,2.75,0,0,0-.51-1.94,2.78,2.78,0,0,0-2-.51H89a7.64,7.64,0,0,0-2.37.32q-1,.33-1,1Z" transform="translate(-54.42 -54)"/><path class="cls-1" d="M99.23,134.55v.53a2.77,2.77,0,0,0,.52,1.93,2.83,2.83,0,0,0,1.94.5h1.8a4.92,4.92,0,0,0,1.66-.2,1.14,1.14,0,0,0,.71-.74,1.35,1.35,0,0,1,.34-.63.85.85,0,0,1,.65-.22.94.94,0,0,1,.7.24.76.76,0,0,1,.16.7,2.89,2.89,0,0,1-1.3,2,5.37,5.37,0,0,1-2.92.67h-1.8a4.45,4.45,0,0,1-3.24-1.05,4.38,4.38,0,0,1-1.06-3.23v-2.55a3.74,3.74,0,0,1,4.3-4.3h1.8a3.75,3.75,0,0,1,4.3,4.3v1.1a.81.81,0,0,1-.92.92Zm2.46-4.47a2.68,2.68,0,0,0-1.94.49,2.81,2.81,0,0,0-.52,2v.18H106v-.18a2.75,2.75,0,0,0-.51-1.94,2.78,2.78,0,0,0-2-.51Z" transform="translate(-54.42 -54)"/><path class="cls-1" d="M112.53,139.36a.82.82,0,0,1-.92-.92v-9.29a.93.93,0,0,1,1.85,0v.37a4.35,4.35,0,0,1,3.42-1.29h.61a3.77,3.77,0,0,1,4.31,4.3v5.91a.93.93,0,0,1-1.85,0v-5.91a2.7,2.7,0,0,0-.52-1.94,2.79,2.79,0,0,0-1.94-.51h-.61a7.8,7.8,0,0,0-2.29.3c-.65.2-1,.51-1.13,1v7.11A.82.82,0,0,1,112.53,139.36Z" transform="translate(-54.42 -54)"/><path class="cls-1" d="M126.84,139.36a.81.81,0,0,1-.92-.92v-13a1,1,0,0,1,.23-.7.94.94,0,0,1,.69-.22,1,1,0,0,1,.71.22,1,1,0,0,1,.21.7v13a.79.79,0,0,1-.92.92Z" transform="translate(-54.42 -54)"/><path class="cls-1" d="M133,139.36a.82.82,0,0,1-.92-.92v-9.29a.92.92,0,0,1,1.84,0v.37a4.39,4.39,0,0,1,3.43-1.29H138a3.76,3.76,0,0,1,4.3,4.3v5.91a.92.92,0,1,1-1.84,0v-5.91a2.7,2.7,0,0,0-.52-1.94,2.79,2.79,0,0,0-1.94-.51h-.61a7.92,7.92,0,0,0-2.3.3c-.65.2-1,.51-1.13,1v7.11A.81.81,0,0,1,133,139.36Z" transform="translate(-54.42 -54)"/><path class="cls-1" d="M147.76,139.36a.81.81,0,0,1-.92-.92v-8.36H146a.93.93,0,0,1,0-1.85h.82v-.09a3.7,3.7,0,0,1,4.23-4.23c.53,0,.79.31.79.92s-.26.92-.79.92a2.73,2.73,0,0,0-1.89.5,2.68,2.68,0,0,0-.5,1.89v.09h2.26a.93.93,0,0,1,0,1.85h-2.26v8.36A.82.82,0,0,1,147.76,139.36Z" transform="translate(-54.42 -54)"/><path class="cls-1" d="M155.59,139.36a.82.82,0,0,1-.92-.92v-9.29a.92.92,0,0,1,1.84,0V130a4.14,4.14,0,0,1,1.66-1.33,5.51,5.51,0,0,1,2.29-.45.93.93,0,1,1,0,1.85,5,5,0,0,0-2.89.7,2.31,2.31,0,0,0-1.06,1.85v5.81A.81.81,0,0,1,155.59,139.36Z" transform="translate(-54.42 -54)"/><path class="cls-1" d="M166.59,139.36a3.66,3.66,0,1,1,0-7.29h4.64a2.11,2.11,0,0,0-.6-1.57,3.09,3.09,0,0,0-1.85-.42h-1.27a6.73,6.73,0,0,0-1.64.14,1.17,1.17,0,0,0-.75.54,1.75,1.75,0,0,1-.41.63.94.94,0,0,1-.62.18,1,1,0,0,1-.73-.26.66.66,0,0,1-.15-.69,2.8,2.8,0,0,1,1.37-1.81,6.09,6.09,0,0,1,2.93-.58h1.27a3.76,3.76,0,0,1,4.3,4.3v5.91a.92.92,0,1,1-1.84,0v-.5a4.17,4.17,0,0,1-3.42,1.42Zm0-1.85h1.23a7.34,7.34,0,0,0,1.52-.14,2.85,2.85,0,0,0,1.22-.55,1.89,1.89,0,0,0,.68-1.13v-1.77h-4.65a2.1,2.1,0,0,0-1.45.36,3.14,3.14,0,0,0,0,2.88A2.11,2.11,0,0,0,166.59,137.51Z" transform="translate(-54.42 -54)"/><path class="cls-1" d="M2.58,95.94h127a0,0,0,0,1,0,0V120.2a7.5,7.5,0,0,1-7.5,7.5H10a7.38,7.38,0,0,1-7.38-7.38V95.94A0,0,0,0,1,2.58,95.94Z"/><polygon class="cls-2" points="66.1 19.83 66.1 24.21 96.23 24.21 66.1 54.34 69.2 57.44 106.81 19.83 66.1 19.83"/><polygon class="cls-3" points="111.19 15.45 115.57 11.07 66.1 11.07 66.1 15.45 111.19 15.45"/><polygon class="cls-4" points="114.29 18.55 114.29 63.63 118.67 63.63 118.67 14.17 114.29 18.55"/><polygon class="cls-5" points="109.91 63.63 109.91 22.93 72.3 60.54 75.4 63.63 105.53 33.5 105.53 63.63 109.91 63.63"/><path class="cls-1" d="M176,182.36H65.05a8.72,8.72,0,0,1-8.71-8.71V62.71A8.72,8.72,0,0,1,65.05,54H184.7V173.65A8.72,8.72,0,0,1,176,182.36ZM65.05,55.32a7.4,7.4,0,0,0-7.39,7.39V173.65A7.4,7.4,0,0,0,65.05,181H176a7.4,7.4,0,0,0,7.39-7.39V55.32Z" transform="translate(-54.42 -54)"/><path d="M99.12,171.6h8v3H95.36V156.35h3.76Z" transform="translate(-54.42 -54)"/><path d="M113.15,174.62h-3.77V156.35h3.77Z" transform="translate(-54.42 -54)"/><path d="M123.26,170.09l4.14-13.74h4.19l-6.36,18.27H121.3L115,156.35h4.18Z" transform="translate(-54.42 -54)"/><path d="M144.43,166.71H137.2v4.89h8.48v3H133.44V156.35h12.22v3.05H137.2v4.36h7.23Z" transform="translate(-54.42 -54)"/><path class="cls-3" d="M84.81,194.6h82.11a19.7,19.7,0,0,1,19.7,19.7h0a19.7,19.7,0,0,1-19.7,19.7H84.81Z" transform="translate(-54.42 -54)"/><path class="cls-3" d="M74.12,194.6h19.7V234H74.12a19.7,19.7,0,0,1-19.7-19.7h0A19.7,19.7,0,0,1,74.12,194.6Z" transform="translate(-54.42 -54)"/><path d="M99.72,212.77l5.64,7.85h-3.1L98,214.45l-1.42,1.34v4.83H94v-13.4h2.53v5.28h.23l5.38-5.28h3.4Z" transform="translate(-54.42 -54)"/><path d="M110.2,210.86a4.46,4.46,0,0,1,4.62,4.78v.94h-6.91a2.3,2.3,0,0,0,2.37,2.24,2.48,2.48,0,0,0,2.37-1.42l2,1.15a4.71,4.71,0,0,1-4.31,2.34,4.83,4.83,0,0,1-4.88-5.1A4.66,4.66,0,0,1,110.2,210.86Zm2.17,4a2.1,2.1,0,0,0-2.18-2,2.13,2.13,0,0,0-2.26,2Z" transform="translate(-54.42 -54)"/><path d="M125.5,211.12l-5.21,13.33h-2.6l1.34-3.22-3.94-10.11h2.6l2.49,6.82h.23l2.48-6.82Z" transform="translate(-54.42 -54)"/><path d="M129,211.12v1.54h.27a3,3,0,0,1,3-1.69,3.65,3.65,0,0,1,3.7,4v5.67h-2.41v-5.44a1.94,1.94,0,0,0-2.15-2.1c-1.55,0-2.37.95-2.37,2.64v4.9h-2.41v-9.5Z" transform="translate(-54.42 -54)"/><path d="M142.38,210.86a5,5,0,1,1-5,5A4.83,4.83,0,0,1,142.38,210.86Zm0,7.88a2.89,2.89,0,1,0-2.57-2.87A2.58,2.58,0,0,0,142.38,218.74Z" transform="translate(-54.42 -54)"/><path d="M150.24,211.12v-2.94h2.42v2.94h2.6v2.07h-2.6V218c0,.38.19.57.53.57h1.53v2.07h-2.6a1.81,1.81,0,0,1-1.88-1.84v-5.59h-2.41v-2.07Z" transform="translate(-54.42 -54)"/><path d="M161,210.86a4.45,4.45,0,0,1,4.61,4.78v.94h-6.9a2.3,2.3,0,0,0,2.37,2.24,2.48,2.48,0,0,0,2.37-1.42l2,1.15a4.69,4.69,0,0,1-4.3,2.34,4.83,4.83,0,0,1-4.88-5.1A4.66,4.66,0,0,1,161,210.86Zm2.16,4a2.09,2.09,0,0,0-2.18-2,2.14,2.14,0,0,0-2.26,2Z" transform="translate(-54.42 -54)"/><path d="M170.57,210.86a6.09,6.09,0,0,1,4.61,2.2l-1.74,1.38a3.89,3.89,0,0,0-2.95-1.63c-.9,0-1.39.38-1.39,1s.7.86,1.7,1l.32,0c3,.36,4.18,1.15,4.18,2.89s-1.74,3.22-4.27,3.22a5.59,5.59,0,0,1-5-2.68L168,217a3.43,3.43,0,0,0,3.1,1.9c1,0,1.87-.43,1.87-1.17s-1-.84-2-1l-.32,0c-2.66-.3-3.87-1.17-3.87-2.93S168.37,210.86,170.57,210.86Z" transform="translate(-54.42 -54)"/><rect x="10.9" y="149.04" width="22.52" height="22.52" rx="11.26"/><polygon class="cls-1" points="20.17 156.44 26.25 160.3 20.17 164.16 20.17 156.44"/></svg>