<?xml version="1.0" encoding="utf-8"?>
<!-- Generator: Adobe Illustrator 24.2.0, SVG Export Plug-In . SVG Version: 6.00 Build 0)  -->
<svg version="1.1" id="Layer_1" xmlns="http://www.w3.org/2000/svg" xmlns:xlink="http://www.w3.org/1999/xlink" x="0px" y="0px"
	 viewBox="0 0 420 420" style="enable-background:new 0 0 420 420;" xml:space="preserve">
<style type="text/css">
	.st0{fill:#C2DCF3;}
	.st1{fill-rule:evenodd;clip-rule:evenodd;fill:#ECF3FB;}
	.st2{opacity:5.000000e-02;}
	.st3{fill:#010101;}
	.st4{fill:#EA2046;}
	.st5{fill-rule:evenodd;clip-rule:evenodd;fill:#1DA4DE;}
	.st6{fill:#FFFFFF;}
	.st7{filter:url(#Adobe_OpacityMaskFilter);}
	.st8{fill-rule:evenodd;clip-rule:evenodd;fill:#FFFFFF;}
	.st9{mask:url(#mask-2_12_);fill-rule:evenodd;clip-rule:evenodd;fill:#C2DCF3;}
	.st10{filter:url(#Adobe_OpacityMaskFilter_1_);}
	.st11{mask:url(#mask-2_11_);fill-rule:evenodd;clip-rule:evenodd;fill:#C2DCF3;}
	.st12{fill-rule:evenodd;clip-rule:evenodd;fill:#C2DCF3;}
	.st13{filter:url(#Adobe_OpacityMaskFilter_2_);}
	.st14{mask:url(#mask-2_10_);fill-rule:evenodd;clip-rule:evenodd;fill:#C2DCF3;}
	.st15{filter:url(#Adobe_OpacityMaskFilter_3_);}
	.st16{mask:url(#mask-4_4_);fill-rule:evenodd;clip-rule:evenodd;fill:#C2DCF3;}
	.st17{filter:url(#Adobe_OpacityMaskFilter_4_);}
	.st18{mask:url(#mask-6_1_);fill-rule:evenodd;clip-rule:evenodd;fill:#C2DCF3;}
	.st19{filter:url(#Adobe_OpacityMaskFilter_5_);}
	.st20{mask:url(#mask-2_9_);fill-rule:evenodd;clip-rule:evenodd;fill:#C2DCF3;}
	.st21{filter:url(#Adobe_OpacityMaskFilter_6_);}
	.st22{mask:url(#mask-4_3_);fill-rule:evenodd;clip-rule:evenodd;fill:#C2DCF3;}
	.st23{filter:url(#Adobe_OpacityMaskFilter_7_);}
	.st24{mask:url(#mask-2_8_);fill-rule:evenodd;clip-rule:evenodd;fill:#C2DCF3;}
	.st25{filter:url(#Adobe_OpacityMaskFilter_8_);}
	.st26{mask:url(#mask-2_7_);fill-rule:evenodd;clip-rule:evenodd;fill:#C2DCF3;}
</style>
<g>
	<path class="st0" d="M355.5,310.4c-0.4,0-0.8-0.1-1.1-0.4c-0.1-0.1-0.2-0.3-0.3-0.5c-0.1-0.2-0.1-0.4-0.1-0.6c0-0.1,0-0.2,0-0.3
		c0-0.1,0-0.2,0.1-0.3c0-0.1,0.1-0.2,0.1-0.3c0-0.1,0.1-0.2,0.2-0.2c0.1-0.1,0.1-0.1,0.2-0.2c0.1-0.1,0.2-0.1,0.3-0.1
		c0.1,0,0.2-0.1,0.3-0.1c0.5-0.1,1,0.1,1.3,0.4c0.3,0.3,0.4,0.7,0.4,1.1c0,0.2,0,0.4-0.1,0.6c-0.1,0.2-0.2,0.3-0.3,0.5
		c-0.1,0.1-0.3,0.3-0.5,0.3C355.9,310.4,355.7,310.4,355.5,310.4z"/>
	<path class="st0" d="M361.5,307.5c-0.3-0.8,0-1.6,0.8-2l0,0c0.8-0.3,1.6,0,2,0.8l0,0c0.3,0.8,0,1.6-0.8,2l0,0
		c-0.2,0.1-0.4,0.1-0.6,0.1l0,0C362.3,308.4,361.8,308,361.5,307.5z M368.1,303.6c-0.6-0.5-0.7-1.5-0.1-2.1l0,0l0,0l0,0
		c0.5-0.6,1.5-0.7,2.1-0.1l0,0c0.6,0.5,0.7,1.5,0.1,2.1l0,0c-0.3,0.3-0.7,0.5-1.1,0.5l0,0C368.7,304,368.4,303.9,368.1,303.6z
		 M372.1,297.1c-0.8-0.1-1.4-0.9-1.2-1.7l0,0c0.1-0.8,0.9-1.4,1.7-1.2l0,0c0.8,0.1,1.4,0.9,1.2,1.7l0,0c-0.1,0.7-0.8,1.3-1.5,1.3
		l0,0C372.2,297.1,372.1,297.1,372.1,297.1z M370.4,288.4L370.4,288.4L370.4,288.4c-0.2-0.8,0.3-1.6,1.1-1.8l0,0
		c0.8-0.2,1.6,0.3,1.8,1.1l0,0c0.2,0.8-0.3,1.6-1.1,1.8l0,0c-0.1,0-0.2,0-0.4,0l0,0C371.2,289.5,370.6,289.1,370.4,288.4z
		 M367.9,281.5c-0.4-0.7,0-1.6,0.7-2l0,0c0.8-0.4,1.7,0,2,0.7l0,0c0.4,0.8,0,1.6-0.7,2l0,0c-0.2,0.1-0.4,0.1-0.6,0.1l0,0
		C368.7,282.4,368.2,282,367.9,281.5z"/>
	<path class="st0" d="M365.5,275.6c-0.2,0-0.4,0-0.6-0.1c-0.2-0.1-0.3-0.2-0.5-0.3c-0.1-0.1-0.2-0.3-0.3-0.5
		c-0.1-0.2-0.1-0.4-0.1-0.6c0-0.4,0.2-0.8,0.4-1.1c0.3-0.3,0.9-0.5,1.4-0.4c0.1,0,0.2,0,0.3,0.1s0.2,0.1,0.3,0.1
		c0.1,0,0.2,0.1,0.2,0.2c0.3,0.3,0.5,0.7,0.5,1.1c0,0.4-0.2,0.8-0.5,1.1C366.3,275.5,365.9,275.6,365.5,275.6z"/>
</g>
<path class="st1" d="M373.9,201.9c-1.2-5.2-3.2-10-6-14c-3.7-5.2-9-9.1-13.9-13.3c-4.9-4.1-9.8-8.7-12.3-14.6
	c-2.9-6.9-3.7-12.3,0.9-18.8c3-4.3,7.1-7.8,9.5-12.5c4.1-8.1,2.4-18.1-2.1-26c-13.5-23.6-44.4-40.2-71.5-36.4
	c-14.7,2.1-27.7,10.3-41.5,15.9c-22.5,9.1-43,5.2-65.9,8.6c-14.3,2.1-29.4,3.3-43,8.6c-15.8,6.1-28.7,17.8-38.7,30.5
	c-11.7,14.8-20.6,33.7-14.5,51c2.6,7.3,7.8,13.7,14.2,18.6c5.4,4.1,11.8,7.4,14.9,13.2c5.5,10.6,0.2,20.8-7.2,28.9
	c-8.3,9.2-15.5,16.1-18.2,28.8c-2.4,11.1-1.4,22.7,1.3,33.7c6.7,27.4,25.3,48.7,54.5,52.3c17.8,2.2,35.2-2.6,50.9-10.8
	c13.9-7.2,24.3-20.4,38.9-26.2c11-4.4,23.3-3.3,35.2-3.5c22.6-0.2,46-4.6,66.7-14c13.4-6.1,25.8-15.2,33.6-27.7
	C370.1,257.5,379.2,224.9,373.9,201.9z"/>
<g>
	<g class="st2">
		<path class="st3" d="M143.2,189.6c0,0.8,0.7,1.5,1.5,1.5c0.8,0,1.5-0.7,1.5-1.5c0-0.8-0.7-1.5-1.5-1.5
			C143.9,188.1,143.2,188.8,143.2,189.6z"/>
		<path class="st3" d="M143.2,178.3c0,0.8,0.7,1.5,1.5,1.5c0.8,0,1.5-0.7,1.5-1.5c0-0.8-0.7-1.5-1.5-1.5
			C143.9,176.8,143.2,177.5,143.2,178.3z"/>
		<path class="st3" d="M143.2,167.1c0,0.8,0.7,1.5,1.5,1.5c0.8,0,1.5-0.7,1.5-1.5c0-0.8-0.7-1.5-1.5-1.5
			C143.9,165.6,143.2,166.3,143.2,167.1z"/>
		<path class="st3" d="M143.2,155.8c0,0.8,0.7,1.5,1.5,1.5c0.8,0,1.5-0.7,1.5-1.5c0-0.8-0.7-1.5-1.5-1.5
			C143.9,154.3,143.2,155,143.2,155.8z"/>
		<path class="st3" d="M143.2,144.6c0,0.8,0.7,1.5,1.5,1.5c0.8,0,1.5-0.7,1.5-1.5c0-0.8-0.7-1.5-1.5-1.5
			C143.9,143.1,143.2,143.8,143.2,144.6z"/>
		<path class="st3" d="M143.2,133.3c0,0.8,0.7,1.5,1.5,1.5c0.8,0,1.5-0.7,1.5-1.5c0-0.8-0.7-1.5-1.5-1.5
			C143.9,131.9,143.2,132.5,143.2,133.3z"/>
		<path class="st3" d="M143.2,122.1c0,0.8,0.7,1.5,1.5,1.5c0.8,0,1.5-0.7,1.5-1.5c0-0.8-0.7-1.5-1.5-1.5
			C143.9,120.6,143.2,121.3,143.2,122.1z"/>
		<path class="st3" d="M154.5,189.6c0,0.8,0.7,1.5,1.5,1.5c0.8,0,1.5-0.7,1.5-1.5c0-0.8-0.7-1.5-1.5-1.5
			C155.1,188.1,154.5,188.8,154.5,189.6z"/>
		<path class="st3" d="M154.5,178.3c0,0.8,0.7,1.5,1.5,1.5c0.8,0,1.5-0.7,1.5-1.5c0-0.8-0.7-1.5-1.5-1.5
			C155.1,176.8,154.5,177.5,154.5,178.3z"/>
		<path class="st3" d="M154.5,167.1c0,0.8,0.7,1.5,1.5,1.5c0.8,0,1.5-0.7,1.5-1.5c0-0.8-0.7-1.5-1.5-1.5
			C155.1,165.6,154.5,166.3,154.5,167.1z"/>
		<path class="st3" d="M154.5,155.8c0,0.8,0.7,1.5,1.5,1.5c0.8,0,1.5-0.7,1.5-1.5c0-0.8-0.7-1.5-1.5-1.5
			C155.1,154.3,154.5,155,154.5,155.8z"/>
		<path class="st3" d="M154.5,144.6c0,0.8,0.7,1.5,1.5,1.5c0.8,0,1.5-0.7,1.5-1.5c0-0.8-0.7-1.5-1.5-1.5
			C155.1,143.1,154.5,143.8,154.5,144.6z"/>
		<path class="st3" d="M154.5,133.3c0,0.8,0.7,1.5,1.5,1.5c0.8,0,1.5-0.7,1.5-1.5c0-0.8-0.7-1.5-1.5-1.5
			C155.1,131.9,154.5,132.5,154.5,133.3z"/>
		<path class="st3" d="M154.5,122.1c0,0.8,0.7,1.5,1.5,1.5c0.8,0,1.5-0.7,1.5-1.5c0-0.8-0.7-1.5-1.5-1.5
			C155.1,120.6,154.5,121.3,154.5,122.1z"/>
		<path class="st3" d="M165.7,189.6c0,0.8,0.7,1.5,1.5,1.5c0.8,0,1.5-0.7,1.5-1.5c0-0.8-0.7-1.5-1.5-1.5
			C166.4,188.1,165.7,188.8,165.7,189.6z"/>
		<path class="st3" d="M165.7,178.3c0,0.8,0.7,1.5,1.5,1.5c0.8,0,1.5-0.7,1.5-1.5c0-0.8-0.7-1.5-1.5-1.5
			C166.4,176.8,165.7,177.5,165.7,178.3z"/>
		<path class="st3" d="M177,189.6c0,0.8,0.7,1.5,1.5,1.5c0.8,0,1.5-0.7,1.5-1.5c0-0.8-0.7-1.5-1.5-1.5
			C177.7,188.1,177,188.8,177,189.6z"/>
		<path class="st3" d="M177,178.3c0,0.8,0.7,1.5,1.5,1.5c0.8,0,1.5-0.7,1.5-1.5c0-0.8-0.7-1.5-1.5-1.5
			C177.7,176.8,177,177.5,177,178.3z"/>
		<path class="st3" d="M165.7,167.1c0,0.8,0.7,1.5,1.5,1.5c0.8,0,1.5-0.7,1.5-1.5c0-0.8-0.7-1.5-1.5-1.5
			C166.4,165.6,165.7,166.3,165.7,167.1z"/>
		<path class="st3" d="M165.7,155.8c0,0.8,0.7,1.5,1.5,1.5c0.8,0,1.5-0.7,1.5-1.5c0-0.8-0.7-1.5-1.5-1.5
			C166.4,154.3,165.7,155,165.7,155.8z"/>
		<path class="st3" d="M177,167.1c0,0.8,0.7,1.5,1.5,1.5c0.8,0,1.5-0.7,1.5-1.5c0-0.8-0.7-1.5-1.5-1.5
			C177.7,165.6,177,166.3,177,167.1z"/>
		<path class="st3" d="M177,155.8c0,0.8,0.7,1.5,1.5,1.5c0.8,0,1.5-0.7,1.5-1.5c0-0.8-0.7-1.5-1.5-1.5
			C177.7,154.3,177,155,177,155.8z"/>
		<path class="st3" d="M165.7,144.6c0,0.8,0.7,1.5,1.5,1.5c0.8,0,1.5-0.7,1.5-1.5c0-0.8-0.7-1.5-1.5-1.5
			C166.4,143.1,165.7,143.8,165.7,144.6z"/>
		<path class="st3" d="M165.7,133.3c0,0.8,0.7,1.5,1.5,1.5c0.8,0,1.5-0.7,1.5-1.5c0-0.8-0.7-1.5-1.5-1.5
			C166.4,131.9,165.7,132.5,165.7,133.3z"/>
		<path class="st3" d="M177,144.6c0,0.8,0.7,1.5,1.5,1.5c0.8,0,1.5-0.7,1.5-1.5c0-0.8-0.7-1.5-1.5-1.5
			C177.7,143.1,177,143.8,177,144.6z"/>
		<path class="st3" d="M177,133.3c0,0.8,0.7,1.5,1.5,1.5c0.8,0,1.5-0.7,1.5-1.5c0-0.8-0.7-1.5-1.5-1.5
			C177.7,131.9,177,132.5,177,133.3z"/>
		<path class="st3" d="M165.7,122.1c0,0.8,0.7,1.5,1.5,1.5c0.8,0,1.5-0.7,1.5-1.5c0-0.8-0.7-1.5-1.5-1.5
			C166.4,120.6,165.7,121.3,165.7,122.1z"/>
		<path class="st3" d="M177,122.1c0,0.8,0.7,1.5,1.5,1.5c0.8,0,1.5-0.7,1.5-1.5c0-0.8-0.7-1.5-1.5-1.5
			C177.7,120.6,177,121.3,177,122.1z"/>
		<path class="st3" d="M188.2,189.6c0,0.8,0.7,1.5,1.5,1.5c0.8,0,1.5-0.7,1.5-1.5c0-0.8-0.7-1.5-1.5-1.5
			C188.9,188.1,188.2,188.8,188.2,189.6z"/>
		<path class="st3" d="M188.2,178.3c0,0.8,0.7,1.5,1.5,1.5c0.8,0,1.5-0.7,1.5-1.5c0-0.8-0.7-1.5-1.5-1.5
			C188.9,176.8,188.2,177.5,188.2,178.3z"/>
		<path class="st3" d="M199.5,189.6c0,0.8,0.7,1.5,1.5,1.5c0.8,0,1.5-0.7,1.5-1.5c0-0.8-0.7-1.5-1.5-1.5
			C200.2,188.1,199.5,188.8,199.5,189.6z"/>
		<path class="st3" d="M199.5,178.3c0,0.8,0.7,1.5,1.5,1.5c0.8,0,1.5-0.7,1.5-1.5c0-0.8-0.7-1.5-1.5-1.5
			C200.2,176.8,199.5,177.5,199.5,178.3z"/>
		<path class="st3" d="M188.2,167.1c0,0.8,0.7,1.5,1.5,1.5c0.8,0,1.5-0.7,1.5-1.5c0-0.8-0.7-1.5-1.5-1.5
			C188.9,165.6,188.2,166.3,188.2,167.1z"/>
		<path class="st3" d="M188.2,155.8c0,0.8,0.7,1.5,1.5,1.5c0.8,0,1.5-0.7,1.5-1.5c0-0.8-0.7-1.5-1.5-1.5
			C188.9,154.3,188.2,155,188.2,155.8z"/>
		<path class="st3" d="M199.5,167.1c0,0.8,0.7,1.5,1.5,1.5c0.8,0,1.5-0.7,1.5-1.5c0-0.8-0.7-1.5-1.5-1.5
			C200.2,165.6,199.5,166.3,199.5,167.1z"/>
		<path class="st3" d="M199.5,155.8c0,0.8,0.7,1.5,1.5,1.5c0.8,0,1.5-0.7,1.5-1.5c0-0.8-0.7-1.5-1.5-1.5
			C200.2,154.3,199.5,155,199.5,155.8z"/>
		<path class="st3" d="M188.2,144.6c0,0.8,0.7,1.5,1.5,1.5c0.8,0,1.5-0.7,1.5-1.5c0-0.8-0.7-1.5-1.5-1.5
			C188.9,143.1,188.2,143.8,188.2,144.6z"/>
		<path class="st3" d="M188.2,133.3c0,0.8,0.7,1.5,1.5,1.5c0.8,0,1.5-0.7,1.5-1.5c0-0.8-0.7-1.5-1.5-1.5
			C188.9,131.9,188.2,132.5,188.2,133.3z"/>
		<path class="st3" d="M199.5,144.6c0,0.8,0.7,1.5,1.5,1.5c0.8,0,1.5-0.7,1.5-1.5c0-0.8-0.7-1.5-1.5-1.5
			C200.2,143.1,199.5,143.8,199.5,144.6z"/>
		<path class="st3" d="M199.5,133.3c0,0.8,0.7,1.5,1.5,1.5c0.8,0,1.5-0.7,1.5-1.5c0-0.8-0.7-1.5-1.5-1.5
			C200.2,131.9,199.5,132.5,199.5,133.3z"/>
		<path class="st3" d="M188.2,122.1c0,0.8,0.7,1.5,1.5,1.5c0.8,0,1.5-0.7,1.5-1.5c0-0.8-0.7-1.5-1.5-1.5
			C188.9,120.6,188.2,121.3,188.2,122.1z"/>
		<path class="st3" d="M199.5,122.1c0,0.8,0.7,1.5,1.5,1.5c0.8,0,1.5-0.7,1.5-1.5c0-0.8-0.7-1.5-1.5-1.5
			C200.2,120.6,199.5,121.3,199.5,122.1z"/>
		<path class="st3" d="M210.7,189.6c0,0.8,0.7,1.5,1.5,1.5c0.8,0,1.5-0.7,1.5-1.5c0-0.8-0.7-1.5-1.5-1.5
			C211.4,188.1,210.7,188.8,210.7,189.6z"/>
		<path class="st3" d="M210.7,178.3c0,0.8,0.7,1.5,1.5,1.5c0.8,0,1.5-0.7,1.5-1.5c0-0.8-0.7-1.5-1.5-1.5
			C211.4,176.8,210.7,177.5,210.7,178.3z"/>
		<path class="st3" d="M222,189.6c0,0.8,0.7,1.5,1.5,1.5c0.8,0,1.5-0.7,1.5-1.5c0-0.8-0.7-1.5-1.5-1.5
			C222.7,188.1,222,188.8,222,189.6z"/>
		<path class="st3" d="M222,178.3c0,0.8,0.7,1.5,1.5,1.5c0.8,0,1.5-0.7,1.5-1.5c0-0.8-0.7-1.5-1.5-1.5
			C222.7,176.8,222,177.5,222,178.3z"/>
		<path class="st3" d="M210.7,167.1c0,0.8,0.7,1.5,1.5,1.5c0.8,0,1.5-0.7,1.5-1.5c0-0.8-0.7-1.5-1.5-1.5
			C211.4,165.6,210.7,166.3,210.7,167.1z"/>
		<path class="st3" d="M210.7,155.8c0,0.8,0.7,1.5,1.5,1.5c0.8,0,1.5-0.7,1.5-1.5c0-0.8-0.7-1.5-1.5-1.5
			C211.4,154.3,210.7,155,210.7,155.8z"/>
		<path class="st3" d="M222,167.1c0,0.8,0.7,1.5,1.5,1.5c0.8,0,1.5-0.7,1.5-1.5c0-0.8-0.7-1.5-1.5-1.5
			C222.7,165.6,222,166.3,222,167.1z"/>
		<path class="st3" d="M222,155.8c0,0.8,0.7,1.5,1.5,1.5c0.8,0,1.5-0.7,1.5-1.5c0-0.8-0.7-1.5-1.5-1.5
			C222.7,154.3,222,155,222,155.8z"/>
		<path class="st3" d="M210.7,144.6c0,0.8,0.7,1.5,1.5,1.5c0.8,0,1.5-0.7,1.5-1.5c0-0.8-0.7-1.5-1.5-1.5
			C211.4,143.1,210.7,143.8,210.7,144.6z"/>
		<path class="st3" d="M210.7,133.3c0,0.8,0.7,1.5,1.5,1.5c0.8,0,1.5-0.7,1.5-1.5c0-0.8-0.7-1.5-1.5-1.5
			C211.4,131.9,210.7,132.5,210.7,133.3z"/>
		<path class="st3" d="M222,144.6c0,0.8,0.7,1.5,1.5,1.5c0.8,0,1.5-0.7,1.5-1.5c0-0.8-0.7-1.5-1.5-1.5
			C222.7,143.1,222,143.8,222,144.6z"/>
		<path class="st3" d="M222,133.3c0,0.8,0.7,1.5,1.5,1.5c0.8,0,1.5-0.7,1.5-1.5c0-0.8-0.7-1.5-1.5-1.5
			C222.7,131.9,222,132.5,222,133.3z"/>
		<path class="st3" d="M210.7,122.1c0,0.8,0.7,1.5,1.5,1.5c0.8,0,1.5-0.7,1.5-1.5c0-0.8-0.7-1.5-1.5-1.5
			C211.4,120.6,210.7,121.3,210.7,122.1z"/>
		<path class="st3" d="M222,122.1c0,0.8,0.7,1.5,1.5,1.5c0.8,0,1.5-0.7,1.5-1.5c0-0.8-0.7-1.5-1.5-1.5
			C222.7,120.6,222,121.3,222,122.1z"/>
		<path class="st3" d="M233.2,189.6c0,0.8,0.7,1.5,1.5,1.5c0.8,0,1.5-0.7,1.5-1.5c0-0.8-0.7-1.5-1.5-1.5
			C233.9,188.1,233.2,188.8,233.2,189.6z"/>
		<path class="st3" d="M233.2,178.3c0,0.8,0.7,1.5,1.5,1.5c0.8,0,1.5-0.7,1.5-1.5c0-0.8-0.7-1.5-1.5-1.5
			C233.9,176.8,233.2,177.5,233.2,178.3z"/>
		<path class="st3" d="M244.5,189.6c0,0.8,0.7,1.5,1.5,1.5c0.8,0,1.5-0.7,1.5-1.5c0-0.8-0.7-1.5-1.5-1.5
			C245.2,188.1,244.5,188.8,244.5,189.6z"/>
		<path class="st3" d="M244.5,178.3c0,0.8,0.7,1.5,1.5,1.5c0.8,0,1.5-0.7,1.5-1.5c0-0.8-0.7-1.5-1.5-1.5
			C245.2,176.8,244.5,177.5,244.5,178.3z"/>
		<path class="st3" d="M233.2,167.1c0,0.8,0.7,1.5,1.5,1.5c0.8,0,1.5-0.7,1.5-1.5c0-0.8-0.7-1.5-1.5-1.5
			C233.9,165.6,233.2,166.3,233.2,167.1z"/>
		<path class="st3" d="M233.2,155.8c0,0.8,0.7,1.5,1.5,1.5c0.8,0,1.5-0.7,1.5-1.5c0-0.8-0.7-1.5-1.5-1.5
			C233.9,154.3,233.2,155,233.2,155.8z"/>
		<path class="st3" d="M244.5,167.1c0,0.8,0.7,1.5,1.5,1.5c0.8,0,1.5-0.7,1.5-1.5c0-0.8-0.7-1.5-1.5-1.5
			C245.2,165.6,244.5,166.3,244.5,167.1z"/>
		<path class="st3" d="M244.5,155.8c0,0.8,0.7,1.5,1.5,1.5c0.8,0,1.5-0.7,1.5-1.5c0-0.8-0.7-1.5-1.5-1.5
			C245.2,154.3,244.5,155,244.5,155.8z"/>
		<path class="st3" d="M233.2,144.6c0,0.8,0.7,1.5,1.5,1.5c0.8,0,1.5-0.7,1.5-1.5c0-0.8-0.7-1.5-1.5-1.5
			C233.9,143.1,233.2,143.8,233.2,144.6z"/>
		<path class="st3" d="M233.2,133.3c0,0.8,0.7,1.5,1.5,1.5c0.8,0,1.5-0.7,1.5-1.5c0-0.8-0.7-1.5-1.5-1.5
			C233.9,131.9,233.2,132.5,233.2,133.3z"/>
		<path class="st3" d="M244.5,144.6c0,0.8,0.7,1.5,1.5,1.5c0.8,0,1.5-0.7,1.5-1.5c0-0.8-0.7-1.5-1.5-1.5
			C245.2,143.1,244.5,143.8,244.5,144.6z"/>
		<path class="st3" d="M244.5,133.3c0,0.8,0.7,1.5,1.5,1.5c0.8,0,1.5-0.7,1.5-1.5c0-0.8-0.7-1.5-1.5-1.5
			C245.2,131.9,244.5,132.5,244.5,133.3z"/>
		<path class="st3" d="M233.2,122.1c0,0.8,0.7,1.5,1.5,1.5c0.8,0,1.5-0.7,1.5-1.5c0-0.8-0.7-1.5-1.5-1.5
			C233.9,120.6,233.2,121.3,233.2,122.1z"/>
		<path class="st3" d="M244.5,122.1c0,0.8,0.7,1.5,1.5,1.5c0.8,0,1.5-0.7,1.5-1.5c0-0.8-0.7-1.5-1.5-1.5
			C245.2,120.6,244.5,121.3,244.5,122.1z"/>
		<path class="st3" d="M255.8,189.6c0,0.8,0.7,1.5,1.5,1.5s1.5-0.7,1.5-1.5c0-0.8-0.7-1.5-1.5-1.5S255.8,188.8,255.8,189.6z"/>
		<path class="st3" d="M255.8,178.3c0,0.8,0.7,1.5,1.5,1.5s1.5-0.7,1.5-1.5c0-0.8-0.7-1.5-1.5-1.5S255.8,177.5,255.8,178.3z"/>
		<path class="st3" d="M267,189.6c0,0.8,0.7,1.5,1.5,1.5c0.8,0,1.5-0.7,1.5-1.5c0-0.8-0.7-1.5-1.5-1.5
			C267.7,188.1,267,188.8,267,189.6z"/>
		<path class="st3" d="M267,178.3c0,0.8,0.7,1.5,1.5,1.5c0.8,0,1.5-0.7,1.5-1.5c0-0.8-0.7-1.5-1.5-1.5
			C267.7,176.8,267,177.5,267,178.3z"/>
		<path class="st3" d="M255.8,167.1c0,0.8,0.7,1.5,1.5,1.5s1.5-0.7,1.5-1.5c0-0.8-0.7-1.5-1.5-1.5S255.8,166.3,255.8,167.1z"/>
		<path class="st3" d="M255.8,155.8c0,0.8,0.7,1.5,1.5,1.5s1.5-0.7,1.5-1.5c0-0.8-0.7-1.5-1.5-1.5S255.8,155,255.8,155.8z"/>
		<path class="st3" d="M267,167.1c0,0.8,0.7,1.5,1.5,1.5c0.8,0,1.5-0.7,1.5-1.5c0-0.8-0.7-1.5-1.5-1.5
			C267.7,165.6,267,166.3,267,167.1z"/>
		<path class="st3" d="M267,155.8c0,0.8,0.7,1.5,1.5,1.5c0.8,0,1.5-0.7,1.5-1.5c0-0.8-0.7-1.5-1.5-1.5
			C267.7,154.3,267,155,267,155.8z"/>
		<path class="st3" d="M255.8,144.6c0,0.8,0.7,1.5,1.5,1.5s1.5-0.7,1.5-1.5c0-0.8-0.7-1.5-1.5-1.5S255.8,143.8,255.8,144.6z"/>
		<path class="st3" d="M255.8,133.3c0,0.8,0.7,1.5,1.5,1.5s1.5-0.7,1.5-1.5c0-0.8-0.7-1.5-1.5-1.5S255.8,132.5,255.8,133.3z"/>
		<path class="st3" d="M267,144.6c0,0.8,0.7,1.5,1.5,1.5c0.8,0,1.5-0.7,1.5-1.5c0-0.8-0.7-1.5-1.5-1.5
			C267.7,143.1,267,143.8,267,144.6z"/>
		<path class="st3" d="M267,133.3c0,0.8,0.7,1.5,1.5,1.5c0.8,0,1.5-0.7,1.5-1.5c0-0.8-0.7-1.5-1.5-1.5
			C267.7,131.9,267,132.5,267,133.3z"/>
		<path class="st3" d="M255.8,122.1c0,0.8,0.7,1.5,1.5,1.5s1.5-0.7,1.5-1.5c0-0.8-0.7-1.5-1.5-1.5S255.8,121.3,255.8,122.1z"/>
		<path class="st3" d="M267,122.1c0,0.8,0.7,1.5,1.5,1.5c0.8,0,1.5-0.7,1.5-1.5c0-0.8-0.7-1.5-1.5-1.5
			C267.7,120.6,267,121.3,267,122.1z"/>
		<path class="st3" d="M278.3,189.6c0,0.8,0.7,1.5,1.5,1.5c0.8,0,1.5-0.7,1.5-1.5c0-0.8-0.7-1.5-1.5-1.5
			C278.9,188.1,278.3,188.8,278.3,189.6z"/>
		<path class="st3" d="M278.3,178.3c0,0.8,0.7,1.5,1.5,1.5c0.8,0,1.5-0.7,1.5-1.5c0-0.8-0.7-1.5-1.5-1.5
			C278.9,176.8,278.3,177.5,278.3,178.3z"/>
		<path class="st3" d="M278.3,167.1c0,0.8,0.7,1.5,1.5,1.5c0.8,0,1.5-0.7,1.5-1.5c0-0.8-0.7-1.5-1.5-1.5
			C278.9,165.6,278.3,166.3,278.3,167.1z"/>
		<path class="st3" d="M278.3,155.8c0,0.8,0.7,1.5,1.5,1.5c0.8,0,1.5-0.7,1.5-1.5c0-0.8-0.7-1.5-1.5-1.5
			C278.9,154.3,278.3,155,278.3,155.8z"/>
		<path class="st3" d="M278.3,144.6c0,0.8,0.7,1.5,1.5,1.5c0.8,0,1.5-0.7,1.5-1.5c0-0.8-0.7-1.5-1.5-1.5
			C278.9,143.1,278.3,143.8,278.3,144.6z"/>
		<path class="st3" d="M278.3,133.3c0,0.8,0.7,1.5,1.5,1.5c0.8,0,1.5-0.7,1.5-1.5c0-0.8-0.7-1.5-1.5-1.5
			C278.9,131.9,278.3,132.5,278.3,133.3z"/>
		<path class="st3" d="M278.3,122.1c0,0.8,0.7,1.5,1.5,1.5c0.8,0,1.5-0.7,1.5-1.5c0-0.8-0.7-1.5-1.5-1.5
			C278.9,120.6,278.3,121.3,278.3,122.1z"/>
		<path class="st3" d="M143.2,257c0,0.8,0.7,1.5,1.5,1.5c0.8,0,1.5-0.7,1.5-1.5c0-0.8-0.7-1.5-1.5-1.5
			C143.9,255.6,143.2,256.2,143.2,257z"/>
		<path class="st3" d="M143.2,245.8c0,0.8,0.7,1.5,1.5,1.5c0.8,0,1.5-0.7,1.5-1.5c0-0.8-0.7-1.5-1.5-1.5
			C143.9,244.3,143.2,245,143.2,245.8z"/>
		<path class="st3" d="M143.2,234.6c0,0.8,0.7,1.5,1.5,1.5c0.8,0,1.5-0.7,1.5-1.5c0-0.8-0.7-1.5-1.5-1.5
			C143.9,233.1,143.2,233.7,143.2,234.6z"/>
		<path class="st3" d="M143.2,223.3c0,0.8,0.7,1.5,1.5,1.5c0.8,0,1.5-0.7,1.5-1.5c0-0.8-0.7-1.5-1.5-1.5
			C143.9,221.8,143.2,222.5,143.2,223.3z"/>
		<path class="st3" d="M143.2,212.1c0,0.8,0.7,1.5,1.5,1.5c0.8,0,1.5-0.7,1.5-1.5c0-0.8-0.7-1.5-1.5-1.5
			C143.9,210.6,143.2,211.3,143.2,212.1z"/>
		<path class="st3" d="M143.2,200.8c0,0.8,0.7,1.5,1.5,1.5c0.8,0,1.5-0.7,1.5-1.5c0-0.8-0.7-1.5-1.5-1.5
			C143.9,199.4,143.2,200,143.2,200.8z"/>
		<path class="st3" d="M154.5,257c0,0.8,0.7,1.5,1.5,1.5c0.8,0,1.5-0.7,1.5-1.5c0-0.8-0.7-1.5-1.5-1.5
			C155.1,255.6,154.5,256.2,154.5,257z"/>
		<path class="st3" d="M154.5,245.8c0,0.8,0.7,1.5,1.5,1.5c0.8,0,1.5-0.7,1.5-1.5c0-0.8-0.7-1.5-1.5-1.5
			C155.1,244.3,154.5,245,154.5,245.8z"/>
		<path class="st3" d="M154.5,234.6c0,0.8,0.7,1.5,1.5,1.5c0.8,0,1.5-0.7,1.5-1.5c0-0.8-0.7-1.5-1.5-1.5
			C155.1,233.1,154.5,233.7,154.5,234.6z"/>
		<path class="st3" d="M154.5,223.3c0,0.8,0.7,1.5,1.5,1.5c0.8,0,1.5-0.7,1.5-1.5c0-0.8-0.7-1.5-1.5-1.5
			C155.1,221.8,154.5,222.5,154.5,223.3z"/>
		<path class="st3" d="M154.5,212.1c0,0.8,0.7,1.5,1.5,1.5c0.8,0,1.5-0.7,1.5-1.5c0-0.8-0.7-1.5-1.5-1.5
			C155.1,210.6,154.5,211.3,154.5,212.1z"/>
		<path class="st3" d="M154.5,200.8c0,0.8,0.7,1.5,1.5,1.5c0.8,0,1.5-0.7,1.5-1.5c0-0.8-0.7-1.5-1.5-1.5
			C155.1,199.4,154.5,200,154.5,200.8z"/>
		<path class="st3" d="M165.7,257c0,0.8,0.7,1.5,1.5,1.5c0.8,0,1.5-0.7,1.5-1.5c0-0.8-0.7-1.5-1.5-1.5
			C166.4,255.6,165.7,256.2,165.7,257z"/>
		<path class="st3" d="M177,257c0,0.8,0.7,1.5,1.5,1.5c0.8,0,1.5-0.7,1.5-1.5c0-0.8-0.7-1.5-1.5-1.5C177.7,255.6,177,256.2,177,257z
			"/>
		<path class="st3" d="M165.7,245.8c0,0.8,0.7,1.5,1.5,1.5c0.8,0,1.5-0.7,1.5-1.5c0-0.8-0.7-1.5-1.5-1.5
			C166.4,244.3,165.7,245,165.7,245.8z"/>
		<path class="st3" d="M165.7,234.6c0,0.8,0.7,1.5,1.5,1.5c0.8,0,1.5-0.7,1.5-1.5c0-0.8-0.7-1.5-1.5-1.5
			C166.4,233.1,165.7,233.7,165.7,234.6z"/>
		<path class="st3" d="M177,245.8c0,0.8,0.7,1.5,1.5,1.5c0.8,0,1.5-0.7,1.5-1.5c0-0.8-0.7-1.5-1.5-1.5
			C177.7,244.3,177,245,177,245.8z"/>
		<path class="st3" d="M177,234.6c0,0.8,0.7,1.5,1.5,1.5c0.8,0,1.5-0.7,1.5-1.5c0-0.8-0.7-1.5-1.5-1.5
			C177.7,233.1,177,233.7,177,234.6z"/>
		<path class="st3" d="M165.7,223.3c0,0.8,0.7,1.5,1.5,1.5c0.8,0,1.5-0.7,1.5-1.5c0-0.8-0.7-1.5-1.5-1.5
			C166.4,221.8,165.7,222.5,165.7,223.3z"/>
		<path class="st3" d="M165.7,212.1c0,0.8,0.7,1.5,1.5,1.5c0.8,0,1.5-0.7,1.5-1.5c0-0.8-0.7-1.5-1.5-1.5
			C166.4,210.6,165.7,211.3,165.7,212.1z"/>
		<path class="st3" d="M177,223.3c0,0.8,0.7,1.5,1.5,1.5c0.8,0,1.5-0.7,1.5-1.5c0-0.8-0.7-1.5-1.5-1.5
			C177.7,221.8,177,222.5,177,223.3z"/>
		<path class="st3" d="M177,212.1c0,0.8,0.7,1.5,1.5,1.5c0.8,0,1.5-0.7,1.5-1.5c0-0.8-0.7-1.5-1.5-1.5
			C177.7,210.6,177,211.3,177,212.1z"/>
		<path class="st3" d="M165.7,200.8c0,0.8,0.7,1.5,1.5,1.5c0.8,0,1.5-0.7,1.5-1.5c0-0.8-0.7-1.5-1.5-1.5
			C166.4,199.4,165.7,200,165.7,200.8z"/>
		<path class="st3" d="M177,200.8c0,0.8,0.7,1.5,1.5,1.5c0.8,0,1.5-0.7,1.5-1.5c0-0.8-0.7-1.5-1.5-1.5
			C177.7,199.4,177,200,177,200.8z"/>
		<path class="st3" d="M188.2,257c0,0.8,0.7,1.5,1.5,1.5c0.8,0,1.5-0.7,1.5-1.5c0-0.8-0.7-1.5-1.5-1.5
			C188.9,255.6,188.2,256.2,188.2,257z"/>
		<path class="st3" d="M199.5,257c0,0.8,0.7,1.5,1.5,1.5c0.8,0,1.5-0.7,1.5-1.5c0-0.8-0.7-1.5-1.5-1.5
			C200.2,255.6,199.5,256.2,199.5,257z"/>
		<path class="st3" d="M188.2,245.8c0,0.8,0.7,1.5,1.5,1.5c0.8,0,1.5-0.7,1.5-1.5c0-0.8-0.7-1.5-1.5-1.5
			C188.9,244.3,188.2,245,188.2,245.8z"/>
		<path class="st3" d="M188.2,234.6c0,0.8,0.7,1.5,1.5,1.5c0.8,0,1.5-0.7,1.5-1.5c0-0.8-0.7-1.5-1.5-1.5
			C188.9,233.1,188.2,233.7,188.2,234.6z"/>
		<path class="st3" d="M199.5,245.8c0,0.8,0.7,1.5,1.5,1.5c0.8,0,1.5-0.7,1.5-1.5c0-0.8-0.7-1.5-1.5-1.5
			C200.2,244.3,199.5,245,199.5,245.8z"/>
		<path class="st3" d="M199.5,234.6c0,0.8,0.7,1.5,1.5,1.5c0.8,0,1.5-0.7,1.5-1.5c0-0.8-0.7-1.5-1.5-1.5
			C200.2,233.1,199.5,233.7,199.5,234.6z"/>
		<path class="st3" d="M188.2,223.3c0,0.8,0.7,1.5,1.5,1.5c0.8,0,1.5-0.7,1.5-1.5c0-0.8-0.7-1.5-1.5-1.5
			C188.9,221.8,188.2,222.5,188.2,223.3z"/>
		<path class="st3" d="M188.2,212.1c0,0.8,0.7,1.5,1.5,1.5c0.8,0,1.5-0.7,1.5-1.5c0-0.8-0.7-1.5-1.5-1.5
			C188.9,210.6,188.2,211.3,188.2,212.1z"/>
		<path class="st3" d="M199.5,223.3c0,0.8,0.7,1.5,1.5,1.5c0.8,0,1.5-0.7,1.5-1.5c0-0.8-0.7-1.5-1.5-1.5
			C200.2,221.8,199.5,222.5,199.5,223.3z"/>
		<path class="st3" d="M199.5,212.1c0,0.8,0.7,1.5,1.5,1.5c0.8,0,1.5-0.7,1.5-1.5c0-0.8-0.7-1.5-1.5-1.5
			C200.2,210.6,199.5,211.3,199.5,212.1z"/>
		<path class="st3" d="M188.2,200.8c0,0.8,0.7,1.5,1.5,1.5c0.8,0,1.5-0.7,1.5-1.5c0-0.8-0.7-1.5-1.5-1.5
			C188.9,199.4,188.2,200,188.2,200.8z"/>
		<path class="st3" d="M199.5,200.8c0,0.8,0.7,1.5,1.5,1.5c0.8,0,1.5-0.7,1.5-1.5c0-0.8-0.7-1.5-1.5-1.5
			C200.2,199.4,199.5,200,199.5,200.8z"/>
		<path class="st3" d="M210.7,257c0,0.8,0.7,1.5,1.5,1.5c0.8,0,1.5-0.7,1.5-1.5c0-0.8-0.7-1.5-1.5-1.5
			C211.4,255.6,210.7,256.2,210.7,257z"/>
		<path class="st3" d="M222,257c0,0.8,0.7,1.5,1.5,1.5c0.8,0,1.5-0.7,1.5-1.5c0-0.8-0.7-1.5-1.5-1.5C222.7,255.6,222,256.2,222,257z
			"/>
		<path class="st3" d="M210.7,245.8c0,0.8,0.7,1.5,1.5,1.5c0.8,0,1.5-0.7,1.5-1.5c0-0.8-0.7-1.5-1.5-1.5
			C211.4,244.3,210.7,245,210.7,245.8z"/>
		<path class="st3" d="M210.7,234.6c0,0.8,0.7,1.5,1.5,1.5c0.8,0,1.5-0.7,1.5-1.5c0-0.8-0.7-1.5-1.5-1.5
			C211.4,233.1,210.7,233.7,210.7,234.6z"/>
		<path class="st3" d="M222,245.8c0,0.8,0.7,1.5,1.5,1.5c0.8,0,1.5-0.7,1.5-1.5c0-0.8-0.7-1.5-1.5-1.5
			C222.7,244.3,222,245,222,245.8z"/>
		<path class="st3" d="M222,234.6c0,0.8,0.7,1.5,1.5,1.5c0.8,0,1.5-0.7,1.5-1.5c0-0.8-0.7-1.5-1.5-1.5
			C222.7,233.1,222,233.7,222,234.6z"/>
		<path class="st3" d="M210.7,223.3c0,0.8,0.7,1.5,1.5,1.5c0.8,0,1.5-0.7,1.5-1.5c0-0.8-0.7-1.5-1.5-1.5
			C211.4,221.8,210.7,222.5,210.7,223.3z"/>
		<path class="st3" d="M210.7,212.1c0,0.8,0.7,1.5,1.5,1.5c0.8,0,1.5-0.7,1.5-1.5c0-0.8-0.7-1.5-1.5-1.5
			C211.4,210.6,210.7,211.3,210.7,212.1z"/>
		<path class="st3" d="M222,223.3c0,0.8,0.7,1.5,1.5,1.5c0.8,0,1.5-0.7,1.5-1.5c0-0.8-0.7-1.5-1.5-1.5
			C222.7,221.8,222,222.5,222,223.3z"/>
		<path class="st3" d="M222,212.1c0,0.8,0.7,1.5,1.5,1.5c0.8,0,1.5-0.7,1.5-1.5c0-0.8-0.7-1.5-1.5-1.5
			C222.7,210.6,222,211.3,222,212.1z"/>
		<path class="st3" d="M210.7,200.8c0,0.8,0.7,1.5,1.5,1.5c0.8,0,1.5-0.7,1.5-1.5c0-0.8-0.7-1.5-1.5-1.5
			C211.4,199.4,210.7,200,210.7,200.8z"/>
		<path class="st3" d="M222,200.8c0,0.8,0.7,1.5,1.5,1.5c0.8,0,1.5-0.7,1.5-1.5c0-0.8-0.7-1.5-1.5-1.5
			C222.7,199.4,222,200,222,200.8z"/>
		<path class="st3" d="M233.2,257c0,0.8,0.7,1.5,1.5,1.5c0.8,0,1.5-0.7,1.5-1.5c0-0.8-0.7-1.5-1.5-1.5
			C233.9,255.6,233.2,256.2,233.2,257z"/>
		<path class="st3" d="M244.5,257c0,0.8,0.7,1.5,1.5,1.5c0.8,0,1.5-0.7,1.5-1.5c0-0.8-0.7-1.5-1.5-1.5
			C245.2,255.6,244.5,256.2,244.5,257z"/>
		<path class="st3" d="M233.2,245.8c0,0.8,0.7,1.5,1.5,1.5c0.8,0,1.5-0.7,1.5-1.5c0-0.8-0.7-1.5-1.5-1.5
			C233.9,244.3,233.2,245,233.2,245.8z"/>
		<path class="st3" d="M233.2,234.6c0,0.8,0.7,1.5,1.5,1.5c0.8,0,1.5-0.7,1.5-1.5c0-0.8-0.7-1.5-1.5-1.5
			C233.9,233.1,233.2,233.7,233.2,234.6z"/>
		<path class="st3" d="M244.5,245.8c0,0.8,0.7,1.5,1.5,1.5c0.8,0,1.5-0.7,1.5-1.5c0-0.8-0.7-1.5-1.5-1.5
			C245.2,244.3,244.5,245,244.5,245.8z"/>
		<path class="st3" d="M244.5,234.6c0,0.8,0.7,1.5,1.5,1.5c0.8,0,1.5-0.7,1.5-1.5c0-0.8-0.7-1.5-1.5-1.5
			C245.2,233.1,244.5,233.7,244.5,234.6z"/>
		<path class="st3" d="M233.2,223.3c0,0.8,0.7,1.5,1.5,1.5c0.8,0,1.5-0.7,1.5-1.5c0-0.8-0.7-1.5-1.5-1.5
			C233.9,221.8,233.2,222.5,233.2,223.3z"/>
		<path class="st3" d="M233.2,212.1c0,0.8,0.7,1.5,1.5,1.5c0.8,0,1.5-0.7,1.5-1.5c0-0.8-0.7-1.5-1.5-1.5
			C233.9,210.6,233.2,211.3,233.2,212.1z"/>
		<path class="st3" d="M244.5,223.3c0,0.8,0.7,1.5,1.5,1.5c0.8,0,1.5-0.7,1.5-1.5c0-0.8-0.7-1.5-1.5-1.5
			C245.2,221.8,244.5,222.5,244.5,223.3z"/>
		<path class="st3" d="M244.5,212.1c0,0.8,0.7,1.5,1.5,1.5c0.8,0,1.5-0.7,1.5-1.5c0-0.8-0.7-1.5-1.5-1.5
			C245.2,210.6,244.5,211.3,244.5,212.1z"/>
		<path class="st3" d="M233.2,200.8c0,0.8,0.7,1.5,1.5,1.5c0.8,0,1.5-0.7,1.5-1.5c0-0.8-0.7-1.5-1.5-1.5
			C233.9,199.4,233.2,200,233.2,200.8z"/>
		<path class="st3" d="M244.5,200.8c0,0.8,0.7,1.5,1.5,1.5c0.8,0,1.5-0.7,1.5-1.5c0-0.8-0.7-1.5-1.5-1.5
			C245.2,199.4,244.5,200,244.5,200.8z"/>
		<path class="st3" d="M255.8,257c0,0.8,0.7,1.5,1.5,1.5s1.5-0.7,1.5-1.5c0-0.8-0.7-1.5-1.5-1.5S255.8,256.2,255.8,257z"/>
		<path class="st3" d="M267,257c0,0.8,0.7,1.5,1.5,1.5c0.8,0,1.5-0.7,1.5-1.5c0-0.8-0.7-1.5-1.5-1.5C267.7,255.6,267,256.2,267,257z
			"/>
		<path class="st3" d="M255.8,245.8c0,0.8,0.7,1.5,1.5,1.5s1.5-0.7,1.5-1.5c0-0.8-0.7-1.5-1.5-1.5S255.8,245,255.8,245.8z"/>
		<path class="st3" d="M255.8,234.6c0,0.8,0.7,1.5,1.5,1.5s1.5-0.7,1.5-1.5c0-0.8-0.7-1.5-1.5-1.5S255.8,233.7,255.8,234.6z"/>
		<path class="st3" d="M267,245.8c0,0.8,0.7,1.5,1.5,1.5c0.8,0,1.5-0.7,1.5-1.5c0-0.8-0.7-1.5-1.5-1.5
			C267.7,244.3,267,245,267,245.8z"/>
		<path class="st3" d="M267,234.6c0,0.8,0.7,1.5,1.5,1.5c0.8,0,1.5-0.7,1.5-1.5c0-0.8-0.7-1.5-1.5-1.5
			C267.7,233.1,267,233.7,267,234.6z"/>
		<path class="st3" d="M255.8,223.3c0,0.8,0.7,1.5,1.5,1.5s1.5-0.7,1.5-1.5c0-0.8-0.7-1.5-1.5-1.5S255.8,222.5,255.8,223.3z"/>
		<path class="st3" d="M255.8,212.1c0,0.8,0.7,1.5,1.5,1.5s1.5-0.7,1.5-1.5c0-0.8-0.7-1.5-1.5-1.5S255.8,211.3,255.8,212.1z"/>
		<path class="st3" d="M267,223.3c0,0.8,0.7,1.5,1.5,1.5c0.8,0,1.5-0.7,1.5-1.5c0-0.8-0.7-1.5-1.5-1.5
			C267.7,221.8,267,222.5,267,223.3z"/>
		<path class="st3" d="M267,212.1c0,0.8,0.7,1.5,1.5,1.5c0.8,0,1.5-0.7,1.5-1.5c0-0.8-0.7-1.5-1.5-1.5
			C267.7,210.6,267,211.3,267,212.1z"/>
		<path class="st3" d="M255.8,200.8c0,0.8,0.7,1.5,1.5,1.5s1.5-0.7,1.5-1.5c0-0.8-0.7-1.5-1.5-1.5S255.8,200,255.8,200.8z"/>
		<path class="st3" d="M267,200.8c0,0.8,0.7,1.5,1.5,1.5c0.8,0,1.5-0.7,1.5-1.5c0-0.8-0.7-1.5-1.5-1.5
			C267.7,199.4,267,200,267,200.8z"/>
		<path class="st3" d="M278.3,257c0,0.8,0.7,1.5,1.5,1.5c0.8,0,1.5-0.7,1.5-1.5c0-0.8-0.7-1.5-1.5-1.5
			C278.9,255.6,278.3,256.2,278.3,257z"/>
		<path class="st3" d="M278.3,245.8c0,0.8,0.7,1.5,1.5,1.5c0.8,0,1.5-0.7,1.5-1.5c0-0.8-0.7-1.5-1.5-1.5
			C278.9,244.3,278.3,245,278.3,245.8z"/>
		<path class="st3" d="M278.3,234.6c0,0.8,0.7,1.5,1.5,1.5c0.8,0,1.5-0.7,1.5-1.5c0-0.8-0.7-1.5-1.5-1.5
			C278.9,233.1,278.3,233.7,278.3,234.6z"/>
		<path class="st3" d="M278.3,223.3c0,0.8,0.7,1.5,1.5,1.5c0.8,0,1.5-0.7,1.5-1.5c0-0.8-0.7-1.5-1.5-1.5
			C278.9,221.8,278.3,222.5,278.3,223.3z"/>
		<path class="st3" d="M278.3,212.1c0,0.8,0.7,1.5,1.5,1.5c0.8,0,1.5-0.7,1.5-1.5c0-0.8-0.7-1.5-1.5-1.5
			C278.9,210.6,278.3,211.3,278.3,212.1z"/>
		<path class="st3" d="M278.3,200.8c0,0.8,0.7,1.5,1.5,1.5c0.8,0,1.5-0.7,1.5-1.5c0-0.8-0.7-1.5-1.5-1.5
			C278.9,199.4,278.3,200,278.3,200.8z"/>
	</g>
	<g>
		<path class="st4" d="M290.9,136.8H176.4c-7.2,0-13.1,5.8-13.1,13.1v30.8h31.8v-5c0-3.9,3.1-7,7-7h63.1c3.9,0,7,3.1,7,7v5H304
			v-30.8C304,142.7,298.1,136.8,290.9,136.8z"/>
		<path class="st4" d="M272.2,235.7c0,3.9-3.1,7-7,7h-63.1c-3.9,0-7-3.1-7-7v-5h-31.8v30.8c0,7.2,5.8,13.1,13.1,13.1h114.5
			c7.2,0,13.1-5.8,13.1-13.1v-30.8h-31.8V235.7z"/>
		<rect x="163.3" y="189.8" class="st4" width="31.8" height="31.8"/>
		<rect x="272.2" y="189.8" class="st4" width="31.8" height="31.8"/>
	</g>
</g>
<g>
	<circle class="st5" cx="344.9" cy="87.3" r="27.2"/>
	<path class="st6" d="M344.9,60.1c15,0,27.2,12.2,27.2,27.2c0,15-12.2,27.2-27.2,27.2s-27.2-12.2-27.2-27.2
		C317.8,72.3,329.9,60.1,344.9,60.1 M344.9,56.1c-17.2,0-31.2,14-31.2,31.2s14,31.2,31.2,31.2s31.2-14,31.2-31.2
		S362.1,56.1,344.9,56.1L344.9,56.1z"/>
</g>
<g id="Page-1">
	<g id="ai">
		<g id="Clip-2">
		</g>
		<defs>
			<filter id="Adobe_OpacityMaskFilter" filterUnits="userSpaceOnUse" x="323.2" y="70.3" width="39.8" height="32.4">
				<feColorMatrix  type="matrix" values="1 0 0 0 0  0 1 0 0 0  0 0 1 0 0  0 0 0 1 0"/>
			</filter>
		</defs>
		<mask maskUnits="userSpaceOnUse" x="323.2" y="70.3" width="39.8" height="32.4" id="mask-2_12_">
			<g class="st7">
				<polygon id="path-1_12_" class="st8" points="323.2,70.3 363.1,70.3 363.1,102.7 323.2,102.7 				"/>
			</g>
		</mask>
		<path id="Fill-1" class="st9" d="M361.5,101.1h-12.2V90.3c0-3.4,2.7-6.1,6.1-6.1c3.4,0,6.1,2.7,6.1,6.1L361.5,101.1L361.5,101.1z
			 M342.3,77.3c1.9-1.9,5.1-1.9,7,0l5.2,5.2c-3.7,0.4-6.6,3.3-7,7l-5.2-5.2C340.4,82.3,340.4,79.2,342.3,77.3z M337.3,76.3
			c0.4-0.9,0.4-1.8,0.2-2.7l4.2,1.8c-0.3,0.2-0.5,0.4-0.7,0.6c-1.1,1.1-1.7,2.5-1.9,3.9l-2.8-1.2L337.3,76.3z M331.6,85
			c-0.1,0-0.2,0.1-0.5,0.1c-0.6,0-1.4-0.2-2.1-0.5c-1.4-0.6-2.1-1.4-2.1-1.6l4.1-9.4c0.4-1,1.4-1.6,2.4-1.6c0.4,0,0.7,0.1,1,0.2
			c0.6,0.3,1.1,0.8,1.4,1.4c0.3,0.6,0.2,1.4,0,2L331.6,85z M357.1,82.7l-6.6-6.6c-1.8-1.8-4.4-2.3-6.7-1.7l-8.7-3.8c0,0,0,0,0,0
			c-0.6-0.2-1.1-0.4-1.7-0.4c-1.7,0-3.3,1-4,2.6l-4.1,9.4c-0.2,0.4-0.3,1.1,0.4,1.9c-1.7,0.4-1.7,1.5-2.4,3.2c-0.2,0.4,0,1,0.5,1.2
			c0.4,0.2,1,0,1.2-0.5c0.8-1.9,1.6-2.8,3.4-1.9c1.9,0.8,1.8,2,1,3.9c-0.2,0.4,0,1,0.5,1.2c0.1,0.1,0.2,0.1,0.3,0.1
			c0.3,0,0.7-0.2,0.8-0.5c0.7-1.7,1.5-2.5,0.7-4c1.1-0.1,1.5-0.7,1.7-1l2.3-5.4l3.6,1.6c0.2,1.3,0.8,2.6,1.8,3.6l6.4,6.4v10
			c0,0.5,0.4,0.9,0.9,0.9h13.9c0.5,0,0.9-0.4,0.9-0.9V90.3C363.1,86.6,360.5,83.5,357.1,82.7z"/>
	</g>
</g>
<g>
	<circle class="st5" cx="248.6" cy="70.3" r="18.8"/>
	<path class="st6" d="M248.6,51.5c10.4,0,18.8,8.4,18.8,18.8s-8.4,18.8-18.8,18.8c-10.4,0-18.8-8.4-18.8-18.8S238.2,51.5,248.6,51.5
		 M248.6,47.5c-12.6,0-22.8,10.2-22.8,22.8s10.2,22.8,22.8,22.8s22.8-10.2,22.8-22.8S261.1,47.5,248.6,47.5L248.6,47.5z"/>
</g>
<g id="Page-1_1_">
	<g id="cicd">
		<g id="Clip-2_1_">
		</g>
		<defs>
			<filter id="Adobe_OpacityMaskFilter_1_" filterUnits="userSpaceOnUse" x="238.4" y="60.6" width="21" height="21">
				<feColorMatrix  type="matrix" values="1 0 0 0 0  0 1 0 0 0  0 0 1 0 0  0 0 0 1 0"/>
			</filter>
		</defs>
		<mask maskUnits="userSpaceOnUse" x="238.4" y="60.6" width="21" height="21" id="mask-2_11_">
			<g class="st10">
				<polygon id="path-1_11_" class="st8" points="238.4,60.6 259.4,60.6 259.4,81.6 238.4,81.6 				"/>
			</g>
		</mask>
		<path id="Fill-1_1_" class="st11" d="M259.4,66.1c0,1.2-0.4,2.4-1.1,3.3c-0.3,0.4-0.7,0.8-1.1,1.1c-0.9,0.7-2.1,1.1-3.3,1.1h-10
			c-2.4,0-4.4,2-4.4,4.4c0,2.4,2,4.4,4.4,4.4c2.4,0,4.4-2,4.4-4.4v-1.4l-1.3,1.3c-0.2,0.2-0.6,0.2-0.8,0c-0.2-0.2-0.2-0.6,0-0.8
			l2.2-2.2c0.2-0.2,0.6-0.2,0.8,0l2.2,2.2c0.2,0.2,0.2,0.6,0,0.8c-0.1,0.1-0.2,0.2-0.4,0.2c-0.1,0-0.3-0.1-0.4-0.2l-1.3-1.3V76
			c0,1.2-0.4,2.4-1.1,3.3c-0.3,0.4-0.7,0.8-1.1,1.1c-0.9,0.7-2.1,1.1-3.3,1.1c-1.2,0-2.4-0.4-3.3-1.1c-0.4-0.3-0.8-0.7-1.1-1.1
			c-0.7-0.9-1.1-2.1-1.1-3.3c0-1.2,0.4-2.4,1.1-3.3c0.3-0.4,0.7-0.8,1.1-1.1c0.9-0.7,2.1-1.1,3.3-1.1h10c2.4,0,4.4-2,4.4-4.4
			s-2-4.4-4.4-4.4c-2.4,0-4.4,2-4.4,4.4v1.4l1.3-1.3c0.2-0.2,0.6-0.2,0.8,0c0.2,0.2,0.2,0.6,0,0.8l-2,2l-0.2,0.2
			c-0.1,0.1-0.2,0.2-0.4,0.2c-0.1,0-0.3-0.1-0.4-0.2l-0.2-0.2l-2-2c-0.2-0.2-0.2-0.6,0-0.8c0.2-0.2,0.6-0.2,0.8,0l1.3,1.3v-1.4
			c0-1.2,0.4-2.4,1.1-3.3c0.3-0.4,0.7-0.8,1.1-1.1c0.9-0.7,2.1-1.1,3.3-1.1c1.2,0,2.4,0.4,3.3,1.1c0.4,0.3,0.8,0.7,1.1,1.1
			C259,63.7,259.4,64.8,259.4,66.1"/>
	</g>
</g>
<g>
	<circle class="st5" cx="148.8" cy="91.2" r="21.9"/>
	<path class="st6" d="M148.8,69.3c12.1,0,21.9,9.8,21.9,21.9s-9.8,21.9-21.9,21.9s-21.9-9.8-21.9-21.9S136.7,69.3,148.8,69.3
		 M148.8,65.3c-14.3,0-25.9,11.6-25.9,25.9s11.6,25.9,25.9,25.9s25.9-11.6,25.9-25.9S163.1,65.3,148.8,65.3L148.8,65.3z"/>
</g>
<path class="st0" d="M148.7,75.4l-0.1-0.1l-14.5,7.6v16.6l14.7,7.6l14.7-7.6V82.9L148.7,75.4z M135.7,98.6V85l12.3,6.2v13.8
	L135.7,98.6z M161.3,83.5l-12.4,6.2l-12.5-6.3l12.2-6.4L161.3,83.5z M162,85v13.6l-12.4,6.4V91.2L162,85z"/>
<g>
	<circle class="st5" cx="61.6" cy="156" r="29.9"/>
	<path class="st6" d="M61.6,126.1c16.5,0,29.9,13.4,29.9,29.9S78.1,186,61.6,186S31.6,172.6,31.6,156S45,126.1,61.6,126.1
		 M61.6,122.1c-18.7,0-33.9,15.2-33.9,33.9S42.9,190,61.6,190s33.9-15.2,33.9-33.9S80.3,122.1,61.6,122.1L61.6,122.1z"/>
</g>
<path class="st12" d="M80.5,152.1c-0.2,0-0.4,0-0.6,0.1l-0.3,0.1l-4.9-4.5l0.1-0.3c0.2-0.4,0.3-0.8,0.3-1.2c0-1.6-1.3-2.9-2.9-2.9
	c-1.6,0-2.9,1.3-2.9,2.9c0,0.2,0,0.5,0.1,0.7l0.1,0.3l-8,6.2l-0.2-0.1c-0.4-0.1-0.8-0.2-1.2-0.2c-0.5,0-1,0.1-1.4,0.3l-0.3,0.1
	l-7.8-9.7l0.2-0.3c0.2-0.3,0.4-0.7,0.4-1.1c0-1-0.8-1.8-1.8-1.8c-1,0-1.8,0.8-1.8,1.8c0,1,0.8,1.8,1.8,1.8c0.1,0,0.1,0,0.1,0l0.3,0
	l7.9,9.8l-0.3,0.3c-0.6,0.7-1,1.5-1,2.4l0,0.2l-7.3,4.4l-0.3-0.2c-0.5-0.5-1.2-0.8-1.9-0.8c-1.6,0-2.9,1.3-2.9,2.9
	c0,1.6,1.3,2.9,2.9,2.9c1.6,0,2.9-1.3,2.9-2.9c0-0.3,0-0.5-0.1-0.8l-0.1-0.3l6.9-4.1l0.2,0.5c0.2,0.6,0.6,1,1.1,1.4l0.2,0.2l-2,8.8
	l-0.4,0c-0.1,0-0.1,0-0.2,0c-1.6,0-2.9,1.3-2.9,2.9c0,1.6,1.3,2.9,2.9,2.9c1.6,0,2.9-1.3,2.9-2.9c0-0.9-0.4-1.8-1.2-2.3l-0.2-0.2
	l2-8.7l0.5,0.1c0.3,0.1,0.6,0.1,0.9,0.1c1.5,0,2.9-0.9,3.5-2.3l0.2-0.4l5.7,2.4l0,0.3c0,0,0,0.1,0,0.1c0,1,0.8,1.9,1.9,1.9
	c1,0,1.9-0.8,1.9-1.9c0-1-0.8-1.9-1.9-1.9c-0.4,0-0.8,0.1-1.2,0.4l-0.2,0.2l-6-2.6l0-0.3c0-0.9-0.4-1.8-1.1-2.5l-0.4-0.4L70,148
	l0.3,0.3c0.5,0.5,1.2,0.8,2,0.8c0.6,0,1.1-0.1,1.5-0.4l0.3-0.2l4.8,4.4l-0.1,0.3c-0.1,0.2-0.2,0.5-0.2,0.8c0,1,0.8,1.9,1.9,1.9
	s1.9-0.8,1.9-1.9C82.3,152.9,81.5,152.1,80.5,152.1z"/>
<g>
	<circle class="st5" cx="105.8" cy="234.5" r="20"/>
	<path class="st6" d="M105.8,214.4c11.1,0,20,9,20,20s-9,20-20,20s-20-9-20-20S94.7,214.4,105.8,214.4 M105.8,210.4
		c-13.3,0-24,10.8-24,24s10.8,24,24,24s24-10.8,24-24S119,210.4,105.8,210.4L105.8,210.4z"/>
</g>
<g id="Page-1_2_">
	<g id="hpc" transform="translate(0.000000, -1.000000)">
		<g id="Group-3" transform="translate(0.000000, 0.588300)">
			<g id="Clip-2_3_">
			</g>
			<defs>
				<filter id="Adobe_OpacityMaskFilter_2_" filterUnits="userSpaceOnUse" x="94.6" y="224.9" width="22.4" height="6">
					<feColorMatrix  type="matrix" values="1 0 0 0 0  0 1 0 0 0  0 0 1 0 0  0 0 0 1 0"/>
				</filter>
			</defs>
			<mask maskUnits="userSpaceOnUse" x="94.6" y="224.9" width="22.4" height="6" id="mask-2_10_">
				<g class="st13">
					<polygon id="path-1_10_" class="st8" points="94.6,224.9 117,224.9 117,230.9 94.6,230.9 					"/>
				</g>
			</mask>
			<path id="Fill-1_2_" class="st14" d="M116,229.5c0,0.3-0.2,0.5-0.5,0.5H96c-0.3,0-0.5-0.2-0.5-0.5v-3.2c0-0.3,0.2-0.5,0.5-0.5
				h19.5c0.3,0,0.5,0.2,0.5,0.5V229.5z M115.5,224.9H96c-0.8,0-1.4,0.6-1.4,1.4v3.2c0,0.8,0.6,1.4,1.4,1.4h19.5
				c0.8,0,1.4-0.6,1.4-1.4v-3.2C117,225.5,116.3,224.9,115.5,224.9L115.5,224.9z"/>
		</g>
		<g id="Group-6" transform="translate(0.000000, 15.588300)">
			<g id="Clip-5">
			</g>
			<defs>
				<filter id="Adobe_OpacityMaskFilter_3_" filterUnits="userSpaceOnUse" x="94.6" y="216.8" width="22.4" height="6">
					<feColorMatrix  type="matrix" values="1 0 0 0 0  0 1 0 0 0  0 0 1 0 0  0 0 0 1 0"/>
				</filter>
			</defs>
			<mask maskUnits="userSpaceOnUse" x="94.6" y="216.8" width="22.4" height="6" id="mask-4_4_">
				<g class="st15">
					<polygon id="path-3_4_" class="st8" points="94.6,216.8 117,216.8 117,222.9 94.6,222.9 					"/>
				</g>
			</mask>
			<path id="Fill-4" class="st16" d="M116,221.4c0,0.3-0.2,0.5-0.5,0.5H96c-0.3,0-0.5-0.2-0.5-0.5v-3.2c0-0.3,0.2-0.5,0.5-0.5h19.5
				c0.3,0,0.5,0.2,0.5,0.5V221.4z M115.5,216.8H96c-0.8,0-1.4,0.6-1.4,1.4v3.2c0,0.8,0.6,1.4,1.4,1.4h19.5c0.8,0,1.4-0.6,1.4-1.4
				v-3.2C117,217.5,116.3,216.8,115.5,216.8L115.5,216.8z"/>
		</g>
		<g id="Group-9" transform="translate(0.000000, 31.588300)">
			<g id="Clip-8">
			</g>
			<defs>
				<filter id="Adobe_OpacityMaskFilter_4_" filterUnits="userSpaceOnUse" x="94.6" y="207.8" width="22.4" height="6">
					<feColorMatrix  type="matrix" values="1 0 0 0 0  0 1 0 0 0  0 0 1 0 0  0 0 0 1 0"/>
				</filter>
			</defs>
			<mask maskUnits="userSpaceOnUse" x="94.6" y="207.8" width="22.4" height="6" id="mask-6_1_">
				<g class="st17">
					<polygon id="path-5_1_" class="st8" points="94.6,207.8 117,207.8 117,213.9 94.6,213.9 					"/>
				</g>
			</mask>
			<path id="Fill-7" class="st18" d="M116,212.4c0,0.3-0.2,0.5-0.5,0.5H96c-0.3,0-0.5-0.2-0.5-0.5v-3.2c0-0.3,0.2-0.5,0.5-0.5h19.5
				c0.3,0,0.5,0.2,0.5,0.5V212.4z M115.5,207.8H96c-0.8,0-1.4,0.6-1.4,1.4v3.2c0,0.8,0.6,1.4,1.4,1.4h19.5c0.8,0,1.4-0.6,1.4-1.4
				v-3.2C117,208.5,116.3,207.8,115.5,207.8L115.5,207.8z"/>
		</g>
		<path id="Fill-10" class="st12" d="M113.2,227.8c0.4,0,0.7,0.3,0.7,0.7c0,0.4-0.3,0.7-0.7,0.7c-0.4,0-0.7-0.3-0.7-0.7
			C112.6,228.1,112.9,227.8,113.2,227.8"/>
		<path id="Fill-12" class="st12" d="M109.9,235.2c0.1-0.3,0.5-0.5,0.9-0.4c0.3,0.1,0.5,0.5,0.4,0.9c-0.1,0.3-0.5,0.5-0.9,0.4
			C109.9,235.9,109.7,235.5,109.9,235.2"/>
		<path id="Fill-14" class="st12" d="M113.2,234.8c0.4,0,0.7,0.3,0.7,0.7c0,0.4-0.3,0.7-0.7,0.7c-0.4,0-0.7-0.3-0.7-0.7
			C112.6,235.1,112.9,234.8,113.2,234.8"/>
		<path id="Fill-16" class="st12" d="M113.2,241.8c0.4,0,0.7,0.3,0.7,0.7c0,0.4-0.3,0.7-0.7,0.7c-0.4,0-0.7-0.3-0.7-0.7
			C112.6,242.1,112.9,241.8,113.2,241.8"/>
	</g>
</g>
<g>
	<circle class="st5" cx="105.2" cy="322.3" r="26.2"/>
	<path class="st6" d="M105.2,296.2c14.5,0,26.2,11.7,26.2,26.2c0,14.5-11.7,26.2-26.2,26.2s-26.2-11.7-26.2-26.2
		C79.1,307.9,90.8,296.2,105.2,296.2 M105.2,292.2c-16.6,0-30.2,13.5-30.2,30.2s13.5,30.2,30.2,30.2s30.2-13.5,30.2-30.2
		S121.9,292.2,105.2,292.2L105.2,292.2z"/>
</g>
<g id="Page-1_3_">
	<g id="hybrid" transform="translate(0.000000, -1.000000)">
		<g id="Group-3_1_" transform="translate(0.000000, 0.952600)">
			<g id="Clip-2_4_">
			</g>
			<defs>
				<filter id="Adobe_OpacityMaskFilter_5_" filterUnits="userSpaceOnUse" x="86.3" y="308.6" width="16.9" height="27.7">
					<feColorMatrix  type="matrix" values="1 0 0 0 0  0 1 0 0 0  0 0 1 0 0  0 0 0 1 0"/>
				</filter>
			</defs>
			<mask maskUnits="userSpaceOnUse" x="86.3" y="308.6" width="16.9" height="27.7" id="mask-2_9_">
				<g class="st19">
					<polygon id="path-1_9_" class="st8" points="86.3,308.6 103.2,308.6 103.2,336.3 86.3,336.3 					"/>
				</g>
			</mask>
			<path id="Fill-1_3_" class="st20" d="M88,327c0-4,3-7.2,6.9-7.6c0.4,0,0.7-0.3,0.8-0.7c0.2-2.1,1.2-4.1,2.8-5.7
				c0.9-0.9,1.9-1.5,3-2l0,23.6h-5.8C91.4,334.6,88,331.2,88,327 M86.3,327c0,5.1,4.2,9.3,9.3,9.3h5.8v0h1.8l0-27.7l-0.2,0.1
				c-2,0.5-4.3,1.6-5.8,3.1c-1.7,1.7-2.7,3.9-3.1,6.1C89.7,318.6,86.3,322.4,86.3,327"/>
		</g>
		<g id="Group-6_1_" transform="translate(26.000000, 0.952600)">
			<g id="Clip-5_1_">
			</g>
			<defs>
				<filter id="Adobe_OpacityMaskFilter_6_" filterUnits="userSpaceOnUse" x="79.8" y="308.5" width="18.4" height="27.8">
					<feColorMatrix  type="matrix" values="1 0 0 0 0  0 1 0 0 0  0 0 1 0 0  0 0 0 1 0"/>
				</filter>
			</defs>
			<mask maskUnits="userSpaceOnUse" x="79.8" y="308.5" width="18.4" height="27.8" id="mask-4_3_">
				<g class="st21">
					<polygon id="path-3_3_" class="st8" points="79.8,308.5 98.2,308.5 98.2,336.3 79.8,336.3 					"/>
				</g>
			</mask>
			<path id="Fill-4_1_" class="st22" d="M81.6,334.6l-0.1-24.1c1.7,0.4,3.3,1.2,4.6,2.5c2.2,2.2,3.1,5.2,2.8,8
				c-0.1,0.5,0.3,0.9,0.7,0.9c0,0,0.1,0,0.1,0h0.5c3.5,0,6.3,2.8,6.3,6.3c0,3.5-2.8,6.3-6.3,6.3H81.6z M79.8,308.5l0,27.7h1.8v0h8.6
				c4.4,0,8-3.6,8-8c0-4.3-3.4-7.8-7.7-8c0.1-3.1-0.9-6.2-3.3-8.5C85.4,309.9,82.3,308.8,79.8,308.5L79.8,308.5L79.8,308.5z"/>
		</g>
	</g>
</g>
<g>
	<circle class="st5" cx="233.4" cy="329.2" r="23.4"/>
	<path class="st6" d="M233.4,305.8c12.9,0,23.4,10.5,23.4,23.4c0,12.9-10.5,23.4-23.4,23.4c-12.9,0-23.4-10.5-23.4-23.4
		C210,316.3,220.5,305.8,233.4,305.8 M233.4,301.8c-15.1,0-27.4,12.3-27.4,27.4s12.3,27.4,27.4,27.4s27.4-12.3,27.4-27.4
		S248.6,301.8,233.4,301.8L233.4,301.8z"/>
</g>
<g id="Page-1_4_">
	<g id="nfv">
		<g id="Clip-2_5_">
		</g>
		<defs>
			<filter id="Adobe_OpacityMaskFilter_7_" filterUnits="userSpaceOnUse" x="217.8" y="315.9" width="30.2" height="28.2">
				<feColorMatrix  type="matrix" values="1 0 0 0 0  0 1 0 0 0  0 0 1 0 0  0 0 0 1 0"/>
			</filter>
		</defs>
		<mask maskUnits="userSpaceOnUse" x="217.8" y="315.9" width="30.2" height="28.2" id="mask-2_8_">
			<g class="st23">
				<polygon id="path-1_8_" class="st8" points="217.8,315.9 248,315.9 248,344 217.8,344 				"/>
			</g>
		</mask>
		<path id="Fill-1_4_" class="st24" d="M233.9,339.3c-0.1,0-0.1,0-0.2,0c-0.9,0-1.7,0.7-1.7,1.7c0,0.9,0.7,1.7,1.7,1.7
			s1.7-0.7,1.7-1.7C235.4,340.1,234.8,339.4,233.9,339.3 M237.3,327.9c-1.8,0-3.2,1.4-3.2,3.2s1.4,3.2,3.2,3.2
			c1.8,0,3.2-1.4,3.2-3.2C240.5,329.4,239.1,327.9,237.3,327.9 M220.7,325.3c-0.9,0-1.6,0.7-1.6,1.6c0,0.9,0.7,1.6,1.6,1.6
			c0.9,0,1.5-0.5,1.6-1.6C222.3,326,221.6,325.3,220.7,325.3 M244.8,323.2c-1,0-1.8,0.8-1.8,1.8c0,1,0.8,1.8,1.8,1.8
			s1.8-0.8,1.8-1.8C246.6,324,245.8,323.2,244.8,323.2 M234,317.2c-1.3,0-2.3,1-2.3,2.3c0,1.3,1,2.3,2.3,2.3c1.3,0,2.3-1,2.3-2.3
			C236.3,318.2,235.3,317.2,234,317.2 M232.9,332.5c-0.1-0.4-0.2-0.9-0.2-1.3c0-0.2,0-0.3,0-0.5l-9.4-2.4c-0.5,0.9-1.5,1.6-2.6,1.6
			c-1.6,0-2.9-1.3-2.9-2.9c0-1.6,1.3-2.9,2.9-2.9c1.6,0,2.9,1.3,2.9,2.9v0.1l9.4,2.4c0.5-1.1,1.3-1.9,2.3-2.4l-1.1-3.8
			c-0.1,0-0.2,0-0.3,0c-2,0-3.7-1.6-3.7-3.7s1.7-3.7,3.7-3.7c2,0,3.7,1.6,3.7,3.7c0,1.4-0.8,2.7-2.1,3.3l1.1,3.8c0.2,0,0.4,0,0.6,0
			c1.2,0,2.2,0.4,3.1,1.2l1.6-1.3c-0.2-0.4-0.4-0.9-0.4-1.5c0-1.8,1.5-3.2,3.2-3.2c1.8,0,3.2,1.4,3.2,3.2c0,1.8-1.4,3.2-3.2,3.2
			c-0.8,0-1.4-0.3-2-0.7l-1.6,1.3c0.4,0.7,0.6,1.5,0.6,2.3c0,2.5-2,4.6-4.6,4.6c-0.3,0-0.6,0-0.9-0.1l-1,2.8
			c0.9,0.5,1.5,1.5,1.5,2.6c0,1.7-1.4,3-3,3c-1.7,0-3-1.4-3-3c0-1.7,1.4-3,3-3c0.1,0,0.2,0,0.3,0l1.1-2.9c-0.6-0.3-1.2-0.8-1.6-1.4"
			/>
	</g>
</g>
<g>
	<circle class="st5" cx="361.9" cy="204.6" r="26.1"/>
	<path class="st6" d="M361.9,178.5c14.4,0,26.1,11.7,26.1,26.1s-11.7,26.1-26.1,26.1s-26.1-11.7-26.1-26.1S347.5,178.5,361.9,178.5
		 M361.9,174.5c-16.6,0-30.1,13.5-30.1,30.1s13.5,30.1,30.1,30.1s30.1-13.5,30.1-30.1S378.5,174.5,361.9,174.5L361.9,174.5z"/>
</g>
<g id="Page-1_5_">
	<g id="cloud">
		<g id="Clip-2_6_">
		</g>
		<defs>
			<filter id="Adobe_OpacityMaskFilter_8_" filterUnits="userSpaceOnUse" x="343.8" y="190.5" width="36.3" height="26.6">
				<feColorMatrix  type="matrix" values="1 0 0 0 0  0 1 0 0 0  0 0 1 0 0  0 0 0 1 0"/>
			</filter>
		</defs>
		<mask maskUnits="userSpaceOnUse" x="343.8" y="190.5" width="36.3" height="26.6" id="mask-2_7_">
			<g class="st25">
				<polygon id="path-1_7_" class="st8" points="343.8,190.5 380,190.5 380,217.1 343.8,217.1 				"/>
			</g>
		</mask>
		<path id="Fill-1_5_" class="st26" d="M361.9,192.1c-2.4,0-4.7,0.9-6.5,2.7c-2.1,2.1-3,4.9-2.6,7.7c0.1,0.4-0.3,0.8-0.7,0.9
			c0,0-0.1,0-0.1,0h-0.5c-3.4,0-6,2.7-6,6c0,3.4,2.7,6,6,6h19.7c4,0,7.3-3.2,7.3-7.3c0-3.8-2.9-6.9-6.6-7.2c-0.4,0-0.7-0.3-0.7-0.7
			c-0.2-2-1.1-3.9-2.6-5.5C366.7,193,364.3,192.1,361.9,192.1 M361.9,190.5c2.8,0,5.6,1.1,7.7,3.2c1.6,1.6,2.6,3.7,3,5.8
			c4.2,0.7,7.4,4.3,7.4,8.7c0,4.9-4,8.9-8.9,8.9h-19.7c-4.2,0-7.7-3.4-7.7-7.7c0-4.1,3.3-7.4,7.3-7.6c-0.1-2.9,0.9-5.9,3.1-8.1
			C356.3,191.5,359.1,190.5,361.9,190.5"/>
	</g>
</g>
<g>
	<circle class="st5" cx="335.8" cy="297.6" r="16.2"/>
	<path class="st6" d="M335.8,281.4c8.9,0,16.2,7.2,16.2,16.2s-7.2,16.2-16.2,16.2c-8.9,0-16.2-7.2-16.2-16.2
		S326.8,281.4,335.8,281.4 M335.8,277.4c-11.1,0-20.2,9.1-20.2,20.2s9.1,20.2,20.2,20.2s20.2-9.1,20.2-20.2S346.9,277.4,335.8,277.4
		L335.8,277.4z"/>
</g>
<g transform="translate(0,-952.36218)">
	<path class="st0" d="M335.8,1241.4c-2.5,0-4.6,2-4.6,4.6v1.9h-0.8c-0.7,0-1.3,0.6-1.3,1.3v7.9c0,0.7,0.6,1.3,1.3,1.3h10.6
		c0.7,0,1.3-0.6,1.3-1.3v-7.9c0-0.7-0.6-1.3-1.3-1.3h-0.8v-1.9C340.3,1243.5,338.3,1241.4,335.8,1241.4z M335.8,1242.6
		c1.9,0,3.4,1.5,3.4,3.4v1.9h-6.9v-1.9C332.4,1244.1,333.9,1242.6,335.8,1242.6z M330.5,1249h10.6c0.1,0,0.2,0.1,0.2,0.2v7.9
		c0,0.1-0.1,0.2-0.2,0.2h-10.6c-0.1,0-0.2-0.1-0.2-0.2v-7.9C330.3,1249.1,330.4,1249,330.5,1249z M335.8,1251.6
		c-0.3,0-0.6,0.3-0.5,0.6l0,0v1.9c0,0.3,0.2,0.6,0.5,0.6c0.3,0,0.6-0.2,0.6-0.5l0,0v-1.9C336.4,1251.9,336.1,1251.6,335.8,1251.6
		L335.8,1251.6z"/>
</g>
<path class="st0" d="M375.2,178.4c-0.8-0.1-1.4-0.9-1.3-1.7l0,0l0,0l0,0c0.1-0.8,0.9-1.4,1.7-1.3l0,0c0.8,0.1,1.4,0.9,1.3,1.7l0,0
	c-0.1,0.8-0.8,1.3-1.5,1.3l0,0C375.4,178.4,375.3,178.4,375.2,178.4z M373.8,169.2L373.8,169.2L373.8,169.2
	c-0.1-0.8,0.5-1.6,1.3-1.7l0,0c0.8-0.1,1.6,0.5,1.7,1.3l0,0c0.1,0.8-0.5,1.6-1.3,1.7l0,0c-0.1,0-0.1,0-0.2,0l0,0
	C374.6,170.5,373.9,169.9,373.8,169.2z M371.8,161.9c-0.4-0.7,0-1.6,0.7-2l0,0c0.8-0.4,1.6,0,2,0.7l0,0c0.4,0.7,0,1.6-0.7,2l0,0
	c-0.2,0.1-0.4,0.1-0.7,0.1l0,0C372.5,162.8,372,162.5,371.8,161.9z M367.3,156.1L367.3,156.1L367.3,156.1c-0.6-0.5-0.7-1.5-0.2-2.1
	l0,0c0.5-0.6,1.5-0.7,2.1-0.2l0,0c0.6,0.5,0.7,1.5,0.2,2.1l0,0c-0.3,0.4-0.7,0.5-1.1,0.5l0,0C367.9,156.5,367.6,156.4,367.3,156.1z
	 M360.8,152.8c-0.8-0.2-1.2-1.1-1-1.9l0,0c0.2-0.8,1.1-1.2,1.9-1l0,0c0.8,0.2,1.2,1.1,1,1.9l0,0c-0.2,0.6-0.8,1.1-1.4,1.1l0,0
	C361.1,152.8,361,152.8,360.8,152.8z M343.9,151c-0.1-0.8,0.4-1.6,1.2-1.7l0,0c0.8-0.1,1.6,0.4,1.7,1.3l0,0c0.1,0.8-0.4,1.6-1.2,1.7
	l0,0l0,0l0,0c-0.1,0-0.1,0-0.2,0l0,0C344.7,152.3,344,151.8,343.9,151z M353.3,151.7c-0.8,0-1.5-0.7-1.5-1.5l0,0
	c0-0.8,0.7-1.5,1.5-1.5l0,0c0.8,0,1.5,0.7,1.5,1.5l0,0C354.9,151,354.2,151.7,353.3,151.7L353.3,151.7
	C353.4,151.7,353.4,151.7,353.3,151.7z"/>
<path class="st0" d="M313.2,59.5c-0.6-0.6-0.6-1.5,0-2.1l0,0c0.6-0.6,1.5-0.6,2.1,0l0,0c0.6,0.6,0.6,1.5,0,2.1l0,0
	c-0.3,0.3-0.7,0.4-1.1,0.4l0,0C313.9,59.9,313.5,59.8,313.2,59.5z M319.2,54.2c-0.4-0.7-0.2-1.6,0.5-2.1l0,0
	c0.7-0.4,1.6-0.2,2.1,0.5l0,0c0.4,0.7,0.2,1.6-0.5,2.1l0,0c-0.2,0.1-0.5,0.2-0.8,0.2l0,0C320,54.9,319.5,54.7,319.2,54.2z
	 M342.3,54.5L342.3,54.5L342.3,54.5c-0.7-0.5-0.8-1.4-0.3-2.1l0,0c0.5-0.7,1.4-0.8,2.1-0.3l0,0c0.7,0.5,0.8,1.4,0.3,2.1l0,0
	c-0.3,0.4-0.8,0.6-1.2,0.6l0,0C342.8,54.8,342.5,54.7,342.3,54.5z M326.4,50.7c-0.2-0.8,0.3-1.6,1.2-1.8l0,0
	c0.8-0.2,1.6,0.4,1.8,1.2l0,0c0.2,0.8-0.3,1.6-1.1,1.8l0,0c-0.1,0-0.2,0-0.3,0l0,0C327.2,51.9,326.5,51.4,326.4,50.7z M335.5,51.8
	c-0.8-0.2-1.3-0.9-1.2-1.8l0,0c0.1-0.8,0.9-1.4,1.8-1.2l0,0c0.8,0.2,1.3,0.9,1.2,1.8l0,0c-0.1,0.7-0.8,1.2-1.5,1.2l0,0
	C335.7,51.8,335.6,51.8,335.5,51.8z"/>
<path class="st0" d="M209.2,362.1c0-0.8,0.7-1.5,1.5-1.5l0,0c0.8,0,1.5,0.7,1.5,1.5l0,0c0,0.8-0.7,1.5-1.5,1.5l0,0l0,0l0,0h0l0,0
	C209.9,363.6,209.2,362.9,209.2,362.1z M202.4,362.2L202.4,362.2L202.4,362.2c-0.8-0.3-1.2-1.1-0.9-1.9l0,0c0.3-0.8,1.1-1.2,1.9-0.9
	l0,0c0.8,0.3,1.2,1.1,0.9,1.9l0,0c-0.2,0.6-0.8,1-1.4,1l0,0C202.7,362.3,202.5,362.3,202.4,362.2z M217.1,361.2
	c-0.3-0.8,0.1-1.6,0.9-1.9h0c0.8-0.3,1.6,0.1,1.9,0.9l0,0c0.3,0.8-0.1,1.6-0.9,1.9l0,0c0,0,0,0,0,0l0,0c-0.2,0-0.3,0.1-0.5,0.1l0,0
	C217.9,362.2,217.4,361.8,217.1,361.2z M195,358.2c-0.7-0.5-0.8-1.4-0.3-2.1l0,0c0.5-0.7,1.4-0.8,2.1-0.3l0,0
	c0.7,0.5,0.8,1.4,0.3,2.1l0,0c-0.3,0.4-0.8,0.6-1.2,0.6l0,0C195.5,358.5,195.2,358.4,195,358.2z M224.5,357.9
	c-0.5-0.6-0.4-1.6,0.2-2.1l0,0c0.6-0.5,1.6-0.4,2.1,0.2l0,0c0.5,0.6,0.4,1.6-0.2,2.1l0,0l0,0l0,0c-0.3,0.2-0.6,0.3-0.9,0.3l0,0
	C225.2,358.4,224.8,358.3,224.5,357.9z M188.9,352.6c-0.5-0.6-0.5-1.6,0.1-2.1l0,0c0.6-0.5,1.6-0.5,2.1,0.1l0,0
	c0.6,0.6,0.5,1.6-0.1,2.1l0,0c-0.3,0.2-0.6,0.4-1,0.4l0,0C189.6,353.1,189.2,353,188.9,352.6z"/>
<path class="st0" d="M125.7,368.1c-0.1-0.8,0.5-1.5,1.4-1.6l0,0c0.8-0.1,1.5,0.5,1.6,1.4l0,0c0.1,0.8-0.5,1.6-1.4,1.6l0,0
	c0,0-0.1,0-0.1,0l0,0C126.4,369.5,125.8,368.9,125.7,368.1z M118.9,368.9c-0.8-0.2-1.3-1-1.1-1.8l0,0c0.2-0.8,1-1.3,1.8-1.1l0,0
	c0.8,0.2,1.3,1,1.1,1.8l0,0c-0.2,0.7-0.8,1.1-1.5,1.1l0,0C119.1,368.9,119,368.9,118.9,368.9z M133.5,366.6c-0.3-0.8,0.1-1.6,0.8-2
	l0,0c0.8-0.3,1.6,0.1,2,0.8l0,0c0.3,0.8-0.1,1.6-0.8,2l0,0c-0.2,0.1-0.4,0.1-0.6,0.1l0,0C134.3,367.6,133.8,367.2,133.5,366.6z
	 M111.1,365.6c-0.7-0.4-0.9-1.3-0.5-2.1l0,0c0.4-0.7,1.4-0.9,2.1-0.5l0,0c0.7,0.4,0.9,1.4,0.5,2.1l0,0c-0.3,0.5-0.8,0.7-1.3,0.7l0,0
	C111.6,365.8,111.4,365.8,111.1,365.6z M140.7,363.1c-0.5-0.6-0.5-1.6,0.2-2.1l0,0c0.6-0.5,1.6-0.5,2.1,0.2l0,0
	c0.5,0.6,0.5,1.6-0.2,2.1l0,0c-0.3,0.2-0.6,0.4-1,0.4l0,0C141.4,363.6,141,363.4,140.7,363.1z M104.6,360.5c-0.6-0.6-0.6-1.5,0-2.1
	l0,0c0.6-0.6,1.5-0.6,2.1,0l0,0c0.6,0.6,0.6,1.5,0,2.1l0,0c-0.3,0.3-0.7,0.5-1.1,0.5l0,0C105.2,360.9,104.8,360.8,104.6,360.5z"/>
<path class="st0" d="M73.8,258.4c-0.4-0.7-0.1-1.6,0.6-2l0,0c0.7-0.4,1.6-0.1,2,0.6l0,0c0.4,0.7,0.1,1.6-0.6,2l0,0
	c-0.2,0.1-0.5,0.2-0.7,0.2l0,0C74.6,259.2,74.1,258.9,73.8,258.4z M71,250.4c-0.1-0.8,0.5-1.6,1.3-1.7l0,0c0.8-0.1,1.6,0.5,1.7,1.3
	l0,0c0.1,0.8-0.5,1.6-1.3,1.7l0,0c-0.1,0-0.1,0-0.2,0l0,0C71.8,251.7,71.1,251.1,71,250.4z M73.1,243.8c-0.7-0.4-1-1.3-0.7-2l0,0
	c0.4-0.7,1.3-1,2-0.7l0,0c0.7,0.4,1.1,1.3,0.7,2l0,0c-0.3,0.5-0.8,0.8-1.3,0.8l0,0C73.5,243.9,73.3,243.9,73.1,243.8z M77.8,237.3
	c-0.4-0.7-0.2-1.6,0.5-2l0,0c0.7-0.4,1.6-0.2,2,0.5l0,0c0.4,0.7,0.2,1.6-0.5,2l0,0c-0.2,0.1-0.5,0.2-0.8,0.2l0,0
	C78.5,238,78,237.8,77.8,237.3z"/>
<path class="st0" d="M55.3,123.5c-0.6-0.6-0.7-1.5-0.1-2.1l0,0l0,0l0,0c0.6-0.6,1.5-0.7,2.1-0.1l0,0c0.6,0.5,0.7,1.5,0.1,2.1l0,0
	c-0.3,0.3-0.7,0.5-1.1,0.5l0,0C56,123.9,55.6,123.8,55.3,123.5z M61.2,118.1c-0.5-0.7-0.3-1.6,0.4-2.1l0,0c0.7-0.5,1.6-0.3,2.1,0.4
	l0,0c0.5,0.7,0.3,1.6-0.4,2.1l0,0c-0.3,0.2-0.6,0.2-0.8,0.2l0,0C62,118.7,61.5,118.5,61.2,118.1z M91.2,118.3
	c-0.6-0.5-0.8-1.4-0.3-2.1l0,0c0.5-0.7,1.4-0.8,2.1-0.3l0,0c0.7,0.5,0.8,1.5,0.3,2.1l0,0c-0.3,0.4-0.7,0.6-1.2,0.6l0,0
	C91.8,118.6,91.5,118.5,91.2,118.3z M68.1,114.1c-0.3-0.8,0.1-1.6,0.9-1.9l0,0c0.8-0.3,1.6,0.1,1.9,0.9l0,0c0.3,0.8-0.1,1.6-0.9,1.9
	l0,0c-0.2,0.1-0.4,0.1-0.5,0.1l0,0C68.9,115,68.4,114.7,68.1,114.1z M84.7,114.7c-0.8-0.3-1.2-1.1-0.9-1.9l0,0
	c0.3-0.8,1.1-1.2,1.9-0.9l0,0c0.8,0.3,1.2,1.1,0.9,1.9l0,0c-0.2,0.6-0.8,1-1.4,1l0,0C85,114.8,84.9,114.7,84.7,114.7z M75.8,112
	c0-0.8,0.6-1.5,1.5-1.5l0,0c0.8,0,1.5,0.6,1.5,1.5l0,0c0,0.8-0.6,1.5-1.5,1.5l0,0c0,0,0,0,0,0l0,0C76.5,113.5,75.9,112.8,75.8,112z"
	/>
<path class="st0" d="M189.5,80.8c-0.5-0.7-0.3-1.6,0.4-2.1l0,0c0.7-0.5,1.6-0.3,2.1,0.4l0,0l0,0l0,0c0.5,0.7,0.3,1.6-0.4,2.1l0,0
	c-0.3,0.2-0.5,0.3-0.8,0.3l0,0C190.3,81.5,189.8,81.2,189.5,80.8z M184.2,76c-0.7-0.4-1-1.3-0.7-2l0,0c0.4-0.7,1.3-1,2-0.7l0,0
	c0.7,0.4,1,1.3,0.6,2l0,0c-0.3,0.5-0.8,0.8-1.3,0.8l0,0C184.6,76.2,184.4,76.1,184.2,76z M167.8,74c-0.2-0.8,0.2-1.6,1-1.9l0,0l0,0
	l0,0c0.8-0.2,1.6,0.2,1.9,1l0,0c0.2,0.8-0.2,1.6-1,1.9l0,0c-0.1,0-0.3,0.1-0.4,0.1l0,0C168.6,75.1,168,74.6,167.8,74z M177.1,74.2
	L177.1,74.2c-0.8,0-1.5-0.8-1.4-1.6l0,0c0-0.8,0.8-1.5,1.6-1.4l0,0l0,0l0,0c0.8,0,1.5,0.8,1.4,1.6l0,0
	C178.6,73.6,177.9,74.2,177.1,74.2L177.1,74.2C177.1,74.2,177.1,74.2,177.1,74.2z"/>
<path class="st0" d="M214.1,82L214.1,82c0-0.8,0.7-1.5,1.5-1.5l0,0c0.8,0,1.5,0.6,1.5,1.5l0,0c0,0.8-0.7,1.5-1.5,1.5l0,0h0l0,0
	C214.8,83.5,214.1,82.8,214.1,82z M217.1,82L217.1,82L217.1,82L217.1,82L217.1,82L217.1,82z M215.8,75.5c-0.8-0.1-1.4-0.8-1.4-1.6
	l0,0c0.1-0.8,0.8-1.4,1.6-1.4l0,0c0.8,0.1,1.4,0.8,1.4,1.6l0,0c-0.1,0.8-0.7,1.4-1.5,1.4l0,0C215.9,75.5,215.8,75.5,215.8,75.5z
	 M216.8,67.6c-0.8-0.2-1.3-1-1.1-1.8l0,0c0.2-0.8,1-1.3,1.8-1.1l0,0c0.8,0.2,1.3,1,1.1,1.8l0,0c-0.2,0.7-0.8,1.1-1.5,1.1l0,0
	C217.1,67.6,217,67.6,216.8,67.6z M219.4,60c-0.7-0.4-1-1.3-0.5-2.1l0,0c0.4-0.7,1.3-0.9,2.1-0.5l0,0c0.7,0.4,0.9,1.3,0.5,2.1l0,0
	c-0.3,0.5-0.8,0.7-1.3,0.7l0,0C219.9,60.2,219.6,60.1,219.4,60z M224.4,53.8c-0.4-0.7-0.2-1.6,0.5-2l0,0c0.7-0.4,1.6-0.2,2,0.5l0,0
	c0.4,0.7,0.2,1.6-0.5,2l0,0c-0.2,0.1-0.5,0.2-0.8,0.2l0,0C225.1,54.5,224.6,54.3,224.4,53.8z M233.1,52.9L233.1,52.9L233.1,52.9
	c-0.8-0.2-1.3-1-1.2-1.8l0,0c0.2-0.8,1-1.3,1.8-1.2l0,0c0.8,0.2,1.3,1,1.2,1.8l0,0c-0.2,0.7-0.8,1.2-1.5,1.2l0,0
	C233.3,53,233.2,53,233.1,52.9z"/>
</svg>
