<?xml version="1.0" encoding="utf-8"?>
<!-- Generator: Adobe Illustrator 18.1.0, SVG Export Plug-In . SVG Version: 6.00 Build 0)  -->
<svg version="1.1" id="Layer_1" xmlns="http://www.w3.org/2000/svg" xmlns:xlink="http://www.w3.org/1999/xlink" x="0px" y="0px"
	 viewBox="0 0 153 119" enable-background="new 0 0 153 119" xml:space="preserve">
<g>
	<g>
		<g>
			<g>
				<polygon fill="#AAB5BD" points="84.6,70.4 92.3,58.4 100.1,70.4 				"/>
				<polygon fill="#AAB5BD" points="68.4,46.3 60.7,58.2 52.9,46.3 				"/>
				<g>
					<g>
						<path fill="#AAB5BD" d="M88.9,69v15c0,7.2-5.5,13.1-12.3,13.1c-6.8,0-12.3-5.9-12.3-13.1V64.9L57,64.9V84
							c0,10.8,8.8,19.6,19.6,19.6c10.8,0,19.6-8.8,19.6-19.6V69H88.9z"/>
						<path fill="#AAB5BD" d="M64.3,47.4V35c0-7.2,5.5-13.1,12.3-13.1c6.8,0,12.3,5.9,12.3,13.1v16.6l7.3-0.1V35
							c0-10.8-8.8-19.6-19.6-19.6C65.8,15.4,57,24.2,57,35v12.4H64.3z"/>
					</g>
				</g>
			</g>
		</g>
	</g>
</g>
</svg>
