<?xml version="1.0" encoding="utf-8"?>
<!-- Generator: Adobe Illustrator 18.1.1, SVG Export Plug-In . SVG Version: 6.00 Build 0)  -->
<svg version="1.1" id="Layer_1" xmlns="http://www.w3.org/2000/svg" xmlns:xlink="http://www.w3.org/1999/xlink" x="0px" y="0px"
	 viewBox="418.3 -57.5 763.5 615" enable-background="new 418.3 -57.5 763.5 615" xml:space="preserve">
<g>
	<g>
		<path fill="#4CA8DE" d="M1001.6,73.8h-1.1v1.8h-1.8v-1.8h-3.8v-1.3l3.9-5.7h1.7v5.5h1.1L1001.6,73.8L1001.6,73.8z M998.7,72.3
			v-1.5c0-0.2,0-0.6,0-1.1c0-0.5,0-0.7,0-0.8l0,0c-0.1,0.3-0.3,0.6-0.5,1l-1.6,2.4L998.7,72.3L998.7,72.3z"/>
		<path fill="#4CA8DE" d="M1004.6,74.3c-0.2,0.8-0.6,1.8-1.1,2.9h-1.3c0.3-1.1,0.5-2.1,0.6-3h1.7L1004.6,74.3z"/>
		<path fill="#4CA8DE" d="M1006.8,75.6l3.3-7.3h-4.3v-1.6h6.4V68l-3.3,7.7L1006.8,75.6L1006.8,75.6z"/>
		<path fill="#4CA8DE" d="M1019.1,71.2c0,1.5-0.3,2.7-0.8,3.4c-0.5,0.7-1.3,1.1-2.3,1.1c-1,0-1.8-0.4-2.3-1.1s-0.8-1.9-0.8-3.4
			c0-1.6,0.3-2.7,0.8-3.4s1.3-1.1,2.3-1.1c1,0,1.8,0.4,2.3,1.2C1018.9,68.6,1019.1,69.7,1019.1,71.2z M1014.8,71.2
			c0,1.1,0.1,1.8,0.3,2.3c0.2,0.5,0.5,0.7,0.9,0.7c0.4,0,0.7-0.2,0.9-0.7c0.2-0.5,0.3-1.2,0.3-2.3c0-1.1-0.1-1.9-0.3-2.3
			c-0.2-0.4-0.5-0.7-0.9-0.7c-0.4,0-0.8,0.2-0.9,0.7C1014.9,69.4,1014.8,70.1,1014.8,71.2z"/>
		<path fill="#4CA8DE" d="M1026.3,71.2c0,1.5-0.3,2.7-0.8,3.4c-0.5,0.7-1.3,1.1-2.3,1.1s-1.8-0.4-2.3-1.1c-0.5-0.7-0.8-1.9-0.8-3.4
			c0-1.6,0.3-2.7,0.8-3.4c0.5-0.7,1.3-1.1,2.3-1.1s1.8,0.4,2.3,1.2C1025.9,68.6,1026.3,69.7,1026.3,71.2z M1021.9,71.2
			c0,1.1,0.1,1.8,0.3,2.3c0.2,0.5,0.5,0.7,0.9,0.7c0.4,0,0.7-0.2,0.9-0.7c0.2-0.5,0.3-1.2,0.3-2.3c0-1.1-0.1-1.9-0.3-2.3
			c-0.2-0.4-0.5-0.7-0.9-0.7c-0.4,0-0.8,0.2-0.9,0.7C1022,69.4,1021.9,70.1,1021.9,71.2z"/>
	</g>
</g>
<g>
	<g>
		<path fill="#4CA8DE" d="M935.7,118.8h-1.1v1.8h-1.8v-1.8h-3.8v-1.3l3.9-5.7h1.7v5.5h1.1V118.8z M932.7,117.3v-1.5
			c0-0.2,0-0.6,0-1.1s0-0.7,0-0.8l0,0c-0.1,0.3-0.3,0.6-0.5,1l-1.6,2.4L932.7,117.3L932.7,117.3z"/>
		<path fill="#4CA8DE" d="M938.7,119.3c-0.2,0.8-0.6,1.8-1.1,2.9h-1.3c0.3-1.1,0.5-2.1,0.6-3h1.7L938.7,119.3z"/>
		<path fill="#4CA8DE" d="M943.2,115c0.8,0,1.5,0.2,2,0.7c0.5,0.5,0.8,1.1,0.8,2c0,1-0.3,1.7-0.9,2.3c-0.6,0.6-1.5,0.8-2.6,0.8
			c-1,0-1.8-0.2-2.4-0.5v-1.6c0.3,0.2,0.7,0.3,1.1,0.4c0.4,0.1,0.8,0.2,1.2,0.2c1.1,0,1.7-0.5,1.7-1.4s-0.6-1.3-1.8-1.3
			c-0.2,0-0.4,0-0.7,0.1c-0.3,0-0.5,0.1-0.6,0.1l-0.7-0.4l0.3-4.5h4.8v1.6h-3.1l-0.2,1.7h0.2C942.5,115,942.8,115,943.2,115z"/>
		<path fill="#4CA8DE" d="M953.2,116.2c0,1.5-0.3,2.7-0.8,3.4c-0.5,0.7-1.3,1.1-2.3,1.1c-1,0-1.8-0.4-2.3-1.1
			c-0.5-0.7-0.8-1.9-0.8-3.4c0-1.6,0.3-2.7,0.8-3.4c0.5-0.7,1.3-1.1,2.3-1.1c1,0,1.8,0.4,2.3,1.2
			C952.9,113.5,953.2,114.7,953.2,116.2z M948.9,116.2c0,1.1,0.1,1.8,0.3,2.3s0.5,0.7,0.9,0.7c0.4,0,0.7-0.2,0.9-0.7
			c0.2-0.5,0.3-1.2,0.3-2.3s-0.1-1.9-0.3-2.3c-0.2-0.4-0.5-0.7-0.9-0.7c-0.4,0-0.8,0.2-0.9,0.7C949,114.4,948.9,115.1,948.9,116.2z"
			/>
		<path fill="#4CA8DE" d="M960.3,116.2c0,1.5-0.3,2.7-0.8,3.4c-0.5,0.7-1.3,1.1-2.3,1.1c-1,0-1.8-0.4-2.3-1.1
			c-0.5-0.7-0.8-1.9-0.8-3.4c0-1.6,0.3-2.7,0.8-3.4c0.5-0.7,1.3-1.1,2.3-1.1c1,0,1.8,0.4,2.3,1.2
			C960.1,113.5,960.3,114.7,960.3,116.2z M955.9,116.2c0,1.1,0.1,1.8,0.3,2.3s0.5,0.7,0.9,0.7c0.4,0,0.7-0.2,0.9-0.7
			c0.2-0.5,0.3-1.2,0.3-2.3s-0.1-1.9-0.3-2.3c-0.2-0.4-0.5-0.7-0.9-0.7c-0.4,0-0.8,0.2-0.9,0.7C956,114.4,955.9,115.1,955.9,116.2z"
			/>
	</g>
</g>
<g>
	<g>
		<path fill="#4CA8DE" d="M868.5,250.7c0,0.5-0.2,1-0.5,1.4s-0.8,0.6-1.4,0.8l0,0c0.7,0.1,1.2,0.3,1.6,0.6c0.4,0.3,0.5,0.8,0.5,1.4
			c0,0.8-0.3,1.5-0.9,2c-0.6,0.5-1.5,0.7-2.6,0.7c-1,0-1.8-0.2-2.5-0.5v-1.6c0.3,0.2,0.7,0.3,1.1,0.4c0.4,0.1,0.8,0.2,1.2,0.2
			c0.6,0,1.1-0.1,1.4-0.3c0.3-0.2,0.4-0.5,0.4-1c0-0.4-0.2-0.7-0.5-0.9c-0.3-0.2-0.9-0.3-1.6-0.3h-0.7v-1.4h0.7
			c0.7,0,1.2-0.1,1.5-0.3c0.3-0.2,0.5-0.5,0.5-0.9c0-0.7-0.4-1-1.2-1c-0.3,0-0.6,0-0.9,0.1c-0.3,0.1-0.6,0.3-1,0.5l-0.9-1.3
			c0.8-0.6,1.8-0.9,2.9-0.9c0.9,0,1.6,0.2,2.2,0.6C868.2,249.6,868.5,250.1,868.5,250.7z"/>
		<path fill="#4CA8DE" d="M872,256.4c-0.2,0.8-0.6,1.8-1.1,2.9h-1.3c0.3-1.1,0.5-2.1,0.6-3h1.7L872,256.4z"/>
		<path fill="#4CA8DE" d="M879.5,253.3c0,1.5-0.3,2.7-0.8,3.4c-0.5,0.7-1.3,1.1-2.3,1.1c-1,0-1.8-0.4-2.3-1.1
			c-0.5-0.7-0.8-1.9-0.8-3.4c0-1.6,0.3-2.7,0.8-3.4c0.5-0.7,1.3-1.1,2.3-1.1c1,0,1.8,0.4,2.3,1.2
			C879.2,250.5,879.5,251.7,879.5,253.3z M875.1,253.3c0,1.1,0.1,1.8,0.3,2.3c0.2,0.5,0.5,0.7,0.9,0.7s0.7-0.2,0.9-0.7
			c0.2-0.5,0.3-1.2,0.3-2.3c0-1.1-0.1-1.9-0.3-2.3s-0.5-0.7-0.9-0.7s-0.8,0.2-0.9,0.7C875.2,251.3,875.1,252.2,875.1,253.3z"/>
		<path fill="#4CA8DE" d="M886.5,253.3c0,1.5-0.3,2.7-0.8,3.4c-0.5,0.7-1.3,1.1-2.3,1.1c-1,0-1.8-0.4-2.3-1.1
			c-0.5-0.7-0.8-1.9-0.8-3.4c0-1.6,0.3-2.7,0.8-3.4c0.5-0.7,1.3-1.1,2.3-1.1c1,0,1.8,0.4,2.3,1.2
			C886.3,250.5,886.5,251.7,886.5,253.3z M882.2,253.3c0,1.1,0.1,1.8,0.3,2.3c0.2,0.5,0.5,0.7,0.9,0.7s0.7-0.2,0.9-0.7
			c0.2-0.5,0.3-1.2,0.3-2.3c0-1.1-0.1-1.9-0.3-2.3s-0.5-0.7-0.9-0.7s-0.8,0.2-0.9,0.7C882.3,251.3,882.2,252.2,882.2,253.3z"/>
		<path fill="#4CA8DE" d="M893.6,253.3c0,1.5-0.3,2.7-0.8,3.4c-0.5,0.7-1.3,1.1-2.3,1.1c-1,0-1.8-0.4-2.3-1.1
			c-0.5-0.7-0.8-1.9-0.8-3.4c0-1.6,0.3-2.7,0.8-3.4c0.5-0.7,1.3-1.1,2.3-1.1c1,0,1.8,0.4,2.3,1.2
			C893.4,250.5,893.6,251.7,893.6,253.3z M889.3,253.3c0,1.1,0.1,1.8,0.3,2.3c0.2,0.5,0.5,0.7,0.9,0.7s0.7-0.2,0.9-0.7
			c0.2-0.5,0.3-1.2,0.3-2.3c0-1.1-0.1-1.9-0.3-2.3s-0.5-0.7-0.9-0.7s-0.8,0.2-0.9,0.7C889.4,251.3,889.3,252.2,889.3,253.3z"/>
	</g>
</g>
<g>
	<g>
		<path fill="#4CA8DE" d="M802.2,305h-6.2v-1.3l2.2-2.2c0.7-0.7,1.1-1.1,1.3-1.4s0.3-0.5,0.4-0.7c0.1-0.2,0.1-0.4,0.1-0.7
			c0-0.4-0.1-0.6-0.3-0.8c-0.2-0.2-0.5-0.3-0.8-0.3s-0.7,0.1-1,0.2c-0.3,0.2-0.7,0.4-1,0.7l-1-1.2c0.4-0.4,0.8-0.6,1.1-0.8
			c0.3-0.2,0.6-0.3,0.9-0.4s0.7-0.1,1.1-0.1c0.5,0,1,0.1,1.5,0.3c0.4,0.2,0.7,0.5,1,0.8c0.2,0.4,0.3,0.8,0.3,1.2
			c0,0.4-0.1,0.8-0.2,1.1c-0.1,0.4-0.4,0.7-0.7,1.1c-0.3,0.4-0.8,0.9-1.6,1.6l-1.1,1.1v0.1h3.8v1.7H802.2z"/>
		<path fill="#4CA8DE" d="M805.3,303.7c-0.2,0.8-0.6,1.8-1.1,2.9h-1.3c0.3-1.1,0.5-2.1,0.6-3h1.7L805.3,303.7z"/>
		<path fill="#4CA8DE" d="M806.5,301.3c0-1.7,0.4-3,1.1-3.9c0.7-0.8,1.8-1.3,3.3-1.3c0.5,0,0.9,0,1.2,0.1v1.5
			c-0.4-0.1-0.7-0.1-1.1-0.1c-0.6,0-1.2,0.1-1.6,0.3s-0.7,0.5-0.9,0.9c-0.2,0.4-0.3,0.9-0.4,1.6h0.1c0.4-0.7,1-1,1.9-1
			c0.8,0,1.4,0.2,1.8,0.7c0.4,0.5,0.7,1.2,0.7,2c0,0.9-0.3,1.7-0.8,2.2c-0.5,0.5-1.3,0.8-2.2,0.8c-0.6,0-1.2-0.2-1.7-0.5
			s-0.9-0.7-1.1-1.3C806.7,302.8,806.5,302.1,806.5,301.3z M809.8,303.7c0.4,0,0.7-0.1,0.9-0.4c0.2-0.3,0.3-0.6,0.3-1.1
			c0-0.4-0.1-0.8-0.3-1c-0.2-0.2-0.5-0.4-0.9-0.4c-0.4,0-0.7,0.1-1,0.4c-0.3,0.3-0.4,0.5-0.4,0.9c0,0.5,0.1,0.9,0.4,1.2
			C809.1,303.5,809.4,303.7,809.8,303.7z"/>
		<path fill="#4CA8DE" d="M819.9,300.6c0,1.5-0.3,2.7-0.8,3.4c-0.5,0.7-1.3,1.1-2.3,1.1c-1,0-1.8-0.4-2.3-1.1s-0.8-1.9-0.8-3.4
			c0-1.6,0.3-2.7,0.8-3.4c0.5-0.7,1.3-1.1,2.3-1.1c1,0,1.8,0.4,2.3,1.2C819.7,297.9,819.9,299.2,819.9,300.6z M815.5,300.6
			c0,1.1,0.1,1.8,0.3,2.3c0.2,0.5,0.5,0.7,0.9,0.7s0.7-0.2,0.9-0.7c0.2-0.5,0.3-1.2,0.3-2.3c0-1.1-0.1-1.9-0.3-2.3
			c-0.2-0.4-0.5-0.7-0.9-0.7s-0.8,0.2-0.9,0.7C815.6,298.8,815.5,299.6,815.5,300.6z"/>
		<path fill="#4CA8DE" d="M827,300.6c0,1.5-0.3,2.7-0.8,3.4c-0.5,0.7-1.3,1.1-2.3,1.1c-1,0-1.8-0.4-2.3-1.1s-0.8-1.9-0.8-3.4
			c0-1.6,0.3-2.7,0.8-3.4c0.5-0.7,1.3-1.1,2.3-1.1c1,0,1.8,0.4,2.3,1.2C826.7,297.9,827,299.2,827,300.6z M822.7,300.6
			c0,1.1,0.1,1.8,0.3,2.3c0.2,0.5,0.5,0.7,0.9,0.7s0.7-0.2,0.9-0.7c0.2-0.5,0.3-1.2,0.3-2.3c0-1.1-0.1-1.9-0.3-2.3
			c-0.2-0.4-0.5-0.7-0.9-0.7s-0.8,0.2-0.9,0.7C822.7,298.8,822.7,299.6,822.7,300.6z"/>
	</g>
</g>
<g>
	<g>
		<path fill="#4CA8DE" d="M671.7,428h-1.9v-5.1V422v-0.9c-0.3,0.3-0.5,0.5-0.6,0.6l-1,0.8l-0.9-1.1l2.8-2.3h1.5v8.9H671.7z"/>
		<path fill="#4CA8DE" d="M676.4,426.7c-0.2,0.8-0.6,1.8-1.1,2.9H674c0.3-1.1,0.5-2.1,0.6-3h1.7L676.4,426.7z"/>
		<path fill="#4CA8DE" d="M683.9,423.5c0,1.5-0.3,2.7-0.8,3.4s-1.3,1.1-2.3,1.1s-1.8-0.4-2.3-1.1c-0.5-0.7-0.8-1.9-0.8-3.4
			c0-1.6,0.3-2.7,0.8-3.4c0.5-0.7,1.3-1.1,2.3-1.1s1.8,0.4,2.3,1.2C683.7,420.9,683.9,422.1,683.9,423.5z M679.5,423.5
			c0,1.1,0.1,1.8,0.3,2.3c0.2,0.5,0.5,0.7,0.9,0.7s0.7-0.2,0.9-0.7c0.2-0.5,0.3-1.2,0.3-2.3c0-1.1-0.1-1.9-0.3-2.3s-0.5-0.7-0.9-0.7
			s-0.8,0.2-0.9,0.7C679.6,421.7,679.5,422.5,679.5,423.5z"/>
		<path fill="#4CA8DE" d="M691,423.5c0,1.5-0.3,2.7-0.8,3.4s-1.3,1.1-2.3,1.1c-1,0-1.8-0.4-2.3-1.1c-0.5-0.7-0.8-1.9-0.8-3.4
			c0-1.6,0.3-2.7,0.8-3.4c0.5-0.7,1.3-1.1,2.3-1.1c1,0,1.8,0.4,2.3,1.2C690.7,420.9,691,422.1,691,423.5z M686.7,423.5
			c0,1.1,0.1,1.8,0.3,2.3c0.2,0.5,0.5,0.7,0.9,0.7s0.7-0.2,0.9-0.7c0.2-0.5,0.3-1.2,0.3-2.3c0-1.1-0.1-1.9-0.3-2.3
			c-0.2-0.4-0.5-0.7-0.9-0.7s-0.8,0.2-0.9,0.7C686.8,421.7,686.7,422.5,686.7,423.5z"/>
		<path fill="#4CA8DE" d="M698.1,423.5c0,1.5-0.3,2.7-0.8,3.4s-1.3,1.1-2.3,1.1s-1.8-0.4-2.3-1.1s-0.8-1.9-0.8-3.4
			c0-1.6,0.3-2.7,0.8-3.4c0.5-0.7,1.3-1.1,2.3-1.1s1.8,0.4,2.3,1.2C697.8,420.9,698.1,422.1,698.1,423.5z M693.8,423.5
			c0,1.1,0.1,1.8,0.3,2.3c0.2,0.5,0.5,0.7,0.9,0.7s0.7-0.2,0.9-0.7c0.2-0.5,0.3-1.2,0.3-2.3c0-1.1-0.1-1.9-0.3-2.3
			c-0.2-0.4-0.5-0.7-0.9-0.7s-0.8,0.2-0.9,0.7C693.9,421.7,693.8,422.5,693.8,423.5z"/>
	</g>
</g>
<g>
	<g>
		<path fill="#4CA8DE" d="M610.6,450.3c0-1.7,0.4-3,1.1-3.9c0.7-0.8,1.8-1.3,3.3-1.3c0.5,0,0.9,0,1.2,0.1v1.5
			c-0.4-0.1-0.7-0.1-1.1-0.1c-0.6,0-1.2,0.1-1.6,0.3c-0.4,0.2-0.7,0.5-0.9,0.9c-0.2,0.4-0.3,0.9-0.4,1.6h0.1c0.4-0.7,1-1,1.9-1
			c0.8,0,1.4,0.2,1.8,0.7c0.4,0.5,0.7,1.2,0.7,2c0,0.9-0.3,1.7-0.8,2.2c-0.5,0.5-1.3,0.8-2.2,0.8c-0.6,0-1.2-0.2-1.7-0.5
			s-0.9-0.7-1.1-1.3C610.7,451.7,610.6,451.2,610.6,450.3z M613.9,452.7c0.4,0,0.7-0.1,0.9-0.4c0.2-0.3,0.3-0.6,0.3-1.1
			c0-0.4-0.1-0.8-0.3-1c-0.2-0.2-0.5-0.4-0.9-0.4s-0.7,0.1-1,0.4c-0.3,0.2-0.4,0.5-0.4,0.9c0,0.5,0.1,0.9,0.4,1.2
			C613.2,452.5,613.5,452.7,613.9,452.7z"/>
		<path fill="#4CA8DE" d="M621,448.5c0.8,0,1.5,0.2,2,0.7c0.5,0.5,0.8,1.1,0.8,2c0,1-0.3,1.7-0.9,2.3c-0.6,0.5-1.5,0.8-2.6,0.8
			c-1,0-1.8-0.2-2.4-0.5v-1.6c0.3,0.2,0.7,0.3,1.1,0.4c0.4,0.1,0.8,0.2,1.2,0.2c1.1,0,1.7-0.5,1.7-1.4c0-0.9-0.6-1.3-1.8-1.3
			c-0.2,0-0.4,0-0.7,0.1c-0.3,0.1-0.5,0.1-0.6,0.1l-0.7-0.4l0.3-4.5h4.8v1.6h-3.1l-0.2,1.7h0.2C620.3,448.5,620.6,448.5,621,448.5z"
			/>
		<path fill="#4CA8DE" d="M631,449.7c0,1.5-0.3,2.7-0.8,3.4c-0.5,0.7-1.3,1.1-2.3,1.1s-1.8-0.4-2.3-1.1c-0.5-0.7-0.8-1.9-0.8-3.4
			c0-1.6,0.2-2.7,0.8-3.4c0.5-0.7,1.3-1.1,2.3-1.1s1.8,0.4,2.3,1.2C630.7,447,631,448.2,631,449.7z M626.7,449.7
			c0,1.1,0.1,1.8,0.3,2.3c0.2,0.5,0.5,0.7,0.9,0.7s0.7-0.2,0.9-0.7c0.2-0.5,0.3-1.2,0.3-2.3c0-1.1-0.1-1.9-0.3-2.3
			c-0.2-0.4-0.5-0.7-0.9-0.7s-0.7,0.2-0.9,0.7C626.8,447.7,626.7,448.6,626.7,449.7z"/>
	</g>
</g>
<g>
	<g>
		<path fill="#4CA8DE" d="M548.7,466c0.8,0,1.5,0.2,2,0.7c0.5,0.5,0.8,1.1,0.8,2c0,1-0.3,1.7-0.9,2.3c-0.6,0.5-1.5,0.8-2.6,0.8
			c-1,0-1.8-0.2-2.4-0.5v-1.6c0.3,0.2,0.7,0.3,1.1,0.4c0.4,0.1,0.8,0.2,1.2,0.2c1.1,0,1.7-0.5,1.7-1.4s-0.6-1.3-1.8-1.3
			c-0.2,0-0.4,0-0.7,0.1c-0.3,0.1-0.5,0.1-0.6,0.1l-0.7-0.4l0.3-4.5h4.8v1.6h-3.1l-0.2,1.7h0.2C548.1,466.1,548.4,466,548.7,466z"/>
		<path fill="#4CA8DE" d="M558.8,467.3c0,1.5-0.3,2.7-0.8,3.4c-0.5,0.7-1.3,1.1-2.3,1.1c-1,0-1.8-0.4-2.3-1.1
			c-0.5-0.7-0.8-1.9-0.8-3.4c0-1.6,0.2-2.7,0.8-3.4c0.5-0.7,1.3-1.1,2.3-1.1c1,0,1.8,0.4,2.3,1.2
			C558.5,464.6,558.8,465.8,558.8,467.3z M554.5,467.3c0,1.1,0.1,1.8,0.3,2.3c0.2,0.5,0.5,0.7,0.9,0.7s0.7-0.2,0.9-0.7
			c0.2-0.5,0.3-1.2,0.3-2.3c0-1.1-0.1-1.9-0.3-2.3c-0.2-0.4-0.5-0.7-0.9-0.7s-0.7,0.2-0.9,0.7C554.6,465.4,554.5,466.2,554.5,467.3z
			"/>
		<path fill="#4CA8DE" d="M565.9,467.3c0,1.5-0.3,2.7-0.8,3.4c-0.5,0.7-1.3,1.1-2.3,1.1s-1.8-0.4-2.3-1.1c-0.5-0.7-0.8-1.9-0.8-3.4
			c0-1.6,0.2-2.7,0.8-3.4c0.5-0.7,1.3-1.1,2.3-1.1s1.8,0.4,2.3,1.2C565.5,464.6,565.9,465.8,565.9,467.3z M561.5,467.3
			c0,1.1,0.1,1.8,0.3,2.3c0.2,0.5,0.5,0.7,0.9,0.7s0.7-0.2,0.9-0.7c0.2-0.5,0.3-1.2,0.3-2.3c0-1.1-0.1-1.9-0.3-2.3
			c-0.2-0.4-0.5-0.7-0.9-0.7s-0.7,0.2-0.9,0.7C561.6,465.4,561.5,466.2,561.5,467.3z"/>
	</g>
</g>
<g>
	<g>
		<path fill="#4CA8DE" d="M484,492.4h-6.2v-1.3l2.2-2.2c0.7-0.7,1.1-1.1,1.3-1.4c0.2-0.3,0.3-0.5,0.4-0.7c0.1-0.2,0.1-0.4,0.1-0.7
			c0-0.4-0.1-0.6-0.3-0.8c-0.2-0.2-0.5-0.3-0.8-0.3c-0.3,0-0.7,0.1-1,0.2c-0.3,0.2-0.7,0.4-1,0.7l-1-1.2c0.4-0.4,0.8-0.6,1.1-0.8
			c0.3-0.2,0.6-0.3,0.9-0.4c0.3-0.1,0.7-0.1,1.1-0.1c0.5,0,1,0.1,1.5,0.3c0.4,0.2,0.7,0.5,1,0.8c0.2,0.4,0.3,0.8,0.3,1.2
			s-0.1,0.8-0.2,1.1c-0.1,0.3-0.4,0.7-0.7,1.1c-0.3,0.4-0.8,0.9-1.6,1.6l-1.1,1.1v0.1h3.8v1.7H484z"/>
		<path fill="#4CA8DE" d="M488.2,486.8c0.8,0,1.5,0.2,2,0.7c0.5,0.5,0.8,1.1,0.8,2c0,1-0.3,1.7-0.9,2.3c-0.6,0.5-1.5,0.8-2.6,0.8
			c-1,0-1.8-0.2-2.4-0.5v-1.6c0.3,0.2,0.7,0.3,1.1,0.4c0.4,0.1,0.8,0.2,1.2,0.2c1.1,0,1.7-0.5,1.7-1.4c0-0.9-0.6-1.3-1.8-1.3
			c-0.2,0-0.4,0-0.7,0.1c-0.3,0.1-0.5,0.1-0.6,0.1l-0.7-0.4l0.3-4.5h4.8v1.6h-3.1l-0.2,1.7h0.2C487.5,486.8,487.8,486.8,488.2,486.8
			z"/>
		<path fill="#4CA8DE" d="M498.2,488c0,1.5-0.3,2.7-0.8,3.4s-1.3,1.1-2.3,1.1s-1.8-0.4-2.3-1.1s-0.8-1.9-0.8-3.4
			c0-1.6,0.2-2.7,0.8-3.4c0.5-0.7,1.3-1.1,2.3-1.1s1.8,0.4,2.3,1.2C498,485.4,498.2,486.5,498.2,488z M493.8,488
			c0,1.1,0.1,1.8,0.3,2.3c0.2,0.5,0.5,0.7,0.9,0.7s0.7-0.2,0.9-0.7s0.3-1.2,0.3-2.3c0-1.1-0.1-1.9-0.3-2.3s-0.5-0.7-0.9-0.7
			s-0.7,0.2-0.9,0.7C493.9,486.2,493.8,486.9,493.8,488z"/>
	</g>
</g>
<g>
	<g>
		<path fill="#4CA8DE" d="M421.3,508.5l3.3-7.3h-4.3v-1.6h6.4v1.2l-3.3,7.7H421.3z"/>
		<path fill="#4CA8DE" d="M430.8,502.8c0.8,0,1.5,0.2,2,0.7c0.5,0.5,0.8,1.1,0.8,2c0,1-0.3,1.7-0.9,2.3c-0.6,0.5-1.5,0.8-2.6,0.8
			c-1,0-1.8-0.2-2.4-0.5v-1.6c0.3,0.2,0.7,0.3,1.1,0.4c0.4,0.1,0.8,0.2,1.2,0.2c1.1,0,1.7-0.5,1.7-1.4c0-0.9-0.6-1.3-1.8-1.3
			c-0.2,0-0.4,0-0.7,0.1c-0.3,0.1-0.5,0.1-0.6,0.1l-0.7-0.4l0.3-4.5h4.8v1.6h-3.1l-0.2,1.7h0.2C430.1,502.8,430.4,502.8,430.8,502.8
			z"/>
	</g>
</g>
<g>
	<g>
		<path fill="#666766" d="M442.2,549.5l-1-2.6h-3.3l-1,2.6h-1l3.2-8.3h0.8l3.2,8.3H442.2z M440.8,546l-0.9-2.5
			c-0.1-0.3-0.2-0.7-0.4-1.2c-0.1,0.4-0.2,0.7-0.4,1.2l-1,2.5H440.8z"/>
		<path fill="#666766" d="M445,543.3v4c0,0.5,0.1,0.9,0.3,1.1c0.2,0.2,0.6,0.4,1.1,0.4c0.6,0,1.1-0.2,1.4-0.5
			c0.3-0.3,0.4-0.9,0.4-1.7v-3.2h0.9v6.2h-0.8l-0.1-0.8h-0.1c-0.2,0.3-0.5,0.5-0.8,0.7c-0.3,0.2-0.7,0.2-1.2,0.2
			c-0.7,0-1.3-0.2-1.7-0.5c-0.4-0.4-0.6-0.9-0.6-1.7v-4h1.2V543.3z"/>
		<path fill="#666766" d="M455.2,547.8c0,0.6-0.2,1-0.6,1.3s-1,0.5-1.8,0.5s-1.4-0.1-1.9-0.4v-0.9c0.3,0.1,0.6,0.3,0.9,0.4
			c0.3,0.1,0.7,0.1,1,0.1c0.5,0,0.9-0.1,1.1-0.2c0.3-0.2,0.4-0.4,0.4-0.7c0-0.2-0.1-0.4-0.3-0.6c-0.2-0.2-0.6-0.4-1.2-0.6
			s-1-0.4-1.2-0.6s-0.4-0.3-0.5-0.5c-0.1-0.2-0.2-0.4-0.2-0.7c0-0.5,0.2-0.9,0.6-1.2s1-0.4,1.7-0.4c0.7,0,1.3,0.1,1.9,0.4l-0.3,0.8
			c-0.6-0.3-1.2-0.4-1.7-0.4c-0.4,0-0.8,0.1-1,0.2c-0.2,0.1-0.3,0.3-0.3,0.6c0,0.2,0,0.3,0.1,0.4c0.1,0.1,0.2,0.2,0.4,0.3
			c0.2,0.1,0.5,0.3,1.1,0.5c0.7,0.3,1.2,0.5,1.5,0.8C455.1,547,455.2,547.4,455.2,547.8z"/>
		<path fill="#666766" d="M458.7,548.8c0.2,0,0.3,0,0.5,0s0.3,0,0.4-0.1v0.7c-0.1,0-0.2,0.1-0.4,0.1s-0.4,0-0.5,0
			c-1.2,0-1.8-0.6-1.8-1.9V544H456v-0.4l0.9-0.4l0.4-1.3h0.5v1.4h1.8v0.7h-1.8v3.6c0,0.4,0.1,0.7,0.3,0.8
			C458.1,548.7,458.4,548.8,458.7,548.8z"/>
		<path fill="#666766" d="M460.6,541.7c0-0.2,0.1-0.4,0.2-0.5c0.1-0.1,0.2-0.1,0.4-0.1c0.1,0,0.3,0,0.4,0.2c0.1,0.2,0.2,0.3,0.2,0.5
			s-0.1,0.4-0.2,0.5c-0.1,0.1-0.2,0.2-0.4,0.2s-0.3-0.1-0.4-0.2C460.7,542,460.6,541.9,460.6,541.7z M461.6,549.5h-0.9v-6.2h0.9
			V549.5z"/>
		<path fill="#666766" d="M467.9,549.5v-4c0-0.5-0.1-0.9-0.3-1.1s-0.6-0.4-1.1-0.4c-0.6,0-1.1,0.2-1.4,0.5c-0.3,0.3-0.4,0.9-0.4,1.7
			v3.2h-0.9v-6.2h0.7l0.2,0.8l0,0c0.2-0.3,0.5-0.5,0.8-0.7c0.3-0.2,0.7-0.2,1.1-0.2c0.7,0,1.3,0.2,1.7,0.5s0.6,0.9,0.6,1.7v4h-1
			V549.5z"/>
	</g>
</g>
<g>
	<g>
		<path fill="#666766" d="M509.3,529.5c0,0.7-0.3,1.3-0.8,1.7c-0.5,0.4-1.2,0.6-2.1,0.6c-1,0-1.7-0.1-2.2-0.4v-0.9
			c0.3,0.1,0.7,0.3,1.1,0.3c0.4,0.1,0.8,0.1,1.2,0.1c0.6,0,1.1-0.1,1.4-0.4c0.3-0.2,0.5-0.6,0.5-1c0-0.3-0.1-0.5-0.2-0.7
			c-0.1-0.2-0.3-0.3-0.6-0.5c-0.3-0.2-0.7-0.3-1.2-0.5c-0.8-0.3-1.3-0.6-1.6-1c-0.3-0.4-0.5-0.9-0.5-1.5s0.2-1.1,0.7-1.5
			c0.5-0.4,1.1-0.6,1.9-0.6s1.6,0.1,2.2,0.4l-0.3,0.8c-0.7-0.3-1.3-0.4-2-0.4c-0.5,0-0.9,0.1-1.2,0.3c-0.3,0.2-0.4,0.5-0.4,0.9
			c0,0.3,0.1,0.5,0.2,0.7c0.1,0.2,0.3,0.3,0.5,0.5c0.2,0.2,0.6,0.3,1.1,0.5c0.9,0.3,1.4,0.6,1.8,1
			C509.2,528.2,509.3,529,509.3,529.5z"/>
		<path fill="#666766" d="M514.6,531.7l-0.2-0.9l0,0c-0.3,0.4-0.6,0.6-0.9,0.8c-0.3,0.2-0.7,0.2-1.1,0.2c-0.6,0-1.1-0.2-1.4-0.5
			c-0.3-0.3-0.5-0.8-0.5-1.3c0-1.2,1-1.9,3-1.9h1v-0.4c0-0.5-0.1-0.8-0.3-1.1c-0.2-0.3-0.5-0.3-1-0.3c-0.5,0-1.1,0.2-1.7,0.5
			l-0.3-0.7c0.3-0.2,0.6-0.3,1-0.4c0.4-0.1,0.7-0.1,1.1-0.1c0.7,0,1.3,0.2,1.6,0.5c0.4,0.3,0.5,0.8,0.5,1.6v4.2h-0.8V531.7z
			 M512.5,531.1c0.6,0,1-0.2,1.4-0.5s0.5-0.8,0.5-1.3v-0.6h-0.9c-0.7,0-1.3,0.1-1.6,0.3c-0.3,0.2-0.5,0.5-0.5,0.9
			c0,0.3,0.1,0.6,0.3,0.8C511.9,531,512.2,531.1,512.5,531.1z"/>
		<path fill="#666766" d="M521.5,531.7v-4c0-0.5-0.1-0.9-0.3-1.1c-0.2-0.2-0.6-0.4-1.1-0.4c-0.6,0-1.1,0.2-1.4,0.5
			c-0.3,0.3-0.4,0.9-0.4,1.7v3.2h-0.9v-6.2h0.8l0.2,0.8l0,0c0.2-0.3,0.5-0.5,0.8-0.7c0.3-0.2,0.7-0.2,1.1-0.2c0.7,0,1.3,0.2,1.7,0.5
			c0.4,0.3,0.6,0.9,0.6,1.7v4h-1.1V531.7z"/>
		<path fill="#666766" d="M532.7,531.7l-1-2.6h-3.3l-1,2.6h-1l3.2-8.3h0.8l3.2,8.3H532.7z M531.4,528.2l-0.9-2.5
			c-0.1-0.3-0.2-0.7-0.4-1.2c-0.1,0.4-0.2,0.7-0.4,1.2l-1,2.5H531.4z"/>
		<path fill="#666766" d="M538.8,531.7v-4c0-0.5-0.1-0.9-0.3-1.1c-0.2-0.2-0.6-0.4-1.1-0.4c-0.6,0-1.1,0.2-1.4,0.5s-0.4,0.9-0.4,1.7
			v3.2h-0.9v-6.2h0.8l0.2,0.8l0,0c0.2-0.3,0.5-0.5,0.8-0.7c0.3-0.2,0.7-0.2,1.1-0.2c0.7,0,1.3,0.2,1.7,0.5s0.6,0.9,0.6,1.7v4h-1.1
			V531.7z"/>
		<path fill="#666766" d="M543.7,531.1c0.2,0,0.3,0,0.5,0c0.2,0,0.3,0,0.4-0.1v0.7c-0.1,0-0.2,0.1-0.4,0.1c-0.2,0-0.4,0-0.5,0
			c-1.2,0-1.8-0.6-1.8-1.9v-3.6h-0.9v-0.4l0.9-0.4l0.4-1.3h0.5v1.4h1.8v0.7h-1.8v3.6c0,0.4,0.1,0.7,0.3,0.8
			C543.2,531,543.4,531.1,543.7,531.1z"/>
		<path fill="#666766" d="M551.1,528.7c0,1-0.3,1.8-0.8,2.3c-0.5,0.6-1.2,0.8-2.1,0.8c-0.5,0-1-0.1-1.5-0.4c-0.4-0.3-0.8-0.6-1-1.1
			c-0.2-0.5-0.3-1-0.3-1.7c0-1,0.2-1.8,0.7-2.3c0.5-0.6,1.2-0.8,2.1-0.8c0.9,0,1.5,0.3,2,0.9C550.8,526.8,551.1,527.6,551.1,528.7z
			 M546.4,528.7c0,0.8,0.2,1.4,0.5,1.8c0.3,0.4,0.8,0.6,1.4,0.6c0.6,0,1.1-0.2,1.4-0.6c0.3-0.4,0.5-1,0.5-1.8s-0.2-1.4-0.5-1.8
			c-0.3-0.4-0.8-0.6-1.4-0.6c-0.6,0-1.1,0.2-1.4,0.6S546.4,527.8,546.4,528.7z"/>
		<path fill="#666766" d="M557,531.7v-4c0-0.5-0.1-0.9-0.3-1.1c-0.2-0.2-0.6-0.4-1.1-0.4c-0.6,0-1.1,0.2-1.4,0.5
			c-0.3,0.3-0.4,0.9-0.4,1.7v3.2h-0.9v-6.2h0.8l0.2,0.8l0,0c0.2-0.3,0.5-0.5,0.8-0.7c0.3-0.2,0.7-0.2,1.1-0.2c0.7,0,1.3,0.2,1.7,0.5
			s0.6,0.9,0.6,1.7v4H557V531.7z"/>
		<path fill="#666766" d="M559.7,523.8c0-0.2,0.1-0.4,0.2-0.5c0.1-0.1,0.2-0.1,0.4-0.1c0.1,0,0.3,0,0.4,0.2c0.1,0.2,0.2,0.3,0.2,0.5
			c0,0.2-0.1,0.4-0.2,0.5c-0.1,0.1-0.2,0.2-0.4,0.2c-0.2,0-0.3-0.1-0.4-0.2C559.8,524.2,559.7,524.1,559.7,523.8z M560.7,531.7h-0.9
			v-6.2h0.9V531.7z"/>
		<path fill="#666766" d="M568.1,528.7c0,1-0.3,1.8-0.8,2.3c-0.5,0.6-1.2,0.8-2.1,0.8c-0.5,0-1-0.1-1.5-0.4c-0.4-0.3-0.8-0.6-1-1.1
			c-0.2-0.5-0.3-1-0.3-1.7c0-1,0.2-1.8,0.7-2.3c0.5-0.6,1.2-0.8,2.1-0.8s1.5,0.3,2,0.9C567.8,526.8,568.1,527.6,568.1,528.7z
			 M563.3,528.7c0,0.8,0.2,1.4,0.5,1.8c0.3,0.4,0.8,0.6,1.4,0.6c0.6,0,1.1-0.2,1.4-0.6c0.3-0.4,0.5-1,0.5-1.8s-0.2-1.4-0.5-1.8
			c-0.3-0.4-0.8-0.6-1.4-0.6c-0.6,0-1.1,0.2-1.4,0.6S563.3,527.8,563.3,528.7z"/>
	</g>
</g>
<g>
	<g>
		<path fill="#666766" d="M567.9,508.5c0,0.7-0.3,1.3-0.8,1.7c-0.5,0.4-1.2,0.6-2.1,0.6c-1,0-1.7-0.1-2.2-0.4v-0.9
			c0.3,0.1,0.7,0.3,1.1,0.3c0.4,0.1,0.8,0.1,1.2,0.1c0.6,0,1.1-0.1,1.4-0.4c0.3-0.2,0.5-0.6,0.5-1c0-0.3-0.1-0.5-0.2-0.7
			s-0.3-0.3-0.6-0.5c-0.3-0.2-0.7-0.3-1.2-0.5c-0.8-0.3-1.3-0.6-1.6-1c-0.3-0.4-0.5-0.9-0.5-1.5s0.2-1.1,0.7-1.5s1.1-0.6,1.9-0.6
			s1.6,0.1,2.2,0.4l-0.3,0.8c-0.7-0.3-1.3-0.4-2-0.4c-0.5,0-0.9,0.1-1.2,0.3c-0.3,0.2-0.4,0.5-0.4,0.9c0,0.3,0.1,0.5,0.2,0.7
			c0.1,0.2,0.3,0.3,0.5,0.5c0.2,0.2,0.6,0.3,1.1,0.5c0.9,0.3,1.4,0.6,1.8,1C567.8,507.3,567.9,507.9,567.9,508.5z"/>
		<path fill="#666766" d="M573.2,510.7l-0.2-0.9l0,0c-0.3,0.4-0.6,0.6-0.9,0.8c-0.3,0.2-0.7,0.2-1.1,0.2c-0.6,0-1.1-0.2-1.4-0.5
			s-0.5-0.8-0.5-1.3c0-1.2,1-1.9,3-1.9h1v-0.4c0-0.5-0.1-0.8-0.3-1.1c-0.2-0.3-0.5-0.3-1-0.3c-0.5,0-1.1,0.2-1.7,0.5l-0.3-0.7
			c0.3-0.2,0.6-0.3,1-0.4c0.4-0.1,0.7-0.1,1.1-0.1c0.7,0,1.3,0.2,1.6,0.5c0.4,0.3,0.5,0.8,0.5,1.6v4.2h-0.8V510.7z M571.1,510
			c0.6,0,1-0.2,1.4-0.5c0.4-0.3,0.5-0.8,0.5-1.3v-0.6h-0.9c-0.7,0-1.3,0.1-1.6,0.3c-0.3,0.2-0.5,0.5-0.5,0.9c0,0.3,0.1,0.6,0.3,0.8
			C570.5,509.9,570.7,510,571.1,510z"/>
		<path fill="#666766" d="M580.1,510.7v-4c0-0.5-0.1-0.9-0.3-1.1c-0.2-0.2-0.6-0.4-1.1-0.4c-0.6,0-1.1,0.2-1.4,0.5s-0.4,0.9-0.4,1.7
			v3.2h-0.9v-6.2h0.8l0.2,0.8l0,0c0.2-0.3,0.5-0.5,0.8-0.7c0.3-0.2,0.7-0.2,1.1-0.2c0.7,0,1.3,0.2,1.7,0.5s0.6,0.9,0.6,1.7v4h-1.1
			V510.7z"/>
		<path fill="#666766" d="M584.9,510c0.2,0,0.3,0,0.5,0c0.2,0,0.3,0,0.4-0.1v0.7c-0.1,0-0.2,0.1-0.4,0.1c-0.2,0-0.4,0-0.5,0
			c-1.2,0-1.8-0.6-1.8-1.9v-3.6h-0.9v-0.4l0.9-0.4l0.4-1.3h0.5v1.4h1.8v0.7H584v3.6c0,0.4,0.1,0.7,0.3,0.8
			C584.3,509.9,584.6,510,584.9,510z"/>
		<path fill="#666766" d="M590.8,510.7l-0.2-0.9l0,0c-0.3,0.4-0.6,0.6-0.9,0.8c-0.3,0.2-0.7,0.2-1.1,0.2c-0.6,0-1.1-0.2-1.4-0.5
			c-0.3-0.3-0.5-0.8-0.5-1.3c0-1.2,1-1.9,3-1.9h1v-0.4c0-0.5-0.1-0.8-0.3-1.1c-0.2-0.3-0.5-0.3-1-0.3c-0.5,0-1.1,0.2-1.7,0.5
			l-0.3-0.7c0.3-0.2,0.6-0.3,1-0.4c0.4-0.1,0.7-0.1,1.1-0.1c0.7,0,1.3,0.2,1.6,0.5c0.4,0.3,0.5,0.8,0.5,1.6v4.2h-0.8V510.7z
			 M588.6,510c0.6,0,1-0.2,1.4-0.5s0.5-0.8,0.5-1.3v-0.6h-0.9c-0.7,0-1.3,0.1-1.6,0.3c-0.3,0.2-0.5,0.5-0.5,0.9
			c0,0.3,0.1,0.6,0.3,0.8C588,509.9,588.2,510,588.6,510z"/>
		<path fill="#666766" d="M600,503.1c-0.9,0-1.6,0.3-2.1,0.9c-0.5,0.6-0.8,1.4-0.8,2.5c0,1.1,0.3,1.9,0.8,2.5
			c0.5,0.6,1.2,0.9,2.1,0.9c0.6,0,1.2-0.1,1.9-0.3v0.8c-0.6,0.2-1.3,0.3-2.1,0.3c-1.2,0-2.1-0.4-2.8-1.1c-0.7-0.7-1-1.8-1-3.1
			c0-0.8,0.2-1.6,0.5-2.2c0.3-0.6,0.8-1.1,1.4-1.5c0.6-0.3,1.3-0.5,2.1-0.5c0.9,0,1.6,0.2,2.2,0.5l-0.4,0.8
			C601.3,503.3,600.7,503.1,600,503.1z"/>
		<path fill="#666766" d="M604.6,510.7h-0.9v-8.8h0.9V510.7z"/>
		<path fill="#666766" d="M610.3,510.7l-0.2-0.9l0,0c-0.3,0.4-0.6,0.6-0.9,0.8c-0.3,0.2-0.7,0.2-1.1,0.2c-0.6,0-1.1-0.2-1.4-0.5
			s-0.5-0.8-0.5-1.3c0-1.2,1-1.9,3-1.9h1v-0.4c0-0.5-0.1-0.8-0.3-1.1c-0.2-0.3-0.5-0.3-1-0.3c-0.5,0-1.1,0.2-1.7,0.5l-0.3-0.7
			c0.3-0.2,0.6-0.3,1-0.4c0.4-0.1,0.7-0.1,1.1-0.1c0.7,0,1.3,0.2,1.6,0.5c0.4,0.3,0.5,0.8,0.5,1.6v4.2h-0.8V510.7z M608.2,510
			c0.6,0,1-0.2,1.4-0.5s0.5-0.8,0.5-1.3v-0.6h-0.9c-0.7,0-1.3,0.1-1.6,0.3c-0.3,0.2-0.5,0.5-0.5,0.9c0,0.3,0.1,0.6,0.3,0.8
			C607.6,509.9,607.9,510,608.2,510z"/>
		<path fill="#666766" d="M615.8,504.3c0.3,0,0.5,0,0.7,0.1l-0.1,0.9c-0.3-0.1-0.5-0.1-0.7-0.1c-0.5,0-0.9,0.2-1.3,0.6
			c-0.4,0.4-0.5,0.9-0.5,1.5v3.3H613v-6.2h0.8l0.1,1.1l0,0c0.2-0.4,0.5-0.7,0.8-0.9C615,504.5,615.4,504.3,615.8,504.3z"/>
		<path fill="#666766" d="M621.4,510.7l-0.2-0.9l0,0c-0.3,0.4-0.6,0.6-0.9,0.8c-0.3,0.2-0.7,0.2-1.1,0.2c-0.6,0-1.1-0.2-1.4-0.5
			c-0.3-0.3-0.5-0.8-0.5-1.3c0-1.2,1-1.9,3-1.9h1v-0.4c0-0.5-0.1-0.8-0.3-1.1c-0.2-0.3-0.5-0.3-1-0.3s-1.1,0.2-1.7,0.5L618,505
			c0.3-0.2,0.6-0.3,1-0.4c0.4-0.1,0.7-0.1,1.1-0.1c0.7,0,1.3,0.2,1.6,0.5c0.4,0.3,0.5,0.8,0.5,1.6v4.2h-0.8V510.7z M619.4,510
			c0.6,0,1-0.2,1.4-0.5s0.5-0.8,0.5-1.3v-0.6h-0.9c-0.7,0-1.3,0.1-1.6,0.3c-0.3,0.2-0.5,0.5-0.5,0.9c0,0.3,0.1,0.6,0.3,0.8
			C618.7,509.9,619,510,619.4,510z"/>
	</g>
</g>
<g>
	<g>
		<path fill="#666766" d="M641.4,480.9h2.3c1.1,0,1.9,0.2,2.3,0.5c0.5,0.3,0.7,0.8,0.7,1.5c0,0.5-0.1,0.9-0.4,1.2s-0.7,0.5-1.2,0.6
			v0.1c1.2,0.2,1.9,0.9,1.9,2c0,0.7-0.2,1.3-0.7,1.7s-1.2,0.6-2.1,0.6h-2.8V480.9z M642.3,484.5h1.6c0.7,0,1.2-0.1,1.4-0.3
			c0.3-0.2,0.4-0.6,0.4-1.1c0-0.5-0.2-0.8-0.5-1c-0.3-0.2-0.8-0.3-1.6-0.3h-1.4v2.7H642.3z M642.3,485.3v3.1h1.7
			c0.7,0,1.2-0.1,1.5-0.4c0.3-0.3,0.5-0.7,0.5-1.2c0-0.5-0.2-0.9-0.5-1.1c-0.3-0.2-0.9-0.4-1.6-0.4L642.3,485.3L642.3,485.3z"/>
		<path fill="#666766" d="M654,486.1c0,1-0.3,1.8-0.8,2.3c-0.5,0.6-1.2,0.8-2.1,0.8c-0.5,0-1-0.1-1.5-0.4c-0.4-0.3-0.8-0.6-1-1.1
			c-0.2-0.5-0.3-1-0.3-1.7c0-1,0.2-1.8,0.7-2.3c0.5-0.6,1.2-0.8,2.1-0.8s1.5,0.3,2,0.9C653.8,484.4,654,485.1,654,486.1z
			 M649.4,486.1c0,0.8,0.2,1.4,0.5,1.8c0.3,0.4,0.8,0.6,1.4,0.6c0.6,0,1.1-0.2,1.4-0.6c0.3-0.4,0.5-1,0.5-1.8s-0.2-1.4-0.5-1.8
			c-0.3-0.4-0.8-0.6-1.4-0.6c-0.6,0-1.1,0.2-1.4,0.6C649.5,484.7,649.4,485.3,649.4,486.1z"/>
		<path fill="#666766" d="M659.7,487.5c0,0.6-0.2,1-0.6,1.3c-0.4,0.3-1,0.5-1.8,0.5s-1.4-0.1-1.9-0.4V488c0.3,0.1,0.6,0.3,0.9,0.4
			c0.3,0.1,0.7,0.1,1,0.1c0.5,0,0.9-0.1,1.1-0.2c0.3-0.2,0.4-0.4,0.4-0.7c0-0.2-0.1-0.4-0.3-0.6c-0.2-0.2-0.6-0.4-1.2-0.6
			c-0.6-0.2-1-0.4-1.2-0.6c-0.2-0.2-0.4-0.3-0.5-0.5c-0.1-0.2-0.2-0.4-0.2-0.7c0-0.5,0.2-0.9,0.6-1.2c0.4-0.3,1-0.4,1.7-0.4
			s1.3,0.1,1.9,0.4l-0.3,0.8c-0.6-0.3-1.2-0.4-1.7-0.4c-0.4,0-0.8,0.1-1,0.2c-0.2,0.1-0.3,0.3-0.3,0.6c0,0.2,0,0.3,0.1,0.4
			s0.2,0.2,0.4,0.3c0.2,0.1,0.5,0.3,1.1,0.5c0.7,0.3,1.2,0.5,1.5,0.8C659.6,486.8,659.7,487.1,659.7,487.5z"/>
		<path fill="#666766" d="M663.2,488.5c0.2,0,0.3,0,0.5,0c0.2,0,0.3,0,0.4-0.1v0.7c-0.1,0-0.2,0.1-0.4,0.1c-0.2,0-0.4,0-0.5,0
			c-1.2,0-1.8-0.6-1.8-1.9v-3.6h-0.9v-0.4l0.9-0.4l0.4-1.3h0.5v1.4h1.8v0.7h-1.9v3.6c0,0.4,0.1,0.7,0.3,0.8
			C662.6,488.4,662.9,488.5,663.2,488.5z"/>
		<path fill="#666766" d="M670.6,486.1c0,1-0.3,1.8-0.8,2.3c-0.5,0.6-1.2,0.8-2.1,0.8c-0.5,0-1-0.1-1.5-0.4c-0.4-0.3-0.8-0.6-1-1.1
			c-0.2-0.5-0.3-1-0.3-1.7c0-1,0.2-1.8,0.7-2.3c0.5-0.6,1.2-0.8,2.1-0.8s1.5,0.3,2,0.9C670.4,484.4,670.6,485.1,670.6,486.1z
			 M665.8,486.1c0,0.8,0.2,1.4,0.5,1.8s0.8,0.6,1.4,0.6c0.6,0,1.1-0.2,1.4-0.6s0.5-1,0.5-1.8s-0.2-1.4-0.5-1.8
			c-0.3-0.4-0.8-0.6-1.4-0.6c-0.6,0-1.1,0.2-1.4,0.6C666,484.7,665.8,485.3,665.8,486.1z"/>
		<path fill="#666766" d="M676.4,489.2v-4c0-0.5-0.1-0.9-0.3-1.1c-0.2-0.2-0.6-0.4-1.1-0.4c-0.6,0-1.1,0.2-1.4,0.5s-0.4,0.9-0.4,1.7
			v3.2h-0.9V483h0.8l0.2,0.8l0,0c0.2-0.3,0.5-0.5,0.8-0.7c0.3-0.2,0.7-0.2,1.1-0.2c0.7,0,1.3,0.2,1.7,0.5c0.4,0.3,0.6,0.9,0.6,1.7v4
			h-1.1V489.2z"/>
	</g>
</g>
<g>
	<g>
		<path fill="#666766" d="M697.3,460.4c0,0.7-0.3,1.3-0.8,1.7s-1.2,0.6-2.1,0.6c-1,0-1.7-0.1-2.2-0.4v-0.9c0.3,0.1,0.7,0.3,1.1,0.3
			c0.4,0.1,0.8,0.1,1.2,0.1c0.6,0,1.1-0.1,1.4-0.4c0.3-0.2,0.5-0.6,0.5-1c0-0.3-0.1-0.5-0.2-0.7s-0.3-0.3-0.6-0.5
			c-0.3-0.2-0.7-0.3-1.2-0.5c-0.8-0.3-1.3-0.6-1.6-1c-0.3-0.4-0.5-0.9-0.5-1.5s0.2-1.1,0.7-1.5s1.1-0.6,1.9-0.6s1.6,0.1,2.2,0.4
			l-0.3,0.8c-0.7-0.3-1.3-0.4-2-0.4c-0.5,0-0.9,0.1-1.2,0.3c-0.3,0.2-0.4,0.5-0.4,0.9c0,0.3,0.1,0.5,0.2,0.7
			c0.1,0.2,0.3,0.3,0.5,0.5c0.2,0.2,0.6,0.3,1.1,0.5c0.9,0.3,1.4,0.6,1.8,1C697.1,459.2,697.3,459.8,697.3,460.4z"/>
		<path fill="#666766" d="M702.6,462.5l-0.2-0.9l0,0c-0.3,0.4-0.6,0.6-0.9,0.8c-0.3,0.1-0.7,0.2-1.1,0.2c-0.6,0-1.1-0.2-1.4-0.5
			s-0.5-0.8-0.5-1.3c0-1.2,1-1.9,3-1.9h1v-0.4c0-0.5-0.1-0.8-0.3-1.1c-0.2-0.2-0.5-0.3-1-0.3s-1.1,0.2-1.7,0.5l-0.3-0.7
			c0.3-0.2,0.6-0.3,1-0.4c0.4-0.1,0.7-0.1,1.1-0.1c0.7,0,1.3,0.2,1.6,0.5c0.4,0.3,0.5,0.8,0.5,1.6v4.2h-0.8V462.5z M700.5,461.9
			c0.6,0,1-0.2,1.4-0.5c0.3-0.3,0.5-0.8,0.5-1.3v-0.6h-0.9c-0.7,0-1.3,0.1-1.6,0.3c-0.3,0.2-0.5,0.5-0.5,0.9c0,0.3,0.1,0.6,0.3,0.8
			C699.8,461.8,700.1,461.9,700.5,461.9z"/>
		<path fill="#666766" d="M709.5,462.5v-4c0-0.5-0.1-0.9-0.3-1.1c-0.2-0.2-0.6-0.4-1.1-0.4c-0.6,0-1.1,0.2-1.4,0.5
			c-0.3,0.3-0.4,0.9-0.4,1.7v3.2h-0.9v-6.2h0.8l0.2,0.8l0,0c0.2-0.3,0.5-0.5,0.8-0.7c0.3-0.2,0.7-0.2,1.1-0.2c0.7,0,1.3,0.2,1.7,0.5
			c0.4,0.3,0.6,0.9,0.6,1.7v4h-1.1V462.5z"/>
		<path fill="#666766" d="M716.4,462.5h-0.9v-8.3h4.5v0.8h-3.6v3h3.4v0.8h-3.4V462.5z"/>
		<path fill="#666766" d="M724,456.2c0.3,0,0.5,0,0.7,0.1l-0.1,0.9c-0.3-0.1-0.5-0.1-0.7-0.1c-0.5,0-0.9,0.2-1.3,0.6
			c-0.4,0.4-0.5,0.9-0.5,1.5v3.3h-0.9v-6.2h0.8l0.1,1.1l0,0c0.2-0.4,0.5-0.7,0.8-0.9C723.3,456.3,723.7,456.2,724,456.2z"/>
		<path fill="#666766" d="M729.8,462.5l-0.2-0.9l0,0c-0.3,0.4-0.6,0.6-0.9,0.8c-0.3,0.1-0.7,0.2-1.1,0.2c-0.6,0-1.1-0.2-1.4-0.5
			s-0.5-0.8-0.5-1.3c0-1.2,1-1.9,3-1.9h1v-0.4c0-0.5-0.1-0.8-0.3-1.1c-0.2-0.2-0.5-0.3-1-0.3c-0.5,0-1.1,0.2-1.7,0.5l-0.3-0.7
			c0.3-0.2,0.6-0.3,1-0.4c0.4-0.1,0.7-0.1,1.1-0.1c0.7,0,1.3,0.2,1.6,0.5c0.4,0.3,0.5,0.8,0.5,1.6v4.2h-0.8V462.5z M727.7,461.9
			c0.6,0,1-0.2,1.4-0.5c0.3-0.3,0.5-0.8,0.5-1.3v-0.6h-0.9c-0.7,0-1.3,0.1-1.6,0.3c-0.3,0.2-0.5,0.5-0.5,0.9c0,0.3,0.1,0.6,0.3,0.8
			C727,461.8,727.3,461.9,727.7,461.9z"/>
		<path fill="#666766" d="M736.6,462.5v-4c0-0.5-0.1-0.9-0.3-1.1c-0.2-0.2-0.6-0.4-1.1-0.4c-0.6,0-1.1,0.2-1.4,0.5
			c-0.3,0.3-0.4,0.9-0.4,1.7v3.2h-0.9v-6.2h0.8l0.2,0.8l0,0c0.2-0.3,0.5-0.5,0.8-0.7c0.3-0.2,0.7-0.2,1.1-0.2c0.7,0,1.3,0.2,1.7,0.5
			c0.4,0.3,0.6,0.9,0.6,1.7v4h-1.1V462.5z"/>
		<path fill="#666766" d="M741.9,462.6c-0.9,0-1.6-0.3-2.1-0.8s-0.7-1.3-0.7-2.3c0-1,0.2-1.8,0.7-2.4c0.5-0.6,1.2-0.8,2.1-0.8
			c0.3,0,0.6,0,0.9,0.1c0.3,0.1,0.5,0.1,0.7,0.2l-0.3,0.8c-0.2-0.1-0.4-0.2-0.7-0.2c-0.2-0.1-0.5-0.1-0.6-0.1
			c-1.2,0-1.9,0.8-1.9,2.4c0,0.8,0.2,1.3,0.5,1.7s0.8,0.6,1.3,0.6c0.5,0,1-0.1,1.6-0.3v0.8C743.1,462.5,742.6,462.6,741.9,462.6z"/>
		<path fill="#666766" d="M744.8,454.7c0-0.2,0.1-0.4,0.2-0.5c0.1-0.1,0.2-0.1,0.4-0.1c0.1,0,0.3,0,0.4,0.2c0.1,0.1,0.2,0.3,0.2,0.5
			s-0.1,0.4-0.2,0.5s-0.2,0.2-0.4,0.2c-0.2,0-0.3-0.1-0.4-0.2C744.9,455,744.8,454.9,744.8,454.7z M745.9,462.5h-1v-6.2h0.9v6.2
			H745.9z"/>
		<path fill="#666766" d="M751.9,460.9c0,0.6-0.2,1-0.6,1.3c-0.4,0.3-1,0.5-1.8,0.5s-1.4-0.1-1.9-0.4v-0.9c0.3,0.1,0.6,0.3,0.9,0.4
			c0.3,0.1,0.7,0.1,1,0.1c0.5,0,0.9-0.1,1.1-0.2c0.3-0.2,0.4-0.4,0.4-0.7c0-0.2-0.1-0.4-0.3-0.6c-0.2-0.2-0.6-0.4-1.2-0.6
			c-0.6-0.2-1-0.4-1.2-0.6c-0.2-0.2-0.4-0.3-0.5-0.5c-0.1-0.2-0.2-0.4-0.2-0.7c0-0.5,0.2-0.9,0.6-1.2s1-0.4,1.7-0.4
			c0.7,0,1.3,0.1,1.9,0.4l-0.3,0.8c-0.6-0.3-1.2-0.4-1.7-0.4c-0.4,0-0.8,0.1-1,0.2c-0.2,0.1-0.3,0.3-0.3,0.6c0,0.2,0,0.3,0.1,0.4
			c0.1,0.1,0.2,0.2,0.4,0.3c0.2,0.1,0.5,0.3,1.1,0.5c0.7,0.3,1.2,0.5,1.5,0.8C751.7,460.1,751.9,460.5,751.9,460.9z"/>
		<path fill="#666766" d="M755.8,462.6c-0.9,0-1.6-0.3-2.1-0.8c-0.5-0.5-0.7-1.3-0.7-2.3c0-1,0.2-1.8,0.7-2.4
			c0.5-0.6,1.2-0.8,2.1-0.8c0.3,0,0.6,0,0.9,0.1c0.3,0.1,0.5,0.1,0.7,0.2l-0.3,0.8c-0.2-0.1-0.4-0.2-0.7-0.2
			c-0.2-0.1-0.5-0.1-0.6-0.1c-1.2,0-1.9,0.8-1.9,2.4c0,0.8,0.2,1.3,0.5,1.7s0.8,0.6,1.3,0.6s1-0.1,1.6-0.3v0.8
			C756.9,462.5,756.4,462.6,755.8,462.6z"/>
		<path fill="#666766" d="M764.2,459.5c0,1-0.3,1.8-0.8,2.3c-0.5,0.6-1.2,0.8-2.1,0.8c-0.5,0-1-0.1-1.5-0.4c-0.5-0.3-0.8-0.6-1-1.1
			s-0.3-1-0.3-1.7c0-1,0.2-1.8,0.7-2.3c0.5-0.6,1.2-0.8,2.1-0.8c0.9,0,1.5,0.3,2,0.9C763.9,457.6,764.2,458.4,764.2,459.5z
			 M759.4,459.5c0,0.8,0.2,1.4,0.5,1.8c0.3,0.4,0.8,0.6,1.4,0.6c0.6,0,1.1-0.2,1.4-0.6c0.3-0.4,0.5-1,0.5-1.8c0-0.8-0.2-1.4-0.5-1.8
			s-0.8-0.6-1.4-0.6c-0.6,0-1.1,0.2-1.4,0.6S759.4,458.6,759.4,459.5z"/>
	</g>
</g>
<g>
	<g>
		<path fill="#666766" d="M786.3,441.8c0,0.7-0.3,1.3-0.8,1.7c-0.5,0.4-1.2,0.6-2.1,0.6c-1,0-1.7-0.1-2.2-0.4v-0.9
			c0.3,0.1,0.7,0.3,1.1,0.3c0.4,0.1,0.8,0.1,1.2,0.1c0.6,0,1.1-0.1,1.4-0.4c0.3-0.2,0.5-0.6,0.5-1c0-0.3-0.1-0.5-0.2-0.7
			c-0.1-0.2-0.3-0.3-0.6-0.5c-0.3-0.2-0.7-0.3-1.2-0.5c-0.8-0.3-1.3-0.6-1.6-1c-0.3-0.4-0.5-0.9-0.5-1.5s0.2-1.1,0.7-1.5
			s1.1-0.6,1.9-0.6s1.6,0.1,2.2,0.4l-0.3,0.8c-0.7-0.3-1.3-0.4-2-0.4c-0.5,0-0.9,0.1-1.2,0.3s-0.4,0.5-0.4,0.9
			c0,0.3,0.1,0.5,0.2,0.7c0.1,0.2,0.3,0.3,0.5,0.5c0.2,0.2,0.6,0.3,1.1,0.5c0.9,0.3,1.4,0.6,1.8,1
			C786.1,440.8,786.3,441.2,786.3,441.8z"/>
		<path fill="#666766" d="M791.6,444l-0.2-0.9l0,0c-0.3,0.4-0.6,0.6-0.9,0.8c-0.3,0.1-0.7,0.2-1.1,0.2c-0.6,0-1.1-0.2-1.4-0.5
			c-0.3-0.3-0.5-0.8-0.5-1.3c0-1.2,1-1.9,3-1.9h1V440c0-0.5-0.1-0.8-0.3-1.1c-0.2-0.2-0.5-0.3-1-0.3c-0.5,0-1.1,0.2-1.7,0.5
			l-0.3-0.7c0.3-0.2,0.6-0.3,1-0.4s0.7-0.1,1.1-0.1c0.7,0,1.3,0.2,1.6,0.5c0.4,0.3,0.5,0.8,0.5,1.6v4.2h-0.8V444z M789.5,443.3
			c0.6,0,1-0.2,1.4-0.5c0.3-0.3,0.5-0.8,0.5-1.3v-0.6h-0.9c-0.7,0-1.3,0.1-1.6,0.3s-0.5,0.5-0.5,0.9c0,0.3,0.1,0.6,0.3,0.8
			C788.8,443.2,789.1,443.3,789.5,443.3z"/>
		<path fill="#666766" d="M798.5,444v-4c0-0.5-0.1-0.9-0.3-1.1c-0.2-0.2-0.6-0.4-1.1-0.4c-0.6,0-1.1,0.2-1.4,0.5s-0.4,0.9-0.4,1.7
			v3.2h-0.9v-6.2h0.8l0.2,0.8l0,0c0.2-0.3,0.5-0.5,0.8-0.7c0.3-0.2,0.7-0.2,1.1-0.2c0.7,0,1.3,0.2,1.7,0.5c0.4,0.3,0.6,0.9,0.6,1.7
			v4h-1.1V444z"/>
		<path fill="#666766" d="M811,439.8c0,1.3-0.4,2.4-1.1,3.1c-0.7,0.7-1.8,1.1-3.2,1.1h-2.2v-8.3h2.5c1.3,0,2.3,0.4,3,1.1
			C810.7,437.6,811,438.6,811,439.8z M810,439.8c0-1.1-0.3-1.9-0.8-2.4c-0.5-0.5-1.3-0.8-2.4-0.8h-1.4v6.6h1.2c1.1,0,2-0.3,2.5-0.8
			C809.7,441.8,810,440.9,810,439.8z"/>
		<path fill="#666766" d="M812.6,436.1c0-0.2,0.1-0.4,0.2-0.5c0.1-0.1,0.2-0.1,0.4-0.1c0.1,0,0.3,0,0.4,0.2c0.1,0.1,0.2,0.3,0.2,0.5
			c0,0.2-0.1,0.4-0.2,0.5c-0.1,0.1-0.2,0.2-0.4,0.2c-0.2,0-0.3-0.1-0.4-0.2C812.7,436.6,812.6,436.4,812.6,436.1z M813.6,444h-0.9
			v-6.2h0.9V444z"/>
		<path fill="#666766" d="M818.2,444.1c-0.9,0-1.6-0.3-2.1-0.8c-0.5-0.6-0.8-1.3-0.8-2.3c0-1,0.2-1.8,0.7-2.3c0.5-0.6,1.1-0.9,2-0.9
			c0.8,0,1.4,0.3,1.8,0.8c0.4,0.5,0.7,1.2,0.7,2v0.6h-4.2c0,0.7,0.2,1.3,0.5,1.6c0.3,0.4,0.8,0.6,1.5,0.6c0.7,0,1.3-0.1,2-0.4v0.8
			c-0.3,0.1-0.6,0.2-0.9,0.3C819.2,444.2,818.6,444.1,818.2,444.1z M817.9,438.5c-0.5,0-0.9,0.2-1.2,0.5c-0.3,0.3-0.5,0.8-0.5,1.3
			h3.2c0-0.6-0.1-1-0.4-1.3C818.8,438.7,818.4,438.5,817.9,438.5z"/>
		<path fill="#666766" d="M827.1,437.9v0.6l-1.1,0.1c0.1,0.1,0.2,0.3,0.3,0.5c0.1,0.2,0.1,0.4,0.1,0.7c0,0.6-0.2,1.1-0.6,1.4
			c-0.4,0.4-1,0.5-1.7,0.5c-0.2,0-0.4,0-0.5,0c-0.4,0.2-0.6,0.5-0.6,0.8c0,0.2,0.1,0.3,0.2,0.4s0.4,0.1,0.7,0.1h1.1
			c0.7,0,1.2,0.1,1.5,0.4c0.4,0.3,0.5,0.7,0.5,1.2c0,0.7-0.3,1.2-0.8,1.5c-0.5,0.4-1.3,0.5-2.4,0.5c-0.8,0-1.4-0.1-1.8-0.4
			s-0.7-0.7-0.7-1.3c0-0.4,0.1-0.7,0.4-1c0.2-0.3,0.6-0.5,1-0.6c-0.2-0.1-0.3-0.2-0.4-0.3c-0.1-0.1-0.2-0.3-0.2-0.5
			c0-0.2,0.1-0.4,0.2-0.6c0.1-0.2,0.3-0.3,0.6-0.5c-0.3-0.1-0.6-0.4-0.8-0.7s-0.3-0.7-0.3-1.1c0-0.7,0.2-1.2,0.6-1.5
			c0.4-0.4,1-0.5,1.7-0.5c0.3,0,0.6,0,0.9,0.1h2.1V437.9z M822.2,445c0,0.3,0.1,0.6,0.4,0.8s0.7,0.3,1.2,0.3c0.8,0,1.4-0.1,1.7-0.3
			c0.4-0.2,0.6-0.5,0.6-0.9c0-0.3-0.1-0.6-0.3-0.7c-0.2-0.1-0.6-0.2-1.2-0.2h-1.1c-0.4,0-0.7,0.1-1,0.3
			C822.3,444.3,822.2,444.6,822.2,445z M822.7,439.8c0,0.4,0.1,0.8,0.4,1c0.2,0.2,0.6,0.3,1,0.3c0.9,0,1.4-0.4,1.4-1.3
			c0-0.9-0.5-1.4-1.4-1.4c-0.4,0-0.8,0.1-1,0.4C822.9,439.1,822.7,439.4,822.7,439.8z"/>
		<path fill="#666766" d="M833.7,440.9c0,1-0.3,1.8-0.8,2.3c-0.5,0.6-1.2,0.8-2.1,0.8c-0.5,0-1-0.1-1.5-0.4s-0.8-0.6-1-1.1
			c-0.2-0.5-0.3-1-0.3-1.7c0-1,0.2-1.8,0.7-2.3c0.5-0.6,1.2-0.8,2.1-0.8s1.5,0.3,2,0.9C833.5,439.2,833.7,439.9,833.7,440.9z
			 M829,440.9c0,0.8,0.2,1.4,0.5,1.8c0.3,0.4,0.8,0.6,1.4,0.6c0.6,0,1.1-0.2,1.4-0.6c0.3-0.4,0.5-1,0.5-1.8c0-0.8-0.2-1.4-0.5-1.8
			s-0.8-0.6-1.4-0.6c-0.6,0-1.1,0.2-1.4,0.6C829.1,439.5,829,440.1,829,440.9z"/>
	</g>
</g>
<g>
	<g>
		<path fill="#666766" d="M854.4,324.1c0,0.8-0.3,1.5-0.8,1.9c-0.6,0.4-1.4,0.7-2.4,0.7h-1v3.2h-0.9v-8.3h2.1
			C853.3,321.7,854.4,322.5,854.4,324.1z M850.1,325.9h0.9c0.8,0,1.4-0.1,1.8-0.4c0.4-0.3,0.6-0.7,0.6-1.3c0-0.5-0.2-0.9-0.5-1.2
			c-0.3-0.3-0.9-0.4-1.7-0.4h-1.1L850.1,325.9L850.1,325.9z"/>
		<path fill="#666766" d="M861.3,326.8c0,1-0.3,1.8-0.8,2.3c-0.5,0.6-1.2,0.8-2.1,0.8c-0.5,0-1-0.1-1.5-0.4s-0.8-0.6-1-1.1
			c-0.2-0.5-0.3-1-0.3-1.7c0-1,0.2-1.8,0.7-2.3c0.5-0.6,1.2-0.8,2.1-0.8s1.5,0.3,2,0.9S861.3,325.9,861.3,326.8z M856.6,326.8
			c0,0.8,0.2,1.4,0.5,1.8c0.3,0.4,0.8,0.6,1.4,0.6s1.1-0.2,1.4-0.6c0.3-0.4,0.5-1,0.5-1.8c0-0.8-0.2-1.4-0.5-1.8s-0.8-0.6-1.4-0.6
			s-1.1,0.2-1.4,0.6S856.6,326,856.6,326.8z"/>
		<path fill="#666766" d="M865.8,323.7c0.3,0,0.5,0,0.7,0.1l-0.1,0.9c-0.3-0.1-0.5-0.1-0.7-0.1c-0.5,0-0.9,0.2-1.3,0.6
			s-0.5,0.9-0.5,1.5v3.3h-0.9v-6.2h0.8l0.1,1.1l0,0c0.2-0.4,0.5-0.7,0.8-0.9C865.1,323.8,865.4,323.7,865.8,323.7z"/>
		<path fill="#666766" d="M869.6,329.2c0.2,0,0.3,0,0.5,0c0.2,0,0.3,0,0.4-0.1v0.7c-0.1,0-0.2,0.1-0.4,0.1c-0.2,0-0.4,0-0.5,0
			c-1.2,0-1.8-0.6-1.8-1.9v-3.6h-0.9V324l0.9-0.4l0.4-1.3h0.5v1.4h1.8v0.7h-1.8v3.6c0,0.4,0.1,0.7,0.3,0.8
			C869.1,329.1,869.3,329.2,869.6,329.2z"/>
		<path fill="#666766" d="M872.6,329.9h-0.9v-8.8h0.9V329.9z"/>
		<path fill="#666766" d="M878.5,329.9l-0.2-0.9l0,0c-0.3,0.4-0.6,0.6-0.9,0.8c-0.3,0.1-0.7,0.2-1.1,0.2c-0.6,0-1.1-0.2-1.4-0.5
			s-0.5-0.8-0.5-1.3c0-1.2,1-1.9,3-1.9h1v-0.4c0-0.5-0.1-0.8-0.3-1.1c-0.2-0.2-0.5-0.3-1-0.3c-0.5,0-1.1,0.2-1.7,0.5l-0.3-0.7
			c0.3-0.2,0.6-0.3,1-0.4s0.7-0.1,1.1-0.1c0.7,0,1.3,0.2,1.6,0.5c0.4,0.3,0.5,0.8,0.5,1.6v4.2h-0.8V329.9z M876.3,329.2
			c0.6,0,1-0.2,1.4-0.5c0.3-0.3,0.5-0.8,0.5-1.3v-0.6h-0.9c-0.7,0-1.3,0.1-1.6,0.3c-0.3,0.2-0.5,0.5-0.5,0.9c0,0.3,0.1,0.6,0.3,0.8
			C875.6,329.2,875.9,329.2,876.3,329.2z"/>
		<path fill="#666766" d="M885.2,329.9v-4c0-0.5-0.1-0.9-0.3-1.1c-0.2-0.2-0.6-0.4-1.1-0.4c-0.6,0-1.1,0.2-1.4,0.5s-0.4,0.9-0.4,1.7
			v3.2h-0.9v-6.2h0.8l0.2,0.8l0,0c0.2-0.3,0.5-0.5,0.8-0.7c0.3-0.2,0.7-0.2,1.1-0.2c0.7,0,1.3,0.2,1.7,0.5c0.4,0.3,0.6,0.9,0.6,1.7
			v4h-1.1V329.9z"/>
		<path fill="#666766" d="M892.3,329.1L892.3,329.1c-0.5,0.6-1.1,0.9-2,0.9c-0.8,0-1.4-0.3-1.9-0.8c-0.5-0.5-0.7-1.3-0.7-2.3
			c0-1,0.2-1.8,0.7-2.3c0.5-0.5,1.1-0.8,1.9-0.8s1.5,0.3,1.9,0.9h0.1v-0.4v-0.4v-2.5h0.9v8.8h-0.8L892.3,329.1z M890.5,329.2
			c0.6,0,1.1-0.2,1.4-0.5s0.4-0.9,0.4-1.7v-0.2c0-0.9-0.1-1.5-0.4-1.9s-0.7-0.6-1.4-0.6c-0.5,0-1,0.2-1.2,0.6
			c-0.3,0.4-0.4,1-0.4,1.8s0.1,1.4,0.4,1.8C889.5,329,889.9,329.2,890.5,329.2z"/>
	</g>
</g>
<g>
	<g>
		<path fill="#4CA8DE" d="M738.8,411.1h-1.9V406v-0.8v-0.9c-0.3,0.3-0.5,0.5-0.6,0.6l-1,0.8l-0.9-1.1l2.8-2.3h1.5v8.9H738.8z"/>
		<path fill="#4CA8DE" d="M743.5,409.8c-0.2,0.8-0.6,1.8-1.1,2.9h-1.3c0.3-1.1,0.5-2.1,0.6-3h1.7L743.5,409.8z"/>
		<path fill="#4CA8DE" d="M750.7,404.3c0,0.5-0.2,1-0.5,1.4c-0.3,0.4-0.8,0.6-1.4,0.8l0,0c0.7,0.1,1.2,0.3,1.6,0.6s0.5,0.8,0.5,1.4
			c0,0.8-0.3,1.5-0.9,2c-0.6,0.5-1.5,0.7-2.6,0.7c-1,0-1.8-0.2-2.5-0.5v-1.6c0.3,0.2,0.7,0.3,1.1,0.4c0.4,0.1,0.8,0.2,1.2,0.2
			c0.6,0,1.1-0.1,1.4-0.3c0.3-0.2,0.4-0.5,0.4-1c0-0.4-0.2-0.7-0.5-0.9s-0.9-0.3-1.6-0.3h-0.7v-1.4h0.7c0.7,0,1.2-0.1,1.5-0.3
			c0.3-0.2,0.5-0.5,0.5-0.9c0-0.7-0.4-1-1.2-1c-0.3,0-0.6,0-0.9,0.1s-0.6,0.3-1,0.5l-0.9-1.3c0.8-0.6,1.8-0.9,2.9-0.9
			c0.9,0,1.6,0.2,2.2,0.6C750.5,403.1,750.7,403.7,750.7,404.3z"/>
		<path fill="#4CA8DE" d="M758,406.7c0,1.5-0.3,2.7-0.8,3.4c-0.5,0.7-1.2,1.2-2.2,1.2c-1,0-1.8-0.4-2.3-1.1
			c-0.5-0.7-0.8-1.9-0.8-3.4c0-1.6,0.3-2.7,0.8-3.4c0.5-0.7,1.3-1.1,2.3-1.1c1,0,1.8,0.4,2.3,1.2C757.8,404.1,758,405.3,758,406.7z
			 M753.7,406.7c0,1.1,0.1,1.8,0.3,2.3c0.2,0.5,0.5,0.7,0.9,0.7s0.7-0.2,0.9-0.7c0.2-0.5,0.3-1.2,0.3-2.3c0-1.1-0.1-1.9-0.3-2.3
			c-0.2-0.4-0.5-0.7-0.9-0.7s-0.8,0.2-0.9,0.7C753.8,404.9,753.7,405.7,753.7,406.7z"/>
		<path fill="#4CA8DE" d="M765.2,406.7c0,1.5-0.3,2.7-0.8,3.4c-0.5,0.7-1.3,1.2-2.3,1.2c-1,0-1.8-0.4-2.3-1.1
			c-0.5-0.7-0.8-1.9-0.8-3.4c0-1.6,0.3-2.7,0.8-3.4c0.5-0.7,1.3-1.1,2.3-1.1c1,0,1.8,0.4,2.3,1.2
			C764.9,404.1,765.2,405.3,765.2,406.7z M760.8,406.7c0,1.1,0.1,1.8,0.3,2.3c0.2,0.5,0.5,0.7,0.9,0.7s0.7-0.2,0.9-0.7
			c0.2-0.5,0.3-1.2,0.3-2.3c0-1.1-0.1-1.9-0.3-2.3s-0.5-0.7-0.9-0.7s-0.8,0.2-0.9,0.7C760.9,404.9,760.8,405.7,760.8,406.7z"/>
	</g>
</g>
<g>
	<g>
		<path fill="#666766" d="M919.2,281.8h-0.9V278H914v3.8h-0.9v-8.3h0.9v3.5h4.3v-3.5h0.9V281.8z"/>
		<path fill="#666766" d="M926.7,278.7c0,1-0.3,1.8-0.8,2.3c-0.5,0.6-1.2,0.8-2.1,0.8c-0.5,0-1-0.1-1.5-0.4s-0.8-0.6-1-1.1
			c-0.2-0.5-0.3-1-0.3-1.7c0-1,0.2-1.8,0.7-2.3c0.5-0.6,1.2-0.8,2.1-0.8c0.9,0,1.5,0.3,2,0.9S926.7,277.7,926.7,278.7z M921.9,278.7
			c0,0.8,0.2,1.4,0.5,1.8c0.3,0.4,0.8,0.6,1.4,0.6c0.6,0,1.1-0.2,1.4-0.6c0.3-0.4,0.5-1,0.5-1.8c0-0.8-0.2-1.4-0.5-1.8
			s-0.8-0.6-1.4-0.6c-0.6,0-1.1,0.2-1.4,0.6S921.9,277.9,921.9,278.7z"/>
		<path fill="#666766" d="M932.5,281.8v-4c0-0.5-0.1-0.9-0.3-1.1c-0.2-0.2-0.6-0.4-1.1-0.4c-0.6,0-1.1,0.2-1.4,0.5s-0.4,0.9-0.4,1.7
			v3.2h-0.9v-6.2h0.8l0.2,0.8l0,0c0.2-0.3,0.5-0.5,0.8-0.7c0.3-0.2,0.7-0.2,1.1-0.2c0.7,0,1.3,0.2,1.7,0.5c0.4,0.3,0.6,0.9,0.6,1.7
			v4h-1.1V281.8z"/>
		<path fill="#666766" d="M940.4,275.6v0.6l-1.1,0.1c0.1,0.1,0.2,0.3,0.3,0.5s0.1,0.4,0.1,0.7c0,0.6-0.2,1.1-0.6,1.4
			c-0.4,0.3-1,0.5-1.7,0.5c-0.2,0-0.4,0-0.5,0c-0.4,0.2-0.6,0.5-0.6,0.8c0,0.2,0.1,0.3,0.2,0.4c0.1,0.1,0.4,0.1,0.7,0.1h1.1
			c0.7,0,1.2,0.1,1.5,0.4c0.4,0.3,0.5,0.7,0.5,1.2c0,0.7-0.3,1.2-0.8,1.5c-0.5,0.4-1.3,0.5-2.4,0.5c-0.8,0-1.4-0.1-1.8-0.4
			s-0.7-0.7-0.7-1.3c0-0.4,0.1-0.7,0.4-1c0.2-0.3,0.6-0.5,1-0.6c-0.2-0.1-0.3-0.2-0.4-0.3c-0.1-0.1-0.2-0.3-0.2-0.5
			c0-0.2,0.1-0.4,0.2-0.6c0.1-0.2,0.3-0.3,0.6-0.5c-0.3-0.1-0.6-0.4-0.8-0.7c-0.2-0.3-0.3-0.7-0.3-1.1c0-0.7,0.2-1.2,0.6-1.5
			c0.4-0.4,1-0.5,1.7-0.5c0.3,0,0.6,0,0.9,0.1h2.1V275.6z M935.5,282.8c0,0.3,0.1,0.6,0.4,0.8c0.3,0.2,0.7,0.3,1.2,0.3
			c0.8,0,1.4-0.1,1.7-0.3c0.4-0.2,0.6-0.5,0.6-0.9c0-0.3-0.1-0.6-0.3-0.7c-0.2-0.1-0.6-0.2-1.2-0.2h-1.1c-0.4,0-0.7,0.1-1,0.3
			C935.7,282.1,935.5,282.4,935.5,282.8z M936,277.6c0,0.4,0.1,0.8,0.4,1c0.2,0.2,0.6,0.3,1,0.3c0.9,0,1.4-0.4,1.4-1.3
			c0-0.9-0.5-1.4-1.4-1.4c-0.4,0-0.8,0.1-1,0.4C936.2,276.9,936,277.1,936,277.6z"/>
		<path fill="#666766" d="M950.8,281.8h-1.1l-3-4l-0.9,0.8v3.2h-0.9v-8.3h0.9v4l3.7-4h1.1l-3.3,3.5L950.8,281.8z"/>
		<path fill="#666766" d="M957,278.7c0,1-0.3,1.8-0.8,2.3c-0.5,0.6-1.2,0.8-2.1,0.8c-0.5,0-1-0.1-1.5-0.4s-0.8-0.6-1-1.1
			c-0.2-0.5-0.3-1-0.3-1.7c0-1,0.2-1.8,0.7-2.3c0.5-0.6,1.2-0.8,2.1-0.8s1.5,0.3,2,0.9C956.6,277,957,277.7,957,278.7z M952.4,278.7
			c0,0.8,0.2,1.4,0.5,1.8c0.3,0.4,0.8,0.6,1.4,0.6s1.1-0.2,1.4-0.6c0.3-0.4,0.5-1,0.5-1.8c0-0.8-0.2-1.4-0.5-1.8s-0.8-0.6-1.4-0.6
			c-0.6,0-1.1,0.2-1.4,0.6S952.4,277.9,952.4,278.7z"/>
		<path fill="#666766" d="M962.9,281.8v-4c0-0.5-0.1-0.9-0.3-1.1c-0.2-0.2-0.6-0.4-1.1-0.4c-0.6,0-1.1,0.2-1.4,0.5
			c-0.3,0.3-0.4,0.9-0.4,1.7v3.2h-0.9v-6.2h0.8l0.2,0.8l0,0c0.2-0.3,0.5-0.5,0.8-0.7c0.3-0.2,0.7-0.2,1.1-0.2c0.7,0,1.3,0.2,1.7,0.5
			c0.4,0.3,0.6,0.9,0.6,1.7v4h-1.1V281.8z"/>
		<path fill="#666766" d="M970.9,275.6v0.6l-1.1,0.1c0.1,0.1,0.2,0.3,0.3,0.5c0.1,0.2,0.1,0.4,0.1,0.7c0,0.6-0.2,1.1-0.6,1.4
			c-0.4,0.3-1,0.5-1.7,0.5c-0.2,0-0.4,0-0.5,0c-0.4,0.2-0.6,0.5-0.6,0.8c0,0.2,0.1,0.3,0.2,0.4c0.1,0.1,0.4,0.1,0.7,0.1h1.1
			c0.7,0,1.2,0.1,1.5,0.4c0.4,0.3,0.5,0.7,0.5,1.2c0,0.7-0.3,1.2-0.8,1.5c-0.5,0.4-1.3,0.5-2.4,0.5c-0.8,0-1.4-0.1-1.8-0.4
			c-0.4-0.3-0.7-0.7-0.7-1.3c0-0.4,0.1-0.7,0.4-1c0.2-0.3,0.6-0.5,1-0.6c-0.2-0.1-0.3-0.2-0.4-0.3c-0.1-0.1-0.2-0.3-0.2-0.5
			c0-0.2,0.1-0.4,0.2-0.6c0.1-0.2,0.3-0.3,0.6-0.5c-0.3-0.1-0.6-0.4-0.8-0.7c-0.2-0.3-0.3-0.7-0.3-1.1c0-0.7,0.2-1.2,0.6-1.5
			c0.4-0.4,1-0.5,1.7-0.5c0.3,0,0.6,0,0.9,0.1h2.1V275.6z M965.9,282.8c0,0.3,0.1,0.6,0.4,0.8c0.3,0.2,0.7,0.3,1.2,0.3
			c0.8,0,1.4-0.1,1.7-0.3c0.4-0.2,0.6-0.5,0.6-0.9c0-0.3-0.1-0.6-0.3-0.7c-0.2-0.1-0.6-0.2-1.2-0.2h-1.1c-0.4,0-0.7,0.1-1,0.3
			C966,282.1,965.9,282.4,965.9,282.8z M966.4,277.6c0,0.4,0.1,0.8,0.4,1c0.2,0.2,0.6,0.3,1,0.3c0.9,0,1.4-0.4,1.4-1.3
			c0-0.9-0.5-1.4-1.4-1.4c-0.4,0-0.8,0.1-1,0.4C966.6,276.9,966.4,277.1,966.4,277.6z"/>
	</g>
</g>
<g>
	<g>
		<path fill="#666766" d="M988.6,145.5l-1-2.6h-3.3l-1,2.6h-1l3.2-8.3h0.8l3.2,8.3H988.6z M987.3,142l-0.9-2.5
			c-0.1-0.3-0.2-0.7-0.4-1.2c-0.1,0.4-0.2,0.7-0.4,1.2l-1,2.5H987.3z"/>
		<path fill="#666766" d="M992.7,144.8c0.2,0,0.3,0,0.5,0c0.2,0,0.3,0,0.4-0.1v0.7c-0.1,0-0.2,0.1-0.4,0.1c-0.2,0-0.4,0-0.5,0
			c-1.2,0-1.8-0.6-1.8-1.9V140h-0.9v-0.4l0.9-0.4l0.4-1.3h0.5v1.4h1.8v0.7h-1.8v3.6c0,0.4,0.1,0.7,0.3,0.8
			C992.1,144.7,992.4,144.8,992.7,144.8z"/>
		<path fill="#666766" d="M995.7,145.5h-0.9v-8.8h0.9V145.5z"/>
		<path fill="#666766" d="M1001.4,145.5l-0.2-0.9l0,0c-0.3,0.4-0.6,0.6-0.9,0.8c-0.3,0.1-0.7,0.2-1.1,0.2c-0.6,0-1.1-0.2-1.4-0.5
			c-0.3-0.3-0.5-0.8-0.5-1.3c0-1.2,1-1.9,3-1.9h1v-0.4c0-0.5-0.1-0.8-0.3-1.1c-0.2-0.2-0.5-0.3-1-0.3c-0.5,0-1.1,0.2-1.7,0.5
			l-0.3-0.7c0.3-0.2,0.6-0.3,1-0.4s0.7-0.1,1.1-0.1c0.7,0,1.3,0.2,1.6,0.5c0.4,0.3,0.5,0.8,0.5,1.6v4.2h-0.8V145.5z M999.3,144.8
			c0.6,0,1-0.2,1.4-0.5c0.3-0.3,0.5-0.8,0.5-1.3v-0.6h-0.9c-0.7,0-1.3,0.1-1.6,0.3s-0.5,0.5-0.5,0.9c0,0.3,0.1,0.6,0.3,0.8
			C998.6,144.7,998.9,144.8,999.3,144.8z"/>
		<path fill="#666766" d="M1008.3,145.5v-4c0-0.5-0.1-0.9-0.3-1.1c-0.2-0.2-0.6-0.4-1.1-0.4c-0.6,0-1.1,0.2-1.4,0.5
			c-0.3,0.3-0.4,0.9-0.4,1.7v3.2h-0.9v-6.2h0.8l0.2,0.8l0,0c0.2-0.3,0.5-0.5,0.8-0.7s0.7-0.2,1.1-0.2c0.7,0,1.3,0.2,1.7,0.5
			c0.4,0.3,0.6,0.9,0.6,1.7v4h-1.1V145.5z"/>
		<path fill="#666766" d="M1013.1,144.8c0.2,0,0.3,0,0.5,0s0.3,0,0.4-0.1v0.7c-0.1,0-0.2,0.1-0.4,0.1s-0.4,0-0.5,0
			c-1.2,0-1.8-0.6-1.8-1.9V140h-0.9v-0.4l0.9-0.4l0.4-1.3h0.5v1.4h1.8v0.7h-1.8v3.6c0,0.4,0.1,0.7,0.3,0.8
			C1012.5,144.7,1012.8,144.8,1013.1,144.8z"/>
		<path fill="#666766" d="M1019,145.5l-0.2-0.9l0,0c-0.3,0.4-0.6,0.6-0.9,0.8c-0.3,0.1-0.7,0.2-1.1,0.2c-0.6,0-1.1-0.2-1.4-0.5
			c-0.3-0.3-0.5-0.8-0.5-1.3c0-1.2,1-1.9,3-1.9h1v-0.4c0-0.5-0.1-0.8-0.3-1.1c-0.2-0.2-0.5-0.3-1-0.3s-1.1,0.2-1.7,0.5l-0.3-0.7
			c0.3-0.2,0.6-0.3,1-0.4c0.4-0.1,0.7-0.1,1.1-0.1c0.7,0,1.3,0.2,1.6,0.5c0.4,0.3,0.5,0.8,0.5,1.6v4.2h-0.8V145.5z M1016.9,144.8
			c0.6,0,1-0.2,1.4-0.5c0.3-0.3,0.5-0.8,0.5-1.3v-0.6h-0.9c-0.7,0-1.3,0.1-1.6,0.3s-0.5,0.5-0.5,0.9c0,0.3,0.1,0.6,0.3,0.8
			C1016.2,144.7,1016.5,144.8,1016.9,144.8z"/>
	</g>
</g>
<g>
	<g>
		<path fill="#666766" d="M1059.7,84.5c0,0.8-0.3,1.5-0.8,1.9c-0.6,0.4-1.4,0.7-2.4,0.7h-1v3.2h-0.9v-8.3h2.1
			C1058.7,82.1,1059.7,82.9,1059.7,84.5z M1055.5,86.2h0.9c0.8,0,1.4-0.1,1.8-0.4c0.4-0.3,0.6-0.7,0.6-1.3c0-0.5-0.2-0.9-0.5-1.2
			s-0.9-0.4-1.7-0.4h-1.1V86.2z"/>
		<path fill="#666766" d="M1065.2,90.2l-0.2-0.9l0,0c-0.3,0.4-0.6,0.6-0.9,0.8c-0.3,0.1-0.7,0.2-1.1,0.2c-0.6,0-1.1-0.2-1.4-0.5
			c-0.3-0.3-0.5-0.8-0.5-1.3c0-1.2,1-1.9,3-1.9h1v-0.4c0-0.5-0.1-0.8-0.3-1.1c-0.2-0.2-0.5-0.3-1-0.3s-1.1,0.2-1.7,0.5l-0.3-0.7
			c0.3-0.2,0.6-0.3,1-0.4c0.4-0.1,0.7-0.1,1.1-0.1c0.7,0,1.3,0.2,1.6,0.5c0.4,0.3,0.5,0.8,0.5,1.6v4.2h-0.8V90.2z M1063.1,89.6
			c0.6,0,1-0.2,1.4-0.5c0.3-0.3,0.5-0.8,0.5-1.3v-0.6h-0.9c-0.7,0-1.3,0.1-1.6,0.3c-0.3,0.2-0.5,0.5-0.5,0.9c0,0.3,0.1,0.6,0.3,0.8
			C1062.4,89.5,1062.7,89.6,1063.1,89.6z"/>
		<path fill="#666766" d="M1070.5,84c0.3,0,0.5,0,0.7,0.1l-0.1,0.9c-0.3-0.1-0.5-0.1-0.7-0.1c-0.5,0-0.9,0.2-1.3,0.6
			c-0.4,0.4-0.5,0.9-0.5,1.5v3.3h-0.9v-6.2h0.8l0.1,1.1l0,0c0.2-0.4,0.5-0.7,0.8-0.9C1069.8,84.1,1070.2,84,1070.5,84z"/>
		<path fill="#666766" d="M1072.4,82.5c0-0.2,0.1-0.4,0.2-0.5s0.2-0.1,0.4-0.1c0.1,0,0.3,0.1,0.4,0.2c0.1,0.1,0.2,0.3,0.2,0.5
			s-0.1,0.4-0.2,0.5c-0.1,0.1-0.2,0.2-0.4,0.2s-0.3-0.1-0.4-0.2C1072.5,82.8,1072.4,82.7,1072.4,82.5z M1073.4,90.2h-0.9v-6.2h0.9
			V90.2z"/>
		<path fill="#666766" d="M1079.4,88.6c0,0.6-0.2,1-0.6,1.3c-0.4,0.3-1,0.5-1.8,0.5s-1.4-0.1-1.9-0.4v-0.9c0.3,0.1,0.6,0.3,0.9,0.4
			c0.3,0.1,0.7,0.1,1,0.1c0.5,0,0.9-0.1,1.1-0.2c0.3-0.2,0.4-0.4,0.4-0.7c0-0.2-0.1-0.4-0.3-0.6c-0.2-0.2-0.6-0.4-1.2-0.6
			c-0.6-0.2-1-0.4-1.2-0.6c-0.2-0.2-0.4-0.3-0.5-0.5c-0.1-0.2-0.2-0.4-0.2-0.7c0-0.5,0.2-0.9,0.6-1.2c0.4-0.3,1-0.4,1.7-0.4
			c0.7,0,1.3,0.1,1.9,0.4l-0.3,0.8c-0.6-0.3-1.2-0.4-1.7-0.4c-0.4,0-0.8,0.1-1,0.2c-0.2,0.1-0.3,0.3-0.3,0.6c0,0.2,0,0.3,0.1,0.4
			c0.1,0.1,0.2,0.2,0.4,0.3s0.5,0.3,1.1,0.5c0.7,0.3,1.2,0.5,1.5,0.8C1079.2,87.8,1079.4,88.2,1079.4,88.6z"/>
	</g>
</g>
<g>
	<path fill="none" d="M970.6,121.7c0,1.2,0.4,2.3,1,3.2c1,1.6,2.8,2.6,4.9,2.6c0.2,0,0.4,0,0.6,0c3-0.3,5.3-2.8,5.3-5.8
		c0-0.1,0-0.2,0-0.3c-0.1-2.2-1.5-4.1-3.4-5c-0.7-0.3-1.6-0.5-2.5-0.5C973.2,115.9,970.6,118.5,970.6,121.7z"/>
	<path fill="#4CA8DE" d="M1049.8,70.4l63.8-109.2l-5.2-3l-63.8,109.2C1046.6,67.7,1048.5,68.8,1049.8,70.4z"/>
	<path fill="none" d="M903.9,257.3c0,0.2,0,0.4,0,0.6c0.2,2.2,1.7,4,3.7,4.8c0.7,0.3,1.4,0.4,2.2,0.4c3.2,0,5.9-2.6,5.9-5.9
		c0-1.1-0.3-2.2-0.9-3.1c-1-1.7-2.9-2.8-5-2.8c-0.2,0-0.3,0-0.4,0C906.3,251.7,903.9,254.2,903.9,257.3z"/>
	<path fill="#4CA8DE" d="M1034.5,78.3l-52.9,36.3c1.7,1.2,2.9,3,3.4,5l52.9-36.3C1036.2,82.1,1035,80.3,1034.5,78.3z"/>
	<path fill="none" d="M837.2,306.2c0,1,0.3,2,0.8,2.9c1,1.8,2.9,3,5.1,3c0.1,0,0.1,0,0.2,0c3.1-0.1,5.7-2.7,5.7-5.8
		c0-0.2,0-0.3,0-0.5c-0.1-2.2-1.5-4.1-3.5-4.9c-0.7-0.3-1.5-0.5-2.3-0.5C839.8,300.4,837.2,303,837.2,306.2z"/>
	<path fill="#4CA8DE" d="M910.7,248.6c2.1,0.2,4,1.2,5.4,2.7l59.3-120.6c-2.1-0.2-4-1.2-5.4-2.7L910.7,248.6z"/>
	<path fill="none" d="M770.8,418.6c-0.2,0.5-0.2,1.1-0.2,1.6c0,1.7,0.7,3.2,1.8,4.2c1.1,1,2.5,1.6,4,1.6c3.2,0,5.9-2.6,5.9-5.9
		c0-1-0.2-1.9-0.6-2.7c-0.9-1.9-2.9-3.1-5.2-3.2c0,0,0,0-0.1,0C773.7,414.4,771.5,416.1,770.8,418.6z"/>
	<path fill="#4CA8DE" d="M901.2,259.9l-53.2,39c1.7,1.2,3,2.9,3.6,4.9l53.2-39C903.1,263.6,901.8,261.9,901.2,259.9z"/>
	<path fill="none" d="M704,436.4c0,0.3-0.1,0.6-0.1,0.9c0,1.9,0.9,3.6,2.4,4.7c1,0.7,2.2,1.1,3.5,1.1c2.6,0,4.9-1.7,5.6-4.1
		c0.2-0.5,0.3-1.1,0.3-1.7c0-1.6-0.7-3.1-1.8-4.1c-1.1-1-2.5-1.7-4.1-1.7C706.9,431.4,704.5,433.6,704,436.4z"/>
	<path fill="#4CA8DE" d="M836.3,311.9L778,411.6c2.1,0.4,3.9,1.5,5.2,3.1l58.3-99.8C839.4,314.6,837.6,313.5,836.3,311.9z"/>
	<path fill="none" d="M637.5,463.2c-0.1,0.5-0.2,1-0.2,1.5c0,1.7,0.7,3.2,1.9,4.3c1,1,2.4,1.6,4,1.6c2.9,0,5.4-2.2,5.8-5
		c0-0.3,0.1-0.6,0.1-0.9c0-1.9-0.9-3.6-2.4-4.7c-1-0.7-2.2-1.1-3.5-1.1C640.4,458.8,638.2,460.7,637.5,463.2z"/>
	<path fill="#4CA8DE" d="M767.6,419.4l-50.5,12.9c1,1.4,1.6,3.2,1.6,5.1c0,0.3,0,0.5,0,0.8l50.4-12.9c-1-1.4-1.5-3.1-1.5-5
		C767.5,420,767.5,419.7,767.6,419.4z"/>
	<path fill="none" d="M570.7,482.8c-0.1,0.4-0.1,0.8-0.1,1.2c0,1.8,0.8,3.4,2.1,4.5c1,0.8,2.3,1.3,3.7,1.3c2.7,0,5-1.9,5.7-4.4
		c0.1-0.5,0.2-1,0.2-1.5c0-1.7-0.7-3.2-1.9-4.3c-1-0.9-2.4-1.5-3.9-1.5C573.6,478.1,571.3,480.1,570.7,482.8z"/>
	<path fill="#4CA8DE" d="M649.6,458.7c1.4,1.5,2.3,3.4,2.4,5.6l51.2-21.1c-1.3-1.5-2.2-3.5-2.3-5.6L649.6,458.7z"/>
	<path fill="none" d="M504.1,504.5c-0.1,0.5-0.2,1.1-0.2,1.6c0,1.7,0.7,3.2,1.8,4.2c1.1,1,2.5,1.6,4,1.6c2.7,0,5-1.9,5.7-4.4
		c0.1-0.5,0.2-0.9,0.2-1.4c0.1-1.7-0.7-3.3-1.9-4.4c-1-0.9-2.4-1.5-3.9-1.5C507.1,500.3,504.9,502.1,504.1,504.5z"/>
	<path fill="#4CA8DE" d="M634.3,464.1l-50.8,14.7c1.1,1.5,1.8,3.3,1.8,5.3c0,0.2,0,0.3,0,0.5l50.6-14.6c-1-1.5-1.6-3.2-1.6-5.1
		C634.2,464.6,634.3,464.3,634.3,464.1z"/>
	<path fill="none" d="M444.8,515.8c-3.6,0-6.6,2.9-6.6,6.6s2.9,6.6,6.6,6.6c2.9,0,5.3-1.8,6.2-4.4c0.2-0.7,0.4-1.4,0.4-2.2
		c0-1.4-0.5-2.8-1.3-3.9C448.9,516.9,447,515.8,444.8,515.8z"/>
	<path fill="#4CA8DE" d="M567.6,483.8l-50.9,17c1.2,1.5,1.9,3.4,1.9,5.5c0,0.1,0,0.2,0,0.3l50.9-17c-1.2-1.5-1.9-3.4-1.9-5.5
		C567.6,484,567.6,483.9,567.6,483.8z"/>
	<path fill="#4CA8DE" d="M500.9,505.4l-47.8,12.4c0.8,1.4,1.2,3,1.2,4.6c0,0.4,0,0.9-0.1,1.3l48.1-12.5c-1-1.4-1.5-3.1-1.5-5
		C500.9,506,500.9,505.7,500.9,505.4z"/>
	<path fill="#4CA8DE" d="M444.8,529c-3.6,0-6.6-2.9-6.6-6.6s2.9-6.6,6.6-6.6c2.2,0,4.1,1.1,5.3,2.7l3.1-0.8
		c-1.6-2.9-4.8-4.9-8.4-4.9c-5.2,0-9.6,4.3-9.6,9.6c0,5.2,4.3,9.6,9.6,9.6c4.8,0,8.8-3.6,9.5-8.3l-3.3,0.9
		C450.1,527.1,447.7,529,444.8,529z"/>
	<path fill="#4CA8DE" d="M453.2,517.8l-3.1,0.8c0.8,1.1,1.3,2.4,1.3,3.9c0,0.8-0.1,1.5-0.4,2.2l3.3-0.9c0.1-0.4,0.1-0.9,0.1-1.3
		C454.4,520.7,453.9,519.1,453.2,517.8z"/>
	<path fill="#4CA8DE" d="M509.8,500.3c1.5,0,2.9,0.6,3.9,1.5l3-1c-1.6-2.1-4.1-3.4-7-3.4c-4.5,0-8.4,3.6-8.8,8l3.2-0.8
		C504.9,502.1,507.1,500.3,509.8,500.3z"/>
	<path fill="#4CA8DE" d="M509.8,512c-1.6,0-3-0.6-4-1.6l-3.3,0.9c1.6,2.3,4.3,3.9,7.3,3.9c4.9,0,8.7-3.9,8.9-8.6l-3.2,1.1
		C514.8,510.1,512.5,512,509.8,512z"/>
	<path fill="#4CA8DE" d="M516.7,500.8l-3,1c1.2,1.1,2,2.6,1.9,4.4c0,0.5-0.1,1-0.2,1.4l3.2-1.1c0-0.1,0-0.2,0-0.3
		C518.6,504.2,517.9,502.3,516.7,500.8z"/>
	<path fill="#4CA8DE" d="M503.9,506.2c0-0.6,0.1-1.1,0.2-1.6l-3.2,0.8c0,0.3,0,0.6,0,0.9c0,1.8,0.6,3.5,1.5,5l3.3-0.9
		C504.6,509.3,503.9,507.8,503.9,506.2z"/>
	<path fill="#4CA8DE" d="M576.4,489.8c-1.4,0-2.7-0.5-3.7-1.3l-3.2,1.1c1.6,2,4.1,3.4,7,3.4c4.8,0,8.6-3.8,8.9-8.4l-3.2,0.9
		C581.4,488,579.2,489.8,576.4,489.8z"/>
	<path fill="#4CA8DE" d="M576.4,478.1c1.5,0,2.9,0.6,3.9,1.5l3.1-0.9c-1.6-2.1-4.2-3.5-7.1-3.5c-4.8,0-8.7,3.8-8.9,8.6l3.1-1
		C571.3,480.1,573.6,478.1,576.4,478.1z"/>
	<path fill="#4CA8DE" d="M583.5,478.7l-3.1,0.9c1.2,1.1,1.9,2.6,1.9,4.3c0,0.5-0.1,1-0.2,1.5l3.2-0.9c0-0.2,0-0.3,0-0.5
		C585.3,482.1,584.6,480.2,583.5,478.7z"/>
	<path fill="#4CA8DE" d="M570.6,484c0-0.4,0-0.8,0.1-1.2l-3.1,1c0,0.1,0,0.2,0,0.2c0,2.1,0.7,4,1.9,5.5l3.2-1.1
		C571.4,487.4,570.6,485.8,570.6,484z"/>
	<path fill="#4CA8DE" d="M643.1,458.8c1.3,0,2.5,0.4,3.5,1.1l3-1.2c-1.6-1.7-3.9-2.8-6.5-2.8c-4.6,0-8.5,3.6-8.8,8.2l3.2-0.9
		C638.2,460.7,640.4,458.8,643.1,458.8z"/>
	<path fill="#4CA8DE" d="M643.1,470.5c-1.5,0-2.9-0.6-4-1.6l-3.3,0.9c1.6,2.3,4.2,3.8,7.2,3.8c4.9,0,8.9-4,8.9-8.9
		c0-0.2,0-0.3,0-0.5l-3.1,1.3C648.5,468.4,646.1,470.5,643.1,470.5z"/>
	<path fill="#4CA8DE" d="M646.6,460c1.4,1.1,2.4,2.8,2.4,4.7c0,0.3,0,0.6-0.1,0.9l3.1-1.3c-0.1-2.1-1-4.1-2.4-5.6L646.6,460z"/>
	<path fill="#4CA8DE" d="M637.3,464.7c0-0.5,0.1-1.1,0.2-1.5l-3.2,0.9c0,0.2,0,0.5,0,0.7c0,1.9,0.6,3.7,1.6,5.1l3.3-0.9
		C638,467.9,637.3,466.4,637.3,464.7z"/>
	<path fill="#4CA8DE" d="M709.8,443.1c-1.3,0-2.5-0.4-3.5-1.1l-3.1,1.3c1.6,1.8,4,3,6.6,3c4.6,0,8.4-3.6,8.8-8.1l-3.2,0.8
		C714.7,441.4,712.4,443.1,709.8,443.1z"/>
	<path fill="#4CA8DE" d="M709.8,431.4c1.6,0,3,0.7,4.1,1.7l3.2-0.8c-1.6-2.3-4.2-3.8-7.3-3.8c-4.8,0-8.9,3.9-8.9,8.9
		c0,0.1,0,0.2,0,0.3l3.1-1.3C704.5,433.6,706.9,431.4,709.8,431.4z"/>
	<path fill="#4CA8DE" d="M717.1,432.3l-3.2,0.8c1.1,1.1,1.8,2.6,1.8,4.1c0,0.6-0.1,1.2-0.3,1.7l3.2-0.8c0-0.3,0-0.5,0-0.8
		C718.7,435.5,718.1,433.7,717.1,432.3z"/>
	<path fill="#4CA8DE" d="M704,437.3c0-0.3,0-0.6,0.1-0.9l-3.1,1.3c0.1,2.1,0.9,4.1,2.3,5.6l3.1-1.3C704.9,440.9,704,439.2,704,437.3
		z"/>
	<path fill="#4CA8DE" d="M782.2,420.2c0,3.2-2.6,5.9-5.9,5.9c-1.6,0-3-0.6-4-1.6l-3.3,0.8c1.6,2.4,4.3,3.9,7.4,3.9
		c4.9,0,8.9-4,8.9-8.9c0-2.1-0.8-4.1-2-5.6l-1.6,2.8C782,418.3,782.2,419.2,782.2,420.2z"/>
	<path fill="#4CA8DE" d="M776.4,414.4C776.4,414.4,776.4,414.4,776.4,414.4l1.7-2.8c-0.5-0.1-1.1-0.2-1.7-0.2c-4.5,0-8.4,3.5-8.8,8
		l3.2-0.8C771.5,416.1,773.7,414.4,776.4,414.4z"/>
	<path fill="#4CA8DE" d="M778,411.6l-1.6,2.8c2.3,0,4.2,1.3,5.2,3.2l1.6-2.8C781.9,413.1,780.1,412,778,411.6z"/>
	<path fill="#4CA8DE" d="M770.5,420.2c0-0.6,0.1-1.1,0.2-1.6l-3.2,0.8c0,0.3,0,0.6,0,0.9c0,1.8,0.6,3.5,1.5,5l3.3-0.8
		C771.2,423.4,770.5,421.9,770.5,420.2z"/>
	<path fill="#4CA8DE" d="M837.2,306.2c0-3.2,2.6-5.9,5.9-5.9c0.8,0,1.6,0.2,2.3,0.5l2.6-1.9c-1.4-1-3.1-1.6-5-1.6
		c-4.8,0-8.9,3.9-8.9,8.9c0,2.2,0.8,4.2,2.1,5.7l1.7-2.9C837.5,308.2,837.2,307.3,837.2,306.2z"/>
	<path fill="#4CA8DE" d="M848.9,306.2c0,3.2-2.5,5.8-5.7,5.8l-1.7,2.9c0.5,0.1,1,0.1,1.5,0.1c4.9,0,9-3.9,8.9-8.9
		c0-0.8-0.1-1.7-0.4-2.4l-2.7,2C848.9,305.9,848.9,306.1,848.9,306.2z"/>
	<path fill="#4CA8DE" d="M848,298.9l-2.6,1.9c2,0.8,3.4,2.7,3.5,4.9l2.7-2C851,301.8,849.7,300.1,848,298.9z"/>
	<path fill="#4CA8DE" d="M843.1,312.1c-2.2,0-4.1-1.2-5.1-3l-1.7,2.9c1.3,1.6,3.1,2.7,5.2,3l1.7-2.9
		C843.2,312.1,843.1,312.1,843.1,312.1z"/>
	<path fill="#4CA8DE" d="M915.6,257.3c0,3.2-2.6,5.9-5.9,5.9c-0.8,0-1.5-0.2-2.2-0.4l-2.8,2c1.4,0.9,3.1,1.5,4.9,1.5
		c4.9,0,8.9-4,8.9-8.9c0-2.4-0.9-4.5-2.5-6.1l-1.4,2.9C915.3,255.1,915.6,256.2,915.6,257.3z"/>
	<path fill="#4CA8DE" d="M903.9,257.3c0-3.1,2.4-5.6,5.4-5.8l1.4-2.9c-0.3,0-0.6-0.1-1-0.1c-4.8,0-8.9,4-8.9,8.9
		c0,0.9,0.1,1.7,0.4,2.5l2.7-2C903.9,257.7,903.9,257.5,903.9,257.3z"/>
	<path fill="#4CA8DE" d="M909.3,251.5c0.1,0,0.3,0,0.4,0c2.1,0,3.9,1.1,5,2.8l1.4-2.9c-1.4-1.5-3.3-2.5-5.4-2.7L909.3,251.5z"/>
	<path fill="#4CA8DE" d="M903.9,257.9l-2.7,2c0.6,2,1.9,3.7,3.6,4.9l2.8-2C905.6,261.9,904.1,260.1,903.9,257.9z"/>
	<path fill="#4CA8DE" d="M982.3,121.7c0,3-2.3,5.5-5.3,5.8l-1.5,3.1c0.3,0,0.6,0.1,1,0.1c4.9,0,8.9-4,8.9-8.9c0-0.8-0.1-1.5-0.3-2.3
		l-2.7,1.9C982.3,121.5,982.3,121.6,982.3,121.7z"/>
	<path fill="#4CA8DE" d="M970.6,121.7c0-3.2,2.6-5.9,5.9-5.9c0.9,0,1.7,0.2,2.5,0.5l2.7-1.8c-1.4-1-3.2-1.6-5.1-1.6
		c-4.8,0-8.9,4-8.9,8.9c0,2.4,0.9,4.5,2.5,6.1l1.5-3C970.9,124,970.6,122.9,970.6,121.7z"/>
	<path fill="#4CA8DE" d="M981.5,114.6l-2.7,1.8c1.9,0.9,3.3,2.8,3.4,5l2.7-1.9C984.5,117.5,983.2,115.8,981.5,114.6z"/>
	<path fill="#4CA8DE" d="M976.4,127.6c-2,0-3.8-1.1-4.9-2.6l-1.5,3c1.4,1.5,3.3,2.4,5.4,2.7l1.5-3.1
		C976.8,127.6,976.6,127.6,976.4,127.6z"/>
	<path fill="#4CA8DE" d="M1037.2,76c0-3.2,2.5-5.8,5.7-5.8l1.6-2.8c-0.5-0.1-1-0.1-1.5-0.1c-4.8,0-8.9,3.9-8.9,8.9
		c0,0.7,0.1,1.4,0.3,2.1l2.8-1.9C1037.3,76.2,1037.2,76.1,1037.2,76z"/>
	<path fill="#4CA8DE" d="M1048.2,73.2c0.5,0.8,0.7,1.8,0.7,2.9c0,3.2-2.6,5.9-5.9,5.9c-0.9,0-1.7-0.2-2.4-0.5l-2.8,1.9
		c1.5,1.1,3.3,1.7,5.2,1.7c4.9,0,8.9-4,8.9-8.9c0-2.2-0.8-4.2-2.2-5.7L1048.2,73.2z"/>
	<path fill="#4CA8DE" d="M1043.1,70.2c2.2,0,4.1,1.2,5.1,3l1.6-2.8c-1.3-1.6-3.2-2.6-5.3-3l-1.6,2.8
		C1043,70.2,1043,70.2,1043.1,70.2z"/>
	<path fill="#4CA8DE" d="M1037.3,76.4l-2.8,1.9c0.5,2,1.7,3.8,3.4,5l2.8-1.9C1038.8,80.5,1037.4,78.6,1037.3,76.4z"/>
</g>
<g>
	<g>
		<path fill="#4CA8DE" d="M1066.1-46.9c0-1.7,0.4-3,1.1-3.9c0.7-0.8,1.8-1.3,3.3-1.3c0.5,0,0.9,0,1.2,0.1v1.5
			c-0.4-0.1-0.7-0.1-1.1-0.1c-0.6,0-1.2,0.1-1.6,0.3c-0.4,0.2-0.7,0.5-0.9,0.9c-0.2,0.4-0.3,0.9-0.4,1.6h0.1c0.4-0.7,1-1,1.9-1
			c0.8,0,1.4,0.2,1.8,0.7c0.4,0.5,0.7,1.2,0.7,2c0,0.9-0.3,1.7-0.8,2.2s-1.3,0.8-2.2,0.8c-0.6,0-1.2-0.2-1.7-0.5
			c-0.5-0.3-0.9-0.7-1.1-1.3C1066.2-45.4,1066.1-46.1,1066.1-46.9z M1069.3-44.6c0.4,0,0.7-0.1,0.9-0.4c0.2-0.3,0.3-0.6,0.3-1.1
			c0-0.4-0.1-0.8-0.3-1c-0.2-0.2-0.5-0.4-0.9-0.4s-0.7,0.1-1,0.4s-0.4,0.5-0.4,0.9c0,0.5,0.1,0.9,0.4,1.2
			C1068.6-44.7,1068.9-44.6,1069.3-44.6z"/>
		<path fill="#4CA8DE" d="M1075.5-44.5c-0.2,0.8-0.6,1.8-1.1,2.9h-1.3c0.3-1.1,0.5-2.1,0.6-3h1.7L1075.5-44.5z"/>
		<path fill="#4CA8DE" d="M1082.9-47.7c0,1.5-0.3,2.7-0.8,3.4s-1.3,1.1-2.3,1.1c-1,0-1.8-0.4-2.3-1.1s-0.7-1.9-0.7-3.4
			c0-1.6,0.3-2.7,0.8-3.4s1.3-1.1,2.3-1.1s1.8,0.4,2.3,1.2C1082.7-50.3,1082.9-49.2,1082.9-47.7z M1078.6-47.7
			c0,1.1,0.1,1.8,0.3,2.3c0.2,0.5,0.5,0.7,0.9,0.7c0.4,0,0.7-0.2,0.9-0.7c0.2-0.5,0.3-1.2,0.3-2.3c0-1.1-0.1-1.9-0.3-2.3
			s-0.5-0.7-0.9-0.7c-0.4,0-0.8,0.2-0.9,0.7C1078.7-49.5,1078.6-48.8,1078.6-47.7z"/>
		<path fill="#4CA8DE" d="M1090.1-47.7c0,1.5-0.3,2.7-0.8,3.4c-0.5,0.7-1.3,1.1-2.3,1.1s-1.8-0.4-2.3-1.1s-0.8-1.9-0.8-3.4
			c0-1.6,0.3-2.7,0.8-3.4s1.3-1.1,2.3-1.1c1,0,1.8,0.4,2.3,1.2C1089.8-50.3,1090.1-49.2,1090.1-47.7z M1085.8-47.7
			c0,1.1,0.1,1.8,0.3,2.3c0.2,0.5,0.5,0.7,0.9,0.7s0.7-0.2,0.9-0.7c0.2-0.5,0.3-1.2,0.3-2.3c0-1.1-0.1-1.9-0.3-2.3
			c-0.2-0.4-0.5-0.7-0.9-0.7s-0.8,0.2-0.9,0.7C1085.9-49.5,1085.8-48.8,1085.8-47.7z"/>
		<path fill="#4CA8DE" d="M1097.2-47.7c0,1.5-0.3,2.7-0.8,3.4s-1.3,1.1-2.3,1.1c-1,0-1.8-0.4-2.3-1.1s-0.8-1.9-0.8-3.4
			c0-1.6,0.3-2.7,0.8-3.4s1.3-1.1,2.3-1.1c1,0,1.8,0.4,2.3,1.2C1096.9-50.3,1097.2-49.2,1097.2-47.7z M1092.8-47.7
			c0,1.1,0.1,1.8,0.3,2.3c0.2,0.5,0.5,0.7,0.9,0.7c0.4,0,0.7-0.2,0.9-0.7c0.2-0.5,0.3-1.2,0.3-2.3c0-1.1-0.1-1.9-0.3-2.3
			s-0.5-0.7-0.9-0.7c-0.4,0-0.8,0.2-0.9,0.7C1092.9-49.5,1092.8-48.8,1092.8-47.7z"/>
	</g>
</g>
<g>
	<path fill="#4CA8DE" d="M1114-37.4c-4.9,0-8.9-4-8.9-8.9c0-4.9,4-8.9,8.9-8.9s8.9,4,8.9,8.9C1123-41.4,1119-37.4,1114-37.4z
		 M1114-52.2c-3.2,0-5.9,2.6-5.9,5.9c0,3.2,2.6,5.9,5.9,5.9c3.2,0,5.9-2.6,5.9-5.9C1119.9-49.6,1117.2-52.2,1114-52.2z"/>
</g>
<g>
	<g>
		<path fill="#666766" d="M1121.7-34.5h1l-2.9,8.3h-0.9l-2.9-8.3h1l1.9,5.3c0.2,0.6,0.4,1.2,0.5,1.8c0.1-0.6,0.3-1.2,0.5-1.8
			L1121.7-34.5z"/>
		<path fill="#666766" d="M1127.5-26.4l-0.2-0.9l0,0c-0.3,0.4-0.6,0.6-0.9,0.8c-0.3,0.1-0.7,0.2-1.1,0.2c-0.6,0-1.1-0.2-1.4-0.5
			c-0.3-0.3-0.5-0.8-0.5-1.3c0-1.2,1-1.9,3-1.9h1v-0.4c0-0.5-0.1-0.8-0.3-1.1c-0.2-0.2-0.5-0.3-1-0.3s-1.1,0.2-1.7,0.5l-0.3-0.7
			c0.3-0.2,0.6-0.3,1-0.4c0.4-0.1,0.7-0.1,1.1-0.1c0.7,0,1.3,0.2,1.6,0.5c0.4,0.3,0.5,0.8,0.5,1.6v4.2h-0.8V-26.4z M1125.4-27
			c0.6,0,1-0.2,1.4-0.5c0.3-0.3,0.5-0.8,0.5-1.3v-0.6h-0.9c-0.7,0-1.3,0.1-1.6,0.3s-0.5,0.5-0.5,0.9c0,0.3,0.1,0.6,0.3,0.8
			C1124.7-27.1,1125-27,1125.4-27z"/>
		<path fill="#666766" d="M1134.3-26.4v-4c0-0.5-0.1-0.9-0.3-1.1c-0.2-0.2-0.6-0.4-1.1-0.4c-0.6,0-1.1,0.2-1.4,0.5
			c-0.3,0.3-0.4,0.9-0.4,1.7v3.2h-0.9v-6.1h0.8l0.2,0.8l0,0c0.2-0.3,0.5-0.5,0.8-0.7c0.3-0.2,0.7-0.2,1.1-0.2c0.7,0,1.3,0.2,1.7,0.5
			s0.6,0.9,0.6,1.7v4H1134.3z"/>
		<path fill="#666766" d="M1139.6-26.2c-0.9,0-1.6-0.3-2.1-0.8c-0.5-0.5-0.7-1.3-0.7-2.3s0.2-1.8,0.7-2.4s1.2-0.8,2.1-0.8
			c0.3,0,0.6,0,0.9,0.1c0.3,0.1,0.5,0.1,0.7,0.2l-0.3,0.8c-0.2-0.1-0.4-0.1-0.7-0.2c-0.2-0.1-0.5-0.1-0.6-0.1
			c-1.2,0-1.9,0.8-1.9,2.4c0,0.8,0.2,1.3,0.5,1.7s0.8,0.6,1.3,0.6s1-0.1,1.6-0.3v0.8C1140.7-26.4,1140.2-26.2,1139.6-26.2z"/>
		<path fill="#666766" d="M1148-29.4c0,1-0.3,1.8-0.8,2.3c-0.5,0.6-1.2,0.8-2.1,0.8c-0.5,0-1-0.1-1.5-0.4c-0.5-0.3-0.8-0.6-1-1.1
			c-0.2-0.5-0.3-1-0.3-1.7c0-1,0.2-1.8,0.7-2.3c0.5-0.6,1.2-0.8,2.1-0.8c0.9,0,1.5,0.3,2,0.9S1148-30.4,1148-29.4z M1143.3-29.4
			c0,0.8,0.2,1.4,0.5,1.8s0.8,0.6,1.4,0.6c0.6,0,1.1-0.2,1.4-0.6c0.3-0.4,0.5-1,0.5-1.8c0-0.8-0.2-1.4-0.5-1.8s-0.8-0.6-1.4-0.6
			s-1.1,0.2-1.4,0.6C1143.5-30.8,1143.3-30.2,1143.3-29.4z"/>
		<path fill="#666766" d="M1150.5-32.5v4c0,0.5,0.1,0.9,0.3,1.1c0.2,0.2,0.6,0.4,1.1,0.4c0.6,0,1.1-0.2,1.4-0.5
			c0.3-0.3,0.4-0.9,0.4-1.7v-3.3h0.9v6.2h-0.8l-0.1-0.8h-0.1c-0.2,0.3-0.5,0.5-0.8,0.7s-0.7,0.2-1.2,0.2c-0.7,0-1.3-0.2-1.7-0.5
			c-0.4-0.3-0.6-0.9-0.6-1.7v-4H1150.5z"/>
		<path fill="#666766" d="M1158.1-26.4l-2.3-6.2h1l1.3,3.6c0.3,0.8,0.5,1.4,0.5,1.7l0,0c0-0.2,0.2-0.6,0.4-1.2
			c0.2-0.6,0.7-2,1.5-4.1h1l-2.3,6.2H1158.1z"/>
		<path fill="#666766" d="M1165.1-26.2c-0.9,0-1.6-0.3-2.1-0.8c-0.5-0.6-0.8-1.3-0.8-2.3s0.2-1.8,0.7-2.3c0.5-0.6,1.1-0.9,2-0.9
			c0.8,0,1.4,0.3,1.8,0.8c0.4,0.5,0.7,1.2,0.7,2v0.6h-4.2c0,0.7,0.2,1.3,0.5,1.6c0.3,0.3,0.8,0.6,1.5,0.6s1.3-0.1,2-0.4v0.8
			c-0.3,0.1-0.6,0.2-0.9,0.3C1166-26.1,1165.5-26.2,1165.1-26.2z M1164.9-31.8c-0.5,0-0.9,0.2-1.2,0.5c-0.3,0.3-0.5,0.8-0.5,1.3h3.2
			c0-0.6-0.1-1-0.4-1.3C1165.7-31.7,1165.4-31.8,1164.9-31.8z"/>
		<path fill="#666766" d="M1171.7-32.6c0.3,0,0.5,0,0.7,0.1l-0.1,0.9c-0.3-0.1-0.5-0.1-0.7-0.1c-0.5,0-0.9,0.2-1.3,0.6
			c-0.4,0.4-0.5,0.9-0.5,1.5v3.3h-0.9v-6.3h0.8l0.1,1.1l0,0c0.2-0.4,0.5-0.7,0.8-0.9C1171-32.5,1171.4-32.6,1171.7-32.6z"/>
	</g>
</g>
</svg>
