<?xml version="1.0" encoding="utf-8"?>
<!-- Generator: Adobe Illustrator 16.0.4, SVG Export Plug-In . SVG Version: 6.00 Build 0)  -->
<!DOCTYPE svg PUBLIC "-//W3C//DTD SVG 1.1//EN" "http://www.w3.org/Graphics/SVG/1.1/DTD/svg11.dtd">
<svg version="1.1" id="Layer_1" xmlns="http://www.w3.org/2000/svg" xmlns:xlink="http://www.w3.org/1999/xlink" x="0px" y="0px"
	 width="189.023px" height="132.558px" viewBox="0 0 189.023 132.558" enable-background="new 0 0 189.023 132.558"
	 xml:space="preserve">
<g>
	<g>
		<path fill="#454545" d="M0,17.686v-7.139h1.514v5.889h2.896v1.25H0z"/>
		<path fill="#454545" d="M9.761,17.686H5.649v-7.139h4.111v1.24H7.163v1.567H9.58v1.24H7.163v1.841h2.598V17.686z"/>
		<path fill="#454545" d="M13.96,13.677h2.832v3.701c-0.459,0.15-0.892,0.255-1.296,0.315c-0.406,0.06-0.82,0.09-1.243,0.09
			c-1.077,0-1.9-0.316-2.468-0.95c-0.568-0.633-0.853-1.542-0.853-2.727c0-1.152,0.329-2.051,0.989-2.695
			c0.658-0.645,1.572-0.967,2.741-0.967c0.732,0,1.438,0.146,2.119,0.439l-0.503,1.211c-0.521-0.26-1.062-0.391-1.626-0.391
			c-0.654,0-1.179,0.22-1.572,0.659s-0.591,1.03-0.591,1.772c0,0.775,0.158,1.366,0.477,1.775c0.316,0.409,0.778,0.613,1.384,0.613
			c0.315,0,0.637-0.033,0.962-0.098v-1.489H13.96V13.677z"/>
		<path fill="#454545" d="M22.603,17.686h-4.111v-7.139h4.111v1.24h-2.598v1.567h2.417v1.24h-2.417v1.841h2.598V17.686z"/>
		<path fill="#454545" d="M30.425,17.686h-1.924l-3.105-5.4h-0.044c0.062,0.954,0.093,1.634,0.093,2.041v3.359h-1.353v-7.139h1.909
			l3.101,5.347h0.034c-0.049-0.928-0.073-1.583-0.073-1.968v-3.379h1.362V17.686z"/>
		<path fill="#454545" d="M38.145,14.048c0,1.175-0.335,2.075-1.003,2.7c-0.67,0.625-1.636,0.938-2.898,0.938h-2.021v-7.139h2.241
			c1.165,0,2.07,0.308,2.715,0.923S38.145,12.945,38.145,14.048z M36.572,14.087c0-1.533-0.677-2.3-2.031-2.3h-0.806v4.648h0.649
			C35.843,16.436,36.572,15.653,36.572,14.087z"/>
	</g>
</g>
<g>
	<path fill="#454545" d="M185.5,123.558H0v-99.5h185.5V123.558z M2,121.558h181.5v-95.5H2V121.558z"/>
	<g>
		<g>
			<g>
				<path fill="#454545" d="M29.07,102.498c0,0.762-0.275,1.359-0.826,1.793s-1.311,0.65-2.279,0.65s-1.762-0.15-2.379-0.451v-1.324
					c0.391,0.184,0.806,0.328,1.245,0.434s0.849,0.158,1.228,0.158c0.555,0,0.964-0.105,1.228-0.316s0.396-0.494,0.396-0.85
					c0-0.32-0.121-0.592-0.363-0.814s-0.742-0.486-1.5-0.791c-0.781-0.316-1.332-0.678-1.652-1.084s-0.48-0.895-0.48-1.465
					c0-0.715,0.254-1.277,0.762-1.688s1.189-0.615,2.045-0.615c0.82,0,1.637,0.18,2.449,0.539l-0.445,1.143
					c-0.762-0.32-1.441-0.48-2.039-0.48c-0.453,0-0.797,0.099-1.031,0.296s-0.352,0.458-0.352,0.782
					c0,0.223,0.047,0.413,0.141,0.571s0.248,0.308,0.463,0.448s0.602,0.326,1.16,0.557c0.629,0.262,1.09,0.506,1.383,0.732
					s0.508,0.482,0.645,0.768S29.07,102.111,29.07,102.498z"/>
				<path fill="#454545" d="M35.152,104.824l-0.193-0.85h-0.07c-0.191,0.301-0.464,0.537-0.817,0.709s-0.757,0.258-1.21,0.258
					c-0.785,0-1.371-0.195-1.758-0.586s-0.58-0.982-0.58-1.775v-4.236h1.389v3.996c0,0.496,0.102,0.868,0.305,1.116
					s0.521,0.372,0.955,0.372c0.578,0,1.003-0.173,1.274-0.519s0.407-0.925,0.407-1.737v-3.229h1.383v6.48H35.152z"/>
				<path fill="#454545" d="M43.66,104.824h-1.383v-3.996c0-0.496-0.094-0.866-0.281-1.11s-0.48-0.366-0.879-0.366
					c-0.531,0-0.921,0.173-1.169,0.519s-0.372,0.921-0.372,1.726v3.229h-1.377v-6.48h1.078l0.193,0.85h0.07
					c0.18-0.309,0.44-0.547,0.782-0.715s0.718-0.252,1.128-0.252c0.996,0,1.656,0.34,1.98,1.02h0.094
					c0.191-0.32,0.461-0.57,0.809-0.75s0.746-0.27,1.195-0.27c0.773,0,1.337,0.195,1.69,0.586s0.53,0.986,0.53,1.787v4.225h-1.377
					v-3.996c0-0.496-0.095-0.866-0.284-1.11s-0.483-0.366-0.882-0.366c-0.535,0-0.927,0.167-1.175,0.501s-0.372,0.847-0.372,1.538
					V104.824z"/>
				<path fill="#454545" d="M55.133,104.824H53.75v-3.996c0-0.496-0.094-0.866-0.281-1.11s-0.48-0.366-0.879-0.366
					c-0.531,0-0.921,0.173-1.169,0.519s-0.372,0.921-0.372,1.726v3.229h-1.377v-6.48h1.078l0.193,0.85h0.07
					c0.18-0.309,0.44-0.547,0.782-0.715s0.718-0.252,1.128-0.252c0.996,0,1.656,0.34,1.98,1.02h0.094
					c0.191-0.32,0.461-0.57,0.809-0.75s0.746-0.27,1.195-0.27c0.773,0,1.337,0.195,1.69,0.586s0.53,0.986,0.53,1.787v4.225h-1.377
					v-3.996c0-0.496-0.095-0.866-0.284-1.11s-0.483-0.366-0.882-0.366c-0.535,0-0.927,0.167-1.175,0.501s-0.372,0.847-0.372,1.538
					V104.824z"/>
				<path fill="#454545" d="M61.062,96.626c0-0.246,0.067-0.436,0.202-0.568s0.327-0.199,0.577-0.199
					c0.242,0,0.431,0.066,0.565,0.199s0.202,0.322,0.202,0.568c0,0.234-0.067,0.419-0.202,0.554s-0.323,0.202-0.565,0.202
					c-0.25,0-0.442-0.067-0.577-0.202S61.062,96.861,61.062,96.626z M62.521,104.824h-1.377v-6.48h1.377V104.824z"/>
				<path fill="#454545" d="M66.904,103.828c0.336,0,0.672-0.053,1.008-0.158v1.037c-0.152,0.066-0.349,0.122-0.589,0.167
					s-0.489,0.067-0.747,0.067c-1.305,0-1.957-0.688-1.957-2.062v-3.492h-0.885v-0.609l0.949-0.504l0.469-1.371h0.85v1.441h1.846
					v1.043h-1.846v3.469c0,0.332,0.083,0.577,0.249,0.735S66.635,103.828,66.904,103.828z"/>
				<path fill="#454545" d="M76.115,97.335c-0.805,0-1.438,0.285-1.898,0.855s-0.691,1.357-0.691,2.361
					c0,1.051,0.222,1.846,0.665,2.385s1.085,0.809,1.925,0.809c0.363,0,0.715-0.036,1.055-0.108s0.693-0.165,1.061-0.278v1.201
					c-0.672,0.254-1.434,0.381-2.285,0.381c-1.254,0-2.217-0.38-2.889-1.14s-1.008-1.847-1.008-3.261
					c0-0.891,0.163-1.67,0.489-2.338s0.798-1.18,1.415-1.535s1.342-0.533,2.174-0.533c0.875,0,1.684,0.184,2.426,0.551l-0.504,1.166
					c-0.289-0.137-0.595-0.257-0.917-0.36S76.471,97.335,76.115,97.335z"/>
				<path fill="#454545" d="M79.848,96.626c0-0.246,0.067-0.436,0.202-0.568s0.327-0.199,0.577-0.199
					c0.242,0,0.431,0.066,0.565,0.199s0.202,0.322,0.202,0.568c0,0.234-0.067,0.419-0.202,0.554s-0.323,0.202-0.565,0.202
					c-0.25,0-0.442-0.067-0.577-0.202S79.848,96.861,79.848,96.626z M81.307,104.824H79.93v-6.48h1.377V104.824z"/>
				<path fill="#454545" d="M85.689,103.828c0.336,0,0.672-0.053,1.008-0.158v1.037c-0.152,0.066-0.349,0.122-0.589,0.167
					s-0.489,0.067-0.747,0.067c-1.305,0-1.957-0.688-1.957-2.062v-3.492H82.52v-0.609l0.949-0.504l0.469-1.371h0.85v1.441h1.846
					v1.043h-1.846v3.469c0,0.332,0.083,0.577,0.249,0.735S85.42,103.828,85.689,103.828z"/>
				<path fill="#454545" d="M87.008,98.343h1.5l1.318,3.674c0.199,0.523,0.332,1.016,0.398,1.477h0.047
					c0.035-0.215,0.1-0.476,0.193-0.782s0.59-1.763,1.488-4.368h1.488l-2.771,7.342c-0.504,1.348-1.344,2.021-2.52,2.021
					c-0.305,0-0.602-0.033-0.891-0.1v-1.09c0.207,0.047,0.443,0.07,0.709,0.07c0.664,0,1.131-0.385,1.4-1.154l0.24-0.609
					L87.008,98.343z"/>
			</g>
		</g>
		<g>
			<g>
				<path fill="#28AAE1" d="M29.445,49.824l-0.855-2.379h-3.275l-0.838,2.379H23l3.205-8.602h1.523l3.205,8.602H29.445z
					 M28.221,46.238l-0.803-2.332c-0.059-0.156-0.14-0.402-0.243-0.738S27,42.585,26.961,42.429c-0.105,0.48-0.26,1.006-0.463,1.576
					l-0.773,2.232H28.221z"/>
				<path fill="#28AAE1" d="M34.332,48.828c0.336,0,0.672-0.053,1.008-0.158v1.037c-0.152,0.066-0.349,0.122-0.589,0.167
					s-0.489,0.067-0.747,0.067c-1.305,0-1.957-0.688-1.957-2.062v-3.492h-0.885v-0.609l0.949-0.504l0.469-1.371h0.85v1.441h1.846
					v1.043H33.43v3.469c0,0.332,0.083,0.577,0.249,0.735S34.062,48.828,34.332,48.828z"/>
				<path fill="#28AAE1" d="M39.049,48.828c0.336,0,0.672-0.053,1.008-0.158v1.037c-0.152,0.066-0.349,0.122-0.589,0.167
					s-0.489,0.067-0.747,0.067c-1.305,0-1.957-0.688-1.957-2.062v-3.492h-0.885v-0.609l0.949-0.504l0.469-1.371h0.85v1.441h1.846
					v1.043h-1.846v3.469c0,0.332,0.083,0.577,0.249,0.735S38.779,48.828,39.049,48.828z"/>
				<path fill="#28AAE1" d="M44.182,49.941c-1.008,0-1.796-0.294-2.364-0.882s-0.853-1.397-0.853-2.429
					c0-1.059,0.264-1.891,0.791-2.496s1.252-0.908,2.174-0.908c0.855,0,1.531,0.26,2.027,0.779s0.744,1.234,0.744,2.145v0.744
					h-4.318c0.02,0.629,0.189,1.112,0.51,1.45s0.771,0.507,1.354,0.507c0.383,0,0.739-0.036,1.069-0.108s0.685-0.192,1.063-0.36
					v1.119c-0.336,0.16-0.676,0.273-1.02,0.34S44.623,49.941,44.182,49.941z M43.93,44.269c-0.438,0-0.788,0.139-1.052,0.416
					s-0.421,0.682-0.472,1.213h2.941c-0.008-0.535-0.137-0.94-0.387-1.216S44.367,44.269,43.93,44.269z"/>
				<path fill="#28AAE1" d="M53.967,49.824h-1.383v-3.984c0-0.5-0.101-0.873-0.302-1.119s-0.521-0.369-0.958-0.369
					c-0.582,0-1.008,0.172-1.277,0.516s-0.404,0.92-0.404,1.729v3.229h-1.377v-6.48h1.078l0.193,0.85h0.07
					c0.195-0.309,0.473-0.547,0.832-0.715s0.758-0.252,1.195-0.252c1.555,0,2.332,0.791,2.332,2.373V49.824z"/>
				<path fill="#28AAE1" d="M58.068,49.941c-0.809,0-1.439-0.293-1.893-0.879s-0.68-1.408-0.68-2.467
					c0-1.062,0.229-1.89,0.688-2.481s1.095-0.888,1.907-0.888c0.852,0,1.5,0.314,1.945,0.943h0.07c-0.066-0.465-0.1-0.832-0.1-1.102
					v-2.361h1.383v9.117h-1.078l-0.24-0.85h-0.064C59.566,49.619,58.92,49.941,58.068,49.941z M58.438,48.828
					c0.566,0,0.979-0.159,1.236-0.478s0.391-0.835,0.398-1.55v-0.193c0-0.816-0.133-1.396-0.398-1.74s-0.682-0.516-1.248-0.516
					c-0.484,0-0.857,0.196-1.119,0.589s-0.393,0.952-0.393,1.679c0,0.719,0.127,1.267,0.381,1.644S57.93,48.828,58.438,48.828z"/>
				<path fill="#28AAE1" d="M66.189,49.941c-1.008,0-1.796-0.294-2.364-0.882s-0.853-1.397-0.853-2.429
					c0-1.059,0.264-1.891,0.791-2.496s1.252-0.908,2.174-0.908c0.855,0,1.531,0.26,2.027,0.779s0.744,1.234,0.744,2.145v0.744
					h-4.318c0.02,0.629,0.189,1.112,0.51,1.45s0.771,0.507,1.354,0.507c0.383,0,0.739-0.036,1.069-0.108s0.685-0.192,1.063-0.36
					v1.119c-0.336,0.16-0.676,0.273-1.02,0.34S66.631,49.941,66.189,49.941z M65.938,44.269c-0.438,0-0.788,0.139-1.052,0.416
					s-0.421,0.682-0.472,1.213h2.941c-0.008-0.535-0.137-0.94-0.387-1.216S66.375,44.269,65.938,44.269z"/>
				<path fill="#28AAE1" d="M73.104,49.941c-1.008,0-1.796-0.294-2.364-0.882s-0.853-1.397-0.853-2.429
					c0-1.059,0.264-1.891,0.791-2.496s1.252-0.908,2.174-0.908c0.855,0,1.531,0.26,2.027,0.779s0.744,1.234,0.744,2.145v0.744
					h-4.318c0.02,0.629,0.189,1.112,0.51,1.45s0.771,0.507,1.354,0.507c0.383,0,0.739-0.036,1.069-0.108s0.685-0.192,1.063-0.36
					v1.119c-0.336,0.16-0.676,0.273-1.02,0.34S73.545,49.941,73.104,49.941z M72.852,44.269c-0.438,0-0.788,0.139-1.052,0.416
					s-0.421,0.682-0.472,1.213h2.941c-0.008-0.535-0.137-0.94-0.387-1.216S73.289,44.269,72.852,44.269z"/>
				<path fill="#28AAE1" d="M81.541,47.978c0,0.633-0.23,1.118-0.691,1.456s-1.121,0.507-1.98,0.507
					c-0.863,0-1.557-0.131-2.08-0.393v-1.189c0.762,0.352,1.471,0.527,2.127,0.527c0.848,0,1.271-0.256,1.271-0.768
					c0-0.164-0.047-0.301-0.141-0.41s-0.248-0.223-0.463-0.34s-0.514-0.25-0.896-0.398c-0.746-0.289-1.251-0.578-1.515-0.867
					s-0.396-0.664-0.396-1.125c0-0.555,0.224-0.985,0.671-1.292s1.056-0.46,1.825-0.46c0.762,0,1.482,0.154,2.162,0.463
					l-0.445,1.037c-0.699-0.289-1.287-0.434-1.764-0.434c-0.727,0-1.09,0.207-1.09,0.621c0,0.203,0.095,0.375,0.284,0.516
					s0.603,0.334,1.239,0.58c0.535,0.207,0.924,0.396,1.166,0.568s0.422,0.37,0.539,0.595S81.541,47.666,81.541,47.978z"/>
			</g>
		</g>
		<g>
			<path fill="#4CA8DE" d="M157,73.808c0,2.307-1.87,4.176-4.177,4.176H32.676c-2.306,0-4.176-1.87-4.176-4.176l0,0
				c0-2.307,1.87-4.177,4.176-4.177h120.147C155.13,69.631,157,71.501,157,73.808L157,73.808z"/>
			<g>
				<circle fill="#070808" cx="28.5" cy="73.808" r="8.353"/>
				<path fill="#4CA8DE" d="M28.5,83.662c-5.434,0-9.854-4.421-9.854-9.854c0-5.434,4.42-9.854,9.854-9.854
					c5.433,0,9.853,4.42,9.853,9.854C38.353,79.241,33.933,83.662,28.5,83.662z M28.5,66.955c-3.779,0-6.854,3.074-6.854,6.854
					c0,3.778,3.074,6.854,6.854,6.854c3.778,0,6.853-3.075,6.853-6.854C35.353,70.029,32.278,66.955,28.5,66.955z"/>
			</g>
		</g>
	</g>
</g>
</svg>
