<?xml version="1.0" encoding="utf-8"?>
<!-- Generator: Adobe Illustrator 16.0.4, SVG Export Plug-In . SVG Version: 6.00 Build 0)  -->
<!DOCTYPE svg PUBLIC "-//W3C//DTD SVG 1.1//EN" "http://www.w3.org/Graphics/SVG/1.1/DTD/svg11.dtd">
<svg version="1.1" xmlns="http://www.w3.org/2000/svg" xmlns:xlink="http://www.w3.org/1999/xlink" x="0px" y="0px" width="609px"
	 height="412px" viewBox="0 0 609 412" enable-background="new 0 0 609 412" xml:space="preserve">
<g id="Layer_2" display="none">
	
		<image display="inline" overflow="visible" width="790" height="460" xlink:href="../../../../Library/Containers/at.EternalStorms.Yoink/Data/Documents/YoinkPromisedFiles/yoinkFilePromiseCreationFolderD74D248E-B6F4-45B2-AADF-8FF5B810792A/addD74D248E-B6F4-45B2-AADF-8FF5B810792A/Charts.png"  transform="matrix(0.9999 0 0 0.9999 -97 -21)">
	</image>
</g>
<g id="Layer_1">
</g>
<g id="Layer_3">
	<g>
		<rect x="106" y="236" fill="#30739C" width="198" height="37"/>
		<g>
			<path fill="#FFFFFF" d="M179.146,258.602h-1.367l-3.644-4.847l-1.046,0.93v3.917h-1.162v-9.994h1.162v4.956l4.532-4.956h1.374
				l-4.02,4.341L179.146,258.602z"/>
			<path fill="#FFFFFF" d="M186.092,258.602h-5.571v-9.994h5.571v1.032h-4.409v3.22h4.143v1.025h-4.143v3.678h4.409V258.602z"/>
			<path fill="#FFFFFF" d="M190.85,253.604l2.666-4.997h1.258l-3.336,6.118v3.876h-1.176v-3.821l-3.329-6.173h1.271L190.85,253.604z
				"/>
			<path fill="#FFFFFF" d="M203.954,258.602h-1.326l-5.462-8.388h-0.055c0.073,0.984,0.109,1.887,0.109,2.707v5.681h-1.073v-9.994
				h1.312l5.448,8.354h0.055c-0.009-0.123-0.03-0.519-0.062-1.186c-0.032-0.668-0.043-1.146-0.034-1.433v-5.735h1.087V258.602z"/>
			<path fill="#FFFFFF" d="M215.377,253.591c0,1.6-0.404,2.857-1.213,3.773s-1.934,1.374-3.374,1.374
				c-1.472,0-2.608-0.45-3.408-1.35c-0.8-0.9-1.2-2.171-1.2-3.812c0-1.627,0.401-2.888,1.203-3.784
				c0.802-0.895,1.941-1.343,3.418-1.343c1.436,0,2.557,0.456,3.363,1.367S215.377,251.986,215.377,253.591z M207.413,253.591
				c0,1.354,0.288,2.38,0.865,3.079c0.577,0.7,1.414,1.05,2.512,1.05c1.107,0,1.944-0.349,2.509-1.046s0.848-1.725,0.848-3.083
				c0-1.345-0.281-2.364-0.844-3.06c-0.563-0.694-1.396-1.042-2.499-1.042c-1.107,0-1.949,0.35-2.526,1.05
				C207.701,251.238,207.413,252.256,207.413,253.591z"/>
			<path fill="#FFFFFF" d="M220.682,258.602h-1.162v-8.962h-3.165v-1.032h7.492v1.032h-3.165V258.602z"/>
			<path fill="#FFFFFF" d="M230.922,258.602h-5.571v-9.994h5.571v1.032h-4.409v3.22h4.143v1.025h-4.143v3.678h4.409V258.602z"/>
			<path fill="#FFFFFF" d="M238.776,255.942c0,0.88-0.319,1.565-0.957,2.058s-1.504,0.738-2.598,0.738
				c-1.185,0-2.096-0.152-2.734-0.458v-1.121c0.41,0.173,0.857,0.31,1.34,0.41s0.961,0.15,1.436,0.15c0.775,0,1.358-0.147,1.75-0.44
				c0.392-0.295,0.588-0.703,0.588-1.228c0-0.347-0.069-0.63-0.208-0.851c-0.139-0.222-0.372-0.426-0.697-0.612
				s-0.821-0.399-1.487-0.636c-0.93-0.332-1.594-0.727-1.993-1.183s-0.598-1.05-0.598-1.784c0-0.77,0.29-1.383,0.868-1.839
				s1.344-0.684,2.297-0.684c0.994,0,1.907,0.183,2.741,0.547l-0.362,1.012c-0.825-0.347-1.627-0.52-2.406-0.52
				c-0.615,0-1.096,0.132-1.442,0.396s-0.52,0.632-0.52,1.101c0,0.346,0.064,0.63,0.191,0.852c0.127,0.221,0.343,0.424,0.646,0.607
				c0.303,0.186,0.767,0.389,1.391,0.612c1.048,0.374,1.77,0.774,2.164,1.203S238.776,255.259,238.776,255.942z"/>
		</g>
	</g>
	<g>
		<rect x="106" y="279" fill="#30739C" width="298" height="37"/>
		<g>
			<path fill="#FFFFFF" d="M225.667,301.602h-5.571v-9.994h5.571v1.032h-4.409v3.22h4.143v1.025h-4.143v3.678h4.409V301.602z"/>
			<path fill="#FFFFFF" d="M234.533,301.602h-1.319l-2.687-4.396l-2.734,4.396h-1.23l3.322-5.223l-3.097-4.771h1.285l2.481,3.958
				l2.502-3.958h1.237l-3.097,4.73L234.533,301.602z"/>
			<path fill="#FFFFFF" d="M242.299,294.52c0,1.012-0.345,1.79-1.036,2.334c-0.69,0.545-1.678,0.817-2.963,0.817h-1.176v3.931
				h-1.162v-9.994h2.591C241.05,291.607,242.299,292.578,242.299,294.52z M237.124,296.673h1.046c1.03,0,1.775-0.167,2.235-0.499
				s0.69-0.865,0.69-1.6c0-0.66-0.216-1.152-0.649-1.477s-1.107-0.485-2.023-0.485h-1.299V296.673z"/>
			<path fill="#FFFFFF" d="M253.065,296.591c0,1.6-0.404,2.857-1.213,3.773s-1.934,1.374-3.374,1.374
				c-1.472,0-2.608-0.45-3.408-1.35c-0.8-0.9-1.2-2.171-1.2-3.812c0-1.627,0.401-2.888,1.203-3.784
				c0.802-0.895,1.941-1.343,3.418-1.343c1.436,0,2.557,0.456,3.363,1.367S253.065,294.986,253.065,296.591z M245.102,296.591
				c0,1.354,0.288,2.38,0.865,3.079c0.577,0.7,1.414,1.05,2.512,1.05c1.107,0,1.944-0.349,2.509-1.046s0.848-1.725,0.848-3.083
				c0-1.345-0.281-2.364-0.844-3.06c-0.563-0.694-1.396-1.042-2.499-1.042c-1.107,0-1.949,0.35-2.526,1.05
				C245.39,294.238,245.102,295.256,245.102,296.591z"/>
			<path fill="#FFFFFF" d="M266.519,301.602h-1.162v-4.703h-5.264v4.703h-1.162v-9.994h1.162v4.252h5.264v-4.252h1.162V301.602z"/>
			<path fill="#FFFFFF" d="M275.542,301.602l-1.244-3.179h-4.006l-1.23,3.179h-1.176l3.951-10.035h0.978l3.931,10.035H275.542z
				 M273.936,297.377l-1.162-3.097c-0.15-0.392-0.305-0.872-0.465-1.442c-0.1,0.438-0.244,0.918-0.431,1.442l-1.176,3.097H273.936z"
				/>
			<path fill="#FFFFFF" d="M278.119,301.602v-9.994h1.162v8.941h4.409v1.053H278.119z"/>
			<path fill="#FFFFFF" d="M285.386,301.602v-9.994h1.162v8.941h4.409v1.053H285.386z"/>
		</g>
	</g>
	<g>
		<rect x="106" y="322" fill="#30739C" width="298" height="37"/>
		<g>
			<path fill="#FFFFFF" d="M141.059,334.607h2.823c1.326,0,2.286,0.198,2.878,0.595s0.889,1.022,0.889,1.88
				c0,0.592-0.165,1.081-0.496,1.467c-0.331,0.385-0.812,0.635-1.446,0.748v0.068c1.518,0.26,2.276,1.057,2.276,2.393
				c0,0.894-0.302,1.591-0.906,2.092s-1.448,0.752-2.533,0.752h-3.486V334.607z M142.221,338.887h1.914
				c0.82,0,1.411-0.129,1.771-0.387c0.36-0.257,0.54-0.691,0.54-1.302c0-0.561-0.201-0.965-0.602-1.214
				c-0.401-0.248-1.039-0.372-1.914-0.372h-1.709V338.887z M142.221,339.871v3.739h2.085c0.807,0,1.414-0.156,1.822-0.468
				c0.408-0.312,0.612-0.802,0.612-1.467c0-0.62-0.208-1.076-0.625-1.367s-1.052-0.438-1.904-0.438H142.221z"/>
			<path fill="#FFFFFF" d="M157.677,334.607v6.467c0,1.14-0.344,2.035-1.032,2.687s-1.634,0.978-2.837,0.978
				s-2.134-0.328-2.792-0.984s-0.988-1.559-0.988-2.707v-6.439h1.162v6.521c0,0.834,0.228,1.475,0.684,1.921s1.125,0.67,2.01,0.67
				c0.843,0,1.493-0.225,1.948-0.673c0.456-0.449,0.684-1.093,0.684-1.932v-6.508H157.677z"/>
			<path fill="#FFFFFF" d="M165.962,341.942c0,0.88-0.319,1.565-0.957,2.058s-1.504,0.738-2.598,0.738
				c-1.185,0-2.096-0.152-2.734-0.458v-1.121c0.41,0.173,0.857,0.31,1.34,0.41s0.961,0.15,1.436,0.15c0.775,0,1.358-0.147,1.75-0.44
				c0.392-0.295,0.588-0.703,0.588-1.228c0-0.347-0.069-0.63-0.208-0.851c-0.139-0.222-0.372-0.426-0.697-0.612
				s-0.821-0.399-1.487-0.636c-0.93-0.332-1.594-0.727-1.993-1.183s-0.598-1.05-0.598-1.784c0-0.77,0.29-1.383,0.868-1.839
				s1.344-0.684,2.297-0.684c0.994,0,1.907,0.183,2.741,0.547l-0.362,1.012c-0.825-0.347-1.627-0.52-2.406-0.52
				c-0.615,0-1.096,0.132-1.442,0.396s-0.52,0.632-0.52,1.101c0,0.346,0.064,0.63,0.191,0.852c0.127,0.221,0.343,0.424,0.646,0.607
				c0.303,0.186,0.767,0.389,1.391,0.612c1.048,0.374,1.77,0.774,2.164,1.203S165.962,341.259,165.962,341.942z"/>
			<path fill="#FFFFFF" d="M168.006,344.602v-9.994h1.162v9.994H168.006z"/>
			<path fill="#FFFFFF" d="M179.716,344.602h-1.326l-5.462-8.388h-0.055c0.073,0.984,0.109,1.887,0.109,2.707v5.681h-1.073v-9.994
				h1.312l5.448,8.354h0.055c-0.009-0.123-0.03-0.519-0.062-1.186c-0.032-0.668-0.043-1.146-0.034-1.433v-5.735h1.087V344.602z"/>
			<path fill="#FFFFFF" d="M188.035,344.602h-5.571v-9.994h5.571v1.032h-4.409v3.22h4.143v1.025h-4.143v3.678h4.409V344.602z"/>
			<path fill="#FFFFFF" d="M195.89,341.942c0,0.88-0.319,1.565-0.957,2.058s-1.504,0.738-2.598,0.738
				c-1.185,0-2.096-0.152-2.734-0.458v-1.121c0.41,0.173,0.857,0.31,1.34,0.41s0.961,0.15,1.436,0.15c0.775,0,1.358-0.147,1.75-0.44
				c0.392-0.295,0.588-0.703,0.588-1.228c0-0.347-0.069-0.63-0.208-0.851c-0.139-0.222-0.372-0.426-0.697-0.612
				s-0.821-0.399-1.487-0.636c-0.93-0.332-1.594-0.727-1.993-1.183s-0.598-1.05-0.598-1.784c0-0.77,0.29-1.383,0.868-1.839
				s1.344-0.684,2.297-0.684c0.994,0,1.907,0.183,2.741,0.547l-0.362,1.012c-0.825-0.347-1.627-0.52-2.406-0.52
				c-0.615,0-1.096,0.132-1.442,0.396s-0.52,0.632-0.52,1.101c0,0.346,0.064,0.63,0.191,0.852c0.127,0.221,0.343,0.424,0.646,0.607
				c0.303,0.186,0.767,0.389,1.391,0.612c1.048,0.374,1.77,0.774,2.164,1.203S195.89,341.259,195.89,341.942z"/>
			<path fill="#FFFFFF" d="M203.573,341.942c0,0.88-0.319,1.565-0.957,2.058s-1.504,0.738-2.598,0.738
				c-1.185,0-2.096-0.152-2.734-0.458v-1.121c0.41,0.173,0.857,0.31,1.34,0.41s0.961,0.15,1.436,0.15c0.775,0,1.358-0.147,1.75-0.44
				c0.392-0.295,0.588-0.703,0.588-1.228c0-0.347-0.069-0.63-0.208-0.851c-0.139-0.222-0.372-0.426-0.697-0.612
				s-0.821-0.399-1.487-0.636c-0.93-0.332-1.594-0.727-1.993-1.183s-0.598-1.05-0.598-1.784c0-0.77,0.29-1.383,0.868-1.839
				s1.344-0.684,2.297-0.684c0.994,0,1.907,0.183,2.741,0.547l-0.362,1.012c-0.825-0.347-1.627-0.52-2.406-0.52
				c-0.615,0-1.096,0.132-1.442,0.396s-0.52,0.632-0.52,1.101c0,0.346,0.064,0.63,0.191,0.852c0.127,0.221,0.343,0.424,0.646,0.607
				c0.303,0.186,0.767,0.389,1.391,0.612c1.048,0.374,1.77,0.774,2.164,1.203S203.573,341.259,203.573,341.942z"/>
			<path fill="#FFFFFF" d="M214.894,341.942c0,0.88-0.319,1.565-0.957,2.058s-1.504,0.738-2.598,0.738
				c-1.185,0-2.096-0.152-2.734-0.458v-1.121c0.41,0.173,0.857,0.31,1.34,0.41s0.961,0.15,1.436,0.15c0.775,0,1.358-0.147,1.75-0.44
				c0.392-0.295,0.588-0.703,0.588-1.228c0-0.347-0.069-0.63-0.208-0.851c-0.139-0.222-0.372-0.426-0.697-0.612
				s-0.821-0.399-1.487-0.636c-0.93-0.332-1.594-0.727-1.993-1.183s-0.598-1.05-0.598-1.784c0-0.77,0.29-1.383,0.868-1.839
				s1.344-0.684,2.297-0.684c0.994,0,1.907,0.183,2.741,0.547l-0.362,1.012c-0.825-0.347-1.627-0.52-2.406-0.52
				c-0.615,0-1.096,0.132-1.442,0.396s-0.52,0.632-0.52,1.101c0,0.346,0.064,0.63,0.191,0.852c0.127,0.221,0.343,0.424,0.646,0.607
				c0.303,0.186,0.767,0.389,1.391,0.612c1.048,0.374,1.77,0.774,2.164,1.203S214.894,341.259,214.894,341.942z"/>
			<path fill="#FFFFFF" d="M222.509,344.602h-5.571v-9.994h5.571v1.032H218.1v3.22h4.143v1.025H218.1v3.678h4.409V344.602z"/>
			<path fill="#FFFFFF" d="M230.363,341.942c0,0.88-0.319,1.565-0.957,2.058s-1.504,0.738-2.598,0.738
				c-1.185,0-2.096-0.152-2.734-0.458v-1.121c0.41,0.173,0.857,0.31,1.34,0.41s0.961,0.15,1.436,0.15c0.775,0,1.358-0.147,1.75-0.44
				c0.392-0.295,0.588-0.703,0.588-1.228c0-0.347-0.069-0.63-0.208-0.851c-0.139-0.222-0.372-0.426-0.697-0.612
				s-0.821-0.399-1.487-0.636c-0.93-0.332-1.594-0.727-1.993-1.183s-0.598-1.05-0.598-1.784c0-0.77,0.29-1.383,0.868-1.839
				s1.344-0.684,2.297-0.684c0.994,0,1.907,0.183,2.741,0.547l-0.362,1.012c-0.825-0.347-1.627-0.52-2.406-0.52
				c-0.615,0-1.096,0.132-1.442,0.396s-0.52,0.632-0.52,1.101c0,0.346,0.064,0.63,0.191,0.852c0.127,0.221,0.343,0.424,0.646,0.607
				c0.303,0.186,0.767,0.389,1.391,0.612c1.048,0.374,1.77,0.774,2.164,1.203S230.363,341.259,230.363,341.942z"/>
			<path fill="#FFFFFF" d="M238.047,341.942c0,0.88-0.319,1.565-0.957,2.058s-1.504,0.738-2.598,0.738
				c-1.185,0-2.096-0.152-2.734-0.458v-1.121c0.41,0.173,0.857,0.31,1.34,0.41s0.961,0.15,1.436,0.15c0.775,0,1.358-0.147,1.75-0.44
				c0.392-0.295,0.588-0.703,0.588-1.228c0-0.347-0.069-0.63-0.208-0.851c-0.139-0.222-0.372-0.426-0.697-0.612
				s-0.821-0.399-1.487-0.636c-0.93-0.332-1.594-0.727-1.993-1.183s-0.598-1.05-0.598-1.784c0-0.77,0.29-1.383,0.868-1.839
				s1.344-0.684,2.297-0.684c0.994,0,1.907,0.183,2.741,0.547l-0.362,1.012c-0.825-0.347-1.627-0.52-2.406-0.52
				c-0.615,0-1.096,0.132-1.442,0.396s-0.52,0.632-0.52,1.101c0,0.346,0.064,0.63,0.191,0.852c0.127,0.221,0.343,0.424,0.646,0.607
				c0.303,0.186,0.767,0.389,1.391,0.612c1.048,0.374,1.77,0.774,2.164,1.203S238.047,341.259,238.047,341.942z"/>
			<path fill="#FFFFFF" d="M240.091,344.602v-9.994h1.162v9.994H240.091z"/>
			<path fill="#FFFFFF" d="M252.669,339.591c0,1.6-0.404,2.857-1.213,3.773s-1.934,1.374-3.374,1.374
				c-1.472,0-2.608-0.45-3.408-1.35c-0.8-0.9-1.2-2.171-1.2-3.812c0-1.627,0.401-2.888,1.203-3.784
				c0.802-0.895,1.941-1.343,3.418-1.343c1.436,0,2.557,0.456,3.363,1.367S252.669,337.986,252.669,339.591z M244.705,339.591
				c0,1.354,0.288,2.38,0.865,3.079c0.577,0.7,1.414,1.05,2.512,1.05c1.107,0,1.944-0.349,2.509-1.046s0.848-1.725,0.848-3.083
				c0-1.345-0.281-2.364-0.844-3.06c-0.563-0.694-1.396-1.042-2.499-1.042c-1.107,0-1.949,0.35-2.526,1.05
				C244.993,337.238,244.705,338.256,244.705,339.591z"/>
			<path fill="#FFFFFF" d="M262.704,344.602h-1.326l-5.462-8.388h-0.055c0.073,0.984,0.109,1.887,0.109,2.707v5.681h-1.073v-9.994
				h1.312l5.448,8.354h0.055c-0.009-0.123-0.03-0.519-0.062-1.186c-0.032-0.668-0.043-1.146-0.034-1.433v-5.735h1.087V344.602z"/>
			<path fill="#FFFFFF" d="M271.092,341.942c0,0.88-0.319,1.565-0.957,2.058s-1.504,0.738-2.598,0.738
				c-1.185,0-2.096-0.152-2.734-0.458v-1.121c0.41,0.173,0.857,0.31,1.34,0.41s0.961,0.15,1.436,0.15c0.775,0,1.358-0.147,1.75-0.44
				c0.392-0.295,0.588-0.703,0.588-1.228c0-0.347-0.069-0.63-0.208-0.851c-0.139-0.222-0.372-0.426-0.697-0.612
				s-0.821-0.399-1.487-0.636c-0.93-0.332-1.594-0.727-1.993-1.183s-0.598-1.05-0.598-1.784c0-0.77,0.29-1.383,0.868-1.839
				s1.344-0.684,2.297-0.684c0.994,0,1.907,0.183,2.741,0.547l-0.362,1.012c-0.825-0.347-1.627-0.52-2.406-0.52
				c-0.615,0-1.096,0.132-1.442,0.396s-0.52,0.632-0.52,1.101c0,0.346,0.064,0.63,0.191,0.852c0.127,0.221,0.343,0.424,0.646,0.607
				c0.303,0.186,0.767,0.389,1.391,0.612c1.048,0.374,1.77,0.774,2.164,1.203S271.092,341.259,271.092,341.942z"/>
			<path fill="#FFFFFF" d="M280.396,334.607l-3.726,9.994h-1.135l3.726-9.994H280.396z"/>
			<path fill="#FFFFFF" d="M294.272,344.602h-1.148l-2.017-6.692c-0.096-0.296-0.203-0.67-0.321-1.121s-0.18-0.722-0.185-0.813
				c-0.1,0.602-0.26,1.26-0.479,1.976l-1.955,6.651h-1.148l-2.659-9.994h1.23l1.579,6.173c0.219,0.866,0.378,1.649,0.479,2.352
				c0.123-0.834,0.305-1.649,0.547-2.447l1.791-6.077h1.23l1.88,6.132c0.219,0.706,0.403,1.504,0.554,2.393
				c0.086-0.647,0.25-1.436,0.492-2.365l1.572-6.159h1.23L294.272,344.602z"/>
			<path fill="#FFFFFF" d="M307.186,339.591c0,1.6-0.404,2.857-1.213,3.773s-1.934,1.374-3.374,1.374
				c-1.472,0-2.608-0.45-3.408-1.35c-0.8-0.9-1.2-2.171-1.2-3.812c0-1.627,0.401-2.888,1.203-3.784
				c0.802-0.895,1.941-1.343,3.418-1.343c1.436,0,2.557,0.456,3.363,1.367S307.186,337.986,307.186,339.591z M299.222,339.591
				c0,1.354,0.288,2.38,0.865,3.079c0.577,0.7,1.414,1.05,2.512,1.05c1.107,0,1.944-0.349,2.509-1.046s0.848-1.725,0.848-3.083
				c0-1.345-0.281-2.364-0.844-3.06c-0.563-0.694-1.396-1.042-2.499-1.042c-1.107,0-1.949,0.35-2.526,1.05
				C299.51,337.238,299.222,338.256,299.222,339.591z"/>
			<path fill="#FFFFFF" d="M310.576,340.445v4.156h-1.162v-9.994h2.741c1.226,0,2.132,0.234,2.717,0.704s0.878,1.176,0.878,2.119
				c0,1.321-0.67,2.215-2.01,2.68l2.714,4.491h-1.374l-2.42-4.156H310.576z M310.576,339.447h1.593c0.82,0,1.422-0.163,1.805-0.488
				c0.383-0.326,0.574-0.814,0.574-1.467c0-0.66-0.195-1.137-0.584-1.429s-1.015-0.438-1.876-0.438h-1.511V339.447z"/>
			<path fill="#FFFFFF" d="M325.287,344.602h-1.367l-3.644-4.847l-1.046,0.93v3.917h-1.162v-9.994h1.162v4.956l4.532-4.956h1.374
				l-4.02,4.341L325.287,344.602z"/>
			<path fill="#FFFFFF" d="M332.301,341.942c0,0.88-0.319,1.565-0.957,2.058s-1.504,0.738-2.598,0.738
				c-1.185,0-2.096-0.152-2.734-0.458v-1.121c0.41,0.173,0.857,0.31,1.34,0.41s0.961,0.15,1.436,0.15c0.775,0,1.358-0.147,1.75-0.44
				c0.392-0.295,0.588-0.703,0.588-1.228c0-0.347-0.069-0.63-0.208-0.851c-0.139-0.222-0.372-0.426-0.697-0.612
				s-0.821-0.399-1.487-0.636c-0.93-0.332-1.594-0.727-1.993-1.183s-0.598-1.05-0.598-1.784c0-0.77,0.29-1.383,0.868-1.839
				s1.344-0.684,2.297-0.684c0.994,0,1.907,0.183,2.741,0.547l-0.362,1.012c-0.825-0.347-1.627-0.52-2.406-0.52
				c-0.615,0-1.096,0.132-1.442,0.396s-0.52,0.632-0.52,1.101c0,0.346,0.064,0.63,0.191,0.852c0.127,0.221,0.343,0.424,0.646,0.607
				c0.303,0.186,0.767,0.389,1.391,0.612c1.048,0.374,1.77,0.774,2.164,1.203S332.301,341.259,332.301,341.942z"/>
			<path fill="#FFFFFF" d="M341.933,344.602h-1.162v-4.703h-5.264v4.703h-1.162v-9.994h1.162v4.252h5.264v-4.252h1.162V344.602z"/>
			<path fill="#FFFFFF" d="M353.349,339.591c0,1.6-0.404,2.857-1.213,3.773s-1.934,1.374-3.374,1.374
				c-1.472,0-2.608-0.45-3.408-1.35c-0.8-0.9-1.2-2.171-1.2-3.812c0-1.627,0.401-2.888,1.203-3.784
				c0.802-0.895,1.941-1.343,3.418-1.343c1.436,0,2.557,0.456,3.363,1.367S353.349,337.986,353.349,339.591z M345.385,339.591
				c0,1.354,0.288,2.38,0.865,3.079c0.577,0.7,1.414,1.05,2.512,1.05c1.107,0,1.944-0.349,2.509-1.046s0.848-1.725,0.848-3.083
				c0-1.345-0.281-2.364-0.844-3.06c-0.563-0.694-1.396-1.042-2.499-1.042c-1.107,0-1.949,0.35-2.526,1.05
				C345.673,337.238,345.385,338.256,345.385,339.591z"/>
			<path fill="#FFFFFF" d="M361.914,337.52c0,1.012-0.345,1.79-1.036,2.334c-0.69,0.545-1.678,0.817-2.963,0.817h-1.176v3.931
				h-1.162v-9.994h2.591C360.666,334.607,361.914,335.578,361.914,337.52z M356.739,339.673h1.046c1.03,0,1.775-0.167,2.235-0.499
				s0.69-0.865,0.69-1.6c0-0.66-0.216-1.152-0.649-1.477s-1.107-0.485-2.023-0.485h-1.299V339.673z"/>
			<path fill="#FFFFFF" d="M369.646,341.942c0,0.88-0.319,1.565-0.957,2.058s-1.504,0.738-2.598,0.738
				c-1.185,0-2.096-0.152-2.734-0.458v-1.121c0.41,0.173,0.857,0.31,1.34,0.41s0.961,0.15,1.436,0.15c0.775,0,1.358-0.147,1.75-0.44
				c0.392-0.295,0.588-0.703,0.588-1.228c0-0.347-0.069-0.63-0.208-0.851c-0.139-0.222-0.372-0.426-0.697-0.612
				s-0.821-0.399-1.487-0.636c-0.93-0.332-1.594-0.727-1.993-1.183s-0.598-1.05-0.598-1.784c0-0.77,0.29-1.383,0.868-1.839
				s1.344-0.684,2.297-0.684c0.994,0,1.907,0.183,2.741,0.547l-0.362,1.012c-0.825-0.347-1.627-0.52-2.406-0.52
				c-0.615,0-1.096,0.132-1.442,0.396s-0.52,0.632-0.52,1.101c0,0.346,0.064,0.63,0.191,0.852c0.127,0.221,0.343,0.424,0.646,0.607
				c0.303,0.186,0.767,0.389,1.391,0.612c1.048,0.374,1.77,0.774,2.164,1.203S369.646,341.259,369.646,341.942z"/>
		</g>
	</g>
	<g>
		<rect x="203" y="365" fill="#30739C" width="397" height="37"/>
		<g>
			<path fill="#FFFFFF" d="M356.468,382.509c0,1.649-0.448,2.911-1.343,3.784c-0.896,0.872-2.184,1.309-3.866,1.309h-2.769v-9.994
				h3.062c1.554,0,2.762,0.431,3.623,1.292S356.468,380.964,356.468,382.509z M355.238,382.55c0-1.304-0.327-2.286-0.981-2.946
				s-1.626-0.991-2.916-0.991h-1.688v7.984h1.415c1.385,0,2.427-0.341,3.124-1.022C354.889,384.894,355.238,383.885,355.238,382.55z
				"/>
			<path fill="#FFFFFF" d="M364.268,387.602h-5.571v-9.994h5.571v1.032h-4.409v3.22h4.143v1.025h-4.143v3.678h4.409V387.602z"/>
			<path fill="#FFFFFF" d="M372.123,384.942c0,0.88-0.319,1.565-0.957,2.058s-1.504,0.738-2.598,0.738
				c-1.185,0-2.096-0.152-2.734-0.458v-1.121c0.41,0.173,0.857,0.31,1.34,0.41s0.961,0.15,1.436,0.15c0.775,0,1.358-0.147,1.75-0.44
				c0.392-0.295,0.588-0.703,0.588-1.228c0-0.347-0.069-0.63-0.208-0.851c-0.139-0.222-0.372-0.426-0.697-0.612
				s-0.821-0.399-1.487-0.636c-0.93-0.332-1.594-0.727-1.993-1.183s-0.598-1.05-0.598-1.784c0-0.77,0.29-1.383,0.868-1.839
				s1.344-0.684,2.297-0.684c0.994,0,1.907,0.183,2.741,0.547l-0.362,1.012c-0.825-0.347-1.627-0.52-2.406-0.52
				c-0.615,0-1.096,0.132-1.442,0.396s-0.52,0.632-0.52,1.101c0,0.346,0.064,0.63,0.191,0.852c0.127,0.221,0.343,0.424,0.646,0.607
				c0.303,0.186,0.767,0.389,1.391,0.612c1.048,0.374,1.77,0.774,2.164,1.203S372.123,384.259,372.123,384.942z"/>
			<path fill="#FFFFFF" d="M374.167,387.602v-9.994h1.162v9.994H374.167z"/>
			<path fill="#FFFFFF" d="M382.465,382.365h3.397v4.86c-0.529,0.169-1.066,0.296-1.613,0.383s-1.18,0.13-1.9,0.13
				c-1.513,0-2.691-0.45-3.534-1.35c-0.843-0.9-1.265-2.162-1.265-3.784c0-1.039,0.208-1.949,0.625-2.731
				c0.417-0.781,1.018-1.378,1.801-1.791c0.784-0.412,1.702-0.618,2.755-0.618c1.066,0,2.06,0.196,2.98,0.588l-0.451,1.025
				c-0.902-0.383-1.771-0.574-2.604-0.574c-1.217,0-2.167,0.362-2.851,1.087s-1.025,1.729-1.025,3.015
				c0,1.349,0.329,2.372,0.988,3.069s1.626,1.046,2.902,1.046c0.693,0,1.37-0.08,2.03-0.239v-3.076h-2.235V382.365z"/>
			<path fill="#FFFFFF" d="M396.069,387.602h-1.326l-5.462-8.388h-0.055c0.073,0.984,0.109,1.887,0.109,2.707v5.681h-1.073v-9.994
				h1.312l5.448,8.354h0.055c-0.009-0.123-0.03-0.519-0.062-1.186c-0.032-0.668-0.043-1.146-0.034-1.433v-5.735h1.087V387.602z"/>
			<path fill="#FFFFFF" d="M408.094,384.942c0,0.88-0.319,1.565-0.957,2.058c-0.639,0.492-1.504,0.738-2.598,0.738
				c-1.186,0-2.097-0.152-2.734-0.458v-1.121c0.41,0.173,0.856,0.31,1.34,0.41c0.482,0.101,0.961,0.15,1.436,0.15
				c0.774,0,1.357-0.147,1.75-0.44c0.392-0.295,0.588-0.703,0.588-1.228c0-0.347-0.07-0.63-0.209-0.851
				c-0.139-0.222-0.371-0.426-0.697-0.612s-0.821-0.399-1.486-0.636c-0.93-0.332-1.594-0.727-1.993-1.183s-0.599-1.05-0.599-1.784
				c0-0.77,0.29-1.383,0.869-1.839c0.578-0.456,1.344-0.684,2.297-0.684c0.993,0,1.906,0.183,2.74,0.547l-0.361,1.012
				c-0.825-0.347-1.627-0.52-2.406-0.52c-0.615,0-1.097,0.132-1.443,0.396c-0.346,0.265-0.52,0.632-0.52,1.101
				c0,0.346,0.064,0.63,0.191,0.852c0.128,0.221,0.344,0.424,0.646,0.607c0.303,0.186,0.767,0.389,1.391,0.612
				c1.049,0.374,1.77,0.774,2.164,1.203S408.094,384.259,408.094,384.942z"/>
			<path fill="#FFFFFF" d="M417.684,377.607v6.467c0,1.14-0.344,2.035-1.031,2.687c-0.688,0.651-1.635,0.978-2.838,0.978
				s-2.133-0.328-2.792-0.984s-0.987-1.559-0.987-2.707v-6.439h1.162v6.521c0,0.834,0.228,1.475,0.684,1.921
				c0.455,0.446,1.125,0.67,2.01,0.67c0.843,0,1.492-0.225,1.947-0.673c0.456-0.449,0.684-1.093,0.684-1.932v-6.508H417.684z"/>
			<path fill="#FFFFFF" d="M424.752,387.602l-3.391-8.859h-0.055c0.064,0.701,0.096,1.535,0.096,2.502v6.357h-1.072v-9.994h1.75
				l3.164,8.244h0.055l3.193-8.244h1.736v9.994h-1.162v-6.439c0-0.738,0.031-1.541,0.096-2.406h-0.055l-3.418,8.846H424.752z"/>
			<path fill="#FFFFFF" d="M437.393,387.602l-3.391-8.859h-0.055c0.063,0.701,0.096,1.535,0.096,2.502v6.357h-1.074v-9.994h1.75
				l3.166,8.244h0.055l3.191-8.244h1.736v9.994h-1.162v-6.439c0-0.738,0.032-1.541,0.096-2.406h-0.055l-3.418,8.846H437.393z"/>
			<path fill="#FFFFFF" d="M445.609,387.602v-9.994h1.162v9.994H445.609z"/>
			<path fill="#FFFFFF" d="M452.588,387.602h-1.162v-8.962h-3.164v-1.032h7.492v1.032h-3.166V387.602z"/>
		</g>
	</g>
	<g>
		<rect x="9" y="236" fill="#30739C" width="90.5" height="166"/>
		<g>
			<path fill="#FFFFFF" d="M49.798,359.898v2.086h-9.995v-5.729h1.736v3.643h2.577v-3.391h1.73v3.391H49.798z"/>
			<path fill="#FFFFFF" d="M39.804,346.166h6.467c0.738,0,1.386,0.164,1.941,0.495s0.982,0.808,1.278,1.433
				c0.296,0.624,0.444,1.362,0.444,2.215c0,1.285-0.329,2.283-0.988,2.994c-0.658,0.711-1.56,1.066-2.703,1.066h-6.44v-2.113h6.119
				c0.771,0,1.335-0.154,1.695-0.465c0.36-0.31,0.54-0.822,0.54-1.537c0-0.693-0.182-1.195-0.543-1.508
				c-0.363-0.312-0.932-0.469-1.706-0.469h-6.105V346.166z"/>
			<path fill="#FFFFFF" d="M49.798,343.719h-9.995V341.6h8.245v-4.055h1.75V343.719z"/>
			<path fill="#FFFFFF" d="M49.798,335.809h-9.995v-2.119h8.245v-4.053h1.75V335.809z"/>
			<path fill="#FFFFFF" d="M49.798,318.145l-2.379,0.725v3.645l2.379,0.725v2.283l-10.036-3.527v-2.592l10.036-3.541V318.145z
				 M45.642,319.375c-2.156,0.67-3.375,1.047-3.657,1.132s-0.506,0.145-0.67,0.181c0.583,0.15,2.026,0.582,4.327,1.293V319.375z"/>
			<path fill="#FFFFFF" d="M41.424,310.359c0,0.797,0.3,1.414,0.899,1.852s1.435,0.656,2.505,0.656c2.229,0,3.343-0.836,3.343-2.508
				c0-0.702-0.176-1.553-0.526-2.551h1.777c0.342,0.82,0.513,1.736,0.513,2.748c0,1.454-0.441,2.566-1.322,3.336
				c-0.883,0.771-2.148,1.156-3.798,1.156c-1.039,0-1.949-0.189-2.731-0.568c-0.782-0.378-1.381-0.922-1.798-1.63
				s-0.625-1.539-0.625-2.491c0-0.971,0.235-1.946,0.704-2.926l1.723,0.684c-0.178,0.373-0.333,0.749-0.465,1.127
				C41.49,309.623,41.424,309.994,41.424,310.359z"/>
			<path fill="#FFFFFF" d="M41.424,301.438c0,0.798,0.3,1.416,0.899,1.854s1.435,0.656,2.505,0.656c2.229,0,3.343-0.837,3.343-2.51
				c0-0.701-0.176-1.551-0.526-2.549h1.777c0.342,0.82,0.513,1.736,0.513,2.748c0,1.453-0.441,2.565-1.322,3.336
				c-0.883,0.77-2.148,1.154-3.798,1.154c-1.039,0-1.949-0.188-2.731-0.566c-0.782-0.379-1.381-0.922-1.798-1.631
				s-0.625-1.539-0.625-2.492c0-0.971,0.235-1.945,0.704-2.926l1.723,0.684c-0.178,0.374-0.333,0.75-0.465,1.129
				C41.49,300.702,41.424,301.073,41.424,301.438z"/>
			<path fill="#FFFFFF" d="M49.798,291.006v5.756h-9.995v-5.756h1.736v3.637h2.194v-3.383h1.736v3.383h2.578v-3.637H49.798z"/>
			<path fill="#FFFFFF" d="M47.023,283.021c0.902,0,1.613,0.325,2.133,0.975s0.779,1.553,0.779,2.711c0,1.066-0.2,2.01-0.602,2.83
				h-1.969c0.301-0.675,0.513-1.246,0.636-1.713s0.185-0.895,0.185-1.281c0-0.465-0.089-0.822-0.267-1.07s-0.442-0.373-0.793-0.373
				c-0.196,0-0.37,0.055-0.522,0.164c-0.153,0.109-0.3,0.271-0.441,0.482s-0.367,0.644-0.677,1.295
				c-0.287,0.611-0.563,1.069-0.827,1.375c-0.264,0.305-0.572,0.549-0.923,0.73c-0.351,0.183-0.761,0.273-1.23,0.273
				c-0.884,0-1.579-0.299-2.085-0.898s-0.759-1.428-0.759-2.484c0-0.52,0.062-1.016,0.185-1.487s0.296-0.965,0.52-1.479l1.647,0.684
				c-0.219,0.533-0.372,0.974-0.458,1.322s-0.13,0.691-0.13,1.029c0,0.4,0.093,0.708,0.28,0.922
				c0.187,0.215,0.431,0.322,0.731,0.322c0.187,0,0.35-0.044,0.489-0.131c0.139-0.086,0.273-0.225,0.403-0.413
				s0.363-0.637,0.701-1.343c0.447-0.935,0.895-1.575,1.343-1.922C45.821,283.195,46.372,283.021,47.023,283.021z"/>
			<path fill="#FFFFFF" d="M47.023,275.311c0.902,0,1.613,0.325,2.133,0.975s0.779,1.553,0.779,2.711c0,1.066-0.2,2.01-0.602,2.83
				h-1.969c0.301-0.675,0.513-1.246,0.636-1.713s0.185-0.895,0.185-1.281c0-0.465-0.089-0.822-0.267-1.07s-0.442-0.373-0.793-0.373
				c-0.196,0-0.37,0.055-0.522,0.164c-0.153,0.109-0.3,0.271-0.441,0.482s-0.367,0.644-0.677,1.295
				c-0.287,0.611-0.563,1.069-0.827,1.375c-0.264,0.305-0.572,0.549-0.923,0.73c-0.351,0.183-0.761,0.273-1.23,0.273
				c-0.884,0-1.579-0.299-2.085-0.898s-0.759-1.428-0.759-2.484c0-0.52,0.062-1.016,0.185-1.487s0.296-0.965,0.52-1.479l1.647,0.684
				c-0.219,0.533-0.372,0.974-0.458,1.322s-0.13,0.691-0.13,1.029c0,0.4,0.093,0.708,0.28,0.922
				c0.187,0.215,0.431,0.322,0.731,0.322c0.187,0,0.35-0.044,0.489-0.131c0.139-0.086,0.273-0.225,0.403-0.413
				s0.363-0.637,0.701-1.343c0.447-0.935,0.895-1.575,1.343-1.922C45.821,275.484,46.372,275.311,47.023,275.311z"/>
			<path fill="#FFFFFF" d="M59.721,327.773c1.075,0,1.898,0.336,2.468,1.008c0.569,0.673,0.854,1.629,0.854,2.868v0.909h3.555v2.119
				h-9.994v-3.192c0-1.212,0.261-2.134,0.783-2.765C57.909,328.089,58.687,327.773,59.721,327.773z M61.307,332.559v-0.697
				c0-0.652-0.129-1.139-0.387-1.463c-0.257-0.324-0.632-0.485-1.124-0.485c-0.497,0-0.863,0.136-1.101,0.407
				c-0.237,0.271-0.355,0.695-0.355,1.274v0.964H61.307z"/>
			<path fill="#FFFFFF" d="M66.598,319.769l-2.379,0.725v3.644l2.379,0.725v2.283l-10.035-3.527v-2.591l10.035-3.541V319.769z
				 M62.442,320.999c-2.155,0.67-3.375,1.047-3.657,1.132c-0.282,0.084-0.506,0.145-0.67,0.181c0.583,0.15,2.025,0.581,4.327,1.292
				V320.999z"/>
			<path fill="#FFFFFF" d="M63.823,310.328c0.902,0,1.613,0.324,2.133,0.975c0.52,0.648,0.779,1.553,0.779,2.71
				c0,1.066-0.2,2.01-0.602,2.83h-1.969c0.301-0.675,0.513-1.245,0.636-1.712c0.123-0.468,0.185-0.895,0.185-1.282
				c0-0.465-0.089-0.821-0.267-1.069c-0.178-0.249-0.442-0.373-0.793-0.373c-0.196,0-0.37,0.055-0.522,0.164
				c-0.153,0.109-0.3,0.27-0.441,0.482c-0.142,0.211-0.367,0.643-0.677,1.295c-0.287,0.611-0.562,1.068-0.827,1.374
				s-0.572,0.55-0.923,0.731s-0.761,0.273-1.23,0.273c-0.884,0-1.579-0.3-2.085-0.898c-0.506-0.6-0.759-1.428-0.759-2.485
				c0-0.52,0.062-1.015,0.185-1.487c0.123-0.471,0.296-0.965,0.52-1.479l1.647,0.684c-0.219,0.533-0.371,0.974-0.458,1.323
				c-0.087,0.348-0.13,0.691-0.13,1.028c0,0.401,0.094,0.708,0.28,0.923s0.431,0.321,0.731,0.321c0.187,0,0.35-0.044,0.489-0.13
				c0.139-0.086,0.273-0.225,0.402-0.414c0.131-0.188,0.364-0.637,0.701-1.343c0.446-0.935,0.895-1.575,1.344-1.921
				C62.621,310.502,63.171,310.328,63.823,310.328z"/>
			<path fill="#FFFFFF" d="M63.823,302.617c0.902,0,1.613,0.324,2.133,0.975c0.52,0.648,0.779,1.553,0.779,2.71
				c0,1.066-0.2,2.01-0.602,2.83h-1.969c0.301-0.675,0.513-1.245,0.636-1.712c0.123-0.468,0.185-0.895,0.185-1.282
				c0-0.465-0.089-0.821-0.267-1.069c-0.178-0.249-0.442-0.373-0.793-0.373c-0.196,0-0.37,0.055-0.522,0.164
				c-0.153,0.109-0.3,0.27-0.441,0.482c-0.142,0.211-0.367,0.643-0.677,1.295c-0.287,0.611-0.562,1.068-0.827,1.374
				s-0.572,0.55-0.923,0.731s-0.761,0.273-1.23,0.273c-0.884,0-1.579-0.3-2.085-0.898c-0.506-0.6-0.759-1.428-0.759-2.485
				c0-0.52,0.062-1.015,0.185-1.487c0.123-0.471,0.296-0.965,0.52-1.479l1.647,0.684c-0.219,0.533-0.371,0.974-0.458,1.323
				c-0.087,0.348-0.13,0.691-0.13,1.028c0,0.401,0.094,0.708,0.28,0.923s0.431,0.321,0.731,0.321c0.187,0,0.35-0.044,0.489-0.13
				c0.139-0.086,0.273-0.225,0.402-0.414c0.131-0.188,0.364-0.637,0.701-1.343c0.446-0.935,0.895-1.575,1.344-1.921
				C62.621,302.791,63.171,302.617,63.823,302.617z"/>
		</g>
	</g>
	<line fill="#888888" stroke="#888888" stroke-miterlimit="10" x1="203" y1="10" x2="203" y2="31"/>
	<line fill="#888888" stroke="#888888" stroke-miterlimit="10" x1="302" y1="10" x2="302" y2="31"/>
	<line fill="#888888" stroke="#888888" stroke-miterlimit="10" x1="402" y1="10" x2="402" y2="31"/>
	<line fill="#888888" stroke="#888888" stroke-miterlimit="10" x1="502" y1="10" x2="502" y2="31"/>
	<g>
		<rect x="106" y="51" fill="#F15D22" width="198" height="37"/>
		<g>
			<path fill="#FFFFFF" d="M179.146,73.602h-1.367l-3.644-4.847l-1.046,0.93v3.917h-1.162v-9.994h1.162v4.956l4.532-4.956h1.374
				l-4.02,4.341L179.146,73.602z"/>
			<path fill="#FFFFFF" d="M186.092,73.602h-5.571v-9.994h5.571v1.032h-4.409v3.22h4.143v1.025h-4.143v3.678h4.409V73.602z"/>
			<path fill="#FFFFFF" d="M190.85,68.604l2.666-4.997h1.258l-3.336,6.118v3.876h-1.176V69.78l-3.329-6.173h1.271L190.85,68.604z"/>
			<path fill="#FFFFFF" d="M203.954,73.602h-1.326l-5.462-8.388h-0.055c0.073,0.984,0.109,1.887,0.109,2.707v5.681h-1.073v-9.994
				h1.312l5.448,8.354h0.055c-0.009-0.123-0.03-0.519-0.062-1.186c-0.032-0.668-0.043-1.146-0.034-1.433v-5.735h1.087V73.602z"/>
			<path fill="#FFFFFF" d="M215.377,68.591c0,1.6-0.404,2.857-1.213,3.773s-1.934,1.374-3.374,1.374c-1.472,0-2.608-0.45-3.408-1.35
				c-0.8-0.9-1.2-2.171-1.2-3.812c0-1.627,0.401-2.888,1.203-3.784s1.941-1.343,3.418-1.343c1.436,0,2.557,0.456,3.363,1.367
				S215.377,66.987,215.377,68.591z M207.413,68.591c0,1.354,0.288,2.38,0.865,3.079c0.577,0.7,1.414,1.05,2.512,1.05
				c1.107,0,1.944-0.349,2.509-1.046s0.848-1.725,0.848-3.083c0-1.344-0.281-2.364-0.844-3.059s-1.396-1.042-2.499-1.042
				c-1.107,0-1.949,0.35-2.526,1.049S207.413,67.255,207.413,68.591z"/>
			<path fill="#FFFFFF" d="M220.682,73.602h-1.162V64.64h-3.165v-1.032h7.492v1.032h-3.165V73.602z"/>
			<path fill="#FFFFFF" d="M230.922,73.602h-5.571v-9.994h5.571v1.032h-4.409v3.22h4.143v1.025h-4.143v3.678h4.409V73.602z"/>
			<path fill="#FFFFFF" d="M238.776,70.942c0,0.88-0.319,1.565-0.957,2.058s-1.504,0.738-2.598,0.738
				c-1.185,0-2.096-0.152-2.734-0.458v-1.121c0.41,0.173,0.857,0.31,1.34,0.41s0.961,0.15,1.436,0.15c0.775,0,1.358-0.147,1.75-0.44
				c0.392-0.295,0.588-0.703,0.588-1.228c0-0.347-0.069-0.63-0.208-0.851c-0.139-0.222-0.372-0.426-0.697-0.612
				c-0.326-0.187-0.821-0.399-1.487-0.636c-0.93-0.333-1.594-0.727-1.993-1.183s-0.598-1.05-0.598-1.784
				c0-0.77,0.29-1.383,0.868-1.839s1.344-0.684,2.297-0.684c0.994,0,1.907,0.182,2.741,0.547l-0.362,1.012
				c-0.825-0.346-1.627-0.52-2.406-0.52c-0.615,0-1.096,0.132-1.442,0.396s-0.52,0.631-0.52,1.101c0,0.346,0.064,0.63,0.191,0.851
				s0.343,0.424,0.646,0.608s0.767,0.389,1.391,0.612c1.048,0.374,1.77,0.775,2.164,1.203
				C238.579,69.703,238.776,70.259,238.776,70.942z"/>
		</g>
	</g>
	<g>
		<rect x="106" y="94" fill="#F15D22" width="298" height="37"/>
		<g>
			<path fill="#FFFFFF" d="M225.667,116.602h-5.571v-9.994h5.571v1.032h-4.409v3.22h4.143v1.025h-4.143v3.678h4.409V116.602z"/>
			<path fill="#FFFFFF" d="M234.533,116.602h-1.319l-2.687-4.396l-2.734,4.396h-1.23l3.322-5.223l-3.097-4.771h1.285l2.481,3.958
				l2.502-3.958h1.237l-3.097,4.73L234.533,116.602z"/>
			<path fill="#FFFFFF" d="M242.299,109.52c0,1.012-0.345,1.79-1.036,2.334s-1.678,0.817-2.963,0.817h-1.176v3.931h-1.162v-9.994
				h2.591C241.05,106.607,242.299,107.578,242.299,109.52z M237.124,111.673h1.046c1.03,0,1.775-0.167,2.235-0.499
				s0.69-0.866,0.69-1.6c0-0.661-0.216-1.153-0.649-1.477s-1.107-0.485-2.023-0.485h-1.299V111.673z"/>
			<path fill="#FFFFFF" d="M253.065,111.591c0,1.6-0.404,2.857-1.213,3.773s-1.934,1.374-3.374,1.374
				c-1.472,0-2.608-0.45-3.408-1.35c-0.8-0.9-1.2-2.171-1.2-3.812c0-1.627,0.401-2.888,1.203-3.784s1.941-1.343,3.418-1.343
				c1.436,0,2.557,0.456,3.363,1.367S253.065,109.987,253.065,111.591z M245.102,111.591c0,1.354,0.288,2.38,0.865,3.079
				c0.577,0.7,1.414,1.05,2.512,1.05c1.107,0,1.944-0.349,2.509-1.046s0.848-1.725,0.848-3.083c0-1.344-0.281-2.364-0.844-3.059
				s-1.396-1.042-2.499-1.042c-1.107,0-1.949,0.35-2.526,1.049S245.102,110.255,245.102,111.591z"/>
			<path fill="#FFFFFF" d="M266.519,116.602h-1.162v-4.703h-5.264v4.703h-1.162v-9.994h1.162v4.252h5.264v-4.252h1.162V116.602z"/>
			<path fill="#FFFFFF" d="M275.542,116.602l-1.244-3.179h-4.006l-1.23,3.179h-1.176l3.951-10.035h0.978l3.931,10.035H275.542z
				 M273.936,112.377l-1.162-3.097c-0.15-0.392-0.305-0.873-0.465-1.442c-0.1,0.438-0.244,0.918-0.431,1.442l-1.176,3.097H273.936z"
				/>
			<path fill="#FFFFFF" d="M278.119,116.602v-9.994h1.162v8.941h4.409v1.053H278.119z"/>
			<path fill="#FFFFFF" d="M285.386,116.602v-9.994h1.162v8.941h4.409v1.053H285.386z"/>
		</g>
	</g>
	<g>
		<g>
			<polygon fill="#DEDDDD" points="405,175 402,175 402,173 403,173 403,172 405,172 			"/>
			<path fill="#DEDDDD" d="M397.973,175h-4.027v-2h4.027V175z M389.918,175h-4.027v-2h4.027V175z M381.863,175h-4.028v-2h4.028V175z
				 M373.808,175h-4.027v-2h4.027V175z M365.753,175h-4.027v-2h4.027V175z M357.699,175h-4.027v-2h4.027V175z M349.644,175h-4.027
				v-2h4.027V175z M341.589,175h-4.027v-2h4.027V175z M333.534,175h-4.027v-2h4.027V175z M325.479,175h-4.027v-2h4.027V175z
				 M317.425,175h-4.027v-2h4.027V175z M309.37,175h-4.028v-2h4.028V175z M301.315,175h-4.027v-2h4.027V175z M293.26,175h-4.027v-2
				h4.027V175z M285.206,175h-4.027v-2h4.027V175z M277.151,175h-4.027v-2h4.027V175z M269.096,175h-4.027v-2h4.027V175z
				 M261.041,175h-4.027v-2h4.027V175z M252.986,175h-4.027v-2h4.027V175z M244.932,175h-4.027v-2h4.027V175z M236.877,175h-4.028
				v-2h4.028V175z M228.822,175h-4.027v-2h4.027V175z M220.767,175h-4.027v-2h4.027V175z M212.712,175h-4.027v-2h4.027V175z
				 M204.658,175h-4.027v-2h4.027V175z M196.603,175h-4.028v-2h4.028V175z M188.548,175h-4.027v-2h4.027V175z M180.493,175h-4.027
				v-2h4.027V175z M172.438,175h-4.027v-2h4.027V175z M164.384,175h-4.027v-2h4.027V175z M156.329,175h-4.027v-2h4.027V175z
				 M148.274,175h-4.027v-2h4.027V175z M140.219,175h-4.027v-2h4.027V175z M132.165,175h-4.027v-2h4.027V175z M124.11,175h-4.027v-2
				h4.027V175z M116.055,175h-4.028v-2h4.028V175z"/>
			<polygon fill="#DEDDDD" points="108,175 105,175 105,172 107,172 107,173 108,173 			"/>
			<path fill="#DEDDDD" d="M107,168.333h-2v-3.667h2V168.333z M107,161h-2v-3.667h2V161z M107,153.667h-2V150h2V153.667z
				 M107,146.333h-2v-3.667h2V146.333z"/>
			<polygon fill="#DEDDDD" points="107,139 105,139 105,136 108,136 108,138 107,138 			"/>
			<path fill="#DEDDDD" d="M397.973,138h-4.028v-2h4.028V138z M389.917,138h-4.027v-2h4.027V138z M381.863,138h-4.027v-2h4.027V138z
				 M373.808,138h-4.027v-2h4.027V138z M365.753,138h-4.027v-2h4.027V138z M357.698,138h-4.027v-2h4.027V138z M349.644,138h-4.027
				v-2h4.027V138z M341.589,138h-4.027v-2h4.027V138z M333.534,138h-4.027v-2h4.027V138z M325.479,138h-4.027v-2h4.027V138z
				 M317.425,138h-4.028v-2h4.028V138z M309.37,138h-4.027v-2h4.027V138z M301.315,138h-4.027v-2h4.027V138z M293.26,138h-4.027v-2
				h4.027V138z M285.206,138h-4.027v-2h4.027V138z M277.151,138h-4.028v-2h4.028V138z M269.096,138h-4.027v-2h4.027V138z
				 M261.041,138h-4.027v-2h4.027V138z M252.986,138h-4.027v-2h4.027V138z M244.932,138h-4.027v-2h4.027V138z M236.876,138h-4.027
				v-2h4.027V138z M228.822,138h-4.027v-2h4.027V138z M220.767,138h-4.027v-2h4.027V138z M212.712,138h-4.027v-2h4.027V138z
				 M204.658,138h-4.028v-2h4.028V138z M196.603,138h-4.027v-2h4.027V138z M188.548,138h-4.027v-2h4.027V138z M180.493,138h-4.027
				v-2h4.027V138z M172.438,138h-4.027v-2h4.027V138z M164.383,138h-4.027v-2h4.027V138z M156.329,138h-4.027v-2h4.027V138z
				 M148.274,138h-4.027v-2h4.027V138z M140.219,138h-4.027v-2h4.027V138z M132.165,138h-4.028v-2h4.028V138z M124.109,138h-4.027
				v-2h4.027V138z M116.055,138h-4.027v-2h4.027V138z"/>
			<polygon fill="#DEDDDD" points="405,139 403,139 403,138 402,138 402,136 405,136 			"/>
			<path fill="#DEDDDD" d="M405,168.333h-2v-3.667h2V168.333z M405,161h-2v-3.667h2V161z M405,153.667h-2V150h2V153.667z
				 M405,146.333h-2v-3.667h2V146.333z"/>
		</g>
		<g>
			<g>
				<path fill="#DEDDDD" d="M213.287,159.602h-1.326l-5.462-8.388h-0.055c0.073,0.984,0.109,1.887,0.109,2.707v5.681h-1.073v-9.994
					h1.312l5.448,8.354h0.055c-0.009-0.123-0.03-0.519-0.062-1.186c-0.032-0.668-0.043-1.146-0.034-1.433v-5.735h1.087V159.602z"/>
				<path fill="#DEDDDD" d="M224.71,154.591c0,1.6-0.404,2.857-1.213,3.773s-1.934,1.374-3.374,1.374
					c-1.472,0-2.608-0.45-3.408-1.35c-0.8-0.9-1.2-2.171-1.2-3.812c0-1.627,0.401-2.888,1.203-3.784s1.941-1.343,3.418-1.343
					c1.436,0,2.557,0.456,3.363,1.367S224.71,152.987,224.71,154.591z M216.746,154.591c0,1.354,0.288,2.38,0.865,3.079
					c0.577,0.7,1.414,1.05,2.512,1.05c1.107,0,1.944-0.349,2.509-1.046s0.848-1.725,0.848-3.083c0-1.344-0.281-2.364-0.844-3.059
					s-1.396-1.042-2.499-1.042c-1.107,0-1.949,0.35-2.526,1.049S216.746,153.255,216.746,154.591z"/>
				<path fill="#DEDDDD" d="M230.015,159.602h-1.162v-8.962h-3.165v-1.032h7.492v1.032h-3.165V159.602z"/>
				<path fill="#DEDDDD" d="M238.32,159.602v-9.994h1.162v9.994H238.32z"/>
				<path fill="#DEDDDD" d="M250.03,159.602h-1.326l-5.462-8.388h-0.055c0.073,0.984,0.109,1.887,0.109,2.707v5.681h-1.073v-9.994
					h1.312l5.448,8.354h0.055c-0.009-0.123-0.03-0.519-0.062-1.186c-0.032-0.668-0.043-1.146-0.034-1.433v-5.735h1.087V159.602z"/>
				<path fill="#DEDDDD" d="M257.058,150.503c-1.098,0-1.965,0.366-2.601,1.097s-0.954,1.733-0.954,3.004
					c0,1.308,0.307,2.318,0.919,3.032c0.613,0.713,1.487,1.069,2.622,1.069c0.697,0,1.493-0.125,2.386-0.376v1.019
					c-0.693,0.26-1.547,0.39-2.563,0.39c-1.472,0-2.608-0.446-3.408-1.34s-1.2-2.162-1.2-3.808c0-1.03,0.192-1.932,0.578-2.707
					s0.941-1.372,1.668-1.791s1.583-0.629,2.567-0.629c1.048,0,1.964,0.191,2.748,0.574l-0.492,0.998
					C258.571,150.681,257.814,150.503,257.058,150.503z"/>
				<path fill="#DEDDDD" d="M261.61,159.602v-9.994h1.162v8.941h4.409v1.053H261.61z"/>
				<path fill="#DEDDDD" d="M276.424,149.607v6.467c0,1.14-0.344,2.035-1.032,2.687s-1.634,0.978-2.837,0.978
					s-2.134-0.328-2.792-0.984s-0.988-1.559-0.988-2.707v-6.439h1.162v6.521c0,0.834,0.228,1.475,0.684,1.921s1.125,0.67,2.01,0.67
					c0.843,0,1.493-0.225,1.948-0.673c0.456-0.449,0.684-1.093,0.684-1.932v-6.508H276.424z"/>
				<path fill="#DEDDDD" d="M287.047,154.509c0,1.649-0.448,2.911-1.343,3.784c-0.896,0.872-2.184,1.309-3.866,1.309h-2.769v-9.994
					h3.062c1.554,0,2.762,0.431,3.623,1.292S287.047,152.964,287.047,154.509z M285.816,154.55c0-1.303-0.327-2.286-0.981-2.946
					s-1.626-0.991-2.916-0.991h-1.688v7.984h1.415c1.385,0,2.427-0.341,3.124-1.022C285.468,156.894,285.816,155.885,285.816,154.55
					z"/>
				<path fill="#DEDDDD" d="M294.847,159.602h-5.571v-9.994h5.571v1.032h-4.409v3.22h4.143v1.025h-4.143v3.678h4.409V159.602z"/>
				<path fill="#DEDDDD" d="M305.039,154.509c0,1.649-0.448,2.911-1.343,3.784c-0.896,0.872-2.184,1.309-3.866,1.309h-2.769v-9.994
					h3.062c1.554,0,2.762,0.431,3.623,1.292S305.039,152.964,305.039,154.509z M303.809,154.55c0-1.303-0.327-2.286-0.981-2.946
					s-1.626-0.991-2.916-0.991h-1.688v7.984h1.415c1.385,0,2.427-0.341,3.124-1.022C303.46,156.894,303.809,155.885,303.809,154.55z
					"/>
			</g>
		</g>
	</g>
	<g>
		<g>
			<polygon fill="#DEDDDD" points="601,218 598,218 598,216 599,216 599,215 601,215 			"/>
			<path fill="#DEDDDD" d="M594.03,218h-3.97v-2h3.97V218z M586.091,218h-3.97v-2h3.97V218z M578.151,218h-3.97v-2h3.97V218z
				 M570.212,218h-3.97v-2h3.97V218z M562.272,218h-3.97v-2h3.97V218z M554.333,218h-3.97v-2h3.97V218z M546.394,218h-3.97v-2h3.97
				V218z M538.454,218h-3.97v-2h3.97V218z M530.515,218h-3.969v-2h3.969V218z M522.576,218h-3.97v-2h3.97V218z M514.637,218h-3.97
				v-2h3.97V218z M506.697,218h-3.97v-2h3.97V218z M498.758,218h-3.97v-2h3.97V218z M490.818,218h-3.97v-2h3.97V218z M482.879,218
				h-3.97v-2h3.97V218z M474.939,218h-3.97v-2h3.97V218z M467,218h-3.97v-2H467V218z M459.061,218h-3.97v-2h3.97V218z M451.121,218
				h-3.97v-2h3.97V218z M443.182,218h-3.97v-2h3.97V218z M435.242,218h-3.97v-2h3.97V218z M427.303,218h-3.97v-2h3.97V218z
				 M419.363,218h-3.97v-2h3.97V218z M411.424,218h-3.97v-2h3.97V218z M403.484,218h-3.969v-2h3.969V218z M395.545,218h-3.97v-2
				h3.97V218z M387.606,218h-3.97v-2h3.97V218z M379.667,218h-3.97v-2h3.97V218z M371.727,218h-3.969v-2h3.969V218z M363.788,218
				h-3.97v-2h3.97V218z M355.849,218h-3.97v-2h3.97V218z M347.909,218h-3.97v-2h3.97V218z M339.97,218H336v-2h3.97V218z M332.03,218
				h-3.97v-2h3.97V218z M324.091,218h-3.97v-2h3.97V218z M316.151,218h-3.97v-2h3.97V218z M308.212,218h-3.97v-2h3.97V218z
				 M300.273,218h-3.97v-2h3.97V218z M292.333,218h-3.97v-2h3.97V218z M284.394,218h-3.97v-2h3.97V218z M276.455,218h-3.97v-2h3.97
				V218z M268.515,218h-3.97v-2h3.97V218z M260.576,218h-3.97v-2h3.97V218z M252.636,218h-3.97v-2h3.97V218z M244.697,218h-3.969v-2
				h3.969V218z M236.758,218h-3.97v-2h3.97V218z M228.818,218h-3.97v-2h3.97V218z M220.879,218h-3.97v-2h3.97V218z M212.939,218
				h-3.97v-2h3.97V218z"/>
			<polygon fill="#DEDDDD" points="205,218 202,218 202,215 204,215 204,216 205,216 			"/>
			<path fill="#DEDDDD" d="M204,211.333h-2v-3.667h2V211.333z M204,204h-2v-3.667h2V204z M204,196.667h-2V193h2V196.667z
				 M204,189.333h-2v-3.667h2V189.333z"/>
			<polygon fill="#DEDDDD" points="204,182 202,182 202,179 205,179 205,181 204,181 			"/>
			<path fill="#DEDDDD" d="M594.03,181h-3.97v-2h3.97V181z M586.091,181h-3.97v-2h3.97V181z M578.151,181h-3.97v-2h3.97V181z
				 M570.213,181h-3.97v-2h3.97V181z M562.273,181h-3.97v-2h3.97V181z M554.334,181h-3.97v-2h3.97V181z M546.395,181h-3.97v-2h3.97
				V181z M538.455,181h-3.97v-2h3.97V181z M530.516,181h-3.97v-2h3.97V181z M522.576,181h-3.97v-2h3.97V181z M514.637,181h-3.97v-2
				h3.97V181z M506.697,181h-3.97v-2h3.97V181z M498.758,181h-3.97v-2h3.97V181z M490.818,181h-3.97v-2h3.97V181z M482.879,181
				h-3.97v-2h3.97V181z M474.939,181h-3.97v-2h3.97V181z M467,181h-3.97v-2H467V181z M459.061,181h-3.97v-2h3.97V181z M451.121,181
				h-3.97v-2h3.97V181z M443.182,181h-3.97v-2h3.97V181z M435.242,181h-3.97v-2h3.97V181z M427.303,181h-3.97v-2h3.97V181z
				 M419.363,181h-3.969v-2h3.969V181z M411.425,181h-3.97v-2h3.97V181z M403.485,181h-3.97v-2h3.97V181z M395.545,181h-3.97v-2
				h3.97V181z M387.606,181h-3.97v-2h3.97V181z M379.667,181h-3.97v-2h3.97V181z M371.728,181h-3.97v-2h3.97V181z M363.788,181
				h-3.97v-2h3.97V181z M355.849,181h-3.97v-2h3.97V181z M347.909,181h-3.97v-2h3.97V181z M339.97,181H336v-2h3.97V181z M332.03,181
				h-3.97v-2h3.97V181z M324.091,181h-3.97v-2h3.97V181z M316.151,181h-3.97v-2h3.97V181z M308.212,181h-3.97v-2h3.97V181z
				 M300.273,181h-3.97v-2h3.97V181z M292.333,181h-3.97v-2h3.97V181z M284.394,181h-3.97v-2h3.97V181z M276.455,181h-3.97v-2h3.97
				V181z M268.515,181h-3.97v-2h3.97V181z M260.576,181h-3.97v-2h3.97V181z M252.636,181h-3.97v-2h3.97V181z M244.697,181h-3.969v-2
				h3.969V181z M236.758,181h-3.97v-2h3.97V181z M228.818,181h-3.97v-2h3.97V181z M220.879,181h-3.97v-2h3.97V181z M212.939,181
				h-3.97v-2h3.97V181z"/>
			<polygon fill="#DEDDDD" points="601,182 599,182 599,181 598,181 598,179 601,179 			"/>
			<path fill="#DEDDDD" d="M601,211.333h-2v-3.667h2V211.333z M601,204h-2v-3.667h2V204z M601,196.667h-2V193h2V196.667z
				 M601,189.333h-2v-3.667h2V189.333z"/>
		</g>
		<g>
			<path fill="#DEDDDD" d="M359.787,202.602h-1.326l-5.462-8.388h-0.055c0.073,0.984,0.109,1.887,0.109,2.707v5.681h-1.073v-9.994
				h1.312l5.448,8.354h0.055c-0.009-0.123-0.03-0.519-0.062-1.186c-0.032-0.668-0.043-1.146-0.034-1.433v-5.735h1.087V202.602z"/>
			<path fill="#DEDDDD" d="M371.21,197.591c0,1.6-0.404,2.857-1.213,3.773s-1.934,1.374-3.374,1.374c-1.472,0-2.608-0.45-3.408-1.35
				c-0.8-0.9-1.2-2.171-1.2-3.812c0-1.627,0.401-2.888,1.203-3.784s1.941-1.343,3.418-1.343c1.436,0,2.557,0.456,3.363,1.367
				S371.21,195.987,371.21,197.591z M363.246,197.591c0,1.354,0.288,2.38,0.865,3.079c0.577,0.7,1.414,1.05,2.512,1.05
				c1.107,0,1.944-0.349,2.509-1.046s0.848-1.725,0.848-3.083c0-1.344-0.281-2.364-0.844-3.059s-1.396-1.042-2.499-1.042
				c-1.107,0-1.949,0.35-2.526,1.049S363.246,196.255,363.246,197.591z"/>
			<path fill="#DEDDDD" d="M376.515,202.602h-1.162v-8.962h-3.165v-1.032h7.492v1.032h-3.165V202.602z"/>
			<path fill="#DEDDDD" d="M384.82,202.602v-9.994h1.162v9.994H384.82z"/>
			<path fill="#DEDDDD" d="M396.53,202.602h-1.326l-5.462-8.388h-0.055c0.073,0.984,0.109,1.887,0.109,2.707v5.681h-1.073v-9.994
				h1.312l5.448,8.354h0.055c-0.009-0.123-0.03-0.519-0.062-1.186c-0.032-0.668-0.043-1.146-0.034-1.433v-5.735h1.087V202.602z"/>
			<path fill="#DEDDDD" d="M403.558,193.503c-1.099,0-1.966,0.366-2.601,1.097c-0.637,0.731-0.954,1.733-0.954,3.004
				c0,1.308,0.307,2.318,0.919,3.032c0.613,0.713,1.487,1.069,2.622,1.069c0.697,0,1.493-0.125,2.386-0.376v1.019
				c-0.693,0.26-1.547,0.39-2.563,0.39c-1.472,0-2.608-0.446-3.407-1.34c-0.801-0.894-1.2-2.162-1.2-3.808
				c0-1.03,0.192-1.932,0.577-2.707c0.386-0.775,0.941-1.372,1.668-1.791c0.728-0.419,1.583-0.629,2.567-0.629
				c1.048,0,1.964,0.191,2.748,0.574l-0.492,0.998C405.07,193.681,404.314,193.503,403.558,193.503z"/>
			<path fill="#DEDDDD" d="M408.11,202.602v-9.994h1.162v8.941h4.409v1.053H408.11z"/>
			<path fill="#DEDDDD" d="M422.924,192.607v6.467c0,1.14-0.344,2.035-1.032,2.687s-1.634,0.978-2.837,0.978
				s-2.134-0.328-2.793-0.984c-0.658-0.656-0.987-1.559-0.987-2.707v-6.439h1.162v6.521c0,0.834,0.228,1.475,0.684,1.921
				s1.126,0.67,2.01,0.67c0.843,0,1.493-0.225,1.948-0.673c0.455-0.449,0.684-1.093,0.684-1.932v-6.508H422.924z"/>
			<path fill="#DEDDDD" d="M433.547,197.509c0,1.649-0.447,2.911-1.344,3.784c-0.895,0.872-2.184,1.309-3.865,1.309h-2.769v-9.994
				h3.062c1.554,0,2.762,0.431,3.623,1.292S433.547,195.964,433.547,197.509z M432.316,197.55c0-1.303-0.327-2.286-0.98-2.946
				c-0.654-0.661-1.627-0.991-2.916-0.991h-1.688v7.984h1.415c1.385,0,2.427-0.341,3.124-1.022
				C431.968,199.894,432.316,198.885,432.316,197.55z"/>
			<path fill="#DEDDDD" d="M441.347,202.602h-5.571v-9.994h5.571v1.032h-4.409v3.22h4.143v1.025h-4.143v3.678h4.409V202.602z"/>
			<path fill="#DEDDDD" d="M451.539,197.509c0,1.649-0.447,2.911-1.344,3.784c-0.895,0.872-2.184,1.309-3.865,1.309h-2.769v-9.994
				h3.062c1.554,0,2.762,0.431,3.623,1.292S451.539,195.964,451.539,197.509z M450.309,197.55c0-1.303-0.327-2.286-0.98-2.946
				c-0.654-0.661-1.627-0.991-2.916-0.991h-1.688v7.984h1.415c1.385,0,2.427-0.341,3.124-1.022
				C449.96,199.894,450.309,198.885,450.309,197.55z"/>
		</g>
	</g>
	<g>
		<path fill="#2A4F68" d="M147.953,25l-3.391-8.859h-0.055c0.064,0.702,0.096,1.536,0.096,2.502V25h-1.073v-9.994h1.75l3.165,8.244
			h0.055l3.192-8.244h1.736V25h-1.162v-6.439c0-0.738,0.032-1.54,0.096-2.406h-0.055L148.889,25H147.953z"/>
		<path fill="#2A4F68" d="M162.465,21.247c0,1.222-0.308,2.175-0.923,2.86c-0.615,0.687-1.465,1.029-2.55,1.029
			c-0.67,0-1.265-0.157-1.784-0.472s-0.92-0.766-1.203-1.354s-0.424-1.276-0.424-2.064c0-1.222,0.305-2.173,0.916-2.854
			c0.611-0.681,1.458-1.021,2.543-1.021c1.048,0,1.881,0.349,2.499,1.046S162.465,20.058,162.465,21.247z M156.757,21.247
			c0,0.957,0.191,1.687,0.574,2.188s0.946,0.752,1.688,0.752s1.307-0.249,1.692-0.749c0.385-0.498,0.578-1.229,0.578-2.19
			c0-0.952-0.192-1.676-0.578-2.171c-0.385-0.494-0.954-0.741-1.706-0.741c-0.743,0-1.303,0.244-1.682,0.731
			S156.757,20.281,156.757,21.247z"/>
		<path fill="#2A4F68" d="M169.582,25v-4.847c0-0.61-0.139-1.066-0.417-1.367s-0.713-0.451-1.306-0.451
			c-0.784,0-1.358,0.212-1.723,0.636s-0.547,1.123-0.547,2.099V25h-1.135v-7.492h0.923l0.185,1.025h0.055
			c0.232-0.369,0.558-0.655,0.978-0.857c0.419-0.203,0.886-0.305,1.401-0.305c0.902,0,1.582,0.218,2.037,0.652
			c0.456,0.436,0.684,1.132,0.684,2.089V25H169.582z"/>
	</g>
	<g>
		<path fill="#2A4F68" d="M246.354,25h-1.162v-8.962h-3.165v-1.032h7.492v1.032h-3.165V25z"/>
		<path fill="#2A4F68" d="M251.918,17.508v4.86c0,0.61,0.139,1.066,0.417,1.367s0.713,0.451,1.306,0.451
			c0.784,0,1.357-0.214,1.719-0.643s0.543-1.128,0.543-2.099v-3.938h1.135V25h-0.937l-0.164-1.005h-0.062
			c-0.232,0.369-0.555,0.651-0.967,0.848s-0.883,0.294-1.412,0.294c-0.912,0-1.594-0.217-2.047-0.649s-0.68-1.126-0.68-2.078v-4.901
			H251.918z"/>
		<path fill="#2A4F68" d="M262.61,25.137c-1.107,0-1.981-0.337-2.622-1.012s-0.96-1.611-0.96-2.81c0-1.208,0.297-2.167,0.892-2.878
			s1.394-1.066,2.396-1.066c0.939,0,1.682,0.309,2.229,0.926c0.547,0.618,0.82,1.433,0.82,2.444v0.718h-5.161
			c0.023,0.88,0.245,1.547,0.667,2.003s1.015,0.684,1.781,0.684c0.807,0,1.604-0.169,2.393-0.506v1.012
			c-0.401,0.173-0.78,0.298-1.138,0.372C263.547,25.1,263.116,25.137,262.61,25.137z M262.302,18.321
			c-0.602,0-1.081,0.196-1.439,0.588s-0.568,0.935-0.632,1.627h3.917c0-0.716-0.16-1.264-0.479-1.644
			C263.351,18.512,262.895,18.321,262.302,18.321z"/>
	</g>
	<g>
		<path fill="#2A4F68" d="M349.399,25h-1.148l-2.017-6.692c-0.096-0.296-0.203-0.67-0.321-1.121s-0.18-0.723-0.185-0.813
			c-0.1,0.602-0.26,1.26-0.479,1.976L343.295,25h-1.148l-2.659-9.994h1.23l1.579,6.173c0.219,0.866,0.378,1.649,0.479,2.352
			c0.123-0.834,0.305-1.649,0.547-2.447l1.791-6.077h1.23l1.88,6.132c0.219,0.706,0.403,1.504,0.554,2.393
			c0.086-0.647,0.25-1.436,0.492-2.365l1.572-6.159h1.23L349.399,25z"/>
		<path fill="#2A4F68" d="M356.632,25.137c-1.107,0-1.981-0.337-2.622-1.012s-0.96-1.611-0.96-2.81c0-1.208,0.297-2.167,0.892-2.878
			s1.394-1.066,2.396-1.066c0.939,0,1.682,0.309,2.229,0.926c0.547,0.618,0.82,1.433,0.82,2.444v0.718h-5.161
			c0.023,0.88,0.245,1.547,0.667,2.003s1.015,0.684,1.781,0.684c0.807,0,1.604-0.169,2.393-0.506v1.012
			c-0.401,0.173-0.78,0.298-1.138,0.372C357.569,25.1,357.138,25.137,356.632,25.137z M356.324,18.321
			c-0.602,0-1.081,0.196-1.439,0.588s-0.568,0.935-0.632,1.627h3.917c0-0.716-0.16-1.264-0.479-1.644
			C357.373,18.512,356.917,18.321,356.324,18.321z"/>
		<path fill="#2A4F68" d="M366.421,23.995h-0.062c-0.524,0.761-1.308,1.142-2.352,1.142c-0.98,0-1.742-0.335-2.287-1.005
			s-0.817-1.622-0.817-2.857s0.273-2.194,0.82-2.878s1.308-1.025,2.283-1.025c1.016,0,1.795,0.369,2.338,1.107h0.089l-0.048-0.54
			l-0.027-0.526v-3.049h1.135V25h-0.923L366.421,23.995z M364.151,24.187c0.775,0,1.336-0.211,1.685-0.632
			c0.349-0.422,0.523-1.103,0.523-2.041v-0.239c0-1.062-0.177-1.819-0.53-2.272c-0.353-0.454-0.917-0.681-1.692-0.681
			c-0.666,0-1.175,0.259-1.528,0.776c-0.353,0.517-0.53,1.247-0.53,2.19c0,0.957,0.175,1.68,0.526,2.167
			S363.472,24.187,364.151,24.187z"/>
	</g>
	<g>
		<path fill="#2A4F68" d="M445.984,25h-1.162v-8.962h-3.164v-1.032h7.492v1.032h-3.166V25z"/>
		<path fill="#2A4F68" d="M455.609,25v-4.847c0-0.61-0.139-1.066-0.416-1.367c-0.278-0.301-0.714-0.451-1.307-0.451
			c-0.788,0-1.363,0.214-1.726,0.643s-0.544,1.13-0.544,2.105V25h-1.135V14.363h1.135v3.22c0,0.388-0.018,0.709-0.055,0.964h0.068
			c0.224-0.36,0.541-0.644,0.954-0.852c0.413-0.207,0.883-0.311,1.411-0.311c0.916,0,1.604,0.218,2.062,0.652
			c0.458,0.436,0.687,1.127,0.687,2.075V25H455.609z"/>
		<path fill="#2A4F68" d="M460.143,17.508v4.86c0,0.61,0.139,1.066,0.416,1.367c0.278,0.301,0.714,0.451,1.307,0.451
			c0.783,0,1.356-0.214,1.719-0.643s0.543-1.128,0.543-2.099v-3.938h1.135V25h-0.936l-0.164-1.005H464.1
			c-0.232,0.369-0.555,0.651-0.967,0.848s-0.883,0.294-1.412,0.294c-0.911,0-1.594-0.217-2.047-0.649s-0.68-1.126-0.68-2.078v-4.901
			H460.143z"/>
	</g>
	<g>
		<path fill="#2A4F68" d="M542.295,25h-1.162v-9.994h5.572v1.032h-4.41v3.657h4.143v1.032h-4.143V25z"/>
		<path fill="#2A4F68" d="M551.605,17.371c0.333,0,0.632,0.027,0.896,0.082l-0.158,1.053c-0.31-0.068-0.583-0.103-0.82-0.103
			c-0.605,0-1.124,0.246-1.555,0.738s-0.646,1.105-0.646,1.839V25h-1.135v-7.492h0.938l0.129,1.388h0.055
			c0.278-0.487,0.613-0.863,1.006-1.128C550.706,17.503,551.137,17.371,551.605,17.371z"/>
		<path fill="#2A4F68" d="M553.807,15.478c0-0.26,0.064-0.45,0.191-0.571c0.128-0.12,0.287-0.181,0.479-0.181
			c0.183,0,0.34,0.062,0.473,0.185c0.132,0.123,0.197,0.312,0.197,0.567s-0.065,0.445-0.197,0.571
			c-0.133,0.125-0.29,0.188-0.473,0.188c-0.191,0-0.351-0.062-0.479-0.188C553.871,15.923,553.807,15.732,553.807,15.478z
			 M555.037,25h-1.135v-7.492h1.135V25z"/>
	</g>
	<g>
		<rect x="9" y="51" fill="#F15D22" width="90.5" height="166"/>
		<g>
			<path fill="#FFFFFF" d="M41.398,162.69v2.406l-4.211,2.618l0.643,0.896h3.568v2.119h-9.995v-2.119h4.573l-1.176-0.834
				l-3.397-2.707v-2.352l4.423,3.486L41.398,162.69z"/>
			<path fill="#FFFFFF" d="M41.398,155.676v5.756h-9.995v-5.756h1.736v3.637h2.194v-3.384h1.736v3.384h2.578v-3.637H41.398z"/>
			<path fill="#FFFFFF" d="M35.519,150.481l-4.115-2.085v-2.283l6.105,3.315h3.89v2.105h-3.821l-6.173,3.315v-2.297L35.519,150.481z
				"/>
			<path fill="#FFFFFF" d="M41.398,135.989v2.693l-7.561,4.348v0.062c1.335-0.086,2.288-0.13,2.857-0.13h4.704v1.894h-9.995v-2.673
				l7.486-4.341v-0.048c-1.299,0.068-2.218,0.103-2.755,0.103h-4.73v-1.907H41.398z"/>
			<path fill="#FFFFFF" d="M36.387,124.402c1.655,0,2.926,0.41,3.815,1.23s1.333,1.996,1.333,3.527s-0.444,2.707-1.333,3.527
				s-2.165,1.23-3.829,1.23s-2.934-0.411-3.811-1.234s-1.316-2.002-1.316-3.538s0.442-2.71,1.326-3.524
				S34.728,124.402,36.387,124.402z M36.387,131.696c1.117,0,1.958-0.212,2.523-0.636s0.848-1.057,0.848-1.9
				c0-1.691-1.123-2.536-3.371-2.536c-2.251,0-3.377,0.841-3.377,2.522c0,0.843,0.284,1.479,0.851,1.907
				S35.27,131.696,36.387,131.696z"/>
			<path fill="#FFFFFF" d="M41.398,118.475v2.119h-8.231v2.714h-1.764v-7.547h1.764v2.714H41.398z"/>
			<path fill="#FFFFFF" d="M41.398,108.467v5.756h-9.995v-5.756h1.736v3.637h2.194v-3.384h1.736v3.384h2.578v-3.637H41.398z"/>
			<path fill="#FFFFFF" d="M37.214,100.756v2.646h-1.497v-2.646h-2.666v-1.497h2.666v-2.646h1.497v2.646h2.632v1.497H37.214z"/>
			<path fill="#FFFFFF" d="M58.198,178.744l-7.841,2.406v0.062c1.595-0.086,2.659-0.13,3.192-0.13h4.648v1.894h-9.994v-2.885
				l7.643-2.365v-0.041l-7.643-2.509v-2.885h9.994v1.976h-4.73c-0.224,0-0.48-0.003-0.772-0.01s-1.066-0.038-2.324-0.092v0.062
				l7.827,2.577V178.744z"/>
			<path fill="#FFFFFF" d="M58.198,163.657l-2.379,0.725v3.644l2.379,0.725v2.283l-10.035-3.527v-2.591l10.035-3.541V163.657z
				 M54.042,164.888c-2.155,0.67-3.375,1.047-3.657,1.131s-0.506,0.145-0.67,0.181c0.583,0.15,2.025,0.581,4.327,1.292V164.888z"/>
			<path fill="#FFFFFF" d="M54.363,157.997h3.835v2.119h-9.994v-2.912c0-1.358,0.247-2.363,0.742-3.015
				c0.494-0.652,1.245-0.978,2.252-0.978c0.588,0,1.111,0.162,1.568,0.485c0.459,0.324,0.817,0.782,1.077,1.374
				c2.247-1.504,3.698-2.484,4.354-2.939v2.352l-3.835,2.386V157.997z M52.64,157.997v-0.684c0-0.67-0.111-1.165-0.335-1.483
				s-0.574-0.479-1.053-0.479c-0.474,0-0.812,0.163-1.012,0.489s-0.301,0.831-0.301,1.514v0.643H52.64z"/>
			<path fill="#FFFFFF" d="M58.198,142.835v2.406l-4.211,2.618l0.643,0.896h3.568v2.119h-9.994v-2.119h4.573l-1.176-0.834
				l-3.397-2.707v-2.352l4.423,3.486L58.198,142.835z"/>
			<path fill="#FFFFFF" d="M58.198,135.821v5.756h-9.994v-5.756h1.736v3.637h2.194v-3.384h1.736v3.384h2.577v-3.637H58.198z"/>
			<path fill="#FFFFFF" d="M58.198,129.881V132h-8.23v2.714h-1.764v-7.547h1.764v2.714H58.198z"/>
			<path fill="#FFFFFF" d="M51.321,118.725c1.075,0,1.898,0.336,2.468,1.008s0.854,1.628,0.854,2.868v0.909h3.555v2.119h-9.994
				v-3.192c0-1.212,0.261-2.134,0.783-2.765C49.508,119.04,50.287,118.725,51.321,118.725z M52.907,123.51v-0.697
				c0-0.652-0.129-1.139-0.387-1.463c-0.257-0.324-0.632-0.485-1.124-0.485c-0.497,0-0.863,0.136-1.101,0.407
				s-0.355,0.696-0.355,1.275v0.964H52.907z"/>
			<path fill="#FFFFFF" d="M58.198,116.838h-9.994v-2.119h8.244v-4.054h1.75V116.838z"/>
			<path fill="#FFFFFF" d="M58.198,102.811l-2.379,0.725v3.644l2.379,0.725v2.283l-10.035-3.527v-2.591l10.035-3.541V102.811z
				 M54.042,104.041c-2.155,0.67-3.375,1.047-3.657,1.131s-0.506,0.145-0.67,0.181c0.583,0.15,2.025,0.581,4.327,1.292V104.041z"/>
			<path fill="#FFFFFF" d="M49.824,95.024c0,0.797,0.3,1.415,0.899,1.853c0.599,0.438,1.434,0.656,2.505,0.656
				c2.229,0,3.343-0.836,3.343-2.509c0-0.702-0.176-1.552-0.526-2.55h1.777c0.342,0.82,0.513,1.736,0.513,2.748
				c0,1.454-0.441,2.566-1.322,3.336c-0.883,0.77-2.148,1.155-3.798,1.155c-1.039,0-1.949-0.189-2.731-0.567
				c-0.781-0.378-1.381-0.922-1.797-1.63c-0.418-0.708-0.626-1.539-0.626-2.492c0-0.971,0.234-1.946,0.704-2.926l1.723,0.684
				c-0.178,0.374-0.333,0.75-0.465,1.128S49.824,94.66,49.824,95.024z"/>
			<path fill="#FFFFFF" d="M58.198,84.593v5.756h-9.994v-5.756h1.736v3.637h2.194v-3.384h1.736v3.384h2.577v-3.637H58.198z"/>
			<path fill="#FFFFFF" d="M68.121,142.773c1.075,0,1.898,0.336,2.468,1.008s0.854,1.628,0.854,2.868v0.909h3.555v2.119h-9.994
				v-3.192c0-1.212,0.261-2.134,0.783-2.765C66.308,143.089,67.086,142.773,68.121,142.773z M69.707,147.559v-0.697
				c0-0.652-0.129-1.139-0.387-1.463c-0.257-0.324-0.632-0.485-1.124-0.485c-0.497,0-0.863,0.136-1.101,0.407
				s-0.355,0.696-0.355,1.275v0.964H69.707z"/>
			<path fill="#FFFFFF" d="M74.998,134.769l-2.379,0.725v3.644l2.379,0.725v2.283l-10.035-3.527v-2.591l10.035-3.541V134.769z
				 M70.841,135.999c-2.155,0.67-3.375,1.047-3.657,1.131s-0.506,0.145-0.67,0.181c0.583,0.15,2.025,0.581,4.327,1.292V135.999z"/>
			<path fill="#FFFFFF" d="M72.222,125.328c0.902,0,1.613,0.325,2.133,0.974s0.779,1.553,0.779,2.71c0,1.066-0.2,2.01-0.602,2.83
				h-1.969c0.301-0.674,0.513-1.245,0.636-1.712s0.185-0.895,0.185-1.282c0-0.465-0.089-0.821-0.267-1.07s-0.442-0.373-0.793-0.373
				c-0.196,0-0.37,0.055-0.522,0.164c-0.153,0.109-0.3,0.27-0.441,0.482s-0.367,0.644-0.677,1.295
				c-0.287,0.611-0.562,1.069-0.827,1.374s-0.572,0.549-0.923,0.731s-0.761,0.273-1.23,0.273c-0.884,0-1.579-0.3-2.085-0.899
				s-0.759-1.428-0.759-2.485c0-0.52,0.062-1.015,0.185-1.487s0.296-0.965,0.52-1.48l1.647,0.684
				c-0.219,0.533-0.371,0.974-0.458,1.323s-0.13,0.691-0.13,1.029c0,0.401,0.094,0.708,0.28,0.923s0.431,0.321,0.731,0.321
				c0.187,0,0.35-0.043,0.489-0.13c0.139-0.086,0.273-0.225,0.402-0.414c0.131-0.189,0.364-0.637,0.701-1.343
				c0.446-0.934,0.895-1.575,1.344-1.921C71.02,125.501,71.571,125.328,72.222,125.328z"/>
			<path fill="#FFFFFF" d="M72.222,117.617c0.902,0,1.613,0.325,2.133,0.974s0.779,1.553,0.779,2.71c0,1.066-0.2,2.01-0.602,2.83
				h-1.969c0.301-0.674,0.513-1.245,0.636-1.712s0.185-0.895,0.185-1.282c0-0.465-0.089-0.821-0.267-1.07s-0.442-0.373-0.793-0.373
				c-0.196,0-0.37,0.055-0.522,0.164c-0.153,0.109-0.3,0.27-0.441,0.482s-0.367,0.644-0.677,1.295
				c-0.287,0.611-0.562,1.069-0.827,1.374s-0.572,0.549-0.923,0.731s-0.761,0.273-1.23,0.273c-0.884,0-1.579-0.3-2.085-0.899
				s-0.759-1.428-0.759-2.485c0-0.52,0.062-1.015,0.185-1.487s0.296-0.965,0.52-1.48l1.647,0.684
				c-0.219,0.533-0.371,0.974-0.458,1.323s-0.13,0.691-0.13,1.029c0,0.401,0.094,0.708,0.28,0.923s0.431,0.321,0.731,0.321
				c0.187,0,0.35-0.043,0.489-0.13c0.139-0.086,0.273-0.225,0.402-0.414c0.131-0.189,0.364-0.637,0.701-1.343
				c0.446-0.934,0.895-1.575,1.344-1.921C71.02,117.791,71.571,117.617,72.222,117.617z"/>
		</g>
	</g>
</g>
</svg>
