<?xml version="1.0" encoding="utf-8"?>
<!-- Generator: Adobe Illustrator 16.0.4, SVG Export Plug-In . SVG Version: 6.00 Build 0)  -->
<!DOCTYPE svg PUBLIC "-//W3C//DTD SVG 1.1//EN" "http://www.w3.org/Graphics/SVG/1.1/DTD/svg11.dtd">
<svg version="1.1" xmlns="http://www.w3.org/2000/svg" xmlns:xlink="http://www.w3.org/1999/xlink" x="0px" y="0px"
	 width="373.333px" height="300.667px" viewBox="0 0 373.333 300.667" enable-background="new 0 0 373.333 300.667"
	 xml:space="preserve">
<g id="Layer_2" display="none">
	
		<image display="inline" overflow="visible" width="790" height="460" xlink:href="../../../../Library/Containers/at.EternalStorms.Yoink/Data/Documents/YoinkPromisedFiles/yoinkFilePromiseCreationFolderD74D248E-B6F4-45B2-AADF-8FF5B810792A/addD74D248E-B6F4-45B2-AADF-8FF5B810792A/Charts.png"  transform="matrix(0.9999 0 0 0.9999 -225.1182 211.2104)">
	</image>
</g>
<g id="Layer_4">
</g>
<g id="Layer_1">
</g>
<g id="Layer_3">
	<g>
		<rect x="75.236" y="175.511" fill="#30739C" width="105.082" height="27.045"/>
		<g>
			<path fill="#FFFFFF" d="M108.88,192.032h-1l-2.663-3.543l-0.765,0.68v2.863h-0.85v-7.306h0.85v3.623l3.312-3.623h1.005
				l-2.938,3.173L108.88,192.032z"/>
			<path fill="#FFFFFF" d="M113.956,192.032h-4.072v-7.306h4.072v0.755h-3.223v2.354h3.028v0.749h-3.028v2.688h3.223V192.032z"/>
			<path fill="#FFFFFF" d="M117.434,188.379l1.949-3.653h0.919l-2.438,4.473v2.833h-0.859v-2.793l-2.434-4.513h0.93L117.434,188.379
				z"/>
			<path fill="#FFFFFF" d="M127.013,192.032h-0.97l-3.992-6.131h-0.04c0.054,0.72,0.08,1.379,0.08,1.979v4.152h-0.784v-7.306h0.959
				l3.982,6.106h0.04c-0.007-0.09-0.021-0.379-0.045-0.867c-0.023-0.487-0.031-0.837-0.025-1.047v-4.192h0.795V192.032z"/>
			<path fill="#FFFFFF" d="M135.362,188.369c0,1.17-0.295,2.089-0.887,2.759c-0.591,0.67-1.413,1.004-2.466,1.004
				c-1.076,0-1.906-0.328-2.491-0.986c-0.584-0.658-0.877-1.587-0.877-2.786c0-1.189,0.293-2.111,0.88-2.766
				c0.586-0.654,1.419-0.981,2.498-0.981c1.05,0,1.869,0.333,2.459,0.999C135.067,186.277,135.362,187.197,135.362,188.369z
				 M129.541,188.369c0,0.99,0.211,1.74,0.633,2.252c0.421,0.511,1.033,0.767,1.836,0.767c0.81,0,1.421-0.255,1.834-0.765
				s0.619-1.261,0.619-2.254c0-0.982-0.205-1.728-0.617-2.235c-0.411-0.508-1.02-0.763-1.826-0.763c-0.81,0-1.425,0.256-1.846,0.768
				C129.752,186.649,129.541,187.393,129.541,188.369z"/>
			<path fill="#FFFFFF" d="M139.24,192.032h-0.85v-6.551h-2.313v-0.755h5.477v0.755h-2.313V192.032z"/>
			<path fill="#FFFFFF" d="M146.726,192.032h-4.072v-7.306h4.072v0.755h-3.223v2.354h3.027v0.749h-3.027v2.688h3.223V192.032z"/>
			<path fill="#FFFFFF" d="M152.467,190.088c0,0.643-0.233,1.144-0.699,1.504c-0.467,0.359-1.1,0.539-1.899,0.539
				c-0.866,0-1.532-0.111-1.998-0.334v-0.82c0.3,0.127,0.626,0.227,0.979,0.3c0.353,0.073,0.702,0.11,1.049,0.11
				c0.566,0,0.993-0.107,1.279-0.322s0.43-0.514,0.43-0.897c0-0.253-0.051-0.46-0.152-0.622c-0.102-0.161-0.271-0.311-0.51-0.447
				c-0.238-0.136-0.601-0.291-1.087-0.464c-0.68-0.243-1.165-0.531-1.456-0.865c-0.292-0.333-0.438-0.768-0.438-1.304
				c0-0.562,0.211-1.011,0.635-1.344c0.423-0.334,0.982-0.5,1.679-0.5c0.727,0,1.394,0.133,2.004,0.399l-0.265,0.739
				c-0.604-0.253-1.189-0.379-1.76-0.379c-0.449,0-0.801,0.097-1.054,0.289c-0.253,0.193-0.38,0.462-0.38,0.805
				c0,0.253,0.047,0.461,0.14,0.622c0.094,0.162,0.251,0.31,0.473,0.445c0.222,0.135,0.561,0.283,1.017,0.447
				c0.767,0.272,1.293,0.565,1.581,0.879S152.467,189.588,152.467,190.088z"/>
		</g>
	</g>
	<g>
		<rect x="75.236" y="206.943" fill="#30739C" width="168.284" height="27.045"/>
		<g>
			<path fill="#FFFFFF" d="M137.937,223.463h-4.072v-7.306h4.072v0.755h-3.223v2.354h3.028v0.749h-3.028v2.688h3.223V223.463z"/>
			<path fill="#FFFFFF" d="M144.418,223.463h-0.965l-1.964-3.213l-1.998,3.213h-0.899l2.428-3.817l-2.263-3.488h0.938l1.814,2.894
				l1.829-2.894h0.904l-2.264,3.458L144.418,223.463z"/>
			<path fill="#FFFFFF" d="M150.094,218.287c0,0.739-0.252,1.309-0.757,1.706c-0.505,0.398-1.227,0.598-2.166,0.598h-0.859v2.873
				h-0.85v-7.306h1.894C149.182,216.158,150.094,216.868,150.094,218.287z M146.312,219.861h0.765c0.753,0,1.298-0.122,1.634-0.365
				c0.337-0.243,0.505-0.633,0.505-1.169c0-0.483-0.158-0.843-0.475-1.079s-0.81-0.355-1.479-0.355h-0.949V219.861z"/>
			<path fill="#FFFFFF" d="M157.964,219.8c0,1.17-0.295,2.089-0.887,2.759c-0.591,0.67-1.413,1.004-2.466,1.004
				c-1.076,0-1.906-0.328-2.491-0.986c-0.584-0.658-0.877-1.587-0.877-2.786c0-1.189,0.293-2.111,0.88-2.766
				c0.586-0.654,1.419-0.981,2.498-0.981c1.05,0,1.869,0.333,2.459,0.999C157.669,217.708,157.964,218.628,157.964,219.8z
				 M152.143,219.8c0,0.99,0.211,1.74,0.633,2.252c0.421,0.511,1.033,0.767,1.836,0.767c0.81,0,1.421-0.255,1.834-0.765
				s0.619-1.261,0.619-2.254c0-0.982-0.205-1.728-0.617-2.235c-0.411-0.508-1.02-0.763-1.826-0.763c-0.81,0-1.425,0.256-1.846,0.768
				C152.354,218.081,152.143,218.825,152.143,219.8z"/>
			<path fill="#FFFFFF" d="M167.798,223.463h-0.85v-3.438h-3.847v3.438h-0.85v-7.306h0.85v3.108h3.847v-3.108h0.85V223.463z"/>
			<path fill="#FFFFFF" d="M174.394,223.463l-0.909-2.323h-2.929l-0.899,2.323h-0.859l2.889-7.335h0.714l2.874,7.335H174.394z
				 M173.22,220.375l-0.85-2.264c-0.11-0.286-0.224-0.638-0.34-1.055c-0.073,0.32-0.179,0.672-0.315,1.055l-0.859,2.264H173.22z"/>
			<path fill="#FFFFFF" d="M176.277,223.463v-7.306h0.85v6.536h3.223v0.77H176.277z"/>
			<path fill="#FFFFFF" d="M181.589,223.463v-7.306h0.85v6.536h3.223v0.77H181.589z"/>
		</g>
	</g>
	<g>
		<rect x="75.236" y="238.374" fill="#30739C" width="168.284" height="27.046"/>
		<g>
			<path fill="#FFFFFF" d="M94.27,249.183h1.613c0.758,0,1.306,0.113,1.645,0.34c0.338,0.227,0.508,0.585,0.508,1.074
				c0,0.339-0.095,0.618-0.283,0.838c-0.189,0.22-0.465,0.362-0.826,0.428v0.039c0.867,0.148,1.301,0.604,1.301,1.367
				c0,0.511-0.173,0.909-0.518,1.195c-0.346,0.286-0.828,0.43-1.447,0.43H94.27V249.183z M94.934,251.628h1.094
				c0.469,0,0.806-0.073,1.012-0.221c0.205-0.147,0.309-0.396,0.309-0.744c0-0.32-0.115-0.552-0.344-0.693
				c-0.229-0.142-0.594-0.213-1.094-0.213h-0.977V251.628z M94.934,252.191v2.137h1.191c0.461,0,0.808-0.089,1.041-0.268
				c0.232-0.179,0.35-0.458,0.35-0.838c0-0.354-0.119-0.614-0.357-0.781s-0.602-0.25-1.088-0.25H94.934z"/>
			<path fill="#FFFFFF" d="M103.766,249.183v3.695c0,0.651-0.197,1.163-0.59,1.535c-0.394,0.372-0.934,0.559-1.621,0.559
				s-1.22-0.188-1.596-0.562c-0.377-0.375-0.564-0.891-0.564-1.547v-3.68h0.664v3.727c0,0.477,0.13,0.843,0.391,1.098
				c0.26,0.255,0.643,0.383,1.148,0.383c0.481,0,0.853-0.128,1.113-0.385c0.26-0.257,0.391-0.624,0.391-1.104v-3.719H103.766z"/>
			<path fill="#FFFFFF" d="M108.5,253.375c0,0.503-0.183,0.895-0.547,1.176c-0.365,0.281-0.859,0.422-1.484,0.422
				c-0.678,0-1.198-0.087-1.562-0.262v-0.641c0.234,0.099,0.489,0.177,0.766,0.234c0.275,0.058,0.549,0.086,0.82,0.086
				c0.442,0,0.775-0.084,1-0.252c0.224-0.168,0.336-0.401,0.336-0.701c0-0.198-0.04-0.36-0.119-0.486
				c-0.08-0.126-0.213-0.243-0.398-0.35c-0.187-0.106-0.47-0.228-0.85-0.363c-0.531-0.19-0.911-0.415-1.139-0.676
				c-0.229-0.261-0.342-0.601-0.342-1.02c0-0.44,0.165-0.79,0.496-1.051c0.33-0.261,0.768-0.391,1.312-0.391
				c0.567,0,1.09,0.104,1.566,0.312l-0.207,0.578c-0.472-0.198-0.93-0.297-1.375-0.297c-0.352,0-0.627,0.075-0.824,0.227
				c-0.198,0.151-0.297,0.36-0.297,0.629c0,0.198,0.036,0.36,0.109,0.486c0.072,0.126,0.195,0.242,0.369,0.348
				c0.173,0.105,0.438,0.222,0.795,0.35c0.599,0.214,1.011,0.442,1.236,0.688C108.387,252.667,108.5,252.984,108.5,253.375z"/>
			<path fill="#FFFFFF" d="M109.668,254.894v-5.711h0.664v5.711H109.668z"/>
			<path fill="#FFFFFF" d="M116.359,254.894h-0.758l-3.121-4.793h-0.031c0.041,0.562,0.062,1.078,0.062,1.547v3.246h-0.613v-5.711
				h0.75l3.113,4.773h0.031c-0.006-0.07-0.018-0.296-0.035-0.678c-0.019-0.382-0.025-0.654-0.02-0.818v-3.277h0.621V254.894z"/>
			<path fill="#FFFFFF" d="M121.113,254.894h-3.184v-5.711h3.184v0.59h-2.52v1.84h2.367v0.586h-2.367v2.102h2.52V254.894z"/>
			<path fill="#FFFFFF" d="M125.602,253.375c0,0.503-0.183,0.895-0.547,1.176c-0.365,0.281-0.859,0.422-1.484,0.422
				c-0.678,0-1.198-0.087-1.562-0.262v-0.641c0.234,0.099,0.489,0.177,0.766,0.234c0.275,0.058,0.549,0.086,0.82,0.086
				c0.442,0,0.775-0.084,1-0.252c0.224-0.168,0.336-0.401,0.336-0.701c0-0.198-0.04-0.36-0.119-0.486
				c-0.08-0.126-0.213-0.243-0.398-0.35c-0.187-0.106-0.47-0.228-0.85-0.363c-0.531-0.19-0.911-0.415-1.139-0.676
				c-0.229-0.261-0.342-0.601-0.342-1.02c0-0.44,0.165-0.79,0.496-1.051c0.33-0.261,0.768-0.391,1.312-0.391
				c0.567,0,1.09,0.104,1.566,0.312l-0.207,0.578c-0.472-0.198-0.93-0.297-1.375-0.297c-0.352,0-0.627,0.075-0.824,0.227
				c-0.198,0.151-0.297,0.36-0.297,0.629c0,0.198,0.036,0.36,0.109,0.486c0.072,0.126,0.195,0.242,0.369,0.348
				c0.173,0.105,0.438,0.222,0.795,0.35c0.599,0.214,1.011,0.442,1.236,0.688C125.488,252.667,125.602,252.984,125.602,253.375z"/>
			<path fill="#FFFFFF" d="M129.992,253.375c0,0.503-0.183,0.895-0.547,1.176c-0.365,0.281-0.859,0.422-1.484,0.422
				c-0.678,0-1.198-0.087-1.562-0.262v-0.641c0.234,0.099,0.489,0.177,0.766,0.234c0.275,0.058,0.549,0.086,0.82,0.086
				c0.442,0,0.775-0.084,1-0.252c0.224-0.168,0.336-0.401,0.336-0.701c0-0.198-0.04-0.36-0.119-0.486
				c-0.08-0.126-0.213-0.243-0.398-0.35c-0.187-0.106-0.47-0.228-0.85-0.363c-0.531-0.19-0.911-0.415-1.139-0.676
				c-0.229-0.261-0.342-0.601-0.342-1.02c0-0.44,0.165-0.79,0.496-1.051c0.33-0.261,0.768-0.391,1.312-0.391
				c0.567,0,1.09,0.104,1.566,0.312l-0.207,0.578c-0.472-0.198-0.93-0.297-1.375-0.297c-0.352,0-0.627,0.075-0.824,0.227
				c-0.198,0.151-0.297,0.36-0.297,0.629c0,0.198,0.036,0.36,0.109,0.486c0.072,0.126,0.195,0.242,0.369,0.348
				c0.173,0.105,0.438,0.222,0.795,0.35c0.599,0.214,1.011,0.442,1.236,0.688C129.879,252.667,129.992,252.984,129.992,253.375z"/>
			<path fill="#FFFFFF" d="M136.461,253.375c0,0.503-0.183,0.895-0.547,1.176c-0.365,0.281-0.859,0.422-1.484,0.422
				c-0.678,0-1.198-0.087-1.562-0.262v-0.641c0.234,0.099,0.489,0.177,0.766,0.234c0.275,0.058,0.549,0.086,0.82,0.086
				c0.442,0,0.775-0.084,1-0.252c0.224-0.168,0.336-0.401,0.336-0.701c0-0.198-0.04-0.36-0.119-0.486
				c-0.08-0.126-0.213-0.243-0.398-0.35c-0.187-0.106-0.47-0.228-0.85-0.363c-0.531-0.19-0.911-0.415-1.139-0.676
				c-0.229-0.261-0.342-0.601-0.342-1.02c0-0.44,0.165-0.79,0.496-1.051c0.33-0.261,0.768-0.391,1.312-0.391
				c0.567,0,1.09,0.104,1.566,0.312l-0.207,0.578c-0.472-0.198-0.93-0.297-1.375-0.297c-0.352,0-0.627,0.075-0.824,0.227
				c-0.198,0.151-0.297,0.36-0.297,0.629c0,0.198,0.036,0.36,0.109,0.486c0.072,0.126,0.195,0.242,0.369,0.348
				c0.173,0.105,0.438,0.222,0.795,0.35c0.599,0.214,1.011,0.442,1.236,0.688C136.348,252.667,136.461,252.984,136.461,253.375z"/>
			<path fill="#FFFFFF" d="M140.812,254.894h-3.184v-5.711h3.184v0.59h-2.52v1.84h2.367v0.586h-2.367v2.102h2.52V254.894z"/>
			<path fill="#FFFFFF" d="M145.301,253.375c0,0.503-0.183,0.895-0.547,1.176c-0.365,0.281-0.859,0.422-1.484,0.422
				c-0.678,0-1.198-0.087-1.562-0.262v-0.641c0.234,0.099,0.489,0.177,0.766,0.234c0.275,0.058,0.549,0.086,0.82,0.086
				c0.442,0,0.775-0.084,1-0.252c0.224-0.168,0.336-0.401,0.336-0.701c0-0.198-0.04-0.36-0.119-0.486
				c-0.08-0.126-0.213-0.243-0.398-0.35c-0.187-0.106-0.47-0.228-0.85-0.363c-0.531-0.19-0.911-0.415-1.139-0.676
				c-0.229-0.261-0.342-0.601-0.342-1.02c0-0.44,0.165-0.79,0.496-1.051c0.33-0.261,0.768-0.391,1.312-0.391
				c0.567,0,1.09,0.104,1.566,0.312l-0.207,0.578c-0.472-0.198-0.93-0.297-1.375-0.297c-0.352,0-0.627,0.075-0.824,0.227
				c-0.198,0.151-0.297,0.36-0.297,0.629c0,0.198,0.036,0.36,0.109,0.486c0.072,0.126,0.195,0.242,0.369,0.348
				c0.173,0.105,0.438,0.222,0.795,0.35c0.599,0.214,1.011,0.442,1.236,0.688C145.188,252.667,145.301,252.984,145.301,253.375z"/>
			<path fill="#FFFFFF" d="M149.691,253.375c0,0.503-0.183,0.895-0.547,1.176c-0.365,0.281-0.859,0.422-1.484,0.422
				c-0.678,0-1.198-0.087-1.562-0.262v-0.641c0.234,0.099,0.489,0.177,0.766,0.234c0.275,0.058,0.549,0.086,0.82,0.086
				c0.442,0,0.775-0.084,1-0.252c0.224-0.168,0.336-0.401,0.336-0.701c0-0.198-0.04-0.36-0.119-0.486
				c-0.08-0.126-0.213-0.243-0.398-0.35c-0.187-0.106-0.47-0.228-0.85-0.363c-0.531-0.19-0.911-0.415-1.139-0.676
				c-0.229-0.261-0.342-0.601-0.342-1.02c0-0.44,0.165-0.79,0.496-1.051c0.33-0.261,0.768-0.391,1.312-0.391
				c0.567,0,1.09,0.104,1.566,0.312l-0.207,0.578c-0.472-0.198-0.93-0.297-1.375-0.297c-0.352,0-0.627,0.075-0.824,0.227
				c-0.198,0.151-0.297,0.36-0.297,0.629c0,0.198,0.036,0.36,0.109,0.486c0.072,0.126,0.195,0.242,0.369,0.348
				c0.173,0.105,0.438,0.222,0.795,0.35c0.599,0.214,1.011,0.442,1.236,0.688C149.578,252.667,149.691,252.984,149.691,253.375z"/>
			<path fill="#FFFFFF" d="M150.859,254.894v-5.711h0.664v5.711H150.859z"/>
			<path fill="#FFFFFF" d="M158.047,252.031c0,0.914-0.231,1.633-0.693,2.156c-0.463,0.523-1.105,0.785-1.928,0.785
				c-0.842,0-1.49-0.257-1.947-0.771s-0.686-1.24-0.686-2.178c0-0.93,0.229-1.65,0.688-2.162c0.458-0.512,1.109-0.768,1.953-0.768
				c0.82,0,1.461,0.261,1.922,0.781S158.047,251.114,158.047,252.031z M153.496,252.031c0,0.773,0.164,1.36,0.494,1.76
				c0.329,0.399,0.808,0.6,1.436,0.6c0.633,0,1.11-0.199,1.434-0.598c0.322-0.398,0.484-0.985,0.484-1.762
				c0-0.769-0.161-1.351-0.482-1.748c-0.322-0.397-0.798-0.596-1.428-0.596c-0.633,0-1.114,0.2-1.443,0.6
				C153.66,250.686,153.496,251.268,153.496,252.031z"/>
			<path fill="#FFFFFF" d="M163.781,254.894h-0.758l-3.121-4.793h-0.031c0.041,0.562,0.062,1.078,0.062,1.547v3.246h-0.613v-5.711
				h0.75l3.113,4.773h0.031c-0.006-0.07-0.018-0.296-0.035-0.678c-0.019-0.382-0.025-0.654-0.02-0.818v-3.277h0.621V254.894z"/>
			<path fill="#FFFFFF" d="M168.574,253.375c0,0.503-0.183,0.895-0.547,1.176c-0.365,0.281-0.859,0.422-1.484,0.422
				c-0.678,0-1.198-0.087-1.562-0.262v-0.641c0.234,0.099,0.489,0.177,0.766,0.234c0.275,0.058,0.549,0.086,0.82,0.086
				c0.442,0,0.775-0.084,1-0.252c0.224-0.168,0.336-0.401,0.336-0.701c0-0.198-0.04-0.36-0.119-0.486
				c-0.08-0.126-0.213-0.243-0.398-0.35c-0.187-0.106-0.47-0.228-0.85-0.363c-0.531-0.19-0.911-0.415-1.139-0.676
				c-0.229-0.261-0.342-0.601-0.342-1.02c0-0.44,0.165-0.79,0.496-1.051c0.33-0.261,0.768-0.391,1.312-0.391
				c0.567,0,1.09,0.104,1.566,0.312l-0.207,0.578c-0.472-0.198-0.93-0.297-1.375-0.297c-0.352,0-0.627,0.075-0.824,0.227
				c-0.198,0.151-0.297,0.36-0.297,0.629c0,0.198,0.036,0.36,0.109,0.486c0.072,0.126,0.195,0.242,0.369,0.348
				c0.173,0.105,0.438,0.222,0.795,0.35c0.599,0.214,1.011,0.442,1.236,0.688C168.461,252.667,168.574,252.984,168.574,253.375z"/>
			<path fill="#FFFFFF" d="M173.891,249.183l-2.129,5.711h-0.648l2.129-5.711H173.891z"/>
			<path fill="#FFFFFF" d="M181.82,254.894h-0.656l-1.152-3.824c-0.055-0.169-0.116-0.383-0.184-0.641
				c-0.068-0.258-0.104-0.413-0.105-0.465c-0.058,0.344-0.148,0.72-0.273,1.129l-1.117,3.801h-0.656l-1.52-5.711h0.703l0.902,3.527
				c0.125,0.495,0.216,0.942,0.273,1.344c0.07-0.477,0.174-0.942,0.312-1.398l1.023-3.473h0.703l1.074,3.504
				c0.125,0.403,0.23,0.859,0.316,1.367c0.049-0.37,0.143-0.82,0.281-1.352l0.898-3.52h0.703L181.82,254.894z"/>
			<path fill="#FFFFFF" d="M189.199,252.031c0,0.914-0.231,1.633-0.693,2.156c-0.463,0.523-1.105,0.785-1.928,0.785
				c-0.842,0-1.49-0.257-1.947-0.771s-0.686-1.24-0.686-2.178c0-0.93,0.229-1.65,0.688-2.162c0.458-0.512,1.109-0.768,1.953-0.768
				c0.82,0,1.461,0.261,1.922,0.781S189.199,251.114,189.199,252.031z M184.648,252.031c0,0.773,0.164,1.36,0.494,1.76
				c0.329,0.399,0.808,0.6,1.436,0.6c0.633,0,1.11-0.199,1.434-0.598c0.322-0.398,0.484-0.985,0.484-1.762
				c0-0.769-0.161-1.351-0.482-1.748c-0.322-0.397-0.798-0.596-1.428-0.596c-0.633,0-1.114,0.2-1.443,0.6
				C184.812,250.686,184.648,251.268,184.648,252.031z"/>
			<path fill="#FFFFFF" d="M191.137,252.519v2.375h-0.664v-5.711h1.566c0.7,0,1.218,0.134,1.553,0.402
				c0.334,0.269,0.502,0.672,0.502,1.211c0,0.755-0.383,1.266-1.148,1.531l1.551,2.566h-0.785l-1.383-2.375H191.137z
				 M191.137,251.949h0.91c0.469,0,0.812-0.093,1.031-0.279s0.328-0.466,0.328-0.838c0-0.378-0.111-0.649-0.334-0.816
				s-0.58-0.25-1.072-0.25h-0.863V251.949z"/>
			<path fill="#FFFFFF" d="M199.543,254.894h-0.781l-2.082-2.77l-0.598,0.531v2.238h-0.664v-5.711h0.664v2.832l2.59-2.832h0.785
				l-2.297,2.48L199.543,254.894z"/>
			<path fill="#FFFFFF" d="M203.551,253.375c0,0.503-0.183,0.895-0.547,1.176c-0.365,0.281-0.859,0.422-1.484,0.422
				c-0.678,0-1.198-0.087-1.562-0.262v-0.641c0.234,0.099,0.489,0.177,0.766,0.234c0.275,0.058,0.549,0.086,0.82,0.086
				c0.442,0,0.775-0.084,1-0.252c0.224-0.168,0.336-0.401,0.336-0.701c0-0.198-0.04-0.36-0.119-0.486
				c-0.08-0.126-0.213-0.243-0.398-0.35c-0.187-0.106-0.47-0.228-0.85-0.363c-0.531-0.19-0.911-0.415-1.139-0.676
				c-0.229-0.261-0.342-0.601-0.342-1.02c0-0.44,0.165-0.79,0.496-1.051c0.33-0.261,0.768-0.391,1.312-0.391
				c0.567,0,1.09,0.104,1.566,0.312l-0.207,0.578c-0.472-0.198-0.93-0.297-1.375-0.297c-0.352,0-0.627,0.075-0.824,0.227
				c-0.198,0.151-0.297,0.36-0.297,0.629c0,0.198,0.036,0.36,0.109,0.486c0.072,0.126,0.195,0.242,0.369,0.348
				c0.173,0.105,0.438,0.222,0.795,0.35c0.599,0.214,1.011,0.442,1.236,0.688C203.438,252.667,203.551,252.984,203.551,253.375z"/>
			<path fill="#FFFFFF" d="M209.055,254.894h-0.664v-2.688h-3.008v2.688h-0.664v-5.711h0.664v2.43h3.008v-2.43h0.664V254.894z"/>
			<path fill="#FFFFFF" d="M215.578,252.031c0,0.914-0.231,1.633-0.693,2.156s-1.104,0.785-1.928,0.785
				c-0.841,0-1.49-0.257-1.947-0.771s-0.686-1.24-0.686-2.178c0-0.93,0.229-1.65,0.688-2.162s1.109-0.768,1.953-0.768
				c0.82,0,1.461,0.261,1.922,0.781S215.578,251.114,215.578,252.031z M211.027,252.031c0,0.773,0.165,1.36,0.494,1.76
				s0.808,0.6,1.436,0.6c0.633,0,1.11-0.199,1.434-0.598s0.484-0.985,0.484-1.762c0-0.769-0.161-1.351-0.482-1.748
				s-0.798-0.596-1.428-0.596c-0.633,0-1.114,0.2-1.443,0.6S211.027,251.268,211.027,252.031z"/>
			<path fill="#FFFFFF" d="M220.473,250.847c0,0.578-0.197,1.022-0.592,1.334s-0.959,0.467-1.693,0.467h-0.672v2.246h-0.664v-5.711
				h1.48C219.759,249.183,220.473,249.738,220.473,250.847z M217.516,252.078h0.598c0.589,0,1.015-0.095,1.277-0.285
				s0.395-0.495,0.395-0.914c0-0.378-0.124-0.659-0.371-0.844s-0.633-0.277-1.156-0.277h-0.742V252.078z"/>
			<path fill="#FFFFFF" d="M224.891,253.375c0,0.503-0.183,0.895-0.547,1.176s-0.859,0.422-1.484,0.422
				c-0.677,0-1.198-0.087-1.562-0.262v-0.641c0.234,0.099,0.489,0.177,0.766,0.234s0.55,0.086,0.82,0.086
				c0.442,0,0.776-0.084,1-0.252s0.336-0.401,0.336-0.701c0-0.198-0.04-0.36-0.119-0.486s-0.212-0.243-0.398-0.35
				s-0.47-0.228-0.85-0.363c-0.531-0.19-0.911-0.415-1.139-0.676s-0.342-0.601-0.342-1.02c0-0.44,0.165-0.79,0.496-1.051
				s0.769-0.391,1.312-0.391c0.567,0,1.09,0.104,1.566,0.312l-0.207,0.578c-0.472-0.198-0.93-0.297-1.375-0.297
				c-0.352,0-0.626,0.075-0.824,0.227s-0.297,0.36-0.297,0.629c0,0.198,0.036,0.36,0.109,0.486s0.196,0.242,0.369,0.348
				s0.438,0.222,0.795,0.35c0.599,0.214,1.011,0.442,1.236,0.688S224.891,252.984,224.891,253.375z"/>
		</g>
	</g>
	<g>
		<rect x="117.117" y="269.805" fill="#30739C" width="247.582" height="27.046"/>
		<g>
			<path fill="#FFFFFF" d="M207.991,282.603c0,1.206-0.327,2.128-0.982,2.766c-0.654,0.638-1.597,0.957-2.825,0.957h-2.024v-7.306
				h2.239c1.136,0,2.019,0.315,2.648,0.944C207.676,280.594,207.991,281.474,207.991,282.603z M207.092,282.633
				c0-0.953-0.239-1.671-0.718-2.154c-0.478-0.482-1.188-0.725-2.131-0.725h-1.234v5.837h1.034c1.013,0,1.774-0.249,2.284-0.747
				S207.092,283.609,207.092,282.633z"/>
			<path fill="#FFFFFF" d="M213.692,286.326h-4.073v-7.306h4.073v0.755h-3.224v2.354h3.028v0.749h-3.028v2.688h3.224V286.326z"/>
			<path fill="#FFFFFF" d="M219.434,284.382c0,0.643-0.233,1.144-0.7,1.504c-0.466,0.359-1.099,0.539-1.898,0.539
				c-0.866,0-1.532-0.111-1.999-0.334v-0.82c0.3,0.127,0.627,0.227,0.979,0.3c0.354,0.073,0.703,0.11,1.05,0.11
				c0.566,0,0.992-0.107,1.279-0.322c0.286-0.215,0.43-0.514,0.43-0.897c0-0.253-0.051-0.46-0.152-0.622
				c-0.102-0.161-0.271-0.311-0.51-0.447c-0.238-0.136-0.601-0.291-1.087-0.464c-0.68-0.243-1.165-0.531-1.457-0.865
				c-0.291-0.333-0.437-0.768-0.437-1.304c0-0.562,0.211-1.011,0.634-1.344c0.424-0.334,0.983-0.5,1.68-0.5
				c0.726,0,1.394,0.133,2.003,0.399l-0.265,0.739c-0.603-0.253-1.189-0.379-1.759-0.379c-0.449,0-0.801,0.097-1.054,0.289
				c-0.254,0.193-0.38,0.462-0.38,0.805c0,0.253,0.046,0.461,0.14,0.622c0.093,0.162,0.251,0.31,0.472,0.445
				c0.222,0.135,0.561,0.283,1.018,0.447c0.766,0.272,1.293,0.565,1.581,0.879S219.434,283.882,219.434,284.382z"/>
			<path fill="#FFFFFF" d="M220.927,286.326v-7.306h0.85v7.306H220.927z"/>
			<path fill="#FFFFFF" d="M226.994,282.499h2.483v3.553c-0.387,0.123-0.78,0.216-1.18,0.279s-0.863,0.095-1.389,0.095
				c-1.106,0-1.968-0.328-2.584-0.986s-0.924-1.58-0.924-2.766c0-0.76,0.152-1.425,0.457-1.996s0.743-1.008,1.316-1.31
				s1.244-0.452,2.014-0.452c0.779,0,1.506,0.144,2.179,0.43l-0.33,0.749c-0.659-0.279-1.294-0.419-1.903-0.419
				c-0.89,0-1.584,0.265-2.084,0.794c-0.5,0.53-0.749,1.265-0.749,2.204c0,0.985,0.24,1.733,0.722,2.243s1.188,0.765,2.121,0.765
				c0.507,0,1.001-0.059,1.484-0.175v-2.249h-1.634V282.499z"/>
			<path fill="#FFFFFF" d="M236.938,286.326h-0.97l-3.992-6.131h-0.04c0.053,0.72,0.08,1.379,0.08,1.979v4.152h-0.785v-7.306h0.96
				l3.982,6.106h0.04c-0.007-0.09-0.021-0.379-0.045-0.867c-0.023-0.487-0.032-0.837-0.025-1.047v-4.192h0.795V286.326z"/>
			<path fill="#FFFFFF" d="M245.728,284.382c0,0.643-0.233,1.144-0.7,1.504c-0.466,0.359-1.099,0.539-1.898,0.539
				c-0.866,0-1.532-0.111-1.999-0.334v-0.82c0.3,0.127,0.627,0.227,0.979,0.3c0.354,0.073,0.703,0.11,1.05,0.11
				c0.566,0,0.992-0.107,1.279-0.322c0.286-0.215,0.43-0.514,0.43-0.897c0-0.253-0.051-0.46-0.152-0.622
				c-0.102-0.161-0.271-0.311-0.51-0.447c-0.238-0.136-0.601-0.291-1.087-0.464c-0.68-0.243-1.165-0.531-1.457-0.865
				c-0.291-0.333-0.437-0.768-0.437-1.304c0-0.562,0.211-1.011,0.634-1.344c0.424-0.334,0.983-0.5,1.68-0.5
				c0.726,0,1.394,0.133,2.003,0.399l-0.265,0.739c-0.603-0.253-1.189-0.379-1.759-0.379c-0.449,0-0.801,0.097-1.054,0.289
				c-0.254,0.193-0.38,0.462-0.38,0.805c0,0.253,0.046,0.461,0.14,0.622c0.093,0.162,0.251,0.31,0.472,0.445
				c0.222,0.135,0.561,0.283,1.018,0.447c0.766,0.272,1.293,0.565,1.581,0.879S245.728,283.882,245.728,284.382z"/>
			<path fill="#FFFFFF" d="M252.737,279.02v4.728c0,0.833-0.251,1.487-0.754,1.964c-0.503,0.476-1.194,0.714-2.074,0.714
				c-0.879,0-1.56-0.239-2.041-0.719c-0.481-0.48-0.722-1.14-0.722-1.979v-4.707h0.85v4.768c0,0.609,0.166,1.077,0.499,1.403
				c0.333,0.327,0.823,0.49,1.47,0.49c0.616,0,1.091-0.164,1.424-0.492s0.5-0.799,0.5-1.412v-4.757H252.737z"/>
			<path fill="#FFFFFF" d="M257.904,286.326l-2.479-6.476h-0.04c0.047,0.513,0.07,1.122,0.07,1.828v4.647h-0.785v-7.306h1.279
				l2.313,6.026h0.04l2.334-6.026h1.27v7.306h-0.85v-4.707c0-0.54,0.023-1.126,0.069-1.759h-0.04l-2.498,6.466H257.904z"/>
			<path fill="#FFFFFF" d="M267.144,286.326l-2.479-6.476h-0.04c0.047,0.513,0.07,1.122,0.07,1.828v4.647h-0.785v-7.306h1.279
				l2.313,6.026h0.04l2.334-6.026h1.27v7.306h-0.85v-4.707c0-0.54,0.023-1.126,0.069-1.759h-0.04l-2.498,6.466H267.144z"/>
			<path fill="#FFFFFF" d="M273.149,286.326v-7.306h0.85v7.306H273.149z"/>
			<path fill="#FFFFFF" d="M278.251,286.326h-0.85v-6.551h-2.313v-0.755h5.477v0.755h-2.313V286.326z"/>
		</g>
	</g>
	<g>
		<rect x="4.333" y="175.511" fill="#30739C" width="66.152" height="121.34"/>
		<g>
			<path fill="#FFFFFF" d="M34.155,271.237v1.787h-8.566v-4.91h1.488v3.123h2.209v-2.906h1.482v2.906H34.155z"/>
			<path fill="#FFFFFF" d="M25.589,259.465h5.543c0.633,0,1.188,0.142,1.664,0.425s0.842,0.692,1.096,1.228s0.381,1.168,0.381,1.898
				c0,1.102-0.282,1.957-0.847,2.566s-1.337,0.914-2.317,0.914h-5.52v-1.811h5.244c0.66,0,1.145-0.133,1.453-0.398
				s0.463-0.705,0.463-1.318c0-0.594-0.155-1.024-0.466-1.292s-0.798-0.401-1.462-0.401h-5.232V259.465z"/>
			<path fill="#FFFFFF" d="M34.155,257.368h-8.566v-1.816h7.066v-3.475h1.5V257.368z"/>
			<path fill="#FFFFFF" d="M34.155,250.588h-8.566v-1.816h7.066v-3.475h1.5V250.588z"/>
			<path fill="#FFFFFF" d="M34.155,235.448l-2.039,0.621v3.123l2.039,0.621v1.957l-8.602-3.023v-2.221l8.602-3.035V235.448z
				 M30.593,236.502c-1.848,0.574-2.893,0.897-3.135,0.97s-0.434,0.124-0.574,0.155c0.5,0.129,1.736,0.498,3.709,1.107V236.502z"/>
			<path fill="#FFFFFF" d="M26.978,228.774c0,0.684,0.257,1.213,0.771,1.588s1.229,0.562,2.147,0.562c1.91,0,2.865-0.717,2.865-2.15
				c0-0.602-0.15-1.33-0.451-2.186h1.523c0.293,0.703,0.439,1.488,0.439,2.355c0,1.246-0.378,2.199-1.134,2.859
				s-1.841,0.99-3.255,0.99c-0.891,0-1.671-0.162-2.341-0.486s-1.184-0.79-1.541-1.397s-0.536-1.319-0.536-2.136
				c0-0.832,0.201-1.668,0.604-2.508l1.477,0.586c-0.152,0.32-0.285,0.643-0.398,0.967S26.978,228.461,26.978,228.774z"/>
			<path fill="#FFFFFF" d="M26.978,221.127c0,0.684,0.257,1.213,0.771,1.588s1.229,0.562,2.147,0.562c1.91,0,2.865-0.717,2.865-2.15
				c0-0.602-0.15-1.33-0.451-2.186h1.523c0.293,0.703,0.439,1.488,0.439,2.355c0,1.246-0.378,2.199-1.134,2.859
				s-1.841,0.99-3.255,0.99c-0.891,0-1.671-0.162-2.341-0.486s-1.184-0.79-1.541-1.397s-0.536-1.319-0.536-2.136
				c0-0.832,0.201-1.668,0.604-2.508l1.477,0.586c-0.152,0.32-0.285,0.643-0.398,0.967S26.978,220.815,26.978,221.127z"/>
			<path fill="#FFFFFF" d="M34.155,212.186v4.934h-8.566v-4.934h1.488v3.117h1.881v-2.9h1.488v2.9h2.209v-3.117H34.155z"/>
			<path fill="#FFFFFF" d="M31.776,205.342c0.773,0,1.383,0.278,1.828,0.835s0.668,1.331,0.668,2.323
				c0,0.914-0.172,1.723-0.516,2.426h-1.688c0.258-0.578,0.439-1.067,0.545-1.468s0.158-0.767,0.158-1.099
				c0-0.398-0.076-0.704-0.229-0.917s-0.379-0.319-0.68-0.319c-0.168,0-0.317,0.047-0.448,0.141s-0.257,0.231-0.378,0.413
				s-0.314,0.552-0.58,1.11c-0.246,0.523-0.482,0.916-0.709,1.178s-0.49,0.471-0.791,0.627s-0.652,0.234-1.055,0.234
				c-0.758,0-1.354-0.257-1.787-0.771s-0.65-1.224-0.65-2.13c0-0.445,0.053-0.87,0.158-1.274s0.254-0.827,0.445-1.269l1.412,0.586
				c-0.188,0.457-0.318,0.835-0.393,1.134s-0.111,0.593-0.111,0.882c0,0.344,0.08,0.607,0.24,0.791s0.369,0.275,0.627,0.275
				c0.16,0,0.3-0.037,0.419-0.111s0.234-0.192,0.346-0.354s0.312-0.546,0.601-1.151c0.383-0.801,0.767-1.35,1.151-1.646
				S31.218,205.342,31.776,205.342z"/>
			<path fill="#FFFFFF" d="M31.776,198.733c0.773,0,1.383,0.278,1.828,0.835s0.668,1.331,0.668,2.323
				c0,0.914-0.172,1.723-0.516,2.426h-1.688c0.258-0.578,0.439-1.067,0.545-1.468s0.158-0.767,0.158-1.099
				c0-0.398-0.076-0.704-0.229-0.917s-0.379-0.319-0.68-0.319c-0.168,0-0.317,0.047-0.448,0.141s-0.257,0.231-0.378,0.413
				s-0.314,0.552-0.58,1.11c-0.246,0.523-0.482,0.916-0.709,1.178s-0.49,0.471-0.791,0.627s-0.652,0.234-1.055,0.234
				c-0.758,0-1.354-0.257-1.787-0.771s-0.65-1.224-0.65-2.13c0-0.445,0.053-0.87,0.158-1.274s0.254-0.827,0.445-1.269l1.412,0.586
				c-0.188,0.457-0.318,0.835-0.393,1.134s-0.111,0.593-0.111,0.882c0,0.344,0.08,0.607,0.24,0.791s0.369,0.275,0.627,0.275
				c0.16,0,0.3-0.037,0.419-0.111s0.234-0.192,0.346-0.354s0.312-0.546,0.601-1.151c0.383-0.801,0.767-1.35,1.151-1.646
				S31.218,198.733,31.776,198.733z"/>
			<path fill="#FFFFFF" d="M42.661,243.701c0.922,0,1.627,0.288,2.115,0.864s0.732,1.396,0.732,2.458v0.779h3.047v1.816h-8.566
				v-2.736c0-1.039,0.224-1.829,0.671-2.37S41.774,243.701,42.661,243.701z M44.02,247.802v-0.598c0-0.559-0.11-0.977-0.331-1.254
				s-0.542-0.416-0.964-0.416c-0.426,0-0.74,0.116-0.943,0.349s-0.305,0.597-0.305,1.093v0.826H44.02z"/>
			<path fill="#FFFFFF" d="M48.555,236.839l-2.039,0.621v3.123l2.039,0.621v1.957l-8.602-3.023v-2.221l8.602-3.035V236.839z
				 M44.993,237.894c-1.848,0.574-2.893,0.897-3.135,0.97s-0.434,0.124-0.574,0.155c0.5,0.129,1.736,0.498,3.709,1.107V237.894z"/>
			<path fill="#FFFFFF" d="M46.176,228.748c0.773,0,1.383,0.278,1.828,0.835s0.668,1.331,0.668,2.323
				c0,0.914-0.172,1.723-0.516,2.426h-1.688c0.258-0.578,0.439-1.067,0.545-1.468s0.158-0.767,0.158-1.099
				c0-0.398-0.076-0.704-0.229-0.917s-0.379-0.319-0.68-0.319c-0.168,0-0.317,0.047-0.448,0.141s-0.257,0.231-0.378,0.413
				s-0.314,0.552-0.58,1.11c-0.246,0.523-0.482,0.916-0.709,1.178s-0.49,0.471-0.791,0.627s-0.652,0.234-1.055,0.234
				c-0.758,0-1.354-0.257-1.787-0.771s-0.65-1.224-0.65-2.13c0-0.445,0.053-0.87,0.158-1.274s0.254-0.827,0.445-1.269l1.412,0.586
				c-0.188,0.457-0.318,0.835-0.393,1.134s-0.111,0.593-0.111,0.882c0,0.344,0.08,0.607,0.24,0.791s0.369,0.275,0.627,0.275
				c0.16,0,0.3-0.037,0.419-0.111s0.234-0.192,0.346-0.354s0.312-0.546,0.601-1.151c0.383-0.801,0.767-1.35,1.151-1.646
				S45.618,228.748,46.176,228.748z"/>
			<path fill="#FFFFFF" d="M46.176,222.138c0.773,0,1.383,0.278,1.828,0.835s0.668,1.331,0.668,2.323
				c0,0.914-0.172,1.723-0.516,2.426h-1.688c0.258-0.578,0.439-1.067,0.545-1.468s0.158-0.767,0.158-1.099
				c0-0.398-0.076-0.704-0.229-0.917s-0.379-0.319-0.68-0.319c-0.168,0-0.317,0.047-0.448,0.141s-0.257,0.231-0.378,0.413
				s-0.314,0.552-0.58,1.11c-0.246,0.523-0.482,0.916-0.709,1.178s-0.49,0.471-0.791,0.627s-0.652,0.234-1.055,0.234
				c-0.758,0-1.354-0.257-1.787-0.771s-0.65-1.224-0.65-2.13c0-0.445,0.053-0.87,0.158-1.274s0.254-0.827,0.445-1.269l1.412,0.586
				c-0.188,0.457-0.318,0.835-0.393,1.134s-0.111,0.593-0.111,0.882c0,0.344,0.08,0.607,0.24,0.791s0.369,0.275,0.627,0.275
				c0.16,0,0.3-0.037,0.419-0.111s0.234-0.192,0.346-0.354s0.312-0.546,0.601-1.151c0.383-0.801,0.767-1.35,1.151-1.646
				S45.618,222.138,46.176,222.138z"/>
		</g>
	</g>
	<g>
		<line fill="#888888" x1="117.117" y1="10.313" x2="117.117" y2="25.663"/>
		<rect x="116.617" y="10.313" fill="#888888" width="1" height="15.35"/>
	</g>
	<g>
		<line fill="#888888" x1="180.318" y1="10.313" x2="180.318" y2="25.663"/>
		<rect x="179.818" y="10.313" fill="#888888" width="1" height="15.35"/>
	</g>
	<g>
		<line fill="#888888" x1="243.521" y1="10.313" x2="243.521" y2="25.663"/>
		<rect x="243.021" y="10.313" fill="#888888" width="1" height="15.35"/>
	</g>
	<g>
		<line fill="#888888" x1="306.723" y1="10.313" x2="306.723" y2="25.663"/>
		<rect x="306.223" y="10.313" fill="#888888" width="1" height="15.35"/>
	</g>
	<g>
		<rect x="75.236" y="40.283" fill="#F15D22" width="105.082" height="27.045"/>
		<g>
			<path fill="#FFFFFF" d="M108.88,56.803h-1l-2.663-3.543l-0.765,0.68v2.863h-0.85v-7.305h0.85v3.622l3.312-3.622h1.005
				l-2.938,3.173L108.88,56.803z"/>
			<path fill="#FFFFFF" d="M113.956,56.803h-4.072v-7.305h4.072v0.754h-3.223v2.354h3.028v0.75h-3.028v2.688h3.223V56.803z"/>
			<path fill="#FFFFFF" d="M117.434,53.151l1.949-3.652h0.919l-2.438,4.472v2.833h-0.859V54.01l-2.434-4.512h0.93L117.434,53.151z"
				/>
			<path fill="#FFFFFF" d="M127.013,56.803h-0.97l-3.992-6.131h-0.04c0.054,0.72,0.08,1.379,0.08,1.979v4.152h-0.784v-7.305h0.959
				l3.982,6.105h0.04c-0.007-0.09-0.021-0.379-0.045-0.867c-0.023-0.487-0.031-0.837-0.025-1.046v-4.192h0.795V56.803z"/>
			<path fill="#FFFFFF" d="M135.362,53.141c0,1.169-0.295,2.088-0.887,2.758c-0.591,0.67-1.413,1.005-2.466,1.005
				c-1.076,0-1.906-0.329-2.491-0.987c-0.584-0.658-0.877-1.587-0.877-2.786c0-1.188,0.293-2.11,0.88-2.766
				c0.586-0.654,1.419-0.981,2.498-0.981c1.05,0,1.869,0.333,2.459,0.999C135.067,51.049,135.362,51.968,135.362,53.141z
				 M129.541,53.141c0,0.989,0.211,1.739,0.633,2.251c0.421,0.511,1.033,0.767,1.836,0.767c0.81,0,1.421-0.255,1.834-0.765
				s0.619-1.261,0.619-2.253c0-0.983-0.205-1.729-0.617-2.236c-0.411-0.508-1.02-0.762-1.826-0.762c-0.81,0-1.425,0.255-1.846,0.767
				C129.752,51.421,129.541,52.165,129.541,53.141z"/>
			<path fill="#FFFFFF" d="M139.24,56.803h-0.85v-6.551h-2.313v-0.754h5.477v0.754h-2.313V56.803z"/>
			<path fill="#FFFFFF" d="M146.726,56.803h-4.072v-7.305h4.072v0.754h-3.223v2.354h3.027v0.75h-3.027v2.688h3.223V56.803z"/>
			<path fill="#FFFFFF" d="M152.467,54.86c0,0.643-0.233,1.145-0.699,1.504c-0.467,0.359-1.1,0.54-1.899,0.54
				c-0.866,0-1.532-0.112-1.998-0.335V55.75c0.3,0.126,0.626,0.227,0.979,0.3c0.353,0.073,0.702,0.109,1.049,0.109
				c0.566,0,0.993-0.107,1.279-0.322s0.43-0.514,0.43-0.896c0-0.253-0.051-0.461-0.152-0.622c-0.102-0.162-0.271-0.311-0.51-0.447
				s-0.601-0.292-1.087-0.465c-0.68-0.243-1.165-0.531-1.456-0.864c-0.292-0.333-0.438-0.769-0.438-1.305
				c0-0.562,0.211-1.011,0.635-1.344c0.423-0.333,0.982-0.5,1.679-0.5c0.727,0,1.394,0.134,2.004,0.399l-0.265,0.74
				c-0.604-0.253-1.189-0.38-1.76-0.38c-0.449,0-0.801,0.097-1.054,0.29c-0.253,0.192-0.38,0.461-0.38,0.804
				c0,0.254,0.047,0.461,0.14,0.622c0.094,0.162,0.251,0.311,0.473,0.445s0.561,0.284,1.017,0.447
				c0.767,0.273,1.293,0.566,1.581,0.879C152.322,53.954,152.467,54.36,152.467,54.86z"/>
		</g>
	</g>
	<g>
		<rect x="75.236" y="71.714" fill="#F15D22" width="168.284" height="27.046"/>
		<g>
			<path fill="#FFFFFF" d="M137.937,88.235h-4.072V80.93h4.072v0.754h-3.223v2.354h3.028v0.75h-3.028v2.688h3.223V88.235z"/>
			<path fill="#FFFFFF" d="M144.418,88.235h-0.965l-1.964-3.213l-1.998,3.213h-0.899l2.428-3.817l-2.263-3.488h0.938l1.814,2.893
				l1.829-2.893h0.904l-2.264,3.458L144.418,88.235z"/>
			<path fill="#FFFFFF" d="M150.094,83.058c0,0.74-0.252,1.309-0.757,1.707s-1.227,0.597-2.166,0.597h-0.859v2.873h-0.85V80.93
				h1.894C149.182,80.93,150.094,81.639,150.094,83.058z M146.312,84.632h0.765c0.753,0,1.298-0.122,1.634-0.365
				c0.337-0.243,0.505-0.633,0.505-1.169c0-0.483-0.158-0.843-0.475-1.079c-0.316-0.237-0.81-0.355-1.479-0.355h-0.949V84.632z"/>
			<path fill="#FFFFFF" d="M157.964,84.572c0,1.169-0.295,2.088-0.887,2.758c-0.591,0.669-1.413,1.004-2.466,1.004
				c-1.076,0-1.906-0.329-2.491-0.987c-0.584-0.658-0.877-1.587-0.877-2.786c0-1.189,0.293-2.111,0.88-2.766
				c0.586-0.654,1.419-0.982,2.498-0.982c1.05,0,1.869,0.333,2.459,1C157.669,82.48,157.964,83.399,157.964,84.572z M152.143,84.572
				c0,0.989,0.211,1.74,0.633,2.251c0.421,0.511,1.033,0.767,1.836,0.767c0.81,0,1.421-0.255,1.834-0.765s0.619-1.261,0.619-2.253
				c0-0.983-0.205-1.728-0.617-2.236c-0.411-0.508-1.02-0.762-1.826-0.762c-0.81,0-1.425,0.255-1.846,0.767
				C152.354,82.853,152.143,83.596,152.143,84.572z"/>
			<path fill="#FFFFFF" d="M167.798,88.235h-0.85v-3.438h-3.847v3.438h-0.85V80.93h0.85v3.108h3.847V80.93h0.85V88.235z"/>
			<path fill="#FFFFFF" d="M174.394,88.235l-0.909-2.324h-2.929l-0.899,2.324h-0.859l2.889-7.335h0.714l2.874,7.335H174.394z
				 M173.22,85.147l-0.85-2.264c-0.11-0.287-0.224-0.638-0.34-1.054c-0.073,0.32-0.179,0.671-0.315,1.054l-0.859,2.264H173.22z"/>
			<path fill="#FFFFFF" d="M176.277,88.235V80.93h0.85v6.536h3.223v0.77H176.277z"/>
			<path fill="#FFFFFF" d="M181.589,88.235V80.93h0.85v6.536h3.223v0.77H181.589z"/>
		</g>
	</g>
	<g>
		<g>
			<polygon fill="#888888" points="244.521,131.191 241.521,131.191 241.521,129.191 242.521,129.191 242.521,128.191 
				244.521,128.191 			"/>
			<path fill="#888888" d="M237.514,131.191h-4.007v-2h4.007V131.191z M229.5,131.191h-4.007v-2h4.007V131.191z M221.486,131.191
				h-4.007v-2h4.007V131.191z M213.472,131.191h-4.007v-2h4.007V131.191z M205.458,131.191h-4.007v-2h4.007V131.191z
				 M197.444,131.191h-4.007v-2h4.007V131.191z M189.431,131.191h-4.007v-2h4.007V131.191z M181.417,131.191h-4.007v-2h4.007
				V131.191z M173.403,131.191h-4.007v-2h4.007V131.191z M165.389,131.191h-4.007v-2h4.007V131.191z M157.375,131.191h-4.007v-2
				h4.007V131.191z M149.361,131.191h-4.007v-2h4.007V131.191z M141.347,131.191h-4.007v-2h4.007V131.191z M133.333,131.191h-4.007
				v-2h4.007V131.191z M125.32,131.191h-4.007v-2h4.007V131.191z M117.306,131.191h-4.007v-2h4.007V131.191z M109.292,131.191
				h-4.007v-2h4.007V131.191z M101.278,131.191h-4.007v-2h4.007V131.191z M93.264,131.191h-4.007v-2h4.007V131.191z M85.25,131.191
				h-4.007v-2h4.007V131.191z"/>
			<polygon fill="#888888" points="77.236,131.191 74.236,131.191 74.236,128.191 76.236,128.191 76.236,129.191 77.236,129.191 			
				"/>
			<path fill="#888888" d="M76.236,123.582h-2v-4.609h2V123.582z M76.236,114.364h-2v-4.609h2V114.364z"/>
			<polygon fill="#888888" points="76.236,105.146 74.236,105.146 74.236,102.146 77.236,102.146 77.236,104.146 76.236,104.146 			
				"/>
			<path fill="#888888" d="M237.514,104.146h-4.007v-2h4.007V104.146z M229.5,104.146h-4.007v-2h4.007V104.146z M221.486,104.146
				h-4.007v-2h4.007V104.146z M213.472,104.146h-4.007v-2h4.007V104.146z M205.458,104.146h-4.007v-2h4.007V104.146z
				 M197.444,104.146h-4.007v-2h4.007V104.146z M189.43,104.146h-4.007v-2h4.007V104.146z M181.417,104.146h-4.007v-2h4.007V104.146
				z M173.403,104.146h-4.007v-2h4.007V104.146z M165.389,104.146h-4.007v-2h4.007V104.146z M157.375,104.146h-4.007v-2h4.007
				V104.146z M149.361,104.146h-4.007v-2h4.007V104.146z M141.347,104.146h-4.007v-2h4.007V104.146z M133.333,104.146h-4.007v-2
				h4.007V104.146z M125.319,104.146h-4.007v-2h4.007V104.146z M117.306,104.146h-4.007v-2h4.007V104.146z M109.292,104.146h-4.007
				v-2h4.007V104.146z M101.278,104.146h-4.007v-2h4.007V104.146z M93.264,104.146h-4.007v-2h4.007V104.146z M85.25,104.146h-4.007
				v-2h4.007V104.146z"/>
			<polygon fill="#888888" points="244.521,105.146 242.521,105.146 242.521,104.146 241.521,104.146 241.521,102.146 
				244.521,102.146 			"/>
			<path fill="#888888" d="M244.521,123.582h-2v-4.609h2V123.582z M244.521,114.363h-2v-4.609h2V114.363z"/>
		</g>
		<g>
			<g>
				<path fill="#888888" d="M128.888,119.667h-0.97l-3.992-6.131h-0.04c0.054,0.72,0.08,1.379,0.08,1.979v4.152h-0.784v-7.305h0.959
					l3.982,6.106h0.04c-0.007-0.09-0.021-0.379-0.045-0.867c-0.023-0.488-0.031-0.837-0.025-1.046v-4.192h0.795V119.667z"/>
				<path fill="#888888" d="M137.237,116.004c0,1.169-0.295,2.088-0.887,2.758c-0.591,0.669-1.413,1.004-2.466,1.004
					c-1.076,0-1.906-0.329-2.491-0.987c-0.584-0.658-0.877-1.587-0.877-2.786c0-1.189,0.293-2.111,0.88-2.766
					c0.586-0.654,1.419-0.982,2.498-0.982c1.05,0,1.869,0.333,2.459,1C136.942,113.912,137.237,114.831,137.237,116.004z
					 M131.416,116.004c0,0.989,0.211,1.74,0.633,2.251c0.421,0.511,1.033,0.767,1.836,0.767c0.81,0,1.421-0.255,1.834-0.765
					s0.619-1.261,0.619-2.253c0-0.983-0.205-1.728-0.617-2.236c-0.411-0.508-1.02-0.762-1.826-0.762
					c-0.81,0-1.425,0.255-1.846,0.767C131.627,114.284,131.416,115.028,131.416,116.004z"/>
				<path fill="#888888" d="M141.115,119.667h-0.85v-6.551h-2.313v-0.754h5.477v0.754h-2.313V119.667z"/>
				<path fill="#888888" d="M147.187,119.667v-7.305h0.85v7.305H147.187z"/>
				<path fill="#888888" d="M155.746,119.667h-0.97l-3.992-6.131h-0.04c0.053,0.72,0.08,1.379,0.08,1.979v4.152h-0.785v-7.305h0.96
					l3.982,6.106h0.04c-0.007-0.09-0.022-0.379-0.045-0.867c-0.023-0.488-0.032-0.837-0.025-1.046v-4.192h0.795V119.667z"/>
				<path fill="#888888" d="M160.883,113.016c-0.803,0-1.437,0.268-1.901,0.802s-0.697,1.267-0.697,2.196
					c0,0.956,0.224,1.695,0.672,2.216s1.087,0.782,1.917,0.782c0.509,0,1.091-0.091,1.743-0.274v0.744
					c-0.506,0.19-1.131,0.285-1.873,0.285c-1.076,0-1.907-0.327-2.491-0.979c-0.585-0.653-0.877-1.581-0.877-2.783
					c0-0.753,0.141-1.413,0.422-1.979c0.281-0.566,0.688-1.002,1.22-1.309c0.531-0.306,1.156-0.459,1.876-0.459
					c0.767,0,1.436,0.14,2.009,0.419l-0.359,0.729C161.988,113.146,161.436,113.016,160.883,113.016z"/>
				<path fill="#888888" d="M164.21,119.667v-7.305h0.85v6.536h3.223v0.77H164.21z"/>
				<path fill="#888888" d="M175.038,112.361v4.727c0,0.833-0.251,1.487-0.755,1.963c-0.503,0.477-1.193,0.715-2.073,0.715
					s-1.56-0.24-2.041-0.72s-0.723-1.139-0.723-1.979v-4.707h0.85v4.767c0,0.61,0.167,1.078,0.5,1.404s0.822,0.49,1.469,0.49
					c0.616,0,1.091-0.164,1.425-0.492c0.333-0.328,0.499-0.799,0.499-1.412v-4.757H175.038z"/>
				<path fill="#888888" d="M182.804,115.944c0,1.206-0.327,2.128-0.981,2.766c-0.655,0.638-1.597,0.957-2.826,0.957h-2.023v-7.305
					h2.238c1.136,0,2.019,0.314,2.648,0.944C182.489,113.935,182.804,114.814,182.804,115.944z M181.904,115.974
					c0-0.953-0.239-1.67-0.717-2.153c-0.479-0.483-1.188-0.725-2.132-0.725h-1.233v5.836h1.034c1.013,0,1.773-0.249,2.283-0.747
					S181.904,116.95,181.904,115.974z"/>
				<path fill="#888888" d="M188.505,119.667h-4.072v-7.305h4.072v0.754h-3.223v2.354h3.027v0.75h-3.027v2.688h3.223V119.667z"/>
				<path fill="#888888" d="M195.955,115.944c0,1.206-0.327,2.128-0.981,2.766c-0.655,0.638-1.597,0.957-2.826,0.957h-2.023v-7.305
					h2.238c1.136,0,2.019,0.314,2.648,0.944C195.641,113.935,195.955,114.814,195.955,115.944z M195.056,115.974
					c0-0.953-0.239-1.67-0.717-2.153c-0.479-0.483-1.188-0.725-2.132-0.725h-1.233v5.836h1.034c1.013,0,1.773-0.249,2.283-0.747
					S195.056,116.95,195.056,115.974z"/>
			</g>
		</g>
	</g>
	<g>
		<g>
			<polygon fill="#888888" points="365.698,162.623 362.698,162.623 362.698,160.623 363.698,160.623 363.698,159.623 
				365.698,159.623 			"/>
			<path fill="#888888" d="M358.705,162.623h-3.993v-2h3.993V162.623z M350.719,162.623h-3.993v-2h3.993V162.623z M342.732,162.623
				h-3.993v-2h3.993V162.623z M334.746,162.623h-3.993v-2h3.993V162.623z M326.76,162.623h-3.993v-2h3.993V162.623z
				 M318.773,162.623h-3.993v-2h3.993V162.623z M310.787,162.623h-3.993v-2h3.993V162.623z M302.801,162.623h-3.993v-2h3.993
				V162.623z M294.814,162.623h-3.993v-2h3.993V162.623z M286.828,162.623h-3.993v-2h3.993V162.623z M278.843,162.623h-3.993v-2
				h3.993V162.623z M270.856,162.623h-3.993v-2h3.993V162.623z M262.87,162.623h-3.993v-2h3.993V162.623z M254.883,162.623h-3.993
				v-2h3.993V162.623z M246.897,162.623h-3.993v-2h3.993V162.623z M238.911,162.623h-3.993v-2h3.993V162.623z M230.925,162.623
				h-3.993v-2h3.993V162.623z M222.938,162.623h-3.993v-2h3.993V162.623z M214.952,162.623h-3.993v-2h3.993V162.623z
				 M206.966,162.623h-3.993v-2h3.993V162.623z M198.979,162.623h-3.993v-2h3.993V162.623z M190.993,162.623H187v-2h3.993V162.623z
				 M183.007,162.623h-3.993v-2h3.993V162.623z M175.021,162.623h-3.993v-2h3.993V162.623z M167.034,162.623h-3.993v-2h3.993
				V162.623z M159.048,162.623h-3.993v-2h3.993V162.623z M151.062,162.623h-3.993v-2h3.993V162.623z M143.076,162.623h-3.993v-2
				h3.993V162.623z M135.089,162.623h-3.993v-2h3.993V162.623z M127.103,162.623h-3.993v-2h3.993V162.623z"/>
			<polygon fill="#888888" points="119.117,162.623 116.117,162.623 116.117,159.623 118.117,159.623 118.117,160.623 
				119.117,160.623 			"/>
			<path fill="#888888" d="M118.117,155.013h-2v-4.609h2V155.013z M118.117,145.794h-2v-4.608h2V145.794z"/>
			<polygon fill="#888888" points="118.117,136.577 116.117,136.577 116.117,133.577 119.117,133.577 119.117,135.577 
				118.117,135.577 			"/>
			<path fill="#888888" d="M358.705,135.577h-3.993v-2h3.993V135.577z M350.719,135.577h-3.993v-2h3.993V135.577z M342.732,135.577
				h-3.993v-2h3.993V135.577z M334.746,135.577h-3.993v-2h3.993V135.577z M326.76,135.577h-3.993v-2h3.993V135.577z
				 M318.773,135.577h-3.993v-2h3.993V135.577z M310.787,135.577h-3.993v-2h3.993V135.577z M302.801,135.577h-3.993v-2h3.993
				V135.577z M294.814,135.577h-3.993v-2h3.993V135.577z M286.828,135.577h-3.993v-2h3.993V135.577z M278.842,135.577h-3.993v-2
				h3.993V135.577z M270.856,135.577h-3.993v-2h3.993V135.577z M262.87,135.577h-3.993v-2h3.993V135.577z M254.883,135.577h-3.993
				v-2h3.993V135.577z M246.897,135.577h-3.993v-2h3.993V135.577z M238.911,135.577h-3.993v-2h3.993V135.577z M230.925,135.577
				h-3.993v-2h3.993V135.577z M222.938,135.577h-3.993v-2h3.993V135.577z M214.952,135.577h-3.993v-2h3.993V135.577z
				 M206.966,135.577h-3.993v-2h3.993V135.577z M198.979,135.577h-3.993v-2h3.993V135.577z M190.993,135.577H187v-2h3.993V135.577z
				 M183.007,135.577h-3.993v-2h3.993V135.577z M175.021,135.577h-3.993v-2h3.993V135.577z M167.034,135.577h-3.993v-2h3.993
				V135.577z M159.048,135.577h-3.993v-2h3.993V135.577z M151.062,135.577h-3.993v-2h3.993V135.577z M143.076,135.577h-3.993v-2
				h3.993V135.577z M135.089,135.577h-3.993v-2h3.993V135.577z M127.103,135.577h-3.993v-2h3.993V135.577z"/>
			<polygon fill="#888888" points="365.698,136.577 363.698,136.577 363.698,135.577 362.698,135.577 362.698,133.577 
				365.698,133.577 			"/>
			<path fill="#888888" d="M365.698,155.013h-2v-4.608h2V155.013z M365.698,145.795h-2v-4.609h2V145.795z"/>
		</g>
		<g>
			<path fill="#888888" d="M210.417,151.097h-0.97l-3.992-6.131h-0.04c0.053,0.72,0.08,1.379,0.08,1.979v4.152h-0.785v-7.306h0.96
				l3.982,6.106h0.04c-0.007-0.09-0.021-0.379-0.045-0.867c-0.023-0.487-0.032-0.837-0.025-1.047v-4.192h0.795V151.097z"/>
			<path fill="#888888" d="M218.767,147.434c0,1.17-0.296,2.089-0.888,2.759c-0.591,0.67-1.413,1.004-2.466,1.004
				c-1.076,0-1.906-0.328-2.49-0.986c-0.585-0.658-0.877-1.587-0.877-2.786c0-1.189,0.293-2.111,0.879-2.766
				s1.419-0.981,2.499-0.981c1.049,0,1.868,0.333,2.458,0.999S218.767,146.262,218.767,147.434z M212.945,147.434
				c0,0.99,0.21,1.74,0.632,2.252c0.421,0.511,1.033,0.767,1.836,0.767c0.81,0,1.421-0.255,1.834-0.765s0.62-1.261,0.62-2.254
				c0-0.982-0.206-1.728-0.617-2.235c-0.412-0.508-1.021-0.763-1.826-0.763c-0.81,0-1.426,0.256-1.847,0.768
				C213.155,145.714,212.945,146.458,212.945,147.434z"/>
			<path fill="#888888" d="M222.644,151.097h-0.85v-6.551h-2.313v-0.755h5.477v0.755h-2.313V151.097z"/>
			<path fill="#888888" d="M228.715,151.097v-7.306h0.85v7.306H228.715z"/>
			<path fill="#888888" d="M237.275,151.097h-0.97l-3.992-6.131h-0.04c0.053,0.72,0.08,1.379,0.08,1.979v4.152h-0.785v-7.306h0.96
				l3.982,6.106h0.04c-0.007-0.09-0.021-0.379-0.045-0.867c-0.023-0.487-0.032-0.837-0.025-1.047v-4.192h0.795V151.097z"/>
			<path fill="#888888" d="M242.412,144.447c-0.804,0-1.438,0.267-1.901,0.802c-0.465,0.534-0.697,1.267-0.697,2.196
				c0,0.956,0.224,1.694,0.672,2.216s1.087,0.782,1.916,0.782c0.51,0,1.091-0.092,1.744-0.275v0.745
				c-0.506,0.189-1.131,0.284-1.874,0.284c-1.076,0-1.906-0.326-2.49-0.979c-0.585-0.652-0.877-1.58-0.877-2.783
				c0-0.752,0.141-1.412,0.422-1.979s0.688-1.003,1.219-1.309c0.532-0.307,1.157-0.46,1.877-0.46c0.766,0,1.436,0.14,2.009,0.42
				l-0.36,0.729C243.518,144.577,242.965,144.447,242.412,144.447z"/>
			<path fill="#888888" d="M245.739,151.097v-7.306h0.85v6.536h3.224v0.77H245.739z"/>
			<path fill="#888888" d="M256.567,143.792v4.728c0,0.833-0.251,1.487-0.754,1.964c-0.503,0.476-1.194,0.714-2.074,0.714
				c-0.879,0-1.56-0.239-2.041-0.719c-0.481-0.48-0.722-1.14-0.722-1.979v-4.707h0.85v4.768c0,0.609,0.166,1.077,0.499,1.403
				c0.333,0.327,0.823,0.49,1.47,0.49c0.616,0,1.091-0.164,1.424-0.492s0.5-0.799,0.5-1.412v-4.757H256.567z"/>
			<path fill="#888888" d="M264.333,147.375c0,1.206-0.327,2.128-0.982,2.766c-0.654,0.638-1.597,0.957-2.825,0.957h-2.024v-7.306
				h2.239c1.136,0,2.019,0.315,2.648,0.944C264.018,145.366,264.333,146.246,264.333,147.375z M263.434,147.405
				c0-0.953-0.239-1.671-0.718-2.154c-0.478-0.482-1.188-0.725-2.131-0.725h-1.234v5.837h1.034c1.013,0,1.774-0.249,2.284-0.747
				S263.434,148.38,263.434,147.405z"/>
			<path fill="#888888" d="M270.034,151.097h-4.073v-7.306h4.073v0.755h-3.224v2.354h3.028v0.749h-3.028v2.688h3.224V151.097z"/>
			<path fill="#888888" d="M277.484,147.375c0,1.206-0.327,2.128-0.982,2.766c-0.654,0.638-1.597,0.957-2.825,0.957h-2.024v-7.306
				h2.239c1.136,0,2.019,0.315,2.648,0.944C277.169,145.366,277.484,146.246,277.484,147.375z M276.585,147.405
				c0-0.953-0.239-1.671-0.718-2.154c-0.478-0.482-1.188-0.725-2.131-0.725h-1.234v5.837h1.034c1.013,0,1.774-0.249,2.284-0.747
				S276.585,148.38,276.585,147.405z"/>
		</g>
	</g>
	<g>
		<path fill="#2A4F68" d="M77.114,21.277l-3.148-8.227h-0.051c0.06,0.652,0.089,1.426,0.089,2.323v5.903h-0.996v-9.28h1.625
			l2.938,7.655h0.051l2.965-7.655h1.612v9.28H81.12v-5.979c0-0.686,0.029-1.43,0.089-2.234h-0.051l-3.174,8.214H77.114z"/>
		<path fill="#2A4F68" d="M90.591,17.792c0,1.134-0.286,2.02-0.857,2.657c-0.571,0.637-1.36,0.955-2.367,0.955
			c-0.622,0-1.175-0.146-1.657-0.438s-0.854-0.711-1.117-1.257c-0.262-0.546-0.394-1.185-0.394-1.917
			c0-1.134,0.284-2.018,0.851-2.65c0.567-0.633,1.354-0.949,2.361-0.949c0.974,0,1.747,0.324,2.32,0.971
			S90.591,16.688,90.591,17.792z M85.29,17.792c0,0.889,0.178,1.566,0.533,2.031s0.878,0.698,1.568,0.698
			c0.689,0,1.213-0.232,1.571-0.695c0.357-0.464,0.536-1.142,0.536-2.035c0-0.884-0.179-1.556-0.536-2.015
			c-0.358-0.459-0.886-0.689-1.584-0.689c-0.69,0-1.211,0.227-1.562,0.679C85.466,16.22,85.29,16.895,85.29,17.792z"/>
		<path fill="#2A4F68" d="M97.198,21.277v-4.5c0-0.567-0.129-0.99-0.387-1.27c-0.259-0.279-0.662-0.419-1.213-0.419
			c-0.728,0-1.261,0.197-1.6,0.59c-0.338,0.394-0.508,1.043-0.508,1.949v3.65h-1.054V14.32h0.857l0.171,0.952h0.051
			c0.216-0.343,0.519-0.608,0.908-0.797c0.389-0.188,0.823-0.282,1.301-0.282c0.838,0,1.469,0.202,1.892,0.606
			c0.424,0.404,0.635,1.05,0.635,1.939v4.539H97.198z"/>
	</g>
	<g>
		<path fill="#2A4F68" d="M141.618,21.277h-1.079v-8.322H137.6v-0.958h6.957v0.958h-2.939V21.277z"/>
		<path fill="#2A4F68" d="M146.785,14.32v4.513c0,0.567,0.129,0.99,0.387,1.27s0.662,0.419,1.212,0.419
			c0.728,0,1.26-0.199,1.597-0.597c0.336-0.398,0.504-1.047,0.504-1.949V14.32h1.054v6.957h-0.87l-0.152-0.933h-0.057
			c-0.216,0.343-0.515,0.605-0.898,0.787c-0.383,0.182-0.82,0.273-1.311,0.273c-0.846,0-1.48-0.201-1.901-0.603
			c-0.421-0.402-0.632-1.045-0.632-1.93V14.32H146.785z"/>
		<path fill="#2A4F68" d="M156.712,21.404c-1.028,0-1.84-0.313-2.434-0.939c-0.595-0.626-0.892-1.496-0.892-2.609
			c0-1.122,0.276-2.012,0.829-2.672c0.552-0.66,1.293-0.99,2.225-0.99c0.872,0,1.562,0.287,2.069,0.86
			c0.508,0.573,0.762,1.33,0.762,2.269v0.667h-4.792c0.021,0.817,0.228,1.437,0.619,1.86c0.392,0.423,0.943,0.635,1.654,0.635
			c0.749,0,1.49-0.157,2.222-0.47v0.939c-0.373,0.161-0.725,0.276-1.057,0.346C157.583,21.369,157.182,21.404,156.712,21.404z
			 M156.427,15.075c-0.559,0-1.004,0.182-1.336,0.546c-0.333,0.364-0.528,0.868-0.587,1.511h3.637c0-0.665-0.148-1.173-0.444-1.527
			C157.4,15.252,156.977,15.075,156.427,15.075z"/>
	</g>
	<g>
		<path fill="#2A4F68" d="M207.647,21.277h-1.066l-1.872-6.214c-0.089-0.275-0.188-0.622-0.298-1.041
			c-0.11-0.419-0.168-0.671-0.172-0.755c-0.093,0.559-0.241,1.17-0.444,1.834l-1.815,6.176h-1.066l-2.469-9.28h1.143l1.466,5.732
			c0.203,0.804,0.352,1.532,0.444,2.184c0.114-0.774,0.283-1.532,0.508-2.272l1.663-5.643h1.143l1.745,5.694
			c0.203,0.656,0.375,1.396,0.515,2.222c0.08-0.601,0.232-1.333,0.457-2.196l1.46-5.719h1.143L207.647,21.277z"/>
		<path fill="#2A4F68" d="M214.364,21.404c-1.029,0-1.84-0.313-2.435-0.939s-0.892-1.496-0.892-2.609
			c0-1.122,0.275-2.012,0.828-2.672c0.552-0.66,1.294-0.99,2.225-0.99c0.872,0,1.562,0.287,2.069,0.86
			c0.508,0.573,0.762,1.33,0.762,2.269v0.667h-4.792c0.021,0.817,0.227,1.437,0.618,1.86s0.942,0.635,1.653,0.635
			c0.75,0,1.49-0.157,2.223-0.47v0.939c-0.373,0.161-0.726,0.276-1.058,0.346C215.234,21.369,214.833,21.404,214.364,21.404z
			 M214.078,15.075c-0.559,0-1.004,0.182-1.336,0.546s-0.528,0.868-0.587,1.511h3.637c0-0.665-0.148-1.173-0.444-1.527
			C215.051,15.252,214.627,15.075,214.078,15.075z"/>
		<path fill="#2A4F68" d="M223.453,20.344h-0.058c-0.486,0.707-1.214,1.06-2.184,1.06c-0.909,0-1.617-0.311-2.123-0.933
			s-0.758-1.506-0.758-2.653s0.254-2.038,0.762-2.672s1.214-0.952,2.119-0.952c0.944,0,1.668,0.343,2.172,1.028h0.082l-0.045-0.501
			l-0.025-0.489V11.4h1.055v9.877h-0.857L223.453,20.344z M221.345,20.521c0.72,0,1.241-0.196,1.564-0.587
			c0.324-0.391,0.485-1.023,0.485-1.895v-0.222c0-0.986-0.163-1.689-0.491-2.111c-0.328-0.421-0.852-0.631-1.571-0.631
			c-0.618,0-1.091,0.24-1.419,0.72c-0.328,0.48-0.491,1.159-0.491,2.035c0,0.889,0.162,1.56,0.488,2.012
			S220.714,20.521,221.345,20.521z"/>
	</g>
	<g>
		<path fill="#2A4F68" d="M267.679,21.277h-1.08v-8.322h-2.938v-0.958h6.957v0.958h-2.938V21.277z"/>
		<path fill="#2A4F68" d="M276.616,21.277v-4.5c0-0.567-0.129-0.99-0.388-1.27c-0.258-0.279-0.662-0.419-1.212-0.419
			c-0.732,0-1.267,0.199-1.603,0.597c-0.337,0.398-0.505,1.049-0.505,1.955v3.637h-1.054V11.4h1.054v2.99
			c0,0.36-0.017,0.658-0.051,0.895h0.063c0.207-0.334,0.503-0.598,0.886-0.79c0.383-0.193,0.819-0.289,1.311-0.289
			c0.851,0,1.488,0.202,1.914,0.606c0.425,0.404,0.638,1.046,0.638,1.926v4.539H276.616z"/>
		<path fill="#2A4F68" d="M280.824,14.32v4.513c0,0.567,0.129,0.99,0.387,1.27c0.259,0.279,0.663,0.419,1.213,0.419
			c0.728,0,1.26-0.199,1.597-0.597c0.336-0.398,0.505-1.047,0.505-1.949V14.32h1.053v6.957h-0.869l-0.152-0.933H284.5
			c-0.217,0.343-0.516,0.605-0.898,0.787s-0.82,0.273-1.311,0.273c-0.847,0-1.48-0.201-1.901-0.603s-0.632-1.045-0.632-1.93V14.32
			H280.824z"/>
	</g>
	<g>
		<path fill="#2A4F68" d="M333.026,21.277h-1.08v-9.28h5.174v0.958h-4.094v3.396h3.846v0.958h-3.846V21.277z"/>
		<path fill="#2A4F68" d="M341.671,14.193c0.309,0,0.586,0.025,0.832,0.076l-0.146,0.978c-0.288-0.063-0.542-0.095-0.762-0.095
			c-0.562,0-1.044,0.229-1.444,0.686c-0.399,0.457-0.6,1.026-0.6,1.708v3.732h-1.054V14.32h0.869l0.121,1.289h0.051
			c0.258-0.453,0.569-0.802,0.934-1.047C340.835,14.315,341.235,14.193,341.671,14.193z"/>
		<path fill="#2A4F68" d="M343.715,12.435c0-0.241,0.06-0.418,0.178-0.53c0.118-0.112,0.267-0.168,0.444-0.168
			c0.169,0,0.315,0.057,0.438,0.171c0.123,0.114,0.185,0.29,0.185,0.527s-0.062,0.414-0.185,0.53
			c-0.122,0.117-0.269,0.175-0.438,0.175c-0.178,0-0.326-0.058-0.444-0.175C343.774,12.848,343.715,12.671,343.715,12.435z
			 M344.857,21.277h-1.054V14.32h1.054V21.277z"/>
	</g>
	<g>
		<rect x="4.333" y="40.283" fill="#F15D22" width="66.152" height="121.34"/>
		<g>
			<path fill="#FFFFFF" d="M28.015,125.543v2.062l-3.609,2.244l0.551,0.768h3.059v1.816h-8.566v-1.816h3.92l-1.008-0.715
				l-2.912-2.32v-2.016l3.791,2.988L28.015,125.543z"/>
			<path fill="#FFFFFF" d="M28.015,119.532v4.934h-8.566v-4.934h1.488v3.117h1.881v-2.9h1.488v2.9h2.209v-3.117H28.015z"/>
			<path fill="#FFFFFF" d="M22.976,115.079l-3.527-1.787v-1.957l5.232,2.842h3.334v1.805H24.74l-5.291,2.842v-1.969L22.976,115.079z
				"/>
			<path fill="#FFFFFF" d="M28.015,102.657v2.309l-6.48,3.727v0.053c1.145-0.074,1.961-0.111,2.449-0.111h4.031v1.623h-8.566v-2.291
				l6.416-3.721v-0.041c-1.113,0.059-1.9,0.088-2.361,0.088h-4.055v-1.635H28.015z"/>
			<path fill="#FFFFFF" d="M23.72,92.725c1.418,0,2.508,0.352,3.27,1.055s1.143,1.711,1.143,3.023s-0.381,2.32-1.143,3.023
				s-1.855,1.055-3.281,1.055s-2.515-0.353-3.267-1.058s-1.128-1.716-1.128-3.032s0.379-2.323,1.137-3.021
				S22.298,92.725,23.72,92.725z M23.72,98.977c0.957,0,1.678-0.182,2.162-0.545s0.727-0.906,0.727-1.629
				c0-1.449-0.963-2.174-2.889-2.174c-1.93,0-2.895,0.721-2.895,2.162c0,0.723,0.243,1.268,0.729,1.635S22.763,98.977,23.72,98.977z
				"/>
			<path fill="#FFFFFF" d="M28.015,87.645v1.816H20.96v2.326h-1.512v-6.469h1.512v2.326H28.015z"/>
			<path fill="#FFFFFF" d="M28.015,79.067V84h-8.566v-4.934h1.488v3.117h1.881v-2.9h1.488v2.9h2.209v-3.117H28.015z"/>
			<path fill="#FFFFFF" d="M24.429,72.458v2.268h-1.283v-2.268h-2.285v-1.283h2.285v-2.268h1.283v2.268h2.256v1.283H24.429z"/>
			<path fill="#FFFFFF" d="M42.415,139.304l-6.721,2.062v0.053c1.367-0.074,2.279-0.111,2.736-0.111h3.984v1.623h-8.566v-2.473
				l6.551-2.027v-0.035l-6.551-2.15v-2.473h8.566v1.693H38.36c-0.191,0-0.412-0.003-0.662-0.009s-0.914-0.032-1.992-0.079v0.053
				l6.709,2.209V139.304z"/>
			<path fill="#FFFFFF" d="M42.415,126.373l-2.039,0.621v3.123l2.039,0.621v1.957l-8.602-3.023v-2.221l8.602-3.035V126.373z
				 M38.853,127.427c-1.848,0.574-2.893,0.897-3.135,0.97s-0.434,0.124-0.574,0.155c0.5,0.129,1.736,0.498,3.709,1.107V127.427z"/>
			<path fill="#FFFFFF" d="M39.128,121.521h3.287v1.816h-8.566v-2.496c0-1.164,0.212-2.025,0.636-2.584s1.067-0.838,1.931-0.838
				c0.504,0,0.952,0.139,1.345,0.416s0.7,0.67,0.923,1.178c1.926-1.289,3.17-2.129,3.732-2.52v2.016l-3.287,2.045V121.521z
				 M37.651,121.521v-0.586c0-0.574-0.096-0.998-0.287-1.271s-0.492-0.41-0.902-0.41c-0.406,0-0.695,0.14-0.867,0.419
				s-0.258,0.712-0.258,1.298v0.551H37.651z"/>
			<path fill="#FFFFFF" d="M42.415,108.525v2.062l-3.609,2.244l0.551,0.768h3.059v1.816h-8.566v-1.816h3.92l-1.008-0.715
				l-2.912-2.32v-2.016l3.791,2.988L42.415,108.525z"/>
			<path fill="#FFFFFF" d="M42.415,102.513v4.934h-8.566v-4.934h1.488v3.117h1.881v-2.9h1.488v2.9h2.209v-3.117H42.415z"/>
			<path fill="#FFFFFF" d="M42.415,97.421v1.816H35.36v2.326h-1.512v-6.469h1.512v2.326H42.415z"/>
			<path fill="#FFFFFF" d="M36.521,87.859c0.922,0,1.627,0.288,2.115,0.864s0.732,1.396,0.732,2.458v0.779h3.047v1.816h-8.566
				v-2.736c0-1.039,0.224-1.829,0.671-2.37S35.634,87.859,36.521,87.859z M37.88,91.96v-0.598c0-0.559-0.11-0.977-0.331-1.254
				s-0.542-0.416-0.964-0.416c-0.426,0-0.74,0.116-0.943,0.349s-0.305,0.597-0.305,1.093v0.826H37.88z"/>
			<path fill="#FFFFFF" d="M42.415,86.242h-8.566v-1.816h7.066v-3.475h1.5V86.242z"/>
			<path fill="#FFFFFF" d="M42.415,74.218l-2.039,0.621v3.123l2.039,0.621v1.957l-8.602-3.023v-2.221l8.602-3.035V74.218z
				 M38.853,75.273c-1.848,0.574-2.893,0.897-3.135,0.97s-0.434,0.124-0.574,0.155c0.5,0.129,1.736,0.498,3.709,1.107V75.273z"/>
			<path fill="#FFFFFF" d="M35.237,67.544c0,0.684,0.257,1.213,0.771,1.588s1.229,0.562,2.147,0.562c1.91,0,2.865-0.717,2.865-2.15
				c0-0.602-0.15-1.33-0.451-2.186h1.523c0.293,0.703,0.439,1.488,0.439,2.355c0,1.246-0.378,2.199-1.134,2.859
				s-1.841,0.99-3.255,0.99c-0.891,0-1.671-0.162-2.341-0.486s-1.184-0.79-1.541-1.397s-0.536-1.319-0.536-2.136
				c0-0.832,0.201-1.668,0.604-2.508l1.477,0.586c-0.152,0.32-0.285,0.643-0.398,0.967S35.237,67.232,35.237,67.544z"/>
			<path fill="#FFFFFF" d="M42.415,58.603v4.934h-8.566v-4.934h1.488v3.117h1.881v-2.9h1.488v2.9h2.209v-3.117H42.415z"/>
			<path fill="#FFFFFF" d="M50.92,108.472c0.922,0,1.627,0.288,2.115,0.864s0.732,1.396,0.732,2.458v0.779h3.047v1.816h-8.566
				v-2.736c0-1.039,0.224-1.829,0.671-2.37S50.034,108.472,50.92,108.472z M52.28,112.574v-0.598c0-0.559-0.11-0.977-0.331-1.254
				s-0.542-0.416-0.964-0.416c-0.426,0-0.74,0.116-0.943,0.349s-0.305,0.597-0.305,1.093v0.826H52.28z"/>
			<path fill="#FFFFFF" d="M56.815,101.611l-2.039,0.621v3.123l2.039,0.621v1.957l-8.602-3.023v-2.221l8.602-3.035V101.611z
				 M53.252,102.666c-1.848,0.574-2.893,0.897-3.135,0.97s-0.434,0.124-0.574,0.155c0.5,0.129,1.736,0.498,3.709,1.107V102.666z"/>
			<path fill="#FFFFFF" d="M54.436,93.519c0.773,0,1.383,0.278,1.828,0.835s0.668,1.331,0.668,2.323
				c0,0.914-0.172,1.723-0.516,2.426h-1.688c0.258-0.578,0.439-1.067,0.545-1.468s0.158-0.767,0.158-1.099
				c0-0.398-0.076-0.704-0.229-0.917s-0.379-0.319-0.68-0.319c-0.168,0-0.317,0.047-0.448,0.141s-0.257,0.231-0.378,0.413
				s-0.314,0.552-0.58,1.11c-0.246,0.523-0.482,0.916-0.709,1.178s-0.49,0.471-0.791,0.627s-0.652,0.234-1.055,0.234
				c-0.758,0-1.354-0.257-1.787-0.771s-0.65-1.224-0.65-2.13c0-0.445,0.053-0.87,0.158-1.274s0.254-0.827,0.445-1.269l1.412,0.586
				c-0.188,0.457-0.318,0.835-0.393,1.134s-0.111,0.593-0.111,0.882c0,0.344,0.08,0.607,0.24,0.791s0.369,0.275,0.627,0.275
				c0.16,0,0.3-0.037,0.419-0.111s0.234-0.192,0.346-0.354s0.312-0.546,0.601-1.151c0.383-0.801,0.767-1.35,1.151-1.646
				S53.877,93.519,54.436,93.519z"/>
			<path fill="#FFFFFF" d="M54.436,86.91c0.773,0,1.383,0.278,1.828,0.835s0.668,1.331,0.668,2.323c0,0.914-0.172,1.723-0.516,2.426
				h-1.688c0.258-0.578,0.439-1.067,0.545-1.468s0.158-0.767,0.158-1.099c0-0.398-0.076-0.704-0.229-0.917s-0.379-0.319-0.68-0.319
				c-0.168,0-0.317,0.047-0.448,0.141s-0.257,0.231-0.378,0.413s-0.314,0.552-0.58,1.11c-0.246,0.523-0.482,0.916-0.709,1.178
				s-0.49,0.471-0.791,0.627s-0.652,0.234-1.055,0.234c-0.758,0-1.354-0.257-1.787-0.771s-0.65-1.224-0.65-2.13
				c0-0.445,0.053-0.87,0.158-1.274s0.254-0.827,0.445-1.269l1.412,0.586c-0.188,0.457-0.318,0.835-0.393,1.134
				s-0.111,0.593-0.111,0.882c0,0.344,0.08,0.607,0.24,0.791s0.369,0.275,0.627,0.275c0.16,0,0.3-0.037,0.419-0.111
				s0.234-0.192,0.346-0.354s0.312-0.546,0.601-1.151c0.383-0.801,0.767-1.35,1.151-1.646S53.877,86.91,54.436,86.91z"/>
		</g>
	</g>
</g>
</svg>
