<?xml version="1.0" encoding="utf-8"?>
<!-- Generator: Adobe Illustrator 16.0.4, SVG Export Plug-In . SVG Version: 6.00 Build 0)  -->
<!DOCTYPE svg PUBLIC "-//W3C//DTD SVG 1.1//EN" "http://www.w3.org/Graphics/SVG/1.1/DTD/svg11.dtd">
<svg version="1.1" id="Layer_1" xmlns="http://www.w3.org/2000/svg" xmlns:xlink="http://www.w3.org/1999/xlink" x="0px" y="0px"
	 width="367.403px" height="107.995px" viewBox="0 0 367.403 107.995" enable-background="new 0 0 367.403 107.995"
	 xml:space="preserve">
<path fill="#AAB5BD" d="M110.378,69.405h-3c0-25.072-20.397-45.469-45.469-45.469S16.441,44.333,16.441,69.405h-3
	c0-26.726,21.743-48.469,48.469-48.469S110.378,42.679,110.378,69.405z"/>
<path fill="#F1624F" d="M16.441,69.405h-3c0-26.726,21.743-48.469,48.469-48.469c11.599,0,22.822,4.162,31.602,11.719l-1.957,2.273
	C83.319,27.84,72.791,23.936,61.91,23.936C36.838,23.936,16.441,44.333,16.441,69.405z"/>
<g>
	<circle fill="#F1624F" cx="91.632" cy="33.527" r="5.062"/>
</g>
<g>
	<g>
		<path fill="#F1624F" d="M51.502,61.78H49.39v-4.313h-3.958v4.313h-2.119v-9.994h2.119v3.917h3.958v-3.917h2.112V61.78z"/>
		<path fill="#F1624F" d="M54.025,61.78v-9.994h2.119v9.994H54.025z"/>
		<path fill="#F1624F" d="M62.454,56.168h3.965v5.182c-0.643,0.209-1.248,0.356-1.815,0.441s-1.147,0.126-1.74,0.126
			c-1.508,0-2.66-0.443-3.456-1.33s-1.193-2.159-1.193-3.818c0-1.613,0.461-2.871,1.384-3.773s2.202-1.354,3.838-1.354
			c1.025,0,2.014,0.205,2.967,0.615l-0.704,1.695c-0.729-0.365-1.488-0.547-2.276-0.547c-0.916,0-1.65,0.308-2.201,0.923
			s-0.827,1.442-0.827,2.481c0,1.084,0.222,1.913,0.667,2.485s1.09,0.858,1.938,0.858c0.442,0,0.891-0.045,1.347-0.137v-2.085
			h-1.894V56.168z"/>
		<path fill="#F1624F" d="M76.987,61.78h-2.112v-4.313h-3.958v4.313h-2.119v-9.994h2.119v3.917h3.958v-3.917h2.112V61.78z"/>
	</g>
</g>
<g>
	<path fill="#AAB5BD" d="M18.521,91.905h-5.173v-9.28h5.173v0.958h-4.094v2.99h3.847v0.952h-3.847v3.415h4.094V91.905z"/>
	<path fill="#AAB5BD" d="M22.095,88.344l-2.418-3.396h1.2l1.834,2.666l1.828-2.666h1.187l-2.418,3.396l2.545,3.561H24.66
		l-1.949-2.818l-1.968,2.818H19.55L22.095,88.344z"/>
	<path fill="#AAB5BD" d="M30.468,92.032c-0.453,0-0.866-0.084-1.241-0.251c-0.374-0.167-0.688-0.424-0.942-0.771h-0.076
		c0.051,0.406,0.076,0.791,0.076,1.154v2.863H27.23v-10.08h0.857l0.146,0.952h0.051c0.271-0.381,0.586-0.656,0.946-0.825
		s0.772-0.254,1.238-0.254c0.922,0,1.635,0.315,2.136,0.946c0.502,0.63,0.752,1.515,0.752,2.653c0,1.143-0.255,2.03-0.765,2.663
		C32.081,91.716,31.374,92.032,30.468,92.032z M30.315,85.716c-0.711,0-1.225,0.197-1.542,0.59s-0.48,1.02-0.489,1.879v0.235
		c0,0.978,0.163,1.676,0.489,2.098c0.326,0.421,0.849,0.631,1.568,0.631c0.601,0,1.072-0.242,1.412-0.729
		c0.341-0.487,0.511-1.157,0.511-2.012c0-0.868-0.17-1.533-0.511-1.997C31.413,85.948,30.933,85.716,30.315,85.716z"/>
	<path fill="#AAB5BD" d="M38.136,92.032c-1.028,0-1.84-0.312-2.434-0.939c-0.595-0.627-0.892-1.496-0.892-2.609
		c0-1.122,0.276-2.012,0.829-2.672c0.552-0.66,1.293-0.99,2.225-0.99c0.872,0,1.562,0.287,2.069,0.86
		c0.508,0.573,0.762,1.33,0.762,2.269v0.667h-4.792c0.021,0.817,0.228,1.437,0.619,1.86c0.392,0.423,0.943,0.635,1.654,0.635
		c0.749,0,1.49-0.157,2.222-0.471v0.939c-0.373,0.161-0.725,0.276-1.057,0.347C39.006,91.997,38.605,92.032,38.136,92.032z
		 M37.85,85.704c-0.559,0-1.004,0.182-1.336,0.546c-0.333,0.364-0.528,0.868-0.587,1.511h3.637c0-0.665-0.148-1.173-0.444-1.527
		C38.823,85.88,38.4,85.704,37.85,85.704z"/>
	<path fill="#AAB5BD" d="M45.664,84.821c0.309,0,0.586,0.025,0.832,0.076l-0.146,0.978c-0.288-0.063-0.542-0.095-0.762-0.095
		c-0.563,0-1.044,0.229-1.444,0.686c-0.399,0.457-0.6,1.026-0.6,1.708v3.732H42.49v-6.957h0.87l0.121,1.289h0.051
		c0.258-0.453,0.569-0.802,0.933-1.047S45.228,84.821,45.664,84.821z"/>
	<path fill="#AAB5BD" d="M47.708,83.063c0-0.241,0.059-0.418,0.178-0.53c0.119-0.112,0.267-0.168,0.444-0.168
		c0.169,0,0.315,0.057,0.438,0.171s0.184,0.29,0.184,0.527s-0.062,0.414-0.184,0.53c-0.123,0.117-0.269,0.175-0.438,0.175
		c-0.178,0-0.326-0.058-0.444-0.175C47.767,83.477,47.708,83.3,47.708,83.063z M48.851,91.905h-1.054v-6.957h1.054V91.905z"/>
	<path fill="#AAB5BD" d="M54.024,92.032c-1.028,0-1.84-0.312-2.434-0.939c-0.595-0.627-0.892-1.496-0.892-2.609
		c0-1.122,0.276-2.012,0.829-2.672c0.552-0.66,1.293-0.99,2.225-0.99c0.872,0,1.562,0.287,2.069,0.86
		c0.508,0.573,0.762,1.33,0.762,2.269v0.667H51.79c0.021,0.817,0.228,1.437,0.619,1.86c0.392,0.423,0.943,0.635,1.654,0.635
		c0.749,0,1.49-0.157,2.222-0.471v0.939c-0.373,0.161-0.725,0.276-1.057,0.347C54.895,91.997,54.494,92.032,54.024,92.032z
		 M53.738,85.704c-0.559,0-1.004,0.182-1.336,0.546c-0.333,0.364-0.528,0.868-0.587,1.511h3.637c0-0.665-0.148-1.173-0.444-1.527
		C54.711,85.88,54.289,85.704,53.738,85.704z"/>
	<path fill="#AAB5BD" d="M63.139,91.905v-4.5c0-0.567-0.129-0.99-0.387-1.27s-0.662-0.419-1.212-0.419
		c-0.728,0-1.261,0.197-1.6,0.59s-0.508,1.043-0.508,1.949v3.65h-1.054v-6.957h0.857l0.171,0.952h0.051
		c0.216-0.343,0.519-0.608,0.908-0.797c0.389-0.188,0.823-0.282,1.301-0.282c0.838,0,1.468,0.202,1.892,0.606
		c0.423,0.404,0.635,1.05,0.635,1.939v4.539H63.139z"/>
	<path fill="#AAB5BD" d="M69.138,92.032c-1.007,0-1.787-0.311-2.339-0.93c-0.553-0.62-0.829-1.497-0.829-2.631
		c0-1.164,0.28-2.063,0.841-2.698c0.561-0.635,1.359-0.952,2.396-0.952c0.334,0,0.668,0.036,1.003,0.108s0.597,0.157,0.787,0.254
		l-0.324,0.895c-0.233-0.093-0.487-0.17-0.762-0.231c-0.275-0.062-0.519-0.092-0.73-0.092c-1.414,0-2.12,0.901-2.12,2.704
		c0,0.855,0.172,1.511,0.517,1.968c0.345,0.457,0.856,0.686,1.533,0.686c0.58,0,1.174-0.125,1.784-0.375v0.934
		C70.431,91.911,69.844,92.032,69.138,92.032z"/>
	<path fill="#AAB5BD" d="M75.485,92.032c-1.028,0-1.84-0.312-2.434-0.939c-0.595-0.627-0.892-1.496-0.892-2.609
		c0-1.122,0.276-2.012,0.829-2.672c0.552-0.66,1.293-0.99,2.225-0.99c0.872,0,1.562,0.287,2.069,0.86
		c0.508,0.573,0.762,1.33,0.762,2.269v0.667h-4.792c0.021,0.817,0.228,1.437,0.619,1.86c0.392,0.423,0.943,0.635,1.654,0.635
		c0.749,0,1.49-0.157,2.222-0.471v0.939c-0.373,0.161-0.725,0.276-1.057,0.347C76.356,91.997,75.955,92.032,75.485,92.032z
		 M75.2,85.704c-0.559,0-1.004,0.182-1.336,0.546c-0.333,0.364-0.528,0.868-0.587,1.511h3.637c0-0.665-0.148-1.173-0.444-1.527
		C76.173,85.88,75.75,85.704,75.2,85.704z"/>
	<path fill="#AAB5BD" d="M83.375,91.905v-9.28h1.079v8.303h4.094v0.978H83.375z"/>
	<path fill="#AAB5BD" d="M92.903,92.032c-1.028,0-1.84-0.312-2.434-0.939c-0.595-0.627-0.892-1.496-0.892-2.609
		c0-1.122,0.276-2.012,0.829-2.672c0.552-0.66,1.293-0.99,2.225-0.99c0.872,0,1.562,0.287,2.069,0.86
		c0.508,0.573,0.762,1.33,0.762,2.269v0.667h-4.792c0.021,0.817,0.228,1.437,0.619,1.86c0.392,0.423,0.943,0.635,1.654,0.635
		c0.749,0,1.49-0.157,2.222-0.471v0.939c-0.373,0.161-0.725,0.276-1.057,0.347C93.774,91.997,93.373,92.032,92.903,92.032z
		 M92.618,85.704c-0.559,0-1.004,0.182-1.336,0.546c-0.333,0.364-0.528,0.868-0.587,1.511h3.637c0-0.665-0.148-1.173-0.444-1.527
		C93.591,85.88,93.168,85.704,92.618,85.704z"/>
	<path fill="#AAB5BD" d="M98.781,91.905l-2.641-6.957h1.13l1.498,4.126c0.338,0.965,0.538,1.591,0.597,1.879h0.051
		c0.046-0.224,0.193-0.688,0.441-1.394c0.247-0.704,0.803-2.242,1.666-4.611h1.13l-2.641,6.957H98.781z"/>
	<path fill="#AAB5BD" d="M106.709,92.032c-1.028,0-1.84-0.312-2.434-0.939c-0.595-0.627-0.892-1.496-0.892-2.609
		c0-1.122,0.276-2.012,0.829-2.672c0.552-0.66,1.293-0.99,2.225-0.99c0.872,0,1.562,0.287,2.069,0.86
		c0.508,0.573,0.762,1.33,0.762,2.269v0.667h-4.792c0.021,0.817,0.228,1.437,0.619,1.86c0.392,0.423,0.943,0.635,1.654,0.635
		c0.749,0,1.49-0.157,2.222-0.471v0.939c-0.373,0.161-0.725,0.276-1.057,0.347C107.58,91.997,107.179,92.032,106.709,92.032z
		 M106.424,85.704c-0.559,0-1.004,0.182-1.336,0.546c-0.333,0.364-0.528,0.868-0.587,1.511h3.637c0-0.665-0.148-1.173-0.444-1.527
		C107.397,85.88,106.974,85.704,106.424,85.704z"/>
	<path fill="#AAB5BD" d="M112.118,91.905h-1.054v-9.877h1.054V91.905z"/>
</g>
<g>
	<path fill="#AAB5BD" d="M216.549,85.329c0,0.939-0.32,1.662-0.962,2.168c-0.641,0.505-1.559,0.758-2.752,0.758h-1.092v3.65h-1.078
		v-9.28h2.405C215.39,82.625,216.549,83.526,216.549,85.329z M211.743,87.329h0.972c0.956,0,1.648-0.154,2.075-0.463
		c0.428-0.309,0.642-0.804,0.642-1.485c0-0.614-0.201-1.071-0.603-1.371c-0.402-0.3-1.029-0.451-1.879-0.451h-1.207V87.329z"/>
	<path fill="#AAB5BD" d="M222.61,91.905l-0.209-0.99h-0.051c-0.348,0.436-0.693,0.73-1.037,0.886
		c-0.346,0.154-0.776,0.231-1.293,0.231c-0.689,0-1.23-0.178-1.621-0.533c-0.392-0.355-0.588-0.861-0.588-1.518
		c0-1.404,1.124-2.141,3.371-2.208l1.181-0.038v-0.432c0-0.546-0.118-0.949-0.353-1.209c-0.234-0.26-0.61-0.39-1.127-0.39
		c-0.579,0-1.235,0.178-1.967,0.533l-0.324-0.806c0.343-0.186,0.719-0.332,1.127-0.438s0.817-0.159,1.229-0.159
		c0.829,0,1.443,0.184,1.844,0.552s0.6,0.958,0.6,1.771v4.748H222.61z M220.23,91.163c0.655,0,1.171-0.18,1.546-0.54
		s0.562-0.863,0.562-1.511v-0.628l-1.054,0.044c-0.838,0.03-1.441,0.16-1.812,0.391c-0.37,0.23-0.555,0.589-0.555,1.076
		c0,0.381,0.115,0.67,0.346,0.869S219.815,91.163,220.23,91.163z"/>
	<path fill="#AAB5BD" d="M230.05,90.007c0,0.648-0.24,1.147-0.723,1.498c-0.482,0.352-1.16,0.527-2.031,0.527
		c-0.923,0-1.643-0.146-2.158-0.438v-0.979c0.334,0.17,0.692,0.303,1.075,0.4c0.384,0.098,0.753,0.146,1.108,0.146
		c0.55,0,0.973-0.088,1.27-0.264c0.296-0.176,0.443-0.443,0.443-0.803c0-0.271-0.117-0.503-0.352-0.695
		c-0.235-0.193-0.693-0.42-1.375-0.683c-0.646-0.241-1.107-0.452-1.38-0.632c-0.273-0.18-0.477-0.384-0.609-0.612
		c-0.134-0.229-0.2-0.501-0.2-0.819c0-0.567,0.23-1.015,0.691-1.342c0.462-0.328,1.094-0.492,1.898-0.492
		c0.749,0,1.48,0.152,2.196,0.457l-0.374,0.857c-0.699-0.288-1.332-0.432-1.898-0.432c-0.5,0-0.876,0.078-1.13,0.235
		s-0.381,0.373-0.381,0.647c0,0.186,0.048,0.345,0.143,0.476c0.096,0.131,0.249,0.256,0.46,0.375
		c0.212,0.119,0.618,0.29,1.219,0.514c0.826,0.3,1.383,0.603,1.673,0.908S230.05,89.546,230.05,90.007z"/>
	<path fill="#AAB5BD" d="M236.252,90.007c0,0.648-0.241,1.147-0.724,1.498c-0.482,0.352-1.16,0.527-2.031,0.527
		c-0.922,0-1.643-0.146-2.158-0.438v-0.979c0.334,0.17,0.693,0.303,1.076,0.4s0.752,0.146,1.107,0.146
		c0.551,0,0.973-0.088,1.27-0.264s0.444-0.443,0.444-0.803c0-0.271-0.118-0.503-0.353-0.695c-0.234-0.193-0.693-0.42-1.374-0.683
		c-0.647-0.241-1.108-0.452-1.38-0.632c-0.273-0.18-0.477-0.384-0.609-0.612c-0.135-0.229-0.201-0.501-0.201-0.819
		c0-0.567,0.23-1.015,0.692-1.342c0.462-0.328,1.094-0.492,1.897-0.492c0.75,0,1.481,0.152,2.197,0.457l-0.375,0.857
		c-0.698-0.288-1.331-0.432-1.898-0.432c-0.499,0-0.875,0.078-1.129,0.235s-0.381,0.373-0.381,0.647
		c0,0.186,0.047,0.345,0.143,0.476s0.248,0.256,0.46,0.375s0.618,0.29,1.219,0.514c0.825,0.3,1.383,0.603,1.673,0.908
		C236.106,89.163,236.252,89.546,236.252,90.007z"/>
	<path fill="#AAB5BD" d="M240.905,92.032c-1.029,0-1.84-0.312-2.435-0.939s-0.892-1.496-0.892-2.609
		c0-1.122,0.275-2.012,0.828-2.672c0.552-0.66,1.293-0.99,2.225-0.99c0.871,0,1.562,0.287,2.069,0.86
		c0.508,0.573,0.762,1.33,0.762,2.269v0.667h-4.792c0.021,0.817,0.227,1.437,0.618,1.86c0.392,0.423,0.942,0.635,1.653,0.635
		c0.75,0,1.49-0.157,2.223-0.471v0.939c-0.373,0.161-0.725,0.276-1.058,0.347C241.775,91.997,241.374,92.032,240.905,92.032z
		 M240.619,85.704c-0.559,0-1.004,0.182-1.336,0.546c-0.333,0.364-0.528,0.868-0.587,1.511h3.637c0-0.665-0.148-1.173-0.444-1.527
		C241.593,85.88,241.169,85.704,240.619,85.704z"/>
	<path fill="#AAB5BD" d="M249.747,90.007c0,0.648-0.241,1.147-0.724,1.498c-0.482,0.352-1.159,0.527-2.031,0.527
		c-0.923,0-1.642-0.146-2.158-0.438v-0.979c0.335,0.17,0.692,0.303,1.075,0.4c0.384,0.098,0.753,0.146,1.108,0.146
		c0.55,0,0.974-0.088,1.27-0.264s0.444-0.443,0.444-0.803c0-0.271-0.117-0.503-0.352-0.695c-0.236-0.193-0.693-0.42-1.375-0.683
		c-0.647-0.241-1.107-0.452-1.381-0.632c-0.273-0.18-0.477-0.384-0.609-0.612s-0.199-0.501-0.199-0.819
		c0-0.567,0.23-1.015,0.691-1.342c0.461-0.328,1.094-0.492,1.898-0.492c0.748,0,1.48,0.152,2.195,0.457l-0.374,0.857
		c-0.698-0.288-1.331-0.432-1.897-0.432c-0.5,0-0.877,0.078-1.131,0.235s-0.381,0.373-0.381,0.647c0,0.186,0.049,0.345,0.143,0.476
		c0.096,0.131,0.25,0.256,0.461,0.375s0.617,0.29,1.219,0.514c0.825,0.3,1.383,0.603,1.672,0.908
		C249.603,89.163,249.747,89.546,249.747,90.007z"/>
	<path fill="#AAB5BD" d="M260.83,91.905l-1.155-2.952h-3.72l-1.143,2.952h-1.092l3.669-9.318h0.908l3.649,9.318H260.83z
		 M259.339,87.982l-1.08-2.875c-0.139-0.364-0.283-0.811-0.432-1.339c-0.093,0.406-0.227,0.853-0.399,1.339l-1.092,2.875H259.339z"
		/>
	<path fill="#AAB5BD" d="M265.845,92.032c-1.008,0-1.787-0.311-2.339-0.93c-0.553-0.62-0.829-1.497-0.829-2.631
		c0-1.164,0.281-2.063,0.842-2.698s1.359-0.952,2.396-0.952c0.334,0,0.668,0.036,1.002,0.108c0.335,0.072,0.598,0.157,0.787,0.254
		l-0.323,0.895c-0.233-0.093-0.487-0.17-0.762-0.231c-0.274-0.062-0.519-0.092-0.729-0.092c-1.414,0-2.121,0.901-2.121,2.704
		c0,0.855,0.173,1.511,0.518,1.968c0.346,0.457,0.855,0.686,1.533,0.686c0.58,0,1.174-0.125,1.783-0.375v0.934
		C267.138,91.911,266.552,92.032,265.845,92.032z"/>
	<path fill="#AAB5BD" d="M272.034,92.032c-1.008,0-1.787-0.311-2.34-0.93c-0.553-0.62-0.828-1.497-0.828-2.631
		c0-1.164,0.28-2.063,0.842-2.698c0.561-0.635,1.359-0.952,2.396-0.952c0.335,0,0.669,0.036,1.003,0.108s0.597,0.157,0.787,0.254
		l-0.324,0.895c-0.232-0.093-0.486-0.17-0.762-0.231c-0.274-0.062-0.518-0.092-0.729-0.092c-1.413,0-2.12,0.901-2.12,2.704
		c0,0.855,0.172,1.511,0.518,1.968c0.345,0.457,0.855,0.686,1.533,0.686c0.579,0,1.174-0.125,1.783-0.375v0.934
		C273.327,91.911,272.74,92.032,272.034,92.032z"/>
	<path fill="#AAB5BD" d="M278.382,92.032c-1.029,0-1.84-0.312-2.435-0.939s-0.892-1.496-0.892-2.609
		c0-1.122,0.275-2.012,0.828-2.672c0.552-0.66,1.293-0.99,2.225-0.99c0.871,0,1.562,0.287,2.069,0.86
		c0.508,0.573,0.762,1.33,0.762,2.269v0.667h-4.792c0.021,0.817,0.227,1.437,0.618,1.86c0.392,0.423,0.942,0.635,1.653,0.635
		c0.75,0,1.49-0.157,2.223-0.471v0.939c-0.373,0.161-0.725,0.276-1.058,0.347C279.252,91.997,278.851,92.032,278.382,92.032z
		 M278.096,85.704c-0.559,0-1.004,0.182-1.336,0.546c-0.333,0.364-0.528,0.868-0.587,1.511h3.637c0-0.665-0.148-1.173-0.444-1.527
		C279.069,85.88,278.646,85.704,278.096,85.704z"/>
	<path fill="#AAB5BD" d="M285.974,92.032c-0.453,0-0.867-0.084-1.242-0.251c-0.373-0.167-0.688-0.424-0.941-0.771h-0.076
		c0.051,0.406,0.076,0.791,0.076,1.154v2.863h-1.055v-10.08h0.857l0.146,0.952h0.051c0.271-0.381,0.586-0.656,0.945-0.825
		s0.772-0.254,1.238-0.254c0.922,0,1.635,0.315,2.135,0.946c0.502,0.63,0.753,1.515,0.753,2.653c0,1.143-0.255,2.03-0.765,2.663
		S286.879,92.032,285.974,92.032z M285.821,85.716c-0.711,0-1.226,0.197-1.543,0.59s-0.48,1.02-0.488,1.879v0.235
		c0,0.978,0.162,1.676,0.488,2.098c0.326,0.421,0.849,0.631,1.568,0.631c0.601,0,1.071-0.242,1.412-0.729
		c0.34-0.487,0.511-1.157,0.511-2.012c0-0.868-0.171-1.533-0.511-1.997C286.918,85.948,286.438,85.716,285.821,85.716z"/>
	<path fill="#AAB5BD" d="M292.949,91.163c0.187,0,0.366-0.014,0.54-0.042c0.173-0.027,0.311-0.056,0.412-0.085v0.806
		c-0.114,0.056-0.282,0.101-0.505,0.137c-0.222,0.036-0.422,0.054-0.6,0.054c-1.346,0-2.019-0.709-2.019-2.127v-4.138h-0.996v-0.508
		l0.996-0.438l0.444-1.485h0.609v1.612h2.019v0.819h-2.019v4.094c0,0.419,0.1,0.741,0.298,0.965
		C292.329,91.05,292.603,91.163,292.949,91.163z"/>
	<path fill="#AAB5BD" d="M298.23,92.032c-1.028,0-1.84-0.312-2.435-0.939c-0.594-0.627-0.892-1.496-0.892-2.609
		c0-1.122,0.276-2.012,0.829-2.672c0.551-0.66,1.293-0.99,2.225-0.99c0.871,0,1.561,0.287,2.068,0.86
		c0.508,0.573,0.762,1.33,0.762,2.269v0.667h-4.792c0.021,0.817,0.228,1.437,0.618,1.86c0.393,0.423,0.943,0.635,1.654,0.635
		c0.749,0,1.49-0.157,2.222-0.471v0.939c-0.372,0.161-0.725,0.276-1.058,0.347C299.101,91.997,298.7,92.032,298.23,92.032z
		 M297.944,85.704c-0.559,0-1.004,0.182-1.336,0.546s-0.527,0.868-0.587,1.511h3.638c0-0.665-0.148-1.173-0.445-1.527
		C298.918,85.88,298.495,85.704,297.944,85.704z"/>
	<path fill="#AAB5BD" d="M307.32,90.972h-0.058c-0.486,0.707-1.214,1.061-2.184,1.061c-0.909,0-1.617-0.311-2.123-0.934
		c-0.506-0.621-0.758-1.506-0.758-2.653s0.254-2.038,0.762-2.672s1.214-0.952,2.119-0.952c0.944,0,1.668,0.343,2.172,1.028h0.082
		l-0.045-0.501l-0.025-0.489v-2.831h1.055v9.877h-0.857L307.32,90.972z M305.213,91.149c0.72,0,1.241-0.195,1.564-0.587
		c0.324-0.392,0.485-1.022,0.485-1.895v-0.222c0-0.986-0.164-1.689-0.491-2.111c-0.328-0.421-0.853-0.631-1.571-0.631
		c-0.617,0-1.091,0.24-1.419,0.72c-0.327,0.48-0.491,1.159-0.491,2.035c0,0.889,0.162,1.56,0.488,2.012
		S304.583,91.149,305.213,91.149z"/>
</g>
<g>
	<g>
		<g>
			<g>
				<path fill="#AAB5BD" d="M191.37,60.625h-2.406l-2.618-4.211l-0.896,0.643v3.568h-2.119v-9.994h2.119v4.573l0.834-1.176
					l2.707-3.397h2.352l-3.486,4.423L191.37,60.625z"/>
				<path fill="#AAB5BD" d="M198.384,60.625h-5.756v-9.994h5.756v1.736h-3.637v2.194h3.384v1.736h-3.384v2.577h3.637V60.625z"/>
				<path fill="#AAB5BD" d="M203.579,54.746l2.085-4.115h2.283l-3.315,6.104v3.89h-2.105v-3.821l-3.315-6.173h2.297L203.579,54.746z
					"/>
				<path fill="#AAB5BD" d="M218.071,60.625h-2.693l-4.348-7.561h-0.062c0.087,1.335,0.13,2.288,0.13,2.857v4.703h-1.894v-9.994
					h2.673l4.341,7.485h0.048c-0.068-1.299-0.103-2.217-0.103-2.755v-4.73h1.907V60.625z"/>
				<path fill="#AAB5BD" d="M229.658,55.614c0,1.654-0.41,2.926-1.23,3.814s-1.996,1.333-3.527,1.333s-2.707-0.444-3.527-1.333
					s-1.23-2.165-1.23-3.828s0.411-2.934,1.233-3.811c0.823-0.877,2.002-1.316,3.538-1.316s2.71,0.442,3.524,1.326
					C229.251,52.684,229.658,53.956,229.658,55.614z M222.364,55.614c0,1.117,0.212,1.958,0.636,2.522s1.058,0.848,1.9,0.848
					c1.69,0,2.536-1.124,2.536-3.37c0-2.251-0.841-3.377-2.522-3.377c-0.843,0-1.479,0.284-1.907,0.851
					S222.364,54.498,222.364,55.614z"/>
				<path fill="#AAB5BD" d="M235.585,60.625h-2.119v-8.23h-2.714v-1.764h7.547v1.764h-2.714V60.625z"/>
				<path fill="#AAB5BD" d="M245.593,60.625h-5.756v-9.994h5.756v1.736h-3.637v2.194h3.384v1.736h-3.384v2.577h3.637V60.625z"/>
				<path fill="#AAB5BD" d="M253.304,56.441h-2.646v-1.497h2.646v-2.666h1.497v2.666h2.646v1.497h-2.646v2.632h-1.497V56.441z"/>
				<path fill="#AAB5BD" d="M267.174,60.625l-2.406-7.841h-0.062c0.087,1.595,0.13,2.659,0.13,3.192v4.648h-1.894v-9.994h2.885
					l2.365,7.643h0.041l2.509-7.643h2.885v9.994h-1.976v-4.73c0-0.223,0.004-0.481,0.01-0.772c0.008-0.292,0.038-1.066,0.093-2.324
					h-0.062l-2.577,7.827H267.174z"/>
				<path fill="#AAB5BD" d="M282.261,60.625l-0.725-2.379h-3.644l-0.725,2.379h-2.283l3.527-10.035h2.591l3.541,10.035H282.261z
					 M281.03,56.469c-0.67-2.156-1.047-3.375-1.132-3.657c-0.084-0.283-0.145-0.506-0.181-0.67c-0.15,0.583-0.581,2.026-1.292,4.327
					H281.03z"/>
				<path fill="#AAB5BD" d="M287.921,56.79v3.835h-2.119v-9.994h2.912c1.358,0,2.363,0.247,3.015,0.742s0.978,1.245,0.978,2.252
					c0,0.588-0.162,1.111-0.485,1.569s-0.781,0.817-1.374,1.077c1.504,2.247,2.483,3.698,2.939,4.354h-2.352l-2.386-3.835H287.921z
					 M287.921,55.067h0.684c0.67,0,1.164-0.112,1.483-0.335s0.479-0.574,0.479-1.053c0-0.474-0.163-0.811-0.489-1.012
					c-0.325-0.201-0.83-0.301-1.514-0.301h-0.643V55.067z"/>
				<path fill="#AAB5BD" d="M303.083,60.625h-2.406l-2.618-4.211l-0.896,0.643v3.568h-2.119v-9.994h2.119v4.573l0.834-1.176
					l2.707-3.397h2.352l-3.486,4.423L303.083,60.625z"/>
				<path fill="#AAB5BD" d="M310.097,60.625h-5.756v-9.994h5.756v1.736h-3.637v2.194h3.384v1.736h-3.384v2.577h3.637V60.625z"/>
				<path fill="#AAB5BD" d="M316.037,60.625h-2.119v-8.23h-2.714v-1.764h7.547v1.764h-2.714V60.625z"/>
				<path fill="#AAB5BD" d="M327.193,53.748c0,1.076-0.336,1.898-1.008,2.468c-0.673,0.57-1.629,0.854-2.868,0.854h-0.909v3.555
					h-2.119v-9.994h3.192c1.212,0,2.134,0.261,2.765,0.783C326.878,51.936,327.193,52.713,327.193,53.748z M322.408,55.334h0.697
					c0.651,0,1.14-0.129,1.463-0.386s0.485-0.632,0.485-1.125c0-0.497-0.136-0.864-0.407-1.101
					c-0.271-0.237-0.695-0.355-1.274-0.355h-0.964V55.334z"/>
				<path fill="#AAB5BD" d="M329.08,60.625v-9.994h2.119v8.244h4.054v1.75H329.08z"/>
				<path fill="#AAB5BD" d="M343.107,60.625l-0.725-2.379h-3.644l-0.725,2.379h-2.283l3.527-10.035h2.591l3.541,10.035H343.107z
					 M341.877,56.469c-0.67-2.156-1.047-3.375-1.132-3.657c-0.084-0.283-0.145-0.506-0.181-0.67
					c-0.15,0.583-0.581,2.026-1.292,4.327H341.877z"/>
				<path fill="#AAB5BD" d="M350.894,52.251c-0.798,0-1.415,0.3-1.853,0.899s-0.656,1.435-0.656,2.505
					c0,2.229,0.836,3.343,2.509,3.343c0.702,0,1.552-0.175,2.55-0.526v1.777c-0.82,0.342-1.736,0.513-2.748,0.513
					c-1.454,0-2.565-0.441-3.336-1.323s-1.155-2.147-1.155-3.797c0-1.039,0.189-1.949,0.567-2.731s0.922-1.381,1.631-1.798
					c0.708-0.417,1.539-0.625,2.491-0.625c0.971,0,1.946,0.235,2.926,0.704l-0.684,1.723c-0.374-0.178-0.75-0.333-1.128-0.465
					S351.258,52.251,350.894,52.251z"/>
				<path fill="#AAB5BD" d="M361.325,60.625h-5.756v-9.994h5.756v1.736h-3.637v2.194h3.384v1.736h-3.384v2.577h3.637V60.625z"/>
			</g>
		</g>
		<g>
			<g>
				<path fill="#18A84E" d="M185.416,32.082h-2.085v-9.994h5.729v1.736h-3.644v2.577h3.391v1.729h-3.391V32.082z"/>
				<path fill="#18A84E" d="M199.149,22.087v6.467c0,0.738-0.165,1.385-0.496,1.941c-0.33,0.556-0.807,0.982-1.432,1.278
					s-1.363,0.444-2.215,0.444c-1.285,0-2.283-0.329-2.994-0.988s-1.066-1.56-1.066-2.704v-6.439h2.112v6.118
					c0,0.77,0.155,1.335,0.465,1.695s0.823,0.54,1.538,0.54c0.693,0,1.195-0.181,1.508-0.543c0.312-0.362,0.468-0.931,0.468-1.706
					v-6.104H199.149z"/>
				<path fill="#18A84E" d="M201.597,32.082v-9.994h2.119v8.244h4.054v1.75H201.597z"/>
				<path fill="#18A84E" d="M209.506,32.082v-9.994h2.119v8.244h4.054v1.75H209.506z"/>
				<path fill="#18A84E" d="M227.17,32.082l-0.725-2.379h-3.644l-0.725,2.379h-2.283l3.527-10.035h2.591l3.541,10.035H227.17z
					 M225.939,27.925c-0.67-2.156-1.047-3.375-1.132-3.657c-0.084-0.283-0.145-0.506-0.181-0.67
					c-0.15,0.583-0.581,2.026-1.292,4.327H225.939z"/>
				<path fill="#18A84E" d="M234.956,23.708c-0.797,0-1.415,0.3-1.853,0.899s-0.656,1.435-0.656,2.505
					c0,2.229,0.837,3.343,2.509,3.343c0.701,0,1.552-0.175,2.55-0.526v1.777c-0.82,0.342-1.736,0.513-2.748,0.513
					c-1.454,0-2.565-0.441-3.336-1.323s-1.155-2.147-1.155-3.797c0-1.039,0.189-1.949,0.567-2.731s0.922-1.381,1.63-1.798
					c0.709-0.417,1.539-0.625,2.492-0.625c0.971,0,1.945,0.235,2.926,0.704l-0.684,1.723c-0.373-0.178-0.75-0.333-1.128-0.465
					S235.321,23.708,234.956,23.708z"/>
				<path fill="#18A84E" d="M243.877,23.708c-0.798,0-1.415,0.3-1.853,0.899s-0.656,1.435-0.656,2.505
					c0,2.229,0.836,3.343,2.509,3.343c0.702,0,1.552-0.175,2.55-0.526v1.777c-0.82,0.342-1.736,0.513-2.748,0.513
					c-1.453,0-2.566-0.441-3.336-1.323s-1.155-2.147-1.155-3.797c0-1.039,0.188-1.949,0.567-2.731s0.922-1.381,1.631-1.798
					c0.708-0.417,1.539-0.625,2.491-0.625c0.971,0,1.946,0.235,2.926,0.704l-0.684,1.723c-0.374-0.178-0.749-0.333-1.128-0.465
					S244.241,23.708,243.877,23.708z"/>
				<path fill="#18A84E" d="M254.309,32.082h-5.756v-9.994h5.756v1.736h-3.637v2.194h3.384v1.736h-3.384v2.577h3.637V32.082z"/>
				<path fill="#18A84E" d="M262.293,29.306c0,0.902-0.325,1.613-0.974,2.133c-0.65,0.52-1.554,0.779-2.711,0.779
					c-1.066,0-2.01-0.201-2.83-0.602v-1.969c0.674,0.301,1.245,0.513,1.713,0.636c0.467,0.123,0.895,0.185,1.281,0.185
					c0.465,0,0.821-0.089,1.07-0.267c0.248-0.178,0.372-0.442,0.372-0.793c0-0.196-0.055-0.37-0.164-0.523s-0.271-0.3-0.481-0.441
					c-0.213-0.141-0.645-0.367-1.296-0.677c-0.61-0.287-1.069-0.563-1.374-0.827s-0.549-0.572-0.731-0.923s-0.273-0.761-0.273-1.23
					c0-0.884,0.3-1.579,0.899-2.085c0.599-0.506,1.428-0.759,2.484-0.759c0.52,0,1.016,0.062,1.486,0.185
					c0.473,0.123,0.966,0.296,1.48,0.52l-0.684,1.647c-0.533-0.219-0.975-0.372-1.322-0.458c-0.35-0.086-0.692-0.13-1.029-0.13
					c-0.4,0-0.709,0.093-0.923,0.28s-0.321,0.431-0.321,0.731c0,0.187,0.043,0.35,0.13,0.489s0.225,0.273,0.413,0.403
					c0.189,0.13,0.638,0.363,1.344,0.701c0.935,0.447,1.574,0.895,1.921,1.343S262.293,28.654,262.293,29.306z"/>
				<path fill="#18A84E" d="M270.004,29.306c0,0.902-0.325,1.613-0.974,2.133c-0.65,0.52-1.554,0.779-2.711,0.779
					c-1.066,0-2.01-0.201-2.83-0.602v-1.969c0.675,0.301,1.245,0.513,1.713,0.636c0.467,0.123,0.894,0.185,1.281,0.185
					c0.465,0,0.821-0.089,1.07-0.267c0.248-0.178,0.372-0.442,0.372-0.793c0-0.196-0.055-0.37-0.164-0.523s-0.271-0.3-0.481-0.441
					c-0.213-0.141-0.645-0.367-1.296-0.677c-0.61-0.287-1.068-0.563-1.374-0.827s-0.549-0.572-0.731-0.923s-0.273-0.761-0.273-1.23
					c0-0.884,0.3-1.579,0.899-2.085c0.599-0.506,1.427-0.759,2.484-0.759c0.52,0,1.016,0.062,1.486,0.185
					c0.473,0.123,0.966,0.296,1.48,0.52l-0.684,1.647c-0.533-0.219-0.975-0.372-1.322-0.458c-0.35-0.086-0.692-0.13-1.029-0.13
					c-0.401,0-0.709,0.093-0.923,0.28s-0.321,0.431-0.321,0.731c0,0.187,0.043,0.35,0.13,0.489s0.225,0.273,0.413,0.403
					c0.189,0.13,0.638,0.363,1.344,0.701c0.935,0.447,1.574,0.895,1.921,1.343S270.004,28.654,270.004,29.306z"/>
			</g>
		</g>
		<path fill="#15A74D" d="M164.235,20.084c-4.178,0-7.565,3.387-7.565,7.565c0,4.178,3.388,7.564,7.565,7.564
			c4.177,0,7.564-3.387,7.564-7.564C171.8,23.471,168.412,20.084,164.235,20.084z M163.879,30.919l-0.537,0.58l-0.515-0.6
			l-2.92-3.396l0.951-1.026l2.366,1.743l5.172-4.249l0.965,1.023L163.879,30.919z"/>
	</g>
	<path fill="#AAB5BD" d="M169.919,49.542H159.11c-0.595,0-1.08,0.487-1.08,1.081v10.809c0,0.594,0.485,1.081,1.08,1.081h10.809
		c0.594,0,1.081-0.487,1.081-1.081V50.623C171,50.029,170.513,49.542,169.919,49.542z M168.838,58.822l-1.528,1.528l-2.796-2.795
		l-2.794,2.795l-1.528-1.528l2.794-2.795l-2.871-2.871l1.528-1.529l2.871,2.871l2.872-2.872l1.528,1.528l-2.872,2.872
		L168.838,58.822z"/>
</g>
</svg>
