<?xml version="1.0" encoding="utf-8"?>
<!-- Generator: Adobe Illustrator 16.0.4, SVG Export Plug-In . SVG Version: 6.00 Build 0)  -->
<!DOCTYPE svg PUBLIC "-//W3C//DTD SVG 1.1//EN" "http://www.w3.org/Graphics/SVG/1.1/DTD/svg11.dtd">
<svg version="1.1" id="Layer_1" xmlns="http://www.w3.org/2000/svg" xmlns:xlink="http://www.w3.org/1999/xlink" x="0px" y="0px"
	 width="150px" height="60.41px" viewBox="0 0 150 60.41" enable-background="new 0 0 150 60.41" xml:space="preserve">
<g>
	<g>
		<path fill="#797066" d="M59.706,58.301c0,0.466,0.009,0.877,0.037,1.231h-0.728l-0.047-0.737H58.95
			c-0.215,0.363-0.69,0.84-1.492,0.84c-0.71,0-1.559-0.392-1.559-1.978v-2.641h0.821v2.501c0,0.858,0.262,1.436,1.008,1.436
			c0.55,0,0.933-0.382,1.083-0.746c0.046-0.121,0.074-0.271,0.074-0.419v-2.771h0.821V58.301z"/>
		<path fill="#797066" d="M60.955,58.693c0.243,0.159,0.671,0.326,1.083,0.326c0.597,0,0.877-0.299,0.877-0.671
			c0-0.393-0.233-0.607-0.84-0.83c-0.812-0.29-1.194-0.738-1.194-1.278c0-0.728,0.588-1.324,1.559-1.324
			c0.457,0,0.858,0.13,1.109,0.279l-0.205,0.597c-0.177-0.111-0.503-0.261-0.923-0.261c-0.485,0-0.755,0.279-0.755,0.616
			c0,0.373,0.27,0.54,0.858,0.764c0.783,0.299,1.184,0.691,1.184,1.362c0,0.793-0.615,1.354-1.688,1.354
			c-0.494,0-0.952-0.122-1.268-0.309L60.955,58.693z"/>
		<path fill="#797066" d="M65.218,57.424c0.018,1.11,0.728,1.567,1.548,1.567c0.587,0,0.942-0.103,1.25-0.232l0.14,0.587
			c-0.289,0.131-0.784,0.28-1.501,0.28c-1.391,0-2.221-0.914-2.221-2.277c0-1.361,0.802-2.434,2.118-2.434
			c1.474,0,1.866,1.296,1.866,2.126c0,0.168-0.019,0.299-0.028,0.383H65.218z M67.625,56.837c0.009-0.523-0.215-1.335-1.139-1.335
			c-0.83,0-1.193,0.766-1.26,1.335H67.625z"/>
		<path fill="#797066" d="M69.434,56.426c0-0.531-0.009-0.989-0.037-1.409h0.718l0.028,0.887h0.037
			c0.206-0.606,0.7-0.988,1.25-0.988c0.093,0,0.159,0.009,0.233,0.027v0.774c-0.084-0.019-0.168-0.028-0.28-0.028
			c-0.579,0-0.989,0.439-1.101,1.055c-0.019,0.112-0.038,0.242-0.038,0.382v2.407h-0.812V56.426z"/>
		<path fill="#797066" d="M72.372,58.693c0.243,0.159,0.671,0.326,1.082,0.326c0.598,0,0.877-0.299,0.877-0.671
			c0-0.393-0.232-0.607-0.839-0.83c-0.812-0.29-1.194-0.738-1.194-1.278c0-0.728,0.588-1.324,1.558-1.324
			c0.458,0,0.859,0.13,1.111,0.279l-0.205,0.597c-0.178-0.111-0.504-0.261-0.923-0.261c-0.486,0-0.756,0.279-0.756,0.616
			c0,0.373,0.271,0.54,0.858,0.764c0.784,0.299,1.185,0.691,1.185,1.362c0,0.793-0.615,1.354-1.688,1.354
			c-0.495,0-0.952-0.122-1.269-0.309L72.372,58.693z"/>
		<path fill="#797066" d="M59.827,0.59v5.457c0,0.402,0.009,0.858,0.037,1.166h-0.737L59.09,6.43h-0.019
			c-0.252,0.503-0.802,0.886-1.54,0.886c-1.091,0-1.931-0.924-1.931-2.295c-0.009-1.502,0.924-2.425,2.024-2.425
			c0.691,0,1.157,0.326,1.363,0.69h0.019V0.59H59.827z M59.006,4.536c0-0.103-0.009-0.243-0.038-0.345
			c-0.121-0.523-0.569-0.952-1.184-0.952c-0.85,0-1.353,0.746-1.353,1.745c0,0.914,0.447,1.669,1.334,1.669
			c0.55,0,1.053-0.363,1.203-0.979c0.028-0.112,0.038-0.224,0.038-0.354V4.536z"/>
		<path fill="#797066" d="M61.646,5.105c0.019,1.11,0.728,1.567,1.548,1.567c0.587,0,0.942-0.103,1.25-0.233l0.14,0.588
			c-0.289,0.13-0.784,0.279-1.501,0.279c-1.39,0-2.221-0.914-2.221-2.276c0-1.362,0.803-2.435,2.118-2.435
			c1.474,0,1.866,1.296,1.866,2.126c0,0.168-0.019,0.299-0.028,0.383H61.646z M64.052,4.517c0.009-0.522-0.215-1.334-1.138-1.334
			c-0.831,0-1.195,0.765-1.259,1.334H64.052z"/>
		<path fill="#797066" d="M66.178,2.698l0.886,2.537c0.149,0.411,0.271,0.784,0.364,1.157h0.028
			c0.103-0.373,0.233-0.746,0.382-1.157l0.876-2.537h0.858l-1.772,4.515h-0.783l-1.717-4.515H66.178z"/>
		<path fill="#797066" d="M70.18,6.374C70.422,6.532,70.852,6.7,71.263,6.7c0.597,0,0.877-0.298,0.877-0.671
			c0-0.392-0.233-0.606-0.84-0.83c-0.812-0.289-1.194-0.737-1.194-1.278c0-0.728,0.588-1.325,1.558-1.325
			c0.457,0,0.858,0.131,1.11,0.28l-0.205,0.597c-0.178-0.112-0.503-0.261-0.923-0.261c-0.486,0-0.756,0.28-0.756,0.615
			c0,0.374,0.27,0.541,0.858,0.766c0.784,0.298,1.184,0.69,1.184,1.361c0,0.793-0.615,1.353-1.688,1.353
			c-0.495,0-0.952-0.121-1.27-0.308L70.18,6.374z"/>
		<path fill="#FFFFFF" d="M43.242,45.74c0.923,0.547,2.495,1.162,3.999,1.162c2.152,0,3.177-1.06,3.177-2.46
			c0-1.436-0.854-2.187-3.041-3.007c-3.007-1.094-4.409-2.7-4.409-4.683c0-2.665,2.187-4.852,5.708-4.852
			c1.674,0,3.143,0.444,4.032,1.025l-0.718,2.187c-0.65-0.409-1.846-0.99-3.384-0.99c-1.776,0-2.733,1.025-2.733,2.255
			c0,1.366,0.957,1.981,3.109,2.836c2.836,1.059,4.339,2.494,4.339,4.955c0,2.938-2.289,4.988-6.15,4.988
			c-1.811,0-3.485-0.479-4.647-1.161L43.242,45.74z"/>
		<path fill="#FFFFFF" d="M77.844,36.719c0-1.743-0.068-3.109-0.137-4.477h2.631l0.137,2.699h0.103
			c0.923-1.571,2.46-3.041,5.228-3.041c2.222,0,3.929,1.367,4.648,3.315h0.068c0.513-0.958,1.195-1.641,1.879-2.152
			c0.991-0.753,2.05-1.163,3.622-1.163c2.221,0,5.467,1.435,5.467,7.177v9.703h-2.938v-9.328c0-3.212-1.195-5.092-3.588-5.092
			c-1.742,0-3.042,1.265-3.588,2.7c-0.137,0.443-0.24,0.956-0.24,1.503v10.217h-2.938v-9.909c0-2.631-1.162-4.511-3.452-4.511
			c-1.845,0-3.245,1.504-3.723,3.007c-0.172,0.411-0.241,0.958-0.241,1.471v9.942h-2.938V36.719z"/>
		<path fill="#FFFFFF" d="M106.051,36.719c0-1.743-0.068-3.109-0.138-4.477h2.631l0.138,2.699h0.103
			c0.922-1.571,2.461-3.041,5.228-3.041c2.222,0,3.931,1.367,4.647,3.315h0.067c0.514-0.958,1.197-1.641,1.881-2.152
			c0.99-0.753,2.049-1.163,3.622-1.163c2.221,0,5.468,1.435,5.468,7.177v9.703h-2.939v-9.328c0-3.212-1.194-5.092-3.589-5.092
			c-1.741,0-3.041,1.265-3.587,2.7c-0.136,0.443-0.239,0.956-0.239,1.503v10.217h-2.938v-9.909c0-2.631-1.162-4.511-3.45-4.511
			c-1.846,0-3.248,1.504-3.726,3.007c-0.171,0.411-0.239,0.958-0.239,1.471v9.942h-2.938V36.719z"/>
		<rect x="134.356" y="32.243" fill="#FFFFFF" width="3.007" height="16.538"/>
		<path fill="#FFFFFF" d="M144.695,32.243H149v2.289h-4.305v8.919c0,2.051,0.581,3.212,2.256,3.212c0.819,0,1.297-0.068,1.742-0.205
			l0.137,2.289c-0.582,0.206-1.505,0.41-2.666,0.41c-1.4,0-2.528-0.479-3.246-1.264c-0.819-0.923-1.161-2.392-1.161-4.34v-9.021
			h-2.563v-2.289h2.563"/>
		<path fill="#FFFFFF" d="M17.687,19.31c0,6.116-4.271,8.782-8.234,8.782c-4.442,0-7.928-3.281-7.928-8.509
			c0-5.5,3.656-8.747,8.201-8.747C14.475,10.835,17.687,14.287,17.687,19.31 M4.6,19.48c0,3.623,2.05,6.356,4.989,6.356
			c2.871,0,5.023-2.7,5.023-6.424c0-2.802-1.401-6.321-4.955-6.321C6.138,13.091,4.6,16.371,4.6,19.48"/>
		<path fill="#FFFFFF" d="M20.99,16.576c0-2.118-0.068-3.828-0.137-5.399h2.666l0.171,2.836h0.067
			c1.197-2.016,3.179-3.178,5.878-3.178c4.032,0,7.039,3.383,7.039,8.372c0,5.946-3.656,8.885-7.552,8.885
			c-2.187,0-4.1-0.958-5.091-2.597h-0.068v8.987H20.99V16.576z M23.963,20.984c0,0.444,0.034,0.854,0.136,1.229
			c0.547,2.085,2.358,3.52,4.511,3.52c3.177,0,5.023-2.597,5.023-6.39c0-3.281-1.743-6.117-4.921-6.117
			c-2.05,0-3.997,1.435-4.544,3.69c-0.103,0.376-0.205,0.82-0.205,1.196V20.984z"/>
		<path fill="#FFFFFF" d="M42.602,19.993c0.069,4.066,2.631,5.741,5.672,5.741c2.152,0,3.486-0.376,4.58-0.855l0.546,2.153
			c-1.06,0.478-2.905,1.06-5.536,1.06c-5.091,0-8.133-3.383-8.133-8.372c0-4.989,2.939-8.885,7.758-8.885
			c5.432,0,6.833,4.716,6.833,7.757c0,0.615-0.034,1.059-0.102,1.401H42.602z M51.418,17.84c0.034-1.879-0.787-4.852-4.169-4.852
			c-3.075,0-4.373,2.768-4.613,4.852H51.418z"/>
		<path fill="#FFFFFF" d="M77.507,24.674c0.924,0.546,2.494,1.162,3.998,1.162c2.153,0,3.177-1.06,3.177-2.46
			c0-1.436-0.854-2.187-3.041-3.007c-3.007-1.093-4.408-2.7-4.408-4.682c0-2.666,2.188-4.852,5.708-4.852
			c1.674,0,3.143,0.444,4.031,1.025l-0.718,2.187c-0.648-0.41-1.845-0.991-3.383-0.991c-1.776,0-2.733,1.025-2.733,2.255
			c0,1.366,0.957,1.981,3.109,2.835c2.836,1.06,4.341,2.495,4.341,4.956c0,2.938-2.29,4.989-6.151,4.989
			c-1.812,0-3.486-0.479-4.647-1.162L77.507,24.674z"/>
		<path fill="#FFFFFF" d="M95.171,7.213v3.964h4.306v2.289h-4.306v8.918c0,2.051,0.58,3.213,2.255,3.213
			c0.82,0,1.299-0.068,1.743-0.205l0.137,2.289c-0.581,0.205-1.503,0.411-2.665,0.411c-1.401,0-2.529-0.479-3.247-1.264
			c-0.82-0.923-1.162-2.393-1.162-4.34v-9.022h-2.562v-2.289h2.562V8.101L95.171,7.213z"/>
		<path fill="#FFFFFF" d="M114.972,23.752c0,1.435,0.067,2.835,0.238,3.964h-2.7l-0.239-2.084h-0.102
			c-0.923,1.299-2.7,2.46-5.058,2.46c-3.349,0-5.057-2.357-5.057-4.75c0-3.998,3.553-6.185,9.943-6.149v-0.343
			c0-1.332-0.377-3.827-3.759-3.792c-1.572,0-3.178,0.444-4.34,1.229l-0.684-2.015c1.367-0.854,3.383-1.436,5.467-1.436
			c5.059,0,6.289,3.451,6.289,6.732V23.752z M112.066,19.276c-3.28-0.069-7.005,0.512-7.005,3.725c0,1.981,1.298,2.87,2.802,2.87
			c2.188,0,3.588-1.367,4.066-2.768c0.103-0.343,0.137-0.684,0.137-0.957V19.276z"/>
		<path fill="#FFFFFF" d="M131.121,27.134c-0.786,0.376-2.528,0.958-4.749,0.958c-4.989,0-8.234-3.383-8.234-8.441
			c0-5.091,3.484-8.815,8.884-8.815c1.776,0,3.349,0.444,4.168,0.889l-0.684,2.289c-0.717-0.376-1.846-0.786-3.484-0.786
			c-3.794,0-5.844,2.836-5.844,6.253c0,3.827,2.46,6.185,5.741,6.185c1.709,0,2.835-0.41,3.689-0.786L131.121,27.134z"/>
		<path fill="#FFFFFF" d="M137.419,18.763h0.068c0.41-0.581,0.957-1.298,1.436-1.879l4.887-5.707h3.588l-6.356,6.8l7.278,9.739
			h-3.69l-5.672-7.928l-1.538,1.709v6.219h-2.973V3.455h2.973V18.763z"/>
		<polygon fill="#29AAE2" points="68.729,34.678 71.907,29.81 75.085,34.678 		"/>
		<polygon fill="#29AAE2" points="62.154,24.852 58.977,29.721 55.799,24.852 		"/>
		<path fill="#29AAE2" d="M70.497,34.134v8.109c0,2.947-2.247,5.346-5.008,5.346c-2.763,0-5.01-2.398-5.01-5.346V31.618h-2.984
			v10.626c0,4.404,3.584,7.986,7.994,7.986c4.406,0,7.992-3.582,7.992-7.986v-8.109H70.497z"/>
		<path fill="#29AAE2" d="M60.479,25.315v-7.064c0-2.946,2.247-5.344,5.009-5.344c2.762,0,5.009,2.398,5.009,5.344v9.581h2.984
			v-9.581c0-4.403-3.586-7.984-7.993-7.984c-4.409,0-7.993,3.581-7.993,7.984v7.064H60.479z"/>
		<g opacity="0.5">
			<g>
				<path fill="#FFFFFF" d="M146.3,18.161c0,0.608-0.477,1.085-1.099,1.085c-0.613,0-1.104-0.477-1.104-1.085
					c0-0.594,0.49-1.072,1.104-1.072C145.823,17.089,146.3,17.567,146.3,18.161 M144.372,18.161c0,0.477,0.353,0.856,0.836,0.856
					c0.471,0,0.817-0.379,0.817-0.849c0-0.477-0.347-0.863-0.824-0.863C144.725,17.305,144.372,17.691,144.372,18.161
					 M145.032,18.724h-0.249v-1.072c0.099-0.02,0.235-0.033,0.412-0.033c0.202,0,0.294,0.033,0.373,0.079
					c0.059,0.045,0.104,0.13,0.104,0.235c0,0.118-0.092,0.209-0.221,0.249v0.013c0.104,0.039,0.162,0.118,0.194,0.261
					c0.033,0.163,0.053,0.229,0.079,0.268h-0.268c-0.032-0.04-0.053-0.137-0.086-0.261c-0.02-0.118-0.084-0.17-0.222-0.17h-0.117
					V18.724z M145.038,18.116h0.118c0.138,0,0.248-0.046,0.248-0.157c0-0.098-0.072-0.163-0.229-0.163
					c-0.065,0-0.111,0.006-0.138,0.013V18.116z"/>
				<path fill="#FFFFFF" d="M146.3,18.161c0,0.608-0.477,1.085-1.099,1.085c-0.613,0-1.104-0.477-1.104-1.085
					c0-0.594,0.49-1.072,1.104-1.072C145.823,17.089,146.3,17.567,146.3,18.161 M144.372,18.161c0,0.477,0.353,0.856,0.836,0.856
					c0.471,0,0.817-0.379,0.817-0.849c0-0.477-0.347-0.863-0.824-0.863C144.725,17.305,144.372,17.691,144.372,18.161
					 M145.032,18.724h-0.249v-1.072c0.099-0.02,0.235-0.033,0.412-0.033c0.202,0,0.294,0.033,0.373,0.079
					c0.059,0.045,0.104,0.13,0.104,0.235c0,0.118-0.092,0.209-0.221,0.249v0.013c0.104,0.039,0.162,0.118,0.194,0.261
					c0.033,0.163,0.053,0.229,0.079,0.268h-0.268c-0.032-0.04-0.053-0.137-0.086-0.261c-0.02-0.118-0.084-0.17-0.222-0.17h-0.117
					V18.724z M145.038,18.116h0.118c0.138,0,0.248-0.046,0.248-0.157c0-0.098-0.072-0.163-0.229-0.163
					c-0.065,0-0.111,0.006-0.138,0.013V18.116z"/>
			</g>
		</g>
	</g>
</g>
</svg>
