<?xml version="1.0" encoding="utf-8"?>
<!-- Generator: Adobe Illustrator 19.1.0, SVG Export Plug-In . SVG Version: 6.00 Build 0)  -->
<svg version="1.1" id="Layer_1" xmlns="http://www.w3.org/2000/svg" xmlns:xlink="http://www.w3.org/1999/xlink" x="0px" y="0px"
	 viewBox="0 0 150 60" enable-background="new 0 0 150 60" xml:space="preserve">
<g>
	<path fill="#343433" d="M61.211,57.124c0,0.442,0.009,0.831,0.036,1.167h-0.69l-0.044-0.698h-0.018
		c-0.203,0.345-0.654,0.796-1.416,0.796c-0.673,0-1.478-0.372-1.478-1.875v-2.505h0.778v2.371c0,0.815,0.248,1.363,0.956,1.363
		c0.522,0,0.885-0.362,1.027-0.709c0.044-0.114,0.071-0.256,0.071-0.398v-2.628h0.779v3.115H61.211z"/>
	<path fill="#343433" d="M62.396,57.495c0.23,0.151,0.637,0.31,1.027,0.31c0.566,0,0.832-0.283,0.832-0.636
		c0-0.372-0.222-0.576-0.797-0.788c-0.77-0.274-1.132-0.699-1.132-1.213c0-0.69,0.558-1.256,1.478-1.256
		c0.433,0,0.814,0.124,1.052,0.265l-0.195,0.567c-0.168-0.106-0.477-0.248-0.876-0.248c-0.46,0-0.717,0.265-0.717,0.584
		c0,0.354,0.257,0.514,0.815,0.725c0.743,0.283,1.123,0.656,1.123,1.293c0,0.752-0.584,1.283-1.601,1.283
		c-0.469,0-0.903-0.115-1.203-0.292L62.396,57.495z"/>
	<path fill="#343433" d="M66.439,56.292c0.017,1.053,0.691,1.486,1.468,1.486c0.558,0,0.894-0.097,1.186-0.222l0.133,0.558
		c-0.274,0.124-0.743,0.265-1.425,0.265c-1.318,0-2.106-0.867-2.106-2.159s0.76-2.31,2.009-2.31c1.397,0,1.77,1.23,1.77,2.017
		c0,0.159-0.018,0.283-0.027,0.363H66.44L66.439,56.292L66.439,56.292z M68.722,55.734c0.009-0.495-0.204-1.265-1.079-1.265
		c-0.788,0-1.133,0.726-1.195,1.265H68.722z"/>
	<path fill="#343433" d="M70.439,55.345c0-0.504-0.009-0.939-0.036-1.336h0.682l0.026,0.841h0.036
		c0.195-0.576,0.663-0.939,1.186-0.939c0.088,0,0.151,0.009,0.221,0.026v0.735c-0.08-0.018-0.159-0.027-0.265-0.027
		c-0.548,0-0.938,0.417-1.044,1c-0.017,0.106-0.035,0.23-0.035,0.363v2.282h-0.77L70.439,55.345L70.439,55.345z"/>
	<path fill="#343433" d="M73.225,57.495c0.23,0.151,0.637,0.31,1.027,0.31c0.566,0,0.832-0.283,0.832-0.636
		c0-0.372-0.222-0.576-0.797-0.788c-0.77-0.274-1.132-0.699-1.132-1.213c0-0.69,0.558-1.256,1.478-1.256
		c0.434,0,0.814,0.124,1.054,0.265l-0.195,0.567c-0.168-0.106-0.478-0.248-0.876-0.248c-0.46,0-0.717,0.265-0.717,0.584
		c0,0.354,0.256,0.514,0.813,0.725c0.743,0.283,1.124,0.656,1.124,1.293c0,0.752-0.584,1.283-1.601,1.283
		c-0.469,0-0.903-0.115-1.204-0.292L73.225,57.495z"/>
	<path fill="#343433" d="M61.326,2.385v5.177c0,0.381,0.008,0.814,0.035,1.106h-0.699l-0.036-0.744h-0.018
		c-0.239,0.478-0.761,0.841-1.46,0.841c-1.035,0-1.832-0.876-1.832-2.176c-0.009-1.425,0.876-2.301,1.92-2.301
		c0.655,0,1.098,0.309,1.292,0.655h0.017V2.385H61.326z M60.547,6.128c0-0.097-0.009-0.23-0.035-0.327
		c-0.115-0.495-0.54-0.902-1.124-0.902c-0.805,0-1.283,0.707-1.283,1.655c0,0.868,0.425,1.584,1.266,1.584
		c0.522,0,1-0.345,1.141-0.929c0.026-0.107,0.035-0.212,0.035-0.336L60.547,6.128L60.547,6.128z"/>
	<path fill="#343433" d="M63.05,6.668c0.018,1.053,0.69,1.486,1.468,1.486c0.558,0,0.894-0.097,1.186-0.222l0.133,0.558
		c-0.274,0.124-0.743,0.266-1.425,0.266c-1.318,0-2.106-0.868-2.106-2.159c0-1.292,0.761-2.309,2.009-2.309
		c1.397,0,1.77,1.229,1.77,2.017c0,0.159-0.018,0.283-0.027,0.363H63.05z M65.334,6.11c0.009-0.495-0.203-1.266-1.079-1.266
		c-0.788,0-1.133,0.726-1.194,1.266H65.334z"/>
	<path fill="#343433" d="M67.351,4.385l0.84,2.407c0.142,0.39,0.256,0.743,0.345,1.097h0.027c0.098-0.354,0.221-0.708,0.363-1.097
		l0.832-2.407h0.814l-1.682,4.283h-0.743l-1.628-4.283H67.351z"/>
	<path fill="#343433" d="M71.146,7.871c0.23,0.151,0.637,0.309,1.026,0.309c0.566,0,0.832-0.283,0.832-0.636
		c0-0.371-0.221-0.575-0.796-0.787c-0.77-0.275-1.133-0.699-1.133-1.212c0-0.691,0.557-1.256,1.478-1.256
		c0.433,0,0.814,0.123,1.052,0.265L73.41,5.119c-0.167-0.106-0.477-0.248-0.876-0.248c-0.46,0-0.716,0.265-0.716,0.584
		c0,0.354,0.256,0.513,0.814,0.726c0.743,0.283,1.123,0.655,1.123,1.292c0,0.752-0.584,1.284-1.601,1.284
		c-0.469,0-0.902-0.115-1.204-0.292L71.146,7.871z"/>
	<path fill="#989897" d="M45.595,45.209c0.876,0.519,2.367,1.103,3.793,1.103c2.042,0,3.014-1.006,3.014-2.334
		c0-1.362-0.81-2.073-2.884-2.851c-2.852-1.038-4.181-2.561-4.181-4.441c0-2.528,2.074-4.601,5.413-4.601
		c1.587,0,2.981,0.42,3.824,0.971l-0.68,2.074c-0.616-0.388-1.751-0.939-3.209-0.939c-1.685,0-2.592,0.973-2.592,2.14
		c0,1.296,0.907,1.879,2.949,2.688c2.689,1.005,4.116,2.367,4.116,4.701c0,2.787-2.171,4.731-5.833,4.731
		c-1.718,0-3.306-0.454-4.408-1.101L45.595,45.209z"/>
	<path fill="#989897" d="M78.414,36.653c0-1.652-0.064-2.949-0.131-4.245h2.496l0.129,2.559h0.098
		c0.874-1.49,2.333-2.884,4.958-2.884c2.106,0,3.725,1.297,4.409,3.144h0.064c0.487-0.908,1.135-1.556,1.783-2.043
		c0.939-0.713,1.943-1.101,3.435-1.101c2.108,0,5.186,1.361,5.186,6.806v9.204h-2.787v-8.848c0-3.047-1.136-4.83-3.404-4.83
		c-1.652,0-2.885,1.201-3.402,2.56c-0.131,0.421-0.229,0.908-0.229,1.427v9.69h-2.786v-9.399c0-2.495-1.102-4.278-3.274-4.278
		c-1.75,0-3.079,1.426-3.532,2.852c-0.162,0.39-0.229,0.908-0.229,1.394v9.431h-2.786L78.414,36.653L78.414,36.653z"/>
	<path fill="#989897" d="M105.168,36.653c0-1.652-0.064-2.949-0.13-4.245h2.496l0.13,2.559h0.097
		c0.874-1.49,2.335-2.884,4.958-2.884c2.107,0,3.728,1.297,4.409,3.144h0.063c0.487-0.908,1.137-1.556,1.786-2.043
		c0.938-0.713,1.943-1.101,3.435-1.101c2.106,0,5.186,1.361,5.186,6.806v9.204h-2.788v-8.848c0-3.047-1.134-4.83-3.403-4.83
		c-1.653,0-2.885,1.201-3.402,2.56c-0.13,0.421-0.227,0.908-0.227,1.427v9.69h-2.788v-9.399c0-2.495-1.101-4.278-3.273-4.278
		c-1.75,0-3.08,1.426-3.533,2.852c-0.163,0.39-0.227,0.908-0.227,1.394v9.431h-2.788V36.653L105.168,36.653z"/>
	<rect x="132.016" y="32.408" fill="#989897" width="2.852" height="15.686"/>
	<path fill="#989897" d="M141.822,32.408h4.083v2.171h-4.083v8.46c0,1.944,0.551,3.046,2.139,3.046c0.778,0,1.23-0.065,1.652-0.195
		l0.13,2.171c-0.551,0.195-1.427,0.39-2.528,0.39c-1.329,0-2.399-0.454-3.079-1.199c-0.778-0.875-1.102-2.269-1.102-4.116v-8.557
		h-2.431v-2.17h2.431"/>
	<path fill="#989897" d="M21.357,20.141c0,5.801-4.051,8.329-7.81,8.329c-4.213,0-7.519-3.111-7.519-8.07
		c0-5.217,3.468-8.297,7.778-8.297C18.311,12.103,21.357,15.377,21.357,20.141 M8.944,20.303c0,3.435,1.945,6.028,4.732,6.028
		c2.723,0,4.764-2.56,4.764-6.093c0-2.657-1.328-5.996-4.699-5.996C10.402,14.241,8.944,17.353,8.944,20.303"/>
	<path fill="#989897" d="M24.49,17.548c0-2.009-0.066-3.63-0.13-5.12h2.528l0.162,2.69h0.065c1.135-1.912,3.015-3.014,5.575-3.014
		c3.824,0,6.676,3.208,6.676,7.94c0,5.64-3.468,8.427-7.164,8.427c-2.074,0-3.888-0.908-4.828-2.463H27.31v8.524h-2.82L24.49,17.548
		L24.49,17.548z M27.31,21.729c0,0.422,0.032,0.809,0.13,1.166c0.518,1.978,2.237,3.34,4.278,3.34c3.014,0,4.764-2.463,4.764-6.06
		c0-3.111-1.653-5.802-4.667-5.802c-1.944,0-3.791,1.361-4.31,3.5c-0.097,0.357-0.195,0.779-0.195,1.135V21.729z"/>
	<path fill="#989897" d="M44.989,20.789c0.065,3.856,2.495,5.445,5.381,5.445c2.041,0,3.305-0.358,4.342-0.811l0.519,2.041
		c-1.005,0.454-2.755,1.005-5.251,1.005c-4.829,0-7.714-3.209-7.714-7.941c0-4.732,2.788-8.427,7.358-8.427
		c5.152,0,6.482,4.473,6.482,7.357c0,0.583-0.032,1.004-0.097,1.329h-11.02V20.789z M53.35,18.747
		c0.033-1.782-0.745-4.601-3.954-4.601c-2.916,0-4.148,2.624-4.375,4.601H53.35z"/>
	<path fill="#989897" d="M78.095,25.229c0.876,0.518,2.367,1.102,3.792,1.102c2.042,0,3.013-1.005,3.013-2.333
		c0-1.362-0.808-2.074-2.883-2.853c-2.852-1.037-4.181-2.56-4.181-4.441c0-2.528,2.074-4.601,5.413-4.601
		c1.588,0,2.982,0.421,3.824,0.972l-0.68,2.074c-0.615-0.389-1.75-0.939-3.209-0.939c-1.684,0-2.592,0.972-2.592,2.139
		c0,1.297,0.908,1.88,2.949,2.691c2.691,1.004,4.116,2.366,4.116,4.7c0,2.787-2.17,4.731-5.834,4.731
		c-1.717,0-3.306-0.454-4.407-1.101L78.095,25.229z"/>
	<path fill="#989897" d="M94.848,8.668v3.76h4.084v2.171h-4.084v8.459c0,1.945,0.551,3.047,2.139,3.047
		c0.778,0,1.233-0.064,1.653-0.194l0.13,2.171c-0.551,0.195-1.426,0.389-2.527,0.389c-1.33,0-2.4-0.453-3.079-1.199
		c-0.778-0.875-1.103-2.269-1.103-4.116v-8.557h-2.431v-2.17h2.431V9.51L94.848,8.668z"/>
	<path fill="#989897" d="M113.628,24.354c0,1.361,0.064,2.69,0.227,3.76h-2.56l-0.228-1.977h-0.097
		c-0.875,1.231-2.559,2.333-4.796,2.333c-3.177,0-4.796-2.236-4.796-4.505c0-3.792,3.369-5.866,9.431-5.833v-0.325
		c0-1.263-0.358-3.629-3.565-3.597c-1.492,0-3.014,0.421-4.117,1.166l-0.648-1.911c1.297-0.81,3.209-1.362,5.185-1.362
		c4.798,0,5.964,3.273,5.964,6.385v5.866h-0.002V24.354z M110.874,20.109c-3.112-0.065-6.644,0.486-6.644,3.532
		c0,1.88,1.231,2.722,2.657,2.722c2.074,0,3.403-1.296,3.857-2.625c0.096-0.324,0.13-0.648,0.13-0.908V20.109L110.874,20.109z"/>
	<path fill="#989897" d="M128.948,27.562c-0.745,0.356-2.399,0.908-4.506,0.908c-4.732,0-7.811-3.209-7.811-8.005
		c0-4.83,3.305-8.362,8.427-8.362c1.684,0,3.176,0.421,3.954,0.843l-0.649,2.171c-0.68-0.357-1.749-0.745-3.305-0.745
		c-3.598,0-5.542,2.69-5.542,5.931c0,3.63,2.333,5.866,5.445,5.866c1.62,0,2.689-0.389,3.501-0.745L128.948,27.562z"/>
	<path fill="#989897" d="M134.921,19.622h0.064c0.389-0.55,0.908-1.231,1.361-1.782l4.635-5.412h3.403l-6.028,6.45l6.903,9.237
		h-3.501l-5.38-7.519l-1.458,1.621v5.898h-2.82V5.102h2.82V19.622L134.921,19.622z"/>
	<polygon fill="#2BA8E0" points="69.77,34.718 72.784,30.1 75.798,34.718 	"/>
	<polygon fill="#2BA8E0" points="63.534,25.397 60.52,30.015 57.506,25.397 	"/>
	<path fill="#2BA8E0" d="M71.446,34.201v7.693c0,2.795-2.131,5.07-4.75,5.07c-2.621,0-4.752-2.275-4.752-5.07V31.815h-2.831v10.079
		c0,4.177,3.4,7.575,7.582,7.575c4.179,0,7.581-3.397,7.581-7.575v-7.693H71.446L71.446,34.201z"/>
	<path fill="#2BA8E0" d="M61.945,25.837v-6.7c0-2.794,2.131-5.068,4.751-5.068c2.62,0,4.751,2.274,4.751,5.068v9.087h2.831v-9.087
		c0-4.176-3.401-7.572-7.582-7.572c-4.181,0-7.582,3.396-7.582,7.572v6.7H61.945z"/>
	<g opacity="0.5">
		<g>
			<g>
				<path fill="#989897" d="M143.343,19.051c0,0.577-0.452,1.03-1.041,1.03c-0.582,0-1.047-0.453-1.047-1.03
					c0-0.564,0.465-1.016,1.047-1.016C142.891,18.035,143.343,18.487,143.343,19.051 M141.515,19.051
					c0,0.453,0.334,0.813,0.794,0.813c0.445,0,0.775-0.359,0.775-0.806c0-0.452-0.33-0.819-0.782-0.819
					C141.851,18.239,141.515,18.605,141.515,19.051 M142.141,19.585h-0.236v-1.017c0.093-0.018,0.223-0.031,0.391-0.031
					c0.192,0,0.279,0.031,0.354,0.075c0.055,0.043,0.099,0.124,0.099,0.223c0,0.111-0.088,0.199-0.211,0.236v0.012
					c0.099,0.037,0.154,0.111,0.185,0.248c0.031,0.155,0.05,0.217,0.075,0.254h-0.253c-0.031-0.037-0.05-0.131-0.081-0.248
					c-0.019-0.111-0.08-0.161-0.211-0.161h-0.111V19.585L142.141,19.585z M142.147,19.009h0.112c0.13,0,0.235-0.044,0.235-0.15
					c0-0.093-0.069-0.155-0.217-0.155c-0.062,0-0.105,0.007-0.131,0.012L142.147,19.009L142.147,19.009z"/>
				<path fill="#989897" d="M143.343,19.051c0,0.577-0.452,1.03-1.041,1.03c-0.582,0-1.047-0.453-1.047-1.03
					c0-0.564,0.465-1.016,1.047-1.016C142.891,18.035,143.343,18.487,143.343,19.051 M141.515,19.051
					c0,0.453,0.334,0.813,0.794,0.813c0.445,0,0.775-0.359,0.775-0.806c0-0.452-0.33-0.819-0.782-0.819
					C141.851,18.239,141.515,18.605,141.515,19.051 M142.141,19.585h-0.236v-1.017c0.093-0.018,0.223-0.031,0.391-0.031
					c0.192,0,0.279,0.031,0.354,0.075c0.055,0.043,0.099,0.124,0.099,0.223c0,0.111-0.088,0.199-0.211,0.236v0.012
					c0.099,0.037,0.154,0.111,0.185,0.248c0.031,0.155,0.05,0.217,0.075,0.254h-0.253c-0.031-0.037-0.05-0.131-0.081-0.248
					c-0.019-0.111-0.08-0.161-0.211-0.161h-0.111V19.585L142.141,19.585z M142.147,19.009h0.112c0.13,0,0.235-0.044,0.235-0.15
					c0-0.093-0.069-0.155-0.217-0.155c-0.062,0-0.105,0.007-0.131,0.012L142.147,19.009L142.147,19.009z"/>
			</g>
		</g>
	</g>
</g>
</svg>
