<?xml version="1.0" encoding="utf-8"?>
<!-- Generator: Adobe Illustrator 16.0.4, SVG Export Plug-In . SVG Version: 6.00 Build 0)  -->
<!DOCTYPE svg PUBLIC "-//W3C//DTD SVG 1.1//EN" "http://www.w3.org/Graphics/SVG/1.1/DTD/svg11.dtd">
<svg version="1.1" id="Layer_1" xmlns="http://www.w3.org/2000/svg" xmlns:xlink="http://www.w3.org/1999/xlink" x="0px" y="0px"
	 width="707px" height="260px" viewBox="0 0 707 260" enable-background="new 0 0 707 260" xml:space="preserve">
<g display="none">
	
		<image display="inline" overflow="visible" width="887" height="285" id="CTd3Nf" xlink:href="89EC1DA8388B24AB.jpg"  transform="matrix(1 0 0 1 -75 0)">
	</image>
</g>
<g>
	<g>
		<path fill="#284E68" d="M60.176,132.5l-4.844-12.656h-0.078c0.091,1.003,0.137,2.194,0.137,3.574v9.082h-1.533v-14.277h2.5
			L60.879,130h0.078l4.561-11.777h2.48V132.5h-1.66v-9.199c0-1.055,0.045-2.2,0.137-3.438h-0.078L61.514,132.5H60.176z"/>
		<path fill="#284E68" d="M84.307,125.342c0,2.285-0.578,4.082-1.733,5.391s-2.762,1.963-4.819,1.963
			c-2.103,0-3.726-0.643-4.868-1.929s-1.714-3.101-1.714-5.444c0-2.324,0.573-4.126,1.719-5.405s2.773-1.919,4.883-1.919
			c2.051,0,3.652,0.651,4.805,1.953S84.307,123.05,84.307,125.342z M72.93,125.342c0,1.934,0.412,3.4,1.235,4.399
			s2.02,1.499,3.589,1.499c1.582,0,2.777-0.498,3.584-1.494s1.211-2.464,1.211-4.404c0-1.921-0.402-3.377-1.206-4.37
			s-1.994-1.489-3.569-1.489c-1.582,0-2.785,0.5-3.608,1.499S72.93,123.435,72.93,125.342z"/>
		<path fill="#284E68" d="M98.643,132.5h-1.895l-7.803-11.982h-0.078c0.104,1.406,0.156,2.695,0.156,3.867v8.115H87.49v-14.277
			h1.875l7.783,11.934h0.078c-0.013-0.176-0.042-0.74-0.088-1.694s-0.062-1.636-0.049-2.046v-8.193h1.553V132.5z"/>
	</g>
	<g>
		<path fill="#284E68" d="M71.797,156.5h-1.582v-10.176c0-0.847,0.026-1.647,0.078-2.402c-0.137,0.137-0.29,0.28-0.459,0.43
			s-0.944,0.784-2.324,1.904l-0.859-1.113l3.779-2.92h1.367V156.5z"/>
		<path fill="#284E68" d="M81.953,142.018c1.302,0,2.334,0.303,3.096,0.908s1.143,1.442,1.143,2.51c0,0.703-0.218,1.345-0.654,1.924
			s-1.133,1.106-2.09,1.582c1.159,0.554,1.982,1.135,2.471,1.743s0.732,1.313,0.732,2.114c0,1.185-0.414,2.131-1.24,2.837
			s-1.959,1.06-3.398,1.06c-1.523,0-2.695-0.334-3.516-1.001s-1.23-1.613-1.23-2.837c0-1.634,0.996-2.907,2.988-3.818
			c-0.898-0.508-1.543-1.057-1.934-1.646s-0.586-1.248-0.586-1.978c0-1.035,0.382-1.86,1.147-2.476S80.67,142.018,81.953,142.018z
			 M78.867,152.896c0,0.781,0.272,1.39,0.815,1.826s1.307,0.654,2.29,0.654c0.97,0,1.725-0.228,2.266-0.684s0.811-1.081,0.811-1.875
			c0-0.632-0.254-1.193-0.762-1.685s-1.393-0.969-2.656-1.431c-0.97,0.417-1.673,0.877-2.109,1.382S78.867,152.193,78.867,152.896z
			 M81.934,143.336c-0.814,0-1.452,0.195-1.914,0.586s-0.693,0.911-0.693,1.562c0,0.599,0.192,1.113,0.576,1.543
			s1.094,0.859,2.129,1.289c0.931-0.391,1.59-0.811,1.978-1.26s0.581-0.974,0.581-1.572c0-0.657-0.236-1.18-0.708-1.567
			S82.76,143.336,81.934,143.336z"/>
	</g>
</g>
<g>
	<g>
		<path fill="#284E68" d="M203.983,132.5h-1.66v-12.803h-4.521v-1.475h10.703v1.475h-4.521V132.5z"/>
		<path fill="#284E68" d="M221.435,118.223v9.238c0,1.628-0.492,2.907-1.475,3.838s-2.334,1.396-4.053,1.396
			s-3.048-0.469-3.989-1.406s-1.411-2.227-1.411-3.867v-9.199h1.66v9.316c0,1.191,0.326,2.106,0.977,2.744s1.608,0.957,2.871,0.957
			c1.205,0,2.132-0.32,2.783-0.962s0.977-1.561,0.977-2.759v-9.297H221.435z"/>
		<path fill="#284E68" d="M233.173,132.5h-7.959v-14.277h7.959v1.475h-6.299v4.6h5.918v1.465h-5.918v5.254h6.299V132.5z"/>
	</g>
	<g>
		<path fill="#284E68" d="M211.547,156.5h-1.582v-10.176c0-0.847,0.026-1.647,0.078-2.402c-0.137,0.137-0.29,0.28-0.459,0.43
			s-0.944,0.784-2.324,1.904l-0.859-1.113l3.779-2.92h1.367V156.5z"/>
		<path fill="#284E68" d="M226.361,148.316c0,5.586-2.162,8.379-6.484,8.379c-0.755,0-1.354-0.065-1.797-0.195v-1.396
			c0.521,0.169,1.113,0.254,1.777,0.254c1.562,0,2.743-0.483,3.54-1.45s1.232-2.449,1.304-4.448h-0.117
			c-0.358,0.54-0.833,0.952-1.426,1.235s-1.26,0.425-2.002,0.425c-1.263,0-2.266-0.378-3.008-1.133s-1.113-1.81-1.113-3.164
			c0-1.484,0.415-2.656,1.245-3.516s1.922-1.289,3.276-1.289c0.97,0,1.818,0.249,2.544,0.747s1.284,1.224,1.675,2.178
			S226.361,147.021,226.361,148.316z M221.557,143.404c-0.931,0-1.65,0.3-2.158,0.898s-0.762,1.433-0.762,2.5
			c0,0.938,0.234,1.675,0.703,2.212s1.182,0.806,2.139,0.806c0.592,0,1.138-0.12,1.636-0.361s0.89-0.569,1.177-0.986
			s0.43-0.853,0.43-1.309c0-0.684-0.133-1.315-0.4-1.895s-0.64-1.035-1.118-1.367S222.175,143.404,221.557,143.404z"/>
	</g>
</g>
<g>
	<g>
		<path fill="#284E68" d="M348.064,132.5h-1.641l-2.881-9.561c-0.137-0.423-0.29-0.957-0.459-1.602s-0.257-1.032-0.264-1.162
			c-0.143,0.859-0.371,1.8-0.684,2.822l-2.793,9.502h-1.641l-3.799-14.277h1.758l2.256,8.818c0.312,1.237,0.541,2.356,0.684,3.359
			c0.176-1.191,0.436-2.356,0.781-3.496l2.559-8.682h1.758l2.686,8.76c0.312,1.009,0.576,2.148,0.791,3.418
			c0.124-0.925,0.358-2.051,0.703-3.379l2.246-8.799h1.758L348.064,132.5z"/>
		<path fill="#284E68" d="M362.078,132.5h-7.959v-14.277h7.959v1.475h-6.299v4.6h5.918v1.465h-5.918v5.254h6.299V132.5z"/>
		<path fill="#284E68" d="M376.639,125.225c0,2.356-0.64,4.158-1.919,5.405s-3.12,1.87-5.522,1.87h-3.955v-14.277h4.375
			c2.22,0,3.945,0.615,5.176,1.846S376.639,123.018,376.639,125.225z M374.881,125.283c0-1.862-0.467-3.265-1.401-4.209
			s-2.323-1.416-4.165-1.416h-2.412v11.406h2.021c1.979,0,3.467-0.486,4.463-1.46S374.881,127.19,374.881,125.283z"/>
	</g>
	<g>
		<path fill="#284E68" d="M354.676,156.5h-9.385v-1.396l3.76-3.779c1.146-1.159,1.901-1.985,2.266-2.48s0.638-0.977,0.82-1.445
			s0.273-0.974,0.273-1.514c0-0.762-0.231-1.365-0.693-1.812s-1.104-0.669-1.924-0.669c-0.592,0-1.154,0.098-1.685,0.293
			s-1.122,0.55-1.772,1.064l-0.859-1.104c1.315-1.094,2.748-1.641,4.297-1.641c1.341,0,2.393,0.344,3.154,1.03
			s1.143,1.609,1.143,2.769c0,0.905-0.254,1.8-0.762,2.686s-1.458,2.005-2.852,3.359l-3.125,3.057v0.078h7.344V156.5z"/>
		<path fill="#284E68" d="M366.189,149.342c0,2.468-0.389,4.31-1.167,5.527s-1.968,1.826-3.569,1.826
			c-1.537,0-2.705-0.623-3.506-1.87s-1.201-3.074-1.201-5.483c0-2.487,0.387-4.333,1.162-5.537s1.957-1.807,3.545-1.807
			c1.549,0,2.726,0.628,3.53,1.885S366.189,146.959,366.189,149.342z M358.387,149.342c0,2.077,0.244,3.589,0.732,4.536
			s1.266,1.421,2.334,1.421c1.081,0,1.864-0.48,2.349-1.44s0.728-2.466,0.728-4.517s-0.243-3.553-0.728-4.507
			s-1.268-1.431-2.349-1.431c-1.068,0-1.846,0.471-2.334,1.411S358.387,147.265,358.387,149.342z"/>
	</g>
</g>
<g>
	<g>
		<path fill="#284E68" d="M481.667,132.5h-1.66v-12.803h-4.521v-1.475h10.703v1.475h-4.521V132.5z"/>
		<path fill="#284E68" d="M499.177,132.5h-1.66v-6.719h-7.52v6.719h-1.66v-14.277h1.66v6.074h7.52v-6.074h1.66V132.5z"/>
		<path fill="#284E68" d="M513.874,118.223v9.238c0,1.628-0.491,2.907-1.475,3.838s-2.334,1.396-4.053,1.396
			s-3.048-0.469-3.989-1.406s-1.411-2.227-1.411-3.867v-9.199h1.66v9.316c0,1.191,0.325,2.106,0.977,2.744s1.608,0.957,2.871,0.957
			c1.204,0,2.132-0.32,2.783-0.962s0.977-1.561,0.977-2.759v-9.297H513.874z"/>
	</g>
	<g>
		<path fill="#284E68" d="M494.426,156.5h-9.385v-1.396l3.76-3.779c1.146-1.159,1.9-1.985,2.266-2.48s0.639-0.977,0.82-1.445
			s0.273-0.974,0.273-1.514c0-0.762-0.23-1.365-0.693-1.812s-1.104-0.669-1.924-0.669c-0.592,0-1.154,0.098-1.685,0.293
			s-1.122,0.55-1.772,1.064l-0.859-1.104c1.314-1.094,2.748-1.641,4.297-1.641c1.342,0,2.393,0.344,3.154,1.03
			s1.143,1.609,1.143,2.769c0,0.905-0.254,1.8-0.762,2.686s-1.459,2.005-2.852,3.359l-3.125,3.057v0.078h7.344V156.5z"/>
		<path fill="#284E68" d="M502.482,156.5H500.9v-10.176c0-0.847,0.025-1.647,0.078-2.402c-0.137,0.137-0.289,0.28-0.459,0.43
			s-0.943,0.784-2.324,1.904l-0.859-1.113l3.779-2.92h1.367V156.5z"/>
	</g>
</g>
<g>
	<g>
		<path fill="#284E68" d="M624.742,132.5h-1.66v-14.277h7.959v1.475h-6.299v5.225h5.918v1.475h-5.918V132.5z"/>
		<path fill="#284E68" d="M635.064,126.562v5.938h-1.66v-14.277h3.916c1.752,0,3.045,0.335,3.882,1.006s1.255,1.68,1.255,3.027
			c0,1.888-0.957,3.164-2.871,3.828l3.877,6.416H641.5l-3.457-5.938H635.064z M635.064,125.137h2.275
			c1.172,0,2.031-0.232,2.578-0.698s0.82-1.164,0.82-2.095c0-0.944-0.278-1.624-0.835-2.041s-1.45-0.625-2.681-0.625h-2.158V125.137
			z"/>
		<path fill="#284E68" d="M645.768,132.5v-14.277h1.66V132.5H645.768z"/>
	</g>
	<g>
		<path fill="#284E68" d="M634.176,156.5h-9.385v-1.396l3.76-3.779c1.146-1.159,1.9-1.985,2.266-2.48s0.639-0.977,0.82-1.445
			s0.273-0.974,0.273-1.514c0-0.762-0.23-1.365-0.693-1.812s-1.104-0.669-1.924-0.669c-0.592,0-1.154,0.098-1.685,0.293
			s-1.122,0.55-1.772,1.064l-0.859-1.104c1.314-1.094,2.748-1.641,4.297-1.641c1.342,0,2.393,0.344,3.154,1.03
			s1.143,1.609,1.143,2.769c0,0.905-0.254,1.8-0.762,2.686s-1.459,2.005-2.852,3.359l-3.125,3.057v0.078h7.344V156.5z"/>
		<path fill="#284E68" d="M645.611,156.5h-9.385v-1.396l3.76-3.779c1.146-1.159,1.9-1.985,2.266-2.48s0.639-0.977,0.82-1.445
			s0.273-0.974,0.273-1.514c0-0.762-0.23-1.365-0.693-1.812s-1.104-0.669-1.924-0.669c-0.592,0-1.154,0.098-1.685,0.293
			s-1.122,0.55-1.772,1.064l-0.859-1.104c1.314-1.094,2.748-1.641,4.297-1.641c1.342,0,2.393,0.344,3.154,1.03
			s1.143,1.609,1.143,2.769c0,0.905-0.254,1.8-0.762,2.686s-1.459,2.005-2.852,3.359l-3.125,3.057v0.078h7.344V156.5z"/>
	</g>
</g>
<rect x="23.75" y="138.5" fill="#A7B2BB" width="21" height="1"/>
<rect x="652.75" y="138.5" fill="#A7B2BB" width="21" height="1"/>
<rect x="521.75" y="138.5" fill="#A7B2BB" width="94" height="1"/>
<rect x="378.75" y="138.5" fill="#A7B2BB" width="94" height="1"/>
<rect x="236.75" y="138.5" fill="#A7B2BB" width="94" height="1"/>
<rect x="102.75" y="138.5" fill="#A7B2BB" width="94" height="1"/>
<g>
	<path fill="#28AAE1" d="M160.172,65.205c0,1.418-0.352,2.508-1.055,3.27s-1.711,1.143-3.023,1.143s-2.32-0.381-3.023-1.143
		s-1.055-1.855-1.055-3.281s0.353-2.515,1.058-3.267s1.716-1.128,3.032-1.128s2.323,0.379,3.021,1.137
		S160.172,63.783,160.172,65.205z M153.92,65.205c0,0.957,0.182,1.678,0.545,2.162s0.906,0.727,1.629,0.727
		c1.449,0,2.174-0.963,2.174-2.889c0-1.93-0.721-2.895-2.162-2.895c-0.723,0-1.268,0.243-1.635,0.729S153.92,64.248,153.92,65.205z"
		/>
	<path fill="#28AAE1" d="M167.865,63.605c0,0.922-0.288,1.627-0.864,2.115s-1.396,0.732-2.458,0.732h-0.779V69.5h-1.816v-8.566
		h2.736c1.039,0,1.829,0.224,2.37,0.671S167.865,62.719,167.865,63.605z M163.764,64.965h0.598c0.559,0,0.977-0.11,1.254-0.331
		s0.416-0.542,0.416-0.964c0-0.426-0.116-0.74-0.349-0.943s-0.597-0.305-1.093-0.305h-0.826V64.965z"/>
	<path fill="#28AAE1" d="M174.416,69.5h-4.934v-8.566h4.934v1.488h-3.117v1.881h2.9v1.488h-2.9V68h3.117V69.5z"/>
	<path fill="#28AAE1" d="M183.803,69.5h-2.309l-3.727-6.48h-0.053c0.074,1.145,0.111,1.961,0.111,2.449V69.5h-1.623v-8.566h2.291
		l3.721,6.416h0.041c-0.059-1.113-0.088-1.9-0.088-2.361v-4.055h1.635V69.5z"/>
	<path fill="#28AAE1" d="M191.016,67.121c0,0.773-0.278,1.383-0.835,1.828s-1.331,0.668-2.323,0.668
		c-0.914,0-1.723-0.172-2.426-0.516v-1.688c0.578,0.258,1.067,0.439,1.468,0.545s0.767,0.158,1.099,0.158
		c0.398,0,0.704-0.076,0.917-0.229s0.319-0.379,0.319-0.68c0-0.168-0.047-0.317-0.141-0.448s-0.231-0.257-0.413-0.378
		s-0.552-0.314-1.11-0.58c-0.523-0.246-0.916-0.482-1.178-0.709s-0.471-0.49-0.627-0.791s-0.234-0.652-0.234-1.055
		c0-0.758,0.257-1.354,0.771-1.787s1.224-0.65,2.13-0.65c0.445,0,0.87,0.053,1.274,0.158s0.827,0.254,1.269,0.445l-0.586,1.412
		c-0.457-0.188-0.835-0.318-1.134-0.393s-0.593-0.111-0.882-0.111c-0.344,0-0.607,0.08-0.791,0.24s-0.275,0.369-0.275,0.627
		c0,0.16,0.037,0.3,0.111,0.419s0.192,0.234,0.354,0.346s0.546,0.312,1.151,0.601c0.801,0.383,1.35,0.767,1.646,1.151
		S191.016,66.562,191.016,67.121z"/>
	<path fill="#28AAE1" d="M195.873,69.5h-1.816v-7.055h-2.326v-1.512h6.469v1.512h-2.326V69.5z"/>
	<path fill="#28AAE1" d="M204.762,69.5l-0.621-2.039h-3.123l-0.621,2.039h-1.957l3.023-8.602h2.221l3.035,8.602H204.762z
		 M203.707,65.938c-0.574-1.848-0.897-2.893-0.97-3.135s-0.124-0.434-0.155-0.574c-0.129,0.5-0.498,1.736-1.107,3.709H203.707z"/>
	<path fill="#28AAE1" d="M211.436,62.322c-0.684,0-1.213,0.257-1.588,0.771s-0.562,1.229-0.562,2.147c0,1.91,0.717,2.865,2.15,2.865
		c0.602,0,1.33-0.15,2.186-0.451v1.523c-0.703,0.293-1.488,0.439-2.355,0.439c-1.246,0-2.199-0.378-2.859-1.134
		s-0.99-1.841-0.99-3.255c0-0.891,0.162-1.671,0.486-2.341s0.79-1.184,1.397-1.541s1.319-0.536,2.136-0.536
		c0.832,0,1.668,0.201,2.508,0.604l-0.586,1.477c-0.32-0.152-0.643-0.285-0.967-0.398S211.748,62.322,211.436,62.322z"/>
	<path fill="#28AAE1" d="M222.334,69.5h-2.062l-2.244-3.609l-0.768,0.551V69.5h-1.816v-8.566h1.816v3.92l0.715-1.008l2.32-2.912
		h2.016l-2.988,3.791L222.334,69.5z"/>
	<path fill="#28AAE1" d="M231.586,67.121c0,0.773-0.278,1.383-0.835,1.828s-1.331,0.668-2.323,0.668
		c-0.914,0-1.723-0.172-2.426-0.516v-1.688c0.578,0.258,1.067,0.439,1.468,0.545s0.767,0.158,1.099,0.158
		c0.398,0,0.704-0.076,0.917-0.229s0.319-0.379,0.319-0.68c0-0.168-0.047-0.317-0.141-0.448s-0.231-0.257-0.413-0.378
		s-0.552-0.314-1.11-0.58c-0.523-0.246-0.916-0.482-1.178-0.709s-0.471-0.49-0.627-0.791s-0.234-0.652-0.234-1.055
		c0-0.758,0.257-1.354,0.771-1.787s1.224-0.65,2.13-0.65c0.445,0,0.87,0.053,1.274,0.158s0.827,0.254,1.269,0.445l-0.586,1.412
		c-0.457-0.188-0.835-0.318-1.134-0.393s-0.593-0.111-0.882-0.111c-0.344,0-0.607,0.08-0.791,0.24s-0.275,0.369-0.275,0.627
		c0,0.16,0.037,0.3,0.111,0.419s0.192,0.234,0.354,0.346s0.546,0.312,1.151,0.601c0.801,0.383,1.35,0.767,1.646,1.151
		S231.586,66.562,231.586,67.121z"/>
	<path fill="#28AAE1" d="M240.111,60.934v5.543c0,0.633-0.142,1.188-0.425,1.664s-0.692,0.842-1.228,1.096s-1.168,0.381-1.898,0.381
		c-1.102,0-1.957-0.282-2.566-0.847s-0.914-1.337-0.914-2.317v-5.52h1.811v5.244c0,0.66,0.133,1.145,0.398,1.453
		s0.705,0.463,1.318,0.463c0.594,0,1.024-0.155,1.292-0.466s0.401-0.798,0.401-1.462v-5.232H240.111z"/>
	<path fill="#28AAE1" d="M245.836,69.5l-2.062-6.721h-0.053c0.074,1.367,0.111,2.279,0.111,2.736V69.5h-1.623v-8.566h2.473
		l2.027,6.551h0.035l2.15-6.551h2.473V69.5h-1.693v-4.055c0-0.191,0.003-0.412,0.009-0.662s0.032-0.914,0.079-1.992h-0.053
		L247.5,69.5H245.836z"/>
	<path fill="#28AAE1" d="M257.15,69.5l-2.062-6.721h-0.053c0.074,1.367,0.111,2.279,0.111,2.736V69.5h-1.623v-8.566h2.473
		l2.027,6.551h0.035l2.15-6.551h2.473V69.5h-1.693v-4.055c0-0.191,0.003-0.412,0.009-0.662s0.032-0.914,0.079-1.992h-0.053
		l-2.209,6.709H257.15z"/>
	<path fill="#28AAE1" d="M264.838,69.5v-8.566h1.816V69.5H264.838z"/>
	<path fill="#28AAE1" d="M272.115,69.5h-1.816v-7.055h-2.326v-1.512h6.469v1.512h-2.326V69.5z"/>
</g>
<rect x="73.833" y="77.5" fill="#28AAE1" width="281.25" height="11.5"/>
<rect x="355.083" y="72" fill="#28AAE1" width="2.75" height="21.917"/>
<rect x="71.083" y="72" fill="#28AAE1" width="2.75" height="21.917"/>
<g>
	<g>
		<path fill="#CF3527" d="M386.029,212.468c0,1.41-0.401,2.49-1.204,3.24s-1.962,1.125-3.478,1.125h-2.426v-8.566h2.689
			c1.398,0,2.484,0.369,3.258,1.107S386.029,211.144,386.029,212.468z M384.143,212.515c0-1.84-0.812-2.76-2.438-2.76h-0.967v5.578
			h0.779C383.268,215.333,384.143,214.394,384.143,212.515z"/>
		<path fill="#CF3527" d="M392.738,216.833h-4.934v-8.566h4.934v1.488h-3.117v1.881h2.9v1.488h-2.9v2.209h3.117V216.833z"/>
		<path fill="#CF3527" d="M399.582,214.454c0,0.773-0.278,1.383-0.835,1.828s-1.331,0.668-2.323,0.668
			c-0.914,0-1.723-0.172-2.426-0.516v-1.688c0.578,0.258,1.067,0.439,1.468,0.545s0.767,0.158,1.099,0.158
			c0.398,0,0.704-0.076,0.917-0.229s0.319-0.379,0.319-0.68c0-0.168-0.047-0.317-0.141-0.448s-0.231-0.257-0.413-0.378
			s-0.552-0.314-1.11-0.58c-0.523-0.246-0.916-0.482-1.178-0.709s-0.471-0.49-0.627-0.791s-0.234-0.652-0.234-1.055
			c0-0.758,0.257-1.354,0.771-1.787s1.224-0.65,2.13-0.65c0.445,0,0.87,0.053,1.274,0.158s0.827,0.254,1.269,0.445l-0.586,1.412
			c-0.457-0.188-0.835-0.318-1.134-0.393s-0.593-0.111-0.882-0.111c-0.344,0-0.607,0.08-0.791,0.24s-0.275,0.369-0.275,0.627
			c0,0.16,0.037,0.3,0.111,0.419s0.192,0.234,0.354,0.346s0.546,0.312,1.151,0.601c0.801,0.383,1.35,0.767,1.646,1.151
			S399.582,213.896,399.582,214.454z"/>
		<path fill="#CF3527" d="M401.135,216.833v-8.566h1.816v8.566H401.135z"/>
		<path fill="#CF3527" d="M408.359,212.022h3.398v4.441c-0.551,0.18-1.069,0.306-1.556,0.378s-0.983,0.108-1.491,0.108
			c-1.293,0-2.28-0.38-2.962-1.14s-1.022-1.851-1.022-3.272c0-1.383,0.396-2.461,1.187-3.234s1.888-1.16,3.29-1.16
			c0.879,0,1.727,0.176,2.543,0.527l-0.604,1.453c-0.625-0.312-1.275-0.469-1.951-0.469c-0.785,0-1.414,0.264-1.887,0.791
			s-0.709,1.236-0.709,2.127c0,0.93,0.19,1.64,0.571,2.13s0.935,0.735,1.661,0.735c0.379,0,0.764-0.039,1.154-0.117v-1.787h-1.623
			V212.022z"/>
		<path fill="#CF3527" d="M421.396,216.833h-2.309l-3.727-6.48h-0.053c0.074,1.145,0.111,1.961,0.111,2.449v4.031h-1.623v-8.566
			h2.291l3.721,6.416h0.041c-0.059-1.113-0.088-1.9-0.088-2.361v-4.055h1.635V216.833z"/>
		<path fill="#CF3527" d="M431.727,214.454c0,0.773-0.278,1.383-0.835,1.828s-1.331,0.668-2.323,0.668
			c-0.914,0-1.723-0.172-2.426-0.516v-1.688c0.578,0.258,1.067,0.439,1.468,0.545s0.767,0.158,1.099,0.158
			c0.398,0,0.704-0.076,0.917-0.229s0.319-0.379,0.319-0.68c0-0.168-0.047-0.317-0.141-0.448s-0.231-0.257-0.413-0.378
			s-0.552-0.314-1.11-0.58c-0.523-0.246-0.916-0.482-1.178-0.709s-0.471-0.49-0.627-0.791s-0.234-0.652-0.234-1.055
			c0-0.758,0.257-1.354,0.771-1.787s1.224-0.65,2.13-0.65c0.445,0,0.87,0.053,1.274,0.158s0.827,0.254,1.269,0.445l-0.586,1.412
			c-0.457-0.188-0.835-0.318-1.134-0.393s-0.593-0.111-0.882-0.111c-0.344,0-0.607,0.08-0.791,0.24s-0.275,0.369-0.275,0.627
			c0,0.16,0.037,0.3,0.111,0.419s0.192,0.234,0.354,0.346s0.546,0.312,1.151,0.601c0.801,0.383,1.35,0.767,1.646,1.151
			S431.727,213.896,431.727,214.454z"/>
		<path fill="#CF3527" d="M440.252,208.267v5.543c0,0.633-0.142,1.188-0.425,1.664s-0.692,0.842-1.228,1.096
			s-1.168,0.381-1.898,0.381c-1.102,0-1.957-0.282-2.566-0.847s-0.914-1.337-0.914-2.317v-5.52h1.811v5.244
			c0,0.66,0.133,1.145,0.398,1.453s0.705,0.463,1.318,0.463c0.594,0,1.024-0.155,1.292-0.466s0.401-0.798,0.401-1.462v-5.232
			H440.252z"/>
		<path fill="#CF3527" d="M445.977,216.833l-2.062-6.721h-0.053c0.074,1.367,0.111,2.279,0.111,2.736v3.984h-1.623v-8.566h2.473
			l2.027,6.551h0.035l2.15-6.551h2.473v8.566h-1.693v-4.055c0-0.191,0.003-0.412,0.009-0.662s0.032-0.914,0.079-1.992h-0.053
			l-2.209,6.709H445.977z"/>
		<path fill="#CF3527" d="M457.291,216.833l-2.062-6.721h-0.053c0.074,1.367,0.111,2.279,0.111,2.736v3.984h-1.623v-8.566h2.473
			l2.027,6.551h0.035l2.15-6.551h2.473v8.566h-1.693v-4.055c0-0.191,0.003-0.412,0.009-0.662s0.032-0.914,0.079-1.992h-0.053
			l-2.209,6.709H457.291z"/>
		<path fill="#CF3527" d="M464.979,216.833v-8.566h1.816v8.566H464.979z"/>
		<path fill="#CF3527" d="M472.256,216.833h-1.816v-7.055h-2.326v-1.512h6.469v1.512h-2.326V216.833z"/>
	</g>
</g>
<rect x="218.833" y="184.5" fill="#CF3527" width="417.25" height="11.5"/>
<rect x="636.084" y="179" fill="#CF3527" width="2.75" height="21.916"/>
<rect x="216.083" y="179" fill="#CF3527" width="2.75" height="21.916"/>
</svg>
