<?xml version="1.0" encoding="utf-8"?>
<!-- Generator: Adobe Illustrator 18.1.1, SVG Export Plug-In . SVG Version: 6.00 Build 0)  -->
<svg version="1.1" id="Layer_1" xmlns="http://www.w3.org/2000/svg" xmlns:xlink="http://www.w3.org/1999/xlink" x="0px" y="0px"
	 viewBox="105 -6 609 289" enable-background="new 105 -6 609 289" xml:space="preserve">
<g id="Layer_2" display="none">
</g>
<g id="Layer_1_1_">
</g>
<rect x="211" y="66.3" fill="#30739C" width="246" height="45.4"/>
<g>
	<path fill="#FFFFFF" d="M307.8,94h-1.4l-3.6-4.8l-1,0.9V94h-1.2V84h1.2v5l4.5-5h1.4l-4,4.3L307.8,94z"/>
	<path fill="#FFFFFF" d="M314.7,94h-5.6V84h5.6v1h-4.4v3.2h4.1v1h-4.1V93h4.4V94z"/>
	<path fill="#FFFFFF" d="M319.5,89l2.7-5h1.3l-3.3,6.1V94h-1.2v-3.8l-3.3-6.2h1.3L319.5,89z"/>
	<path fill="#FFFFFF" d="M332.6,94h-1.3l-5.5-8.4h-0.1c0.1,1,0.1,1.9,0.1,2.7V94h-1.1V84h1.3l5.4,8.4h0.1c0-0.1,0-0.5-0.1-1.2
		c0-0.7,0-1.1,0-1.4V84h1.1L332.6,94L332.6,94z"/>
	<path fill="#FFFFFF" d="M344,89c0,1.6-0.4,2.9-1.2,3.8s-1.9,1.4-3.4,1.4c-1.5,0-2.6-0.5-3.4-1.4c-0.8-0.9-1.2-2.2-1.2-3.8
		c0-1.6,0.4-2.9,1.2-3.8c0.8-0.9,1.9-1.3,3.4-1.3c1.4,0,2.6,0.5,3.4,1.4S344,87.4,344,89z M336.1,89c0,1.4,0.3,2.4,0.9,3.1
		c0.6,0.7,1.4,1,2.5,1c1.1,0,1.9-0.3,2.5-1s0.8-1.7,0.8-3.1c0-1.3-0.3-2.4-0.8-3.1c-0.6-0.7-1.4-1-2.5-1c-1.1,0-1.9,0.4-2.5,1.1
		C336.3,86.7,336.1,87.7,336.1,89z"/>
	<path fill="#FFFFFF" d="M349.3,94h-1.2v-9H345v-1h7.5v1h-3.2V94L349.3,94z"/>
	<path fill="#FFFFFF" d="M359.6,94H354V84h5.6v1h-4.4v3.2h4.1v1h-4.1V93h4.4V94z"/>
	<path fill="#FFFFFF" d="M367.4,91.4c0,0.9-0.3,1.6-1,2.1s-1.5,0.7-2.6,0.7c-1.2,0-2.1-0.2-2.7-0.5v-1.1c0.4,0.2,0.9,0.3,1.3,0.4
		s1,0.1,1.4,0.1c0.8,0,1.4-0.1,1.8-0.4c0.4-0.3,0.6-0.7,0.6-1.2c0-0.3-0.1-0.6-0.2-0.9c-0.1-0.2-0.4-0.4-0.7-0.6s-0.8-0.4-1.5-0.6
		c-0.9-0.3-1.6-0.7-2-1.2c-0.4-0.5-0.6-1.1-0.6-1.8c0-0.8,0.3-1.4,0.9-1.8s1.3-0.7,2.3-0.7c1,0,1.9,0.2,2.7,0.5l-0.4,1
		c-0.8-0.3-1.6-0.5-2.4-0.5c-0.6,0-1.1,0.1-1.4,0.4s-0.5,0.6-0.5,1.1c0,0.3,0.1,0.6,0.2,0.9c0.1,0.2,0.3,0.4,0.6,0.6
		c0.3,0.2,0.8,0.4,1.4,0.6c1,0.4,1.8,0.8,2.2,1.2C367.2,90.1,367.4,90.7,367.4,91.4z"/>
</g>
<rect x="211" y="119.1" fill="#30739C" width="375.9" height="45.4"/>
<rect x="211" y="171.8" fill="#30739C" width="375.9" height="45.4"/>
<g>
	<path fill="#FFFFFF" d="M284.7,189.5h2.8c1.3,0,2.3,0.2,2.9,0.6s0.9,1,0.9,1.9c0,0.6-0.2,1.1-0.5,1.5c-0.3,0.4-0.8,0.6-1.4,0.7v0.1
		c1.5,0.3,2.3,1.1,2.3,2.4c0,0.9-0.3,1.6-0.9,2.1s-1.4,0.8-2.5,0.8h-3.5L284.7,189.5L284.7,189.5z M285.8,193.8h1.9
		c0.8,0,1.4-0.1,1.8-0.4c0.4-0.3,0.5-0.7,0.5-1.3c0-0.6-0.2-1-0.6-1.2c-0.4-0.2-1-0.4-1.9-0.4h-1.7L285.8,193.8L285.8,193.8z
		 M285.8,194.8v3.7h2.1c0.8,0,1.4-0.2,1.8-0.5c0.4-0.3,0.6-0.8,0.6-1.5c0-0.6-0.2-1.1-0.6-1.4c-0.4-0.3-1.1-0.4-1.9-0.4L285.8,194.8
		L285.8,194.8z"/>
	<path fill="#FFFFFF" d="M301.3,189.5v6.5c0,1.1-0.3,2-1,2.7c-0.7,0.7-1.6,1-2.8,1s-2.1-0.3-2.8-1c-0.7-0.7-1-1.6-1-2.7v-6.4h1.2
		v6.5c0,0.8,0.2,1.5,0.7,1.9c0.5,0.4,1.1,0.7,2,0.7c0.8,0,1.5-0.2,1.9-0.7c0.5-0.4,0.7-1.1,0.7-1.9v-6.5L301.3,189.5L301.3,189.5z"
		/>
	<path fill="#FFFFFF" d="M309.6,196.9c0,0.9-0.3,1.6-1,2.1s-1.5,0.7-2.6,0.7c-1.2,0-2.1-0.2-2.7-0.5v-1.1c0.4,0.2,0.9,0.3,1.3,0.4
		s1,0.1,1.4,0.1c0.8,0,1.4-0.1,1.8-0.4c0.4-0.3,0.6-0.7,0.6-1.2c0-0.3-0.1-0.6-0.2-0.9c-0.1-0.2-0.4-0.4-0.7-0.6s-0.8-0.4-1.5-0.6
		c-0.9-0.3-1.6-0.7-2-1.2c-0.4-0.5-0.6-1-0.6-1.8c0-0.8,0.3-1.4,0.9-1.8s1.3-0.7,2.3-0.7c1,0,1.9,0.2,2.7,0.5l-0.4,1
		c-0.8-0.3-1.6-0.5-2.4-0.5c-0.6,0-1.1,0.1-1.4,0.4s-0.5,0.6-0.5,1.1c0,0.3,0.1,0.6,0.2,0.9c0.1,0.2,0.3,0.4,0.6,0.6
		c0.3,0.2,0.8,0.4,1.4,0.6c1,0.4,1.8,0.8,2.2,1.2C309.4,195.6,309.6,196.2,309.6,196.9z"/>
	<path fill="#FFFFFF" d="M311.6,199.5v-10h1.2v10H311.6z"/>
	<path fill="#FFFFFF" d="M323.3,199.5H322l-5.5-8.4h-0.1c0.1,1,0.1,1.9,0.1,2.7v5.7h-1.1v-10h1.3l5.4,8.4h0.1c0-0.1,0-0.5-0.1-1.2
		c0-0.7,0-1.1,0-1.4v-5.7h1.1L323.3,199.5L323.3,199.5z"/>
	<path fill="#FFFFFF" d="M331.6,199.5h-5.6v-10h5.6v1h-4.4v3.2h4.1v1h-4.1v3.7h4.4V199.5z"/>
	<path fill="#FFFFFF" d="M339.5,196.9c0,0.9-0.3,1.6-1,2.1s-1.5,0.7-2.6,0.7c-1.2,0-2.1-0.2-2.7-0.5v-1.1c0.4,0.2,0.9,0.3,1.3,0.4
		s1,0.1,1.4,0.1c0.8,0,1.4-0.1,1.8-0.4c0.4-0.3,0.6-0.7,0.6-1.2c0-0.3-0.1-0.6-0.2-0.9c-0.1-0.2-0.4-0.4-0.7-0.6s-0.8-0.4-1.5-0.6
		c-0.9-0.3-1.6-0.7-2-1.2c-0.4-0.5-0.6-1-0.6-1.8c0-0.8,0.3-1.4,0.9-1.8s1.3-0.7,2.3-0.7c1,0,1.9,0.2,2.7,0.5l-0.4,1
		c-0.8-0.3-1.6-0.5-2.4-0.5c-0.6,0-1.1,0.1-1.4,0.4s-0.5,0.6-0.5,1.1c0,0.3,0.1,0.6,0.2,0.9c0.1,0.2,0.3,0.4,0.6,0.6
		c0.3,0.2,0.8,0.4,1.4,0.6c1,0.4,1.8,0.8,2.2,1.2C339.3,195.6,339.5,196.2,339.5,196.9z"/>
	<path fill="#FFFFFF" d="M347.2,196.9c0,0.9-0.3,1.6-1,2.1s-1.5,0.7-2.6,0.7c-1.2,0-2.1-0.2-2.7-0.5v-1.1c0.4,0.2,0.9,0.3,1.3,0.4
		s1,0.1,1.4,0.1c0.8,0,1.4-0.1,1.8-0.4c0.4-0.3,0.6-0.7,0.6-1.2c0-0.3-0.1-0.6-0.2-0.9c-0.1-0.2-0.4-0.4-0.7-0.6s-0.8-0.4-1.5-0.6
		c-0.9-0.3-1.6-0.7-2-1.2c-0.4-0.5-0.6-1-0.6-1.8c0-0.8,0.3-1.4,0.9-1.8s1.3-0.7,2.3-0.7c1,0,1.9,0.2,2.7,0.5l-0.4,1
		c-0.8-0.3-1.6-0.5-2.4-0.5c-0.6,0-1.1,0.1-1.4,0.4s-0.5,0.6-0.5,1.1c0,0.3,0.1,0.6,0.2,0.9c0.1,0.2,0.3,0.4,0.6,0.6
		c0.3,0.2,0.8,0.4,1.4,0.6c1,0.4,1.8,0.8,2.2,1.2C347,195.6,347.2,196.2,347.2,196.9z"/>
	<path fill="#FFFFFF" d="M358.5,196.9c0,0.9-0.3,1.6-1,2.1s-1.5,0.7-2.6,0.7c-1.2,0-2.1-0.2-2.7-0.5v-1.1c0.4,0.2,0.9,0.3,1.3,0.4
		s1,0.1,1.4,0.1c0.8,0,1.4-0.1,1.8-0.4c0.4-0.3,0.6-0.7,0.6-1.2c0-0.3-0.1-0.6-0.2-0.9c-0.1-0.2-0.4-0.4-0.7-0.6s-0.8-0.4-1.5-0.6
		c-0.9-0.3-1.6-0.7-2-1.2c-0.4-0.5-0.6-1-0.6-1.8c0-0.8,0.3-1.4,0.9-1.8s1.3-0.7,2.3-0.7c1,0,1.9,0.2,2.7,0.5l-0.4,1
		c-0.8-0.3-1.6-0.5-2.4-0.5c-0.6,0-1.1,0.1-1.4,0.4s-0.5,0.6-0.5,1.1c0,0.3,0.1,0.6,0.2,0.9c0.1,0.2,0.3,0.4,0.6,0.6
		c0.3,0.2,0.8,0.4,1.4,0.6c1,0.4,1.8,0.8,2.2,1.2C358.3,195.6,358.5,196.2,358.5,196.9z"/>
	<path fill="#FFFFFF" d="M366.1,199.5h-5.6v-10h5.6v1h-4.4v3.2h4.1v1h-4.1v3.7h4.4V199.5z"/>
	<path fill="#FFFFFF" d="M374,196.9c0,0.9-0.3,1.6-1,2.1s-1.5,0.7-2.6,0.7c-1.2,0-2.1-0.2-2.7-0.5v-1.1c0.4,0.2,0.9,0.3,1.3,0.4
		s1,0.1,1.4,0.1c0.8,0,1.4-0.1,1.8-0.4c0.4-0.3,0.6-0.7,0.6-1.2c0-0.3-0.1-0.6-0.2-0.9c-0.1-0.2-0.4-0.4-0.7-0.6s-0.8-0.4-1.5-0.6
		c-0.9-0.3-1.6-0.7-2-1.2c-0.4-0.5-0.6-1-0.6-1.8c0-0.8,0.3-1.4,0.9-1.8s1.3-0.7,2.3-0.7c1,0,1.9,0.2,2.7,0.5l-0.4,1
		c-0.8-0.3-1.6-0.5-2.4-0.5c-0.6,0-1.1,0.1-1.4,0.4s-0.5,0.6-0.5,1.1c0,0.3,0.1,0.6,0.2,0.9c0.1,0.2,0.3,0.4,0.6,0.6
		c0.3,0.2,0.8,0.4,1.4,0.6c1,0.4,1.8,0.8,2.2,1.2C373.8,195.6,374,196.2,374,196.9z"/>
	<path fill="#FFFFFF" d="M381.6,196.9c0,0.9-0.3,1.6-1,2.1s-1.5,0.7-2.6,0.7c-1.2,0-2.1-0.2-2.7-0.5v-1.1c0.4,0.2,0.9,0.3,1.3,0.4
		s1,0.1,1.4,0.1c0.8,0,1.4-0.1,1.8-0.4c0.4-0.3,0.6-0.7,0.6-1.2c0-0.3-0.1-0.6-0.2-0.9c-0.1-0.2-0.4-0.4-0.7-0.6s-0.8-0.4-1.5-0.6
		c-0.9-0.3-1.6-0.7-2-1.2c-0.4-0.5-0.6-1-0.6-1.8c0-0.8,0.3-1.4,0.9-1.8s1.3-0.7,2.3-0.7c1,0,1.9,0.2,2.7,0.5l-0.4,1
		c-0.8-0.3-1.6-0.5-2.4-0.5c-0.6,0-1.1,0.1-1.4,0.4s-0.5,0.6-0.5,1.1c0,0.3,0.1,0.6,0.2,0.9c0.1,0.2,0.3,0.4,0.6,0.6
		c0.3,0.2,0.8,0.4,1.4,0.6c1,0.4,1.8,0.8,2.2,1.2C381.4,195.6,381.6,196.2,381.6,196.9z"/>
	<path fill="#FFFFFF" d="M383.7,199.5v-10h1.2v10H383.7z"/>
	<path fill="#FFFFFF" d="M396.3,194.5c0,1.6-0.4,2.9-1.2,3.8s-1.9,1.4-3.4,1.4c-1.5,0-2.6-0.5-3.4-1.4c-0.8-0.9-1.2-2.2-1.2-3.8
		c0-1.6,0.4-2.9,1.2-3.8c0.8-0.9,1.9-1.3,3.4-1.3c1.4,0,2.6,0.5,3.4,1.4S396.3,192.9,396.3,194.5z M388.3,194.5
		c0,1.4,0.3,2.4,0.9,3.1c0.6,0.7,1.4,1,2.5,1c1.1,0,1.9-0.3,2.5-1s0.8-1.7,0.8-3.1c0-1.3-0.3-2.4-0.8-3.1c-0.6-0.7-1.4-1-2.5-1
		c-1.1,0-1.9,0.4-2.5,1C388.6,192.2,388.3,193.2,388.3,194.5z"/>
	<path fill="#FFFFFF" d="M406.3,199.5H405l-5.5-8.4h-0.1c0.1,1,0.1,1.9,0.1,2.7v5.7h-1.1v-10h1.3l5.4,8.4h0.1c0-0.1,0-0.5-0.1-1.2
		c0-0.7,0-1.1,0-1.4v-5.7h1.1L406.3,199.5L406.3,199.5z"/>
	<path fill="#FFFFFF" d="M414.7,196.9c0,0.9-0.3,1.6-1,2.1s-1.5,0.7-2.6,0.7c-1.2,0-2.1-0.2-2.7-0.5v-1.1c0.4,0.2,0.9,0.3,1.3,0.4
		s1,0.1,1.4,0.1c0.8,0,1.4-0.1,1.8-0.4c0.4-0.3,0.6-0.7,0.6-1.2c0-0.3-0.1-0.6-0.2-0.9c-0.1-0.2-0.4-0.4-0.7-0.6s-0.8-0.4-1.5-0.6
		c-0.9-0.3-1.6-0.7-2-1.2s-0.6-1-0.6-1.8c0-0.8,0.3-1.4,0.9-1.8s1.3-0.7,2.3-0.7c1,0,1.9,0.2,2.7,0.5l-0.4,1
		c-0.8-0.3-1.6-0.5-2.4-0.5c-0.6,0-1.1,0.1-1.4,0.4s-0.5,0.6-0.5,1.1c0,0.3,0.1,0.6,0.2,0.9c0.1,0.2,0.3,0.4,0.6,0.6
		c0.3,0.2,0.8,0.4,1.4,0.6c1,0.4,1.8,0.8,2.2,1.2S414.7,196.2,414.7,196.9z"/>
	<path fill="#FFFFFF" d="M424,189.5l-3.7,10h-1.1l3.7-10H424z"/>
	<path fill="#FFFFFF" d="M437.9,199.5h-1.1l-2-6.7c-0.1-0.3-0.2-0.7-0.3-1.1s-0.2-0.7-0.2-0.8c-0.1,0.6-0.3,1.3-0.5,2l-2,6.7h-1.1
		l-2.7-10h1.2l1.6,6.2c0.2,0.9,0.4,1.6,0.5,2.4c0.1-0.8,0.3-1.6,0.5-2.4l1.8-6.1h1.2l1.9,6.1c0.2,0.7,0.4,1.5,0.6,2.4
		c0.1-0.6,0.2-1.4,0.5-2.4l1.6-6.2h1.2L437.9,199.5z"/>
	<path fill="#FFFFFF" d="M450.8,194.5c0,1.6-0.4,2.9-1.2,3.8s-1.9,1.4-3.4,1.4c-1.5,0-2.6-0.5-3.4-1.4s-1.2-2.2-1.2-3.8
		c0-1.6,0.4-2.9,1.2-3.8c0.8-0.9,1.9-1.3,3.4-1.3c1.4,0,2.6,0.5,3.4,1.4S450.8,192.9,450.8,194.5z M442.8,194.5
		c0,1.4,0.3,2.4,0.9,3.1c0.6,0.7,1.4,1,2.5,1c1.1,0,1.9-0.3,2.5-1s0.8-1.7,0.8-3.1c0-1.3-0.3-2.4-0.8-3.1c-0.6-0.7-1.4-1-2.5-1
		c-1.1,0-1.9,0.4-2.5,1C443.1,192.2,442.8,193.2,442.8,194.5z"/>
	<path fill="#FFFFFF" d="M454.2,195.4v4.2H453v-10h2.7c1.2,0,2.1,0.2,2.7,0.7s0.9,1.2,0.9,2.1c0,1.3-0.7,2.2-2,2.7l2.7,4.5h-1.4
		l-2.4-4.2H454.2z M454.2,194.4h1.6c0.8,0,1.4-0.2,1.8-0.5c0.4-0.3,0.6-0.8,0.6-1.5c0-0.7-0.2-1.1-0.6-1.4s-1-0.4-1.9-0.4h-1.5
		L454.2,194.4L454.2,194.4z"/>
	<path fill="#FFFFFF" d="M468.9,199.5h-1.4l-3.6-4.8l-1,0.9v3.9h-1.2v-10h1.2v5l4.5-5h1.4l-4,4.3L468.9,199.5z"/>
	<path fill="#FFFFFF" d="M475.9,196.9c0,0.9-0.3,1.6-1,2.1s-1.5,0.7-2.6,0.7c-1.2,0-2.1-0.2-2.7-0.5v-1.1c0.4,0.2,0.9,0.3,1.3,0.4
		s1,0.1,1.4,0.1c0.8,0,1.4-0.1,1.8-0.4c0.4-0.3,0.6-0.7,0.6-1.2c0-0.3-0.1-0.6-0.2-0.9c-0.1-0.2-0.4-0.4-0.7-0.6s-0.8-0.4-1.5-0.6
		c-0.9-0.3-1.6-0.7-2-1.2s-0.6-1-0.6-1.8c0-0.8,0.3-1.4,0.9-1.8s1.3-0.7,2.3-0.7c1,0,1.9,0.2,2.7,0.5l-0.4,1
		c-0.8-0.3-1.6-0.5-2.4-0.5c-0.6,0-1.1,0.1-1.4,0.4s-0.5,0.6-0.5,1.1c0,0.3,0.1,0.6,0.2,0.9c0.1,0.2,0.3,0.4,0.6,0.6
		c0.3,0.2,0.8,0.4,1.4,0.6c1,0.4,1.8,0.8,2.2,1.2S475.9,196.2,475.9,196.9z"/>
	<path fill="#FFFFFF" d="M485.5,199.5h-1.2v-4.7h-5.3v4.7h-1.2v-10h1.2v4.3h5.3v-4.3h1.2V199.5z"/>
	<path fill="#FFFFFF" d="M496.9,194.5c0,1.6-0.4,2.9-1.2,3.8s-1.9,1.4-3.4,1.4c-1.5,0-2.6-0.5-3.4-1.4s-1.2-2.2-1.2-3.8
		c0-1.6,0.4-2.9,1.2-3.8c0.8-0.9,1.9-1.3,3.4-1.3c1.4,0,2.6,0.5,3.4,1.4S496.9,192.9,496.9,194.5z M489,194.5c0,1.4,0.3,2.4,0.9,3.1
		c0.6,0.7,1.4,1,2.5,1c1.1,0,1.9-0.3,2.5-1s0.8-1.7,0.8-3.1c0-1.3-0.3-2.4-0.8-3.1c-0.6-0.7-1.4-1-2.5-1c-1.1,0-1.9,0.4-2.5,1
		C489.3,192.2,489,193.2,489,194.5z"/>
	<path fill="#FFFFFF" d="M505.5,192.5c0,1-0.3,1.8-1,2.3c-0.7,0.5-1.7,0.8-3,0.8h-1.2v3.9h-1.2v-10h2.6
		C504.3,189.5,505.5,190.5,505.5,192.5z M500.3,194.6h1c1,0,1.8-0.2,2.2-0.5s0.7-0.9,0.7-1.6c0-0.7-0.2-1.2-0.6-1.5s-1.1-0.5-2-0.5
		h-1.3L500.3,194.6L500.3,194.6z"/>
	<path fill="#FFFFFF" d="M513.2,196.9c0,0.9-0.3,1.6-1,2.1c-0.6,0.5-1.5,0.7-2.6,0.7c-1.2,0-2.1-0.2-2.7-0.5v-1.1
		c0.4,0.2,0.9,0.3,1.3,0.4s1,0.1,1.4,0.1c0.8,0,1.4-0.1,1.8-0.4c0.4-0.3,0.6-0.7,0.6-1.2c0-0.3-0.1-0.6-0.2-0.9
		c-0.1-0.2-0.4-0.4-0.7-0.6s-0.8-0.4-1.5-0.6c-0.9-0.3-1.6-0.7-2-1.2s-0.6-1-0.6-1.8c0-0.8,0.3-1.4,0.9-1.8s1.3-0.7,2.3-0.7
		c1,0,1.9,0.2,2.7,0.5l-0.4,1c-0.8-0.3-1.6-0.5-2.4-0.5c-0.6,0-1.1,0.1-1.4,0.4s-0.5,0.6-0.5,1.1c0,0.3,0.1,0.6,0.2,0.9
		c0.1,0.2,0.3,0.4,0.6,0.6c0.3,0.2,0.8,0.4,1.4,0.6c1,0.4,1.8,0.8,2.2,1.2C513,195.6,513.2,196.2,513.2,196.9z"/>
</g>
<rect x="211" y="224.6" fill="#30739C" width="494" height="45.4"/>
<rect x="114" y="10" fill="#29ABE2" width="90.5" height="260"/>
<g>
	<path fill="#FFFFFF" d="M155.9,181.3v2.1h-10v-5.7h1.7v3.6h2.6v-3.4h1.7v3.4H155.9z"/>
	<path fill="#FFFFFF" d="M145.9,167.5h6.5c0.7,0,1.4,0.2,1.9,0.5c0.6,0.3,1,0.8,1.3,1.4c0.3,0.6,0.4,1.4,0.4,2.2c0,1.3-0.3,2.3-1,3
		c-0.7,0.7-1.6,1.1-2.7,1.1h-6.4v-2.1h6.1c0.8,0,1.3-0.2,1.7-0.5c0.4-0.3,0.5-0.8,0.5-1.5c0-0.7-0.2-1.2-0.5-1.5
		c-0.4-0.3-0.9-0.5-1.7-0.5h-6.1L145.9,167.5L145.9,167.5z"/>
	<path fill="#FFFFFF" d="M155.9,165.1h-10V163h8.2v-4.1h1.8V165.1z"/>
	<path fill="#FFFFFF" d="M155.9,157.2h-10V155h8.2V151h1.8V157.2z"/>
	<path fill="#FFFFFF" d="M155.9,139.5l-2.4,0.7v3.6l2.4,0.7v2.3l-10-3.5v-2.6l10-3.5V139.5z M151.7,140.7c-2.2,0.7-3.4,1-3.7,1.1
		c-0.3,0.1-0.5,0.1-0.7,0.2c0.6,0.1,2,0.6,4.3,1.3V140.7z"/>
	<path fill="#FFFFFF" d="M147.5,131.7c0,0.8,0.3,1.4,0.9,1.9s1.4,0.7,2.5,0.7c2.2,0,3.3-0.8,3.3-2.5c0-0.7-0.2-1.6-0.5-2.6h1.8
		c0.3,0.8,0.5,1.7,0.5,2.7c0,1.5-0.4,2.6-1.3,3.3c-0.9,0.8-2.1,1.2-3.8,1.2c-1,0-1.9-0.2-2.7-0.6c-0.8-0.4-1.4-0.9-1.8-1.6
		c-0.4-0.7-0.6-1.5-0.6-2.5c0-1,0.2-1.9,0.7-2.9l1.7,0.7c-0.2,0.4-0.3,0.7-0.5,1.1C147.5,131,147.5,131.3,147.5,131.7z"/>
	<path fill="#FFFFFF" d="M147.5,122.8c0,0.8,0.3,1.4,0.9,1.9s1.4,0.7,2.5,0.7c2.2,0,3.3-0.8,3.3-2.5c0-0.7-0.2-1.6-0.5-2.5h1.8
		c0.3,0.8,0.5,1.7,0.5,2.7c0,1.5-0.4,2.6-1.3,3.3c-0.9,0.8-2.1,1.2-3.8,1.2c-1,0-1.9-0.2-2.7-0.6c-0.8-0.4-1.4-0.9-1.8-1.6
		c-0.4-0.7-0.6-1.5-0.6-2.5c0-1,0.2-1.9,0.7-2.9l1.7,0.7c-0.2,0.4-0.3,0.8-0.5,1.1C147.5,122.1,147.5,122.4,147.5,122.8z"/>
	<path fill="#FFFFFF" d="M155.9,112.4v5.8h-10v-5.8h1.7v3.6h2.2v-3.4h1.7v3.4h2.6v-3.6H155.9z"/>
	<path fill="#FFFFFF" d="M153.1,104.4c0.9,0,1.6,0.3,2.1,1c0.5,0.6,0.8,1.6,0.8,2.7c0,1.1-0.2,2-0.6,2.8h-2c0.3-0.7,0.5-1.2,0.6-1.7
		s0.2-0.9,0.2-1.3c0-0.5-0.1-0.8-0.3-1.1s-0.4-0.4-0.8-0.4c-0.2,0-0.4,0.1-0.5,0.2c-0.2,0.1-0.3,0.3-0.4,0.5
		c-0.1,0.2-0.4,0.6-0.7,1.3c-0.3,0.6-0.6,1.1-0.8,1.4c-0.3,0.3-0.6,0.5-0.9,0.7c-0.4,0.2-0.8,0.3-1.2,0.3c-0.9,0-1.6-0.3-2.1-0.9
		s-0.8-1.4-0.8-2.5c0-0.5,0.1-1,0.2-1.5s0.3-1,0.5-1.5l1.6,0.7c-0.2,0.5-0.4,1-0.5,1.3s-0.1,0.7-0.1,1c0,0.4,0.1,0.7,0.3,0.9
		c0.2,0.2,0.4,0.3,0.7,0.3c0.2,0,0.3,0,0.5-0.1c0.1-0.1,0.3-0.2,0.4-0.4c0.1-0.2,0.4-0.6,0.7-1.3c0.4-0.9,0.9-1.6,1.3-1.9
		C151.9,104.5,152.4,104.4,153.1,104.4z"/>
	<path fill="#FFFFFF" d="M153.1,96.7c0.9,0,1.6,0.3,2.1,1c0.5,0.6,0.8,1.6,0.8,2.7c0,1.1-0.2,2-0.6,2.8h-2c0.3-0.7,0.5-1.2,0.6-1.7
		s0.2-0.9,0.2-1.3c0-0.5-0.1-0.8-0.3-1.1s-0.4-0.4-0.8-0.4c-0.2,0-0.4,0.1-0.5,0.2c-0.2,0.1-0.3,0.3-0.4,0.5
		c-0.1,0.2-0.4,0.6-0.7,1.3c-0.3,0.6-0.6,1.1-0.8,1.4c-0.3,0.3-0.6,0.5-0.9,0.7c-0.4,0.2-0.8,0.3-1.2,0.3c-0.9,0-1.6-0.3-2.1-0.9
		s-0.8-1.4-0.8-2.5c0-0.5,0.1-1,0.2-1.5s0.3-1,0.5-1.5l1.6,0.7c-0.2,0.5-0.4,1-0.5,1.3s-0.1,0.7-0.1,1c0,0.4,0.1,0.7,0.3,0.9
		c0.2,0.2,0.4,0.3,0.7,0.3c0.2,0,0.3,0,0.5-0.1c0.1-0.1,0.3-0.2,0.4-0.4c0.1-0.2,0.4-0.6,0.7-1.3c0.4-0.9,0.9-1.6,1.3-1.9
		C151.9,96.8,152.4,96.7,153.1,96.7z"/>
	<path fill="#FFFFFF" d="M165.8,149.1c1.1,0,1.9,0.3,2.5,1c0.6,0.7,0.9,1.6,0.9,2.9v0.9h3.6v2.1h-10v-3.2c0-1.2,0.3-2.1,0.8-2.8
		C164,149.4,164.7,149.1,165.8,149.1z M167.4,153.9v-0.7c0-0.7-0.1-1.1-0.4-1.5c-0.3-0.3-0.6-0.5-1.1-0.5c-0.5,0-0.9,0.1-1.1,0.4
		c-0.2,0.3-0.4,0.7-0.4,1.3v1H167.4z"/>
	<path fill="#FFFFFF" d="M172.6,141.1l-2.4,0.7v3.6l2.4,0.7v2.3l-10-3.5v-2.6l10-3.5V141.1z M168.5,142.4c-2.2,0.7-3.4,1-3.7,1.1
		c-0.3,0.1-0.5,0.1-0.7,0.2c0.6,0.1,2,0.6,4.3,1.3V142.4z"/>
	<path fill="#FFFFFF" d="M169.9,131.7c0.9,0,1.6,0.3,2.1,1c0.5,0.6,0.8,1.6,0.8,2.7c0,1.1-0.2,2-0.6,2.8h-2c0.3-0.7,0.5-1.2,0.6-1.7
		c0.1-0.5,0.2-0.9,0.2-1.3c0-0.5-0.1-0.8-0.3-1.1c-0.2-0.2-0.4-0.4-0.8-0.4c-0.2,0-0.4,0.1-0.5,0.2c-0.2,0.1-0.3,0.3-0.4,0.5
		c-0.1,0.2-0.4,0.6-0.7,1.3c-0.3,0.6-0.6,1.1-0.8,1.4s-0.6,0.5-0.9,0.7s-0.8,0.3-1.2,0.3c-0.9,0-1.6-0.3-2.1-0.9
		c-0.5-0.6-0.8-1.4-0.8-2.5c0-0.5,0.1-1,0.2-1.5c0.1-0.5,0.3-1,0.5-1.5l1.6,0.7c-0.2,0.5-0.4,1-0.5,1.3c-0.1,0.3-0.1,0.7-0.1,1
		c0,0.4,0.1,0.7,0.3,0.9c0.2,0.2,0.4,0.3,0.7,0.3c0.2,0,0.3,0,0.5-0.1c0.1-0.1,0.3-0.2,0.4-0.4c0.1-0.2,0.4-0.6,0.7-1.3
		c0.4-0.9,0.9-1.6,1.3-1.9C168.7,131.9,169.2,131.7,169.9,131.7z"/>
	<path fill="#FFFFFF" d="M169.9,124c0.9,0,1.6,0.3,2.1,1c0.5,0.6,0.8,1.6,0.8,2.7c0,1.1-0.2,2-0.6,2.8h-2c0.3-0.7,0.5-1.2,0.6-1.7
		c0.1-0.5,0.2-0.9,0.2-1.3c0-0.5-0.1-0.8-0.3-1.1c-0.2-0.2-0.4-0.4-0.8-0.4c-0.2,0-0.4,0.1-0.5,0.2c-0.2,0.1-0.3,0.3-0.4,0.5
		c-0.1,0.2-0.4,0.6-0.7,1.3c-0.3,0.6-0.6,1.1-0.8,1.4s-0.6,0.5-0.9,0.7s-0.8,0.3-1.2,0.3c-0.9,0-1.6-0.3-2.1-0.9
		c-0.5-0.6-0.8-1.4-0.8-2.5c0-0.5,0.1-1,0.2-1.5c0.1-0.5,0.3-1,0.5-1.5l1.6,0.7c-0.2,0.5-0.4,1-0.5,1.3c-0.1,0.3-0.1,0.7-0.1,1
		c0,0.4,0.1,0.7,0.3,0.9c0.2,0.2,0.4,0.3,0.7,0.3c0.2,0,0.3,0,0.5-0.1c0.1-0.1,0.3-0.2,0.4-0.4c0.1-0.2,0.4-0.6,0.7-1.3
		c0.4-0.9,0.9-1.6,1.3-1.9C168.7,124.1,169.2,124,169.9,124z"/>
</g>
<line fill="none" stroke="#888888" stroke-miterlimit="10" x1="321.9" y1="14" x2="321.9" y2="35"/>
<line fill="none" stroke="#888888" stroke-miterlimit="10" x1="454.4" y1="14" x2="454.4" y2="35"/>
<line fill="none" stroke="#888888" stroke-miterlimit="10" x1="586.9" y1="14" x2="586.9" y2="35"/>
<g>
	<path fill="#2A4F68" d="M248.4,29h-1.2v-9H244v-1h7.5v1h-3.2L248.4,29L248.4,29z"/>
	<path fill="#2A4F68" d="M253.9,21.5v4.9c0,0.6,0.1,1.1,0.4,1.4s0.7,0.5,1.3,0.5c0.8,0,1.4-0.2,1.7-0.6s0.5-1.1,0.5-2.1v-3.9h1.1V29
		h-0.9l-0.2-1h-0.1c-0.2,0.4-0.6,0.7-1,0.8s-0.9,0.3-1.4,0.3c-0.9,0-1.6-0.2-2-0.6s-0.7-1.1-0.7-2.1v-4.9L253.9,21.5L253.9,21.5z"/>
	<path fill="#2A4F68" d="M264.6,29.1c-1.1,0-2-0.3-2.6-1s-1-1.6-1-2.8c0-1.2,0.3-2.2,0.9-2.9s1.4-1.1,2.4-1.1c0.9,0,1.7,0.3,2.2,0.9
		c0.5,0.6,0.8,1.4,0.8,2.4v0.7h-5.2c0,0.9,0.2,1.5,0.7,2s1,0.7,1.8,0.7c0.8,0,1.6-0.2,2.4-0.5v1c-0.4,0.2-0.8,0.3-1.1,0.4
		C265.5,29.1,265.1,29.1,264.6,29.1z M264.3,22.3c-0.6,0-1.1,0.2-1.4,0.6s-0.6,0.9-0.6,1.6h3.9c0-0.7-0.2-1.3-0.5-1.6
		C265.4,22.5,264.9,22.3,264.3,22.3z"/>
</g>
<g>
	<path fill="#2A4F68" d="M384.1,29h-1.1l-2-6.7c-0.1-0.3-0.2-0.7-0.3-1.1s-0.2-0.7-0.2-0.8c-0.1,0.6-0.3,1.3-0.5,2l-2,6.6h-1.1
		l-2.7-10h1.2l1.6,6.2c0.2,0.9,0.4,1.6,0.5,2.4c0.1-0.8,0.3-1.6,0.5-2.4l1.8-6.1h1.2l1.9,6.1c0.2,0.7,0.4,1.5,0.6,2.4
		c0.1-0.6,0.2-1.4,0.5-2.4l1.6-6.2h1.2L384.1,29z"/>
	<path fill="#2A4F68" d="M391.3,29.1c-1.1,0-2-0.3-2.6-1s-1-1.6-1-2.8c0-1.2,0.3-2.2,0.9-2.9s1.4-1.1,2.4-1.1c0.9,0,1.7,0.3,2.2,0.9
		c0.5,0.6,0.8,1.4,0.8,2.4v0.7h-5.2c0,0.9,0.2,1.5,0.7,2s1,0.7,1.8,0.7c0.8,0,1.6-0.2,2.4-0.5v1c-0.4,0.2-0.8,0.3-1.1,0.4
		C392.3,29.1,391.8,29.1,391.3,29.1z M391,22.3c-0.6,0-1.1,0.2-1.4,0.6s-0.6,0.9-0.6,1.6h3.9c0-0.7-0.2-1.3-0.5-1.6
		C392.1,22.5,391.6,22.3,391,22.3z"/>
	<path fill="#2A4F68" d="M401.1,28L401.1,28c-0.6,0.8-1.4,1.1-2.4,1.1c-1,0-1.7-0.3-2.3-1s-0.8-1.6-0.8-2.9s0.3-2.2,0.8-2.9
		s1.3-1,2.3-1c1,0,1.8,0.4,2.3,1.1h0.1l0-0.5l0-0.5v-3h1.1V29h-0.9L401.1,28z M398.8,28.2c0.8,0,1.3-0.2,1.7-0.6
		c0.3-0.4,0.5-1.1,0.5-2v-0.2c0-1.1-0.2-1.8-0.5-2.3c-0.4-0.5-0.9-0.7-1.7-0.7c-0.7,0-1.2,0.3-1.5,0.8c-0.4,0.5-0.5,1.2-0.5,2.2
		c0,1,0.2,1.7,0.5,2.2S398.2,28.2,398.8,28.2z"/>
</g>
<g>
	<path fill="#2A4F68" d="M513.2,29H512v-9h-3.2v-1h7.5v1h-3.2V29L513.2,29z"/>
	<path fill="#2A4F68" d="M522.8,29v-4.8c0-0.6-0.1-1.1-0.4-1.4c-0.3-0.3-0.7-0.5-1.3-0.5c-0.8,0-1.4,0.2-1.7,0.6
		c-0.4,0.4-0.5,1.1-0.5,2.1V29h-1.1V18.4h1.1v3.2c0,0.4,0,0.7-0.1,1h0.1c0.2-0.4,0.5-0.6,1-0.9c0.4-0.2,0.9-0.3,1.4-0.3
		c0.9,0,1.6,0.2,2.1,0.7c0.5,0.4,0.7,1.1,0.7,2.1V29H522.8z"/>
	<path fill="#2A4F68" d="M527.3,21.5v4.9c0,0.6,0.1,1.1,0.4,1.4c0.3,0.3,0.7,0.5,1.3,0.5c0.8,0,1.4-0.2,1.7-0.6
		c0.4-0.4,0.5-1.1,0.5-2.1v-3.9h1.1V29h-0.9l-0.2-1h-0.1c-0.2,0.4-0.6,0.7-1,0.8c-0.4,0.2-0.9,0.3-1.4,0.3c-0.9,0-1.6-0.2-2-0.6
		s-0.7-1.1-0.7-2.1v-4.9L527.3,21.5L527.3,21.5z"/>
</g>
<g>
	<path fill="#2A4F68" d="M647.3,29h-1.2V19h5.6v1h-4.4v3.7h4.1v1h-4.1L647.3,29L647.3,29z"/>
	<path fill="#2A4F68" d="M656.6,21.4c0.3,0,0.6,0,0.9,0.1l-0.2,1.1c-0.3-0.1-0.6-0.1-0.8-0.1c-0.6,0-1.1,0.2-1.6,0.7
		s-0.6,1.1-0.6,1.8v4h-1.1v-7.5h0.9l0.1,1.4h0.1c0.3-0.5,0.6-0.9,1-1.1C655.7,21.5,656.1,21.4,656.6,21.4z"/>
	<path fill="#2A4F68" d="M658.8,19.5c0-0.3,0.1-0.5,0.2-0.6c0.1-0.1,0.3-0.2,0.5-0.2c0.2,0,0.3,0.1,0.5,0.2c0.1,0.1,0.2,0.3,0.2,0.6
		s-0.1,0.4-0.2,0.6c-0.1,0.1-0.3,0.2-0.5,0.2c-0.2,0-0.4-0.1-0.5-0.2C658.9,19.9,658.8,19.7,658.8,19.5z M660,29h-1.1v-7.5h1.1V29z"
		/>
</g>
<g>
	<path fill="#FFFFFF" d="M318.4,146.8l-3.4-8.9H315c0.1,0.7,0.1,1.5,0.1,2.5v6.4H314v-10h1.8l3.2,8.2h0.1l3.2-8.2h1.7v10h-1.2v-6.4
		c0-0.7,0-1.5,0.1-2.4h-0.1l-3.4,8.8H318.4z"/>
	<path fill="#FFFFFF" d="M332.9,146.8l-1.2-3.2h-4l-1.2,3.2h-1.2l4-10h1l3.9,10H332.9z M331.3,142.6l-1.2-3.1
		c-0.2-0.4-0.3-0.9-0.5-1.4c-0.1,0.4-0.2,0.9-0.4,1.4l-1.2,3.1H331.3z"/>
	<path fill="#FFFFFF" d="M336.6,142.6v4.2h-1.2v-10h2.7c1.2,0,2.1,0.2,2.7,0.7s0.9,1.2,0.9,2.1c0,1.3-0.7,2.2-2,2.7l2.7,4.5h-1.4
		l-2.4-4.2H336.6z M336.6,141.6h1.6c0.8,0,1.4-0.2,1.8-0.5s0.6-0.8,0.6-1.5c0-0.7-0.2-1.1-0.6-1.4s-1-0.4-1.9-0.4h-1.5V141.6z"/>
	<path fill="#FFFFFF" d="M351.3,146.8H350l-3.6-4.8l-1,0.9v3.9h-1.2v-10h1.2v5l4.5-5h1.4l-4,4.3L351.3,146.8z"/>
	<path fill="#FFFFFF" d="M358.3,146.8h-5.6v-10h5.6v1h-4.4v3.2h4.1v1h-4.1v3.7h4.4V146.8z"/>
	<path fill="#FFFFFF" d="M363.6,146.8h-1.2v-9h-3.2v-1h7.5v1h-3.2V146.8z"/>
	<path fill="#FFFFFF" d="M374.6,139.7c0,1-0.3,1.8-1,2.3s-1.7,0.8-3,0.8h-1.2v3.9h-1.2v-10h2.6C373.3,136.8,374.6,137.8,374.6,139.7
		z M369.4,141.9h1c1,0,1.8-0.2,2.2-0.5s0.7-0.9,0.7-1.6c0-0.7-0.2-1.2-0.6-1.5s-1.1-0.5-2-0.5h-1.3V141.9z"/>
	<path fill="#FFFFFF" d="M376.7,146.8v-10h1.2v8.9h4.4v1.1H376.7z"/>
	<path fill="#FFFFFF" d="M390.2,146.8l-1.2-3.2h-4l-1.2,3.2h-1.2l4-10h1l3.9,10H390.2z M388.6,142.6l-1.2-3.1
		c-0.2-0.4-0.3-0.9-0.5-1.4c-0.1,0.4-0.2,0.9-0.4,1.4l-1.2,3.1H388.6z"/>
	<path fill="#FFFFFF" d="M397.1,137.7c-1.1,0-2,0.4-2.6,1.1s-1,1.7-1,3c0,1.3,0.3,2.3,0.9,3s1.5,1.1,2.6,1.1c0.7,0,1.5-0.1,2.4-0.4
		v1c-0.7,0.3-1.5,0.4-2.6,0.4c-1.5,0-2.6-0.4-3.4-1.3s-1.2-2.2-1.2-3.8c0-1,0.2-1.9,0.6-2.7s0.9-1.4,1.7-1.8s1.6-0.6,2.6-0.6
		c1,0,2,0.2,2.7,0.6l-0.5,1C398.6,137.9,397.8,137.7,397.1,137.7z"/>
	<path fill="#FFFFFF" d="M407.2,146.8h-5.6v-10h5.6v1h-4.4v3.2h4.1v1h-4.1v3.7h4.4V146.8z"/>
	<path fill="#FFFFFF" d="M418.6,146.8h-5.6v-10h5.6v1h-4.4v3.2h4.1v1h-4.1v3.7h4.4V146.8z"/>
	<path fill="#FFFFFF" d="M427.5,146.8h-1.3l-2.7-4.4l-2.7,4.4h-1.2l3.3-5.2l-3.1-4.8h1.3l2.5,4l2.5-4h1.2l-3.1,4.7L427.5,146.8z"/>
	<path fill="#FFFFFF" d="M435.3,139.7c0,1-0.3,1.8-1,2.3s-1.7,0.8-3,0.8h-1.2v3.9h-1.2v-10h2.6C434,136.8,435.3,137.8,435.3,139.7z
		 M430.1,141.9h1c1,0,1.8-0.2,2.2-0.5c0.5-0.3,0.7-0.9,0.7-1.6c0-0.7-0.2-1.2-0.6-1.5c-0.4-0.3-1.1-0.5-2-0.5h-1.3V141.9z"/>
	<path fill="#FFFFFF" d="M446,141.8c0,1.6-0.4,2.9-1.2,3.8c-0.8,0.9-1.9,1.4-3.4,1.4c-1.5,0-2.6-0.5-3.4-1.4s-1.2-2.2-1.2-3.8
		c0-1.6,0.4-2.9,1.2-3.8c0.8-0.9,1.9-1.3,3.4-1.3c1.4,0,2.6,0.5,3.4,1.4S446,140.2,446,141.8z M438.1,141.8c0,1.4,0.3,2.4,0.9,3.1
		c0.6,0.7,1.4,1,2.5,1c1.1,0,1.9-0.3,2.5-1c0.6-0.7,0.8-1.7,0.8-3.1c0-1.3-0.3-2.4-0.8-3.1c-0.6-0.7-1.4-1-2.5-1
		c-1.1,0-1.9,0.3-2.5,1C438.4,139.4,438.1,140.4,438.1,141.8z"/>
	<path fill="#FFFFFF" d="M459.5,146.8h-1.2v-4.7h-5.3v4.7h-1.2v-10h1.2v4.3h5.3v-4.3h1.2V146.8z"/>
	<path fill="#FFFFFF" d="M468.5,146.8l-1.2-3.2h-4l-1.2,3.2h-1.2l4-10h1l3.9,10H468.5z M466.9,142.6l-1.2-3.1
		c-0.2-0.4-0.3-0.9-0.5-1.4c-0.1,0.4-0.2,0.9-0.4,1.4l-1.2,3.1H466.9z"/>
	<path fill="#FFFFFF" d="M471.1,146.8v-10h1.2v8.9h4.4v1.1H471.1z"/>
	<path fill="#FFFFFF" d="M478.4,146.8v-10h1.2v8.9h4.4v1.1H478.4z"/>
</g>
<g>
	<path fill="#FFFFFF" d="M305.6,247.2c0,1.6-0.4,2.9-1.3,3.8c-0.9,0.9-2.2,1.3-3.9,1.3h-2.8v-10h3.1c1.6,0,2.8,0.4,3.6,1.3
		S305.6,245.7,305.6,247.2z M304.3,247.3c0-1.3-0.3-2.3-1-2.9c-0.7-0.7-1.6-1-2.9-1h-1.7v8h1.4c1.4,0,2.4-0.3,3.1-1
		C304,249.6,304.3,248.6,304.3,247.3z"/>
	<path fill="#FFFFFF" d="M313.4,252.3h-5.6v-10h5.6v1h-4.4v3.2h4.1v1h-4.1v3.7h4.4V252.3z"/>
	<path fill="#FFFFFF" d="M321.3,242.3h1.3l-3.6,10h-1.1l-3.6-10h1.2l2.3,6.5c0.3,0.7,0.5,1.5,0.6,2.2c0.2-0.7,0.4-1.5,0.6-2.2
		L321.3,242.3z"/>
	<path fill="#FFFFFF" d="M329.5,252.3h-5.6v-10h5.6v1h-4.4v3.2h4.1v1h-4.1v3.7h4.4V252.3z"/>
	<path fill="#FFFFFF" d="M331.7,252.3v-10h1.2v8.9h4.4v1.1H331.7z"/>
	<path fill="#FFFFFF" d="M347.6,247.3c0,1.6-0.4,2.9-1.2,3.8s-1.9,1.4-3.4,1.4c-1.5,0-2.6-0.5-3.4-1.4c-0.8-0.9-1.2-2.2-1.2-3.8
		c0-1.6,0.4-2.9,1.2-3.8s1.9-1.3,3.4-1.3c1.4,0,2.6,0.5,3.4,1.4C347.2,244.4,347.6,245.7,347.6,247.3z M339.7,247.3
		c0,1.4,0.3,2.4,0.9,3.1c0.6,0.7,1.4,1,2.5,1c1.1,0,1.9-0.3,2.5-1s0.8-1.7,0.8-3.1c0-1.3-0.3-2.4-0.8-3.1c-0.6-0.7-1.4-1-2.5-1
		c-1.1,0-1.9,0.3-2.5,1C340,244.9,339.7,246,339.7,247.3z"/>
	<path fill="#FFFFFF" d="M356.2,245.2c0,1-0.3,1.8-1,2.3c-0.7,0.5-1.7,0.8-3,0.8H351v3.9h-1.2v-10h2.6
		C354.9,242.3,356.2,243.3,356.2,245.2z M351,247.4h1c1,0,1.8-0.2,2.2-0.5c0.5-0.3,0.7-0.9,0.7-1.6c0-0.7-0.2-1.2-0.6-1.5
		c-0.4-0.3-1.1-0.5-2-0.5H351V247.4z"/>
	<path fill="#FFFFFF" d="M363.9,252.3h-5.6v-10h5.6v1h-4.4v3.2h4.1v1h-4.1v3.7h4.4V252.3z"/>
	<path fill="#FFFFFF" d="M367.2,248.2v4.2h-1.2v-10h2.7c1.2,0,2.1,0.2,2.7,0.7c0.6,0.5,0.9,1.2,0.9,2.1c0,1.3-0.7,2.2-2,2.7l2.7,4.5
		h-1.4l-2.4-4.2H367.2z M367.2,247.2h1.6c0.8,0,1.4-0.2,1.8-0.5c0.4-0.3,0.6-0.8,0.6-1.5c0-0.7-0.2-1.1-0.6-1.4
		c-0.4-0.3-1-0.4-1.9-0.4h-1.5V247.2z"/>
	<path fill="#FFFFFF" d="M384.6,252.3l-1.2-3.2h-4l-1.2,3.2H377l4-10h1l3.9,10H384.6z M383,248.1l-1.2-3.1c-0.2-0.4-0.3-0.9-0.5-1.4
		c-0.1,0.4-0.2,0.9-0.4,1.4l-1.2,3.1H383z"/>
	<path fill="#FFFFFF" d="M395,252.3h-1.3l-5.5-8.4h-0.1c0.1,1,0.1,1.9,0.1,2.7v5.7h-1.1v-10h1.3l5.4,8.4h0.1c0-0.1,0-0.5-0.1-1.2
		c0-0.7,0-1.1,0-1.4v-5.7h1.1V252.3z"/>
	<path fill="#FFFFFF" d="M405.8,247.2c0,1.6-0.4,2.9-1.3,3.8c-0.9,0.9-2.2,1.3-3.9,1.3h-2.8v-10h3.1c1.6,0,2.8,0.4,3.6,1.3
		S405.8,245.7,405.8,247.2z M404.5,247.3c0-1.3-0.3-2.3-1-2.9c-0.7-0.7-1.6-1-2.9-1h-1.7v8h1.4c1.4,0,2.4-0.3,3.1-1
		C404.2,249.6,404.5,248.6,404.5,247.3z"/>
	<path fill="#FFFFFF" d="M420.3,247.3c0,1.6-0.4,2.9-1.2,3.8c-0.8,0.9-1.9,1.4-3.4,1.4c-1.5,0-2.6-0.5-3.4-1.4
		c-0.8-0.9-1.2-2.2-1.2-3.8c0-1.6,0.4-2.9,1.2-3.8s1.9-1.3,3.4-1.3c1.4,0,2.6,0.5,3.4,1.4C419.9,244.4,420.3,245.7,420.3,247.3z
		 M412.3,247.3c0,1.4,0.3,2.4,0.9,3.1c0.6,0.7,1.4,1,2.5,1c1.1,0,1.9-0.3,2.5-1c0.6-0.7,0.8-1.7,0.8-3.1c0-1.3-0.3-2.4-0.8-3.1
		c-0.6-0.7-1.4-1-2.5-1c-1.1,0-1.9,0.3-2.5,1C412.6,244.9,412.3,246,412.3,247.3z"/>
	<path fill="#FFFFFF" d="M428.9,245.2c0,1-0.3,1.8-1,2.3c-0.7,0.5-1.7,0.8-3,0.8h-1.2v3.9h-1.2v-10h2.6
		C427.6,242.3,428.9,243.3,428.9,245.2z M423.7,247.4h1c1,0,1.8-0.2,2.2-0.5c0.5-0.3,0.7-0.9,0.7-1.6c0-0.7-0.2-1.2-0.6-1.5
		c-0.4-0.3-1.1-0.5-2-0.5h-1.3V247.4z"/>
	<path fill="#FFFFFF" d="M436.5,252.3H431v-10h5.6v1h-4.4v3.2h4.1v1h-4.1v3.7h4.4V252.3z"/>
	<path fill="#FFFFFF" d="M439.9,248.2v4.2h-1.2v-10h2.7c1.2,0,2.1,0.2,2.7,0.7c0.6,0.5,0.9,1.2,0.9,2.1c0,1.3-0.7,2.2-2,2.7l2.7,4.5
		h-1.4l-2.4-4.2H439.9z M439.9,247.2h1.6c0.8,0,1.4-0.2,1.8-0.5c0.4-0.3,0.6-0.8,0.6-1.5c0-0.7-0.2-1.1-0.6-1.4
		c-0.4-0.3-1-0.4-1.9-0.4h-1.5V247.2z"/>
	<path fill="#FFFFFF" d="M453.7,252.3l-1.2-3.2h-4l-1.2,3.2H446l4-10h1l3.9,10H453.7z M452.1,248.1l-1.2-3.1
		c-0.2-0.4-0.3-0.9-0.5-1.4c-0.1,0.4-0.2,0.9-0.4,1.4l-1.2,3.1H452.1z"/>
	<path fill="#FFFFFF" d="M459.3,252.3h-1.2v-9H455v-1h7.5v1h-3.2V252.3z"/>
	<path fill="#FFFFFF" d="M472.7,247.3c0,1.6-0.4,2.9-1.2,3.8c-0.8,0.9-1.9,1.4-3.4,1.4c-1.5,0-2.6-0.5-3.4-1.4
		c-0.8-0.9-1.2-2.2-1.2-3.8c0-1.6,0.4-2.9,1.2-3.8s1.9-1.3,3.4-1.3c1.4,0,2.6,0.5,3.4,1.4C472.3,244.4,472.7,245.7,472.7,247.3z
		 M464.7,247.3c0,1.4,0.3,2.4,0.9,3.1c0.6,0.7,1.4,1,2.5,1c1.1,0,1.9-0.3,2.5-1s0.8-1.7,0.8-3.1c0-1.3-0.3-2.4-0.8-3.1
		c-0.6-0.7-1.4-1-2.5-1c-1.1,0-1.9,0.3-2.5,1C465,244.9,464.7,246,464.7,247.3z"/>
	<path fill="#FFFFFF" d="M476.1,248.2v4.2h-1.2v-10h2.7c1.2,0,2.1,0.2,2.7,0.7c0.6,0.5,0.9,1.2,0.9,2.1c0,1.3-0.7,2.2-2,2.7l2.7,4.5
		h-1.4l-2.4-4.2H476.1z M476.1,247.2h1.6c0.8,0,1.4-0.2,1.8-0.5c0.4-0.3,0.6-0.8,0.6-1.5c0-0.7-0.2-1.1-0.6-1.4
		c-0.4-0.3-1-0.4-1.9-0.4h-1.5V247.2z"/>
	<path fill="#FFFFFF" d="M495.9,252.3h-1.1l-2-6.7c-0.1-0.3-0.2-0.7-0.3-1.1s-0.2-0.7-0.2-0.8c-0.1,0.6-0.3,1.3-0.5,2l-2,6.7h-1.1
		l-2.7-10h1.2l1.6,6.2c0.2,0.9,0.4,1.6,0.5,2.4c0.1-0.8,0.3-1.7,0.5-2.4l1.8-6.1h1.2l1.9,6.1c0.2,0.7,0.4,1.5,0.6,2.4
		c0.1-0.6,0.3-1.4,0.5-2.4l1.6-6.2h1.2L495.9,252.3z"/>
	<path fill="#FFFFFF" d="M508.8,247.3c0,1.6-0.4,2.9-1.2,3.8c-0.8,0.9-1.9,1.4-3.4,1.4c-1.5,0-2.6-0.5-3.4-1.4
		c-0.8-0.9-1.2-2.2-1.2-3.8c0-1.6,0.4-2.9,1.2-3.8s1.9-1.3,3.4-1.3c1.4,0,2.6,0.5,3.4,1.4C508.4,244.4,508.8,245.7,508.8,247.3z
		 M500.9,247.3c0,1.4,0.3,2.4,0.9,3.1c0.6,0.7,1.4,1,2.5,1c1.1,0,1.9-0.3,2.5-1s0.8-1.7,0.8-3.1c0-1.3-0.3-2.4-0.8-3.1
		c-0.6-0.7-1.4-1-2.5-1c-1.1,0-1.9,0.3-2.5,1C501.1,244.9,500.9,246,500.9,247.3z"/>
	<path fill="#FFFFFF" d="M512.2,248.2v4.2h-1.2v-10h2.7c1.2,0,2.1,0.2,2.7,0.7c0.6,0.5,0.9,1.2,0.9,2.1c0,1.3-0.7,2.2-2,2.7l2.7,4.5
		h-1.4l-2.4-4.2H512.2z M512.2,247.2h1.6c0.8,0,1.4-0.2,1.8-0.5c0.4-0.3,0.6-0.8,0.6-1.5c0-0.7-0.2-1.1-0.6-1.4
		c-0.4-0.3-1-0.4-1.9-0.4h-1.5V247.2z"/>
	<path fill="#FFFFFF" d="M526.9,252.3h-1.4l-3.6-4.8l-1,0.9v3.9h-1.2v-10h1.2v5l4.5-5h1.4l-4,4.3L526.9,252.3z"/>
	<path fill="#FFFFFF" d="M528.3,252.3v-10h1.2v10H528.3z"/>
	<path fill="#FFFFFF" d="M540,252.3h-1.3l-5.5-8.4h-0.1c0.1,1,0.1,1.9,0.1,2.7v5.7h-1.1v-10h1.3l5.4,8.4h0.1c0-0.1,0-0.5-0.1-1.2
		c0-0.7,0-1.1,0-1.4v-5.7h1.1V252.3z"/>
	<path fill="#FFFFFF" d="M547.2,247.1h3.4v4.9c-0.5,0.2-1.1,0.3-1.6,0.4c-0.5,0.1-1.2,0.1-1.9,0.1c-1.5,0-2.7-0.5-3.5-1.4
		c-0.8-0.9-1.3-2.2-1.3-3.8c0-1,0.2-1.9,0.6-2.7c0.4-0.8,1-1.4,1.8-1.8c0.8-0.4,1.7-0.6,2.8-0.6c1.1,0,2.1,0.2,3,0.6l-0.5,1
		c-0.9-0.4-1.8-0.6-2.6-0.6c-1.2,0-2.2,0.4-2.9,1.1s-1,1.7-1,3c0,1.3,0.3,2.4,1,3.1c0.7,0.7,1.6,1,2.9,1c0.7,0,1.4-0.1,2-0.2v-3.1
		h-2.2V247.1z"/>
	<path fill="#FFFFFF" d="M562.2,249.6c0,0.9-0.3,1.6-1,2.1s-1.5,0.7-2.6,0.7c-1.2,0-2.1-0.2-2.7-0.5v-1.1c0.4,0.2,0.9,0.3,1.3,0.4
		c0.5,0.1,1,0.2,1.4,0.2c0.8,0,1.4-0.1,1.8-0.4s0.6-0.7,0.6-1.2c0-0.3-0.1-0.6-0.2-0.9c-0.1-0.2-0.4-0.4-0.7-0.6
		c-0.3-0.2-0.8-0.4-1.5-0.6c-0.9-0.3-1.6-0.7-2-1.2c-0.4-0.5-0.6-1.1-0.6-1.8c0-0.8,0.3-1.4,0.9-1.8c0.6-0.5,1.3-0.7,2.3-0.7
		c1,0,1.9,0.2,2.7,0.5l-0.4,1c-0.8-0.3-1.6-0.5-2.4-0.5c-0.6,0-1.1,0.1-1.4,0.4c-0.3,0.3-0.5,0.6-0.5,1.1c0,0.3,0.1,0.6,0.2,0.9
		c0.1,0.2,0.3,0.4,0.6,0.6c0.3,0.2,0.8,0.4,1.4,0.6c1,0.4,1.8,0.8,2.2,1.2C562,248.4,562.2,249,562.2,249.6z"/>
	<path fill="#FFFFFF" d="M569.8,252.3h-5.6v-10h5.6v1h-4.4v3.2h4.1v1h-4.1v3.7h4.4V252.3z"/>
	<path fill="#FFFFFF" d="M577.7,249.6c0,0.9-0.3,1.6-1,2.1s-1.5,0.7-2.6,0.7c-1.2,0-2.1-0.2-2.7-0.5v-1.1c0.4,0.2,0.9,0.3,1.3,0.4
		c0.5,0.1,1,0.2,1.4,0.2c0.8,0,1.4-0.1,1.8-0.4s0.6-0.7,0.6-1.2c0-0.3-0.1-0.6-0.2-0.9c-0.1-0.2-0.4-0.4-0.7-0.6
		c-0.3-0.2-0.8-0.4-1.5-0.6c-0.9-0.3-1.6-0.7-2-1.2c-0.4-0.5-0.6-1.1-0.6-1.8c0-0.8,0.3-1.4,0.9-1.8c0.6-0.5,1.3-0.7,2.3-0.7
		c1,0,1.9,0.2,2.7,0.5l-0.4,1c-0.8-0.3-1.6-0.5-2.4-0.5c-0.6,0-1.1,0.1-1.4,0.4c-0.3,0.3-0.5,0.6-0.5,1.1c0,0.3,0.1,0.6,0.2,0.9
		c0.1,0.2,0.3,0.4,0.6,0.6c0.3,0.2,0.8,0.4,1.4,0.6c1,0.4,1.8,0.8,2.2,1.2C577.5,248.4,577.7,249,577.7,249.6z"/>
	<path fill="#FFFFFF" d="M585.4,249.6c0,0.9-0.3,1.6-1,2.1s-1.5,0.7-2.6,0.7c-1.2,0-2.1-0.2-2.7-0.5v-1.1c0.4,0.2,0.9,0.3,1.3,0.4
		c0.5,0.1,1,0.2,1.4,0.2c0.8,0,1.4-0.1,1.8-0.4s0.6-0.7,0.6-1.2c0-0.3-0.1-0.6-0.2-0.9c-0.1-0.2-0.4-0.4-0.7-0.6
		c-0.3-0.2-0.8-0.4-1.5-0.6c-0.9-0.3-1.6-0.7-2-1.2c-0.4-0.5-0.6-1.1-0.6-1.8c0-0.8,0.3-1.4,0.9-1.8c0.6-0.5,1.3-0.7,2.3-0.7
		c1,0,1.9,0.2,2.7,0.5l-0.4,1c-0.8-0.3-1.6-0.5-2.4-0.5c-0.6,0-1.1,0.1-1.4,0.4c-0.3,0.3-0.5,0.6-0.5,1.1c0,0.3,0.1,0.6,0.2,0.9
		c0.1,0.2,0.3,0.4,0.6,0.6c0.3,0.2,0.8,0.4,1.4,0.6c1,0.4,1.8,0.8,2.2,1.2C585.2,248.4,585.4,249,585.4,249.6z"/>
	<path fill="#FFFFFF" d="M587.4,252.3v-10h1.2v10H587.4z"/>
	<path fill="#FFFFFF" d="M600,247.3c0,1.6-0.4,2.9-1.2,3.8c-0.8,0.9-1.9,1.4-3.4,1.4c-1.5,0-2.6-0.5-3.4-1.4
		c-0.8-0.9-1.2-2.2-1.2-3.8c0-1.6,0.4-2.9,1.2-3.8s1.9-1.3,3.4-1.3c1.4,0,2.6,0.5,3.4,1.4C599.6,244.4,600,245.7,600,247.3z
		 M592,247.3c0,1.4,0.3,2.4,0.9,3.1c0.6,0.7,1.4,1,2.5,1c1.1,0,1.9-0.3,2.5-1s0.8-1.7,0.8-3.1c0-1.3-0.3-2.4-0.8-3.1
		c-0.6-0.7-1.4-1-2.5-1c-1.1,0-1.9,0.3-2.5,1C592.3,244.9,592,246,592,247.3z"/>
	<path fill="#FFFFFF" d="M610,252.3h-1.3l-5.5-8.4h-0.1c0.1,1,0.1,1.9,0.1,2.7v5.7h-1.1v-10h1.3l5.4,8.4h0.1c0-0.1,0-0.5-0.1-1.2
		c0-0.7,0-1.1,0-1.4v-5.7h1.1V252.3z"/>
	<path fill="#FFFFFF" d="M618.4,249.6c0,0.9-0.3,1.6-1,2.1s-1.5,0.7-2.6,0.7c-1.2,0-2.1-0.2-2.7-0.5v-1.1c0.4,0.2,0.9,0.3,1.3,0.4
		c0.5,0.1,1,0.2,1.4,0.2c0.8,0,1.4-0.1,1.8-0.4s0.6-0.7,0.6-1.2c0-0.3-0.1-0.6-0.2-0.9c-0.1-0.2-0.4-0.4-0.7-0.6
		c-0.3-0.2-0.8-0.4-1.5-0.6c-0.9-0.3-1.6-0.7-2-1.2c-0.4-0.5-0.6-1.1-0.6-1.8c0-0.8,0.3-1.4,0.9-1.8c0.6-0.5,1.3-0.7,2.3-0.7
		c1,0,1.9,0.2,2.7,0.5l-0.4,1c-0.8-0.3-1.6-0.5-2.4-0.5c-0.6,0-1.1,0.1-1.4,0.4c-0.3,0.3-0.5,0.6-0.5,1.1c0,0.3,0.1,0.6,0.2,0.9
		c0.1,0.2,0.3,0.4,0.6,0.6c0.3,0.2,0.8,0.4,1.4,0.6c1,0.4,1.8,0.8,2.2,1.2C618.2,248.4,618.4,249,618.4,249.6z"/>
</g>
</svg>
