<svg id="Layer_2" data-name="Layer 2" xmlns="http://www.w3.org/2000/svg" xmlns:xlink="http://www.w3.org/1999/xlink" viewBox="0 0 1328.21 752.99"><defs><style>.cls-1,.cls-16{fill:none;}.cls-2{fill:#1aa5de;}.cls-3{fill:#0073a0;}.cls-4{fill:#00497b;}.cls-5{fill:#fff;}.cls-6{clip-path:url(#clip-path);}.cls-7{fill:#004063;}.cls-8{fill:#002535;}.cls-9{fill:#ec1944;}.cls-10{fill:#890329;}.cls-11{fill:#ba002c;}.cls-12{fill:#ffd602;}.cls-13{fill:#00b25d;}.cls-14{fill:#008eaf;}.cls-15{fill:#ea911b;}.cls-16{stroke:#000;stroke-linecap:round;stroke-linejoin:round;stroke-width:4px;}</style><clipPath id="clip-path" transform="translate(-273.73 -200.46)"><path class="cls-1" d="M395.38,576.2c-16.77-46.93-19.71-100-3.45-147.52,20.8-60.76,74.28-107.83,134.56-128.86,36.11-12.59,74-12.88,111.67-17.05,26-2.88,52-6.87,77.44-13.16,42.72-10.56,81.38-30.93,123-44.72C961,184.27,1128.63,189.15,1229.1,279q8.72,7.8,16.65,16.4c65.65-41.76,149-73.49,226.37-45,52.6,19.36,70.87,64.81,71.33,117.23a189,189,0,0,1-14.18,73.24c-4.83,11.76-10.75,23.61-18.26,33.94-6.67,9.17-15.41,16.63-20.31,27.11a75.14,75.14,0,0,0-4.55,12.48c-5.09,19.16-2.65,39.27,8.27,55.85,24.82,37.71,42.46,105,12.49,144.9-15.47,20.63-37.33,20.09-60.08,25.58-39.43,9.53-70.2,37.71-104.66,57.22-39.33,22.27-87.7,28.25-132.24,22.3s-84.28-25.07-129.77-8.92c-22,7.82-40.53,22.8-59.56,36.29-69.6,49.3-172.72,41-251.15,18.62-61.71-17.64-123-42.61-188-44.35a235,235,0,0,0-56.05,5,154,154,0,0,0-69.31,34.4c-19.71,17.29-42.11,19.95-65.66,7.1-15.85-8.65-26.26-24-30.3-41.26-8.54-36.67,10-78.25,44.32-95l1.09-.52C470.5,701.14,397.85,583.1,395.38,576.2Z"/></clipPath></defs><circle class="cls-2" cx="90.04" cy="408.53" r="16.17"/><path class="cls-3" d="M395.38,576.2c-16.77-46.93-19.71-100-3.45-147.52,20.8-60.76,74.28-107.83,134.56-128.86,36.11-12.59,74-12.88,111.67-17.05,26-2.88,52-6.87,77.44-13.16,42.72-10.56,81.38-30.93,123-44.72C961,184.27,1128.63,189.15,1229.1,279q8.72,7.8,16.65,16.4c65.65-41.76,149-73.49,226.37-45,52.6,19.36,70.87,64.81,71.33,117.23a189,189,0,0,1-14.18,73.24c-4.83,11.76-10.75,23.61-18.26,33.94-6.67,9.17-15.41,16.63-20.31,27.11a75.14,75.14,0,0,0-4.55,12.48c-5.09,19.16-2.65,39.27,8.27,55.85,24.82,37.71,42.46,105,12.49,144.9-15.47,20.63-37.33,20.09-60.08,25.58-39.43,9.53-70.2,37.71-104.66,57.22-39.33,22.27-87.7,28.25-132.24,22.3s-84.28-25.07-129.77-8.92c-22,7.82-40.53,22.8-59.56,36.29-69.6,49.3-172.72,41-251.15,18.62-61.71-17.64-123-42.61-188-44.35a235,235,0,0,0-56.05,5,154,154,0,0,0-69.31,34.4c-19.71,17.29-42.11,19.95-65.66,7.1-15.85-8.65-26.26-24-30.3-41.26-8.54-36.67,10-78.25,44.32-95l1.09-.52C470.5,701.14,397.85,583.1,395.38,576.2Z" transform="translate(-273.73 -200.46)"/><path class="cls-4" d="M726.2,400.57s1.27-61.19,71-61.19c0,0,22.21-56.45,95.79-40.59,0,0,62.17,12.26,59,72.74v44H726.2Z" transform="translate(-273.73 -200.46)"/><circle class="cls-5" cx="1055.5" cy="133.35" r="70.42"/><path class="cls-4" d="M1143,580.44h412.7s11.87-56.61-35.54-58.39c0,0,8.26-68.3-75.22-66.37,0,0-12.55-41.11-62-56.53-24.19-7.54-50.23-6.32-74,2.56-25.14,9.4-57.31,29.05-70,69.56C1239,471.27,1143,515.65,1143,580.44Z" transform="translate(-273.73 -200.46)"/><path class="cls-4" d="M1173.55,312.09c-1.4,4.2,168.92,0,169.21,0,2.13,0,.86-14.31.56-15.48-2.74-10.73-13.07-14.29-22.86-15.5a3.79,3.79,0,0,1-1.59-.45c-1-.65-1.15-2-1.23-3.23-.57-8.61-2.94-18-8.16-25-4.23-5.71-10.61-9.59-17.39-11.74-15.78-5-34.19-3-47.44,7.32a30.51,30.51,0,0,0-9.79,12.52c-.94,2.34-.38,5.12-1.5,7.41-1.54,3.14-4.84,2.26-7.78,2.68-11.46,1.63-21.21,10.71-22.79,22.31C1202.79,292.89,1180.34,291.71,1173.55,312.09Z" transform="translate(-273.73 -200.46)"/><path class="cls-4" d="M601.74,352.71h75s3.31-15.86-16.13-18.4c0,0-20.32-25.37-41.77,3.17C618.86,337.48,601.74,337.48,601.74,352.71Z" transform="translate(-273.73 -200.46)"/><path class="cls-5" d="M1480.91,347.14h-12l4.88-4.87a.55.55,0,0,0,0-.77.53.53,0,0,0-.77,0l-4.88,4.87v-12a.54.54,0,1,0-1.08,0v12l-4.88-4.87a.53.53,0,0,0-.77,0,.55.55,0,0,0,0,.77l4.88,4.87h-12a.55.55,0,0,0-.54.55.54.54,0,0,0,.54.54h12l-4.88,4.88a.55.55,0,0,0,0,.77.52.52,0,0,0,.38.16.54.54,0,0,0,.39-.16L1467,349v12a.54.54,0,0,0,1.08,0V349l4.88,4.88a.54.54,0,0,0,.39.16.51.51,0,0,0,.38-.16.55.55,0,0,0,0-.77l-4.88-4.88h12a.54.54,0,0,0,.54-.54A.55.55,0,0,0,1480.91,347.14Z" transform="translate(-273.73 -200.46)"/><path class="cls-5" d="M1142.3,297h-9.42l3.64-3.64a.71.71,0,0,0,0-1,.69.69,0,0,0-1,0l-3.64,3.64v-9.42a.7.7,0,0,0-1.4,0V296l-3.64-3.64a.7.7,0,0,0-1,1l3.64,3.64h-9.42a.7.7,0,0,0,0,1.4h9.42l-3.64,3.64a.69.69,0,0,0,0,1,.71.71,0,0,0,.49.2.74.74,0,0,0,.5-.2l3.64-3.64v9.41a.7.7,0,1,0,1.4,0v-9.41l3.64,3.64a.71.71,0,0,0,1,0,.71.71,0,0,0,0-1l-3.64-3.64h9.42a.7.7,0,0,0,0-1.4Z" transform="translate(-273.73 -200.46)"/><path class="cls-5" d="M797,288.93h-7.82l3.09-3.08a.47.47,0,0,0-.67-.67l-3.08,3.08v-7.81A.48.48,0,0,0,788,280a.47.47,0,0,0-.47.47v7.81l-3.09-3.08a.47.47,0,1,0-.67.67l3.09,3.08h-7.81a.49.49,0,0,0-.48.48.48.48,0,0,0,.48.47h7.81L783.8,293a.46.46,0,0,0,0,.67.47.47,0,0,0,.33.14.49.49,0,0,0,.34-.14l3.09-3.09v7.81a.48.48,0,0,0,.47.48.49.49,0,0,0,.48-.48v-7.81l3.08,3.09a.51.51,0,0,0,.34.14.47.47,0,0,0,.33-.14.46.46,0,0,0,0-.67l-3.08-3.09H797a.47.47,0,0,0,.47-.47A.48.48,0,0,0,797,288.93Z" transform="translate(-273.73 -200.46)"/><circle class="cls-5" cx="1196.18" cy="231.31" r="4.12"/><circle class="cls-5" cx="1160.09" cy="81.73" r="3.7"/><circle class="cls-5" cx="812.97" cy="56.96" r="4.12"/><circle class="cls-5" cx="677.04" cy="38.7" r="5.83"/><circle class="cls-5" cx="581.8" cy="59.62" r="2.66"/><circle class="cls-5" cx="294.36" cy="136.6" r="4.91"/><circle class="cls-5" cx="338.36" cy="205.57" r="2.52"/><circle class="cls-5" cx="741.35" cy="95.52" r="1.87"/><circle class="cls-5" cx="452.47" cy="123.46" r="4.12"/><g class="cls-6"><path class="cls-7" d="M416.91,720.67s190.74-50.93,254-16.76,162.2,8.79,162.2,8.79,34.25-32.37,70.41.31c0,0,264.53,58.69,325.43,16.19s88.49-51.66,143.68-37.09,99.91-12.65,99.91-12.65,76.16-22.13,129.41,22.52V912.5H347.59V720.33Z" transform="translate(-273.73 -200.46)"/><path class="cls-8" d="M1116.22,829.67,723.9,953.45S615.35,885.57,620.43,882.4,992,771.44,992,771.44Z" transform="translate(-273.73 -200.46)"/><path class="cls-9" d="M983.68,523l-.39,113.61s64.53,1.06,105.13-6.13c0,0,4-47.3,1.48-88Z" transform="translate(-273.73 -200.46)"/><path class="cls-9" d="M1245.42,551.84s-.42,57.09,0,65.13c0,0,34.16.68,58.26-12.85V561.4S1283,555.87,1245.42,551.84Z" transform="translate(-273.73 -200.46)"/><path class="cls-9" d="M983.29,688.28s76-11.42,104.49-15.86c0,0-6.34,43.14,42.5,45S1226.07,720,1240,688.28a57.06,57.06,0,0,0,5.39-23.26s47.91-10.15,58.26-14.8c0,0,8,81.83-29.22,104.46l-112.67,63.44s-44.4-22.84-109.11,16.91c0,0-54.2-17.76-69.39-88C983.29,747.07,979.45,696.74,983.29,688.28Z" transform="translate(-273.73 -200.46)"/><polygon class="cls-10" points="612.96 468.16 709.56 487.82 814.06 471.96 709.56 449.76 612.96 468.16"/><path class="cls-11" d="M983.29,688.28l-96.6-19.66S858.3,846.24,1017.13,853.85c0,0,5.68-4,35.55-18.82,0,0-54.2-17.76-69.39-88,0,0-3.84-50.33,0-58.79" transform="translate(-273.73 -200.46)"/><path class="cls-11" d="M983.29,636.61,983.68,523,881.61,540.75s-4.44,61.18,5.08,83.39C886.69,624.14,908,630.06,983.29,636.61Z" transform="translate(-273.73 -200.46)"/><path class="cls-10" d="M983.68,478l107.06,13.77S986,510.34,983.29,509.08l-102.71-9.52S965.22,479,983.68,478Z" transform="translate(-273.73 -200.46)"/><path class="cls-11" d="M880.58,499.56S965.22,479,983.68,478c0,0-2-58,3-82,8.42-40.42,40.69-71.39,83.26-71.44,0,0-155.66-13.4-187.19,102.78C882.75,427.34,876.94,457.33,880.58,499.56Z" transform="translate(-273.73 -200.46)"/><path class="cls-10" d="M1245.42,505c5.08.95,58.26,13.05,58.26,13.05s-35,9.23-52.55,11.69l-47.89-9.83Z" transform="translate(-273.73 -200.46)"/><path class="cls-10" d="M1092.53,475.21s4.77-28.63,38.07-28.62c87.55,0,105,21.89,105,21.89a50.19,50.19,0,0,1,9.83,36.47l-42.18,14.91s4.68-25.74-20-36.16C1144.19,467.21,1092.53,475.21,1092.53,475.21Z" transform="translate(-273.73 -200.46)"/><path class="cls-10" d="M1245.42,665s47.91-10.15,58.26-14.8c0,0-41.77-11.1-54.77-10.78,0,0-26.64,4.64-46.63,12.79C1202.28,652.23,1231.78,662.06,1245.42,665Z" transform="translate(-273.73 -200.46)"/><path class="cls-10" d="M1245.42,665c-13.64-3-43.14-12.79-43.14-12.79s8.25,15.75-10.15,27.81c0,0-28.54,21.64-104.35,2.25,0,0,1,32,37.75,34.84,0,0,74.77,4.88,94.16-8.34C1219.69,708.79,1244.47,700.76,1245.42,665Z" transform="translate(-273.73 -200.46)"/><path class="cls-11" d="M1245.42,617c-.42-8,0-65.13,0-65.13s-27.28,5.18-42.18,13.74v34.89S1218.78,612.53,1245.42,617Z" transform="translate(-273.73 -200.46)"/><path class="cls-9" d="M983.68,478s-2-58,3-82c8.42-40.42,40.69-71.39,83.26-71.44,35.55-.05,69.14,19,99.74,35.44,0,0,112,60,129,94,0,0,10,19,5,64,0,0-53.18-12.1-58.26-13.05a50.19,50.19,0,0,0-9.83-36.47s-11.1-19.67-105-21.89c0,0-40.18-3.35-39.86,45.18Z" transform="translate(-273.73 -200.46)"/><polygon class="cls-10" points="345.14 302.64 418.37 307.71 418.37 353.86 345.14 334.12 345.14 302.64"/><path class="cls-8" d="M769.69,797.31,377.37,921.09S268.82,853.22,273.9,850,645.44,739.09,645.44,739.09Z" transform="translate(-273.73 -200.46)"/><polygon class="cls-11" points="495.26 244.42 345.14 286.1 371.88 226.76 495.26 174.44 495.26 244.42"/><path class="cls-12" d="M751.82,434.51l-42.28,13.13c-2.72.84-4.89-1.82-4.89-5.93V423.1c0-4.11,2.17-8.29,4.89-9.36l42.27-16.55c3.33-1.3,6.07,1.38,6.07,6v21C757.89,428.86,755.15,433.47,751.82,434.51Z" transform="translate(-273.73 -200.46)"/><path class="cls-12" d="M669.31,445.32c0,8.46-4,16.56-8.89,18.06s-8.47-3.92-8.47-12,3.76-16.07,8.48-17.91S669.31,436.86,669.31,445.32Z" transform="translate(-273.73 -200.46)"/><path class="cls-12" d="M696.37,435.85c0,9.07-4.63,17.85-10.18,19.57s-9.68-4-9.68-12.62,4.28-17.28,9.69-19.39S696.38,426.79,696.37,435.85Z" transform="translate(-273.73 -200.46)"/><polygon class="cls-11" points="495.26 314.45 345.11 334.12 345.14 286.1 495.26 244.42 495.26 314.45"/><path class="cls-12" d="M751.81,502l-42.29,6.93c-2.71.45-4.89-2.53-4.89-6.64V483.67c0-4.11,2.18-8,4.89-8.64l42.28-10.36c3.34-.81,6.08,2.28,6.08,6.92v21C757.89,497.25,755.15,501.47,751.81,502Z" transform="translate(-273.73 -200.46)"/><path class="cls-12" d="M669.28,500.72c0,8.46-4,16-8.89,16.77s-8.47-5.17-8.46-13.24,3.75-15.54,8.48-16.69S669.29,492.26,669.28,500.72Z" transform="translate(-273.73 -200.46)"/><path class="cls-12" d="M696.35,495.22c0,9.07-4.63,17.18-10.19,18.08-5.4.88-9.68-5.42-9.67-14s4.28-16.66,9.69-18C691.74,479.93,696.36,486.15,696.35,495.22Z" transform="translate(-273.73 -200.46)"/><polygon class="cls-11" points="495.26 384.52 371.8 382.59 371.82 330.62 495.26 314.45 495.26 384.52"/><path class="cls-12" d="M751.81,569.55l-42.3.73c-2.72.05-4.89-3.25-4.89-7.36V544.28c0-4.11,2.18-7.66,4.89-7.93l42.3-4.16c3.34-.32,6.08,3.17,6.08,7.81v21C757.89,565.69,755.14,569.5,751.81,569.55Z" transform="translate(-273.73 -200.46)"/><path class="cls-12" d="M669.26,556.15c0,8.47-4,15.4-8.89,15.48s-8.48-6.42-8.47-14.5,3.75-15,8.48-15.45S669.26,547.68,669.26,556.15Z" transform="translate(-273.73 -200.46)"/><path class="cls-12" d="M696.33,554.62c0,9.08-4.63,16.51-10.19,16.6-5.41.08-9.68-6.85-9.68-15.47s4.29-16,9.69-16.57C691.72,538.64,696.34,545.55,696.33,554.62Z" transform="translate(-273.73 -200.46)"/><polygon class="cls-11" points="495.28 454.63 371.78 434.57 371.81 382.59 495.28 384.52 495.28 454.63"/><path class="cls-12" d="M751.8,637.14l-42.31-5.48c-2.72-.35-4.89-4-4.89-8.09V604.92c0-4.11,2.17-7.34,4.89-7.21l42.3,2c3.34.17,6.08,4.06,6.08,8.71v21C757.88,634.16,755.14,637.57,751.8,637.14Z" transform="translate(-273.73 -200.46)"/><path class="cls-12" d="M668.64,611.56c0,7.89-3.76,13.81-8.28,13.21s-7.9-7.14-7.9-14.67,3.5-13.47,7.91-13.25S668.65,603.66,668.64,611.56Z" transform="translate(-273.73 -200.46)"/><path class="cls-12" d="M696.32,614.05c0,9.08-4.64,15.84-10.2,15.11s-9.68-8.27-9.68-16.9,4.28-15.42,9.69-15.15C691.7,597.39,696.32,605,696.32,614.05Z" transform="translate(-273.73 -200.46)"/><polygon class="cls-11" points="495.26 524.79 371.74 486.59 371.77 434.57 495.26 454.63 495.26 524.79"/><path class="cls-12" d="M751.8,704.76l-42.33-11.69c-2.71-.76-4.89-4.69-4.89-8.81V665.6c0-4.12,2.18-7,4.89-6.5l42.32,8.26c3.34.65,6.08,4.95,6.08,9.6V698C757.88,702.67,755.14,705.68,751.8,704.76Z" transform="translate(-273.73 -200.46)"/><path class="cls-12" d="M669.21,667.1c0,8.47-4,14.22-8.89,12.88s-8.48-8.91-8.48-17,3.76-13.91,8.49-13S669.21,658.62,669.21,667.1Z" transform="translate(-273.73 -200.46)"/><path class="cls-12" d="M696.3,673.52c0,9.08-4.64,15.16-10.2,13.62s-9.69-9.7-9.68-18.34,4.28-14.79,9.69-13.73C691.68,656.16,696.3,664.43,696.3,673.52Z" transform="translate(-273.73 -200.46)"/><polygon class="cls-11" points="495.26 594.99 371.71 538.63 371.74 486.59 495.26 524.79 495.26 594.99"/><path class="cls-12" d="M751.79,772.42l-42.33-17.91c-2.72-1.15-4.9-5.42-4.89-9.54V726.31c0-4.12,2.18-6.72,4.9-5.79L751.79,735c3.34,1.14,6.09,5.85,6.09,10.5v21.08C757.87,771.23,755.13,773.84,751.79,772.42Z" transform="translate(-273.73 -200.46)"/><path class="cls-12" d="M669.19,722.61c0,8.48-4,13.64-8.9,11.58s-8.48-10.16-8.47-18.25,3.75-13.36,8.48-11.74S669.19,714.13,669.19,722.61Z" transform="translate(-273.73 -200.46)"/><path class="cls-12" d="M696.28,733c0,9.09-4.64,14.49-10.2,12.13s-9.69-11.12-9.69-19.76,4.29-14.18,9.7-12.32C691.66,715,696.28,723.92,696.28,733Z" transform="translate(-273.73 -200.46)"/><polygon class="cls-10" points="495.26 242.34 346.21 283.72 345.14 286.1 345.14 288.17 495.26 246.5 495.26 244.42 495.26 242.34"/><polygon class="cls-10" points="495.26 314.45 371.82 330.62 371.82 334.66 495.26 318.48 495.26 316.47 495.26 314.45"/><polygon class="cls-10" points="371.8 380.59 371.8 382.59 371.81 382.59 371.81 384.59 495.28 386.63 495.28 384.52 495.26 384.52 495.26 382.63 371.8 380.59"/><polygon class="cls-10" points="371.76 432.55 371.76 436.6 495.26 456.66 495.26 454.63 495.28 454.63 495.28 452.61 371.76 432.55"/><polygon class="cls-10" points="371.74 484.49 371.74 486.59 371.74 488.68 495.26 526.89 495.26 524.79 495.26 522.7 371.74 484.49"/><polygon class="cls-9" points="576.77 573.02 495.26 594.99 495.26 174.44 576.77 196.4 576.77 573.02"/><path class="cls-8" d="M694.53,551.1l-1.26,1.48c-.89-.87-1.68-1.61-2.2-2.08l-7.75,10.09a2,2,0,0,1-3.37-.2c-3.8-6.88-14.4-7.89-22.13-6.63-6.79,1.1-13.37,9.13-15.65,15.6,1.64,1.59,1.56,7.18,9.06,6.9a18.93,18.93,0,0,1,6.19-6.87A18.59,18.59,0,0,1,684.55,577l.44.93h0a7.49,7.49,0,0,1,.6,2.28l1-1.26h0l14.57-17.72Z" transform="translate(-273.73 -200.46)"/><circle class="cls-8" cx="370.55" cy="384.68" r="12.99"/><path class="cls-8" d="M701.14,591.85l-11.77,13.9L674,611.88a48.66,48.66,0,0,1-7.28,1.78c-7.52,1.22-7.94.19-14.6-2.41a40.27,40.27,0,0,1-16.86-12c1.32-.35,3.08-2.45,3.08-2.45l-9-4-54.8,13.71-3.26,11.69c.32.13,43.57-11.32,57.52-15a41,41,0,0,0,59.65,16.38,41.17,41.17,0,0,0,14-16l.71-1.42Z" transform="translate(-273.73 -200.46)"/><path class="cls-4" d="M624.31,583.4a13,13,0,0,1,1.91-9.1c.08-1.16.21-2.31.38-3.45h0s-52.88,6.37-54.21,5.85c0,0,4.88,24.13,2.15,29.78l57.58-14.06-3.47-1.26A12.93,12.93,0,0,1,624.31,583.4Z" transform="translate(-273.73 -200.46)"/><path class="cls-4" d="M634.52,569.21l.35,0c.15,0,.29-.08.44-.1a12.93,12.93,0,0,1,9.62,2.25c2.27-7.21,9-13.63,16.92-14.92a20.64,20.64,0,0,1,21.36,10.41l11.32-15.71a39,39,0,0,0-68.31,23.2C628.15,571.32,630.73,569.82,634.52,569.21Z" transform="translate(-273.73 -200.46)"/><path class="cls-4" d="M701.14,591.85l-15.7-11.32a20.64,20.64,0,0,1-17,16.62c-8,1.3-16-3-20.44-9.17a13,13,0,0,1-8.42,5.18l-.27,0c-.17,0-.34.09-.52.12-3.78.61-7,.36-9.81-1.87a39,39,0,0,0,72.14.42Z" transform="translate(-273.73 -200.46)"/><circle class="cls-2" cx="363.41" cy="380.86" r="12.99"/><circle class="cls-4" cx="363.41" cy="380.86" r="3.54"/><polygon class="cls-4" points="144.73 598.98 186.18 616.07 236.02 453.94 216.59 462.06 190.12 456.11 144.73 598.98"/><polyline class="cls-2" points="272.13 437.41 216.71 603.02 186.18 616.07 236.02 453.94 272.13 437.41"/><path class="cls-4" d="M490.32,663.65c19.45-78-2.64-185.34-2.64-185.34l-32.14,7-32.25,7.13s-26.64,5.4-13,50.74L431,651.35s39.72-13.8,53.87,6.35Z" transform="translate(-273.73 -200.46)"/><polygon class="cls-4" points="162.25 268.02 227.91 249.62 227.91 189.99 164.79 208.7 162.25 268.02"/><circle class="cls-2" cx="186.83" cy="229.16" r="12.85"/><path class="cls-8" d="M478.88,429a26.55,26.55,0,0,0-5.2-5.12c-.32-.25-4.1-3.44-4.15-3.4h0a12.84,12.84,0,0,1-9,22,14.23,14.23,0,0,1-8.38-3.11c2,2.21,5,5.4,5.37,5.76,2.92,2.68,6.06,4.28,10.07,4.17a14.2,14.2,0,0,0,7.95-2.69C481.13,442.51,483,434.7,478.88,429Z" transform="translate(-273.73 -200.46)"/><path class="cls-8" d="M460.56,431.62a2,2,0,0,1-1.69-.92l-37.16-58.1a2,2,0,0,1,3.37-2.15l37.16,58.09a2,2,0,0,1-.6,2.77A2,2,0,0,1,460.56,431.62Z" transform="translate(-273.73 -200.46)"/><path class="cls-8" d="M539.84,406.21a2,2,0,0,1-1.69-.93l-20.9-32.68a2,2,0,1,1,3.37-2.15l20.9,32.68a2,2,0,0,1-1.68,3.08Z" transform="translate(-273.73 -200.46)"/><circle class="cls-8" cx="245.92" cy="171.12" r="7.91"/><path class="cls-2" d="M501.63,450.08V390.45s26.86-.74,69.36,29.82c0,0,2.33,30.55-5.5,50.22C565.49,470.49,551.54,472,501.63,450.08Z" transform="translate(-273.73 -200.46)"/><path class="cls-5" d="M511.78,400.57V444S541.3,457.59,559,460.76c0,0,4.66-18.14,3.23-37.17C562.27,423.59,531,405.15,511.78,400.57Z" transform="translate(-273.73 -200.46)"/><path class="cls-4" d="M533,441.06a2,2,0,0,1-2-1.71l-1.92-12.9-7.94,8.88a2,2,0,1,1-3-2.67L529,420.6a2,2,0,0,1,2.06-.58,2,2,0,0,1,1.41,1.62L535,438.77a2,2,0,0,1-1.68,2.27Z" transform="translate(-273.73 -200.46)"/><path class="cls-4" d="M551.71,447.83a2,2,0,0,1-2-1.73l-1.36-10.2-5.51,6.81a2,2,0,1,1-3.11-2.51l8.43-10.42a2,2,0,0,1,3.53,1l2,14.79a2,2,0,0,1-1.72,2.25Z" transform="translate(-273.73 -200.46)"/><path class="cls-8" d="M436,468.48l65.65-18.4c51.07,20.43,63.86,20.41,63.86,20.41l-18.43,14.8-59.38-7-32.14,7S445.39,482.33,436,468.48Z" transform="translate(-273.73 -200.46)"/><path class="cls-2" d="M490.32,662.52s54.53-22,79.27-37.51a32.47,32.47,0,0,0,15.78-28.39s5.39-52.34-4.44-86.91c0,0-3.39-19.07-27.91-22.84l-65.34-8.56S509.77,584.5,490.32,662.52Z" transform="translate(-273.73 -200.46)"/><path class="cls-4" d="M470.91,482l-2.11-6.18s25.86-12.69,59.69-.74v8.08l-40.81-4.8Z" transform="translate(-273.73 -200.46)"/><polygon class="cls-4" points="234.47 432.21 232.12 435.63 237.71 439.88 240.18 432.69 234.47 432.21"/><polygon class="cls-4" points="245.4 312.48 238.71 313.25 235.55 328.53 239.57 345.74 246.83 344.94 245.4 312.48"/><path class="cls-4" d="M570.27,551.13l-4.67,3.73c-.32,0-3.38,12.26-3.38,12.26l11.1-1.69,2.54-10Z" transform="translate(-273.73 -200.46)"/><path class="cls-4" d="M513.45,540.69c-3.44-6.36-3.44-16.66,0-23a11.7,11.7,0,0,1,2.28-3c-3.1-2-6.68-.77-9.16,3.81-3.44,6.36-3.44,16.66,0,23,2.75,5.09,6.87,6.09,10.17,3A10.27,10.27,0,0,1,513.45,540.69Z" transform="translate(-273.73 -200.46)"/><rect class="cls-4" x="264.33" y="310.95" width="8.45" height="31.75"/><polygon class="cls-12" points="300.86 339.26 272.79 342.7 272.79 310.95 300.86 314.39 300.86 339.26"/><polygon class="cls-12" points="299.57 412.89 237.71 439.88 237.94 374.13 302.14 354.92 299.57 412.89"/><polygon class="cls-13" points="257.87 389.76 248.08 393.15 248.19 382.17 258.04 378.99 257.87 389.76"/><polygon class="cls-14" points="257.69 400.38 247.97 403.97 248.08 393.15 257.87 389.76 257.69 400.38"/><polygon class="cls-2" points="257.52 410.86 247.86 414.64 247.97 403.97 257.69 400.38 257.52 410.86"/><polygon class="cls-15" points="257.35 421.19 247.75 425.17 247.86 414.64 257.52 410.86 257.35 421.19"/><polygon class="cls-9" points="257.18 431.39 247.65 435.55 247.75 425.17 257.35 421.19 257.18 431.39"/><polygon class="cls-15" points="266.56 417.38 257.35 421.19 257.52 410.86 266.79 407.23 266.56 417.38"/><polygon class="cls-9" points="266.33 427.39 257.18 431.39 257.35 421.19 266.56 417.38 266.33 427.39"/><polygon class="cls-9" points="275.13 423.56 266.33 427.39 266.56 417.38 275.41 413.71 275.13 423.56"/><polygon class="cls-14" points="284.59 390.45 275.98 393.63 276.27 383.39 284.93 380.39 284.59 390.45"/><polygon class="cls-2" points="284.25 400.38 275.69 403.74 275.98 393.63 284.59 390.45 284.25 400.38"/><polygon class="cls-15" points="283.92 410.19 275.41 413.71 275.69 403.74 284.25 400.38 283.92 410.19"/><polygon class="cls-9" points="283.59 419.87 275.13 423.56 275.41 413.71 283.92 410.19 283.59 419.87"/><polygon class="cls-2" points="292.48 397.15 284.25 400.38 284.59 390.45 292.86 387.39 292.48 397.15"/><polygon class="cls-15" points="292.1 406.8 283.92 410.19 284.25 400.38 292.48 397.15 292.1 406.8"/><polygon class="cls-9" points="291.73 416.31 283.59 419.87 283.92 410.19 292.1 406.8 291.73 416.31"/><polygon class="cls-4" points="237.94 374.13 296.28 356.67 296.55 350.67 232.35 369.88 232.12 435.63 237.74 433.18 237.94 374.13"/><path class="cls-16" d="M511.44,640.34" transform="translate(-273.73 -200.46)"/><path class="cls-16" d="M505.85,636.09" transform="translate(-273.73 -200.46)"/><path class="cls-2" d="M575.58,620.38a29,29,0,0,1-6,4.63c-6.4,4-14.8,8.47-23.74,12.86l66.58,138.8L638,757Z" transform="translate(-273.73 -200.46)"/><path class="cls-2" d="M638,757s44.09,26.17,40.18,57.15L652,830.7s7.34-31.62-39.55-54Z" transform="translate(-273.73 -200.46)"/><polygon class="cls-4" points="272.13 437.41 254.76 489.3 293.04 569.65 338.71 576.21 272.13 437.41"/><path class="cls-4" d="M612.43,776.67c46.89,22.41,39.55,54,39.55,54l-94.73-33.31s-5.08-11.63,9.51-27.27Z" transform="translate(-273.73 -200.46)"/><ellipse class="cls-2" cx="581.12" cy="711.38" rx="8.04" ry="14.57" transform="translate(-524.42 121.24) rotate(-25.65)"/><path class="cls-2" d="M587.43,724.51c4-1.92,4.42-9.36.94-16.61s-9.55-11.57-13.55-9.65l28-18.37c4-1.85,10,2.59,13.37,9.9s2.78,14.75-1.26,16.59Z" transform="translate(-273.73 -200.46)"/><path class="cls-4" d="M618,689c-3.86-8.45-10.9-13.23-16-10.89l-.27.15-9,5.89-.17.11-18.82,12.37,0,0c-4.84,2.6-5.58,10.9-1.63,19.13a23.65,23.65,0,0,0,7.23,9,10.59,10.59,0,0,0,6.05,2.22,6.76,6.76,0,0,0,2.94-.66,6.07,6.07,0,0,0,.82-.48l.23-.16.31-.23,7.71-5.09.1,0a6.3,6.3,0,0,0,1.51-1l8.19-5.4.1,0a6.57,6.57,0,0,0,1.52-1l7.1-4.69C620.87,705.68,621.79,697.31,618,689Zm-18.38-.16a20,20,0,0,1,5.94,7.5c2.86,6,2.66,11.38.76,13.37l-4.47,3A23.27,23.27,0,0,0,599.34,701c-2.41-5-5.93-8.67-9.45-10.29l4.87-3.2C596,687,597.73,687.47,599.59,688.79Zm-18,32.71a19.91,19.91,0,0,1-5.94-7.5c-3.21-6.68-2.57-12.71,0-14a2.45,2.45,0,0,1,.54-.18l.19,0,.4,0H577a4.12,4.12,0,0,1,.59.07l.2,0a6.57,6.57,0,0,1,.8.24l.18.08.7.33.25.14c.29.17.59.35.89.56a20,20,0,0,1,5.94,7.5c.19.4.37.8.53,1.2.06.13.1.25.15.38s.21.53.3.79.11.3.16.45.15.47.22.69.09.32.13.47.12.44.17.65.07.32.11.47l.12.62c0,.15,0,.3.08.45s.05.4.08.59,0,.3,0,.44,0,.38,0,.57,0,.27,0,.4v.92c0,.2,0,.39,0,.58l0,.28c0,.28-.07.55-.12.8v0c0,.24-.11.48-.18.71,0,.07-.05.14-.08.22s-.1.29-.16.43a2.4,2.4,0,0,1-.11.23c-.06.11-.11.23-.18.34l-.14.21a2.69,2.69,0,0,1-.2.27,1.37,1.37,0,0,1-.16.18l-.18.17-.66.44C585.26,723.27,583.49,722.83,581.62,721.5Zm11.07-3.44,0-.61c0-.24,0-.5,0-.75s0-.42,0-.63,0-.53-.07-.79,0-.42-.07-.64-.09-.56-.14-.83-.07-.43-.12-.64-.13-.59-.2-.88-.1-.42-.16-.63-.19-.63-.29-.95-.11-.38-.18-.58-.26-.71-.4-1.06c-.06-.16-.11-.32-.18-.49-.21-.51-.44-1-.69-1.55a23.75,23.75,0,0,0-7.22-9c-.38-.27-.76-.51-1.14-.73l-.4-.21a6.35,6.35,0,0,0-.63-.33l4.07-2.68c2.58-1.23,7.68,2,10.88,8.72,2.86,5.94,2.66,11.37.76,13.36l-3.82,2.52C592.68,718.46,592.68,718.26,592.69,718.06Zm21.37-13.51-.27.15-2.17,1.44a23.25,23.25,0,0,0-2.48-11.58,23.86,23.86,0,0,0-7.23-9,13.5,13.5,0,0,0-2.17-1.26l4-2.62c2.64-1,7.57,2.33,10.6,9S616.66,703.37,614.06,704.55Z" transform="translate(-273.73 -200.46)"/><ellipse class="cls-4" cx="581.12" cy="711.38" rx="2.34" ry="4.24" transform="translate(-524.42 121.24) rotate(-25.65)"/><path class="cls-4" d="M463.33,861.3s20.49-13.16,28.55-16.33c0,0-2.3-17.76-32-28.44l-41.44-17.09s-16.93.28-20.91,27.56Z" transform="translate(-273.73 -200.46)"/><path class="cls-2" d="M491.88,845s24.29-9.2,36.61-9.52c0,0-13.3-26.23-38.06-32l-30.53,13S487,824.67,491.88,845Z" transform="translate(-273.73 -200.46)"/><path class="cls-16" d="M493.05,751.31" transform="translate(-273.73 -200.46)"/><path class="cls-2" d="M479,754.39c3.66,1.13,8.6-4.37,11.05-12.28s1.46-15.24-2.19-16.37l31.45-5.07c3.66,1.12,5.64,8.17,3.19,16.09s-6.45,11.21-12,12.56Z" transform="translate(-273.73 -200.46)"/><ellipse class="cls-2" cx="483.39" cy="740.07" rx="15" ry="6.93" transform="translate(-640.11 783) rotate(-72.83)"/><path class="cls-4" d="M519.86,718.75a2,2,0,0,0-.9-.06l-31.12,5c-2.41-.47-5,.72-7.49,3.44A30.68,30.68,0,0,0,473.6,749c.5,3.73,2.08,6.24,4.44,7.15a2.26,2.26,0,0,0,.33.13,5.38,5.38,0,0,0,1.59.24,6.78,6.78,0,0,0,.77,0l.26,0a4.64,4.64,0,0,0,.51-.11l.32-.1.47-.16.33-.15.31-.14,27.81-4.48.15,0c6.86-1.66,11-6,13.48-13.91C527.05,728.69,525,720.35,519.86,718.75Zm-10.19,5.92c1.76,1.53,2.37,7,.35,13.57-1.5,4.86-4.49,8.61-6.76,10.21l-4.11.66a30.44,30.44,0,0,0,3.76-8c1.95-6.31,1.86-12.24,0-15.77l6.45-1A1.7,1.7,0,0,0,509.67,724.67Zm-31,13.94a24.21,24.21,0,0,1,4.65-8.78c1.27-1.42,2.57-2.24,3.5-2.24a1.23,1.23,0,0,1,.39.06c.94.29,1.7,1.82,2,4a26.76,26.76,0,0,1-5.77,18.66c-.17.19-.35.37-.52.54l-.13.12-.39.36-.15.12-.37.28-.15.11-.18.11-2.33.37c-.79-.5-1.41-1.92-1.67-3.83A24.42,24.42,0,0,1,478.68,738.61Zm9.38,12.28c.35-.51.68-1,1-1.6l.24-.43c.32-.56.62-1.13.9-1.73l0,0c.29-.61.55-1.24.81-1.89l.19-.49c.25-.66.49-1.32.7-2a28.11,28.11,0,0,0,1.26-11.58c-.06-.45-.14-.88-.23-1.29l-.09-.37c-.07-.28-.15-.56-.23-.82s-.09-.26-.13-.38-.19-.5-.29-.73-.09-.22-.14-.32l-.06-.12,6.38-1,.22.19c1.61,1.15,2.68,6.55.48,13.67-1.41,4.55-3.77,8.45-6.19,10.2l-4.85.78Zm32.49-14.73c-2,6.61-5.09,9.86-10.53,11.2l-.17,0a27.59,27.59,0,0,0,4-8c2-6.37,1.89-12.32,0-15.85l5.24-.84C521.08,723.88,522.64,729.41,520.55,736.16Z" transform="translate(-273.73 -200.46)"/><ellipse class="cls-4" cx="483.39" cy="740.07" rx="4.2" ry="1.94" transform="translate(-640.11 783) rotate(-72.83)"/><ellipse class="cls-12" cx="245.95" cy="328.72" rx="8.81" ry="16.27"/><ellipse class="cls-1" cx="245.95" cy="328.72" rx="8.81" ry="16.27"/><path class="cls-4" d="M518.44,526.89a5.33,5.33,0,0,0,0,4.58c.68,1.26,1.79,1.26,2.48,0s3-9.51,3-9.51S519.12,525.62,518.44,526.89Z" transform="translate(-273.73 -200.46)"/></g><path class="cls-8" d="M447.71,648.85,411.27,614.7l46.94-42.83A30.73,30.73,0,0,0,484,553.23s12.29-24.4-17.4-43c0,0,15.86,20.88.06,40.68,0,0-9.64,14.16-30.21,10.9l-50.7,46.09s2.39,5.69.88,9.79l43.54,39.67S439.47,651.08,447.71,648.85Z" transform="translate(-273.73 -200.46)"/><path class="cls-8" d="M458.78,702.25l0,0-.06,0a18.53,18.53,0,0,1-7.32-14.63,15,15,0,0,0,8.39-15.76c.46-.3.94-.57,1.42-.83,2.4-1.09,6.88-2.52,14.57-3,0,0-19-10.83-30.35-5.44,0,0-18.42,14.91-10,38a45.72,45.72,0,0,0,13.39,3.26l-5.46.87,23,3.14,1-3.89C462,704.19,459.36,702.64,458.78,702.25Z" transform="translate(-273.73 -200.46)"/><path class="cls-8" d="M480.2,654.88c9.73,7.08,11.14,7.39,12,19.67a2,2,0,0,1-1.41,2.05l-3.65,1.11.14-2.13-9.39,11.79,9.78,7.91,21.2-7.4-.11-1.59a41.64,41.64,0,0,0-20.84-33c-6.67-3.76-14.07-5-21.42-6.78l-3,1.51L482,655Z" transform="translate(-273.73 -200.46)"/><path class="cls-8" d="M484.55,701.11l-13.34-1.39,2.61,11.18-1.68,5.51a2,2,0,0,1-.92,2.32c-4,2.3-9.29,2.32-13.76,2.34-2.35,0-4.69-.11-7-.22q-1.76-.09-3.51-.15a8.4,8.4,0,0,0-2.59-.12c-.63.21-.62.13-.19.63a8.31,8.31,0,0,0,1.69,1.13c4.77,3.08,9.93,6,15.52,7.28,10.85,2.49,19.44-2,28.11-6.94l1.38-.8S484.54,701.12,484.55,701.11Z" transform="translate(-273.73 -200.46)"/><path class="cls-4" d="M437.9,659.87l.3.19.41.18a13,13,0,0,1,6.29,7.63c6.17-4.37,15.15-5.53,22.28-1.72a20.6,20.6,0,0,1,10.69,21.22l18.52-5.64A39,39,0,0,0,428,658.81C431.33,657.6,434.51,658.07,437.9,659.87Z" transform="translate(-273.73 -200.46)"/><path class="cls-4" d="M477,718.15l-5.64-18.52a20.63,20.63,0,0,1-23.58,3c-7.13-3.81-11-12-10.81-19.55a13,13,0,0,1-9.83-1l-.23-.14-.48-.23c-3.38-1.8-5.72-4.11-6.57-7.56a39,39,0,0,0,57.14,44Z" transform="translate(-273.73 -200.46)"/><circle class="cls-2" cx="158.69" cy="470.54" r="12.99"/><circle class="cls-4" cx="158.69" cy="470.54" r="3.54"/><path class="cls-4" d="M371.38,594.72a16,16,0,0,1,5.13,4.32,17.25,17.25,0,0,1,2,.87,16.06,16.06,0,0,1,7.28,8l50.7-46.09a31.22,31.22,0,0,1-23.69-21l-54.14,52.88A16.1,16.1,0,0,1,371.38,594.72Z" transform="translate(-273.73 -200.46)"/><path class="cls-4" d="M421,664.89a13,13,0,0,1,10-6.79h0l-44.34-40.4a15.83,15.83,0,0,1-1.5,4.1,16.08,16.08,0,0,1-23.58,5.61h0l57.93,44.93A12.91,12.91,0,0,1,421,664.89Z" transform="translate(-273.73 -200.46)"/><circle class="cls-4" cx="90.04" cy="408.53" r="3.54"/><path class="cls-8" d="M378.49,599.91a17.25,17.25,0,0,0-2-.87,16.15,16.15,0,0,1-18.37,25.09,15.93,15.93,0,0,0,5.13,4.33,16.18,16.18,0,0,0,15.22-28.55Z" transform="translate(-273.73 -200.46)"/><circle class="cls-2" cx="168.76" cy="330.71" r="31.22"/><circle class="cls-4" cx="168.76" cy="330.71" r="4.96"/><circle class="cls-8" cx="150.39" cy="171.12" r="7.91"/><path class="cls-4" d="M419.69,795.57l-1.22,3.82,41,16.24a2,2,0,0,0,.76.15,2.07,2.07,0,0,0,.77-.15l29.44-12.19,1.68-5-30.75,13.3Z" transform="translate(-273.73 -200.46)"/><path class="cls-4" d="M611.64,776.56a2,2,0,0,0,1.14-.41l25.16-19.38L636.23,753,611,772.45l-46.37-6.74,2.1,4.41,42.59,6.11Z" transform="translate(-273.73 -200.46)"/><path class="cls-4" d="M557,536.09a2,2,0,0,1-2-2V520.48a2,2,0,0,1,4,0v13.61A2,2,0,0,1,557,536.09Z" transform="translate(-273.73 -200.46)"/><path class="cls-4" d="M566.09,535a2,2,0,0,1-2-2V521.55a2,2,0,0,1,4,0V533A2,2,0,0,1,566.09,535Z" transform="translate(-273.73 -200.46)"/></svg>