<?xml version="1.0" encoding="utf-8"?>
<!-- Generator: Adobe Illustrator 24.2.0, SVG Export Plug-In . SVG Version: 6.00 Build 0)  -->
<svg version="1.1" id="Layer_1" xmlns="http://www.w3.org/2000/svg" xmlns:xlink="http://www.w3.org/1999/xlink" x="0px" y="0px"
	 viewBox="0 0 200 200" style="enable-background:new 0 0 200 200;" xml:space="preserve">
<style type="text/css">
	.st0{fill:#1DA4DE;}
	.st1{fill:#0B4A7B;}
</style>
<g>
	<circle class="st0" cx="67.1" cy="113.9" r="2.4"/>
	<circle class="st0" cx="74.2" cy="113.9" r="2.4"/>
	<path class="st0" d="M80.2,115.1h11.9c0.7,0,1.2-0.5,1.2-1.2c0-0.7-0.5-1.2-1.2-1.2H80.2c-0.7,0-1.2,0.5-1.2,1.2
		C79,114.6,79.5,115.1,80.2,115.1z"/>
	<circle class="st0" cx="67.1" cy="99.6" r="2.4"/>
	<circle class="st0" cx="74.2" cy="99.6" r="2.4"/>
	<path class="st0" d="M92.1,98.5H80.2c-0.7,0-1.2,0.5-1.2,1.2c0,0.7,0.5,1.2,1.2,1.2h11.9c0.7,0,1.2-0.5,1.2-1.2
		C93.3,99,92.8,98.5,92.1,98.5z"/>
	<circle class="st0" cx="67.1" cy="85.4" r="2.4"/>
	<circle class="st0" cx="74.2" cy="85.4" r="2.4"/>
	<path class="st0" d="M92.1,84.2H80.2c-0.7,0-1.2,0.5-1.2,1.2c0,0.7,0.5,1.2,1.2,1.2h11.9c0.7,0,1.2-0.5,1.2-1.2
		C93.3,84.7,92.8,84.2,92.1,84.2z"/>
	<circle class="st0" cx="114.7" cy="126.8" r="4.8"/>
	<circle class="st0" cx="114.7" cy="72.5" r="4.8"/>
	<path class="st1" d="M131.4,73.1c0.3,2.3,2.3,4.2,4.7,4.2c2.6,0,4.8-2.1,4.8-4.8c0-2.6-2.1-4.8-4.8-4.8c-2.4,0-4.4,1.8-4.7,4.2h-9
		c-0.1-1.5-0.6-2.8-1.4-3.9l11.9-10.1c0.8,0.8,2,1.3,3.2,1.3c2.6,0,4.8-2.1,4.8-4.8c0-2.6-2.1-4.8-4.8-4.8c-2.6,0-4.8,2.1-4.8,4.8
		c0,1,0.3,1.8,0.8,2.6l-11.9,10.1c-1.4-1.4-3.4-2.3-5.5-2.3c-4.3,0-7.7,3.5-7.7,7.7c0,2.6,1.3,4.9,3.2,6.3L98.6,97.9v-3
		c0-1-0.5-1.8-1.2-2.4c0.7-0.5,1.2-1.4,1.2-2.4v-9.5c0-1.6-1.3-3-3-3H62.3c-1.6,0-3,1.3-3,3v9.5c0,1,0.5,1.8,1.2,2.4
		c-0.7,0.5-1.2,1.4-1.2,2.4v9.5c0,1,0.5,1.8,1.2,2.4c-0.7,0.5-1.2,1.4-1.2,2.4v9.5c0,1.6,1.3,3,3,3h33.3c1.6,0,3-1.3,3-3v-9.5
		c0-1-0.5-1.8-1.2-2.4c0.7-0.5,1.2-1.4,1.2-2.4v-2.3l11.5,18.4c-1.9,1.4-3.2,3.7-3.2,6.2c0,4.3,3.5,7.7,7.7,7.7
		c2.2,0,4.1-0.9,5.5-2.3l11.9,10.1c-0.5,0.7-0.8,1.6-0.8,2.6c0,2.6,2.1,4.8,4.8,4.8c2.6,0,4.8-2.1,4.8-4.8c0-2.6-2.1-4.8-4.8-4.8
		c-1.2,0-2.4,0.5-3.2,1.3L121,131.3c0.8-1.1,1.3-2.5,1.4-3.9h9c0.3,2.3,2.3,4.2,4.7,4.2c2.6,0,4.8-2.1,4.8-4.8s-2.1-4.8-4.8-4.8
		c-2.4,0-4.4,1.8-4.7,4.2h-9c-0.1-1.5-0.6-2.8-1.4-3.9l11.9-10.1c0.8,0.8,2,1.3,3.2,1.3c2.6,0,4.8-2.1,4.8-4.8s-2.1-4.8-4.8-4.8
		c-2.6,0-4.8,2.1-4.8,4.8c0,1,0.3,1.8,0.8,2.6l-11.9,10.1c-1.4-1.4-3.4-2.3-5.5-2.3c-1.3,0-2.5,0.3-3.6,0.9L98.8,100l12.5-20.6
		c1,0.5,2.2,0.8,3.5,0.8c2.2,0,4.1-0.9,5.5-2.3L132.2,88c-0.5,0.7-0.8,1.6-0.8,2.6c0,2.6,2.1,4.8,4.8,4.8c2.6,0,4.8-2.1,4.8-4.8
		c0-2.6-2.1-4.8-4.8-4.8c-1.2,0-2.4,0.5-3.2,1.3L121,77c0.8-1.1,1.3-2.5,1.4-3.9H131.4z M121.3,126.8c0,3.6-2.9,6.5-6.5,6.5
		c-3.6,0-6.5-2.9-6.5-6.5c0-3.6,2.9-6.5,6.5-6.5C118.3,120.2,121.3,123.2,121.3,126.8z M60.6,90.1v-9.5c0-1,0.8-1.8,1.8-1.8h33.3
		c1,0,1.8,0.8,1.8,1.8v9.5c0,1-0.8,1.8-1.8,1.8H62.3C61.4,91.9,60.6,91.1,60.6,90.1z M97.5,109.2v9.5c0,1-0.8,1.8-1.8,1.8H62.3
		c-1,0-1.8-0.8-1.8-1.8v-9.5c0-1,0.8-1.8,1.8-1.8h33.3C96.7,107.4,97.5,108.2,97.5,109.2z M97.5,104.4c0,1-0.8,1.8-1.8,1.8H62.3
		c-1,0-1.8-0.8-1.8-1.8v-9.5c0-1,0.8-1.8,1.8-1.8h33.3c1,0,1.8,0.8,1.8,1.8V104.4z M114.7,79c-3.6,0-6.5-2.9-6.5-6.5
		c0-3.6,2.9-6.5,6.5-6.5c3.6,0,6.5,2.9,6.5,6.5C121.3,76.1,118.3,79,114.7,79z"/>
</g>
</svg>
