<?xml version="1.0" encoding="UTF-8"?>
<svg id="Layer_1" xmlns="http://www.w3.org/2000/svg" version="1.1" viewBox="0 0 621.9 666.7">
  <!-- Generator: Adobe Illustrator 29.3.0, SVG Export Plug-In . SVG Version: 2.1.0 Build 146)  -->
  <defs>
    <style>
      .st0 {
        fill: #eaeaea;
      }
    </style>
  </defs>
  <path class="st0" d="M621.9,218.9c0-144.6-94.8-187-94.8-187C479.3,9.9,397.3.7,312.1,0h-2.1c-85.2.7-167.2,9.9-215,31.9C95,31.9.2,74.3.2,218.9s-.6,72.7.4,114.7c3.4,141.4,25.9,280.8,156.7,315.4,60.3,16,112.1,19.3,153.7,17,75.6-4.2,118-27,118-27l-2.5-54.9s-54,17-114.7,15c-60.1-2.1-123.6-6.5-133.3-80.3-.9-6.9-1.4-13.8-1.3-20.7,0,0,59,14.4,133.8,17.9,45.7,2.1,88.6-2.7,132.2-7.9,83.5-10,156.3-61.4,165.4-108.5,14.5-74.1,13.3-180.8,13.3-180.8h0ZM510.1,405.2h-69.4v-170c0-35.8-15.1-54-45.2-54s-50,21.6-50,64.2v93h-69v-93c0-42.7-16.7-64.2-50.1-64.2s-45.2,18.2-45.2,54v170h-69.4v-175.1c0-35.8,9.1-64.2,27.4-85.3,18.9-21,43.6-31.8,74.3-31.8s62.4,13.6,80.2,40.9l17.3,29,17.3-29c17.8-27.3,44.7-40.9,80.2-40.9s55.4,10.8,74.3,31.8c18.3,21,27.4,49.5,27.4,85.3v175.1Z"/>
</svg>