<?xml version="1.0" encoding="utf-8"?>
<!-- Generator: Adobe Illustrator 24.2.0, SVG Export Plug-In . SVG Version: 6.00 Build 0)  -->
<svg version="1.1" id="Layer_1" xmlns="http://www.w3.org/2000/svg" xmlns:xlink="http://www.w3.org/1999/xlink" x="0px" y="0px"
	 viewBox="0 0 200 200" style="enable-background:new 0 0 200 200;" xml:space="preserve">
<style type="text/css">
	.st0{fill:#1DA4DE;}
	.st1{fill:#0B4A7B;}
</style>
<g>
	<path class="st0" d="M138,144.9c-0.2,0-0.4,0-0.7,0.1l-35.5-57.6c0.4-0.4,0.6-1,0.6-1.6c0-1.3-1.1-2.4-2.4-2.4s-2.4,1.1-2.4,2.4
		c0,0.6,0.2,1.2,0.6,1.6L62.9,145c-0.2-0.1-0.4-0.1-0.7-0.1c-1.3,0-2.4,1.1-2.4,2.4s1.1,2.4,2.4,2.4c1.3,0,2.4-1.1,2.4-2.4
		c0-0.6-0.2-1.2-0.6-1.6L99.5,88c0,0,0,0,0,0v57c-1,0.3-1.7,1.2-1.7,2.3c0,1.3,1.1,2.4,2.4,2.4s2.4-1.1,2.4-2.4c0-1.1-0.7-2-1.7-2.3
		V88c0,0,0,0,0,0l35.5,57.6c-0.4,0.4-0.6,1-0.6,1.6c0,1.3,1.1,2.4,2.4,2.4s2.4-1.1,2.4-2.4S139.3,144.9,138,144.9z"/>
	<g>
		<path class="st1" d="M121.7,112.2l-0.2-1.2c10.3-1.3,18.2-10.1,18.2-20.5c0-10.6-7.9-19.4-18.5-20.6l-0.5-0.1l-0.1-0.5
			c-1.1-10.5-9.9-18.5-20.5-18.5s-19.4,7.9-20.5,18.5l-0.1,0.5L79,69.9C68.5,71,60.5,79.9,60.5,90.5c0,10.4,7.8,19.3,18.2,20.5
			l-0.2,1.2c-11-1.3-19.3-10.7-19.3-21.8c0-11.1,8.2-20.3,19.1-21.7c1.4-10.9,10.7-19.1,21.7-19.1s20.3,8.2,21.7,19.1
			c10.9,1.4,19.1,10.7,19.1,21.7C141,101.6,132.7,110.9,121.7,112.2z"/>
		<rect x="104.9" y="111.2" class="st1" width="5.6" height="1.3"/>
		<rect x="89.7" y="111.2" class="st1" width="5.6" height="1.3"/>
	</g>
</g>
</svg>
