<svg id="Layer_1" data-name="Layer 1" xmlns="http://www.w3.org/2000/svg" viewBox="0 0 1362 459"><defs><style>.cls-1{fill:#fff;}.cls-2{fill:#4e4540;}.cls-3{fill:#ec1944;}</style></defs><title>baremetal-logo-programArtboard 1</title><rect class="cls-1" x="15.55" y="20.93" width="1283.52" height="417.14" rx="18.88"/><path class="cls-2" d="M1280.19,13.38H34.43A26.45,26.45,0,0,0,8,39.8V419.2a26.45,26.45,0,0,0,26.43,26.42H1280.19a26.46,26.46,0,0,0,26.43-26.42V39.8A26.46,26.46,0,0,0,1280.19,13.38ZM34.43,28.48H1280.19a11.34,11.34,0,0,1,11.33,11.32v285H23.1V39.8A11.34,11.34,0,0,1,34.43,28.48Z"/><path class="cls-2" d="M53.85,54.72h62.94V299.47H53.85Z"/><path class="cls-2" d="M165,54.72h96.15c32.87,0,57.69,8.74,73.43,24.82,13.63,13.64,21.32,32.52,21.32,57.34v1.75c0,36.37-17.83,59.09-43.7,72l50.35,88.81h-71L250,223.6H227.62v75.87H165Zm93.7,118.88c21.33,0,33.92-12.24,33.92-31.82v-.7c0-21-13.29-31.47-34.27-31.47H227.62v64Z"/><path class="cls-2" d="M703.5,54.72h59.09l81.47,123.07V54.72H906V299.47H850L765.39,171.15V299.47H703.5Z"/><path class="cls-2" d="M953.5,54.72h62.93V299.47H953.5Z"/><path class="cls-2" d="M1061.46,179.54v-4.19c0-75.53,49.3-124.83,113.64-124.83,38.46,0,64.68,15,84.61,38.46l-40.56,43c-10.49-12.59-23.77-23.08-43-23.08-28.67,0-50,25.53-50,67.13v1.4c0,43.71,21.68,67.83,50,67.83,21,0,33.56-11.18,44.75-24.12l39.86,40.56c-19.93,24.47-47.2,42-88.11,42C1110.07,303.67,1061.46,255.76,1061.46,179.54Z"/><path class="cls-3" d="M631.16,54.72H427.1a23.43,23.43,0,0,0-23.43,23.35v54.68h56.65v-8.86a12.51,12.51,0,0,1,12.45-12.42H585.18a12.51,12.51,0,0,1,12.46,12.42v8.86h56.65V78.07A23.38,23.38,0,0,0,631.16,54.72Z"/><path class="cls-3" d="M597.64,230.3a12.51,12.51,0,0,1-12.46,12.42H472.77a12.51,12.51,0,0,1-12.45-12.42v-8.87H403.67v54.69a23.44,23.44,0,0,0,23.43,23.35H631.16a23.44,23.44,0,0,0,23.43-23.35V221.43h-57Z"/><rect class="cls-3" x="403.67" y="149.01" width="56.65" height="56.46"/><rect class="cls-3" x="597.64" y="149.01" width="56.65" height="56.46"/><path class="cls-2" d="M1354,427a18.73,18.73,0,1,0-18.73,18.67A18.61,18.61,0,0,0,1354,427Zm-18.73,14.18a14.18,14.18,0,1,1,0-28.35,14.18,14.18,0,1,1,0,28.35Z"/><path class="cls-2" d="M1342.55,423.84h0a6.59,6.59,0,0,0-1.38-4.15,6.92,6.92,0,0,0-4.86-1.72h-6.94v18.32h3.82v-5.88h2.43l3.46,5.88h4.17l-3.82-6.92A6.08,6.08,0,0,0,1342.55,423.84Zm-3.81,0c0,1.73-1,2.77-3.12,2.77h-2.78v-5.53h2.78a2.83,2.83,0,0,1,3.12,2.76Z"/><path class="cls-1" d="M53.85,385.72v-.84c0-17.43,10.73-29.92,26.08-29.92s25.9,12.4,25.9,29.76v.83c0,17.44-10.73,29.93-26.07,29.93S53.85,403.08,53.85,385.72Zm41.92-.17V385c0-12.58-6.71-21-16-21s-15.85,8.3-15.85,20.95v.59c0,12.58,6.79,21,16,21S95.77,398.21,95.77,385.55Z"/><path class="cls-1" d="M129.79,355.88h18.78c12.83,0,21.13,7.38,21.13,19.53v.17c0,13-9.56,19.78-21.72,19.95h-8.46v19h-9.73ZM148,386.73c7.47,0,11.83-4.44,11.83-11v-.09c0-7-4.36-10.89-11.83-10.89h-8.46v22Z"/><path class="cls-1" d="M192,355.88h37v8.8H201.63v15.93h24.22v8.8H201.63v16.35h27.75v8.8H192Z"/><path class="cls-1" d="M253,355.88h9.05L287.88,395V355.88h9.47v58.68h-8.21l-26.58-40.32v40.32H253Z"/><path class="cls-1" d="M319.31,406.85l5.86-7.29c4.36,3.94,9.23,6.95,15.43,6.95,5.62,0,9.22-3.1,9.22-7.46V399c0-3.69-1.93-6.12-11.23-9.56-11.15-4.19-16.94-8.3-16.94-17.69v-.16c0-9.64,7.72-16.43,18.61-16.43A27.28,27.28,0,0,1,358.71,362l-5.54,7.46c-4-3.27-8.46-5.53-13.16-5.53-5.28,0-8.55,2.93-8.55,6.79v.08c0,4.11,2.18,6.29,12.16,10.14,10.89,4.2,15.93,8.72,15.93,17.27v.17c0,10.31-8.05,16.94-19,16.94A30.59,30.59,0,0,1,319.31,406.85Z"/><path class="cls-1" d="M393.4,364.93H378v-9.05h40.57v9.05H403.13v49.63H393.4Z"/><path class="cls-1" d="M452.16,355.54h9.39l21.55,59H473l-4.86-13.83h-22.8l-4.86,13.83h-9.81Zm12.91,36.55-8.38-23.55-8.38,23.55Z"/><path class="cls-1" d="M499.77,385.55V385C499.77,367.2,510.83,355,526,355a25.61,25.61,0,0,1,18.44,7.29l-5.87,7.47c-3.43-3.19-7.29-5.71-12.57-5.71-9.22,0-16.18,8.39-16.18,20.88v.33c0,12.75,7,21.05,16.18,21.05,5.61,0,9.3-2.6,13-6.12l5.7,6.87c-5.11,5.28-11.06,8.3-19.2,8.3C510.5,415.4,499.77,403.5,499.77,385.55Z"/><path class="cls-1" d="M567.07,355.88h9.73v28.84l22.72-28.84h11.73L590.8,381.11l21.37,33.45H600.61l-16.52-25.73-7.29,8.8v16.93h-9.73Z"/><path class="cls-1" d="M668,355.88h21c6.37,0,11.74,1.76,15,5a13.43,13.43,0,0,1,3.94,9.89v.25c0,7.21-4.2,11-8.64,13.16,6.46,2.27,11.15,6.12,11.15,14v.34c0,10.31-8.38,16-20.87,16H668Zm30.18,16.51c0-4.94-3.6-7.79-9.89-7.79H677.55v16.26h10.14c6.37,0,10.48-2.85,10.48-8.3Zm-8.8,16.69H677.55v16.76h12.24c6.7,0,10.9-2.93,10.9-8.3v-.16C700.69,392.26,696.75,389.08,689.37,389.08Z"/><path class="cls-1" d="M750.64,355.54H760l21.54,59H771.43l-4.86-13.83h-22.8l-4.87,13.83h-9.8Zm12.91,36.55-8.38-23.55-8.39,23.55Z"/><path class="cls-1" d="M803.36,355.88h21.21c6.71,0,12.16,2,15.68,5.53,3.1,3.1,4.86,7.55,4.86,12.91v.34c0,9-5,14.67-12.16,17.18l13.84,22.72H835.55l-12.49-20.79a1.35,1.35,0,0,1-.59.09h-9.38v20.7h-9.73Zm20.2,29.26c7.55,0,11.74-4,11.74-10.15v-.17c0-6.62-4.28-10.05-11.57-10.05H813.09v20.37Z"/><path class="cls-1" d="M869.07,355.88h37v8.8H878.71v15.93h24.23v8.8H878.71v16.35h27.75v8.8H869.07Z"/><path class="cls-1" d="M965.13,355.88h10.14l15.09,27,15-27h10.23v58.68H1006v-41.5l-15.6,27.17h-.25l-15.51-27v41.33h-9.47Z"/><path class="cls-1" d="M1041.66,355.88h37v8.8H1051.3v15.93h24.22v8.8H1051.3v16.35h27.75v8.8h-37.39Z"/><path class="cls-1" d="M1114.41,364.93H1099v-9.05h40.57v9.05h-15.42v49.63h-9.73Z"/><path class="cls-1" d="M1173.17,355.54h9.39l21.54,59H1194l-4.86-13.83h-22.8l-4.87,13.83h-9.8Zm12.91,36.55-8.38-23.55-8.39,23.55Z"/><path class="cls-1" d="M1225.89,355.88h9.72v49.71h25.15v9h-34.87Z"/></svg>