<?xml version="1.0" encoding="utf-8"?>
<!-- Generator: Adobe Illustrator 21.1.0, SVG Export Plug-In . SVG Version: 6.00 Build 0)  -->
<svg version="1.1" id="Layer_1" xmlns="http://www.w3.org/2000/svg" xmlns:xlink="http://www.w3.org/1999/xlink" x="0px" y="0px"
	 viewBox="0 0 873 181" style="enable-background:new 0 0 873 181;" xml:space="preserve">
<style type="text/css">
	.st0{fill:#190F10;}
	.st1{fill:#BB2025;}
</style>
<g id="full_colour">
	<g>
		<path class="st0" d="M92,119.9c0,2.5,0,7.3,0,10c0,3-2.6,5.5-5.6,5.5c-7.2,0-52.1,0-52.1,0c-13.2,0-22.8-11-22.8-23V64.9
			c0-12.5,10.1-22.9,22.9-22.9c0,0,46.1,0,52.1,0c3.3,0,5.5,2.7,5.5,5.5c0,2.8,0,7.3,0,10c0,2.8-2.2,5.4-5.5,5.4
			c-6.8,0-44.9,0-44.9,0c-3,0-5.5,2.3-5.5,5.5c0,0,0,37.6,0,40.7c0,3,2.5,5.4,5.5,5.4c0,0,36.9,0,44.7,0C89.6,114.5,92,117,92,119.9
			z"/>
		<path class="st0" d="M175.5,41.9c0,0-54.3,0-60.4,0c-3.3,0-5.5,2.7-5.5,5.5c0,2.6,0,7.4,0,10c0,2.9,2.3,5.4,5.5,5.4
			c7.7,0,53.2,0,53.2,0c3.3,0,5.5,2.7,5.5,5.5c0,1.5,0,6.6,0,6.6h-45.3c-11.9,0-23,9.3-23,22.9v14.6c0,12.6,10.1,23,23,23h70V64.9
			C198.4,53.1,189.1,41.9,175.5,41.9z M135.4,114.5c-3.2,0-5.5-2.6-5.5-5.4c0-2,0-5.9,0-7.8c0-3,2.5-5.4,5.5-5.4h38.4v18.6
			L135.4,114.5L135.4,114.5z"/>
		<path class="st0" d="M267.4,119.5c0,3,0,7.1,0,10.3c0,3-2.3,5.5-5.6,5.5h-25.1c-13.3,0-22.9-10.3-22.9-23c0-10.8,0-99.3,0-99.3
			H239v28.9c0,0,10.4,0,18,0c3.1,0,5.4,2.5,5.4,5.5c0,3,0,6.7,0,10c0,3.1-2.5,5.4-5.5,5.4c-7.5,0-17.9,0-17.9,0v45.8
			c0,3.4,2.8,5.4,5.4,5.4c2.9,0,17.5,0,17.5,0C264.9,114,267.4,116.4,267.4,119.5z"/>
		<path class="st0" d="M347.9,41.9c0,0-54.2,0-60.4,0c-3.3,0-5.5,2.7-5.5,5.5c0,2.6,0,7.4,0,10c0,2.9,2.3,5.4,5.5,5.4
			c7.7,0,53.2,0,53.2,0c3.3,0,5.5,2.7,5.5,5.5c0,1.5,0,6.6,0,6.6h-45.3c-11.9,0-22.9,9.3-22.9,22.9v14.6c0,12.6,10.1,23,22.9,23h70
			V64.9C370.8,53.1,361.5,41.9,347.9,41.9z M307.7,114.5c-3.2,0-5.5-2.6-5.5-5.4c0-2,0-5.9,0-7.8c0-3,2.4-5.4,5.5-5.4h38.4v18.6
			L307.7,114.5L307.7,114.5z"/>
		<rect x="388" y="13.1" class="st0" width="24.5" height="122.3"/>
		<path class="st0" d="M520.9,47.1c0,2.5,0,98.9,0,98.9c0,12.2-9.5,23-23,23c0,0-54.8,0-60.7,0c-3,0-5.5-2.5-5.5-5.4
			c0-2.6,0-7.2,0-9.9c0-2.7,2.3-5.4,5.5-5.4c6.4,0,52,0,52,0c3.1,0,5.4-2.5,5.4-5.5v-7.7h-44.4c-12.7,0-23-10-23-22.9
			c0,0,0-62.4,0-65c0-2.9,2.3-5.4,5.4-5.4c6.5,0,7.3,0,13.7,0c3.4,0,5.5,2.8,5.5,5.4c0,2.3,0,61.7,0,61.7c0,2.8,2.3,5.4,5.5,5.4H495
			c0,0,0-64.8,0-67.2c0-2.8,2.2-5.4,5.4-5.4c6.4,0,7.9,0,15,0C518.8,41.7,520.9,44.5,520.9,47.1z"/>
		<path class="st0" d="M631.2,112.4c0,11.4-9,23-23,23c0,0-60.2,0-67.4,0c-3.3,0-5.4-2.8-5.4-5.5c0-2.5,0-7.2,0-10
			c0-2.7,2.2-5.4,5.4-5.4c6,0,61.9,0,61.9,0c3.1,0,5.5-2.5,5.5-5.4c0-1.9,0-5.7,0-7.5c0-3.1-2.5-5.4-5.5-5.4h-44.4
			c-13.2,0-22.9-10.8-22.9-23v-8.4c0-11.8,9.4-22.9,22.9-22.9c0,0,61.5,0,67.4,0c3.3,0,5.5,2.7,5.5,5.4c0,2.6,0,7.4,0,10
			c0,2.8-2.2,5.5-5.5,5.5c-5.4,0-60.8,0-60.8,0c-3.1,0-5.5,2.4-5.5,5.5c0,0.2,0,1.1,0,1.6c0,3,2.4,5.4,5.5,5.4h43.3
			c13.6,0,23,11,23,23L631.2,112.4L631.2,112.4z"/>
		<path class="st0" d="M715.6,119.5c0,3,0,7.1,0,10.3c0,3-2.3,5.5-5.6,5.5h-41.3c-13.3,0-23-10.3-23-23c0-10.8,0-99.3,0-99.3h25.2
			v28.9c0,0,10.4,0,18,0c3.1,0,5.4,2.5,5.4,5.5c0,3,0,6.7,0,10c0,3.1-2.4,5.4-5.5,5.4c-7.5,0-17.9,0-17.9,0v45.8
			c0,3.4,2.8,5.4,5.5,5.4c2.9,0,33.7,0,33.7,0C713.1,114,715.6,116.4,715.6,119.5z"/>
	</g>
	<g>
		<path class="st1" d="M750.2,134.5c3.1-13.1,6.7-24,11-33.8c0,0,0,0-0.1,0c-0.3-0.1-3.7-1.3-4-1.4c-1.1-0.5-2.6-3.2-1.2-8.1
			c2.6-8.7,6.5-18.6,10-25.7c-0.1,0-3.1-1-4.7-1.6c-2.5-1-3.7-5.6-2.6-8.8c2.1-6.4,12-27.6,21-42h-27c-6.9,0-12.6,5.7-12.6,12.6
			v96.7c0,6,4.4,11.2,10.1,12.4C750.2,134.6,750.2,134.6,750.2,134.5z"/>
		<path class="st1" d="M823.9,13.1c-0.2,0.2-0.5,0.4-0.7,0.7c-6,5.4-20.2,20.7-20.4,20.8c0.2,0.1,6.4,2,6.7,2.2
			c4.8,1.7,4.1,5.4,1.2,8.5c-17.2,18.6-23.7,27.1-23.8,27.2c0.2,0,6.2,2.1,6.5,2.2c2.1,0.8,3.1,3-0.6,5.7
			c-4.2,3.2-8.1,6.3-13.4,11.2c-9.5,8.8-22.3,22.7-28.9,42.8c-0.1,0.2-0.1,0.3-0.2,0.4c0.8,0.1,1.5,0.2,2.3,0.2h96.7
			c6.9,0,12.6-5.7,12.6-12.6V13.1H823.9z"/>
	</g>
</g>
</svg>
