<?xml version="1.0" encoding="utf-8"?>
<!-- Generator: Adobe Illustrator 21.1.0, SVG Export Plug-In . SVG Version: 6.00 Build 0)  -->
<svg version="1.1" id="Layer_1" xmlns="http://www.w3.org/2000/svg" xmlns:xlink="http://www.w3.org/1999/xlink" x="0px" y="0px"
	 viewBox="0 0 216 216" style="enable-background:new 0 0 216 216;" xml:space="preserve">
<style type="text/css">
	.st0{fill:#EC1944;}
	.st1{fill:#FFFFFF;}
</style>
<path class="st0" d="M108,29c-32.3,0-61.6,19.9-73.4,49.8H11.5H8.1v3.4c0,9.8,7.1,17.9,16.4,19.5v0.3c0,4.2,1.7,8.1,4.6,11
	c2.6,41.6,36.9,74,78.8,74s76.2-32.4,78.8-74c3-2.9,4.6-6.8,4.6-11v-0.3c9.3-1.6,16.4-9.8,16.4-19.5v-3.4h-3.4h-23.1
	C169.6,48.9,140.3,29,108,29L108,29z"/>
<g>
	<path class="st1" d="M59.8,74.5l-0.2-0.2c-2.8-2.4-3.2-5.9-1.1-8.4c2.1-2.5,5.6-2.7,8.4-0.3l0.2,0.2c2.8,2.4,3.2,5.9,1.1,8.4
		C66.1,76.8,62.6,76.9,59.8,74.5z M65,68.3L65,68.3c-1.7-1.5-3.4-1.5-4.3-0.4s-0.6,2.7,1,4.1l0.1,0.1c1.6,1.4,3.3,1.4,4.2,0.3
		C67,71.2,66.6,69.7,65,68.3z"/>
	<path class="st1" d="M65.7,58.9l3.5-2.6c2.3-1.7,4.7-1.7,6.4,0.5v0.1c1.8,2.4,0.9,4.8-1.2,6.4l-1,0.7l2.1,2.8L73,68.7L65.7,58.9z
		 M72.7,61.2c0.9-0.7,1-1.6,0.4-2.4l0,0c-0.7-0.9-1.5-1-2.5-0.3l-0.9,0.7l2.1,2.7L72.7,61.2z"/>
	<path class="st1" d="M76.2,51.5l7.6-3.7l1.2,2.5l-4.8,2.3l0.9,1.8l4.3-2.1l1.1,2.4l-4.3,2.1l0.9,1.9l4.9-2.3l1.2,2.5l-7.7,3.7
		L76.2,51.5z"/>
	<path class="st1" d="M88.8,46l2.9-0.7l5.4,5.1l-1.4-6l3-0.7l2.7,12l-2.7,0.6L93.1,51l1.4,6.3l-3,0.7L88.8,46z"/>
	<path class="st1" d="M102.7,54l1.7-2.3c1,0.8,2.1,1.4,3.3,1.4c0.8,0,1.3-0.4,1.3-0.9l0,0c0-0.5-0.4-0.8-1.8-1.3
		c-2.3-0.8-4-1.6-4-3.8V47c0-2.2,1.7-3.8,4.4-3.8c1.6,0,3.1,0.4,4.4,1.5l-1.6,2.4c-0.8-0.6-1.9-1.1-2.9-1.1c-0.7,0-1.1,0.4-1.1,0.8
		l0,0c0,0.5,0.4,0.8,2,1.4c2.3,0.7,3.8,1.7,3.8,3.8l0,0c0,2.4-1.8,3.9-4.4,3.9C105.9,55.7,104.2,55.2,102.7,54z"/>
	<path class="st1" d="M117.8,46.9l-3-0.6l0.5-2.8l9.1,1.7l-0.5,2.8l-3-0.6l-1.7,9.3l-3.1-0.6L117.8,46.9z"/>
	<path class="st1" d="M130.8,47.3l3,1.2l-0.6,13.1l-3.1-1.2l0.2-2.3l-3.6-1.4l-1.5,1.8l-3-1.2L130.8,47.3z M130.5,55.4l0.3-3.8
		l-2.4,2.9L130.5,55.4z"/>
	<path class="st1" d="M136.8,56.9l0.1-0.2c2.1-3.1,5.6-3.8,8.2-2c1.6,1.1,2.3,2.4,2.4,4l-2.9,0.6c-0.1-0.8-0.3-1.6-1.1-2.2
		c-1.2-0.8-2.8-0.4-4,1.4v0.1c-1.2,1.8-1,3.4,0.2,4.2c0.9,0.6,1.7,0.5,2.5,0.3l0.5,2.8c-1.5,0.5-3.1,0.4-4.8-0.7
		C135.3,63.4,134.7,60.1,136.8,56.9z"/>
	<path class="st1" d="M152,60.3l2.2,2.3l-3.5,3.3l5.9-0.9l2.5,2.6l-6.4,0.8l-2.5,7.7l-2.5-2.7l1.6-4.9l-1.6,0.2l-2.3,2.2l-2.2-2.3
		L152,60.3z"/>
</g>
<g>
	<path class="st1" d="M56.9,128.6l1,2.3c0.7,1.5,0.4,2.9-1.1,3.5l0,0c-1.5,0.7-2.8-0.1-3.5-1.5l-0.3-0.6l-1.9,0.9l-0.8-1.6
		L56.9,128.6z M54.7,132.3c0.3,0.6,0.8,0.8,1.3,0.5l0,0c0.6-0.3,0.7-0.7,0.5-1.3l-0.3-0.6l-1.8,0.8L54.7,132.3z"/>
	<path class="st1" d="M56.1,136.8l3.6-2.3l1,1.6l-3.7,2.3c-0.7,0.4-0.8,1-0.5,1.5s0.9,0.7,1.6,0.2l3.7-2.3l1,1.6l-3.6,2.2
		c-1.7,1.1-3.1,0.6-4-0.9C54.2,139.3,54.4,137.9,56.1,136.8z"/>
	<path class="st1" d="M63.7,140.7l1.9,2.3c0.5,0.7,0.8,1.3,0.7,1.9c0,0.4-0.2,0.8-0.6,1.1l0,0c-0.6,0.5-1.3,0.5-1.9,0.2
		c0.3,0.8,0.2,1.5-0.5,2.1l0,0c-0.9,0.8-2.1,0.5-3.2-0.8l-1.9-2.3L63.7,140.7z M62.2,145.5l-0.7-0.8l-1.1,0.9l0.7,0.8
		c0.4,0.4,0.8,0.5,1.1,0.3l0,0C62.6,146.4,62.6,146,62.2,145.5z M64.2,144.8c0.3-0.3,0.3-0.6,0-1.1l-0.6-0.7l-1,0.8l0.6,0.7
		C63.5,145,63.9,145.1,64.2,144.8L64.2,144.8z"/>
	<path class="st1" d="M68.1,146l1.3,1.3l-3.8,3.9l2,1.9l-1.1,1.2l-3.3-3.2L68.1,146z"/>
	<path class="st1" d="M72.6,150.1l1.4,1.1l-4.5,5.5l-1.4-1.1L72.6,150.1z"/>
	<path class="st1" d="M73.1,155.2l0.1-0.1c1.2-1.8,3.2-2.2,4.7-1.2c0.9,0.6,1.3,1.4,1.4,2.3l-1.7,0.4c-0.1-0.5-0.2-0.9-0.7-1.2
		c-0.7-0.5-1.6-0.2-2.3,0.8l0,0c-0.7,1-0.6,2,0.1,2.4c0.5,0.3,1,0.3,1.5,0.1l0.3,1.6c-0.9,0.3-1.8,0.2-2.8-0.4
		C72.3,158.9,71.9,157,73.1,155.2z"/>
	<path class="st1" d="M82.3,160.7v-0.1c0.9-2,2.7-2.8,4.4-2c1,0.4,1.5,1.1,1.8,2l-1.6,0.7c-0.1-0.5-0.4-0.9-0.9-1.1
		c-0.8-0.3-1.6,0.1-2.1,1.2l0,0c-0.5,1.2-0.2,2.1,0.6,2.4c0.6,0.2,1,0.1,1.5-0.1l0.6,1.5c-0.8,0.4-1.7,0.6-2.8,0.1
		C82.2,164.6,81.4,162.8,82.3,160.7z"/>
	<path class="st1" d="M90.2,160.1l1.7,0.5l-1.5,5.2l2.7,0.8l-0.5,1.6l-4.4-1.3L90.2,160.1z"/>
	<path class="st1" d="M94.8,165.2v-0.1c0.4-2.1,2-3.3,3.8-3c1.9,0.3,3,2,2.6,4.1v0.1c-0.4,2.1-2,3.3-3.8,3S94.5,167.3,94.8,165.2z
		 M99.4,166v-0.1c0.2-1.2-0.2-2-1.1-2.2s-1.5,0.5-1.7,1.7v0.1c-0.2,1.2,0.2,2,1.1,2.2C98.6,167.8,99.2,167.2,99.4,166z"/>
	<path class="st1" d="M102.9,167.1l0.1-4.3l1.8,0.1l-0.2,4.3c0,0.8,0.4,1.3,1,1.3s1.1-0.3,1.1-1.2l0.2-4.3l1.8,0.1l-0.1,4.2
		c-0.1,2.1-1.3,2.9-3,2.9S102.9,169.1,102.9,167.1z"/>
	<path class="st1" d="M110.4,163l2.3-0.2c2.3-0.2,3.7,1,3.9,3.1v0.1c0.2,2.1-1,3.6-3.2,3.8l-2.3,0.2L110.4,163z M112.4,164.4
		l0.4,3.8l0.5-0.1c1-0.1,1.6-0.8,1.5-2V166c-0.1-1.3-0.9-1.8-1.9-1.7L112.4,164.4z"/>
	<path class="st1" d="M120.9,161.5l2.4-0.7c1.6-0.5,2.9,0.1,3.3,1.6l0,0c0.5,1.6-0.5,2.8-2,3.2l-0.7,0.2l0.6,2l-1.7,0.5L120.9,161.5
		z M124.2,164.2c0.6-0.2,0.9-0.6,0.7-1.2l0,0c-0.2-0.6-0.6-0.8-1.3-0.7l-0.6,0.2l0.6,1.9L124.2,164.2z"/>
	<path class="st1" d="M128.5,158.9l1.7-0.7l5.1,5.6l-1.8,0.7l-0.9-1l-2,0.9l0.1,1.3l-1.7,0.7L128.5,158.9z M131.7,162.4l-1.4-1.7
		l0.2,2.2L131.7,162.4z"/>
	<path class="st1" d="M136.2,162.2l0.2-1.6c0.7,0.1,1.5,0.1,2.1-0.3c0.4-0.2,0.5-0.6,0.4-0.8l0,0c-0.1-0.2-0.4-0.3-1.3-0.1
		c-1.4,0.3-2.4,0.3-3.1-0.8l0,0c-0.6-1.1-0.3-2.4,1.1-3.2c0.8-0.5,1.7-0.7,2.6-0.5l-0.1,1.6c-0.6-0.1-1.3,0-1.7,0.3
		c-0.4,0.2-0.5,0.5-0.3,0.7l0,0c0.2,0.3,0.4,0.3,1.4,0.1c1.4-0.3,2.4-0.3,3,0.8l0,0c0.7,1.2,0.2,2.5-1.1,3.2
		C138.3,162.2,137.3,162.4,136.2,162.2z"/>
	<path class="st1" d="M142.2,158.7v-1.6c0.7,0,1.5-0.1,2-0.5c0.4-0.3,0.5-0.6,0.3-0.9l0,0c-0.2-0.2-0.4-0.2-1.3,0
		c-1.3,0.4-2.4,0.6-3.2-0.4l0,0c-0.8-1-0.5-2.3,0.7-3.3c0.8-0.6,1.6-0.9,2.5-0.8l0.1,1.6c-0.6,0-1.2,0.1-1.7,0.5
		c-0.3,0.2-0.4,0.5-0.2,0.8l0,0c0.2,0.3,0.5,0.2,1.4,0c1.3-0.5,2.3-0.5,3.1,0.4l0,0c0.8,1.1,0.5,2.4-0.7,3.3
		C144.3,158.4,143.3,158.7,142.2,158.7z"/>
	<path class="st1" d="M144.1,149.5l1.8-1.7c1.2-1.2,2.6-1.3,3.7-0.1l0,0c1.2,1.2,0.8,2.7-0.3,3.7l-0.5,0.5l1.4,1.5l-1.3,1.2
		L144.1,149.5z M148.3,150.4c0.5-0.4,0.5-1,0.1-1.4l0,0c-0.4-0.5-0.9-0.5-1.4,0l-0.5,0.4l1.4,1.4L148.3,150.4z"/>
	<path class="st1" d="M151.4,147.4l-0.1-0.1c-1.6-1.3-1.9-3.3-0.7-4.8s3.2-1.6,4.9-0.3l0.1,0.1c1.6,1.3,1.9,3.3,0.7,4.8
		C155.1,148.6,153.1,148.7,151.4,147.4z M154.4,143.7L154.4,143.7c-1-0.8-2-0.9-2.5-0.2s-0.3,1.6,0.6,2.3l0.1,0.1
		c1,0.8,1.9,0.8,2.4,0.1C155.5,145.4,155.3,144.5,154.4,143.7z"/>
	<path class="st1" d="M153.5,138.8l1.4-2.4c0.5-0.8,1.1-1.3,1.7-1.4c0.5-0.1,1.1,0,1.7,0.3l0,0c0.9,0.5,1.2,1.3,1.1,2.2l2.9,0.1
		l-1.1,1.8l-2.5-0.1l-0.3,0.6l1.9,1.1l-0.9,1.5L153.5,138.8z M157.8,138.3c0.3-0.5,0.2-1-0.3-1.3l0,0c-0.5-0.3-1-0.1-1.3,0.4
		l-0.5,0.8l1.6,1L157.8,138.3z"/>
	<path class="st1" d="M159.1,132.2l-0.7,1.6l-1.5-0.7l2.2-4.8l1.5,0.7l-0.7,1.6l5,2.3l-0.8,1.7L159.1,132.2z"/>
</g>
<g>
	<path class="st1" d="M41.9,78.8c11.2-25.3,36.6-43,66.1-43s54.9,17.7,66.1,43.1h3.7c-11.4-27.3-38.4-46.5-69.8-46.5
		S49.7,51.6,38.2,78.8H41.9z"/>
	<path class="st1" d="M179.6,116.9c0,0.1,0,0.3-0.1,0.4c0,0.9-0.1,1.8-0.4,2.6c-5.7,34.2-35.4,60.3-71.2,60.3s-65.5-26.1-71.2-60.3
		c-0.2-0.8-0.4-1.7-0.4-2.6c0-0.1,0-0.3-0.1-0.4c-1.3-0.3-2.5-0.7-3.6-1.3c3.8,38.1,36.1,68,75.2,68s71.4-29.9,75.2-68
		C182.1,116.2,180.9,116.6,179.6,116.9z"/>
</g>
<path class="st1" d="M144.2,82.2c-8.1-11.3-21.3-18.7-36.2-18.7s-28.1,7.4-36.2,18.7H11.5c0,9.1,7.3,16.4,16.4,16.4h36.6
	c-0.2,1.1-0.4,2.3-0.6,3.4H27.8c0,6.6,5.3,11.9,11.9,11.9H64c0.2,1.1,0.3,2.3,0.6,3.4H39.8c0,3.3,2.7,5.9,5.9,5.9l0,0h20.5
	c6.2,17,22.6,29.2,41.7,29.2s35.5-12.1,41.7-29.2h20.5l0,0c3.3,0,5.9-2.7,5.9-5.9h-24.7c0.2-1.1,0.4-2.2,0.6-3.4h24.2
	c6.6,0,11.9-5.3,11.9-11.9h-36.1c-0.2-1.1-0.3-2.3-0.6-3.4h36.6c9.1,0,16.4-7.3,16.4-16.4L144.2,82.2z M81.7,102.1h11.9V114H81.7
	V102.1z M134.3,128.9c0,2.7-2.2,4.9-4.9,4.9H86.6c-2.7,0-4.9-2.2-4.9-4.9v-11.5h11.9v1.9c0,1.5,1.2,2.6,2.6,2.6h23.6
	c1.5,0,2.6-1.2,2.6-2.6v-1.9h11.9L134.3,128.9L134.3,128.9z M134.3,113.9h-11.9V102h11.9V113.9z M134.3,98.7h-11.9v-1.9
	c0-1.5-1.2-2.6-2.6-2.6H96.2c-1.5,0-2.6,1.2-2.6,2.6v1.9H81.7V87.1c0-2.7,2.2-4.9,4.9-4.9h42.9c2.7,0,4.9,2.2,4.9,4.9L134.3,98.7
	L134.3,98.7z"/>
</svg>
