<?xml version="1.0" encoding="utf-8"?>
<!-- Generator: Adobe Illustrator 21.1.0, SVG Export Plug-In . SVG Version: 6.00 Build 0)  -->
<svg version="1.1" id="Layer_1" xmlns="http://www.w3.org/2000/svg" xmlns:xlink="http://www.w3.org/1999/xlink" x="0px" y="0px"
	 viewBox="0 0 80 80" style="enable-background:new 0 0 80 80;" xml:space="preserve">
<style type="text/css">
	.st0{fill:#2FC5F4;fill-opacity:0.3;}
	.st1{fill:#0B4A7C;}
	.st2{fill:#FFFFFF;}
</style>
<g>
	<g>
		<path class="st0" d="M24.4,72c0-26.8,21.7-48.6,48.6-48.6"/>
		<path class="st1" d="M25.4,72h-2c0-27.3,22.2-49.6,49.6-49.6v2C46.8,24.4,25.4,45.8,25.4,72z"/>
	</g>
	<polygon class="st1" points="48.6,44.6 24.5,32.5 50.1,17.5 51.2,19.2 28.7,32.3 49.5,42.8 	"/>
	<g>
		<path class="st2" d="M25.5,25.7c-0.9,0-1.7,0.2-2.5,0.5c-1.1-2.7-3.8-4.6-6.9-4.6c-4,0-7.2,3.1-7.5,7c-0.5-0.1-0.9-0.2-1.4-0.2
			c-3,0-5.3,2.3-5.3,5.3S4.3,39,7.2,39l18.3,0.1c0,0-0.5,0,0,0c3.7,0,6.7-3,6.7-6.7C32.2,28.7,29.2,25.7,25.5,25.7z"/>
		<path class="st1" d="M25.5,40.1h-0.2L7.2,40c-3.5,0-6.3-2.8-6.3-6.3c0-3.7,3.2-6.6,6.9-6.2c0.8-3.9,4.3-6.8,8.3-6.8
			c3.1,0,5.9,1.7,7.4,4.3c0.6-0.2,1.3-0.3,2-0.3c4.3,0,7.7,3.5,7.7,7.7S29.8,40.1,25.5,40.1z M7.2,29.4c-2.4,0-4.3,1.9-4.3,4.3
			S4.8,38,7.2,38l18.3,0.1c3.1,0,5.7-2.6,5.7-5.7s-2.6-5.7-5.7-5.7c-0.7,0-1.5,0.1-2.1,0.4l-0.9,0.4l-0.4-0.9c-1-2.4-3.4-4-6-4
			c-3.4,0-6.2,2.7-6.5,6l-0.1,1.2l-1.2-0.3C8,29.5,7.6,29.4,7.2,29.4z"/>
	</g>
	<g>
		<path class="st2" d="M54,12c-0.6,0-1.2,0.1-1.7,0.3c-0.8-1.8-2.6-3.1-4.6-3.1c-2.7,0-4.8,2.1-5,4.7c-0.3-0.1-0.6-0.1-1-0.1
			c-2,0-3.6,1.6-3.6,3.6s1.6,3.6,3.6,3.6H54c0,0-0.3,0,0,0c2.5,0,4.5-2,4.5-4.5S56.5,12,54,12z"/>
		<path class="st1" d="M54,21.5L54,21.5l-12.3,0.1c-2.5,0-4.6-1.9-4.6-4.4c0-2.6,2.1-4.6,4.7-4.5c0.7-2.6,3.1-4.5,5.9-4.5
			c2.1,0,4.1,1.1,5.1,2.9C53.2,11,53.6,11,54,11c3,0,5.5,2.2,5.5,5.3C59.5,19.3,57.1,21.5,54,21.5z M41.7,14.8
			c-1.5,0-2.6,1.1-2.6,2.6s1.1,2.6,2.6,2.6H54c1.9,0,3.5-1.6,3.5-3.5S55.9,13,54,13c-0.5,0-0.9,0.1-1.3,0.3l-0.9,0.4l-0.4-0.9
			c-0.6-1.5-2.1-2.5-3.7-2.5c-2.1,0-3.9,1.6-4,3.8l-0.1,1.2L42.4,15C42.2,14.8,41.9,14.8,41.7,14.8z"/>
	</g>
	<g>
		<path class="st2" d="M67.8,46.8c-1.2,0-2.4,0.2-3.4,0.7c-1.6-3.7-5.2-6.3-9.5-6.3c-5.4,0-9.9,4.2-10.3,9.6c-0.6-0.2-1.3-0.3-2-0.3
			c-4.1,0-7.3,3.2-7.3,7.3s3.3,7.3,7.3,7.3l25.2,0.2c0,0-0.6,0,0,0C73,65.2,77,61,77,56C77,50.9,72.9,46.8,67.8,46.8z"/>
		<path class="st1" d="M67.9,66.2h-0.3L42.7,66c-4.6,0-8.3-3.7-8.3-8.3s3.7-8.3,8.3-8.3c0.4,0,0.7,0,1.1,0.1
			c0.9-5.3,5.6-9.4,11.1-9.4c4.2,0,8.1,2.3,10,6c0.9-0.3,1.9-0.4,2.9-0.4C73.5,45.8,78,50.3,78,56S73.5,66.2,67.9,66.2z M42.7,51.5
			c-3.6,0-6.3,2.7-6.3,6.3c0,3.5,2.8,6.3,6.3,6.3l25.2,0.2c4.5,0,8.2-3.7,8.2-8.2s-3.7-8.2-8.2-8.2c-1.1,0-2.1,0.2-3.1,0.6l-0.9,0.4
			L63.5,48c-1.5-3.4-4.8-5.7-8.6-5.7c-4.9,0-8.9,3.8-9.3,8.6L45.5,52l-1.2-0.3C43.8,51.5,43.2,51.5,42.7,51.5z"/>
	</g>
</g>
</svg>
