<?xml version="1.0" encoding="utf-8"?>
<!-- Generator: Adobe Illustrator 21.1.0, SVG Export Plug-In . SVG Version: 6.00 Build 0)  -->
<svg version="1.1" id="Layer_1" xmlns="http://www.w3.org/2000/svg" xmlns:xlink="http://www.w3.org/1999/xlink" x="0px" y="0px"
	 viewBox="0 0 80 80" style="enable-background:new 0 0 80 80;" xml:space="preserve">
<style type="text/css">
	.st0{fill:#FFFFFF;}
	.st1{fill:#0B4A7C;}
	.st2{fill:#2FC5F4;}
	.st3{fill:none;}
</style>
<g>
	<g>
		<g>
			<rect x="13" y="11.1" class="st0" width="56.6" height="36.9"/>
			<path class="st1" d="M70.6,49H12V10.1h58.6V49z M14,47h54.6V12.1H14V47z"/>
		</g>
		<g>
			<polygon class="st2" points="55.2,64.5 40.5,64.5 40.5,52.5 37.5,52.5 37.5,64.5 26.2,64.5 23.8,72.5 27.4,72.5 29.8,67.5 
				37.5,67.5 37.5,72.5 40.5,72.5 40.5,67.5 51.5,67.5 53.9,72.5 57.6,72.5 			"/>
			<path class="st1" d="M58.2,72.5h-4.6l-2.4-5h-9.7v5h-4v-5h-7.4l-2.4,5h-4.6l2.7-9h11.7v-12h4v12h14L58.2,72.5z M54.3,71.5h2.6
				l-2.1-7H40.5v-12h-2v12H26.6l-2.1,7h2.6l2.4-5h9v5h2v-5h11.3L54.3,71.5z"/>
		</g>
		<g>
			<rect x="35.4" y="17.4" class="st0" width="11.8" height="4.1"/>
			<path class="st1" d="M47.7,22H34.9v-5.1h12.8V22z M35.9,21h10.8v-3.1H35.9V21z"/>
		</g>
		<g>
			<rect x="18.7" y="33.7" class="st0" width="11.8" height="4.1"/>
			<path class="st1" d="M31,38.3H18.2v-5.1H31V38.3z M19.2,37.3H30v-3.1H19.2V37.3z"/>
		</g>
		<g>
			<rect x="35.4" y="33.7" class="st0" width="11.8" height="4.1"/>
			<path class="st1" d="M47.7,38.3H34.9v-5.1h12.8V38.3z M35.9,37.3h10.8v-3.1H35.9V37.3z"/>
		</g>
		<g>
			<rect x="52" y="33.7" class="st0" width="11.8" height="4.1"/>
			<path class="st1" d="M64.3,38.3H51.5v-5.1h12.8V38.3z M52.5,37.3h10.8v-3.1H52.5V37.3z"/>
		</g>
		<g>
			<line class="st3" x1="40.5" y1="23.5" x2="40.5" y2="32.5"/>
			<rect x="40.5" y="23.5" class="st1" width="1" height="9"/>
		</g>
		<polygon class="st1" points="57.5,32.5 56.5,32.5 56.5,29.5 25.5,29.5 25.5,32.5 24.5,32.5 24.5,28.5 57.5,28.5 		"/>
		<g>
			<rect x="13" y="46.8" class="st2" width="56.6" height="3.7"/>
			<path class="st1" d="M70.1,50.9H12.5v-4.7h57.6V50.9z M13.5,49.9h55.6v-2.7H13.5V49.9z"/>
		</g>
	</g>
	<rect x="60.8" y="67.3" class="st1" width="18.8" height="1"/>
	<rect x="2.4" y="67.3" class="st1" width="18.8" height="1"/>
</g>
</svg>
