<?xml version="1.0" encoding="utf-8"?>
<!-- Generator: Adobe Illustrator 19.1.0, SVG Export Plug-In . SVG Version: 6.00 Build 0)  -->
<svg version="1.1" xmlns="http://www.w3.org/2000/svg" xmlns:xlink="http://www.w3.org/1999/xlink" x="0px" y="0px"
	 viewBox="0 0 936 411" enable-background="new 0 0 936 411" xml:space="preserve">
<g id="Layer_1" display="none">
	<g id="H4nPZB.tif" display="inline">
		
			<image overflow="visible" width="1912" height="884" id="Layer_0_1_" xlink:href="918E4667ECEB603B.png"  transform="matrix(0.5 0 0 0.5 -8.4996 -4)">
		</image>
	</g>
</g>
<g id="Layer_3" display="none">
	<g display="inline">
		<rect x="51.944" y="-135.177" fill="#2A4F68" width="69.524" height="69.524"/>
		<rect x="123.58" y="-135.177" fill="#0E1823" width="69.524" height="69.524"/>
		<rect x="195.216" y="-135.177" fill="#2F739C" width="69.524" height="69.524"/>
		<rect x="266.852" y="-135.177" fill="#DA432E" width="69.524" height="69.524"/>
		<rect x="338.488" y="-135.177" fill="#A41E22" width="69.524" height="69.524"/>
		<rect x="410.124" y="-135.177" fill="#EDF1F6" width="69.523" height="69.524"/>
		<rect x="481.76" y="-135.177" fill="#D3DBE5" width="69.524" height="69.524"/>
		<rect x="553.395" y="-135.177" fill="#29A9E1" width="69.524" height="69.524"/>
		<rect x="625.031" y="-135.177" fill="#69C7C2" width="69.524" height="69.524"/>
		<rect x="696.667" y="-135.177" fill="#EA604C" width="69.524" height="69.524"/>
	</g>
</g>
<g id="Layer_2">
	<rect x="419" y="56" fill="#29A9E1" stroke="#2A4F68" stroke-miterlimit="10" width="254" height="46"/>
	<text transform="matrix(1 0 0 1 509.375 83.0229)" fill="#FFFFFF" font-family="'OpenSans-Semibold'" font-size="16px">Keynotes</text>
	<rect x="292" y="10" fill="#FFFFFF" stroke="#2A4F68" stroke-miterlimit="10" width="127" height="46"/>
	<rect x="292" y="194" fill="#FFFFFF" stroke="#2A4F68" stroke-miterlimit="10" width="127" height="46"/>
	<rect x="419" y="10" fill="#FFFFFF" stroke="#2A4F68" stroke-miterlimit="10" width="127" height="46"/>
	<rect x="546" y="10" fill="#FFFFFF" stroke="#2A4F68" stroke-miterlimit="10" width="127" height="46"/>
	<rect x="673" y="10" fill="#FFFFFF" stroke="#2A4F68" stroke-miterlimit="10" width="127" height="46"/>
	<rect x="800" y="10" fill="#FFFFFF" stroke="#2A4F68" stroke-miterlimit="10" width="127" height="46"/>
	<rect x="546" y="310" fill="#FFFFFF" stroke="#2A4F68" stroke-miterlimit="10" width="127" height="46"/>
	<rect x="419" y="310" fill="#FFFFFF" stroke="#2A4F68" stroke-miterlimit="10" width="127" height="46"/>
	<rect x="165" y="310" fill="#FFFFFF" stroke="#2A4F68" stroke-miterlimit="10" width="127" height="46"/>
	<rect x="673" y="310" fill="#FFFFFF" stroke="#2A4F68" stroke-miterlimit="10" width="127" height="46"/>
	<rect x="800" y="310" fill="#FFFFFF" stroke="#2A4F68" stroke-miterlimit="10" width="127" height="46"/>
	<rect x="546" y="194" fill="#FFFFFF" stroke="#2A4F68" stroke-miterlimit="10" width="127" height="46"/>
	<rect x="673" y="194" fill="#FFFFFF" stroke="#2A4F68" stroke-miterlimit="10" width="127" height="46"/>
	<rect x="800" y="194" fill="#FFFFFF" stroke="#2A4F68" stroke-miterlimit="10" width="127" height="46"/>
	<rect x="800" y="148" fill="#FFFFFF" stroke="#2A4F68" stroke-miterlimit="10" width="127" height="46"/>
	<rect x="292" y="56" fill="#FFFFFF" stroke="#2A4F68" stroke-miterlimit="10" width="127" height="46"/>
	<rect x="292" y="102" fill="#FFFFFF" stroke="#2A4F68" stroke-miterlimit="10" width="127" height="46"/>
	<rect x="292" y="148" fill="#FFFFFF" stroke="#2A4F68" stroke-miterlimit="10" width="127" height="46"/>
	<rect x="673" y="56" fill="#FFFFFF" stroke="#2A4F68" stroke-miterlimit="10" width="127" height="46"/>
	<rect x="800" y="56" fill="#FFFFFF" stroke="#2A4F68" stroke-miterlimit="10" width="127" height="46"/>
	<rect x="800" y="102" fill="#FFFFFF" stroke="#2A4F68" stroke-miterlimit="10" width="127" height="46"/>
	<text transform="matrix(1 0 0 1 324.9967 37.1151)" fill="#2A4F68" font-family="'OpenSans'" font-size="14px">MONDAY</text>
	<rect x="165" y="10" fill="#FFFFFF" stroke="#2A4F68" stroke-miterlimit="10" width="127" height="46"/>
	<rect x="165" y="56" fill="#FFFFFF" stroke="#2A4F68" stroke-miterlimit="10" width="127" height="46"/>
	
		<rect x="11.496" y="10" fill="#0E1823" stroke="#2A4F68" stroke-width="1.0739" stroke-miterlimit="10" width="153.504" height="346"/>
	<rect x="165" y="102" fill="#FFFFFF" stroke="#2A4F68" stroke-miterlimit="10" width="127" height="46"/>
	<rect x="165" y="148" fill="#FFFFFF" stroke="#2A4F68" stroke-miterlimit="10" width="127" height="46"/>
	<text transform="matrix(1 0 0 1 200.8302 37.1151)" fill="#2A4F68" font-family="'OpenSans'" font-size="14px">SUNDAY</text>
	<text transform="matrix(1 0 0 1 452.3419 37.1151)" fill="#2A4F68" font-family="'OpenSans'" font-size="14px">TUESDAY</text>
	<text transform="matrix(1 0 0 1 567.5582 37.1151)" fill="#2A4F68" font-family="'OpenSans'" font-size="14px">WEDNESDAY</text>
	<text transform="matrix(1 0 0 1 700.7443 37.1151)" fill="#2A4F68" font-family="'OpenSans'" font-size="14px">THURSDAY</text>
	<text transform="matrix(1 0 0 1 840.1549 37.1151)" fill="#2A4F68" font-family="'OpenSans'" font-size="14px">FRIDAY</text>
	<rect x="419" y="102" fill="#29A9E1" stroke="#2A4F68" stroke-width="0.866" stroke-miterlimit="10" width="381" height="46"/>
	<text transform="matrix(1 0 0 1 523.2656 129.0229)" fill="#FFFFFF" font-family="'OpenSans-Semibold'" font-size="16px">Marketplace Expo Hall</text>
	<rect x="419" y="194" fill="#DA432E" stroke="#2A4F68" stroke-miterlimit="10" width="127" height="46"/>
	<text transform="matrix(1 0 0 1 435.0977 221.0229)" fill="#FFFFFF" font-family="'OpenSans-Semibold'" font-size="16px">Ops Summit</text>
	<rect x="292" y="310" fill="#29A9E1" stroke="#2A4F68" stroke-miterlimit="10" width="127" height="46"/>
	<rect x="419" y="148" fill="#DA432E" stroke="#2A4F68" stroke-width="0.866" stroke-miterlimit="10" width="381" height="46"/>
	<rect x="165" y="194" fill="#FFFFFF" stroke="#2A4F68" stroke-miterlimit="10" width="127" height="46"/>
	<rect x="165" y="286" fill="#0E1823" stroke="#2A4F68" stroke-miterlimit="10" width="762" height="23.383"/>
	<g>
		<g>
			<path fill="#797167" d="M125.106,180.341c0.609,0,1.147-0.012,1.61-0.048v0.951l-0.964,0.061v0.025
				c0.476,0.281,1.098,0.902,1.098,1.951c0,0.928-0.512,2.037-2.585,2.037h-3.453v-1.072h3.27c1.122,0,1.877-0.342,1.877-1.317
				c0-0.72-0.499-1.22-0.976-1.416c-0.159-0.06-0.353-0.097-0.549-0.097h-3.623v-1.073H125.106z"/>
			<path fill="#797167" d="M125.618,178.707c0.208-0.318,0.427-0.879,0.427-1.415c0-0.781-0.39-1.147-0.877-1.147
				c-0.513,0-0.793,0.305-1.086,1.098c-0.378,1.061-0.964,1.562-1.671,1.562c-0.952,0-1.732-0.768-1.732-2.037
				c0-0.597,0.171-1.123,0.365-1.451l0.782,0.269c-0.146,0.231-0.342,0.657-0.342,1.206c0,0.635,0.365,0.989,0.805,0.989
				c0.489,0,0.708-0.354,0.999-1.123c0.391-1.024,0.904-1.549,1.782-1.549c1.036,0,1.768,0.806,1.768,2.208
				c0,0.647-0.159,1.244-0.403,1.659L125.618,178.707z"/>
			<path fill="#797167" d="M123.959,173.134c1.452-0.025,2.049-0.952,2.049-2.025c0-0.768-0.133-1.232-0.304-1.634l0.767-0.183
				c0.172,0.378,0.367,1.025,0.367,1.963c0,1.817-1.195,2.903-2.977,2.903c-1.781,0-3.183-1.049-3.183-2.768
				c0-1.926,1.695-2.439,2.782-2.439c0.219,0,0.39,0.024,0.499,0.036v4.147H123.959z M123.19,169.986
				c-0.682-0.012-1.743,0.281-1.743,1.488c0,1.086,0.999,1.561,1.743,1.647V169.986z"/>
			<path fill="#797167" d="M122.653,167.62c-0.695,0-1.293,0.013-1.842,0.048v-0.939l1.159-0.036v-0.048
				c-0.792-0.268-1.293-0.915-1.293-1.636c0-0.121,0.013-0.207,0.037-0.304h1.013c-0.025,0.11-0.037,0.219-0.037,0.365
				c0,0.756,0.574,1.293,1.379,1.439c0.146,0.024,0.317,0.049,0.499,0.049h3.147v1.06h-4.062V167.62z"/>
			<path fill="#797167" d="M125.618,163.779c0.208-0.317,0.427-0.878,0.427-1.415c0-0.781-0.39-1.147-0.877-1.147
				c-0.513,0-0.793,0.305-1.086,1.098c-0.378,1.061-0.964,1.56-1.671,1.56c-0.952,0-1.732-0.768-1.732-2.036
				c0-0.599,0.171-1.122,0.365-1.453l0.782,0.269c-0.146,0.232-0.342,0.659-0.342,1.208c0,0.635,0.365,0.987,0.805,0.987
				c0.489,0,0.708-0.353,0.999-1.121c0.391-1.024,0.904-1.549,1.782-1.549c1.036,0,1.768,0.804,1.768,2.207
				c0,0.647-0.159,1.245-0.403,1.659L125.618,163.779z"/>
			<path fill="#797167" d="M49.646,180.181h7.136c0.525,0,1.123-0.012,1.525-0.047v0.963l-1.025,0.049v0.025
				c0.658,0.328,1.159,1.049,1.159,2.012c0,1.427-1.207,2.525-3,2.525c-1.965,0.012-3.172-1.208-3.172-2.646
				c0-0.904,0.426-1.513,0.903-1.781v-0.024h-3.526V180.181z M54.806,181.256c-0.135,0-0.317,0.012-0.451,0.048
				c-0.683,0.16-1.245,0.744-1.245,1.55c0,1.11,0.975,1.769,2.281,1.769c1.196,0,2.183-0.586,2.183-1.745
				c0-0.72-0.475-1.379-1.28-1.573c-0.147-0.036-0.293-0.048-0.463-0.048H54.806z"/>
			<path fill="#797167" d="M55.55,177.805c1.451-0.025,2.049-0.952,2.049-2.024c0-0.769-0.135-1.233-0.305-1.635l0.768-0.183
				c0.171,0.378,0.366,1.025,0.366,1.964c0,1.817-1.195,2.904-2.976,2.904c-1.781,0-3.183-1.049-3.183-2.768
				c0-1.927,1.695-2.439,2.78-2.439c0.22,0,0.391,0.024,0.501,0.036V177.805z M54.781,174.658c-0.684-0.012-1.745,0.28-1.745,1.488
				c0,1.086,1,1.562,1.745,1.647V174.658z"/>
			<path fill="#797167" d="M52.403,171.877l3.318-1.158c0.536-0.195,1.024-0.354,1.513-0.475v-0.037
				c-0.489-0.134-0.977-0.305-1.513-0.5l-3.318-1.146v-1.122l5.904,2.318v1.023l-5.904,2.244V171.877z"/>
			<path fill="#797167" d="M57.208,166.645c0.209-0.318,0.427-0.879,0.427-1.414c0-0.781-0.39-1.148-0.878-1.148
				c-0.512,0-0.793,0.306-1.085,1.099c-0.378,1.061-0.963,1.562-1.671,1.562c-0.952,0-1.732-0.769-1.732-2.037
				c0-0.597,0.171-1.123,0.366-1.451l0.78,0.267c-0.146,0.232-0.342,0.658-0.342,1.207c0,0.635,0.367,0.989,0.805,0.989
				c0.488,0,0.708-0.354,1.001-1.122c0.39-1.025,0.902-1.55,1.781-1.55c1.037,0,1.768,0.806,1.768,2.208
				c0,0.647-0.158,1.244-0.402,1.659L57.208,166.645z"/>
			<path fill="#FFFFFF" d="M108.681,201.868c0.716-1.207,1.52-3.263,1.52-5.229c0-2.815-1.386-4.155-3.217-4.155
				c-1.878,0-2.858,1.117-3.932,3.976c-1.43,3.932-3.53,5.764-6.122,5.764c-3.484,0-6.344-2.858-6.344-7.462
				c0-2.189,0.58-4.109,1.34-5.272l2.858,0.938c-0.534,0.849-1.293,2.413-1.293,4.424c0,2.323,1.341,3.574,2.949,3.574
				c1.786,0,2.59-1.251,3.707-4.066c1.385-3.708,3.263-5.674,6.48-5.674c3.842,0,6.524,2.992,6.524,8.041
				c0,2.368-0.626,4.557-1.519,6.077L108.681,201.868z"/>
			<path fill="#FFFFFF" d="M96.886,156.625c-2.279,0-4.065,0.089-5.853,0.179v-3.44l3.529-0.179v-0.135
				c-2.055-1.205-3.976-3.216-3.976-6.835c0-2.905,1.787-5.136,4.335-6.077v-0.09c-1.252-0.671-2.145-1.563-2.816-2.457
				c-0.983-1.296-1.519-2.679-1.519-4.735c0-2.906,1.876-7.148,9.383-7.148h12.688v3.84h-12.197c-4.201,0-6.658,1.566-6.658,4.692
				c0,2.278,1.655,3.978,3.53,4.691c0.581,0.18,1.251,0.315,1.965,0.315h13.359v3.841H99.702c-3.44,0-5.898,1.519-5.898,4.513
				c0,2.412,1.966,4.244,3.932,4.868c0.537,0.224,1.251,0.316,1.922,0.316h13.001v3.84H96.886L96.886,156.625z"/>
			<path fill="#FFFFFF" d="M96.886,119.742c-2.279,0-4.065,0.091-5.853,0.18v-3.438l3.529-0.18v-0.134
				c-2.055-1.206-3.976-3.218-3.976-6.835c0-2.905,1.787-5.139,4.335-6.078v-0.088c-1.252-0.671-2.145-1.566-2.816-2.461
				c-0.983-1.294-1.519-2.678-1.519-4.735c0-2.903,1.876-7.148,9.383-7.148h12.688v3.841h-12.197c-4.201,0-6.658,1.565-6.658,4.693
				c0,2.279,1.655,3.976,3.53,4.69c0.581,0.179,1.251,0.314,1.965,0.314h13.359v3.842H99.702c-3.44,0-5.898,1.519-5.898,4.512
				c0,2.412,1.966,4.247,3.932,4.871c0.537,0.224,1.251,0.313,1.922,0.313h13.001v3.841H96.886L96.886,119.742z"/>
			<rect x="91.033" y="78.802" fill="#FFFFFF" width="21.624" height="3.933"/>
			<path fill="#FFFFFF" d="M91.033,69.215v-5.629h2.993v5.629h11.662c2.681,0,4.199-0.76,4.199-2.95
				c0-1.072-0.089-1.697-0.268-2.278l2.993-0.179c0.268,0.76,0.537,1.967,0.537,3.486c0,1.83-0.626,3.306-1.653,4.244
				c-1.207,1.073-3.127,1.518-5.673,1.518H94.026v3.352h-2.992v-3.352"/>
			<path fill="#FFFFFF" d="M74.123,235.282c7.998,0,11.483,5.584,11.483,10.767c0,5.808-4.29,10.366-11.126,10.366
				c-7.192,0-11.438-4.781-11.438-10.723C63.042,239.481,67.555,235.282,74.123,235.282 M74.346,252.393
				c4.737,0,8.311-2.681,8.311-6.523c0-3.753-3.53-6.568-8.401-6.568c-3.663,0-8.265,1.832-8.265,6.479
				C65.991,250.382,70.281,252.393,74.346,252.393"/>
			<path fill="#FFFFFF" d="M70.549,230.962c-2.769,0-5.004,0.09-7.059,0.179v-3.485l3.708-0.223v-0.089
				c-2.636-1.564-4.155-4.156-4.155-7.685c0-5.272,4.423-9.204,10.947-9.204c7.774,0,11.617,4.781,11.617,9.875
				c0,2.858-1.252,5.361-3.396,6.656v0.09h11.752v3.887L70.549,230.962L70.549,230.962z M76.312,227.074
				c0.581,0,1.116-0.044,1.608-0.179c2.726-0.714,4.603-3.083,4.603-5.897c0-4.155-3.395-6.568-8.355-6.568
				c-4.289,0-7.997,2.279-7.997,6.434c0,2.68,1.876,5.227,4.825,5.942c0.491,0.134,1.073,0.268,1.564,0.268H76.312z"/>
			<path fill="#FFFFFF" d="M75.017,202.705c5.316-0.09,7.507-3.441,7.507-7.417c0-2.813-0.492-4.558-1.118-5.987l2.815-0.714
				c0.625,1.385,1.385,3.797,1.385,7.238c0,6.658-4.423,10.634-10.947,10.634c-6.524,0-11.618-3.843-11.618-10.143
				c0-7.103,6.167-8.935,10.143-8.935c0.804,0,1.385,0.044,1.832,0.133v15.191H75.017z M72.202,191.177
				c-2.457-0.044-6.344,1.028-6.344,5.451c0,4.021,3.619,5.719,6.344,6.031V191.177z"/>
			<path fill="#FFFFFF" d="M81.137,157.066c0.715-1.209,1.52-3.262,1.52-5.227c0-2.816-1.385-4.155-3.217-4.155
				c-1.877,0-2.859,1.116-3.932,3.976c-1.429,3.932-3.53,5.763-6.121,5.763c-3.485,0-6.344-2.86-6.344-7.462
				c0-2.19,0.581-4.111,1.342-5.271l2.859,0.937c-0.537,0.847-1.296,2.411-1.296,4.422c0,2.323,1.34,3.574,2.949,3.574
				c1.787,0,2.591-1.251,3.708-4.064c1.385-3.71,3.262-5.677,6.479-5.677c3.842,0,6.523,2.994,6.523,8.043
				c0,2.369-0.626,4.558-1.519,6.077L81.137,157.066z"/>
			<path fill="#FFFFFF" d="M58.307,133.97h5.183v-5.63h2.992v5.63h11.661c2.681,0,4.2-0.76,4.2-2.949
				c0-1.073-0.089-1.699-0.268-2.279l2.993-0.18c0.268,0.76,0.537,1.967,0.537,3.485c0,1.832-0.626,3.307-1.654,4.245
				c-1.206,1.073-3.127,1.519-5.674,1.519H66.482v3.352H63.49v-3.352h-4.022L58.307,133.97z"/>
			<path fill="#FFFFFF" d="M79.931,108.08c1.877,0,3.708-0.088,5.183-0.312v3.528l-2.725,0.315v0.133
				c1.698,1.206,3.217,3.529,3.217,6.613c0,4.378-3.082,6.611-6.21,6.611c-5.228,0-8.087-4.646-8.041-13.002h-0.448
				c-1.742,0-5.004,0.494-4.959,4.914c0,2.057,0.581,4.155,1.608,5.675l-2.635,0.894c-1.117-1.789-1.878-4.425-1.878-7.149
				c0-6.613,4.513-8.222,8.803-8.222h8.086V108.08z M74.079,111.877c-0.09,4.29,0.67,9.159,4.869,9.159
				c2.592,0,3.753-1.697,3.753-3.662c0-2.861-1.787-4.692-3.618-5.319c-0.447-0.132-0.894-0.178-1.253-0.178H74.079L74.079,111.877z
				"/>
			<path fill="#FFFFFF" d="M84.354,86.962c0.491,1.028,1.252,3.307,1.252,6.21c0,6.524-4.424,10.767-11.036,10.767
				c-6.657,0-11.527-4.556-11.527-11.614c0-2.324,0.581-4.38,1.163-5.45l2.992,0.892c-0.491,0.938-1.027,2.412-1.027,4.557
				c0,4.96,3.708,7.639,8.175,7.639c5.005,0,8.086-3.215,8.086-7.505c0-2.235-0.536-3.707-1.028-4.825L84.354,86.962z"/>
			<path fill="#FFFFFF" d="M73.407,78.727v-0.088c-0.759-0.537-1.698-1.252-2.456-1.876l-7.461-6.389v-4.692l8.891,8.31
				l12.734-9.516V69.3l-10.366,7.418l2.234,2.01h8.132v3.888H53.392v-3.888H73.407L73.407,78.727z"/>
			<polygon fill="#2BA8E0" points="94.218,168.542 87.853,164.388 94.218,160.232 			"/>
			<polygon fill="#2BA8E0" points="81.37,177.139 87.735,181.293 81.37,185.448 			"/>
			<path fill="#2BA8E0" d="M93.506,166.231h10.604c3.853,0,6.99,2.938,6.99,6.549c0,3.612-3.136,6.55-6.99,6.55H90.216v3.902h13.894
				c5.759,0,10.442-4.687,10.442-10.452c0-5.762-4.683-10.45-10.442-10.45H93.506V166.231z"/>
			<path fill="#2BA8E0" d="M81.975,179.329h-9.236c-3.852,0-6.987-2.937-6.987-6.549c0-3.612,3.134-6.55,6.987-6.55h12.526v-3.902
				H72.739c-5.757,0-10.439,4.688-10.439,10.451c0,5.764,4.682,10.451,10.439,10.451h9.236V179.329z"/>
			<g opacity="0.5">
				<g>
					<path fill="#FFFFFF" d="M72.621,67.117c0.794,0,1.419,0.623,1.419,1.435c0,0.803-0.624,1.444-1.419,1.444
						c-0.777,0-1.402-0.641-1.402-1.444C71.22,67.74,71.844,67.117,72.621,67.117 M72.621,69.638c0.625,0,1.12-0.46,1.12-1.094
						c0-0.615-0.495-1.067-1.111-1.067c-0.623,0-1.128,0.452-1.128,1.075C71.501,69.176,72.007,69.638,72.621,69.638 M73.357,68.774
						v0.324h-1.402c-0.025-0.127-0.043-0.307-0.043-0.538c0-0.264,0.043-0.385,0.103-0.486c0.059-0.077,0.17-0.137,0.307-0.137
						c0.153,0,0.274,0.121,0.324,0.292h0.017c0.051-0.137,0.153-0.214,0.341-0.257c0.214-0.043,0.299-0.068,0.35-0.102v0.35
						c-0.052,0.043-0.18,0.068-0.342,0.111c-0.153,0.026-0.222,0.112-0.222,0.292v0.152H73.357L73.357,68.774z M72.562,68.766
						v-0.153c0-0.18-0.06-0.325-0.205-0.325c-0.128,0-0.214,0.096-0.214,0.299c0,0.086,0.009,0.145,0.017,0.18L72.562,68.766
						L72.562,68.766z"/>
					<path fill="#FFFFFF" d="M72.621,67.117c0.794,0,1.419,0.623,1.419,1.435c0,0.803-0.624,1.444-1.419,1.444
						c-0.777,0-1.402-0.641-1.402-1.444C71.22,67.74,71.844,67.117,72.621,67.117 M72.621,69.638c0.625,0,1.12-0.46,1.12-1.094
						c0-0.615-0.495-1.067-1.111-1.067c-0.623,0-1.128,0.452-1.128,1.075C71.501,69.176,72.007,69.638,72.621,69.638 M73.357,68.774
						v0.324h-1.402c-0.025-0.127-0.043-0.307-0.043-0.538c0-0.264,0.043-0.385,0.103-0.486c0.059-0.077,0.17-0.137,0.307-0.137
						c0.153,0,0.274,0.121,0.324,0.292h0.017c0.051-0.137,0.153-0.214,0.341-0.257c0.214-0.043,0.299-0.068,0.35-0.102v0.35
						c-0.052,0.043-0.18,0.068-0.342,0.111c-0.153,0.026-0.222,0.112-0.222,0.292v0.152H73.357L73.357,68.774z M72.562,68.766
						v-0.153c0-0.18-0.06-0.325-0.205-0.325c-0.128,0-0.214,0.096-0.214,0.299c0,0.086,0.009,0.145,0.017,0.18L72.562,68.766
						L72.562,68.766z"/>
				</g>
			</g>
		</g>
	</g>
	<g>
		<circle fill="#DA432E" cx="235.994" cy="385.699" r="14.5"/>
		<g>
			<text transform="matrix(1 0 0 1 258.4941 389.8008)" fill="#2A4F68" font-family="'OpenSans'" font-size="14px">Full Access Pass Required</text>
		</g>
		<g>
			<text transform="matrix(1 0 0 1 538.4941 389.8008)" fill="#2A4F68" font-family="'OpenSans'" font-size="14px">Requires ANY Summit Pass</text>
		</g>
		<circle fill="#29A9E1" cx="515.994" cy="385.699" r="14.5"/>
	</g>
	<g>
		<path fill="#FFFFFF" d="M184.513,297.971c-0.931-2.431,0.271-5.192,2.702-6.123c0.002-0.001,0.004-0.001,0.006-0.002
			c-0.612,0.234-1.405,0.151-2.101,0.418c-2.999,1.148-4.493,4.529-3.344,7.529c1.148,2.999,4.514,4.509,7.514,3.361
			c1.951-0.747,3.263-2.428,3.63-4.339c-0.524,0.84-1.317,1.508-2.313,1.889C188.175,301.633,185.444,300.401,184.513,297.971z"/>
	</g>
	<text transform="matrix(1 0 0 1 488.3789 175.5974)" fill="#FFFFFF" font-family="'OpenSans-Semibold'" font-size="16px">Breakout Sessions / Workshops</text>
	<rect x="292" y="240" fill="#FFFFFF" stroke="#2A4F68" stroke-miterlimit="10" width="127" height="46"/>
	<rect x="165" y="240" fill="#FFFFFF" stroke="#2A4F68" stroke-miterlimit="10" width="127" height="46"/>
	<rect x="292" y="240" fill="#FFFFFF" stroke="#2A4F68" stroke-miterlimit="10" width="127" height="46"/>
	<rect x="419" y="240" fill="#DA432E" stroke="#2A4F68" stroke-miterlimit="10" width="508" height="46"/>
	<text transform="matrix(1 0 0 1 508.3262 267.0229)" fill="#FFFFFF" font-family="'OpenSans-Semibold'" font-size="16px">Developer &amp; Operator Working Sessions</text>
	<text transform="matrix(1 0 0 1 308.2188 337.5977)" fill="#FFFFFF" font-family="'OpenSans-Semibold'" font-size="16px">Booth Crawl</text>
	<text transform="matrix(1 0 0 1 197.4987 301.2069)" fill="#FFFFFF" font-family="'OpenSans'" font-size="12px">EVENING EVENTS</text>
	<rect x="477" y="416.852" fill="#29A9E1" stroke="#2A4F68" stroke-miterlimit="10" width="450" height="43.699"/>
	<rect x="11.496" y="416.852" fill="#DA432E" stroke="#2A4F68" stroke-miterlimit="10" width="450" height="43.699"/>
	<rect x="11.496" y="460.852" fill="#FFFFFF" stroke="#2A4F68" stroke-miterlimit="10" width="450" height="277.148"/>
	<rect x="477" y="460.852" fill="#FFFFFF" stroke="#2A4F68" stroke-miterlimit="10" width="450" height="277.148"/>
	<text transform="matrix(1 0 0 1 152.5127 445.4495)" fill="#FFFFFF" font-family="'OpenSans-Semibold'" font-size="19px">FULL ACCESS PASS</text>
	<text transform="matrix(1 0 0 1 557.5427 445.4495)" fill="#FFFFFF" font-family="'OpenSans-Semibold'" font-size="19px">KEYNOTE + MARKETPLACE PASS</text>
	<rect x="25.451" y="470.852" fill="none" width="422.091" height="154"/>
	<text transform="matrix(1 0 0 1 25.4506 483.012)"><tspan x="0" y="0" fill="#2A4F68" font-family="'OpenSans'" font-size="16px">• Access to all Breakout Sessions and Workshops, </tspan><tspan x="0" y="19.2" fill="#2A4F68" font-family="'OpenSans'" font-size="16px">Developer &amp; Operator working sessions, Keynote </tspan><tspan x="0" y="38.399" fill="#2A4F68" font-family="'OpenSans'" font-size="16px">presentations, Marketplace Expo Hall, Lounges, etc.</tspan><tspan x="0" y="76.8" fill="#2A4F68" font-family="'OpenSans'" font-size="16px">• This pass includes lunch</tspan></text>
	<rect x="490.954" y="470.852" fill="none" width="422.091" height="254.445"/>
	<text transform="matrix(1 0 0 1 490.954 483.012)"><tspan x="0" y="0" fill="#2A4F68" font-family="'OpenSans'" font-size="16px">• Access to the Keynote presentations from industry </tspan><tspan x="0" y="19.2" fill="#2A4F68" font-family="'OpenSans'" font-size="16px">leaders and Marketplace Expo Hall to explore sponsor </tspan><tspan x="0" y="38.399" fill="#2A4F68" font-family="'OpenSans'" font-size="16px">booths and network</tspan><tspan x="0" y="76.8" fill="#2A4F68" font-family="'OpenSans'" font-size="16px">• This pass does NOT include access to any breakout </tspan><tspan x="0" y="96" fill="#2A4F68" font-family="'OpenSans'" font-size="16px">sessions (including sponsored sessions and tracks) </tspan><tspan x="0" y="115.2" fill="#2A4F68" font-family="'OpenSans'" font-size="16px">taking place Monday - Thursday or the developer and </tspan><tspan x="0" y="134.399" fill="#2A4F68" font-family="'OpenSans'" font-size="16px">operator working sessions taking place Tuesday - Friday. </tspan><tspan x="0" y="153.6" fill="#2A4F68" font-family="'OpenSans'" font-size="16px">This pass ONLY includes access to the Keynote </tspan><tspan x="0" y="172.8" fill="#2A4F68" font-family="'OpenSans'" font-size="16px">presentations and the Marketplace Expo Hall.</tspan><tspan x="0" y="211.2" fill="#2A4F68" font-family="'OpenSans'" font-size="16px">• This pass includes lunch</tspan></text>
</g>
</svg>
