<?xml version="1.0" encoding="utf-8"?>
<!-- Generator: Adobe Illustrator 19.1.0, SVG Export Plug-In . SVG Version: 6.00 Build 0)  -->
<svg version="1.1" id="Layer_1" xmlns="http://www.w3.org/2000/svg" xmlns:xlink="http://www.w3.org/1999/xlink" x="0px" y="0px"
	 viewBox="0 0 1390 730" enable-background="new 0 0 1390 730" xml:space="preserve">
<rect id="XMLID_146_" x="0" display="none" fill="#021823" width="1390" height="730"/>
<g id="XMLID_66_">
	<g id="XMLID_67_">
		<path id="XMLID_64_" fill="#4296D2" d="M34.149,202.873c-3.33-1.319-1.65,5.076-4.962,5.855c-3.311,0.79-7.28,2.74-4.624,3.53
			c2.64,0.778,8.593-0.393,9.264-1.565C34.481,209.518,35.146,203.266,34.149,202.873z"/>
		<path id="XMLID_63_" fill="#4296D2" d="M8.674,211.468c-3.971-0.382-7.946,0-8.604,1.568c-0.673,1.569,3.638,2.741,6.287,2.741
			c2.642,0,7.937-1.962,6.943-2.343C12.309,213.036,8.674,211.468,8.674,211.468z"/>
		<path id="XMLID_62_" fill="#4296D2" d="M30.513,177.455c-1.344,0.48,2.319,3.126,3.636,3.126c1.325,0,3.643-4.297,0.998-4.297
			C32.499,176.284,33.825,176.284,30.513,177.455z"/>
		<path id="XMLID_126_" fill="#4296D2" d="M42.095,145.386c0,0,0,0,1.984,1.969c1.986,1.947,5.297,2.722,8.272,3.114
			c2.982,0.397,2.982-1.943,0.663-4.29c-2.313-2.343-2.982-1.961-4.966-2.343c-1.982-0.397-2.313-2.744-7.606-2.744
			c-5.295,0-4.632-3.122-5.295-4.694c-0.665-1.565,5.067-4.615,6.393-4.226c1.327,0.393,6.18-0.865,6.18-0.865
			s8.606-3.897,9.598-3.122c1,0.779,5.958-0.775,8.273-1.569c2.319-0.775,3.64-5.076,3.64-5.076s2.982,1.183,4.635,3.13
			c1.652,1.946,5.295,0,6.289,0c0.992,0,6.477,1.27,6.477,1.27s5.373-0.793,8.013-1.187c2.653-0.393,10.326,3.039,12.977,3.832
			c2.644,0.775,16.551-2.646,17.876-2.646c1.323,0,5.947,6.936,10.25,5.764c4.303-1.172,6.289,0.782,7.282,1.172
			c0.99,0.397,1.982,0.397,3.645,2.74c1.648,2.355,3.303,0.386,5.622-1.172c2.313-1.569,1.984-3.137,1.984-3.137s0,0,1.992-0.382
			c1.982-0.393,3.305,0.779,8.93,1.175c5.626,0.385,4.303-1.175,8.272-2.74c3.976-1.568,7.948,1.947,9.275,1.565
			c1.315-0.393,2.976-3.515,3.967-1.961c0.994,1.569,2.645,4.698,2.645,4.698s4.301-3.908,5.63-3.908
			c1.319,0,8.884,0.722,11.203,0.344c2.313-0.397,7.657,0.435,9.642,2.388c1.984,1.958,6.951,1.565,9.6,3.515
			c2.642,1.969,5.293-1.557,3.967-2.339c-1.325-0.786-4.632-3.908-4.632-3.908s-4.966-7.03-5.624-8.213
			c-0.658-1.172-1.648-1.172-2.976,1.958c-1.329,3.118-6.285,3.118-11.917,3.519c-5.626,0.393-1.982-3.122-8.272-3.519
			c-6.287-0.397-3.969-3.13-1.984-3.13c1.984,0,3.305-4.694,3.969-7.434c0.661-2.736,2.976-2.343,7.614-1.95
			c4.626,0.389,5.953-0.786,10.59,0c4.634,0.779,4.303-2.343,8.927-1.962c4.64,0.393,2.319,1.176,4.968,3.133
			c2.648,1.95,4.301,1.561,7.945,3.519c3.638,1.958,2.317,1.958,3.972,2.351c1.658,0.389,7.278-0.786,10.585-1.179
			c3.311-0.389,5.957-0.782,7.614,1.569c1.655,2.343,1.328,5.084,3.647,7.034c2.311,1.961-1.329-7.034-1.329-10.163
			s4.63-0.393,7.614-0.393c2.976,0,6.281-1.175,6.945,0.393c0.661,1.561-4.303,3.916-1.319,7.438
			c2.975,3.515,4.966,4.687,7.606,4.687c2.649,0,8.608,0.775,5.953,5.076c-2.64,4.301-9.587,3.912-11.905,3.912
			c-2.319,0-6.288,1.572-5.295,3.912c0.992,2.343,6.289,1.172,9.923,1.172c3.644,0,14.893,1.172,17.868,0
			c2.984-1.172,2.319-5.866-0.99-7.038c-3.307-1.172-0.658-3.519,2.649-2.74c3.313,0.782,6.618-1.172,5.955,0
			c-0.658,1.172,0.336,3.912,0.336,7.041c0,3.126,0.99,5.091,3.303,4.301c2.319-0.779,1.909-3.364,4.226-3.757
			c2.319-0.386,1.735-4.846,0.406-8.364c-1.315-3.515-2.313-5.476-1.982-7.427c0.334-1.958,3.974-2.343,5.958-0.397
			c1.982,1.966,4.63,5.862,4.63,5.862s3.976,2.74,5.295,5.87c1.327,3.137,1.655,2.351,4.305,0.393
			c2.648-1.954,3.311-1.565,5.628,0.389c2.321,1.954,0.658,5.866,0.658,7.038c0,1.183,3.311,0,3.97-2.343
			c0.667-2.34,3.309-2.34,4.97-3.126c1.652-0.786,1.652-5.48,1.652-5.48s-4.305-1.172-8.606-0.779
			c-4.297,0.382-5.624-0.393-8.931-3.133c-3.311-2.725-1.325-4.691-2.982-7.423c-1.655-2.736,5.295-4.305,9.598-6.652
			c4.299-2.343,8.6-0.782,7.608,5.084c-0.992,5.87-1.65,5.095,3.313,3.923c4.966-1.183-0.336-6.267,1.98-6.66
			c2.321-0.389,8.273-1.561,10.264-1.172c1.984,0.393,12.903-1.175,15.557-1.175c2.644,0,6.945,2.74,9.923,4.698
			c2.98,1.954,10.925,4.687,12.907,5.862c1.984,1.172,15.887,3.515,17.206,3.908c1.327,0.401,1.327,5.087,2.65,8.999
			c1.327,3.908,4.966,1.171,6.287,1.171c1.327,0,5.957,2.737,7.287,4.691c1.317,1.961,11.25,3.511,11.25,3.511
			s-2.317,3.519-3.307,4.694c-0.996,1.175-3.315,1.961-5.297,3.519c-1.992,1.572-4.303-0.386-6.958-2.343
			c-2.642-1.958-7.28-3.126-8.27-2.351c-0.992,0.79-0.325,2.351,0.335,3.526c0.656,1.168,4.961,2.74,7.614,5.084
			c2.64,2.351,1.984,4.694,2.313,7.82c0.327,3.13-2.646-1.179-5.958-1.954c-3.313-0.775-3.634,3.122-3.634,3.122
			s-4.311-0.378-6.293-0.378c-1.984,0,0,0-3.64-3.137c-3.642-3.122-2.978,1.962-4.961,0.393c-1.984-1.565-3.97-3.912-4.968-3.126
			c-0.998,0.786-4.299-3.523-6.291-3.129c-1.984,0.389-9.921-1.179-11.908-0.393c-1.988,0.783-3.643,0.783-5.295,1.565
			c-1.659,0.783-2.319-5.48-1.326-7.427c0.992-1.965,3.311-2.347,7.614-1.175c4.299,1.175,4.632,0,5.624-1.962
			c0.994-1.946,1.986-3.897,6.618-5.465c4.636-1.569-0.331-2.74-1.65-3.522c-1.329-0.779-2.982-2.347-3.974,0
			c-0.994,2.351-3.313,5.091-3.313,5.091s-2.646,0-6.286-0.397c-3.642-0.393-0.994-1.958,0.661-2.741
			c1.652-0.778,3.64-5.473,1.984-6.644c-1.648-1.176-2.319-1.954-5.291-1.176c-2.98,0.783-0.996-2.744-2.98-3.916
			c-1.984-1.171-1.327,0.79-1.327,2.351c0,1.565-2.976,1.176-2.976,1.176s-4.637-0.786-6.287,0c-1.655,0.782-4.638,2.339-3.64,3.522
			c0.994,1.171,4.299,1.171,5.29,4.687c0.992,3.515-4.296,4.309-5.29,4.687c-0.998,0.401-4.966,1.969-4.966,1.969
			s-3.969-1.172-7.278-1.172c-3.313,0-4.305,0.382-3.642,1.947c0.663,1.565,2.313,0.775,3.305,0.775s0.992,1.965,3.974,1.175
			c2.984-0.783,2.319-1.95,4.966,1.175c2.642,3.13,5.295,2.732,9.598,5.476c4.298,2.737-0.669,5.874-2.98,5.874
			c-2.315,0-2.315-2.351-3.64-4.698c-1.329-2.351-6.616,0.389-6.616,0.389s-4.311,2.744-6.618,2.744
			c-2.317,0-3.974-0.401-0.998-3.133c2.982-2.736-3.64-3.137-3.64-7.037c0-3.912-1.907,6.652-1.907,8.61
			c0,1.954-2.06-2.355-7.691-1.572c-5.624,0.779-4.632,3.133-11.917,8.595c-7.279,5.481-5.375,4.207-4.719,9.294
			c0.669,5.08-1.232,5.96,1.744,6.743c2.975,0.786,1.982,6.644,4.301,6.251c2.319-0.382,3.976-2.347,8.608,0.393
			c4.628,2.74,6.949,3.519,12.573,4.69c5.63,1.172,8.36,0.51,11.341-0.276c2.984-0.782,5.872,3.012,5.872,5.752
			c0,2.744,1.984,3.13,1.652,6.652c-0.329,3.519,3.643-3.133,3.643-3.133s1.65,5.874,0.323,6.652
			c-1.316,0.775,0.334,4.294,1.99,3.912c1.656-0.393,3.976,1.172,5.959-0.79c1.984-1.95-0.992-7.812-0.992-10.163
			c0-2.343-1.99-3.519-2.98-5.87c-0.996-2.34,2.648-2.736,3.972-0.385c1.328,2.343,3.64,0.385,5.953-1.568
			c2.321-1.954,2.321-5.473,2.321-5.473s-3.971-6.259-6.945-7.816c-2.984-1.569-1.663-1.958,1.314-2.74
			c2.982-0.786,0-1.958,0.669-6.259c0.661-4.298,0.661-7.034,2.313-7.034c1.655,0,7.61-1.179,12.58-0.779
			c4.962,0.393,7.281,4.687,10.59,5.084c3.305,0.378,8.595,1.172,9.594,3.118c0.992,1.961-5.855,3.175-3.534,6.3
			c2.309,3.129,4.855,1.92,7.174,3.092c2.319,1.175,4.959,0.389,7.943-4.309c2.982-4.687,4.296-5.083,5.288-4.301
			c1,0.786,7.295,9.385,8.943,11.35c1.655,1.95,3.25,7.631,3.583,9.596c0.335,1.946,6.673,0.559,7.998,0.559
			c1.321,0,6.288,4.305,6.945,6.656c0.671,2.343,1.99,3.13,6.287,4.301c4.309,1.175,0,5.465-0.992,7.813
			c-0.99,2.347-1.648,3.133-2.976,5.866c-1.319,2.74,0,0,1.655,1.172c1.658,1.175,2.313,2.744,4.966,1.965
			c2.65-0.79,3.969,0,4.963,2.343c0.992,2.351,2.319,4.301,3.311,6.251c0.992,1.962,0,5.084-1.326,3.133
			c-1.315-1.965-5.624-0.79-5.624-0.79s-1.986,2.343-2.649,1.172c-0.658-1.172-1.982-2.725-4.303-1.946
			c-2.311,0.775-4.626,0-7.279,0.393c-2.648,0.382-3.638-1.569-1.984-3.137c1.657-1.553,1.984-7.419,5.295-9.774
			c3.311-2.343,2.321-5.858,0-5.858c-2.319,0-3.311,3.515-4.632,4.301c-1.327,0.775-5.851-1.455-8.17,0.499
			c-2.313,1.958-6.06,3.413-3.742,4.192c2.313,0.782-3.309,3.916-5.291,3.916c-1.994,0-1.328-5.091-1.328-7.049
			c0-1.95-2.648,1.175-2.648,1.175s-5.295-3.518-7.281-1.175c-1.99,2.355-9.137,1.35-11.454,3.689
			c-2.319,2.355-3.436,8.429-3.436,8.429s1.988-1.168,5.957-2.343c3.968-1.172,3.638-0.775,6.943-2.725
			c3.313-1.965,6.626-2.74,8.942,0.779c2.311,3.515-0.992,5.465-0.992,5.465s1.321,2.74,2.64,3.523
			c1.329,0.786,1.656-0.783,3.974-2.351c2.315-1.553,1.323,3.137,1.992,4.694c0.658,1.565,2.979,1.565,4.296-0.389
			c1.321-1.954,2.313-3.515,3.305-2.343c0.992,1.175,1.99,3.908,2.982,6.645c0.994,2.744-6.949,3.526-8.27,3.916
			c-1.323,0.385-7.616,1.95-8.608,2.347c-0.99,0.385-4.296,3.9-6.949,3.9c-2.642,0-2.321-4.69-2.642-7.419
			c-0.334-2.744-3.645,0.389-3.976,1.557c-0.327,1.172-3.309,0.79-5.624,1.172c-2.317,0.393-6.286,3.137-6.286,6.255
			c0,3.13,4.668,6.494,3.674,8.054c-0.992,1.569-8.642,0.941-10.961,0.159c-2.313-0.782-5.624,1.172-4.63,2.744
			c0.992,1.557,0.335,3.9-1.984,3.522c-2.319-0.397-2.649,2.343-1.655,4.294c0.992,1.95-2.982,5.862-3.974,4.298
			c-0.994-1.561-2.979-2.347-2.979,0c0,2.347,1.943,5.586,3.933,8.715c1.984,3.13-5.581,3.806-7.901,6.146
			c-2.319,2.351-7.484,10.382-10.789,11.951c-3.313,1.561-6.089,6.425-4.439,8.376c1.661,1.961,3.647,10.167,4.639,12.907
			c0.99,2.74-0.336,10.549-3.313,10.171c-2.976-0.397-1.326-5.084-4.303-6.256c-2.976-1.175-4.632-8.213-5.295-12.915
			c-0.656-4.687-1.321-1.946-3.311-0.393c-1.986,1.572-3.967-3.118-4.959-4.294c-0.994-1.172-5.904,2.279-9.874,1.897
			c-3.969-0.393-6.011,0.45-6.011,1.622c0,1.168-0.66,4.687-4.305,2.347c-3.638-2.347-4.303-2.347-7.943-2.347
			c-3.638,0-6.949-0.397-7.606,1.168c-0.665,1.572-4.303,5.084-6.624,5.87c-2.319,0.786-6.616,4.698-4.63,5.473
			c1.988,0.786,1.988,6.259,0.663,9.381c-1.329,3.13-0.994,8.606-0.336,14.079c0.663,5.48,4.639,8.995,8.277,12.514
			c3.64,3.527,4.968,4.694,8.602,1.565c3.645-3.126,4.961-1.172,5.958-0.779c0.99,0.389,3.638-1.961,2.646-5.48
			c-0.99-3.515,1.327-6.648,4.305-6.251c2.975,0.393,7.278-1.172,9.596-0.783c2.319,0.386,3.64,7.816,0,10.942
			c-3.638,3.137-1.655,7.828-2.319,11.346c-0.658,3.515-3.638,4.294,0,4.294c3.647,0,2.655,0.79,4.966,1.172
			c2.313,0.401,4.634-2.339,6.953-2.736c2.311-0.378,8.27,5.87,7.277,9.007c-0.992,3.122-1.982,8.587-1.655,13.674
			c0.329,5.087,1.655,5.476,2.315,7.041c0.669,1.569,3.309,5.087,6.286,3.519c2.976-1.565,5.96-2.733,6.951-4.301
			c1-1.565,7.285,2.736,6.622,3.916c-0.663,1.164,2.313,2.343,4.299,1.164c1.984-1.164,2.98-3.126,4.965-6.252
			c1.986-3.133,5.301-5.866,6.952-6.263c1.654-0.382,5.63-5.08,8.272-4.29c2.653,0.775-0.994,4.686-1.323,7.03
			c-0.329,2.343,0,8.995,1.323,9.385c1.324,0.389,0.667-4.69,2.317-8.209c1.655-3.519,4.961-5.484,6.624-5.484
			c1.648,0,2.977,8.22,5.288,5.877c2.321-2.343,6.953-1.961,7.945,0.389c0.992,2.343,1.982,3.519,1.982,3.519
			s1.663-1.565,1.663-3.519c0-1.958,5.288-3.919,8.608-1.569c3.303,2.343,1.98,3.133,3.63,3.523
			c1.655,0.389,3.313-5.084,4.305-5.476c0.99-0.397,0,6.259-2.319,9.777c-2.313,3.523,1.982,2.351,1.982,2.351s0,0,0.992,1.172
			c0.992,1.175,4.305-1.172,5.63,1.175c1.328,2.343,3.647,3.118,5.632,7.431c1.984,4.29,4.254,0.488,8.22-0.287
			c3.976-0.794,9.647,4.974,13.616,10.054c3.97,5.087,3.313,8.999,5.954,8.999c2.653,0,3.311,4.293,3.311,5.862
			c0,1.561-5.953,5.084-9.265,5.866c-3.309,0.786-3.309,4.698,1.984,3.523c5.297-1.175,2.979-3.523,6.289-4.694
			c3.311-1.179,6.622,1.561,3.645,6.255c-2.987,4.683-8.942,5.08-3.645,5.855c5.293,0.794,2.319-0.775,5.293-5.461
			c2.979-4.69,2.644-3.129,4.64-3.129c1.984,0,6.276,1.175,7.939,2.736c1.659,1.561,5.949,3.908,8.604,5.855
			c2.64,1.965,5.951,1.175,7.937,0.397c1.984-0.778,7.612,2.347,9.596,5.469c1.986,3.141,6.958,3.527,9.264,4.698
			c2.319,1.172,5.964,5.862,6.287,9.774c0.336,3.908-3.634,12.125-3.969,14.083c-0.319,1.946-5.615,8.984-10.588,13.682
			c-4.962,4.69-1.984,10.167-1.65,12.51c0.323,2.347-3.313,10.942-2.319,12.904c0.99,1.954-1.327,6.255-3.313,8.995
			c-1.984,2.74-3.309,7.813-4.624,10.156c-1.329,2.351-5.632,1.568-9.598,2.74c-3.969,1.172-5.966,2.351-5.966,2.351
			s-6.943,3.912-10.911,7.041c-3.969,3.118,1.315,8.595-0.671,12.9c-1.98,4.301-3.604,0.454-5.588,5.529
			c-1.984,5.084-3.341,4.252-5,5.42c-1.652,1.175-2.642,4.294-2.976,7.423c-0.323,3.129-3.634,6.259-7.939,10.953
			c-4.303,4.687-6.954,3.912-11.583,2.343c-4.635-1.565-3.969-14.854-4.635-12.907c-0.658,1.954-2.937,8.727-2.281,9.91
			c0.659,1.164,5.263,5.738,6.917,6.909c1.652,1.172,1.321,3.122,0,5.087c-1.327,1.947-4.959,8.996-6.285,9.381
			c-1.329,0.389-11.583,1.958-13.569,0.782c-1.982-1.168-2.972,2.74-2.651,5.091c0.332,2.339,1.984,5.064-1.65,4.29
			c-3.647-0.775-8.606-3.515-8.606-1.569c0,1.965,0.994,6.266,2.974,6.266c1.984,0,3.976-1.569,2.986,1.168
			c-1.002,2.74-3.642,5.087-4.966,6.259c-1.33,1.179-2.978,5.076-6.289,7.816c-3.311,2.74-3.311,4.301-2.648,5.473
			c0.661,1.172,5.624,0.393,6.616,1.172c0.99,0.782-0.992,6.266-2.315,7.438c-1.319,1.172-6.949,6.637-9.268,8.201
			c-2.321,1.569-2.321,6.266-1.651,8.61c0.658,2.343,5.954,8.209,8.929,9.385c2.984,1.172,9.271,0.779,8.606,1.95
			c-0.656,1.168-7.935,2.343-8.927,2.737c-0.994,0.389-6.293,1.958-8.941,1.958c-2.644,0-7.614-3.13-8.606-3.13
			c-0.992,0,0.669-1.565,3.972-4.69c3.305-3.13-1.319-6.648-1.982-2.343c-0.665,4.298-1.99,5.469-3.64,5.469
			c-1.663,0-3.647-2.74-4.639-3.916c-0.99-1.172-5.295-2.34-4.626-7.034c0.658-4.694-1.988-4.301-3.974-6.255
			c-1.988-1.954,2.65-3.515,1.986-5.48c-0.663-1.946-3.642-0.775-3.974-3.515c-0.329-2.733,2.647-6.645,2.98-7.816
			c0.331-1.172-1.988-3.523-2.319-5.473c-0.329-1.965,1.326-3.912,3.642-7.03c2.317-3.137,3.969-7.045,3.969-8.22
			c0-1.172-1.652-5.473-1.652-8.602c0-3.118,1.652-4.294,2.319-8.602c0.659-4.301-2.319-2.733-2.319-6.255
			c0-3.515,3.311-2.343,2.648-5.858c-0.661-3.519,1.657-5.874,2.65-8.22c0.99-2.347,1.984-6.252,3.311-8.992
			c1.325-2.74-1.326-8.988-1.326-10.163c0-1.168,4.301-2.736,2.319-5.083c-1.986-2.351,1.733-3.126,3.723-5.084
			c1.982-1.958-1.404-8.602-0.412-15.636c0.99-7.045,1.983-19.162,1.983-20.334c0-1.175,0.332-5.866-1.325-8.995
			c-1.65-3.133-3.636-5.476-5.955-6.652c-2.317-1.172-5.295-4.698-6.956-5.076c-1.648-0.401-11.662-3.693-11.662-9.173
			c0-5.473-3.554-9.993-4.218-13.901c-0.663-3.904-5.622-12.51-5.958-16.418c-0.329-3.908-7.28-5.08-8.272-9.385
			c-0.992-4.305,1.474-7.094,2.13-9.83c0.667-2.744-0.478-8.935-0.803-10.889c-0.334-1.958,2.973-8.413,4.959-9.585
			c1.982-1.176,5.633-5.272,6.947-5.272c1.33,0,0.998-4.309,2.321-8.61c1.327-4.301-0.659-10.156-1.652-10.949
			c-0.992-0.775-1.982-5.862-3.645-7.419c-1.648-1.565-4.959-0.786-4.959-0.786s0.656,3.515-2.321,5.48
			c-2.977,1.95-3.64-0.397-4.63-1.568c-0.994-1.175-4.634-1.569-6.289-3.519c-1.655-1.961-4.303-4.69-6.293-5.866
			c-1.984-1.175-6.813-2.192-6.476-6.883c0.329-4.687-2.453-7.585-3.781-8.36c-1.319-0.794-3.965-2.744-5.622-1.569
			c-1.654,1.168-4.632-2.347-6.951-1.958c-2.317,0.393-6.951-4.694-8.604-6.656c-1.652-1.954-2.976-4.69-5.953-4.69
			c-2.984,0-3.313,1.172-5.297,3.912c-1.984,2.74-4.966-1.95-5.957-3.126c-0.992-1.164-5.817,0.79-9.458,0.79
			c-3.638,0-5.301-7.476-5.431-8.995c-0.501-5.836-10.59-5.87-12.909-7.431c-2.319-1.569-4.637-7.438-3.645-8.991
			c0.992-1.565-1.65-6.652-1.65-6.652s-4.638-6.259-6.287-6.259c-1.656,0-6.951-10.938-9.933-14.067
			c-2.979-3.13-9.92-10.178-11.248-13.693c-1.321-3.515-1.655-8.988-4.959-6.248c-3.313,2.733-0.671,5.469,2.638,8.591
			c3.313,3.137,2.655,6.267,7.283,10.564c4.636,4.309,2.652,8.602,4.636,10.549c1.984,1.965,8.935,6.652,5.953,9.782
			c-2.977,3.133-5.953-3.912-7.282-4.301c-1.321-0.397-4.301-1.175-3.969-3.515c0.338-2.343-2.646-4.309-4.964-7.824
			c-2.311-3.518-3.305-1.561-6.281-1.561c-2.982,0-0.335-4.301,1.315-6.259c1.661-1.954-1.65-4.69-3.632-5.469
			c-1.984-0.794-4.641-9.774-7.281-15.255c-2.653-5.48-4.638-8.202-7.614-7.823c-2.975,0.397-7.899-2.574-9.884-4.143
			c-1.982-1.564-1.37-10.318-4.675-14.23c-3.313-3.912-6.293-11.331-5.959-15.64c0.329-4.301,1.321-15.251,1.321-17.979
			c0-2.744-2.553-7.941-2.553-9.113c0-1.172-0.758-4.581-2.079-4.963c-1.323-0.393-5.626-4.233-8.602-4.233
			c-2.974,0-4.301-5.545-3.309-8.289c0.992-2.729-2.646-7.419-4.303-7.419s-4.303-5.087-5.295-7.824
			c-0.992-2.74-3.64-2.74-2.976-1.179c0.658,1.569-0.334,4.305,1.321,5.091c1.655,0.778,2.982,7.033,1.655,7.812
			c-1.326,0.79-4.305-2.347-7.614-4.297c-3.311-1.954-1.984-9.778-1.984-11.736c0-1.954-4.634-3.908-6.622-3.908
			c-1.986,0-3.969,0.393-4.299-4.69c-0.332-5.087-6.291-7.82-8.277-7.82c-1.982,0-13.134-3.803-16.443-3.803
			c-3.305,0-8.368-4.804-10.36-3.235c-1.984,1.565-5.622-2.74-7.608-2.74c-1.986,0-0.934,5.318-4.581,8.054
			c-3.638,2.737-6.009-2.581-7.996-0.627c-1.982,1.958-6.951,3.916-5.295-0.775c1.652-4.698,1.652-5.48-0.99-4.308
			c-2.653,1.172-3.313,4.308-3.313,6.266c0,1.954-4.63,5.076-4.63,5.076s4.298,0.397,5.961,0c1.648-0.382,0.327,4.309-1.331,5.477
			c-1.648,1.175-3.967,4.297-6.62,3.518c-2.644-0.782-2.979-3.518-4.627-3.912c-1.661-0.393-3.469,5.05-9.43,8.565
			c-5.958,3.526-6.792-1.523-9.109-0.351c-2.315,1.172-10.59,4.698-13.568,5.083c-2.977,0.389-2.319-4.301-0.656-4.301
			c1.648,0,7.937-3.522,9.591-4.694c1.656-1.172,8.935-4.301,10.921-5.473c1.99-1.172,5.295-3.122,3.974-5.473
			c-1.323-2.347-5.626,1.179-5.626,1.179s-3.311-3.526-4.303-4.309c-0.99-0.782-2.982,3.13-2.982,3.13s-4.297-0.783-3.305-5.084
			c0.994-4.301-2.317-4.301-2.974-2.343c-0.671,1.954-6.285,5.08-6.624,3.129c-0.335-1.958-5.295-5.873-6.622-8.999
			c-1.325-3.118,1.327-3.515,4.303-6.255c2.979-2.732,7.282-3.518,10.925-3.122c3.643,0.389,5.953-4.694,4.632-5.095
			c-1.327-0.385-3.64-0.783-5.624,1.175c-1.99,1.961-6.954,1.569-6.954,1.569s-7.282,0-10.256-2.343
			c-2.977-2.355-4.632-5.874-4.632-5.874s5.958-2.732,10.59-3.114L42.095,145.386z M345.232,261.91
			c3.305,0.431,3.305-5.076,2.976-6.648c-0.329-1.565-0.329-8.205,0.998-9.385c1.315-1.172,2.978-4.69,6.618-5.084
			c3.638-0.389,5.957,2.744,5.622,6.263c-0.334,3.515,0.658,7.034,1.984,7.034s5.295-2.737,3.971-5.084
			c-1.321-2.347,0.99-10.171,0.99-7.427c0,2.741,2.655,4.691,4.308,4.298c1.658-0.389-1.653-7.427-3.974-7.816
			c-2.319-0.393-6.945-0.393-7.935,0c-0.99,0.389-6.624-1.962-9.277-1.569c-2.642,0.397-6.61,1.569-7.937,4.694
			c-1.325,3.133,0,8.991-0.335,11.335C342.92,254.868,342.251,261.521,345.232,261.91z M363.764,261.91
			c0.754,1.784,4.303,0.393,6.289-1.958c1.983-2.343,6.286-3.118,7.614-5.084c1.314-1.95,2.311-1.553,5.617-3.126
			c3.313-1.565,5.959-1.946,4.639-3.904c-1.326-1.961-8.273,0-9.265-0.782c-0.99-0.786-7.948,8.599-7.948,8.599
			s-5.953,2.736-6.285,3.908C364.095,260.738,362.773,259.563,363.764,261.91z M329.346,231.806c0,2.105,3.305,2.347,5.289,1.172
			c1.992-1.172,4.972-1.95,6.293-2.343c1.323-0.397,0.663,1.95,3.64,1.95c2.976,0,6.622,1.168,7.616,0.79
			c0.992-0.397,3.967-5.083,1.648-5.48c-2.319-0.389-5.953-3.126-7.937-5.473c-1.982-2.343-6.622,3.13-10.925,5.084
			C330.667,229.462,329.346,228.684,329.346,231.806z M193.662,218.898c-2.701-1.058,0.992,4.694,2.648,5.87
			c1.655,1.175,4.966,1.175,5.303,3.126c0.321,1.961,1.313,6.652,2.974,6.259c1.65-0.401,1.65-4.69,0.329-6.259
			c-1.321-1.561-6.289-6.259-7.28-6.259C196.646,221.635,194.654,219.292,193.662,218.898z"/>
		<path id="XMLID_56_" fill="#4296D2" d="M357.143,165.206c-0.901,1.168,3.969,2.865,4.855,1.3
			C362.882,164.945,359.348,162.33,357.143,165.206z"/>
		<path id="XMLID_55_" fill="#4296D2" d="M369.946,167.545c-3.515,1.187-0.229,4.169,1.984,3.13
			C374.13,169.635,373.028,166.506,369.946,167.545z"/>
		<path id="XMLID_54_" fill="#4296D2" d="M205.357,103.954c-0.45,1.58,1.979,1.553,4.848,1.553s7.506,0,8.833-0.778
			c1.323-0.775,7.937-2.604,7.722-0.261c-0.227,2.351,2.642,5.994,4.184,5.473c1.554-0.525,4.637-3.904,6.18-2.604
			c1.548,1.304,1.771,4.426,3.311,5.208c1.548,0.786,5.736,0.786,7.722,0c1.984-0.782,7.506-0.782,9.934-0.261
			c2.425,0.533,9.483,2.09,10.146,0.533c0.658-1.569,2.642-1.833,2.869-3.402c0.216-1.569,1.315-6.516,1.315-6.516
			s-1.315-2.857-3.526-1.561c-2.198,1.3-2.869,2.094-4.853,1.561c-1.984-0.518-1.984-4.694-5.518-3.904
			c-3.527,0.775-4.188,3.13-5.288,4.165c-1.106,1.047-3.532,1.822-4.411,1.308c-0.882-0.514-5.962-3.912-5.962-3.912
			s-10.592-0.514-11.029-2.086c-0.442-1.557-2.206-4.165-7.064-3.64c-4.855,0.517-13.238,3.912-14.565,3.912
			c-1.316,0,1.554,3.118-0.216,3.118C208.218,101.86,206.021,101.599,205.357,103.954z"/>
		<path id="XMLID_53_" fill="#4296D2" d="M242.862,93.266c-2.555,0.998-1.984,3.908-0.218,3.908c1.757,0,6.18-1.826,7.495-0.525
			c1.327,1.3,4.64,0.264,4.411-1.043c-0.216-1.3,1.327-6.523-1.315-6.776C250.58,88.564,246.834,91.693,242.862,93.266z"/>
		<path id="XMLID_52_" fill="#4296D2" d="M272.649,89.871c-0.342,1.863,1.761,3.394,4.409,3.394c2.653,0,8.385-1.572,8.822-0.272
			c0.442,1.312-0.215,2.355,2.867,2.869c3.099,0.525,4.415,1.05,6.181,1.05c1.769,0,1.1-3.398-0.442-5.741
			c-1.542-2.343-1.1-2.075-5.068-3.39c-3.974-1.3-7.948-1.3-10.59-1.043C276.173,87.003,273.305,86.22,272.649,89.871z"/>
		<path id="XMLID_51_" fill="#4296D2" d="M277.058,101.86c-1.668,1.723,0,7.037-0.663,7.555c-0.656,0.525,0.219,2.869,1.992,2.347
			c1.763-0.514,2.64-5.466,3.967-5.466c1.327,0,8.164-1.829,9.264,1.04c1.106,2.861,1.106,1.561,4.195,1.829
			c3.086,0.249,5.511-3.644,5.735-4.959c0.219-1.308-1.546-3.912-5.735-3.39C291.617,101.339,278.827,100.042,277.058,101.86z"/>
		<path id="XMLID_50_" fill="#4296D2" d="M285.223,115.675c-1.531,1.156-0.665,4.959,1.767,5.208
			c2.427,0.272,6.616-1.818,7.051-0.25c0.444,1.569,1.986,8.599,5.96,6.256c3.974-2.347,3.753-4.437,4.859-4.687
			c1.1-0.272-0.229-6.006-1.988-7.31c-1.765-1.3-7.502-0.517-9.043,0.265C292.28,115.943,287.65,113.853,285.223,115.675z"/>
		<path id="XMLID_49_" fill="#4296D2" d="M310.15,118.025c0.257,0.711,1.99,2.075,4.859,1.561c2.863-0.521,7.053-1.047,9.039-1.3
			c1.99-0.261,2.43-4.18,0.225-4.433c-2.211-0.261-3.969-2.604-5.953-1.822C316.331,112.817,309.486,116.196,310.15,118.025z"/>
		<path id="XMLID_48_" fill="#4296D2" d="M309.486,107.072c-0.964,2.744,8.833,4.176,7.729,1.047
			C316.11,104.982,310.592,103.954,309.486,107.072z"/>
		<path id="XMLID_47_" fill="#4296D2" d="M311.255,93.776c-2.799-0.798-7.501-1.814-7.501-2.604c0-0.775-1.325,3.659,1.105,4.959
			c2.428,1.3,6.395,3.64,9.266,4.955c2.867,1.296,8.377,1.553,10.146,4.165c1.765,2.597,7.724,4.69,7.724,4.69l7.062,0.79
			c0,0,4.855-1.316,9.923-0.79c5.08,0.522,12.574,1.308,16.768,1.043c4.197-0.253,4.853-1.818,5.297-2.865
			c0.442-1.047-7.722-3.137-9.706-2.869c-1.992,0.257-13.246,0.257-16.551,0c-3.311-0.268-7.499-0.268-10.154,0
			c-2.64,0.257-4.626-2.083-6.616-3.39c-1.982-1.304-6.393-5.473-9.043-5.998C316.331,95.348,316.773,95.348,311.255,93.776z"/>
		<path id="XMLID_46_" fill="#4296D2" d="M588.063,147.994c-0.885,1.746-2.642,1.829-0.885,5.48c1.769,3.643,3.095,5.73,4.638,5.473
			c1.542-0.261,6.837-0.526,7.508,1.565c0.656,2.086,2.423,3.919,6.167,2.6c3.753-1.3,6.837-2.075,7.722-3.643
			c0.884-1.565,6.848-1.822,6.848-1.822s4.853-4.433,3.082-6.255c-1.767-1.829-5.949-3.137-7.946-3.398
			c-1.984-0.257-3.969,1.829-8.379,1.829c-4.411,0-7.278,2.083-9.048,0C596.012,147.737,588.721,146.693,588.063,147.994z"/>
		<path id="XMLID_45_" fill="#4296D2" d="M400.088,96.38c2.427,2.09,3.836,0.794,6.864,1.569c3.02,0.783,5.441,6.52,7.059,7.302
			c1.612,0.786,3.828,0,4.841-1.568c1.005-1.557,2.415-7.034,2.415-7.034s0,5.212,2.424,6.251c2.419,1.055,8.472-0.775,10.09-0.518
			c1.612,0.257,11.093,1.826,13.714,3.383c2.625,1.572,9.071,2.616,10.893,5.999c1.812,3.386,2.016,15.122,3.02,16.422
			c1.011,1.308,4.437-4.169,5.248-5.461c0.807-1.315,5.05-0.522,6.458,1.293c1.41,1.825,4.633,6.259,4.437,8.084
			c-0.208,1.818-0.809,4.687-2.022,3.643c-1.202-1.043-3.224-0.778-2.415-2.869c0.81-2.083,1.202-6.508-0.404-6.508
			c-1.618,0-3.028,0-3.028,0s-3.025-1.047-5.036,2.865c-2.024,3.912-0.41,7.828,1.005,7.828c1.408,0,4.64,0,4.64,1.024
			c0,1.055-3.428,4.184-3.232,6.006c0.208,1.829,2.825,8.077,3.634,9.385c0.801,1.297,5.044,2.604,6.245,2.869
			c1.215,0.261-2.82,0.51-1.814,2.343c1.019,1.826,2.623,6.247,4.844,7.294c2.217,1.047,8.466,5.734,9.277,7.824
			c0.809,2.086,5.651-1.561,6.665-1.822c1.004-0.253,0.799,5.473,3.632,5.734c2.816,0.253,3.823-0.522,6.247-2.869
			c2.419-2.343,1.816-5.469,2.011-7.82c0.208-2.347,0-4.169,2.625-3.394c2.621,0.779,4.031-0.522,3.834-3.122
			c-0.197-2.608-2.415-5.741,1.814-6.524c4.239-0.775,6.457-4.165,9.082-4.165c2.623,0,9.88,1.308,10.689,0
			c0.809-1.296,4.248-9.09,6.478-9.343c2.218-0.272,8.047,1.002,13.291-0.042c5.246-1.039,10.898-4.947,12.711-4.694
			c1.814,0.257,6.249,0.257,4.841-1.3c-1.408-1.569-3.432-5.212-6.457-5.212c-3.029,0-3.527-8.039-2.731-8.039
			c0.807,0,8.171,3.084,7.975,5.692c-0.195,2.608,1.213,5.99,5.246,4.959c4.033-1.051,3.421-4.959,2.623-6.002
			c-0.811-1.043-1.41-3.659-2.219-5.473c-0.809-1.829-2.732-7.552,1.508-8.077c4.239-0.526,12.208,5.465,12,1.3
			c-0.196-4.176,0-8.61,1.211-10.953c1.213-2.343,3.838-3.908,2.427-4.69c-1.421-0.775-3.234,1.047-4.645-2.865
			c-1.408-3.912,1.215-6.781,2.82-8.345c1.618-1.557,10.088-11.728,14.733-13.292c4.632-1.565,7.871-7.559,4.632-8.859
			c-3.222-1.308-9.681-3.651-13.911,0.518c-4.239,4.176-6.656,8.077-11.495,6.777c-4.842-1.3-5.579-8.206-8.332-11.766
			c-3.993-5.163-1.557-15.345-5.788-14.559c-4.241,0.786-4.241,0.786-4.241,0.786c0-0.003-4.964-1.051-8.032-0.272
			c-4.034,1.024-6.646,3.885-8.95,3.266c-4.52-1.213-8.58,1.58-9.721,1.878c-9.883,2.555-17.826-0.941-19.285-1.183
			c-1.141-0.201,6.926,1.096,13.164,0c4.8-0.851,12.871-2.786,16.834-3.564c3.963-0.779,0.775-2.634-0.625-2.82
			c-5.108-0.665-12.85-3.141-18.966-3.511c-4.806-0.283-7.903,1.44-12.701,1.584c-6.138,0.185-13.461-0.238-18.27,3.258
			c-4.227,3.073-9.662,3.402-10.103,3.965c-2.414,3.126-4.632,10.949-6.848,8.867c-2.221-2.083-2.625-7.298-5.445-5.216
			c-2.831,2.083-0.206,7.298-2.634,10.945c-2.415,3.655-9.273,3.13-11.288,1.829c-2.016-1.3-4.032-2.339-12.104-1.829
			c-8.071,0.529-16.946,3.655-15.132,6.78c1.816,3.126-3.628,4.951-5.038,3.394c-1.414-1.569-7.869,1.814-7.465,4.947
			c0.406,3.122-1.011,6.777-4.435,5.994c-3.436-0.782-5.855,1.826-6.057,4.426c-0.2,2.612-7.869,4.433-8.468,4.433
			C406.338,93.515,396.46,93.266,400.088,96.38z"/>
		<path id="XMLID_44_" fill="#4296D2" d="M354.824,349.497c-0.329,3.904,2.982,2.733,6.956,2.733c3.968,0,10.919-0.775,12.24,1.172
			c1.326,1.962,7.281,5.084,8.936,6.652c1.656,1.557,6.947,1.95,7.28,0.382c0.332-1.554-3.64-5.862-5.959-5.465
			c-2.315,0.393-7.281-2.74-9.921-5.473c-2.655-2.74-7.616-2.74-9.6-2.74C362.773,346.757,354.824,349.497,354.824,349.497z"/>
		<path id="XMLID_43_" fill="#4296D2" d="M378.981,338.548c-3.022,0.389-2.306,4.683,1.33,3.904
			C383.955,341.67,381.963,338.147,378.981,338.548z"/>
		<path id="XMLID_42_" fill="#4296D2" d="M380.642,370.935c-3.037,0.642-2.319,7.619,1.321,6.346
			C385.603,376.011,383.619,370.293,380.642,370.935z"/>
		<path id="XMLID_41_" fill="#4296D2" d="M424.319,366.626c-3.023,0.642-2.307,7.631,1.329,6.35
			C429.293,371.71,427.303,365.988,424.319,366.626z"/>
		<path id="XMLID_40_" fill="#4296D2" d="M394.211,368.267c0,0,3.638,0.775,5.951,0.775c2.321,0,3.647,1.569,5.63,2.744
			c1.986,1.172,5.63-1.565,6.945-1.565c1.328,0,2.984,4.687,3.313-0.393c0.335-5.087-3.969-7.431-6.618-8.217
			c-2.648-0.782-5.622,0-7.607,0.393C399.833,362.397,394.211,368.267,394.211,368.267z"/>
		<path id="XMLID_106_" fill="#4296D2" d="M671.533,291.629c1.327-0.775,6.611-2.74,9.598-4.301
			c2.979-1.569,12.575-5.477,13.89-5.477c1.329,0,17.87,0.393,20.188-0.782c2.319-1.175,11.278-2.831,13.918,5.767
			c2.642,8.599-2.993,5.189-5.634,6.739c-2.653,1.569,0.992,5.087,2.306,5.087c1.329,0,5.953,5.083,8.272,5.083
			c2.319,0,7.948,2.741,7.948,2.741s5.618,5.083,8.606,5.083c2.976,0,8.02,6.07,11.331,2.166c3.3-3.916,4.88-11.943,8.194-11.161
			c3.307,0.79,6.951,3.912,11.242,3.912c4.301,0,12.253-0.783,13.576,1.172c1.33,1.954-8.939,8.602-8.279,10.167
			c0.667,1.554,1.994,1.176,5.305-3.518c3.302-4.694,8.273-4.694,12.24-5.862c3.971-1.175,5.966,6.248,6.626,8.591
			c0.654,2.343,3.634,6.648,5.951,11.736c2.321,5.083,4.62,12.117,7.279,17.597c2.65,5.481-0.31,16.46,2.343,19.975
			c2.644,3.526,9.572,6.614,11.223,11.305c1.659,4.694,5.628,9.381,6.954,9.777c1.33,0.385,6.949,9.373,7.281,11.717
			c0.323,2.347-1.986,7.438,3.298,7.831c5.308,0.389,9.936-2.744,11.596-3.522c1.651-0.775,14.557-6.652,16.208-4.309
			c1.66,2.347-2.307,12.521-2.642,15.262c-0.332,2.733-9.935,16.026-10.269,19.544c-0.319,3.527-5.951,9.786-9.585,10.564
			c-3.643,0.775-11.259,11.732-13.903,15.251c-2.652,3.515-6.956,11.327-8.939,12.11c-1.984,0.786-3.513,11.176-2.519,12.748
			c0.99,1.55,1.19,8.765,4.178,11.895c2.978,3.13,3.969,5.473,2.642,8.213c-1.325,2.725,0.669,8.988,0,14.072
			c-0.658,5.076-6.285,10.144-7.612,11.701c-1.312,1.569-7.606,5.896-10.256,9.8c-2.659,3.912-4.959,7.434-4.301,9.381
			c0.652,1.969,3.307,11.732,2.971,14.075c-0.318,2.351-9.096,3.556-11.751,5.114c-2.648,1.568,1.177,6.622,1.831,9.747
			c0.656,3.126-4.636,8.221-6.953,10.953c-2.325,2.736-8.608,12.114-12.9,15.636c-4.305,3.527-10.507,2.816-14.812,2.427
			c-4.293-0.393-11.34,3.443-12.994,5.394c-1.661,1.961-3.965,1.565-7.276-0.382c-3.315-1.965-3.647-4.694-3.971-9.007
			c-0.334-4.301-1.328-7.034-1.328-7.034s-0.988-6.641-3.976-9.766c-2.976-3.137-3.972-6.652-5.618-9.007
			c-1.652-2.34,3.063-9.01,2.729-13.311c-0.337-4.305-6.042-9.354-7.691-12.095c-1.661-2.744-4.972-10.171-6.299-12.911
			c-1.313-2.736-2.976-8.201-2.642-16.021c0.336-7.82,3.691-12.397,6.346-14.748c2.655-2.343,1.607-5.193-0.716-9.88
			c-2.319-4.698,0.336-12.529-1.661-15.254c-1.984-2.737-5.053-18.013-8.699-20.357c-3.645-2.347-7.508-2.324-5.526-7.797
			c1.986-5.477,0-10.946,3.311-14.468c3.311-3.515,1.65-5.858-1.984-8.213c-3.645-2.347-2.317-3.515-5.293-0.775
			c-2.992,2.733-6.956,4.301-9.265,1.557c-2.319-2.737-1.661-7.038-5.964-10.167c-4.301-3.118-11.195-2.049-12.856-1.274
			c-1.65,0.79-5.012,7.529-9.651,8.311c-4.626,0.79-7.937-0.389-12.575-0.389c-4.628,0-8.604,0.389-9.264,3.133
			c-0.656,2.732-1.649,4.301-4.626,1.561c-2.989-2.733-8.94-8.995-8.94-8.995s-5.498-10.783-7.159-15.489
			c-1.65-4.686-7.4-4.842-13.686-8.364c-6.289-3.519-2.655-7.427-3.313-11.335c-0.66-3.912-3.969-5.477-2.319-5.87
			c1.659-0.393,1.327-3.122,4.961-8.602c3.645-5.469,1.325-11.339,0.671-14.468c-0.671-3.126-3.972-7.812-0.671-12.9
			c3.311-5.084,5.384-17.212,8.028-20.342c2.655-3.126,10.513-6.251,14.147-8.198c3.643-1.965,1.326-7.038,3.309-12.904
			c1.983-5.866,4.972-8.606,5.966-8.606c0.992,0,4.662-4.06,8.593-6.637C663.252,290.06,670.206,292.407,671.533,291.629z
			 M816.156,452.332c-0.899-1.689-6.625-1.183-7.616,0.783c-0.99,1.958-1.984,10.938,0.99,11.728
			C812.507,465.621,817.806,455.458,816.156,452.332z"/>
		<path id="XMLID_37_" fill="#4296D2" d="M876.378,510.193c-4.152-1.402-4.632,5.091-7.939,9.388
			c-3.311,4.294-6.949,7.809-8.275,7.431c-1.328-0.401-8.602,2.737-6.285,8.595c2.304,5.866,1.984,11.736-0.332,14.476
			c-2.321,2.736,1.982,10.549,1.326,14.857c-0.671,4.294,0.99,7.03,5.628,7.03c4.628,0,6.288-1.947,8.272-7.03
			c1.984-5.091,2.304-10.171,4.296-14.464c1.99-4.308,3.643-13.304,4.634-15.643c0.994-2.347,2.987-9.786,2.653-14.079
			C880.021,516.456,878.695,510.976,876.378,510.193z"/>
		<path id="XMLID_36_" fill="#4296D2" d="M996.504,409.713c-2.141,1.119-4.343,19.933-0.37,21.502
			c3.978,1.569,6.669-11.735,5.344-13.686C1000.147,415.58,999.491,408.145,996.504,409.713z"/>
		<path id="XMLID_35_" fill="#4296D2" d="M717.865,263.864c-3.122,0-4.637,5.877-2.655,7.823c1.984,1.95,3.982,1.569,5.632-1.172
			C722.5,267.776,719.515,263.864,717.865,263.864z"/>
		<path id="XMLID_34_" fill="#4296D2" d="M692.714,270.123c-0.799,1.478,2.644,1.962,3.299,0.393
			C696.68,268.947,695.021,265.818,692.714,270.123z"/>
		<path id="XMLID_33_" fill="#4296D2" d="M732.089,276.775c-1.209,0.843,1.982,3.515,3.645,4.294
			c1.661,0.782,2.977,3.13,4.303,3.518c1.325,0.397,5.618,0,4.303-3.912c-1.327-3.9-4.303-3.9-5.297-3.9
			C738.052,276.775,733.752,275.599,732.089,276.775z"/>
		<path id="XMLID_32_" fill="#4296D2" d="M652.994,197.782c-3.001,0.594-3.311,4.309-5.297,4.309c-1.983,0-4.301,0.783-3.632,3.519
			c0.658,2.74,1.984,4.69,0,5.858c-1.982,1.172,0.323,5.866,2.974,6.255c2.644,0.397,5.634-1.946,7.939-3.118
			c2.319-1.172,5.63-3.519,5.63-7.041c0-3.523-0.659-6.652-1.986-8.213C657.297,197.782,654.978,197.396,652.994,197.782z"/>
		<path id="XMLID_31_" fill="#4296D2" d="M656.64,186.061c-2.678,1.051-1.661,5.072-0.334,7.034c1.326,1.95,3.643,6.255,6.947,7.816
			c3.309,1.569,10.264,3.13,7.623,4.698c-2.651,1.565-10.312,9.264-10.97,11.607c-0.671,2.343,8.651,1.293,8.651,1.293
			s-1.995,2.74-0.332,3.515c1.648,0.786,2.651-2.732,5.291-2.732c2.645,0,7.937,1.958,10.594,1.958c2.651,0,6.945-4.301,6.62-7.037
			c-0.334-2.744-3.645-7.038-6.62-8.602c-2.979-1.569-6.291-8.61-8.273-10.167c-1.982-1.568,7.351-6.746,5.033-9.475
			c-2.319-2.74-9.336-1.077-11.989-3.039c-2.642-1.958-4.961,0.393-6.622,2.741C660.608,188.012,658.622,185.271,656.64,186.061z"/>
		<path id="XMLID_94_" fill="#4296D2" d="M678.48,240.404c-0.336-3.515-6.947-6.652-11.25-7.427
			c-4.303-0.779-3.647-3.122,0.994-3.515c4.635-0.393,4.301-2.343,8.27-3.13c3.969-0.783,7.948-1.954,10.925-2.343
			c2.977-0.397,2.977-3.522,2.977-5.87c0-2.343,8.273-3.133,8.273-3.133s4.635-5.072,7.277-7.423
			c2.653-2.347,7.281-1.954,10.927-0.783c3.643,1.168-0.336-2.74-1.663-4.69c-1.327-1.958-0.321-6.262,0.671-8.606
			c0.992-2.351,6.943-3.523,8.606-2.736c1.648,0.782,0,4.297,0.321,7.434c0.336,3.126,2.974,5.083,2.974,5.083l2.657-0.393
			c0,0,0,0,4.301,0c4.303,0,4.526,0.094,7.837-1.081c3.309-1.172,5.732,0.298,7.062-0.484c1.31-0.786,4.953-0.786,9.918,1.172
			c4.959,1.954,2.317-3.523,3.307-6.652c0.994-3.13,2.978-8.595,6.293-8.213c3.311,0.397,5.96,2.74,8.602,0.79
			c2.644-1.961-4.962-4.694-4.962-5.866c0-1.175,6.289-1.175,11.908-1.569c5.631-0.389,8.942,0,11.595-0.775
			c2.64-0.783-1.986-6.266-2.991-6.266c-0.975,0-7.614,0.782-10.923,0.397c-3.299-0.397-6.945,2.347-9.918,3.13
			c-2.978,0.782-3.647-4.698-5.299-7.042c-1.659-2.343-2.321-6.637,1.988-8.988c4.301-2.347,11.915-7.438,13.228-9.782
			c1.329-2.343-5.284-1.95-11.569-1.568c-6.301,0.393,0.99,2.351-4.974,9.392c-5.951,7.038-8.929,2.343-13.57,7.038
			c-4.634,4.683-1.323,5.08,2.991,6.648c4.294,1.557,0.659,6.259-0.334,7.427c-0.992,1.172-5.964,5.48-5.289,8.602
			c0.652,3.122-3.315,5.083-3.315,5.083s-12.254,3.13-14.572,3.515c-2.305,0.401-2.976-1.954-2.305-4.297
			c0.656-2.351-2.657-7.816-2.978-11.335c-0.334-3.523-5.293,1.561-5.628,3.912c-0.325,2.343-6.624,2.725-10.258,1.172
			c-3.645-1.565-5.63-7.434-4.961-8.606c0.658-1.172-1.983-7.041-1.983-8.606c0-1.557,7.727-12.945,14.017-14.514
			c6.299-1.557,13.775-5.431,18.078-9.328c4.303-3.912,6.285-8.61,7.612-9.781c1.314-1.172,24.184-14.128,32.455-15.701
			c8.275-1.553,26.449,7.888,29.428,8.663c2.976,0.775,4.637,1.947,11.917,5.084c7.278,3.126,14.158-0.287,18.782,0.499
			c4.637,0.783,7.026,5.756,10.014,7.325c2.975,1.569,0,2.74-7.295,5.469c-7.279,2.732-12.24,1.958-16.205,0.393
			c-3.982-1.572-6.287-1.572-3.311,0.775c2.974,2.347,1.984,3.523,2.3,7.038c0.34,3.526,4.976,0.401,5.966-0.385
			c0.994-0.786,0.994-2.343,4.641,0.385c3.634,2.744,4.961,1.175,6.608,0.786c1.663-0.385,0.337-4.687,1.327-6.259
			c0.994-1.565,4.974-1.565,5.968-2.34c0.99-0.775,3.298-1.95,5.282-2.347c1.982-0.397,1.659,3.519,3.647,4.687
			c1.984,1.175,0.99-5.083,0.32-6.633c-0.656-1.569-1.314-5.866-0.32-7.049c0.99-1.172,7.945-1.954,9.598-0.389
			c1.652,1.572-2.644,6.255-1.653,8.988c0.99,2.744,3.305-1.55,4.964-3.904c1.648-2.343,5.286,0,11.242-1.172
			c5.954-1.172,4.639-5.083,10.913-2.74c6.302,2.347,4.641,2.347,6.639,0c1.98-2.343,5.618,0.401,9.245-1.172
			c3.651-1.565,3.651,0,6.302,1.572c2.648,1.557,5.955-3.137,7.281-4.698c1.317-1.569,6.614-1.569,9.265-1.172
			c2.652,0.385,5.951,2.343,8.606,2.343c2.64,0,6.941,2.343,6.941,2.343s5.635,2.351,6.958,0.782
			c1.313-1.569-0.333-3.519-5.305-6.262c-4.964-2.722-2.976-7.412,0-7.809c2.984-0.397,2.655-2.343,4.972-3.912
			c2.321-1.561,5.291-7.431,7.939-6.255c2.646,1.172,4.966,3.515,8.277,5.469c3.301,1.958,0.325,4.698-0.329,6.648
			c-0.661,1.961,0.654,9.385,1.646,10.552c1.004,1.183-0.992,5.481-3.638,7.438c-2.649,1.947-6.295,6.255-5.293,7.03
			c0.983,0.783,8.931-3.511,8.931-3.511s4.972-7.041,7.279-8.988c2.317-1.969,4.634-1.969,5.293,0.385
			c0.671,2.343,4.305,3.126,7.616,1.561c3.307-1.561,0-2.733-0.323-6.255c-0.332-3.527-5.628-1.561-8.62-0.786
			c-2.976,0.786-5.295,4.309-6.274,4.309c-1.004,0-1.004-2.351-0.335-5.877c0.658-3.515-1.326-5.466-1.326-7.412
			c0-1.965,0.99-1.965,3.311-5.87c2.317-3.919,2.317,2.733,2.64,6.252c0.334,3.515,2.651,1.961,4.639,1.564
			c1.986-0.393,0.992-5.083,2.657-7.427c1.646-2.351,5.295-2.74,8.591,0.786c3.311,3.523,2.979,2.34,6.956,3.9
			c3.967,1.569,4.305,1.966,4.637,5.484c0.323,3.515,2.979,3.9,4.625,2.722c1.65-1.172,0.336-5.858-0.656-7.412
			c-0.99-1.572-8.94-4.309-11.594-7.049c-2.644-2.74,1.327-2.74,4.315-2.74c2.978,0,8.595,0.397,8.595,0.397
			s6.285-1.569,9.596-4.305c3.311-2.729,5.631-2.729,8.942-4.298c3.301-1.565,8.61-1.565,11.921-0.775
			c3.299,0.775,5.617-1.569,8.927-3.137c3.307-1.557,7.654-11.747,7.947-1.947c0.04,1.259,9.254,3.118,10.579,2.737
			c1.326-0.397,4.651-0.9,9.598-3.916c9.593-5.855,1.291-8.621,4.959-3.129c1.279,1.912,5.308-1.561,12.255,1.954
			c6.945,3.527,0,0,1.98,2.355c1.984,2.34,2.978-0.397,7.616-1.179c4.637-0.778,7.616,0,10.59,0.393
			c2.977,0.389,9.598,0.389,12.576,2.733c2.977,2.347-1.984,7.427-3.645,8.995c-1.65,1.561,2.651,2.732,3.978,2.347
			c1.317-0.397,12.24,0,17.201,0.775c4.976,0.786,6.958,3.527,9.262,3.527c2.319,0,5.966-1.176,7.289-2.741
			c1.33-1.561,9.589-2.347,12.246-2.736c2.642-0.393,9.933,0,10.923,0.779c0.994,0.782,1.984,4.698,1.984,7.824
			c0,3.137,2.978,5.858,5.295,6.259c2.321,0.393,6.618-4.694,8.275-5.477c1.646-0.782,3.63,3.527,4.621,2.355
			c0.998-1.172,9.279,0.382,12.594-1.572c3.294-1.954,5.282,0,6.941-0.783c1.652-0.782,4.302-5.084,4.302-6.648
			c0-1.561,1.33-2.736,0-5.076c-1.323-2.347-5.961-0.794-10.925-2.347c-4.959-1.569,0.21-9.714,1.663-5.48
			c0.82,2.388,5.282,0,8.593,0.79c3.311,0.778,1.999-1.179,3.647-1.179c1.663,0,7.612,1.958,10.911,1.958
			c3.311,0,5.966,4.29,5.966,4.29s-9.265,3.137-11.25,3.137c-1.984,0-0.671,3.122,0.994,3.122c1.65,0,3.967,1.179,6.284,3.133
			c2.323,1.961,12.575,0,13.894,0c1.329,0,5.307,1.961,9.273,4.69c3.967,2.74,6.612,3.912,6.612,3.912s5.632,0,11.259-0.774
			c5.617-0.79,12.909-0.79,14.219,0.382c1.331,1.168,4.976,2.343,7.62,5.084c2.642,2.74,4.626,1.568,8.27,1.172
			c3.647-0.397,7.295-1.172,10.59-1.172c3.318,0,14.23-0.397,16.214,3.13c1.988,3.522,4.305,2.736,4.305,2.736
			s2.989-6.263,4.305-7.434c1.327-1.172,5.628,0.79,8.27,2.343c2.653,1.568,15.553,0,18.86,0.793
			c3.311,0.775,7.949,4.687,5.307,7.816c-2.657,3.129,1.984,8.61,0.994,11.728c-0.994,3.126-3.651,3.515-6.301,4.298
			c-2.642,0.786,2.65,4.698,4.97,7.438c2.321,2.74-1.319,3.518-3.64,2.347c-2.321-1.175-8.274,0.393-15.886,2.736
			c-7.616,2.347-10.594,7.034-18.531,7.427c-7.948,0.393-4.637-0.393-14.555-0.393c-9.929,0-9.608,3.13-11.592,7.042
			c-1.984,3.904,0.994,3.13,0,6.247c-0.99,3.137-2.638,6.656-2.638,9.396c0,2.729-5.964,3.126-7.948,5.469
			c-1.988,2.351-5.299,8.213-10.93,12.507c-5.615,4.309-9.581,10.961-9.581,10.961s0.99-6.652,3.63-11.342
			c2.644-4.691-2.975-11.343-3.311-16.426c-0.319-5.084,1.663-6.652,4.961-11.339c3.311-4.69,11.259-6.259,14.57-8.599
			c3.311-2.355,16.88-13.292,16.88-13.292s-2.653,1.95-5.953,3.515c-3.322,1.553-7.291,4.69-9.936,4.69
			c-2.646,0-1.646-3.137-1.982-6.255c-0.335-3.126-6.62-0.775-8.941,2.343c-2.317,3.126-6.622,5.084-11.244,8.999
			c-4.639,3.908-3.311,3.515-6.289,3.908c-2.991,0.389-7.948-1.958-10.256-3.908c-2.321-1.958-4.637,1.557-11.917,1.951
			c-7.277,0.389-15.564-0.783-18.864-0.393c-3.311,0.393-11.581,11.728-16.551,13.686c-4.964,1.958-11.25,5.477-9.589,8.217
			c1.65,2.736,4.624-2.351,5.951-2.351c1.327,0-0.99,5.481,1.984,5.481c2.976,0,4.626-1.962,7.614-2.351
			c2.978-0.385,5.295,2.733,5.953,7.042c0.669,4.294-1.312,7.816-2.642,13.296c-1.326,5.473-3.311,10.938-8.604,15.632
			c-5.295,4.698-13.901,13.296-15.56,15.64c-1.655,2.347-7.603,0.393-8.597-1.172c-0.99-1.569-3.967,3.518-6.287,4.69
			c-2.321,1.172-4.638,3.522-4.638,6.648c0,3.129-6.609,3.129-6.609,5.087c0,1.95,3.967,7.427,5.615,10.159
			c1.65,2.74-0.334,11.35-3.311,13.297c-2.978,1.95-4.292,4.293-8.27,1.572c-3.97-2.744-0.66-4.313,0.994-8.61
			c1.661-4.301-1.654-6.644-2.321-7.82c-0.657-1.172-3.314,2.347-4.624,2.736c-1.327,0.393-1.327-3.526-0.34-5.87
			c0.994-2.343-0.654-7.423-1.644-7.809c-0.996-0.397-7.285,5.858-9.935,5.465c-2.655-0.382-0.338-7.419,0.656-9.381
			c1.003-1.954-1.986-0.393-3.967,1.561c-1.984,1.958-6.289,6.267-7.935,5.87c-1.665-0.397-4.976,3.118-2.321,5.469
			c2.64,2.347,3.643,4.305,5.293,4.694c1.652,0.393,5.955-0.782,7.616-1.175c1.644-0.385,4.959,2.74,1.644,6.259
			c-3.305,3.523-10.25,3.919-8.922,6.263c1.314,2.347,4.625,5.862,7.278,11.331c2.64,5.473,1.644,11.335,2.317,15.644
			c0.658,4.297-9.594,13.289-12.586,16.029c-2.975,2.736-5.951,9.385-10.913,12.51c-4.97,3.137-15.564,5.862-17.21,4.69
			c-1.665-1.172-6.289,1.962-5.955,6.255c0.323,4.305,2.644,3.916,2.644,5.084c0,1.175-3.311,5.87-4.628,7.828
			c-1.327,1.946-5.962,0-5.295-5.866c0.658-5.873,3.968-8.217,3.632-10.957c-0.321-2.725-3.309-4.29-5.295-1.946
			c-1.984,2.343-8.27,8.988-8.27,8.988s2.319,7.042,5.295,9.782c2.975,2.74,4.961,6.637,8.943,12.506
			c3.968,5.87,0.99,10.946,0,15.254c-0.994,4.298-4.305,4.298-6.958,5.08c-2.655,0.775-3.311,1.954-4.305,4.305
			c-0.99,2.347-5.773,13.569-6.441,11.611c-0.661-1.954-4.806-15.141-4.806-15.141s-2.991-7.041-7.277-10.552
			c-4.309-3.515-5.953-5.08-5.953-1.554c0,3.515-2.653,10.152-2.653,12.503c0,2.347-5.964-7.038-5.964-10.949
			c0-3.904-0.994-10.557-0.657-16.804c0.334-6.259-6.949-0.404-6.949-0.404s-5.628,14.026-7.274,14.026
			c-1.665,0,0-12.847,0.319-17.541c0.333-4.687-1.648-8.992-2.638-10.553c-0.996-1.569-6.627-7.816-7.618-12.125
			c-0.99-4.301-2.978-2.733-4.959-0.382c-1.986,2.339-1.327,2.339-9.266,2.339c-7.948,0-7.614,5.866-11.596,9.385
			c-3.969,3.518-7.264,10.167-11.905,12.506c-4.636,2.343-6.62,4.69-6.62,7.431c0,2.737,1.869,11.754,0.879,15.663
			c-0.994,3.919-3.523,7.408-5.843,11.324c-2.317,3.908-4.298,10.156-6.282,10.156c-1.986,0-2.657-5.465-2.657-8.988
			c0-3.518-5.618-11.728-6.945-14.468c-1.323-2.737-6.284-14.854-6.284-14.854s-3.965-12.9-3.636-16.426
			c0.325-3.519,0.325-13.292,0.325-13.292s-5.291,6.259-7.612,5.862c-2.325-0.393-4.628-4.686-4.309-9.774
			c0.332-5.084-3.965-4.694-6.285-5.48c-2.317-0.779-5.293-7.809-6.945-7.809c-1.663,0-2.653,0-3.967,2.347
			c-1.326,2.343-8.272,1.946-9.936,1.946c-1.661,0-11.579-0.393-14.557-1.569c-2.976-1.168-6.287-8.205-7.948-8.98
			c-1.65-0.782-6.612,4.294-8.595,3.519c-1.984-0.779-5.962-4.698-10.271-7.042c-4.29-2.343-5.615-7.82-7.274-11.338
			c-1.653-3.511-7.281,1.954-6.626,5.866c0.671,3.904,7.952,8.995,7.952,11.735c0,2.725,1.323,3.515,4.957,7.03
			c3.649,3.515,0.667,5.477,2.979,6.252c2.321,0.782,5.628-3.13,8.938-5.076c3.315-1.965,2.979-4.69,4.638-4.69
			c1.651,0,1.317,5.08,3.972,5.465c2.636,0.397,9.598,5.084,11.246,8.22c1.663,3.122-1.648,5.08-2.978,7.809
			c-1.323,2.74-5.297,10.564-8.606,13.693c-3.311,3.129-6.945,7.423-11.915,8.595c-4.962,1.172-5.618,4.305-9.589,4.69
			c-3.969,0.393-14.892,6.656-16.551,7.832c-1.655,1.175-10.594,4.293-13.234,3.126c-2.653-1.175-3.643-8.995-4.637-14.861
			c-0.994-5.858-2.307-8.995-3.298-11.335c-0.994-2.347-6.958-8.602-8.285-9.774c-1.329-1.175-4.628-10.56-4.959-14.468
			c-0.336-3.912-3.97-2.355-4.628-6.644c-0.673-4.309-4.318-10.171-4.974-12.911c-0.654-2.74-7.28,0.397-9.919,0.786
			c-2.653,0.393-7.612-2.343-6.958-8.61c0.656-6.24,3.311-6.24,6.622-6.24c3.314,0,1.984-1.965,5.295-5.881
			c3.296-3.904,4.307-11.716,4.625-16.8c0.336-5.091-2.319-2.74-4.955-1.954c-2.648,0.775-6.622,1.954-7.939,1.557
			c-1.327-0.389-6.622-2.343-7.616-1.172c-1.003,1.172-6.618,0.389-7.937-1.561c-1.325-1.961-7.95-4.309-8.62-5.87
			c-0.654-1.565,0-10.942-1.325-13.297c-1.317-2.343-4.29,0.401-5.951,1.958c-1.653,1.569-6.278,2.74-4.961,3.912
			c1.327,1.172,5.628,3.519,5.293,6.637c-0.333,3.137-3.311,3.919-4.961,5.48c-1.65,1.569-7.676,7.756-8.666,5.802
			c-0.994-1.958-1.603-14.4-2.593-15.969c-0.99-1.553-3.967-5.465-4.961-8.991c-0.99-3.515-4.624-4.694-6.945-7.434
			c-2.317-2.725-8.939-7.034-11.583-10.156c-2.653-3.126-7.291-5.477-7.612-1.569c-0.336,3.916,4.637,4.69,6.62,8.602
			c1.986,3.916,6.289,6.255,8.596,7.431c2.317,1.171,8.616,6.255,8.616,6.255s-2.655,1.172-4.972,0.782
			c-2.317-0.386,1.307,8.433,0.99,11.158c-0.34,2.74-4.301-0.994-4.957-4.116c-0.669-3.133-2.655-6.652-3.971-7.824
			c-1.323-1.168-9.933-4.301-11.259-5.084c-1.325-0.782-6.943-5.084-7.601-8.602c-0.671-3.519-5.63-3.912-6.958-3.122
			c-1.327,0.775-6.287,5.069-8.604,5.069c-2.309,0-5.953-1.946-8.608-2.34c-2.644-0.382-2.974,5.084-3.967,8.213
			c-0.996,3.133-5.295,0.782-7.604,3.519c-2.319,2.744-6.301,5.484-5.305,7.827c1.001,2.343,2.651,2.343-0.323,4.294
			c-2.992,1.954-4.64,5.866-7.616,6.255c-2.977,0.393-6.943,1.954-8.606,0.782c-1.66-1.172-2.977,3.912-3.969,5.087
			c-0.994,1.179-2.653-3.515-4.303-5.476c-1.659-1.954-5.951-0.393-7.277-0.783c-1.329-0.393-2.657-3.912-4.305-5.473
			c-1.661-1.565-1.327-5.084,0-6.256c1.315-1.172,2.642-3.129,1.648-6.644c-0.99-3.522-1.648-11.346,1.663-12.903
			c3.313-1.569,11.248,0,15.217,0c3.98,0,10.781,1.625,11.917-0.786C678.144,247.838,678.812,243.93,678.48,240.404z
			 M803.245,171.586c-1.126,3.685,7.616,6.652,9.262,3.912C814.168,172.757,804.893,166.12,803.245,171.586z M791.995,266.219
			c0.658,1.557,3.969-2.355,6.612-2.355c2.64,0,8.606,1.179,10.269-1.561c1.648-2.74,6.941-3.13,11.246-2.351
			c4.301,0.786,7.948,4.305,10.923,4.694c2.978,0.397,10.913-0.389,13.567-1.172c2.64-0.783,1.984-6.263-2.317-8.988
			c-4.305-2.744-7.948-7.038-11.913-8.61c-3.974-1.557-5.301-3.126-2.984-3.908c2.324-0.782,5.301-3.908,1.986-3.908
			c-3.313,0-6.287,1.175-6.624,3.126c-0.318,1.961-2.319,4.301-3.628,5.084c-1.327,0.786-4.638,3.908-5.636,1.568
			c-0.99-2.351-4.62-9.388-6.283-9.777c-1.648-0.393-4.305,0-6.289,3.908c-1.984,3.908-4.301,7.828-6.285,9.385
			c-1.986,1.565-4.627,6.255-2.644,7.038C793.979,259.173,791.995,266.219,791.995,266.219z M867.781,238.836
			c-4.018,3.167-5.301,7.434-3.647,10.171c1.657,2.736,6.285,11.339,8.606,12.125c2.317,0.779,10.589,2.343,7.282,5.866
			c-3.311,3.519-3.971,4.69-6.955,4.294c-2.982-0.378-1.653,9.385,0.663,10.171c2.321,0.783,9.265,3.523,11.586,3.912
			c2.317,0.385,9.933-0.786,9.595-3.129c-0.333-2.351-1.66-11.728-4.301-14.072c-2.653-2.355,3.645-4.698,1.984-6.652
			c-1.659-1.958-3.967-1.175-5.297-3.515c-1.329-2.351-1.981-4.69-3.969-6.263c-1.984-1.565-3.634,1.572-3.307-2.736
			c0.332-4.301,4.957-7.038,6.941-4.687c1.988,2.339,7.949,1.168,9.277,0c1.327-1.172-2.655-4.698-3.645-7.049
			c-0.994-2.343-7.616-4.294-8.608-3.519c-0.99,0.794-3.632,3.137-6.285,5.084C875.057,240.793,869.766,237.271,867.781,238.836z"/>
		<path id="XMLID_26_" fill="#4296D2" d="M905.821,128.185c-2.432,2.899-7.599,1.95-11.242-0.393
			c-3.643-2.343-7.935-2.725-9.923-3.515c-1.981-0.779,0.323-5.477,2.642-6.644c2.321-1.176,8.604-4.698,13.245-7.042
			c4.625-2.343,5.953-7.034,9.264-7.034s19.198-3.912,21.18-3.126c1.981,0.783,11.569,1.557,13.567-1.569
			c1.984-3.129,8.926-1.175,7.283,1.569c-1.655,2.729-7.619,8.984-11.586,7.816c-3.969-1.175-15.231-0.778-20.188,0
			c-4.959,0.775-9.6,4.298-13.901,7.038c-4.305,2.74-3.311,5.87-1.65,6.255C906.161,121.93,907.811,125.841,905.821,128.185z"/>
		<path id="XMLID_25_" fill="#4296D2" d="M1240.741,206.003c-1.914,0.642-7.618-0.786-5.633,4.69
			c1.982,5.465,2.321,9.385,1.982,13.686c-0.32,4.305,0,13.289,0.671,14.457c0.659,1.175,3.301,3.916,4.96,3.133
			c1.652-0.782-0.667-8.595-0.667-10.163c0-1.569,2.319-3.912,3.646-4.301c1.326-0.385,0-7.037-1.661-9.781
			c-1.65-2.736-3.971-4.29-2.64-4.687c1.323-0.397,2.975-3.518,1.984-4.308C1242.389,207.949,1243.045,205.216,1240.741,206.003z"/>
		<path id="XMLID_24_" fill="#4296D2" d="M1237.429,245.877c-2.451,0.714-3.311,4.694-3.311,5.866c0,1.175-9.264,3.519-6.285,6.648
			c2.974,3.13,5.964,0.782,10.588,0.389c4.624-0.389,8.941-1.946,8.941-1.946s6.945,0.378,5.954-3.519
			c-0.994-3.912-8.277-4.309-9.6-3.912C1242.389,249.796,1240.069,245.102,1237.429,245.877z"/>
		<path id="XMLID_23_" fill="#4296D2" d="M1229.813,261.131c-2.436,1.731-0.99,8.61-2.975,13.296
			c-1.984,4.687-3.644,8.988-4.961,8.988c-1.331,0-8.272,3.129-10.265,5.473c-1.984,2.343-11.573-1.954-12.898,0
			c-1.33,1.965-3.97,4.309-5.635,5.862c-1.659,1.569-6.284,0.393-5.293,5.084c0.994,4.694,3.311,8.995,5.293,8.995
			c1.984,0,4.639-1.561,4.639-5.87c0-4.297,4.626,0,6.945-0.385c2.321-0.389,3.638-3.126,4.627-6.255
			c1.001-3.122-1.316,1.565,2.655,2.74c3.978,1.172,5.295-1.965,5.295-3.137c0-1.172,7.277-3.122,8.604-4.294
			c1.329-1.172,6.622-3.13,6.96-4.694c0.32-1.561,0-10.556,1.646-11.335c1.654-0.794,3.97-0.794,1.327-6.255
			C1233.124,263.864,1233.124,258.78,1229.813,261.131z"/>
		<path id="XMLID_22_" fill="#4296D2" d="M1157.005,338.147c-4.898,0.903-7.933,13.308-3.965,12.915
			C1157.005,350.673,1161.312,337.372,1157.005,338.147z"/>
		<path id="XMLID_21_" fill="#4296D2" d="M1361.2,614.989c-1.33,0.775,0,5.087,1.323,6.637c1.327,1.569,1.984,7.042,1.652,8.61
			c-0.325,1.561-5.957,3.519-3.311,5.469c2.653,1.965,7.612,0,6.955,2.343c-0.658,2.347-3.311,5.484-0.333,6.259
			c2.974,0.786,3.965-2.74,5.292-5.461c1.33-2.744,2.321-5.091,4.626-6.656c2.317-1.561,0-5.084-1.316-5.084
			c-1.326,0-1.98,1.954-4.959,0c-2.975-1.958-2.321-1.172-4.301-5.083C1364.84,618.108,1364.507,613.028,1361.2,614.989z"/>
		<path id="XMLID_20_" fill="#4296D2" d="M1358.543,640.018c-0.529,1.89-3.299,2.343-5.284,4.29c-1.984,1.958,0,2.74-5.632,6.652
			c-5.628,3.912-12.574,8.206-13.901,11.721c-1.312,3.526,1.327,5.48,6.626,5.87c5.291,0.393,3.961,1.568,7.612-3.126
			c3.636-4.69,6.943-7.431,11.248-11.335c4.305-3.916,4.305-9.781,4.305-9.781S1358.879,638.846,1358.543,640.018z"/>
		<path id="XMLID_19_" fill="#4296D2" d="M1248.021,643.136c-3.647,4.301,3.643,4.301,2.65,8.606
			c-0.989,4.301,4.958,2.732,6.616,1.958c1.646-0.782,5.628-9.789,4.957-12.132c-0.66-2.343-7.278,3.912-8.928,3.526
			C1251.664,644.704,1248.021,643.136,1248.021,643.136z"/>
		<path id="XMLID_18_" fill="#4296D2" d="M1223.862,612.646c0-3.995-1.984,4.29-3.315,0.775c-1.324-3.515,1.331-9.385-1.98-7.037
			c-3.311,2.351-4.961,4.297-5.295,6.263c-0.333,1.947-6.287,2.729-5.964,0.775c0.333-1.954,2.653-6.644,0.333-8.599
			c-2.321-1.969-6.287-2.744-9.262-3.916c-2.978-1.168,0.336-5.084-7.616-3.133c-7.935,1.966-10.911,4.305-10.911,4.305
			s-7.289-2.741-9.596,0.393c-2.321,3.126-3.638,13.077-3.638,13.077s-11.259-3.689-13.257-3.299
			c-1.984,0.397-5.28,3.515-8.258,4.687c-2.988,1.172-7.948,2.343-9.933,0.397c-1.98-1.958-5.292-5.473-4.301-7.82
			c0.99-2.347,8.271-5.477,5.628-9.392c-2.653-3.9-4.301-4.694-4.638-7.03c-0.333-2.351,0.99-3.519-2.976-8.217
			c-3.969-4.687-2.975-10.163-1.325-10.938c1.661-0.794-5.505-5.48-6.818-7.438c-1.331-1.958,3.184-8.988,5.828-10.949
			c2.652-1.95,10.587-9.381,12.907-9.381c2.317,0,5.951,1.175,8.272-0.783c2.317-1.954,9.26-1.172,9.26-2.736
			c0-1.565-1.924-14.154-0.274-16.101c1.661-1.961,11.203,2.415,12.196,0.843c0.987-1.554,2.636-8.198,4.621-9.373
			c1.997-1.175,3.651-3.904,6.635,0c2.975,3.912,5.955,5.477,7.268,1.565c1.328-3.908,0.334-2.74,3.311-6.255
			c2.979-3.519-0.332-9.389,2.655-5.874c2.976,3.523,4.961,6.263,4.961,6.263s-0.323-7.82,1.661-7.82
			c1.986,0,3.97,3.912,4.961,3.912c0.994,0,9.929-2.355,11.582,0.385c1.648,2.737-4.637,10.167-2.317,12.904
			c2.317,2.74,6.941,4.294,10.252,6.652c3.315,2.34,7.28,7.82,8.943,3.133c1.648-4.698,4.961-11.732,2.644-15.25
			c-2.307-3.519,0.667-14.869,1.657-15.644c0.994-0.778,2.644,8.988,5.955,13.297c3.311,4.297,6.622,7.423,8.272,12.106
			c1.661,4.698,1.984,12.911,4.959,15.651c2.977,2.741,14.438,2.536,14.1,6.059c-0.319,3.515,1.126,10.36,4.762,17.008
			c3.647,6.652,10.67,22.22,10.67,28.479c0,6.255-10.67,13.364-13.644,18.059c-2.978,4.687-3.972,10.945-5.284,13.289
			c-1.325,2.343-0.671,1.958-5.63,3.515c-4.974,1.565-8.604,6.255-9.933,4.694c-1.317-1.557-5.955-4.297-7.278-2.347
			c-1.327,1.958-2.98,6.251-5.299,1.565c-2.321-4.694-7.614-3.912-8.604-4.694c-0.994-0.775-0.994-3.13-0.994-7.042
			c0-3.897-4.297-4.293-4.638-5.465C1224.854,614.989,1223.862,613.818,1223.862,612.646z"/>
		<path id="XMLID_17_" fill="#4296D2" d="M1376.409,536c4.32,1.95,11.921-7.037,8.947-8.209
			C1382.381,526.612,1376.409,536,1376.409,536z"/>
		<path id="XMLID_16_" fill="#4296D2" d="M1334.395,555.548c-0.646,3.806-4.634,1.961-6.622-1.554c-1.992-3.519-5.956-6.259,0-4.694
			C1333.726,550.858,1334.724,553.598,1334.395,555.548z"/>
		<path id="XMLID_15_" fill="#4296D2" d="M1055.418,428.082c-4.11,0.975,5.957,9.392,6.947,10.564
			c0.992,1.172,9.931,10.159,9.931,14.468c0,4.301,2.88,17.681,4.534,19.242c1.657,1.572,13.001,4.218,14.328,7.347
			c1.327,3.118,4.301,3.908,4.301-0.397c0-4.301,0.659-9.389,2.307-11.732c1.661-2.351,0.994-5.87-1.648-5.469
			c-2.644,0.393-4.96-5.087-9.265-8.602c-4.301-3.523-7.608-5.866-11.579-10.946c-3.967-5.084-8.942-8.213-11.586-10.953
			C1061.036,428.865,1057.07,427.697,1055.418,428.082z"/>
		<path id="XMLID_14_" fill="#4296D2" d="M1068.316,407.363c-2.64,0.389-2.64,6.259-1.325,8.217c1.325,1.95,3.978,0.782,5.626,7.812
			c1.663,7.038,4.974,14.083,6.291,16.823c1.323,2.725,6.958,6.637,8.938,8.591c1.984,1.958,4.961-0.779,3.645-3.126
			c-1.328-2.347-3.982-5.862-4.318-8.602c-0.321-2.732-1.984-7.037-4.622-11.732c-2.653-4.694-4.961-5.866-6.622-8.984
			C1074.28,413.225,1068.316,407.363,1068.316,407.363z"/>
		<path id="XMLID_13_" fill="#4296D2" d="M1096.118,481.268c-2.419,3.56,0.658,6.251,1.648,7.03
			c0.994,0.779,4.638,1.561,7.952,1.172c3.311-0.393,7.935-1.564,4.301-3.908c-3.645-2.343-7.946,0-9.277-3.122
			C1099.427,479.307,1097.449,479.307,1096.118,481.268z"/>
		<path id="XMLID_12_" fill="#4296D2" d="M1115.315,484.39c-2.319,1.172-5.953,1.947-3.311,4.687
			c2.644,2.74,4.303,3.912,8.271,3.526c3.971-0.397,9.937,2.343,10.256,0c0.337-2.343-3.634-5.87-5.282-5.87
			C1123.586,486.733,1115.315,484.39,1115.315,484.39z"/>
		<path id="XMLID_11_" fill="#4296D2" d="M1147.745,497.297c-0.745,3.493,4.959,5.084,5.295,1.172
			C1153.36,494.557,1148.412,494.168,1147.745,497.297z"/>
		<path id="XMLID_10_" fill="#4296D2" d="M1165.29,500.034c0.514,4.275,7.272-2.347,7.272-2.347s5.301-0.779,5.301-3.519
			c0-2.74-5.301-6.263-7.292-3.133C1168.588,494.168,1164.957,497.297,1165.29,500.034z"/>
		<path id="XMLID_9_" fill="#4296D2" d="M1150.72,456.244c-1.984,0.775-1.648,2.74-2.307,6.641
			c-0.667,3.912-3.643,6.648-1.004,8.606c2.653,1.954,7.616-6.648,8.942-3.916c1.327,2.74-0.334,3.916,1.984,7.431
			c2.317,3.523,6.622,3.129,6.622,3.129s-0.335-9.385-3.972-11.735c-3.644-2.347-5.96-5.072-1.663-4.294
			c4.311,0.779,6.627-1.175,5.635-3.515c-0.99-2.347-7.28-1.175-9.277-0.782C1153.7,458.19,1150.72,456.244,1150.72,456.244z"/>
		<path id="XMLID_8_" fill="#4296D2" d="M1152.704,448.42c-2.304,2.729-0.658,5.469,2.976,5.084
			c3.642-0.389,11.263-1.569,12.907-1.569c1.667,0,3.974-5.084,2.653-5.084c-1.327,0-10.588,1.954-11.583,2.351
			C1158.668,449.592,1152.704,448.42,1152.704,448.42z"/>
		<path id="XMLID_7_" fill="#4296D2" d="M1186.457,442.94c-3.035-1.531-8.595,12.907-4.62,14.079
			C1185.802,458.19,1188.78,444.111,1186.457,442.94z"/>
		<path id="XMLID_6_" fill="#4296D2" d="M1141.12,422.224c-0.129-2.763-5.293,0.775-5.632,3.515c-0.319,2.74,3.651,5.083-2.64,5.083
			c-6.282,0-6.609,5.87-7.935,7.049c-1.327,1.172-2.657,1.55-5.305,2.343c-2.644,0.775-3.301,3.897-3.969,5.858
			c-0.66,1.954-5.284-3.515-6.61-1.962c-1.327,1.569-0.336,9.003,1.98,15.258c2.321,6.251,8.275,10.163,9.921,10.163
			c1.665,0,4.976,0,7.293,0.782c2.307,0.775,9.919,1.557,9.589-1.958c-0.327-3.515-0.994-8.988,2.321-12.511
			c3.311-3.515,6.618-5.473,4.968-10.56c-1.657-5.072-4.968-8.209-2.651-10.552c2.319-2.347,4.959-3.129,4.959-5.087
			C1147.409,427.697,1141.79,435.131,1141.12,422.224z"/>
		<path id="XMLID_5_" fill="#4296D2" d="M1157.341,367.091c-2.317,0,0.336,4.305-2.975,7.042c-3.311,2.729-6.958,3.9-4.974,8.595
			c1.982,4.698,8.942,8.217,7.281,10.175c-1.649,1.95-6.612,5.858-7.281,9.377c-0.657,3.515,7.948-5.48,10.265-8.995
			c2.317-3.515,6.949-1.557,7.943-3.515c0.987-1.958,0.987-1.958,0.987-1.958s-3.63-0.782-6.612-1.954
			c-2.984-1.175-6.618,3.13-4.97-3.13c1.663-6.252,6.627-5.08,5.632-9.77C1161.648,368.267,1158.335,367.091,1157.341,367.091z"/>
		<path id="XMLID_4_" fill="#4296D2" d="M1160.318,401.107c-1.126,0.484-3.967,7.431-0.323,7.431c3.638,0,9.92,1.175,8.593-0.786
			C1167.274,405.794,1163.967,399.543,1160.318,401.107z"/>
		<path id="XMLID_3_" fill="#4296D2" d="M1171.241,395.245c-1.327-0.109-5.624,8.206,0.323,7.813
			C1177.536,402.676,1175.873,395.631,1171.241,395.245z"/>
		<path id="XMLID_2_" fill="#4296D2" d="M1172.235,409.713c-4.634,7.042-4.301,5.473-7.612,3.908
			c-3.311-1.561-8.606,3.515-7.618,5.48c0.992,1.946,8.285-0.397,9.938,3.122c1.644,3.515,1.644,3.908,4.957,3.122
			c3.309-0.779,6.62-6.244,5.635-8.984C1176.54,413.622,1172.235,409.713,1172.235,409.713z"/>
		<path id="XMLID_1_" fill="#4296D2" d="M1194.744,455.847c-2.491,2.937-3.647,3.137,1.984,4.309
			c5.616,1.172,7.281,1.172,4.961,4.294c-2.321,3.126-3.971,7.041-1.984,7.423c1.984,0.401,7.935-1.557,8.597,0
			c0.665,1.572-1.317,1.958,5.305,3.133c6.61,1.183,7.935,3.919,9.262,5.473c1.319,1.569,5.297,6.652,2.647,6.652
			c-2.647,0-5.622,3.904-3.638,4.297c1.984,0.389,7.935-1.168,8.272,0c0.336,1.175,3.647,8.606,6.941,8.217
			c3.314-0.401,5.299-7.438,6.949-9.385c1.661-1.962,8.283-3.129,8.937,0.385c0.673,3.522,2.653,7.041,6.624,9.388
			c3.972,2.347,8.606,4.694,8.942,2.729c0.319-1.95-1.997-9.377-4.637-10.556c-2.652-1.172-7.278-7.816-7.278-10.557
			c0-2.725-3.969-3.515-5.956-5.461c-1.994-1.958-3.644-7.438-8.616-8.614c-4.964-1.175-6.278-3.126-11.569-6.247
			c-5.31-3.137-17.214-3.137-17.547-1.172c-0.327,1.95,0,0-3.972-1.565c-3.967-1.572-6.941,0-7.935-2.744
			C1200.039,453.114,1197.719,452.332,1194.744,455.847z"/>
	</g>
</g>
<g id="XMLID_79_">
	<path id="XMLID_129_" fill="#226C99" d="M223.719,217.345c-3.187,0-8.655,2.608-12.073,5.795l-9.09,8.477
		c-2.514,2.345-3.24,4.371-2.182,5.281c-0.871,1.736-1.608,3.311-2.022,4.102c1.284-0.791,3.923-2.366,6.776-4.102
		c3.009-0.91,6.631-2.937,9.145-5.281l9.09-8.477C226.781,219.952,226.906,217.345,223.719,217.345z"/>
	<g id="XMLID_93_">
		<polygon id="XMLID_128_" fill="none" points="194.323,215 194.355,215.049 196.189,217.858 		"/>
		<path id="XMLID_98_" fill="#CF2D27" d="M200,200.625c-5.44,0-10,4.451-10,9.891v14.469c0,4.002,2.472,7.461,5.942,9.014
			c1.692,2.964,3.315,5.651,4.058,7.001c0.743-1.35,2.366-4.038,4.058-7.001c3.47-1.553,5.942-5.012,5.942-9.014v-14.469
			C210,205.076,205.44,200.625,200,200.625z"/>
		<path id="XMLID_97_" fill="#FFFFFF" d="M201.914,220h0.127H203v4.792c0,1.73-1.378,3.139-2.999,3.139
			c-1.622,0-3.001-1.408-3.001-3.139V219h-2v5.792c0,2.586,2.411,4.689,5,4.689c2.587,0,5-2.103,5-4.689V220h0.646l-1.866-2.859
			L201.914,220z"/>
		<path id="XMLID_96_" fill="#FFFFFF" d="M198.054,215H197v-1.013v-3.281c0-1.73,1.378-3.137,3-3.137c1.622,0,3,1.408,3,3.137v3.281
			V216h2v-1.295v-3.999c0-2.585-2.412-4.687-5-4.687c-2.588,0-5,2.102-5,4.687v3.999V215h-0.565h-0.112l1.866,2.858L198.054,215z"/>
	</g>
</g>
<g id="XMLID_130_">
	<path id="XMLID_136_" fill="#226C99" d="M197.719,177.345c-3.187,0-8.655,2.608-12.073,5.795l-9.09,8.477
		c-2.514,2.345-3.24,4.371-2.182,5.281c-0.871,1.736-1.608,3.311-2.022,4.102c1.284-0.791,3.923-2.366,6.776-4.102
		c3.009-0.91,6.631-2.937,9.145-5.281l9.09-8.477C200.781,179.952,200.906,177.345,197.719,177.345z"/>
	<g id="XMLID_131_">
		<polygon id="XMLID_135_" fill="none" points="168.323,175 168.355,175.049 170.189,177.858 		"/>
		<path id="XMLID_134_" fill="#CF2D27" d="M174,160.625c-5.44,0-10,4.451-10,9.891v14.469c0,4.002,2.472,7.461,5.942,9.014
			c1.692,2.964,3.315,5.651,4.058,7.001c0.743-1.35,2.366-4.038,4.058-7.001c3.47-1.553,5.942-5.012,5.942-9.014v-14.469
			C184,165.076,179.44,160.625,174,160.625z"/>
		<path id="XMLID_133_" fill="#FFFFFF" d="M175.914,180h0.127H177v4.792c0,1.73-1.378,3.139-2.999,3.139
			c-1.622,0-3.001-1.408-3.001-3.139V179h-2v5.792c0,2.586,2.411,4.689,5,4.689c2.587,0,5-2.103,5-4.689V180h0.646l-1.866-2.859
			L175.914,180z"/>
		<path id="XMLID_132_" fill="#FFFFFF" d="M172.054,175H171v-1.013v-3.281c0-1.73,1.378-3.137,3-3.137c1.622,0,3,1.408,3,3.137
			v3.281V176h2v-1.295v-3.999c0-2.585-2.412-4.687-5-4.687c-2.588,0-5,2.102-5,4.687v3.999V175h-0.565h-0.112l1.866,2.858
			L172.054,175z"/>
	</g>
</g>
<g id="XMLID_74_">
	<path id="XMLID_122_" fill="#226C99" d="M300.719,289.345c-3.187,0-8.655,2.608-12.073,5.795l-9.09,8.477
		c-2.514,2.345-3.24,4.371-2.182,5.281c-0.871,1.736-1.608,3.311-2.022,4.102c1.284-0.791,3.923-2.366,6.776-4.102
		c3.009-0.91,6.631-2.937,9.145-5.281l9.09-8.477C303.781,291.952,303.906,289.345,300.719,289.345z"/>
	<g id="XMLID_75_">
		<polygon id="XMLID_121_" fill="none" points="271.323,287 271.355,287.049 273.189,289.858 		"/>
		<path id="XMLID_78_" fill="#CF2D27" d="M277,272.625c-5.44,0-10,4.451-10,9.891v14.469c0,4.002,2.472,7.461,5.942,9.014
			c1.692,2.964,3.315,5.651,4.058,7.001c0.743-1.35,2.366-4.038,4.058-7.001c3.47-1.553,5.942-5.012,5.942-9.014v-14.469
			C287,277.076,282.44,272.625,277,272.625z"/>
		<path id="XMLID_77_" fill="#FFFFFF" d="M278.914,292h0.127H280v4.792c0,1.73-1.378,3.139-2.999,3.139
			c-1.622,0-3.001-1.408-3.001-3.139V291h-2v5.792c0,2.586,2.411,4.689,5,4.689c2.587,0,5-2.103,5-4.689V292h0.646l-1.866-2.859
			L278.914,292z"/>
		<path id="XMLID_76_" fill="#FFFFFF" d="M275.054,287H274v-1.013v-3.281c0-1.73,1.378-3.137,3-3.137c1.622,0,3,1.408,3,3.137v3.281
			V288h2v-1.295v-3.999c0-2.585-2.412-4.687-5-4.687c-2.588,0-5,2.102-5,4.687v3.999V287h-0.565h-0.112l1.866,2.858L275.054,287z"/>
	</g>
</g>
<g id="XMLID_101_">
	<path id="XMLID_127_" fill="#226C99" d="M360.719,278.345c-3.187,0-8.655,2.608-12.073,5.795l-9.09,8.477
		c-2.514,2.345-3.24,4.371-2.182,5.281c-0.871,1.736-1.608,3.311-2.022,4.102c1.284-0.791,3.923-2.366,6.776-4.102
		c3.009-0.91,6.631-2.937,9.145-5.281l9.09-8.477C363.781,280.952,363.906,278.345,360.719,278.345z"/>
	<g id="XMLID_102_">
		<polygon id="XMLID_125_" fill="none" points="331.323,276 331.355,276.049 333.189,278.858 		"/>
		<path id="XMLID_105_" fill="#CF2D27" d="M337,261.625c-5.44,0-10,4.451-10,9.891v14.469c0,4.002,2.472,7.461,5.942,9.014
			c1.692,2.964,3.315,5.651,4.058,7.001c0.743-1.35,2.366-4.038,4.058-7.001c3.47-1.553,5.942-5.012,5.942-9.014v-14.469
			C347,266.076,342.44,261.625,337,261.625z"/>
		<path id="XMLID_104_" fill="#FFFFFF" d="M338.914,281h0.127H340v4.792c0,1.73-1.378,3.139-2.999,3.139
			c-1.622,0-3.001-1.408-3.001-3.139V280h-2v5.792c0,2.586,2.411,4.689,5,4.689c2.587,0,5-2.103,5-4.689V281h0.646l-1.866-2.859
			L338.914,281z"/>
		<path id="XMLID_103_" fill="#FFFFFF" d="M335.054,276H334v-1.013v-3.281c0-1.73,1.378-3.137,3-3.137c1.622,0,3,1.408,3,3.137
			v3.281V277h2v-1.295v-3.999c0-2.585-2.412-4.687-5-4.687c-2.588,0-5,2.102-5,4.687v3.999V276h-0.565h-0.112l1.866,2.858
			L335.054,276z"/>
	</g>
</g>
<g id="XMLID_147_">
	<path id="XMLID_153_" fill="#226C99" d="M420.719,238.345c-3.187,0-8.655,2.608-12.073,5.795l-9.09,8.477
		c-2.514,2.345-3.24,4.371-2.182,5.281c-0.871,1.736-1.608,3.311-2.022,4.102c1.284-0.791,3.923-2.366,6.776-4.102
		c3.009-0.91,6.631-2.937,9.145-5.281l9.09-8.477C423.781,240.952,423.906,238.345,420.719,238.345z"/>
	<g id="XMLID_148_">
		<polygon id="XMLID_152_" fill="none" points="391.323,236 391.355,236.049 393.189,238.858 		"/>
		<path id="XMLID_151_" fill="#CF2D27" d="M397,221.625c-5.44,0-10,4.451-10,9.891v14.469c0,4.002,2.472,7.461,5.942,9.014
			c1.692,2.964,3.315,5.651,4.058,7.001c0.743-1.35,2.366-4.038,4.058-7.001c3.47-1.553,5.942-5.012,5.942-9.014v-14.469
			C407,226.076,402.44,221.625,397,221.625z"/>
		<path id="XMLID_150_" fill="#FFFFFF" d="M398.914,241h0.127H400v4.792c0,1.73-1.378,3.139-2.999,3.139
			c-1.622,0-3.001-1.408-3.001-3.139V240h-2v5.792c0,2.586,2.411,4.689,5,4.689c2.587,0,5-2.103,5-4.689V241h0.646l-1.866-2.859
			L398.914,241z"/>
		<path id="XMLID_149_" fill="#FFFFFF" d="M395.054,236H394v-1.013v-3.281c0-1.73,1.378-3.137,3-3.137c1.622,0,3,1.408,3,3.137
			v3.281V237h2v-1.295v-3.999c0-2.585-2.412-4.687-5-4.687c-2.588,0-5,2.102-5,4.687v3.999V236h-0.565h-0.112l1.866,2.858
			L395.054,236z"/>
	</g>
</g>
<g id="XMLID_69_">
	<path id="XMLID_138_" fill="#226C99" d="M1143.719,329.345c-3.187,0-8.655,2.608-12.073,5.795l-9.09,8.477
		c-2.514,2.345-3.24,4.371-2.182,5.281c-0.871,1.736-1.608,3.311-2.022,4.102c1.284-0.791,3.923-2.366,6.776-4.102
		c3.009-0.91,6.631-2.937,9.145-5.281l9.09-8.477C1146.781,331.952,1146.906,329.345,1143.719,329.345z"/>
	<g id="XMLID_70_">
		<polygon id="XMLID_137_" fill="none" points="1114.323,327 1114.355,327.049 1116.189,329.858 		"/>
		<path id="XMLID_73_" fill="#CF2D27" d="M1120,312.625c-5.44,0-10,4.451-10,9.891v14.469c0,4.002,2.472,7.461,5.942,9.014
			c1.692,2.964,3.315,5.651,4.058,7.001c0.743-1.35,2.366-4.038,4.058-7.001c3.47-1.553,5.942-5.012,5.942-9.014v-14.469
			C1130,317.076,1125.44,312.625,1120,312.625z"/>
		<path id="XMLID_72_" fill="#FFFFFF" d="M1121.914,332h0.127H1123v4.792c0,1.73-1.378,3.139-3,3.139c-1.622,0-3-1.408-3-3.139V331
			h-2v5.792c0,2.586,2.411,4.689,5,4.689c2.587,0,5-2.103,5-4.689V332h0.646l-1.866-2.859L1121.914,332z"/>
		<path id="XMLID_71_" fill="#FFFFFF" d="M1118.054,327H1117v-1.013v-3.281c0-1.73,1.378-3.137,3-3.137c1.621,0,3,1.408,3,3.137
			v3.281V328h2v-1.295v-3.999c0-2.585-2.412-4.687-5-4.687c-2.588,0-5,2.102-5,4.687v3.999V327h-0.565h-0.112l1.866,2.858
			L1118.054,327z"/>
	</g>
</g>
<g id="XMLID_161_">
	<path id="XMLID_167_" fill="#226C99" d="M1251.719,264.345c-3.187,0-8.655,2.608-12.073,5.795l-9.09,8.477
		c-2.514,2.345-3.24,4.371-2.182,5.281c-0.871,1.736-1.608,3.311-2.022,4.102c1.284-0.791,3.923-2.366,6.776-4.102
		c3.009-0.91,6.631-2.937,9.145-5.281l9.09-8.477C1254.781,266.952,1254.906,264.345,1251.719,264.345z"/>
	<g id="XMLID_162_">
		<polygon id="XMLID_166_" fill="none" points="1222.323,262 1222.355,262.049 1224.189,264.858 		"/>
		<path id="XMLID_165_" fill="#CF2D27" d="M1228,247.625c-5.44,0-10,4.451-10,9.891v14.469c0,4.002,2.472,7.461,5.942,9.014
			c1.692,2.964,3.315,5.651,4.058,7.001c0.743-1.35,2.366-4.038,4.058-7.001c3.47-1.553,5.942-5.012,5.942-9.014v-14.469
			C1238,252.076,1233.44,247.625,1228,247.625z"/>
		<path id="XMLID_164_" fill="#FFFFFF" d="M1229.914,267h0.127H1231v4.792c0,1.73-1.378,3.139-2.999,3.139
			c-1.622,0-3.001-1.408-3.001-3.139V266h-2v5.792c0,2.586,2.411,4.689,5,4.689c2.587,0,5-2.103,5-4.689V267h0.646l-1.866-2.859
			L1229.914,267z"/>
		<path id="XMLID_163_" fill="#FFFFFF" d="M1226.054,262H1225v-1.013v-3.281c0-1.73,1.378-3.137,3-3.137c1.622,0,3,1.408,3,3.137
			v3.281V263h2v-1.295v-3.999c0-2.585-2.412-4.687-5-4.687c-2.588,0-5,2.102-5,4.687v3.999V262h-0.565h-0.112l1.866,2.858
			L1226.054,262z"/>
	</g>
</g>
<g id="XMLID_139_">
	<path id="XMLID_145_" fill="#226C99" d="M709.719,213.345c-3.187,0-8.655,2.608-12.073,5.795l-9.091,8.477
		c-2.514,2.345-3.24,4.371-2.182,5.281c-0.871,1.736-1.608,3.311-2.022,4.102c1.284-0.791,3.923-2.366,6.776-4.102
		c3.009-0.91,6.631-2.937,9.145-5.281l9.09-8.477C712.781,215.952,712.906,213.345,709.719,213.345z"/>
	<g id="XMLID_140_">
		<polygon id="XMLID_144_" fill="none" points="680.323,211 680.355,211.049 682.189,213.858 		"/>
		<path id="XMLID_143_" fill="#CF2D27" d="M686,196.625c-5.44,0-10,4.451-10,9.891v14.469c0,4.002,2.472,7.461,5.942,9.014
			c1.692,2.964,3.315,5.651,4.058,7.001c0.743-1.35,2.366-4.038,4.058-7.001c3.47-1.553,5.942-5.012,5.942-9.014v-14.469
			C696,201.076,691.44,196.625,686,196.625z"/>
		<path id="XMLID_142_" fill="#FFFFFF" d="M687.914,216h0.127H689v4.792c0,1.73-1.378,3.139-2.999,3.139
			c-1.622,0-3.001-1.408-3.001-3.139V215h-2v5.792c0,2.586,2.411,4.689,5,4.689c2.587,0,5-2.103,5-4.689V216h0.646l-1.866-2.859
			L687.914,216z"/>
		<path id="XMLID_141_" fill="#FFFFFF" d="M684.054,211H683v-1.013v-3.281c0-1.73,1.378-3.137,3-3.137c1.622,0,3,1.408,3,3.137
			v3.281V212h2v-1.295v-3.999c0-2.585-2.412-4.687-5-4.687c-2.588,0-5,2.102-5,4.687v3.999V211h-0.565h-0.112l1.866,2.858
			L684.054,211z"/>
	</g>
</g>
<g id="XMLID_168_">
	<path id="XMLID_174_" fill="#226C99" d="M705.719,249.345c-3.187,0-8.655,2.608-12.073,5.795l-9.091,8.477
		c-2.514,2.345-3.24,4.371-2.182,5.281c-0.871,1.736-1.608,3.311-2.022,4.102c1.284-0.791,3.923-2.366,6.776-4.102
		c3.009-0.91,6.631-2.937,9.145-5.281l9.09-8.477C708.781,251.952,708.906,249.345,705.719,249.345z"/>
	<g id="XMLID_169_">
		<polygon id="XMLID_173_" fill="none" points="676.323,247 676.355,247.049 678.189,249.858 		"/>
		<path id="XMLID_172_" fill="#5ECC1D" d="M682,232.625c-5.44,0-10,4.451-10,9.891v14.469c0,4.002,2.472,7.461,5.942,9.014
			c1.692,2.964,3.315,5.651,4.058,7.001c0.743-1.35,2.366-4.038,4.058-7.001c3.47-1.553,5.942-5.012,5.942-9.014v-14.469
			C692,237.076,687.44,232.625,682,232.625z"/>
		<path id="XMLID_171_" fill="#FFFFFF" d="M683.914,252h0.127H685v4.792c0,1.73-1.378,3.139-2.999,3.139
			c-1.622,0-3.001-1.408-3.001-3.139V251h-2v5.792c0,2.586,2.411,4.689,5,4.689c2.587,0,5-2.103,5-4.689V252h0.646l-1.866-2.859
			L683.914,252z"/>
		<path id="XMLID_170_" fill="#FFFFFF" d="M680.054,247H679v-1.013v-3.281c0-1.73,1.378-3.137,3-3.137c1.622,0,3,1.408,3,3.137
			v3.281V248h2v-1.295v-3.999c0-2.585-2.412-4.687-5-4.687c-2.588,0-5,2.102-5,4.687v3.999V247h-0.565h-0.112l1.866,2.858
			L680.054,247z"/>
	</g>
</g>
<g id="XMLID_118_">
	<path id="XMLID_117_" fill="#226C99" d="M239.719,238.345c-3.187,0-8.655,2.608-12.073,5.795l-9.09,8.477
		c-2.514,2.345-3.24,4.371-2.182,5.281c-0.871,1.736-1.608,3.311-2.022,4.102c1.284-0.791,3.923-2.366,6.776-4.102
		c3.009-0.91,6.631-2.937,9.145-5.281l9.09-8.477C242.781,240.952,242.906,238.345,239.719,238.345z"/>
	<g id="XMLID_112_">
		<polygon id="XMLID_116_" fill="none" points="210.323,236 210.355,236.049 212.189,238.858 		"/>
		<path id="XMLID_115_" fill="#CF2D27" d="M216,221.625c-5.44,0-10,4.451-10,9.891v14.469c0,4.002,2.472,7.461,5.942,9.014
			c1.692,2.964,3.315,5.651,4.058,7.001c0.743-1.35,2.366-4.038,4.058-7.001c3.47-1.553,5.942-5.012,5.942-9.014v-14.469
			C226,226.076,221.44,221.625,216,221.625z"/>
		<path id="XMLID_114_" fill="#FFFFFF" d="M217.914,241h0.127H219v4.792c0,1.73-1.378,3.139-2.999,3.139
			c-1.622,0-3.001-1.408-3.001-3.139V240h-2v5.792c0,2.586,2.411,4.689,5,4.689c2.587,0,5-2.103,5-4.689V241h0.646l-1.866-2.859
			L217.914,241z"/>
		<path id="XMLID_113_" fill="#FFFFFF" d="M214.054,236H213v-1.013v-3.281c0-1.73,1.378-3.137,3-3.137c1.622,0,3,1.408,3,3.137
			v3.281V237h2v-1.295v-3.999c0-2.585-2.412-4.687-5-4.687c-2.588,0-5,2.102-5,4.687v3.999V236h-0.565h-0.112l1.866,2.858
			L214.054,236z"/>
	</g>
</g>
<g id="XMLID_107_">
	<path id="XMLID_120_" fill="#226C99" d="M230.719,256.345c-3.187,0-8.655,2.608-12.073,5.795l-9.09,8.477
		c-2.514,2.345-3.24,4.371-2.182,5.281c-0.871,1.736-1.608,3.311-2.022,4.102c1.284-0.791,3.923-2.366,6.776-4.102
		c3.009-0.91,6.631-2.937,9.145-5.281l9.09-8.477C233.781,258.952,233.906,256.345,230.719,256.345z"/>
	<g id="XMLID_108_">
		<polygon id="XMLID_119_" fill="none" points="201.323,254 201.355,254.049 203.189,256.858 		"/>
		<path id="XMLID_111_" fill="#CF2D27" d="M207,239.625c-5.44,0-10,4.451-10,9.891v14.469c0,4.002,2.472,7.461,5.942,9.014
			c1.692,2.964,3.315,5.651,4.058,7.001c0.743-1.35,2.366-4.038,4.058-7.001c3.47-1.553,5.942-5.012,5.942-9.014v-14.469
			C217,244.076,212.44,239.625,207,239.625z"/>
		<path id="XMLID_110_" fill="#FFFFFF" d="M208.914,259h0.127H210v4.792c0,1.73-1.378,3.139-2.999,3.139
			c-1.622,0-3.001-1.408-3.001-3.139V258h-2v5.792c0,2.586,2.411,4.689,5,4.689c2.587,0,5-2.103,5-4.689V259h0.646l-1.866-2.859
			L208.914,259z"/>
		<path id="XMLID_109_" fill="#FFFFFF" d="M205.054,254H204v-1.013v-3.281c0-1.73,1.378-3.137,3-3.137c1.622,0,3,1.408,3,3.137
			v3.281V255h2v-1.295v-3.999c0-2.585-2.412-4.687-5-4.687c-2.588,0-5,2.102-5,4.687v3.999V254h-0.565h-0.112l1.866,2.858
			L205.054,254z"/>
	</g>
</g>
<g id="XMLID_154_">
	<path id="XMLID_160_" fill="#226C99" d="M242.719,274.345c-3.187,0-8.655,2.608-12.073,5.795l-9.09,8.477
		c-2.514,2.345-3.24,4.371-2.182,5.281c-0.871,1.736-1.608,3.311-2.022,4.102c1.284-0.791,3.923-2.366,6.776-4.102
		c3.009-0.91,6.631-2.937,9.145-5.281l9.09-8.477C245.781,276.952,245.906,274.345,242.719,274.345z"/>
	<g id="XMLID_155_">
		<polygon id="XMLID_159_" fill="none" points="213.323,272 213.355,272.049 215.189,274.858 		"/>
		<path id="XMLID_158_" fill="#CF2D27" d="M219,257.625c-5.44,0-10,4.451-10,9.891v14.469c0,4.002,2.472,7.461,5.942,9.014
			c1.692,2.964,3.315,5.651,4.058,7.001c0.743-1.35,2.366-4.038,4.058-7.001c3.47-1.553,5.942-5.012,5.942-9.014v-14.469
			C229,262.076,224.44,257.625,219,257.625z"/>
		<path id="XMLID_157_" fill="#FFFFFF" d="M220.914,277h0.127H222v4.792c0,1.73-1.378,3.139-2.999,3.139
			c-1.622,0-3.001-1.408-3.001-3.139V276h-2v5.792c0,2.586,2.411,4.689,5,4.689c2.587,0,5-2.103,5-4.689V277h0.646l-1.866-2.859
			L220.914,277z"/>
		<path id="XMLID_156_" fill="#FFFFFF" d="M217.054,272H216v-1.013v-3.281c0-1.73,1.378-3.137,3-3.137c1.622,0,3,1.408,3,3.137
			v3.281V273h2v-1.295v-3.999c0-2.585-2.412-4.687-5-4.687c-2.588,0-5,2.102-5,4.687v3.999V272h-0.565h-0.112l1.866,2.858
			L217.054,272z"/>
	</g>
</g>
<g id="XMLID_65_">
	<path id="XMLID_124_" fill="#226C99" d="M320.719,298.345c-3.187,0-8.655,2.608-12.073,5.795l-9.09,8.477
		c-2.514,2.345-3.24,4.371-2.182,5.281c-0.871,1.736-1.608,3.311-2.022,4.102c1.284-0.791,3.923-2.366,6.776-4.102
		c3.009-0.91,6.631-2.937,9.145-5.281l9.09-8.477C323.781,300.952,323.906,298.345,320.719,298.345z"/>
	<g id="XMLID_68_">
		<polygon id="XMLID_123_" fill="none" points="291.323,296 291.355,296.049 293.189,298.858 		"/>
		<path id="XMLID_100_" fill="#CF2D27" d="M297,281.625c-5.44,0-10,4.451-10,9.891v14.469c0,4.002,2.472,7.461,5.942,9.014
			c1.692,2.964,3.315,5.651,4.058,7.001c0.743-1.35,2.366-4.038,4.058-7.001c3.47-1.553,5.942-5.012,5.942-9.014v-14.469
			C307,286.076,302.44,281.625,297,281.625z"/>
		<path id="XMLID_99_" fill="#FFFFFF" d="M298.914,301h0.127H300v4.792c0,1.73-1.378,3.139-2.999,3.139
			c-1.622,0-3.001-1.408-3.001-3.139V300h-2v5.792c0,2.586,2.411,4.689,5,4.689c2.587,0,5-2.103,5-4.689V301h0.646l-1.866-2.859
			L298.914,301z"/>
		<path id="XMLID_95_" fill="#FFFFFF" d="M295.054,296H294v-1.013v-3.281c0-1.73,1.378-3.137,3-3.137c1.622,0,3,1.408,3,3.137v3.281
			V297h2v-1.295v-3.999c0-2.585-2.412-4.687-5-4.687c-2.588,0-5,2.102-5,4.687v3.999V296h-0.565h-0.112l1.866,2.858L295.054,296z"/>
	</g>
</g>
<g id="XMLID_80_">
	<path id="XMLID_86_" fill="#226C99" d="M1292.719,590.345c-3.187,0-8.655,2.608-12.073,5.795l-9.09,8.477
		c-2.514,2.345-3.24,4.371-2.182,5.281c-0.871,1.736-1.608,3.311-2.022,4.102c1.284-0.791,3.923-2.366,6.776-4.102
		c3.009-0.91,6.631-2.937,9.145-5.281l9.09-8.477C1295.781,592.952,1295.906,590.345,1292.719,590.345z"/>
	<g id="XMLID_81_">
		<polygon id="XMLID_85_" fill="none" points="1263.323,588 1263.355,588.049 1265.189,590.858 		"/>
		<path id="XMLID_84_" fill="#5ECC1D" d="M1269,573.625c-5.44,0-10,4.451-10,9.891v14.469c0,4.002,2.472,7.461,5.942,9.014
			c1.692,2.964,3.315,5.651,4.058,7.001c0.743-1.35,2.366-4.038,4.058-7.001c3.47-1.553,5.942-5.012,5.942-9.014v-14.469
			C1279,578.076,1274.44,573.625,1269,573.625z"/>
		<path id="XMLID_83_" fill="#FFFFFF" d="M1270.914,593h0.127H1272v4.792c0,1.73-1.378,3.139-3,3.139c-1.622,0-3-1.408-3-3.139V592
			h-2v5.792c0,2.586,2.411,4.689,5,4.689c2.587,0,5-2.103,5-4.689V593h0.646l-1.866-2.859L1270.914,593z"/>
		<path id="XMLID_82_" fill="#FFFFFF" d="M1267.054,588H1266v-1.013v-3.281c0-1.73,1.378-3.137,3-3.137c1.621,0,3,1.408,3,3.137
			v3.281V589h2v-1.295v-3.999c0-2.585-2.412-4.687-5-4.687c-2.588,0-5,2.102-5,4.687v3.999V588h-0.565h-0.112l1.866,2.858
			L1267.054,588z"/>
	</g>
</g>
<g id="XMLID_87_">
	<path id="XMLID_175_" fill="#226C99" d="M422.719,240.345c-3.187,0-8.655,2.608-12.073,5.795l-9.09,8.477
		c-2.514,2.345-3.24,4.371-2.182,5.281c-0.871,1.736-1.608,3.311-2.022,4.102c1.284-0.791,3.923-2.366,6.776-4.102
		c3.009-0.91,6.631-2.937,9.145-5.281l9.09-8.477C425.781,242.952,425.906,240.345,422.719,240.345z"/>
	<g id="XMLID_88_">
		<polygon id="XMLID_92_" fill="none" points="393.323,238 393.355,238.049 395.189,240.858 		"/>
		<path id="XMLID_91_" fill="#5ECC1D" d="M399,223.625c-5.44,0-10,4.451-10,9.891v14.469c0,4.002,2.472,7.461,5.942,9.014
			c1.692,2.964,3.315,5.651,4.058,7.001c0.743-1.35,2.366-4.038,4.058-7.001c3.47-1.553,5.942-5.012,5.942-9.014v-14.469
			C409,228.076,404.44,223.625,399,223.625z"/>
		<path id="XMLID_90_" fill="#FFFFFF" d="M400.914,243h0.127H402v4.792c0,1.73-1.378,3.139-2.999,3.139
			c-1.622,0-3.001-1.408-3.001-3.139V242h-2v5.792c0,2.586,2.411,4.689,5,4.689c2.587,0,5-2.103,5-4.689V243h0.646l-1.866-2.859
			L400.914,243z"/>
		<path id="XMLID_89_" fill="#FFFFFF" d="M397.054,238H396v-1.013v-3.281c0-1.73,1.378-3.137,3-3.137c1.622,0,3,1.408,3,3.137v3.281
			V239h2v-1.295v-3.999c0-2.585-2.412-4.687-5-4.687c-2.588,0-5,2.102-5,4.687v3.999V238h-0.565h-0.112l1.866,2.858L397.054,238z"/>
	</g>
</g>
</svg>
