<?xml version="1.0" encoding="utf-8"?>
<!-- Generator: Adobe Illustrator 20.1.0, SVG Export Plug-In . SVG Version: 6.00 Build 0)  -->
<svg version="1.1" id="Layer_1" xmlns="http://www.w3.org/2000/svg" xmlns:xlink="http://www.w3.org/1999/xlink" x="0px" y="0px"
	 viewBox="0 0 150 60.4" style="enable-background:new 0 0 150 60.4;" xml:space="preserve">
<style type="text/css">
	.st0{fill:#FFFFFF;}
	.st1{opacity:0.5;}
</style>
<g>
	<g>
		<path class="st0" d="M59.7,58.3c0,0.5,0,0.9,0,1.2H59l0-0.7h0c-0.2,0.4-0.7,0.8-1.5,0.8c-0.7,0-1.6-0.4-1.6-2V55h0.8v2.5
			c0,0.9,0.3,1.4,1,1.4c0.5,0,0.9-0.4,1.1-0.7c0-0.1,0.1-0.3,0.1-0.4V55h0.8V58.3z"/>
		<path class="st0" d="M61,58.7c0.2,0.2,0.7,0.3,1.1,0.3c0.6,0,0.9-0.3,0.9-0.7c0-0.4-0.2-0.6-0.8-0.8c-0.8-0.3-1.2-0.7-1.2-1.3
			c0-0.7,0.6-1.3,1.6-1.3c0.5,0,0.9,0.1,1.1,0.3l-0.2,0.6c-0.2-0.1-0.5-0.3-0.9-0.3c-0.5,0-0.8,0.3-0.8,0.6c0,0.4,0.3,0.5,0.9,0.8
			c0.8,0.3,1.2,0.7,1.2,1.4c0,0.8-0.6,1.4-1.7,1.4c-0.5,0-1-0.1-1.3-0.3L61,58.7z"/>
		<path class="st0" d="M65.2,57.4c0,1.1,0.7,1.6,1.5,1.6c0.6,0,0.9-0.1,1.2-0.2l0.1,0.6c-0.3,0.1-0.8,0.3-1.5,0.3
			c-1.4,0-2.2-0.9-2.2-2.3c0-1.4,0.8-2.4,2.1-2.4c1.5,0,1.9,1.3,1.9,2.1c0,0.2,0,0.3,0,0.4H65.2z M67.6,56.8c0-0.5-0.2-1.3-1.1-1.3
			c-0.8,0-1.2,0.8-1.3,1.3H67.6z"/>
		<path class="st0" d="M69.4,56.4c0-0.5,0-1,0-1.4h0.7l0,0.9h0c0.2-0.6,0.7-1,1.2-1c0.1,0,0.2,0,0.2,0v0.8c-0.1,0-0.2,0-0.3,0
			c-0.6,0-1,0.4-1.1,1.1c0,0.1,0,0.2,0,0.4v2.4h-0.8L69.4,56.4L69.4,56.4z"/>
		<path class="st0" d="M72.4,58.7c0.2,0.2,0.7,0.3,1.1,0.3c0.6,0,0.9-0.3,0.9-0.7c0-0.4-0.2-0.6-0.8-0.8c-0.8-0.3-1.2-0.7-1.2-1.3
			c0-0.7,0.6-1.3,1.6-1.3c0.5,0,0.9,0.1,1.1,0.3l-0.2,0.6c-0.2-0.1-0.5-0.3-0.9-0.3c-0.5,0-0.8,0.3-0.8,0.6c0,0.4,0.3,0.5,0.9,0.8
			c0.8,0.3,1.2,0.7,1.2,1.4c0,0.8-0.6,1.4-1.7,1.4c-0.5,0-1-0.1-1.3-0.3L72.4,58.7z"/>
		<path class="st0" d="M59.8,0.6V6c0,0.4,0,0.9,0,1.2h-0.7l0-0.8h0c-0.3,0.5-0.8,0.9-1.5,0.9c-1.1,0-1.9-0.9-1.9-2.3
			c0-1.5,0.9-2.4,2-2.4c0.7,0,1.2,0.3,1.4,0.7h0V0.6H59.8z M59,4.5c0-0.1,0-0.2,0-0.3c-0.1-0.5-0.6-1-1.2-1c-0.8,0-1.4,0.7-1.4,1.7
			c0,0.9,0.4,1.7,1.3,1.7c0.5,0,1.1-0.4,1.2-1c0-0.1,0-0.2,0-0.4V4.5z"/>
		<path class="st0" d="M61.6,5.1c0,1.1,0.7,1.6,1.5,1.6c0.6,0,0.9-0.1,1.2-0.2L64.6,7c-0.3,0.1-0.8,0.3-1.5,0.3
			c-1.4,0-2.2-0.9-2.2-2.3s0.8-2.4,2.1-2.4c1.5,0,1.9,1.3,1.9,2.1c0,0.2,0,0.3,0,0.4L61.6,5.1L61.6,5.1z M64.1,4.5
			c0-0.5-0.2-1.3-1.1-1.3c-0.8,0-1.2,0.8-1.3,1.3H64.1z"/>
		<path class="st0" d="M66.2,2.7l0.9,2.5c0.1,0.4,0.3,0.8,0.4,1.2h0c0.1-0.4,0.2-0.7,0.4-1.2l0.9-2.5h0.9l-1.8,4.5H67l-1.7-4.5
			C65.3,2.7,66.2,2.7,66.2,2.7z"/>
		<path class="st0" d="M70.2,6.4c0.2,0.2,0.7,0.3,1.1,0.3c0.6,0,0.9-0.3,0.9-0.7c0-0.4-0.2-0.6-0.8-0.8c-0.8-0.3-1.2-0.7-1.2-1.3
			c0-0.7,0.6-1.3,1.6-1.3c0.5,0,0.9,0.1,1.1,0.3l-0.2,0.6c-0.2-0.1-0.5-0.3-0.9-0.3c-0.5,0-0.8,0.3-0.8,0.6c0,0.4,0.3,0.5,0.9,0.8
			c0.8,0.3,1.2,0.7,1.2,1.4c0,0.8-0.6,1.4-1.7,1.4c-0.5,0-1-0.1-1.3-0.3L70.2,6.4z"/>
		<path class="st0" d="M43.2,45.7c0.9,0.5,2.5,1.2,4,1.2c2.2,0,3.2-1.1,3.2-2.5c0-1.4-0.9-2.2-3-3c-3-1.1-4.4-2.7-4.4-4.7
			c0-2.7,2.2-4.9,5.7-4.9c1.7,0,3.1,0.4,4,1L52,35.1c-0.7-0.4-1.8-1-3.4-1c-1.8,0-2.7,1-2.7,2.3c0,1.4,1,2,3.1,2.8
			c2.8,1.1,4.3,2.5,4.3,5c0,2.9-2.3,5-6.2,5c-1.8,0-3.5-0.5-4.6-1.2L43.2,45.7z"/>
		<path class="st0" d="M77.8,36.7c0-1.7-0.1-3.1-0.1-4.5h2.6l0.1,2.7h0.1c0.9-1.6,2.5-3,5.2-3c2.2,0,3.9,1.4,4.6,3.3h0.1
			c0.5-1,1.2-1.6,1.9-2.2c1-0.8,2.1-1.2,3.6-1.2c2.2,0,5.5,1.4,5.5,7.2v9.7h-2.9v-9.3c0-3.2-1.2-5.1-3.6-5.1c-1.7,0-3,1.3-3.6,2.7
			c-0.1,0.4-0.2,1-0.2,1.5v10.2h-2.9v-9.9c0-2.6-1.2-4.5-3.5-4.5c-1.8,0-3.2,1.5-3.7,3c-0.2,0.4-0.2,1-0.2,1.5v9.9h-2.9
			C77.8,48.8,77.8,36.7,77.8,36.7z"/>
		<path class="st0" d="M106.1,36.7c0-1.7-0.1-3.1-0.1-4.5h2.6l0.1,2.7h0.1c0.9-1.6,2.5-3,5.2-3c2.2,0,3.9,1.4,4.6,3.3h0.1
			c0.5-1,1.2-1.6,1.9-2.2c1-0.8,2-1.2,3.6-1.2c2.2,0,5.5,1.4,5.5,7.2v9.7h-2.9v-9.3c0-3.2-1.2-5.1-3.6-5.1c-1.7,0-3,1.3-3.6,2.7
			c-0.1,0.4-0.2,1-0.2,1.5v10.2h-2.9v-9.9c0-2.6-1.2-4.5-3.4-4.5c-1.8,0-3.2,1.5-3.7,3c-0.2,0.4-0.2,1-0.2,1.5v9.9h-2.9L106.1,36.7
			L106.1,36.7z"/>
		<rect x="134.4" y="32.2" class="st0" width="3" height="16.5"/>
		<path class="st0" d="M144.7,32.2h4.3v2.3h-4.3v8.9c0,2.1,0.6,3.2,2.3,3.2c0.8,0,1.3-0.1,1.7-0.2l0.1,2.3c-0.6,0.2-1.5,0.4-2.7,0.4
			c-1.4,0-2.5-0.5-3.2-1.3c-0.8-0.9-1.2-2.4-1.2-4.3v-9h-2.6v-2.3h2.6"/>
		<path class="st0" d="M17.7,19.3c0,6.1-4.3,8.8-8.2,8.8c-4.4,0-7.9-3.3-7.9-8.5c0-5.5,3.7-8.7,8.2-8.7
			C14.5,10.8,17.7,14.3,17.7,19.3 M4.6,19.5c0,3.6,2,6.4,5,6.4c2.9,0,5-2.7,5-6.4c0-2.8-1.4-6.3-5-6.3C6.1,13.1,4.6,16.4,4.6,19.5"
			/>
		<path class="st0" d="M21,16.6c0-2.1-0.1-3.8-0.1-5.4h2.7l0.2,2.8h0.1c1.2-2,3.2-3.2,5.9-3.2c4,0,7,3.4,7,8.4
			c0,5.9-3.7,8.9-7.6,8.9c-2.2,0-4.1-1-5.1-2.6H24v9h-3V16.6z M24,21c0,0.4,0,0.9,0.1,1.2c0.5,2.1,2.4,3.5,4.5,3.5
			c3.2,0,5-2.6,5-6.4c0-3.3-1.7-6.1-4.9-6.1c-2,0-4,1.4-4.5,3.7c-0.1,0.4-0.2,0.8-0.2,1.2V21z"/>
		<path class="st0" d="M42.6,20c0.1,4.1,2.6,5.7,5.7,5.7c2.2,0,3.5-0.4,4.6-0.9l0.5,2.2c-1.1,0.5-2.9,1.1-5.5,1.1
			c-5.1,0-8.1-3.4-8.1-8.4s2.9-8.9,7.8-8.9c5.4,0,6.8,4.7,6.8,7.8c0,0.6,0,1.1-0.1,1.4H42.6z M51.4,17.8c0-1.9-0.8-4.9-4.2-4.9
			c-3.1,0-4.4,2.8-4.6,4.9H51.4z"/>
		<path class="st0" d="M77.5,24.7c0.9,0.5,2.5,1.2,4,1.2c2.2,0,3.2-1.1,3.2-2.5c0-1.4-0.9-2.2-3-3c-3-1.1-4.4-2.7-4.4-4.7
			c0-2.7,2.2-4.9,5.7-4.9c1.7,0,3.1,0.4,4,1L86.3,14c-0.6-0.4-1.8-1-3.4-1c-1.8,0-2.7,1-2.7,2.3c0,1.4,1,2,3.1,2.8
			c2.8,1.1,4.3,2.5,4.3,5c0,2.9-2.3,5-6.2,5c-1.8,0-3.5-0.5-4.6-1.2L77.5,24.7z"/>
		<path class="st0" d="M95.2,7.2v4h4.3v2.3h-4.3v8.9c0,2.1,0.6,3.2,2.3,3.2c0.8,0,1.3-0.1,1.7-0.2l0.1,2.3c-0.6,0.2-1.5,0.4-2.7,0.4
			c-1.4,0-2.5-0.5-3.2-1.3c-0.8-0.9-1.2-2.4-1.2-4.3v-9h-2.6v-2.3h2.6V8.1L95.2,7.2z"/>
		<path class="st0" d="M115,23.8c0,1.4,0.1,2.8,0.2,4h-2.7l-0.2-2.1h-0.1c-0.9,1.3-2.7,2.5-5.1,2.5c-3.3,0-5.1-2.4-5.1-4.8
			c0-4,3.6-6.2,9.9-6.1v-0.3c0-1.3-0.4-3.8-3.8-3.8c-1.6,0-3.2,0.4-4.3,1.2l-0.7-2c1.4-0.9,3.4-1.4,5.5-1.4c5.1,0,6.3,3.5,6.3,6.7
			L115,23.8L115,23.8z M112.1,19.3c-3.3-0.1-7,0.5-7,3.7c0,2,1.3,2.9,2.8,2.9c2.2,0,3.6-1.4,4.1-2.8c0.1-0.3,0.1-0.7,0.1-1
			C112.1,22.1,112.1,19.3,112.1,19.3z"/>
		<path class="st0" d="M131.1,27.1c-0.8,0.4-2.5,1-4.7,1c-5,0-8.2-3.4-8.2-8.4c0-5.1,3.5-8.8,8.9-8.8c1.8,0,3.3,0.4,4.2,0.9
			l-0.7,2.3c-0.7-0.4-1.8-0.8-3.5-0.8c-3.8,0-5.8,2.8-5.8,6.3c0,3.8,2.5,6.2,5.7,6.2c1.7,0,2.8-0.4,3.7-0.8L131.1,27.1z"/>
		<path class="st0" d="M137.4,18.8L137.4,18.8c0.5-0.6,1-1.3,1.5-1.9l4.9-5.7h3.6L141,18l7.3,9.7h-3.7l-5.7-7.9l-1.5,1.7v6.2h-3V3.5
			h3L137.4,18.8L137.4,18.8z"/>
		<polygon class="st0" points="68.7,34.7 71.9,29.8 75.1,34.7 		"/>
		<polygon class="st0" points="62.2,24.9 59,29.7 55.8,24.9 		"/>
		<path class="st0" d="M70.5,34.1v8.1c0,2.9-2.2,5.3-5,5.3c-2.8,0-5-2.4-5-5.3V31.6h-3v10.6c0,4.4,3.6,8,8,8c4.4,0,8-3.6,8-8v-8.1
			L70.5,34.1L70.5,34.1z"/>
		<path class="st0" d="M60.5,25.3v-7.1c0-2.9,2.2-5.3,5-5.3c2.8,0,5,2.4,5,5.3v9.6h3v-9.6c0-4.4-3.6-8-8-8c-4.4,0-8,3.6-8,8v7.1
			C57.5,25.3,60.5,25.3,60.5,25.3z"/>
		<g class="st1">
			<g>
				<path class="st0" d="M146.3,18.2c0,0.6-0.5,1.1-1.1,1.1c-0.6,0-1.1-0.5-1.1-1.1c0-0.6,0.5-1.1,1.1-1.1
					C145.8,17.1,146.3,17.6,146.3,18.2 M144.4,18.2c0,0.5,0.4,0.9,0.8,0.9c0.5,0,0.8-0.4,0.8-0.8c0-0.5-0.3-0.9-0.8-0.9
					C144.7,17.3,144.4,17.7,144.4,18.2 M145,18.7h-0.2v-1.1c0.1,0,0.2,0,0.4,0c0.2,0,0.3,0,0.4,0.1c0.1,0,0.1,0.1,0.1,0.2
					c0,0.1-0.1,0.2-0.2,0.2v0c0.1,0,0.2,0.1,0.2,0.3c0,0.2,0.1,0.2,0.1,0.3h-0.3c0,0-0.1-0.1-0.1-0.3c0-0.1-0.1-0.2-0.2-0.2H145
					L145,18.7L145,18.7z M145,18.1h0.1c0.1,0,0.2,0,0.2-0.2c0-0.1-0.1-0.2-0.2-0.2c-0.1,0-0.1,0-0.1,0L145,18.1L145,18.1z"/>
				<path class="st0" d="M146.3,18.2c0,0.6-0.5,1.1-1.1,1.1c-0.6,0-1.1-0.5-1.1-1.1c0-0.6,0.5-1.1,1.1-1.1
					C145.8,17.1,146.3,17.6,146.3,18.2 M144.4,18.2c0,0.5,0.4,0.9,0.8,0.9c0.5,0,0.8-0.4,0.8-0.8c0-0.5-0.3-0.9-0.8-0.9
					C144.7,17.3,144.4,17.7,144.4,18.2 M145,18.7h-0.2v-1.1c0.1,0,0.2,0,0.4,0c0.2,0,0.3,0,0.4,0.1c0.1,0,0.1,0.1,0.1,0.2
					c0,0.1-0.1,0.2-0.2,0.2v0c0.1,0,0.2,0.1,0.2,0.3c0,0.2,0.1,0.2,0.1,0.3h-0.3c0,0-0.1-0.1-0.1-0.3c0-0.1-0.1-0.2-0.2-0.2H145
					L145,18.7L145,18.7z M145,18.1h0.1c0.1,0,0.2,0,0.2-0.2c0-0.1-0.1-0.2-0.2-0.2c-0.1,0-0.1,0-0.1,0L145,18.1L145,18.1z"/>
			</g>
		</g>
	</g>
</g>
</svg>
