<?xml version="1.0" encoding="UTF-8"?>
<svg width="500px" height="429px" viewBox="0 0 500 429" version="1.1" xmlns="http://www.w3.org/2000/svg" xmlns:xlink="http://www.w3.org/1999/xlink">
    <!-- Generator: Sketch 43.1 (39012) - http://www.bohemiancoding.com/sketch -->
    <title>CBSL_Logo_2017_RGB_Vertical</title>
    <desc>Created with Sketch.</desc>
    <defs></defs>
    <g id="Symbols" stroke="none" stroke-width="1" fill="none" fill-rule="evenodd">
        <g id="CBSL_Logo_2017_RGB_Vertical">
            <g id="Group" transform="translate(0.000000, 319.312500)" fill-rule="nonzero" fill="#0B141F">
                <g transform="translate(0.000000, 9.750000)" id="Shape">
                    <path d="M46.9506098,80.3287144 L51.1685366,93.2011031 C47.7484146,95.9350275 41.2503902,99.5818444 32.5855854,99.5818444 C14.0049512,99.5818444 0.77995122,86.5939181 0.77995122,68.4801487 C0.77995122,50.3663794 14.3471707,37.0364475 32.4722683,37.0364475 C41.2503659,37.0364475 47.4061707,40.4544319 51.2818537,43.41714 L46.8349756,56.6315587 C44.2149512,54.2396644 39.6547805,50.9349262 32.9278293,50.9349262 C22.7830488,50.9349262 16.5116585,58.796985 16.5116585,68.3669025 C16.5116585,78.5053425 23.5808537,85.68339 33.4990244,85.68339 C39.5391707,85.6833656 44.3282683,82.491825 46.9506098,80.3287144 Z"></path>
                    <polygon points="56.4085854 15.7311375 72.1402683 15.7311375 72.1402683 98.1004538 56.4085854 98.1004538"></polygon>
                    <path d="M109.759439,37.0364231 C127.997829,37.0364231 141.907317,50.4796013 141.907317,68.4801244 C141.907317,86.4806475 128.455707,99.58182 109.759439,99.58182 C91.1764878,99.58182 77.724878,86.4806231 77.724878,68.4801244 C77.724878,50.366355 91.6343415,37.0364231 109.759439,37.0364231 Z M109.759439,85.6833656 C119.219732,85.6833656 126.17561,78.6185644 126.17561,68.4801244 C126.17561,58.3393688 119.219707,50.9349019 109.759439,50.9349019 C100.296829,50.9349019 93.456561,58.2261713 93.456561,68.4801244 C93.456561,78.6185644 100.410146,85.6833656 109.759439,85.6833656 Z"></path>
                    <path d="M146.918415,72.9218831 L146.918415,38.5177406 L162.650098,38.5177406 L162.650098,74.7452794 C162.650098,81.3524888 167.210268,85.4545331 172.568244,85.4545331 C179.066268,85.4545331 183.168585,80.67072 183.168585,74.2900031 L183.168585,38.5177406 L198.900293,38.5177406 L198.900293,98.1004294 L183.510829,98.1004294 L183.510829,91.15119 C181.004122,95.2532344 175.303902,99.5817956 167.552512,99.5817956 C150.565171,99.58182 146.918415,85.5678037 146.918415,72.9218831 Z"></path>
                    <path d="M265.589415,98.1004538 L250.768829,98.1004538 L250.768829,91.9484963 C249.17322,93.8851631 243.24639,99.58182 233.099293,99.58182 C216.000927,99.58182 203.916,86.70714 203.916,68.3668538 C203.916,49.9087875 215.089829,37.0363988 232.188171,37.0363988 C242.448561,37.0363988 248.375415,42.7330312 249.857707,44.7828956 L249.857707,0.858901875 L265.589415,0.858901875 L265.589415,98.1004538 Z M235.037146,50.9348775 C225.919098,50.9348775 219.763317,58.1128762 219.763317,68.4801 C219.763317,79.0738406 226.145707,85.6833412 235.037146,85.6833412 C244.613049,85.6833412 250.313268,77.93448 250.313268,68.4801 C250.313293,57.31557 243.701951,50.9348775 235.037146,50.9348775 Z"></path>
                    <path d="M274.362902,0.858950625 L290.094585,0.858950625 L290.094585,44.7829444 C291.576878,42.73308 297.503732,37.0364475 307.764122,37.0364475 C324.86478,37.0364475 336.036293,49.9088363 336.036293,68.3669025 C336.036293,86.7071888 323.951366,99.5818688 306.853,99.5818688 C296.705902,99.5818688 290.779049,93.8851875 289.183463,91.948545 L289.183463,98.1005025 L274.362878,98.1005025 L274.362878,0.858950625 L274.362902,0.858950625 Z M304.915171,85.6833656 C313.806585,85.6833656 320.188976,79.073865 320.188976,68.4801244 C320.188976,58.1129006 314.03322,50.9349019 304.915171,50.9349019 C296.250366,50.9349019 289.639049,57.3155944 289.639049,68.4801244 C289.639049,77.9345044 295.339268,85.6833656 304.915171,85.6833656 Z"></path>
                    <path d="M361.225976,59.9362969 C367.268463,59.9362969 371.941927,61.7573531 374.108707,63.2387194 L374.108707,59.3654344 C374.108707,54.1240537 370.233,50.5928475 363.279439,50.5928475 C357.350293,50.5928475 351.879,52.5294656 347.432146,54.8081137 L341.505293,44.09886 C346.863293,40.4544075 355.868024,37.0363987 364.988341,37.0363987 C384.140171,37.0363987 389.840415,47.0615925 389.840415,60.3915244 L389.840415,98.1004294 L375.933268,98.1004294 L374.906537,94.2271444 C371.828659,97.5318825 367.268463,99.5817956 360.42822,99.5817956 C348.345561,99.5817956 338.085195,92.17728 338.085195,79.64463 C338.085146,67.9093106 347.318805,59.9362969 361.225976,59.9362969 Z M364.190561,87.3912 C370.119707,87.3912 374.450951,84.201975 374.450951,79.1893781 C374.450951,73.9479975 370.119732,70.8720188 364.077244,70.8720188 C358.034756,70.8720188 353.816854,74.2900031 353.816854,79.1893781 C353.816854,84.0864131 358.263707,87.3912 364.190561,87.3912 Z"></path>
                    <path d="M393.942707,88.5305119 L403.176366,80.3287144 C406.138659,83.7466988 410.129951,86.8226531 416.85461,86.8226531 C421.301463,86.8226531 424.150439,84.886035 424.150439,81.4680506 C424.150439,72.353385 395.993878,75.88464 395.993878,54.6948919 C395.993878,43.6436081 405.456488,37.0363988 417.652415,37.0363988 C428.939537,37.0363988 435.20861,42.9595481 438.059902,47.6300906 L427.686195,55.3789519 C425.861659,53.1002794 422.554854,49.6822706 416.970244,49.6822706 C413.321171,49.6822706 410.814439,51.5056669 410.814439,54.4660838 C410.814439,63.9227794 439.084317,59.3654344 439.084317,80.6707444 C439.084317,92.290575 429.052854,99.58182 416.172415,99.58182 C404.429732,99.58182 397.133927,93.6563794 393.942707,88.5305119 Z"></path>
                    <path d="M469.976512,37.0364231 C488.443854,37.0364231 498.930878,49.340265 498.930878,68.8221544 C498.930878,69.9614906 498.930878,71.1008269 498.817561,72.2401388 L456.867171,72.2401388 C457.207098,80.2131525 463.591805,85.9098338 472.369902,85.9098338 C480.463537,85.9098338 485.137,81.1260206 486.848268,78.6185644 L497.221976,86.4806231 C494.941878,90.6959138 486.961561,99.58182 472.141,99.58182 C452.989171,99.58182 440.793244,86.36511 440.793244,68.4801244 C440.79322,50.4796012 452.989171,37.0364231 469.976512,37.0364231 Z M482.972561,61.9861612 C482.630317,54.6948919 477.385659,49.9087875 470.203122,49.9087875 C462.794024,49.9087875 458.00722,55.1501437 457.322683,61.9861612 L482.972561,61.9861612 Z"></path>
                </g>
                <g transform="translate(300.000000, 0.000000)" id="Shape">
                    <path d="M1.57365854,32.7654844 L5.65053659,29.1440906 C6.95707317,30.65322 8.71917073,32.0097619 11.6883902,32.0097619 C13.6516829,32.0097619 14.9096341,31.1546869 14.9096341,29.6456062 C14.9096341,25.6220981 2.47785366,27.1820737 2.47785366,17.824755 C2.47785366,12.9461962 6.65646341,10.0296787 12.0422195,10.0296787 C17.025561,10.0296787 19.793561,12.6434344 21.051561,14.7071925 L16.4705854,18.1274925 C15.6658537,17.1221944 14.2066585,15.6131137 11.7392927,15.6131137 C10.1298293,15.6131137 9.02214634,16.4173425 9.02214634,17.7254025 C9.02214634,21.899085 21.5048049,19.8884887 21.5048049,29.2943381 C21.5048049,34.4248125 17.0741463,37.6440431 11.3877805,37.6440431 C6.20321951,37.6440188 2.98195122,35.0279475 1.57365854,32.7654844 Z"></path>
                    <path d="M36.9034878,10.0296544 C44.9577805,10.0296544 51.0973659,15.9643575 51.0973659,23.9119481 C51.0973659,31.8595388 45.1589756,37.6440188 36.9034878,37.6440188 C28.698878,37.6440188 22.760439,31.8595388 22.760439,23.9119481 C22.7604634,15.9135356 28.9023415,10.0296544 36.9034878,10.0296544 Z M36.9034878,31.5082706 C41.0820976,31.5082706 44.1530488,28.3883925 44.1530488,23.9119481 C44.1530488,19.4355037 41.0820976,16.1654025 36.9034878,16.1654025 C32.7271463,16.1654025 29.7070976,19.3846575 29.7070976,23.9119481 C29.707122,28.3883681 32.7757317,31.5082706 36.9034878,31.5082706 Z"></path>
                    <polygon points="54.0642683 0.621489375 61.0109268 0.621489375 61.0109268 36.9899887 54.0642683 36.9899887"></polygon>
                    <path d="M65.2866585,25.8739894 L65.2866585,10.68366 L72.2332683,10.68366 L72.2332683,26.6782181 C72.2332683,29.5947356 74.247439,31.4065537 76.6130976,31.4065537 C79.480561,31.4065537 81.2935366,29.294265 81.2935366,26.4771487 L81.2935366,10.6836356 L88.2378537,10.6836356 L88.2378537,36.9899644 L81.4438537,36.9899644 L81.4438537,33.9209325 C80.3361707,35.732775 77.8201951,37.64397 74.3977561,37.64397 C66.898439,37.6440188 65.2866585,31.4574244 65.2866585,25.8739894 Z"></path>
                    <path d="M93.1194878,5.14878 L99.9643659,5.14878 L99.9643659,10.68366 L104.896854,10.68366 L104.896854,16.3156256 L99.9643659,16.3156256 L99.9643659,26.4771731 C99.9643659,30.40128 101.17378,31.2055088 103.840073,31.2055088 C104.293341,31.2055088 104.54539,31.2055088 105.100366,31.1546625 L105.100366,37.0916813 C105.100366,37.0916813 104.041268,37.3412813 102.128854,37.3412813 C95.8389512,37.3412813 93.0709268,33.82158 93.0709268,26.6782181 L93.0709268,16.3156012 L90.3006098,16.3156012 L90.3006098,10.6836356 L93.1195122,10.6836356 L93.1195122,5.14878 L93.1194878,5.14878 Z"></path>
                    <path d="M111.64,0.371889375 C113.957073,0.371889375 115.716854,2.08206375 115.716854,4.34455125 C115.716854,6.60935437 113.957073,8.31950437 111.64,8.31950437 C109.376073,8.31950437 107.613976,6.60935437 107.613976,4.34455125 C107.613976,2.08208812 109.376073,0.371889375 111.64,0.371889375 Z M108.217561,10.68366 L115.164171,10.68366 L115.164171,36.9899887 L108.217561,36.9899887 L108.217561,10.68366 Z"></path>
                    <path d="M132.324951,10.0296544 C140.379293,10.0296544 146.518854,15.9643575 146.518854,23.9119481 C146.518854,31.8595388 140.580463,37.6440188 132.324951,37.6440188 C124.120341,37.6440188 118.181951,31.8595388 118.181951,23.9119481 C118.181976,15.9135356 124.323854,10.0296544 132.324951,10.0296544 Z M132.324951,31.5082706 C136.503585,31.5082706 139.574561,28.3883925 139.574561,23.9119481 C139.574561,19.4355037 136.50361,16.1654025 132.324951,16.1654025 C128.148659,16.1654025 125.128561,19.3846575 125.128561,23.9119481 C125.128585,28.3883681 128.197244,31.5082706 132.324951,31.5082706 Z"></path>
                    <path d="M172.436976,21.7996594 L172.436976,36.9899888 L165.492659,36.9899888 L165.492659,20.9954306 C165.492659,18.0766219 163.478488,16.267095 161.112829,16.267095 C158.245366,16.267095 156.43239,18.3793838 156.43239,21.1965 L156.43239,36.9900131 L149.48578,36.9900131 L149.48578,10.6836844 L156.282122,10.6836844 L156.282122,13.750425 C157.389756,11.9408981 159.905756,10.0296788 163.328195,10.0296788 C170.827512,10.0296544 172.436976,16.2162487 172.436976,21.7996594 Z"></path>
                    <path d="M174.904341,32.7654844 L178.98122,29.1440906 C180.28778,30.65322 182.049878,32.0097619 185.019049,32.0097619 C186.982341,32.0097619 188.240317,31.1546869 188.240317,29.6456062 C188.240317,25.6220981 175.808488,27.1820737 175.808488,17.824755 C175.808488,12.9461962 179.987122,10.0296787 185.372854,10.0296787 C190.35622,10.0296787 193.124244,12.6434344 194.382195,14.7071925 L189.80122,18.1274925 C188.996488,17.1221944 187.537341,15.6131137 185.069927,15.6131137 C183.460463,15.6131137 182.35278,16.4173425 182.35278,17.7254025 C182.35278,21.899085 194.835463,19.8884887 194.835463,29.2943381 C194.835463,34.4248125 190.404805,37.6440431 184.718439,37.6440431 C179.533902,37.6440188 176.312659,35.0279475 174.904341,32.7654844 Z"></path>
                </g>
            </g>
            <g id="CBSL-LOGO">
                <g id="Group-2">
                    <path d="M431.082038,159.706231 C430.486714,134.998443 409.779594,114.26916 385.097713,113.673439 C377.295524,113.485087 369.496174,113.485087 361.693519,113.673439 C361.66102,113.674373 361.628288,113.677486 361.595517,113.67842 C362.129846,91.0720001 361.725785,68.4809909 360.3361,45.8484588 C358.922195,22.8251744 339.04077,2.92245926 316.041609,1.50705769 C283.384315,-0.502624958 250.815305,-0.50215797 218.158282,1.50729119 C195.159161,2.92245926 175.277502,22.8254079 173.863831,45.8489258 C173.518353,51.4736789 173.254279,57.0951242 173.027913,62.715869 C169.826171,61.8845526 166.511732,61.3840972 163.120671,61.2838505 C153.645713,61.0038134 144.175537,60.9914771 134.700113,61.2463358 C115.183368,61.7712691 98.0493196,75.1397332 91.6548544,92.9769607 C76.380289,92.4347099 61.1185522,92.4465791 45.839011,93.0772075 C21.9500914,94.0629023 1.62331935,114.357498 0.575496294,138.26911 C-0.168600355,155.242916 -0.191108686,172.196096 0.507854678,189.172042 C1.49254556,213.086729 21.7656708,233.434795 45.6519858,234.483961 C51.5998997,234.745241 57.5444703,234.884909 63.4888466,234.9685 C63.6853183,248.689229 64.2123009,262.413732 65.0892317,276.154191 C66.5420492,298.916429 86.3684289,318.76404 109.106819,320.218396 C144.495552,322.481497 179.780373,322.481497 215.169106,320.218163 C237.907263,318.763806 257.733876,298.916196 259.186654,276.154191 C259.29698,274.420265 259.377178,272.687779 259.476852,270.954592 C264.72934,273.35168 270.443269,274.800315 276.380531,275.055874 C293.624439,275.798113 310.846034,275.798113 328.090214,275.055641 C351.977967,274.027411 372.266526,253.717093 373.293901,229.804781 C373.301015,229.639 373.302686,229.473686 373.3098,229.308139 C377.239234,229.30884 381.167968,229.262763 385.09814,229.16777 C409.779555,228.571816 430.486675,207.842766 431.081999,183.135211 C431.269957,175.324488 431.270424,167.517149 431.082038,159.706231 L431.082038,159.706231 Z" id="Shape-Copy" fill="#5FA3E0"></path>
                    <g id="Group">
                        <path d="M139.002121,124.561136 C150.311994,124.244908 161.617823,124.156452 172.92548,124.303826 C172.166184,103.768576 172.200199,83.2530554 173.027953,62.7157814 C169.826211,61.884504 166.511733,61.3839707 163.12075,61.2838796 C153.645715,61.0037258 144.175655,60.9913895 134.700192,61.2462482 C115.183292,61.7711816 98.0493601,75.1396846 91.6548561,92.9768342 C93.3326791,93.0364141 95.0100357,93.0706599 96.6883253,93.1443661 C115.759101,93.9818701 132.514979,107.12618 139.002121,124.561136 L139.002121,124.561136 Z" id="Shape" fill="#007AFF"></path>
                        <path d="M65.0897388,169.979528 C66.0834485,154.406492 75.6801611,140.201302 88.9233399,132.313681 C88.74615,123.833024 88.7492988,115.355325 88.9994173,106.874435 C89.1416979,102.051539 90.0763573,97.3799858 91.6548561,92.9767564 C76.3804073,92.4345834 61.1184762,92.4464527 45.8390904,93.077081 C21.9500154,94.0628925 1.62328216,114.357411 0.575420229,138.269062 C-0.168637546,155.242867 -0.190990379,172.196087 0.507856362,189.171955 C1.49262499,213.086602 21.7656336,233.434824 45.6520263,234.483796 C51.600018,234.745153 57.5444331,234.8849 63.4888483,234.968413 C63.1783578,213.31278 63.7054181,191.665632 65.0897388,169.979528 L65.0897388,169.979528 Z" id="Shape" fill="#444E6E"></path>
                        <path d="M88.9233399,132.313681 C95.036898,128.672537 101.925341,126.37484 109.106898,125.915285 C119.078983,125.277496 129.042127,124.839461 139.00216,124.561097 C132.515018,107.12618 115.75914,93.9818312 96.6883253,93.1442883 C95.0100357,93.070621 93.3326791,93.0363363 91.6548561,92.9767564 C90.0763573,97.3799858 89.1416979,102.051539 88.9994173,106.874435 C88.7492988,115.355325 88.74615,123.833063 88.9233399,132.313681 L88.9233399,132.313681 Z" id="Shape" fill="#243053"></path>
                        <path d="M431.082156,159.706183 C430.486638,134.998356 409.779596,114.269189 385.097675,113.673468 C377.295565,113.484921 369.496137,113.484921 361.693599,113.673468 C361.660944,113.674363 361.628289,113.677515 361.595596,113.67841 C361.358034,123.726006 360.953584,133.776287 360.33614,143.835519 C360.259635,145.079536 360.119143,146.312384 359.937482,147.535581 C367.737338,155.655451 372.79456,166.417889 373.293864,178.039351 C374.028553,195.136325 374.030341,212.211389 373.309958,229.307935 C377.239197,229.30883 381.168009,229.262715 385.098142,229.167761 C409.779596,228.571845 430.486599,207.842639 431.082118,183.135046 C431.270076,175.324478 431.270503,167.517023 431.082156,159.706183 L431.082156,159.706183 Z" id="Shape" fill="#53A2F7"></path>
                        <path d="M373.293864,178.039351 C372.79456,166.417889 367.737377,155.655451 359.937482,147.535581 C356.758132,168.92721 337.84437,186.792106 316.121693,188.169838 C316.09483,188.171628 316.068435,188.175208 316.041145,188.176998 C297.404324,189.323609 278.795688,189.792776 260.183048,189.630848 C261.274722,216.745181 261.039842,243.823282 259.47701,270.954426 C264.729226,273.351553 270.44327,274.800267 276.380494,275.055787 C293.62448,275.797947 310.846152,275.797947 328.090138,275.055592 C351.977891,274.02744 372.266566,253.717045 373.293825,229.804693 C373.301016,229.63899 373.302766,229.473716 373.309919,229.307974 C374.030302,212.211428 374.028553,195.136364 373.293864,178.039351 L373.293864,178.039351 Z" id="Shape" fill="#007AFF"></path>
                        <path d="M208.700703,107.033016 C208.866231,113.209904 208.876532,119.384575 208.815694,125.559479 C210.933771,125.678833 213.050953,125.779625 215.169496,125.915323 C228.255622,126.752205 240.368603,133.688066 248.578779,143.758505 C256.312432,137.322283 266.00532,133.235009 276.380066,132.788258 C292.685855,132.086414 308.971468,132.072093 325.274536,132.697351 C333.728533,121.526882 346.9583,114.06387 361.595596,113.678449 C362.129809,91.0719125 361.725787,68.481059 360.33614,45.8483323 C358.922275,22.825048 339.040732,2.92244952 316.041572,1.50708687 C283.384394,-0.502595783 250.815384,-0.502167711 218.158245,1.50732036 C195.159085,2.92244952 175.277542,22.825476 173.863677,45.8489939 C173.518277,51.4736302 173.254281,57.0951534 173.027914,62.7157814 C192.802086,67.8486017 208.137839,86.0673583 208.700703,107.033016 L208.700703,107.033016 Z" id="Shape" fill="#444E6E"></path>
                        <path d="M172.92548,124.303787 C184.883663,124.459644 196.844955,124.885148 208.815694,125.55944 C208.876532,119.384575 208.866231,113.209904 208.700703,107.032977 C208.137839,86.0673194 192.802086,67.8485628 173.027914,62.7157036 C172.200199,83.2530165 172.166184,103.768537 172.92548,124.303787 L172.92548,124.303787 Z" id="Shape" fill="#243053"></path>
                        <path d="M325.274536,132.697312 C326.2132,132.733348 327.151474,132.747902 328.090604,132.788219 C340.368685,133.316732 351.687499,138.947634 359.937482,147.535581 C360.119143,146.312384 360.259635,145.079575 360.33614,143.835519 C360.953584,133.776287 361.358034,123.726006 361.595596,113.67841 C346.9583,114.063831 333.728533,121.526843 325.274536,132.697312 L325.274536,132.697312 Z" id="Shape" fill="#2E3859"></path>
                        <path d="M328.090604,132.788258 C327.151474,132.747941 326.213239,132.733387 325.274536,132.697351 C308.971468,132.072093 292.685816,132.086414 276.380066,132.788258 C266.005281,133.235048 256.312432,137.322283 248.578779,143.758505 C254.634142,151.186377 258.570107,160.316886 259.186656,169.979061 C259.604984,176.533082 259.919518,183.082627 260.183087,189.630848 C278.795727,189.792776 297.404363,189.323609 316.041183,188.176998 C316.068473,188.175208 316.094869,188.171628 316.121731,188.169838 C337.844409,186.792106 356.758171,168.92721 359.937521,147.535581 C351.687499,138.947673 340.368685,133.316771 328.090604,132.788258 L328.090604,132.788258 Z" id="Shape" fill="#243053"></path>
                        <path d="M231.176846,229.804226 C230.590269,216.147047 230.48694,202.504227 230.828764,188.852885 C226.60645,188.660292 222.38328,188.437227 218.158284,188.176998 C206.287802,187.44694 195.255766,181.783738 187.157043,173.31678 C180.086006,178.013394 171.768964,180.874552 162.961948,181.11147 C155.985337,181.299122 149.011409,181.291961 142.036586,181.189613 C141.95425,183.912581 141.88447,186.635315 141.765009,189.359412 C140.717147,213.271102 120.390414,233.565386 96.501339,234.550964 C85.4916941,235.005577 74.491418,235.122908 63.4889261,234.968413 C63.6853589,248.68918 64.2124192,262.413761 65.08935,276.154026 C66.5421287,298.91642 86.3686249,318.763952 109.106937,320.218231 C144.495592,322.481449 179.780453,322.481449 215.169108,320.218036 C237.90742,318.763719 257.733916,298.916186 259.186695,276.154065 C259.297215,274.420255 259.377296,272.687808 259.477087,270.954465 C243.598101,263.706851 231.948621,247.773495 231.176846,229.804226 L231.176846,229.804226 Z" id="Shape" fill="#53A2F7"></path>
                        <path d="M172.92548,124.303787 C161.617823,124.156413 150.311994,124.244908 139.002121,124.561097 C140.640137,128.963432 141.634274,133.634751 141.832495,138.455857 C142.4195,152.707823 142.466927,166.944107 142.036509,181.189574 C149.011331,181.291922 155.985259,181.299083 162.96187,181.111431 C171.768886,180.874474 180.085967,178.013356 187.156965,173.316741 C179.563805,165.378296 174.547324,154.975945 173.863677,143.83548 C173.463736,137.321816 173.165724,130.812159 172.92548,124.303787 L172.92548,124.303787 Z" id="Shape" fill="#A8D2FF"></path>
                        <path d="M96.5012612,234.551003 C120.390336,233.565386 140.717069,213.27114 141.764931,189.35945 C141.884393,186.635354 141.954172,183.91262 142.036509,181.189652 C139.53855,181.153149 137.040165,181.147779 134.541779,181.073878 C110.208835,180.355028 89.6154614,159.685402 88.9617868,135.324703 C88.9344969,134.32099 88.9443321,133.317472 88.923301,132.31372 C75.6801222,140.201341 66.0834097,154.406531 65.0896999,169.979567 C63.7053792,191.66567 63.1783189,213.312819 63.4888483,234.968451 C74.4913792,235.122947 85.4916164,235.005616 96.5012612,234.551003 L96.5012612,234.551003 Z" id="Shape" fill="#A8D2FF"></path>
                        <path d="M141.832495,138.455896 C141.634274,133.63479 140.640137,128.963471 139.002121,124.561136 C129.042088,124.8395 119.078983,125.277535 109.106859,125.915323 C101.925341,126.37484 95.0368591,128.672576 88.923301,132.31372 C88.9443321,133.317433 88.9344969,134.320951 88.9617868,135.324703 C89.6154614,159.685402 110.208835,180.355028 134.541779,181.073878 C137.040165,181.147779 139.53855,181.153149 142.036509,181.189652 C142.466927,166.944146 142.4195,152.707862 141.832495,138.455896 L141.832495,138.455896 Z" id="Shape" fill="#79B9FF"></path>
                        <path d="M260.183048,189.630848 C250.401099,189.545506 240.617827,189.299404 230.828725,188.852846 C230.486901,202.504188 230.59023,216.147047 231.176807,229.804187 C231.948621,247.773456 243.598062,263.706812 259.47701,270.954387 C261.039842,243.823282 261.27476,216.74522 260.183048,189.630848 L260.183048,189.630848 Z" id="Shape" fill="#A8D2FF"></path>
                        <path d="M259.186656,169.979061 C258.570107,160.316886 254.634181,151.186338 248.578779,143.758505 C240.368642,133.688066 228.255622,126.752205 215.169496,125.915323 C213.050953,125.779625 210.933771,125.678833 208.815694,125.559479 C196.844955,124.885187 184.883663,124.459683 172.92548,124.303826 C173.165724,130.812159 173.463697,137.321854 173.863716,143.835558 C174.547402,154.976023 179.563844,165.378335 187.157004,173.316819 C195.255766,181.783777 206.287763,187.446979 218.158245,188.177037 C222.383241,188.437266 226.606411,188.660292 230.828725,188.852924 C240.617827,189.299481 250.401099,189.545584 260.183048,189.630926 C259.919518,183.082665 259.604984,176.53312 259.186656,169.979061 L259.186656,169.979061 Z" id="Shape" fill="#79B9FF"></path>
                    </g>
                </g>
            </g>
        </g>
    </g>
</svg>