<?xml version="1.0" encoding="utf-8"?>
<!-- Generator: Adobe Illustrator 24.3.0, SVG Export Plug-In . SVG Version: 6.00 Build 0)  -->
<svg version="1.1" id="Layer_1" xmlns="http://www.w3.org/2000/svg" xmlns:xlink="http://www.w3.org/1999/xlink" x="0px" y="0px"
	 viewBox="0 0 706.15 446.86" style="enable-background:new 0 0 706.15 446.86;" xml:space="preserve">
<style type="text/css">
	.st0{fill:#111C25;}
	.st1{fill:#006DF3;}
	.st2{fill:#CC006D;}
	.st3{fill:#141F27;}
	.st4{fill:#2A1659;}
	.st5{fill:#6536FF;}
</style>
<g>
	<g>
		<g>
			<path class="st4" d="M23.24,306.91l31.12,78.37h1.23l31.13-78.37h23.24v108.16H91.74v-74.3h-0.97l-28.98,73.99H48.17L19.2,340.6
				h-0.97v74.46H0V306.91H23.24z"/>
			<path class="st4" d="M128.37,312.08c0-5.76,4.81-10.4,10.75-10.4c5.89,0,10.7,4.65,10.7,10.4c0,5.7-4.81,10.35-10.7,10.35
				C133.19,322.43,128.37,317.79,128.37,312.08z M129.81,333.95h18.53v81.12h-18.53V333.95z"/>
			<path class="st4" d="M166.87,426.68l16.69-4.17c2.25,4.44,7.17,9.88,18.33,9.88c10.55,0,18.22-4.91,18.22-16.53v-15.37h-0.92
				c-2.87,5.97-9.16,13.41-22.63,13.41c-18.12,0-32.41-13.2-32.41-39.66c0-26.67,14.28-41.35,32.46-41.35
				c13.87,0,19.76,8.61,22.58,14.47h1.02v-13.41h18.28v82.44c0,20.44-15.67,30.47-36.91,30.47
				C181.56,446.86,170.25,437.72,166.87,426.68z M220.21,374.13c0-15.37-6.55-25.56-18.48-25.56c-12.34,0-18.69,10.83-18.69,25.56
				c0,14.95,6.45,24.77,18.69,24.77C213.55,398.9,220.21,389.61,220.21,374.13z"/>
			<path class="st4" d="M257.52,333.95h17.97v13.52h0.82c2.87-9.4,10.39-14.68,19.4-14.68c2.05,0,4.97,0.21,6.66,0.53v17.59
				c-1.59-0.53-5.48-1.11-8.6-1.11c-10.19,0-17.71,7.29-17.71,17.59v47.69h-18.53V333.95z"/>
			<path class="st4" d="M309.52,392.3c0-18.27,14.59-22.97,29.85-24.66c13.87-1.53,19.45-1.8,19.45-7.29v-0.32
				c0-7.97-4.71-12.52-13.31-12.52c-9.06,0-14.28,4.75-16.13,10.3l-17.3-2.53c4.1-14.79,16.79-22.39,33.33-22.39
				c15,0,31.94,6.44,31.94,27.88v54.29h-17.81v-11.14h-0.61c-3.38,6.81-10.75,12.78-23.09,12.78
				C320.84,416.7,309.52,408.25,309.52,392.3z M358.87,385.96v-9.56c-2.41,2.01-12.13,3.27-17,3.96
				c-8.29,1.21-14.49,4.28-14.49,11.62c0,7.02,5.53,10.67,13.26,10.67C351.81,402.65,358.87,394.99,358.87,385.96z"/>
			<path class="st4" d="M435.29,348.73h-15.51v41.93c0,7.71,3.74,9.4,8.4,9.4c2.3,0,4.4-0.48,5.43-0.74l3.12,14.95
				c-2,0.69-5.63,1.74-10.9,1.9c-13.92,0.42-24.68-7.08-24.57-22.34v-45.1h-11.16v-14.79h11.16v-19.43h18.53v19.43h15.51V348.73z"/>
			<path class="st4" d="M446.6,374.98c0-25.03,14.69-42.09,37.22-42.09c19.35,0,35.94,12.52,35.94,40.98v5.86h-54.78
				c0.15,13.89,8.09,22.02,20.07,22.02c7.99,0,14.13-3.59,16.64-10.46l17.3,2.01c-3.28,14.1-15.87,23.34-34.2,23.34
				C461.09,416.65,446.6,400.43,446.6,374.98z M501.99,366.85c-0.1-11.04-7.27-19.07-17.92-19.07c-11.06,0-18.48,8.71-19.04,19.07
				H501.99z"/>
			<path class="st4" d="M536.23,306.91h18.99v49.7h1.28l40.9-49.7h23.19l-40.54,48.53l40.9,59.62h-22.83l-31.28-46.37l-11.62,14.15
				v32.21h-18.99V306.91z"/>
			<path class="st4" d="M626.45,312.08c0-5.76,4.81-10.4,10.75-10.4c5.89,0,10.7,4.65,10.7,10.4c0,5.7-4.81,10.35-10.7,10.35
				C631.26,322.43,626.45,317.79,626.45,312.08z M627.88,333.95h18.53v81.12h-18.53V333.95z"/>
			<path class="st4" d="M704.72,348.73H689.2v41.93c0,7.71,3.74,9.4,8.4,9.4c2.3,0,4.4-0.48,5.43-0.74l3.12,14.95
				c-2,0.69-5.63,1.74-10.9,1.9c-13.92,0.42-24.67-7.08-24.57-22.34v-45.1h-11.16v-14.79h11.16v-19.43h18.53v19.43h15.51V348.73z"/>
		</g>
	</g>
	<g>
		<g>
			<g>
				<path class="st5" d="M435.39,43.73H298.7c-4.03,0-7.3-3.27-7.3-7.3v0c0-4.03,3.27-7.3,7.3-7.3h136.69c4.03,0,7.3,3.27,7.3,7.3v0
					C442.68,40.46,439.42,43.73,435.39,43.73z"/>
			</g>
		</g>
		<g>
			<g>
				<path class="st5" d="M442.09,265.96h-80.02c-4.03,0-7.3-3.27-7.3-7.3v0c0-4.03,3.27-7.3,7.3-7.3h80.02c4.03,0,7.3,3.27,7.3,7.3
					v0C449.39,262.69,446.12,265.96,442.09,265.96z"/>
			</g>
		</g>
		<g>
			<g>
				<path class="st5" d="M331.92,145.76h-61.96c-5.42,0-9.82-4.4-9.82-9.82v0c0-5.42,4.4-9.82,9.82-9.82h61.96
					c5.42,0,9.82,4.4,9.82,9.82v0C341.74,141.36,337.35,145.76,331.92,145.76z"/>
			</g>
		</g>
		<g>
			<g>
				<rect x="356.96" y="126.12" class="st5" width="100.91" height="19.64"/>
			</g>
		</g>
		<g>
			<g>
				<path class="st5" d="M137.96,214.35H55.1c-4.03,0-7.3-3.27-7.3-7.3v0c0-4.03,3.27-7.3,7.3-7.3h82.87c4.03,0,7.3,3.27,7.3,7.3v0
					C145.26,211.08,142,214.35,137.96,214.35z"/>
			</g>
		</g>
		<g>
			<g>
				<path class="st5" d="M202.95,61.1H55.42c-4.19,0-7.58-3.39-7.58-7.58v0c0-4.19,3.39-7.58,7.58-7.58h147.53
					c4.19,0,7.58,3.39,7.58,7.58v0C210.53,57.7,207.13,61.1,202.95,61.1z"/>
			</g>
		</g>
		<g>
			<g>
				<path class="st5" d="M204.59,214.35h-35.88c-4.03,0-7.3-3.27-7.3-7.3v0c0-4.03,3.27-7.3,7.3-7.3h35.88c4.03,0,7.3,3.27,7.3,7.3
					v0C211.89,211.08,208.62,214.35,204.59,214.35z"/>
			</g>
		</g>
		<g>
			<g>
				<path class="st5" d="M232.12,145.76H57.57c-5.42,0-9.82-4.4-9.82-9.82v0c0-5.42,4.4-9.82,9.82-9.82h174.55
					c5.42,0,9.82,4.4,9.82,9.82v0C241.94,141.36,237.55,145.76,232.12,145.76z"/>
			</g>
		</g>
		<g>
			<g>
				<path class="st5" d="M269.18,265.96H55.25c-4.03,0-7.3-3.27-7.3-7.3v0c0-4.03,3.27-7.3,7.3-7.3h213.93c4.03,0,7.3,3.27,7.3,7.3
					v0C276.48,262.69,273.21,265.96,269.18,265.96z"/>
			</g>
		</g>
		<g>
			<g>
				<path class="st4" d="M637.98,210.2v38.54c0,1.08-0.88,1.96-1.96,1.96H597.1c-5.64,0-10.21,4.57-10.21,10.21v0
					c0,5.64,4.57,10.21,10.21,10.21h40.87h1.71c10.34,0,18.72-8.38,18.72-18.72v-1.71v-40.5c0-5.64-4.57-10.21-10.21-10.21l0,0
					C642.55,199.99,637.98,204.56,637.98,210.2z"/>
			</g>
		</g>
		<g>
			<g>
				<path class="st4" d="M637.98,60.92V24.48c0-2.24-1.81-4.05-4.05-4.05H597.1c-5.64,0-10.21-4.57-10.21-10.21v0
					C586.89,4.57,591.46,0,597.1,0l40.87,0h1.71c10.34,0,18.72,8.38,18.72,18.72v1.71v40.5c0,5.64-4.57,10.21-10.21,10.21l0,0
					C642.55,71.14,637.98,66.56,637.98,60.92z"/>
			</g>
		</g>
		<g>
			<g>
				<path class="st5" d="M435.38,182.02H58.18c-5.52,0-10-4.48-10-10s4.48-10,10-10H431l24.51-26.56l-23.66-29.03H57.75
					c-5.52,0-10-4.48-10-10s4.48-10,10-10h378.84c3.01,0,5.85,1.35,7.75,3.68l32.15,39.44c3.14,3.86,2.97,9.44-0.4,13.1
					l-33.36,36.15C440.83,180.85,438.17,182.02,435.38,182.02z"/>
			</g>
		</g>
		<g>
			<g>
				<path class="st5" d="M453.64,212.99h-145.9c-5.52,0-10-4.48-10-10s4.48-10,10-10h141.56l54.52-58.18l-53.89-58.36H307.91
					c-5.52,0-10-4.48-10-10s4.48-10,10-10h146.41c2.79,0,5.45,1.17,7.35,3.22l63.17,68.41c3.56,3.85,3.53,9.8-0.05,13.62
					l-63.85,68.13C459.05,211.85,456.41,212.99,453.64,212.99z"/>
			</g>
		</g>
		<g>
			<g>
				<path class="st5" d="M551.53,136.99c0.25-0.27,0.31-0.67,0.14-1c-0.92-1.75-1.94-3.23-3.03-4.47
					c-7.03-7.91-11.9-13.1-14.59-15.57c-3.32-3.05-6.09-5.68-8.33-7.88c-3.99-3.94-7.19-7.09-9.61-9.45
					c-17.84-17.37-27.78-27.24-29.84-29.6c-3.87-4.43-6.76-8.13-8.66-11.1c-3.42-5.38-3.36-11.95-2.19-18.3
					c0.52-2.86,1.83-5.92,3.9-9.19c3.47-5.47,7.61-10.31,13.49-12.7c8.61-3.5,17.37-3.92,26.28-1.25c4.84,1.45,9.1,4.12,12.8,8
					c2.49,2.62,4.96,5.2,7.43,7.73c21.73,22.31,34.52,35.37,38.38,39.22c11.41,11.39,19.2,19.26,23.37,23.57
					c9.65,9.99,20.09,19.97,29.27,30.37c0.92,1.04,1.83,2.38,2.71,4.02c1.88,3.48,1.52,8.23,1.06,12.26
					c-0.24,2.14-0.74,3.83-1.48,5.07c-1.38,2.33-3.4,4.81-6.06,7.47c-13.84,13.84-21.57,21.63-23.21,23.38
					c-5.95,6.39-14.35,15.22-25.19,26.51c-5.37,5.58-9.52,9.95-12.46,13.1c-9.35,9.99-17.08,18.11-23.18,24.35
					c-2.07,2.13-3.93,4.1-5.57,5.92c-7.87,8.8-15.77,17.37-28.12,17.77c-10.8,0.35-19.89-3.54-27.29-11.66
					c-4.88-5.35-7.57-11.62-8.17-19c-0.41-4.86-0.22-9.3,0.57-13.33c0.46-2.34,1.71-4.94,3.76-7.79c2.62-3.64,5.85-7.33,9.71-11.09
					c7.4-7.2,15.5-16.09,21.53-22.22c8.52-8.64,14.19-14.41,17.02-17.28c1.22-1.24,3.11-3.11,5.67-5.64
					C540.16,148.81,546.8,142.07,551.53,136.99 M532.66,186.53c-7.35,7.22-14.51,14.46-21.48,21.73c-4.94,5.15-8.27,8.76-9.99,10.82
					c-2.42,2.9-3.87,4.88-4.38,5.94c-2.23,4.61-0.23,10.8,3.45,14.12c1.44,1.29,3.2,2.13,5.31,2.5c3.85,0.69,8.27-2.67,10.83-5.31
					c4.71-4.88,9.6-10.23,14.65-16.07c1.63-1.88,3.68-4.07,6.17-6.58c3.35-3.38,5.46-5.53,6.32-6.48c4.49-4.96,7.56-8.27,9.19-9.93
					c5.21-5.29,10.39-10.61,15.52-15.98c1.86-1.94,4.48-4.23,6.62-6.49c2.74-2.9,4.33-4.56,4.77-5
					c10.58-10.53,21.22-21.32,31.92-32.37c0.33-0.33,0.29-0.88-0.07-1.18c-3.29-2.67-6.69-5.75-10.18-9.25
					c-28.46-28.52-43.82-43.95-46.05-46.29c-3.95-4.12-8.01-8.13-12.17-12.04c-3.79-3.56-7.28-7.46-10.82-11.31
					c-0.39-0.42-1.64-1.69-3.76-3.82c-1.37-1.37-2.64-2.81-3.83-4.33c-3.01-3.85-5.38-6.91-8.5-9c-2.4-1.6-5.44-2.34-9.12-2.24
					c-5.33,0.15-10.18,4.83-9.13,10.38c0.37,1.95,1.93,4.24,4.68,6.87c0.67,0.63,3.14,3.01,7.4,7.14
					c4.41,4.26,21.69,20.81,51.86,49.67c2.24,2.14,4.82,4.8,7.76,7.96c4.79,5.15,6.35,11.28,5.57,18.11
					c-0.38,3.32-1.44,6.11-3.17,8.38c-2.12,2.77-4.41,5.38-6.87,7.84c-0.82,0.82-9.54,9.46-26.13,25.9
					C535.19,184.04,533.06,186.14,532.66,186.53L532.66,186.53z"/>
			</g>
		</g>
		<path class="st4" d="M314.91,228.52c-14.71,0-26.64,11.92-26.64,26.63c0,14.71,11.93,26.64,26.64,26.64s26.63-11.93,26.63-26.64
			C341.54,240.44,329.62,228.52,314.91,228.52z M314.91,263.53c-4.63,0-8.38-3.75-8.38-8.38c0-4.62,3.75-8.37,8.38-8.37
			c4.62,0,8.37,3.75,8.37,8.37C323.28,259.78,319.53,263.53,314.91,263.53z"/>
		<path class="st4" d="M253.92,27.1c-14.71,0-26.64,11.92-26.64,26.63c0,14.71,11.93,26.64,26.64,26.64
			c14.71,0,26.63-11.93,26.63-26.64C280.55,39.02,268.63,27.1,253.92,27.1z M253.92,62.11c-4.63,0-8.38-3.75-8.38-8.38
			c0-4.62,3.75-8.37,8.38-8.37c4.62,0,8.37,3.75,8.37,8.37C262.29,58.36,258.54,62.11,253.92,62.11z"/>
		<path class="st4" d="M253.92,184.92c-14.71,0-26.64,11.92-26.64,26.63c0,14.71,11.93,26.64,26.64,26.64
			c14.71,0,26.63-11.93,26.63-26.64C280.55,196.84,268.63,184.92,253.92,184.92z M253.92,219.93c-4.63,0-8.38-3.75-8.38-8.38
			c0-4.62,3.75-8.37,8.38-8.37c4.62,0,8.37,3.75,8.37,8.37C262.29,216.18,258.54,219.93,253.92,219.93z"/>
	</g>
</g>
</svg>
