<?xml version="1.0" encoding="utf-8"?>
<!-- Generator: Adobe Illustrator 14.0.0, SVG Export Plug-In . SVG Version: 6.00 Build 43363)  -->
<!DOCTYPE svg PUBLIC "-//W3C//DTD SVG 1.1//EN" "http://www.w3.org/Graphics/SVG/1.1/DTD/svg11.dtd">
<svg version="1.1" id="레이어_1" xmlns="http://www.w3.org/2000/svg" xmlns:xlink="http://www.w3.org/1999/xlink" x="0px"
	 y="0px" width="1400px" height="1400px" viewBox="0 0 1400 1400" enable-background="new 0 0 1400 1400" xml:space="preserve">
<rect fill="#FFFFFF" width="1400" height="1400"/>
<g>
	<g>
		<g>
			<linearGradient id="SVGID_1_" gradientUnits="userSpaceOnUse" x1="436.9268" y1="684.8037" x2="943.7725" y2="684.8037">
				<stop  offset="0" style="stop-color:#0188B6"/>
				<stop  offset="1" style="stop-color:#174993"/>
			</linearGradient>
			<path fill="url(#SVGID_1_)" d="M927.646,862.496c-2.747-23.29-21.084-37.011-41.595-41.909l-364.308-66.418l402.175-237.84
				c7.432-4.519,12.567-10.768,16.005-17.023l0.149-0.062c1.368-2.616,2.31-5.639,2.959-8.782l0.213-0.95l0.197-1.893l0.207-2.013
				l0.08-1.21l0.044-2.772v-0.746l-0.208-3.307l-0.078-0.608l-0.41-3.458l-0.777-3.731l-0.063-0.442l0,0
				c-0.308-1.41-0.718-2.824-1.188-4.278l-0.223-0.785l-1.271-3.399l-0.53-1.288l-1.189-2.817l-0.655-1.434l-1.267-2.528
				l-0.739-1.381l-1.515-2.526l-0.739-1.093l-1.634-2.541l-0.467-0.52c-1.558-2.169-3.174-4.112-5.021-6.047
				c-3.681-3.953-7.652-6.918-11.56-9.078l-0.513-0.289l-2.379-1.074l-0.937-0.379l-2.067-0.805l-1.104-0.352l-2.522-0.538
				l-0.649-0.135l-3.479-0.258l-366.217,24.459c-17.21-0.326-34.675,3.08-33.587,20.479c1.144,17.428,20.959,23.538,38.805,24.764
				l250.11,5.886L447.69,723.812c-2.824,1.507-5.158,3.481-6.912,5.89l-0.393,0.6l-1.024,1.556l-0.695,1.385l-0.391,0.95
				l-0.617,1.907l-0.2,0.683l-0.373,2.292l-0.121,0.556l-0.039,2.596v0.371l0.125,1.817l0.098,1.11l0.51,2.355l0.104,0.666
				l0.699,2.178l0.345,0.938l0.822,1.863l0.57,1.255l0.779,1.656l0.859,1.488l1.023,1.536l0.962,1.429l1.723,2.275l0.511,0.676
				c2.495,2.954,10.068,12.78,13.382,15.354l0.412,0.321l2.781,2.055l1.333,0.833l1.986,1.248l2.042,1.11l1.517,0.84l2.58,1.265
				l0.982,0.469l3.313,1.271l0.448,0.207l3.814,1.191l0.038,0.014l391.532,152.133C917.452,955.39,930.404,886.379,927.646,862.496z
				"/>
			<g>
				<linearGradient id="SVGID_2_" gradientUnits="userSpaceOnUse" x1="933.9443" y1="939.4111" x2="1204.624" y2="939.4111">
					<stop  offset="0" style="stop-color:#0188B6"/>
					<stop  offset="1" style="stop-color:#174993"/>
				</linearGradient>
				<path opacity="0.47" fill="url(#SVGID_2_)" d="M1201.332,980.644c-16.461,39.65-98.49,56.279-169.572,32.009
					c-70.22-23.956-110.585-79.804-94.171-119.488c16.479-39.591,87.759-48.009,159.09-27.529
					C1171.283,887.071,1217.736,941.009,1201.332,980.644z"/>
				<linearGradient id="SVGID_3_" gradientUnits="userSpaceOnUse" x1="939.1973" y1="936.0508" x2="1181.7383" y2="936.0508">
					<stop  offset="0" style="stop-color:#0188B6"/>
					<stop  offset="1" style="stop-color:#174993"/>
				</linearGradient>
				<path opacity="0.735" fill="url(#SVGID_3_)" d="M1178.898,973.33c-14.443,34.804-87.766,48.873-151.479,26.993
					c-62.974-21.596-99.479-71.075-85.103-105.871c14.48-34.784,78.203-41.644,142.133-23.121
					C1151.35,890.703,1193.334,938.547,1178.898,973.33z"/>
				<linearGradient id="SVGID_4_" gradientUnits="userSpaceOnUse" x1="944.4463" y1="932.6895" x2="1158.8545" y2="932.6895">
					<stop  offset="0" style="stop-color:#0188B6"/>
					<stop  offset="1" style="stop-color:#174993"/>
				</linearGradient>
				<path fill="url(#SVGID_4_)" d="M1156.465,966.016c-12.426,29.958-77.04,41.468-133.387,21.979
					c-55.728-19.235-88.373-62.346-76.033-92.254c12.482-29.979,68.646-35.278,125.176-18.713
					C1131.415,894.335,1168.932,936.084,1156.465,966.016z"/>
				<linearGradient id="SVGID_5_" gradientUnits="userSpaceOnUse" x1="951.1953" y1="927.8867" x2="1121.751" y2="927.8867">
					<stop  offset="0" style="stop-color:#0188B6"/>
					<stop  offset="1" style="stop-color:#174993"/>
				</linearGradient>
				<path fill="url(#SVGID_5_)" d="M1114.59,963.811c-19.181,20.97-72.988,23.26-114.813,3.229
					c-41.516-19.872-59.535-54.897-41.761-76.217c17.813-21.373,67.425-20.542,110.725-1.604
					C1113.271,908.496,1133.697,942.883,1114.59,963.811z"/>
				<linearGradient id="SVGID_6_" gradientUnits="userSpaceOnUse" x1="953.5713" y1="923.4951" x2="1090.0391" y2="923.4951">
					<stop  offset="0" style="stop-color:#0188B6"/>
					<stop  offset="1" style="stop-color:#174993"/>
				</linearGradient>
				<path fill="url(#SVGID_6_)" d="M1065.262,901.408c29.864,21.249,33.2,48.273,7.454,60.197
					c-25.937,11.981-68.937,5.053-96.238-15.521c-27.305-20.51-30.698-47.45-7.489-60.182
					C992.133,873.136,1035.193,880.099,1065.262,901.408z"/>
			</g>
		</g>
		<linearGradient id="SVGID_7_" gradientUnits="userSpaceOnUse" x1="273.1777" y1="187.6875" x2="273.1777" y2="799.8804">
			<stop  offset="0" style="stop-color:#0188B6"/>
			<stop  offset="1" style="stop-color:#174993"/>
		</linearGradient>
		<path fill="url(#SVGID_7_)" d="M355.25,799.88c-3.052,0-6.154-0.415-9.236-1.278c-25.19-7.076-49.361-17.345-71.841-30.527
			c-46.583-27.281-85.541-66.874-112.639-114.482c-26.837-47.194-41.021-101.122-41.021-155.961
			c0-54.892,14.185-108.821,41.021-155.962c27.088-47.625,66.047-87.233,112.656-114.529c34.924-20.465,72.911-33.631,112.897-39.13
			c18.653-2.57,35.865,10.478,38.431,29.138c2.566,18.659-10.479,35.864-29.138,38.43c-31.051,4.27-60.564,14.502-87.715,30.412
			c-36.295,21.254-66.672,52.171-87.852,89.411c-20.999,36.886-32.095,79.149-32.095,122.229c0,43.04,11.101,85.308,32.095,122.234
			c21.18,37.207,51.557,68.114,87.843,89.362c17.462,10.242,36.225,18.217,55.792,23.707c18.132,5.092,28.705,23.919,23.615,42.054
			C383.837,790.036,370.15,799.88,355.25,799.88z"/>
		<linearGradient id="SVGID_8_" gradientUnits="userSpaceOnUse" x1="548.4375" y1="418.7144" x2="1322.9473" y2="418.7144">
			<stop  offset="0" style="stop-color:#0188B6"/>
			<stop  offset="1" style="stop-color:#174993"/>
		</linearGradient>
		<path fill="url(#SVGID_8_)" d="M1132.733,799.88c-14.929,0-28.63-9.884-32.833-24.97c-5.049-18.142,5.568-36.948,23.712-41.997
			c3.413-0.95,6.817-2.014,10.125-3.165c18.575-6.426,35.86-15.971,51.455-28.4c27.455-21.862,48.052-51.416,59.575-85.476
			c11.459-34.042,13.082-70.672,4.678-105.886c-8.352-34.869-26.219-66.276-51.666-90.806
			c-25.234-24.246-56.478-40.272-90.313-46.307l-59.089-10.573l-9.674-60.334c-8.197-50.934-32.746-98.317-69.121-133.402
			c-36.811-35.478-82.562-56.842-132.297-61.77c-49.933-4.931-98.765,6.988-141.205,34.489
			c-35.536,23.033-64.155,55.807-82.76,94.777c-8.112,16.996-28.467,24.197-45.465,16.083c-16.997-8.114-24.196-28.47-16.082-45.468
			c24.031-50.338,61.104-92.742,107.218-122.628c54.762-35.483,120.49-51.509,185.016-45.125
			c64.226,6.364,125.63,34.968,172.916,80.542c46.944,45.28,78.591,106.249,89.122,171.686l2.013,12.54l11.403,2.04
			c47.143,8.409,90.581,30.647,125.612,64.306c34.88,33.618,59.315,76.516,70.706,124.093c11.386,47.69,9.175,97.322-6.389,143.553
			c-15.747,46.543-43.992,86.987-81.701,117.006c-21.652,17.265-45.742,30.558-71.587,39.491c-4.588,1.599-9.396,3.102-14.204,4.443
			C1138.839,799.472,1135.761,799.88,1132.733,799.88z"/>
	</g>
</g>
<g>
	<path fill="#0268A8" d="M82.167,1315.228c-11.075,0-20.471-2.042-28.186-6.124c-7.717-4.082-13.695-10.041-17.937-17.883
		c-4.241-7.84-6.599-17.398-7.068-28.673c-0.119-5.312-0.177-11.013-0.177-17.105c0-6.09,0.058-11.922,0.177-17.495
		c0.469-11.144,2.855-20.635,7.157-28.478c4.299-7.839,10.338-13.832,18.113-17.98c7.775-4.146,17.081-6.221,27.921-6.221
		c7.892,0,15.079,1.103,21.56,3.305c6.478,2.205,12.074,5.379,16.788,9.525c4.71,4.148,8.364,9.008,10.957,14.578
		c2.59,5.574,4.003,11.794,4.241,18.661c0,1.167-0.384,2.139-1.149,2.916c-0.768,0.777-1.679,1.167-2.739,1.167h-20.146
		c-1.414,0-2.535-0.39-3.358-1.167c-0.826-0.777-1.474-2.071-1.944-3.888c-1.767-7.645-4.713-12.894-8.835-15.745
		c-4.125-2.849-9.25-4.276-15.375-4.276c-7.306,0-13.077,2.205-17.318,6.609c-4.241,4.406-6.539,11.729-6.892,21.965
		c-0.354,10.628-0.354,21.514,0,32.657c0.354,10.239,2.651,17.562,6.892,21.966c4.241,4.407,10.012,6.609,17.318,6.609
		c6.125,0,11.279-1.458,15.463-4.374c4.18-2.916,7.096-8.131,8.747-15.648c0.47-1.943,1.118-3.271,1.944-3.984
		c0.823-0.711,1.944-1.069,3.358-1.069h20.146c1.06,0,1.971,0.389,2.739,1.166c0.765,0.778,1.149,1.75,1.149,2.916
		c-0.238,6.87-1.651,13.091-4.241,18.661c-2.593,5.573-6.246,10.434-10.957,14.579c-4.713,4.149-10.31,7.323-16.788,9.525
		C97.246,1314.125,90.058,1315.228,82.167,1315.228z"/>
	<path fill="#0268A8" d="M157.976,1313.283c-1.297,0-2.358-0.452-3.181-1.36c-0.826-0.905-1.237-2.072-1.237-3.499v-128.296
		c0-1.424,0.412-2.591,1.237-3.498c0.823-0.905,1.883-1.361,3.181-1.361h17.672c1.176,0,2.178,0.456,3.004,1.361
		c0.823,0.907,1.237,2.074,1.237,3.498v128.296c0,1.427-0.414,2.594-1.237,3.499c-0.826,0.908-1.828,1.36-3.004,1.36H157.976z"/>
	<path fill="#0268A8" d="M244.212,1315.228c-9.78,0-17.967-1.783-24.563-5.346c-6.599-3.563-11.636-8.65-15.109-15.26
		c-3.476-6.609-5.39-14.317-5.743-23.132c-0.119-2.591-0.177-5.54-0.177-8.845s0.058-6.187,0.177-8.65
		c0.354-8.941,2.355-16.684,6.008-23.229c3.65-6.542,8.775-11.596,15.375-15.162c6.596-3.563,14.606-5.346,24.033-5.346
		c9.305,0,17.257,1.783,23.856,5.346c6.596,3.566,11.721,8.62,15.374,15.162c3.65,6.546,5.655,14.288,6.008,23.229
		c0.235,2.464,0.354,5.346,0.354,8.65s-0.119,6.254-0.354,8.845c-0.354,8.814-2.27,16.522-5.743,23.132
		c-3.476,6.609-8.513,11.696-15.109,15.26C262,1313.444,253.871,1315.228,244.212,1315.228z M244.212,1293.845
		c5.771,0,10.13-1.975,13.077-5.929c2.943-3.952,4.534-9.75,4.771-17.397c0.116-1.944,0.177-4.535,0.177-7.775
		c0-3.238-0.061-5.832-0.177-7.776c-0.237-7.514-1.828-13.281-4.771-17.3c-2.946-4.016-7.306-6.026-13.077-6.026
		c-5.774,0-10.161,2.011-13.166,6.026c-3.004,4.019-4.625,9.786-4.859,17.3c-0.119,1.944-0.177,4.538-0.177,7.776
		c0,3.24,0.058,5.831,0.177,7.775c0.234,7.647,1.855,13.445,4.859,17.397C234.051,1291.87,238.438,1293.845,244.212,1293.845z"/>
	<path fill="#0268A8" d="M342.112,1315.228c-6.834,0-12.873-1.72-18.113-5.151c-5.244-3.433-9.308-8.423-12.193-14.968
		c-2.888-6.543-4.33-14.482-4.33-23.813v-54.234c0-1.424,0.412-2.591,1.237-3.499c0.823-0.904,1.825-1.36,3.004-1.36h18.732
		c1.295,0,2.355,0.456,3.181,1.36c0.823,0.908,1.237,2.075,1.237,3.499v53.067c0,14.516,5.771,21.771,17.318,21.771
		c5.536,0,9.923-1.91,13.165-5.734c3.239-3.82,4.86-9.166,4.86-16.037v-53.067c0-1.424,0.411-2.591,1.237-3.499
		c0.823-0.904,1.883-1.36,3.181-1.36h18.731c1.176,0,2.179,0.456,3.004,1.36c0.823,0.908,1.237,2.075,1.237,3.499v91.362
		c0,1.427-0.414,2.594-1.237,3.499c-0.826,0.908-1.828,1.36-3.004,1.36h-17.318c-1.298,0-2.358-0.452-3.181-1.36
		c-0.826-0.905-1.237-2.072-1.237-3.499v-7.581c-3.065,4.665-7.011,8.23-11.84,10.691
		C354.952,1313.994,349.062,1315.228,342.112,1315.228z"/>
	<path fill="#0268A8" d="M453.973,1315.228c-5.893,0-11.133-1.069-15.728-3.208c-4.594-2.138-8.482-5.248-11.663-9.33
		c-3.181-4.082-5.597-8.942-7.245-14.579c-1.651-5.638-2.651-11.888-3.004-18.759c-0.119-2.46-0.177-4.695-0.177-6.706
		c0-2.008,0.058-4.18,0.177-6.512c0.235-6.737,1.207-12.894,2.916-18.467c1.707-5.57,4.123-10.399,7.245-14.482
		c3.12-4.082,7.008-7.256,11.663-9.524c4.653-2.266,9.924-3.402,15.816-3.402c6.124,0,11.368,1.137,15.728,3.402
		c4.357,2.269,7.952,5.218,10.779,8.845v-42.377c0-1.424,0.412-2.591,1.237-3.498c0.823-0.905,1.883-1.361,3.181-1.361h18.202
		c1.176,0,2.179,0.456,3.004,1.361c0.823,0.907,1.237,2.074,1.237,3.498v128.296c0,1.427-0.414,2.594-1.237,3.499
		c-0.826,0.908-1.828,1.36-3.004,1.36h-16.964c-1.179,0-2.182-0.452-3.004-1.36c-0.826-0.905-1.237-2.072-1.237-3.499v-6.609
		c-2.946,3.888-6.657,7.095-11.133,9.622C466.282,1313.964,460.688,1315.228,453.973,1315.228z M462.102,1291.9
		c4.357,0,7.864-1.1,10.514-3.305c2.651-2.201,4.595-4.987,5.832-8.358c1.237-3.368,1.914-6.998,2.032-10.886
		c0.235-2.46,0.354-4.923,0.354-7.387c0-2.46-0.119-4.859-0.354-7.192c-0.119-3.626-0.825-7.028-2.12-10.205
		c-1.298-3.174-3.27-5.798-5.92-7.872c-2.65-2.072-6.097-3.11-10.337-3.11c-4.479,0-8.013,1.069-10.603,3.207
		c-2.593,2.139-4.448,4.957-5.566,8.456c-1.121,3.499-1.798,7.322-2.032,11.469c-0.354,4.019-0.354,8.036,0,12.052
		c0.234,4.149,0.911,7.97,2.032,11.469c1.118,3.499,2.974,6.317,5.566,8.456C454.088,1290.832,457.623,1291.9,462.102,1291.9z"/>
	<path fill="#0268A8" d="M575.196,1313.283c-1.179,0-2.209-0.452-3.092-1.36c-0.884-0.905-1.325-2.072-1.325-3.499v-126.352
		c0-1.425,0.441-2.591,1.325-3.499c0.883-0.905,1.914-1.36,3.092-1.36h16.435c1.767,0,3.093,0.52,3.976,1.555
		c0.884,1.039,1.502,1.816,1.855,2.333l32.516,65.896l32.869-65.896c0.235-0.517,0.795-1.294,1.679-2.333
		c0.884-1.035,2.209-1.555,3.976-1.555h16.435c1.295,0,2.355,0.455,3.181,1.36c0.823,0.908,1.237,2.074,1.237,3.499v126.352
		c0,1.427-0.414,2.594-1.237,3.499c-0.825,0.908-1.886,1.36-3.181,1.36h-18.025c-1.179,0-2.181-0.452-3.004-1.36
		c-0.825-0.905-1.237-2.072-1.237-3.499v-78.532l-22.443,46.264c-0.591,1.166-1.355,2.205-2.297,3.11
		c-0.944,0.908-2.181,1.36-3.711,1.36h-8.306c-1.532,0-2.77-0.452-3.711-1.36c-0.944-0.905-1.709-1.944-2.297-3.11l-22.443-46.264
		v78.532c0,1.427-0.414,2.594-1.237,3.499c-0.826,0.908-1.828,1.36-3.004,1.36H575.196z"/>
	<path fill="#0268A8" d="M717.273,1196.651c-1.18,0-2.182-0.453-3.005-1.36c-0.825-0.905-1.237-2.072-1.237-3.499v-15.552
		c0-1.424,0.412-2.624,1.237-3.596c0.823-0.972,1.825-1.458,3.005-1.458h18.555c1.295,0,2.386,0.486,3.269,1.458
		c0.884,0.972,1.326,2.172,1.326,3.596v15.552c0,1.427-0.442,2.594-1.326,3.499c-0.883,0.907-1.974,1.36-3.269,1.36H717.273z
		 M717.803,1313.283c-1.179,0-2.182-0.452-3.004-1.36c-0.826-0.905-1.237-2.072-1.237-3.499v-91.362
		c0-1.424,0.411-2.591,1.237-3.499c0.822-0.904,1.825-1.36,3.004-1.36h17.672c1.295,0,2.355,0.456,3.181,1.36
		c0.823,0.908,1.237,2.075,1.237,3.499v91.362c0,1.427-0.414,2.594-1.237,3.499c-0.825,0.908-1.886,1.36-3.181,1.36H717.803z"/>
	<path fill="#0268A8" d="M805.099,1356.048c-8.72,0-15.966-1.263-21.736-3.79c-5.773-2.527-10.338-5.573-13.695-9.137
		c-3.357-3.565-5.743-7.095-7.157-10.594s-2.182-6.221-2.297-8.164c-0.119-1.428,0.292-2.594,1.236-3.499
		c0.942-0.908,2.002-1.36,3.182-1.36h18.908c1.061,0,1.972,0.291,2.739,0.874c0.765,0.584,1.383,1.586,1.855,3.014
		c0.588,1.555,1.413,3.207,2.474,4.957c1.061,1.749,2.679,3.207,4.859,4.373c2.179,1.167,5.095,1.75,8.748,1.75
		c4.122,0,7.538-0.65,10.249-1.944c2.709-1.297,4.741-3.499,6.097-6.609c1.354-3.109,2.032-7.322,2.032-12.635v-13.023
		c-2.827,3.371-6.392,6.156-10.691,8.358c-4.302,2.205-9.572,3.305-15.815,3.305c-6.127,0-11.517-1.069-16.17-3.208
		c-4.655-2.138-8.513-5.182-11.574-9.136c-3.065-3.952-5.421-8.714-7.069-14.287c-1.65-5.571-2.593-11.858-2.827-18.856
		c-0.118-3.498-0.118-6.931,0-10.302c0.234-6.737,1.177-12.894,2.827-18.467c1.648-5.57,4.004-10.399,7.069-14.482
		c3.062-4.082,6.919-7.256,11.574-9.524c4.653-2.266,10.043-3.402,16.17-3.402c6.478,0,12.017,1.361,16.611,4.083
		c4.595,2.721,8.363,6.093,11.31,10.107v-7.387c0-1.294,0.411-2.43,1.237-3.401c0.822-0.972,1.825-1.458,3.004-1.458h17.318
		c1.176,0,2.209,0.486,3.092,1.458c0.884,0.972,1.325,2.107,1.325,3.401l0.177,93.5c0,9.72-1.709,17.947-5.124,24.688
		c-3.419,6.736-8.455,11.888-15.109,15.453C823.27,1354.266,814.994,1356.048,805.099,1356.048z M804.215,1289.18
		c4.241,0,7.687-1.069,10.338-3.208c2.65-2.138,4.622-4.859,5.92-8.164c1.295-3.305,2.002-6.771,2.12-10.399
		c0.116-1.425,0.177-3.466,0.177-6.123c0-2.655-0.061-4.696-0.177-6.124c-0.118-3.626-0.825-7.095-2.12-10.399
		c-1.298-3.305-3.27-5.992-5.92-8.066c-2.651-2.072-6.097-3.11-10.338-3.11c-4.479,0-8.013,1.069-10.604,3.207
		c-2.593,2.139-4.479,4.957-5.654,8.456c-1.18,3.499-1.886,7.322-2.121,11.469c-0.118,3.11-0.118,6.156,0,9.136
		c0.235,4.276,0.941,8.165,2.121,11.663c1.176,3.499,3.062,6.318,5.654,8.456C796.202,1288.11,799.736,1289.18,804.215,1289.18z"/>
	<path fill="#0268A8" d="M876.668,1313.283c-1.179,0-2.181-0.452-3.004-1.36c-0.825-0.905-1.237-2.072-1.237-3.499v-91.362
		c0-1.294,0.412-2.43,1.237-3.401c0.823-0.972,1.825-1.458,3.004-1.458h17.318c1.176,0,2.209,0.486,3.093,1.458
		c0.883,0.972,1.325,2.107,1.325,3.401v7.775c2.943-4.015,6.565-7.125,10.868-9.33c4.299-2.202,9.277-3.305,14.932-3.305h7.6
		c1.176,0,2.178,0.456,3.004,1.36c0.822,0.908,1.237,2.075,1.237,3.499v16.718c0,1.428-0.415,2.594-1.237,3.499
		c-0.826,0.908-1.828,1.36-3.004,1.36h-15.552c-5.186,0-9.25,1.589-12.193,4.763c-2.945,3.177-4.417,7.678-4.417,13.51v51.513
		c0,1.427-0.415,2.594-1.237,3.499c-0.826,0.908-1.886,1.36-3.181,1.36H876.668z"/>
	<path fill="#0268A8" d="M974.748,1315.228c-6.246,0-11.841-1.331-16.788-3.985c-4.948-2.654-8.896-6.251-11.84-10.788
		c-2.946-4.535-4.418-9.589-4.418-15.162c0-9.2,3.385-16.456,10.161-21.771c6.772-5.313,15.697-8.942,26.772-10.886l23.149-3.693
		v-3.499c0-5.054-1.061-8.942-3.181-11.663c-2.121-2.722-5.832-4.082-11.134-4.082c-3.888,0-7.01,0.844-9.365,2.526
		c-2.358,1.687-4.184,3.888-5.479,6.609c-0.944,1.686-2.297,2.527-4.064,2.527h-16.788c-1.298,0-2.297-0.419-3.004-1.264
		c-0.707-0.842-1.002-1.847-0.884-3.013c0-2.202,0.765-4.793,2.298-7.775c1.529-2.98,3.888-5.93,7.068-8.845
		c3.181-2.916,7.245-5.346,12.193-7.29c4.948-1.943,11.015-2.916,18.201-2.916c7.423,0,13.784,0.973,19.086,2.916
		c5.301,1.944,9.542,4.666,12.723,8.164c3.182,3.499,5.537,7.551,7.069,12.149c1.529,4.602,2.297,9.559,2.297,14.871v60.065
		c0,1.427-0.414,2.594-1.237,3.499c-0.825,0.908-1.886,1.36-3.181,1.36h-17.317c-1.18,0-2.182-0.452-3.005-1.36
		c-0.825-0.905-1.236-2.072-1.236-3.499v-7.192c-1.533,2.463-3.596,4.763-6.186,6.9c-2.593,2.139-5.686,3.857-9.277,5.151
		C983.788,1314.577,979.577,1315.228,974.748,1315.228z M981.816,1295.011c3.888,0,7.361-0.905,10.426-2.722
		c3.063-1.813,5.479-4.598,7.245-8.358c1.768-3.757,2.651-8.486,2.651-14.19v-3.305l-16.435,2.916
		c-6.362,1.167-11.018,2.916-13.961,5.249c-2.946,2.332-4.418,5.185-4.418,8.553c0,2.463,0.677,4.602,2.032,6.415
		c1.354,1.816,3.15,3.177,5.391,4.082C976.984,1294.559,979.342,1295.011,981.816,1295.011z"/>
	<path fill="#0268A8" d="M1093.674,1313.283c-7.306,0-13.549-1.327-18.731-3.985c-5.186-2.654-9.101-6.77-11.752-12.343
		c-2.65-5.57-3.976-12.568-3.976-20.994v-40.821h-13.784c-1.298,0-2.357-0.452-3.181-1.36c-0.825-0.905-1.237-2.071-1.237-3.499
		v-13.219c0-1.424,0.412-2.591,1.237-3.499c0.823-0.904,1.883-1.36,3.181-1.36h13.784v-32.074c0-1.424,0.441-2.591,1.325-3.498
		c0.884-0.905,1.913-1.361,3.093-1.361h17.317c1.296,0,2.355,0.456,3.182,1.361c0.822,0.907,1.236,2.074,1.236,3.498v32.074h22.09
		c1.176,0,2.179,0.456,3.004,1.36c0.823,0.908,1.237,2.075,1.237,3.499v13.219c0,1.428-0.414,2.594-1.237,3.499
		c-0.825,0.908-1.828,1.36-3.004,1.36h-22.09v38.488c0,4.927,0.796,8.781,2.386,11.566c1.591,2.788,4.388,4.18,8.395,4.18h12.9
		c1.176,0,2.178,0.455,3.004,1.36c0.822,0.908,1.236,2.011,1.236,3.305v14.385c0,1.427-0.414,2.594-1.236,3.499
		c-0.826,0.908-1.828,1.36-3.004,1.36H1093.674z"/>
	<path fill="#0268A8" d="M1132.374,1196.651c-1.179,0-2.181-0.453-3.004-1.36c-0.825-0.905-1.237-2.072-1.237-3.499v-15.552
		c0-1.424,0.412-2.624,1.237-3.596c0.823-0.972,1.825-1.458,3.004-1.458h18.556c1.295,0,2.386,0.486,3.269,1.458
		c0.884,0.972,1.326,2.172,1.326,3.596v15.552c0,1.427-0.442,2.594-1.326,3.499c-0.883,0.907-1.974,1.36-3.269,1.36H1132.374z
		 M1132.904,1313.283c-1.179,0-2.181-0.452-3.004-1.36c-0.825-0.905-1.237-2.072-1.237-3.499v-91.362
		c0-1.424,0.412-2.591,1.237-3.499c0.823-0.904,1.825-1.36,3.004-1.36h17.672c1.295,0,2.355,0.456,3.181,1.36
		c0.823,0.908,1.237,2.075,1.237,3.499v91.362c0,1.427-0.414,2.594-1.237,3.499c-0.825,0.908-1.886,1.36-3.181,1.36H1132.904z"/>
	<path fill="#0268A8" d="M1219.847,1315.228c-9.78,0-17.967-1.783-24.563-5.346c-6.6-3.563-11.636-8.65-15.109-15.26
		c-3.477-6.609-5.39-14.317-5.743-23.132c-0.119-2.591-0.177-5.54-0.177-8.845s0.058-6.187,0.177-8.65
		c0.354-8.941,2.355-16.684,6.009-23.229c3.649-6.542,8.774-11.596,15.374-15.162c6.597-3.563,14.606-5.346,24.033-5.346
		c9.305,0,17.257,1.783,23.856,5.346c6.597,3.566,11.721,8.62,15.374,15.162c3.65,6.546,5.655,14.288,6.009,23.229
		c0.234,2.464,0.354,5.346,0.354,8.65s-0.119,6.254-0.354,8.845c-0.354,8.814-2.271,16.522-5.743,23.132
		c-3.477,6.609-8.513,11.696-15.109,15.26C1237.634,1313.444,1229.505,1315.228,1219.847,1315.228z M1219.847,1293.845
		c5.771,0,10.131-1.975,13.077-5.929c2.943-3.952,4.533-9.75,4.771-17.397c0.116-1.944,0.177-4.535,0.177-7.775
		c0-3.238-0.061-5.832-0.177-7.776c-0.237-7.514-1.827-13.281-4.771-17.3c-2.946-4.016-7.307-6.026-13.077-6.026
		c-5.773,0-10.161,2.011-13.165,6.026c-3.005,4.019-4.625,9.786-4.86,17.3c-0.118,1.944-0.177,4.538-0.177,7.776
		c0,3.24,0.059,5.831,0.177,7.775c0.235,7.647,1.855,13.445,4.86,17.397C1209.686,1291.87,1214.073,1293.845,1219.847,1293.845z"/>
	<path fill="#0268A8" d="M1288.234,1313.283c-1.179,0-2.181-0.452-3.004-1.36c-0.825-0.905-1.237-2.072-1.237-3.499v-91.362
		c0-1.424,0.412-2.591,1.237-3.499c0.823-0.904,1.825-1.36,3.004-1.36h17.318c1.295,0,2.355,0.456,3.181,1.36
		c0.823,0.908,1.237,2.075,1.237,3.499v7.581c3.062-4.146,7.008-7.581,11.84-10.302c4.829-2.722,10.719-4.083,17.672-4.083
		c6.949,0,13.046,1.72,18.289,5.151c5.241,3.436,9.366,8.426,12.37,14.968c3.005,6.546,4.507,14.482,4.507,23.813v54.234
		c0,1.427-0.442,2.594-1.325,3.499c-0.884,0.908-1.917,1.36-3.093,1.36h-18.731c-1.298,0-2.358-0.452-3.182-1.36
		c-0.825-0.905-1.236-2.072-1.236-3.499v-53.067c0-6.868-1.502-12.214-4.507-16.037c-3.004-3.821-7.395-5.734-13.165-5.734
		c-5.539,0-9.957,1.913-13.254,5.734c-3.3,3.823-4.947,9.169-4.947,16.037v53.067c0,1.427-0.415,2.594-1.237,3.499
		c-0.826,0.908-1.828,1.36-3.004,1.36H1288.234z"/>
</g>
</svg>
